<?xml version="1.0" encoding="UTF-8"?>
<svg xmlns="http://www.w3.org/2000/svg" width="73" height="73" viewBox="0 0 73 73">
  <g id="Group_3583" data-name="Group 3583" transform="translate(19700 8609)">
    <rect id="Rectangle_3670" data-name="Rectangle 3670" width="73" height="73" transform="translate(-19700 -8609)" fill="none"></rect>
    <path id="Path_126551" data-name="Path 126551" d="M96.642,1252.246a17.542,17.542,0,0,1-1.081,6.122,16.844,16.844,0,0,1-6.122,1.081h0a17.56,17.56,0,0,1-6.122-1.081,17.543,17.543,0,0,1-1.081-6.122h0a17.551,17.551,0,0,1,1.081-6.122,17.543,17.543,0,0,1,6.122-1.081h0a17.543,17.543,0,0,1,6.122,1.081,17.55,17.55,0,0,1,1.081,6.122Zm21.246-4.86H101.142l11.705-11.883a29.319,29.319,0,0,0-6.664-6.664L94.3,1240.724V1223.8a44.642,44.642,0,0,0-4.861-.358h0a44.642,44.642,0,0,0-4.861.358v16.746L72.7,1228.839a29.318,29.318,0,0,0-6.664,6.664l11.883,11.883H60.991s-.359,3.24-.359,4.86h0a44,44,0,0,0,.359,4.861H77.737L66.032,1268.99a29.27,29.27,0,0,0,6.664,6.664l11.883-11.883v16.744a40.974,40.974,0,0,0,4.861.361h0a44.044,44.044,0,0,0,4.861-.361v-16.744l11.883,11.883a29.327,29.327,0,0,0,3.6-3.062h0a29.326,29.326,0,0,0,3.062-3.6l-11.886-11.883h16.746a40.823,40.823,0,0,0,.359-4.68h0a23.306,23.306,0,0,0-.178-5.041Z" transform="translate(-19752.633 -9825.438)" fill="#6ad2f1"></path>
    <path id="Path_126552" data-name="Path 126552" d="M96.642,1252.246a17.542,17.542,0,0,1-1.081,6.122,16.844,16.844,0,0,1-6.122,1.081h0a17.56,17.56,0,0,1-6.122-1.081,17.543,17.543,0,0,1-1.081-6.122h0a17.551,17.551,0,0,1,1.081-6.122,17.543,17.543,0,0,1,6.122-1.081h0a17.543,17.543,0,0,1,6.122,1.081,17.55,17.55,0,0,1,1.081,6.122Zm21.246-4.86H101.142l11.705-11.883a29.319,29.319,0,0,0-6.664-6.664L94.3,1240.724V1223.8a44.642,44.642,0,0,0-4.861-.358h0a44.642,44.642,0,0,0-4.861.358v16.746L72.7,1228.839a29.318,29.318,0,0,0-6.664,6.664l11.883,11.883H60.991s-.359,3.24-.359,4.86h0a44,44,0,0,0,.359,4.861H77.737L66.032,1268.99a29.27,29.27,0,0,0,6.664,6.664l11.883-11.883v16.744a40.974,40.974,0,0,0,4.861.361h0a44.044,44.044,0,0,0,4.861-.361v-16.744l11.883,11.883a29.327,29.327,0,0,0,3.6-3.062h0a29.326,29.326,0,0,0,3.062-3.6l-11.886-11.883h16.746a40.823,40.823,0,0,0,.359-4.68h0a23.306,23.306,0,0,0-.178-5.041Z" transform="translate(-19752.633 -9825.438)" fill="#6ad2f1"></path>
  </g>
</svg>
