<?xml version="1.0" encoding="UTF-8"?>
<svg xmlns="http://www.w3.org/2000/svg" width="958.406" height="829.82" viewBox="0 0 958.406 829.82">
  <g id="Group_3220" data-name="Group 3220" transform="translate(1189.939 -6358.598)">
    <g id="Group_3217" data-name="Group 3217">
      <path id="Path_126248" data-name="Path 126248" d="M-1150.547,6860.892c245.259-24.236,550.284-80.565,812.826-141.932a2852.849,2852.849,0,0,1-623.774,463.767l50.34-217.29-239.392-104.545" fill="#6ad1e3"></path>
      <path id="Path_126249" data-name="Path 126249" d="M-965.8,7188.419l51.264-221.281-247.411-108.046,11.117-1.1c226.248-22.357,522.375-74.067,812.45-141.87l10.121-2.366-7.417,7.282A2851.206,2851.206,0,0,1-960.092,7185.28Zm-173.373-325.74,231.407,101.056-49.413,213.289A2845.545,2845.545,0,0,0-347.2,6724.162C-629.547,6789.761-916.817,6840-1139.177,6862.679Z" fill="#6ad1e3"></path>
    </g>
    <path id="Path_126250" data-name="Path 126250" d="M-871.2,6968.084l-5.142-2.742c4.919-9.221,5.025-20.585,5.118-30.612.18-19.183.365-39.02-3.378-58.053-4.132-21.007-12.832-38.379-25.161-50.237l4.039-4.2c13.2,12.691,22.476,31.125,26.84,53.311,3.858,19.617,3.67,39.757,3.487,59.233C-865.492,6945.48-865.6,6957.6-871.2,6968.084Z" fill="#f04e98"></path>
    <path id="Path_126251" data-name="Path 126251" d="M-807.088,6939.33l-5.217-2.6c18.3-36.781,15.659-82.806-6.728-117.254-1.326-2.041-2.93-4.163-4.773-4.427l.829-5.768c4.149.6,6.791,3.884,8.83,7.02C-790.659,6852.448-787.888,6900.738-807.088,6939.33Z" fill="#f04e98"></path>
    <path id="Path_126252" data-name="Path 126252" d="M-714.878,6913.911l-5.77-.814a209.145,209.145,0,0,0-5.192-83.248c-2.686-9.906-7.544-23.7-18.674-29.079l2.537-5.247c13.274,6.42,18.776,21.794,21.761,32.8A215.047,215.047,0,0,1-714.878,6913.911Z" fill="#f04e98"></path>
    <g id="Group_3218" data-name="Group 3218">
      <path id="Path_126253" data-name="Path 126253" d="M-725.7,6885.148c-63.156,27.75-126.436,55.531-191.807,77.517l6.348,2.772-50.34,217.29A2852.849,2852.849,0,0,0-337.721,6718.96q-10.287,2.4-20.667,4.8l-219.023,96.236Z" fill="#f04e98"></path>
      <path id="Path_126254" data-name="Path 126254" d="M-965.431,7187.926l51.184-220.936-10.646-4.647,6.542-2.2c65.5-22.03,129.6-50.195,191.585-77.432l367.536-161.49.243-.056q10.369-2.394,20.66-4.8l9.246-2.162-6.775,6.652a2851.051,2851.051,0,0,1-624.357,464.2Zm55.29-224.95,2.078.907-49.494,213.636A2845.765,2845.765,0,0,0-346.38,6723.71q-5.572,1.293-11.166,2.585l-367.079,161.289h0C-784.666,6913.966-846.687,6941.218-910.141,6962.976Z" fill="#f04e98"></path>
    </g>
    <g id="Group_3219" data-name="Group 3219">
      <path id="Path_126255" data-name="Path 126255" d="M-340.384,6719.346c-211.674,152.565-463.43,237.568-694.081,359.56q33.378-36.307,68.461-71c21.406-21.168,43.485-42.035,69.147-57.776,24.3-14.906,51.246-24.87,78.01-34.687,52.509-19.259,105.178-38.36,155.76-62.226,25.067-11.828,49.632-24.83,75.5-34.795,23.639-9.108,48.214-15.62,71.852-24.728,61.667-23.762,117.714-65.334,183.344-73.09" fill="#703dc1"></path>
      <path id="Path_126256" data-name="Path 126256" d="M-1044.958,7087l8.838-9.613c22.182-24.128,45.241-48.041,68.535-71.077,20.794-20.562,43.293-41.986,69.552-58.093,24.813-15.221,52.061-25.215,78.412-34.881l5.968-2.188c49.67-18.21,101.031-37.042,149.607-59.96,6.975-3.292,14.034-6.735,20.86-10.063,17.72-8.641,36.043-17.576,54.787-24.8,11.877-4.576,24.161-8.555,36.042-12.4,11.822-3.83,24.048-7.791,35.81-12.323,21.368-8.234,42.435-18.805,62.809-29.029,34.428-17.276,69.913-35.082,108.091-42.212q1.974-1.411,3.949-2.835l1.379,1.914q3.811-.608,7.66-1.064l.527,4.465q-5.9.7-11.719,1.761c-136.21,97.235-291.128,168.146-440.995,236.745-82.326,37.683-167.456,76.649-248.569,119.551Zm690.04-360.072c-33.811,8.05-65.738,24.072-96.8,39.661-20.47,10.271-41.636,20.893-63.209,29.206-11.876,4.576-24.161,8.556-36.041,12.4-11.823,3.83-24.049,7.791-35.811,12.324-18.564,7.151-36.8,16.043-54.432,24.642-6.84,3.335-13.912,6.784-20.913,10.087-48.757,23.006-100.215,41.872-149.978,60.116l-5.967,2.189c-26.144,9.59-53.178,19.506-77.609,34.492-25.851,15.857-48.134,37.079-68.742,57.458-20.153,19.928-40.128,40.515-59.51,61.329,77.718-40.571,158.74-77.657,237.217-113.578C-640.14,6890.163-488.722,6820.853-354.918,6726.926Z" fill="#703dc1"></path>
    </g>
    <path id="Path_126257" data-name="Path 126257" d="M-812.29,6844.09" fill="none" stroke="#360484" stroke-miterlimit="10" stroke-width="5.827"></path>
    <path id="Path_126258" data-name="Path 126258" d="M-812.29,6844.09" fill="none" stroke="#360484" stroke-miterlimit="10" stroke-width="5.827"></path>
    <path id="Path_126259" data-name="Path 126259" d="M-670.327,6832.317a16.227,16.227,0,0,1-7.6-1.929c-41.709-22.067-77.8-54.771-112.711-86.4-9.24-8.372-18.795-17.029-28.269-25.317-4.963-4.34-6.951-3.892-8.361-2.766a5.252,5.252,0,0,0-1.856,3.818,210.577,210.577,0,0,0,13.451,87.424l-5.441,2.084a216.432,216.432,0,0,1-13.826-89.862,11.084,11.084,0,0,1,4.031-8.014c6.521-5.22,13.534.914,15.838,2.93,9.513,8.321,19.087,17,28.346,25.385,34.64,31.386,70.46,63.841,111.522,85.565a10.049,10.049,0,0,0,11.441-1.259,10.064,10.064,0,0,0,2.965-11.142,93,93,0,0,0-14.443-26.576l-10.392-13.333,44.487,28.351c4.3,2.743,7.9,4.846,11.752,4.9,4.121.093,6.93-2.457,8.554-4.573a18.626,18.626,0,0,0,3.094-15.649,28.608,28.608,0,0,0-5.136-9.793c-5.328-3.464-9.966-8.453-14.565-13.722l4.016-4.189c4.5,3.608,10,8.007,14.408,13.437a22.323,22.323,0,0,0,8.3,3.167c4.542.7,10.053-1.592,13.11-5.441,1.2-1.5,2.994-4.548,1.6-8.022a19.1,19.1,0,0,0-3.91-5.367,1181.477,1181.477,0,0,0-194.449-170.269c-6.154-4.295-17.609-12.29-17.748-24-.061-5.094,2.1-9.8,4.138-13.819a198.394,198.394,0,0,1,55.565-67.1c21.118-16.27,42.153-25.158,62.521-26.421,25.29-1.565,49,9.708,60.409,28.722,11.865,19.771,9.593,43.844,5.966,68.839l-21.647,149.209q25.536,24.708,49.541,50.9a24.217,24.217,0,0,1,5.025,7.141c1.813,4.533.918,9.566-2.452,13.809-4.345,5.471-11.978,8.588-18.556,7.576q-1.041-.159-2.046-.4a30.074,30.074,0,0,1,1.517,4.155,24.375,24.375,0,0,1-4.078,20.779c-3.4,4.426-8.021,6.855-13.046,6.855l-.21,0c-5.811-.078-10.8-3.256-14.8-5.81l-18.532-11.81a99.915,99.915,0,0,1,7.512,16.532,15.769,15.769,0,0,1-4.667,17.482A15.822,15.822,0,0,1-670.327,6832.317Zm-15.087-372.21q-2.058,0-4.126.128c-19.186,1.189-39.146,9.674-59.325,25.22a192.526,192.526,0,0,0-53.923,65.117c-1.8,3.554-3.555,7.34-3.51,11.117.1,8.039,7.925,14.171,15.256,19.289a1186.931,1186.931,0,0,1,140.7,115.243l21.047-145.076c3.47-23.914,5.683-46.878-5.2-65.006C-644.018,6470.258-664.123,6460.107-685.414,6460.107Z" fill="#360484"></path>
    <path id="Path_126260" data-name="Path 126260" d="M-721.4,6551.566l2.3-6.335a17.871,17.871,0,0,1,4.761-7.082h-.045a38.754,38.754,0,0,0-20.15,5.668l-3.046-4.966a44.581,44.581,0,0,1,26.642-6.392,5.287,5.287,0,0,1,4.038,1.934,5.031,5.031,0,0,1,.52,4.638,15.906,15.906,0,0,1-8.829,9.87Z" fill="#360484"></path>
    <path id="Path_126261" data-name="Path 126261" d="M-662.035,6540.577l2.3-6.335a17.872,17.872,0,0,1,4.761-7.082h-.046a38.745,38.745,0,0,0-20.148,5.668l-3.047-4.967a44.58,44.58,0,0,1,26.642-6.391,5.294,5.294,0,0,1,4.038,1.933,5.036,5.036,0,0,1,.52,4.639,15.909,15.909,0,0,1-8.829,9.87Z" fill="#360484"></path>
    <path id="Path_126262" data-name="Path 126262" d="M-775.109,6520.866c-.569,0-1.131-.014-1.689-.044a42.1,42.1,0,0,1-30.969-16.365,42.1,42.1,0,0,1-7.507-34.212l5.688,1.262a36.213,36.213,0,0,0,6.457,29.423A36.211,36.211,0,0,0-776.5,6515a29.142,29.142,0,0,0,18.806-5.373,12.885,12.885,0,0,1-1.842-4.457,11.759,11.759,0,0,1,3.174-10.329,9.635,9.635,0,0,1,8.539-3.074,5.714,5.714,0,0,1,2.79,1.188c1.029.848,2.586,2.863,1.442,6.819a25.73,25.73,0,0,1-5.485,9.922,12.832,12.832,0,0,0,3.841,1.3c4.412.726,9.168-.5,13.651-1.932,31.132-9.938,54.6-30.648,62.766-55.4l5.533,1.826c-8.753,26.52-33.623,48.622-66.527,59.126-5.177,1.652-10.741,3.053-16.366,2.131a18.564,18.564,0,0,1-7.364-2.947A36.894,36.894,0,0,1-775.109,6520.866Zm25.833-23.388a4.193,4.193,0,0,0-2.883,1.406,6.032,6.032,0,0,0-1.667,5.114,6.892,6.892,0,0,0,.529,1.57,20.287,20.287,0,0,0,4.111-7.409,4.642,4.642,0,0,0,.148-.673C-749.118,6497.48-749.2,6497.478-749.276,6497.478Z" fill="#360484"></path>
    <path id="Path_126263" data-name="Path 126263" d="M-694.266,6586.334a97.776,97.776,0,0,1-39.239-18.091l3.554-4.617a91.927,91.927,0,0,0,36.887,17.007Z" fill="#360484"></path>
    <path id="Path_126264" data-name="Path 126264" d="M-635.344,6642.232l-2.06-5.451c7.3-2.759,14.88-4.892,22.211-6.956l3.677-1.038a792.2,792.2,0,0,0,83.982-29.056c12.9-5.292,27.673-11.731,39.846-21.208a20.738,20.738,0,0,0,5.74-6.743,42.662,42.662,0,0,1-13.11-.575l-3.218-.655,1.035-3.117a13.813,13.813,0,0,1,10.2-8.773,9.687,9.687,0,0,1,9.486,2.922,9.841,9.841,0,0,1,1.831,3.053,37.72,37.72,0,0,0,14-7.542c2.429-2.095,3.647-4,3.621-5.652-.057-3.732-6.006-5.551-9.989-5.864a67.338,67.338,0,0,0-19.324,1.306,62.759,62.759,0,0,1-20.323,7.713l-17.03,3.208,15.045-8.6a73.41,73.41,0,0,1,20.125-7.8,57.033,57.033,0,0,0,15.717-14.239c1.265-1.682,2.064-3.749,1.9-4.914a.826.826,0,0,0-.342-.631c-.785-.587-2.964.018-3.894.277l-146.158,40.72-1.564-5.613,146.159-40.721c1.906-.53,5.874-1.634,8.954.677a6.628,6.628,0,0,1,2.614,4.472c.58,4.084-2.158,8.1-3.01,9.235a61.745,61.745,0,0,1-8.325,9.018,71.52,71.52,0,0,1,9.913.088c7.566.592,15.25,4.4,15.361,11.582.054,3.51-1.791,6.832-5.641,10.154a43.708,43.708,0,0,1-17.458,9.065c-1.059,5.034-5.093,9.712-8.739,12.551-12.754,9.929-27.96,16.563-41.213,22a798.181,798.181,0,0,1-84.6,29.271l-3.69,1.042C-620.825,6637.464-628.282,6639.563-635.344,6642.232Zm145.9-76.12a38.02,38.02,0,0,0,7.858-.234,4.51,4.51,0,0,0-.353-.459,4,4,0,0,0-3.947-1.048A8.246,8.246,0,0,0-489.441,6566.112Z" fill="#360484"></path>
    <path id="Path_126265" data-name="Path 126265" d="M-525.29,6768.518l-4.686-3.463a14.519,14.519,0,0,0-1.395-18.121,14.523,14.523,0,0,0-18.134-1.23l-6.467,4.87,1.88-7.874c2.184-9.14,4.442-18.593,3.3-27.875-1.2-9.711-6.643-17.832-13.871-20.69-4.437-1.754-9.694-1.688-14.272-1.485A204.454,204.454,0,0,0-646,6707.094l-2.163-5.41a210.243,210.243,0,0,1,68.964-14.855c5.183-.229,11.168-.289,16.672,1.888,7.307,2.888,15.745,11.077,17.511,25.4,1.005,8.147-.333,16.354-2.021,23.971a20.418,20.418,0,0,1,19.763,4.712A20.336,20.336,0,0,1-525.29,6768.518Z" fill="#360484"></path>
    <path id="Path_126266" data-name="Path 126266" d="M-1082.258,6885.716l-5.776-.774a58.05,58.05,0,0,0-4.014-30.157l5.372-2.256A63.89,63.89,0,0,1-1082.258,6885.716Z" fill="#f04e98"></path>
    <path id="Path_126267" data-name="Path 126267" d="M-1043.851,6901.519l-5.4-2.194a49.9,49.9,0,0,0-7.649-49.425l4.482-3.722C-1039.942,6861.194-1036.5,6883.435-1043.851,6901.519Z" fill="#f04e98"></path>
    <path id="Path_126268" data-name="Path 126268" d="M-995.461,6924.144l-5.38-2.239a91.685,91.685,0,0,0,2.705-61.992c-2.344-7.39-5.294-11.767-9.282-13.773l2.619-5.205c7.206,3.625,10.424,11.562,12.217,17.216A97.6,97.6,0,0,1-995.461,6924.144Z" fill="#f04e98"></path>
    <path id="Path_126269" data-name="Path 126269" d="M-940.5,6959.993l-5.718-1.121c3.808-19.413,7.484-42.274,5.87-64.639-1.19-16.483-5.914-40.137-21.661-59.217l4.494-3.709c16.726,20.265,21.727,45.177,22.978,62.506C-932.875,6916.863-936.621,6940.2-940.5,6959.993Z" fill="#f04e98"></path>
    <path id="Path_126270" data-name="Path 126270" d="M-801.725,6436.33a121,121,0,0,0-31.029-29.417l3.2-4.869a126.816,126.816,0,0,1,32.519,30.829Z" fill="#6ad1e3"></path>
    <path id="Path_126271" data-name="Path 126271" d="M-688.894,6422.336l-5.44-2.088a18.522,18.522,0,0,0-1.206-15.016,19.415,19.415,0,0,0-8.067-8.383c-.069.286-.139.57-.21.855-1.712,6.795-6.375,13.094-12.933,11.876a8.261,8.261,0,0,1-6.242-5.632,10.557,10.557,0,0,1,1.658-10.212c3.406-4.031,8.677-4.926,13.2-4.357a66.825,66.825,0,0,0-2.4-29.025l5.557-1.756a71.634,71.634,0,0,1,2.52,32.347,24.942,24.942,0,0,1,12.1,11.624A24.346,24.346,0,0,1-688.894,6422.336Zm-21.68-27.282a8.062,8.062,0,0,0-6.311,2.444,4.78,4.78,0,0,0-.617,4.5,2.653,2.653,0,0,0,1.824,1.858c3,.561,5.4-4.347,6.21-7.573q.146-.576.28-1.156A13.831,13.831,0,0,0-710.574,6395.054Z" fill="#6ad1e3"></path>
    <rect id="Rectangle_3310" data-name="Rectangle 3310" width="71.246" height="5.827" transform="matrix(0.549, -0.836, 0.836, 0.549, -590.764, 6436.59)" fill="#6ad1e3"></rect>
    <path id="Path_126272" data-name="Path 126272" d="M-1187.906,6753.455l-2.034-5.461a391.031,391.031,0,0,1,60.554-17.131c-2.054-9.533,2.9-20.453,14.756-32.517,8.252-8.4,18.087-17.736,30.4-22.342,11.431-4.279,27.439-4.047,37.431,6.115a23.774,23.774,0,0,1,6.06,11.33q.775-.584,1.587-1.135c8.181-5.549,18-7.74,26.937-6.01,6.527,1.264,11.5,4.4,14,8.822a12.2,12.2,0,0,1,1.443,4.423c10.586-5.349,23.846-5.064,36.775-4.788,16.2.352,31.5.677,41.558-9.13l4.067,4.172c-11.809,11.511-29.062,11.141-45.75,10.784-14.581-.316-28.455-.611-38.055,6.682a9.613,9.613,0,0,1-4.961,4.376l-10.873,4.161,7.632-8.792a31.279,31.279,0,0,1,3.506-3.454,7,7,0,0,0-.415-5.567c-2.222-3.931-7.241-5.428-10.035-5.969-7.424-1.434-15.648.425-22.557,5.112a33.652,33.652,0,0,0-4.219,3.387,25.419,25.419,0,0,1-.287,2.825c-1.056,6.68-4.736,12.113-10.1,14.9l-5.324,2.772,1.116-5.9a34.808,34.808,0,0,1,8.75-16.97,18.846,18.846,0,0,0-5.013-11.95c-8.158-8.3-21.565-8.36-31.234-4.744-11.195,4.189-20.469,13.02-28.284,20.97-11.492,11.689-15.691,21.644-12.48,29.588l1.333,3.295-3.493.66A384.722,384.722,0,0,0-1187.906,6753.455Z" fill="#6ad1e3"></path>
    <path id="Path_126273" data-name="Path 126273" d="M-544.833,7012.139l-1.317-5.676a231.313,231.313,0,0,1,44.045-5.833c-1.935-19.275,11.476-37.106,23.643-50.684,9.423-10.515,19.754-21.253,33.27-26.887,12.511-5.217,31.041-5.442,42.156,6.389a22.964,22.964,0,0,1,3.529,4.972,82.581,82.581,0,0,1,9.179-4.925c13.765-6.3,26.71-6.339,35.515-.112a18.882,18.882,0,0,1,6.766,9.437,52.718,52.718,0,0,1,11.173-6.277c12.827-5.4,27.369-6.687,37.31-6.815l.73-.01c23.385-.3,49.892-.644,62.521-18.766l4.78,3.332c-14.341,20.577-43.664,20.956-67.226,21.26l-.73.01c-25.72.334-39.759,7.149-47.406,14.191a21.165,21.165,0,0,1-.357,3.97c-1.174,6.267-5,10.651-10.489,12.026l-4.72,1.182,1.187-4.719a33.219,33.219,0,0,1,8.311-15.04,13.645,13.645,0,0,0-5.214-9.023c-10.034-7.1-24.132-1.908-29.727.653a76.9,76.9,0,0,0-9.444,5.152,28.166,28.166,0,0,1,.2,13.72c-1.783,7.457-6.472,13.062-12.866,15.375-4.423,1.6-10.389,1.239-13.029-3.34-1.486-2.578-2.178-6.972,2.967-13.261a83.389,83.389,0,0,1,15.708-14.762,17.523,17.523,0,0,0-2.913-4.24c-9.216-9.808-24.948-9.469-35.667-5-12.392,5.166-22.195,15.378-31.172,25.4-22.8,25.44-23.607,39.581-21.767,49.059l.66,3.4-3.459.073A225.5,225.5,0,0,0-544.833,7012.139Zm142.326-68.591a77.471,77.471,0,0,0-13.061,12.582c-1.105,1.351-3.556,4.707-2.429,6.661.866,1.5,3.787,1.568,6,.772,4.517-1.635,7.863-5.737,9.182-11.252A22.341,22.341,0,0,0-402.507,6943.548Z" fill="#6ad1e3"></path>
    <path id="Path_126274" data-name="Path 126274" d="M-402.5,6656.13l-1.93-5.5,35.911-12.616c-.08-11.287,6.616-21.257,12.6-28.8,5.359-6.755,12.772-15.082,22.6-19.56,10.6-4.824,22.506-3.964,30.33,2.2a21.623,21.623,0,0,1,7.932,15.884,20.857,20.857,0,0,1-.03,2.467,37.148,37.148,0,0,1,10.943-2.136c7.724-.171,14.677,3.406,17.751,9.116.246.457.472.933.7,1.411a6.173,6.173,0,0,0,1.463,2.318c.771.511,2.518.23,3.458.08a131.166,131.166,0,0,0,25.195-6.648l2.04,5.459a137.011,137.011,0,0,1-26.316,6.943c-1.719.277-4.92.786-7.583-.968a10.518,10.518,0,0,1-3.527-4.7c-.182-.384-.361-.768-.558-1.135-2.486-4.616-8.3-6.158-12.488-6.049-4.391.1-8.717,1.536-12.939,3.2a16.123,16.123,0,0,1-3.294,4.425l-7.828,7.419,4.522-15.453,1.3-.531.839-.344a13.7,13.7,0,0,0,.538-4.608,15.948,15.948,0,0,0-5.716-11.573c-6.129-4.825-15.67-5.4-24.31-1.471-8.7,3.963-15.5,11.636-20.455,17.878-5.716,7.205-12.162,16.778-11.254,26.953l.2,2.257Z" fill="#6ad1e3"></path>
  </g>
</svg>
