<?xml version="1.0" encoding="UTF-8"?>
<svg xmlns="http://www.w3.org/2000/svg" width="478.294" height="398.445" viewBox="0 0 478.294 398.445">
  <g id="Group_3757" data-name="Group 3757" transform="translate(9092.008 -12326.732)">
    <path id="Path_128640" data-name="Path 128640" d="M1035.383,13021.417c-.631-24.591-1.469-49.183-1.469-73.773-.24-12.855,2.084-29.784-3.956-41.656-4.49-8.823-15.931-10.991-25.8-11.768-70.961-5.58-155.914,17.1-222.385,47.941a25.749,25.749,0,0,0-14.913,22.277c-2.586,62.34-.04,135.771,1.739,196.152.293,9.953,1.155,21.047,8.52,27.747,11.069,10.069,28.55,3.911,42.131-2.371a877.424,877.424,0,0,1,199.7-64.676c8.031-1.571,13.868-8.991,16.006-16.532,4.5-15.875,1.217-36.538,1.026-53-.118-10.112-.343-20.225-.6-30.337" transform="translate(-9857.766 -566.641)" fill="#703dc1"></path>
    <path id="Path_128642" data-name="Path 128642" d="M1229.688,13120.813c.631-24.59,1.469-49.182,1.469-73.772.24-12.855-2.084-29.784,3.956-41.656,4.49-8.824,15.931-10.991,25.8-11.769,70.961-5.579,155.915,17.1,222.385,47.942a25.747,25.747,0,0,1,14.913,22.277c2.586,62.34.04,135.771-1.739,196.151-.293,9.954-1.155,21.048-8.52,27.748-11.068,10.068-28.55,3.911-42.131-2.371a877.376,877.376,0,0,0-199.7-64.676c-8.031-1.571-13.868-8.991-16.006-16.532-4.5-15.875-1.217-36.538-1.026-53,.118-10.112.343-20.226.6-30.338" transform="translate(-10113.027 -567.89)" fill="#f04e98"></path>
    <path id="Path_128656" data-name="Path 128656" d="M879.934,13099l-6.278-1.884a853.838,853.838,0,0,1,43.781-114.94l2.49-5.341,3.224,4.933a267.513,267.513,0,0,1,35.22,79.78,5.185,5.185,0,0,1,.8,1.055,4.416,4.416,0,0,1-1.392,6.145l-3.818,2.287-1.052-4.325a260.994,260.994,0,0,0-32.039-76.331A847.688,847.688,0,0,0,879.934,13099m74.473-35.876a1.936,1.936,0,1,0,1.918,3.332l-.927-1.677Z" transform="translate(-9872.73 -578.217)" fill="#fff"></path>
    <path id="Path_128657" data-name="Path 128657" d="M909.794,13051.761l-2.187-6.179a426.376,426.376,0,0,1,45.34-13.262l1.487,6.385a419.925,419.925,0,0,0-44.64,13.056" transform="translate(-9877.439 -585.912)" fill="#fff"></path>
    <path id="Path_128658" data-name="Path 128658" d="M1336.156,13193.553l-6.53-.578a679.434,679.434,0,0,0,1.66-95.617l6.545-.35a685.844,685.844,0,0,1-1.675,96.545" transform="translate(-10127.157 -582.348)" fill="#fff"></path>
    <path id="Path_128659" data-name="Path 128659" d="M1380.367,13201.642c-11.025,0-21.9-3.365-32.5-6.648-8.151-2.521-16.581-5.132-24.839-6.1l.767-6.509c8.856,1.043,17.577,3.741,26.01,6.353,14.059,4.35,27.337,8.459,40.554,5.178a17.217,17.217,0,0,0,6.963-3.151c4.828-4.02,5.208-11.816,3.954-17.773-3.119-14.815-15.351-27.1-29.826-31.224a105.428,105.428,0,0,1-10.717-1.545l.664-6.492a44.13,44.13,0,0,1,11.121,1.55q1.415.125,2.829.206c5.362.311,12.2.255,17.571-2.945,7.3-4.355,10.251-15.121,6.188-22.59-4.214-7.747-13.845-11.1-21.183-12.552a77.365,77.365,0,0,0-41.636,3.26l-2.257-6.153a83.913,83.913,0,0,1,45.164-3.538c12.5,2.471,21.372,7.951,25.67,15.852,5.74,10.549,1.726,25.2-8.589,31.353a27.83,27.83,0,0,1-9.753,3.438c10.534,6.891,18.572,17.707,21.167,30.03,2.133,10.136-.175,19.167-6.174,24.162a23.464,23.464,0,0,1-9.577,4.476,47.707,47.707,0,0,1-11.567,1.37" transform="translate(-10126.241 -581.288)" fill="#fff"></path>
    <path id="Path_128665" data-name="Path 128665" d="M792.2,12991.5l-3.065-1.159a123.094,123.094,0,0,1,14.125-26.794l2.689,1.874A119.8,119.8,0,0,0,792.2,12991.5" transform="translate(-9861.008 -576.374)" fill="#6ad1e3"></path>
    <path id="Path_128666" data-name="Path 128666" d="M794.693,13021.74l-3.057-1.182a652.46,652.46,0,0,1,35.968-77.395l2.875,1.572a649.308,649.308,0,0,0-35.786,77" transform="translate(-9861.354 -573.547)" fill="#6ad1e3"></path>
    <rect id="Rectangle_4352" data-name="Rectangle 4352" width="58.136" height="3.277" transform="translate(-9055.102 12455.148) rotate(-65.88)" fill="#6ad1e3"></rect>
    <rect id="Rectangle_4353" data-name="Rectangle 4353" width="3.277" height="46.286" transform="translate(-9071.235 12397.721) rotate(-51.814)" fill="#6ad1e3"></rect>
    <path id="Path_128667" data-name="Path 128667" d="M839.656,12989.743a311.428,311.428,0,0,1-33.194-35.807l2.571-2.032a308.077,308.077,0,0,0,32.844,35.429Z" transform="translate(-9863.411 -574.759)" fill="#6ad1e3"></path>
    <rect id="Rectangle_4354" data-name="Rectangle 4354" width="3.277" height="6.467" transform="translate(-9022.833 12389.969) rotate(-82.347)" fill="#6ad1e3"></rect>
    <rect id="Rectangle_4355" data-name="Rectangle 4355" width="3.278" height="4.091" transform="matrix(0.447, -0.894, 0.894, 0.447, -9070.877, 12467.313)" fill="#6ad1e3"></rect>
    <rect id="Rectangle_4356" data-name="Rectangle 4356" width="3.659" height="3.277" transform="translate(-9075.633 12424.879)" fill="#6ad1e3"></rect>
    <rect id="Rectangle_4357" data-name="Rectangle 4357" width="3.659" height="3.277" transform="translate(-9054.595 12439.513)" fill="#6ad1e3"></rect>
    <rect id="Rectangle_4358" data-name="Rectangle 4358" width="3.771" height="3.278" transform="translate(-9026.618 12443.313) rotate(-14.098)" fill="#6ad1e3"></rect>
    <path id="Path_128668" data-name="Path 128668" d="M1284.475,13062a177.8,177.8,0,0,1-27.588-35.144l2.812-1.685a174.52,174.52,0,0,0,27.079,34.5Z" transform="translate(-10117.068 -572.383)" fill="#6ad1e3"></path>
    <path id="Path_128669" data-name="Path 128669" d="M1300.221,13057.762a133.543,133.543,0,0,1-28.616-36.206l2.883-1.56a130.273,130.273,0,0,0,27.916,35.321Z" transform="translate(-10119.109 -571.666)" fill="#6ad1e3"></path>
    <rect id="Rectangle_4359" data-name="Rectangle 4359" width="3.277" height="32.013" transform="matrix(0.801, -0.598, 0.598, 0.801, -8830.968, 12446.471)" fill="#6ad1e3"></rect>
    <path id="Path_128670" data-name="Path 128670" d="M1280.605,13097.874a448.7,448.7,0,0,1-38.512-48.671l2.705-1.851a445.29,445.29,0,0,0,38.23,48.314Z" transform="translate(-10115.017 -575.46)" fill="#6ad1e3"></path>
    <path id="Path_128671" data-name="Path 128671" d="M1246.918,13055.922l-2.806-1.692a182.884,182.884,0,0,1,37.651-44.477l2.133,2.487a179.683,179.683,0,0,0-36.977,43.682" transform="translate(-10115.296 -570.245)" fill="#6ad1e3"></path>
    <path id="Path_128672" data-name="Path 128672" d="M1258.765,13071.213l-2.763-1.761a210.341,210.341,0,0,1,43.713-49.371l2.083,2.529a207.148,207.148,0,0,0-43.033,48.6" transform="translate(-10116.945 -571.678)" fill="#6ad1e3"></path>
    <rect id="Rectangle_4360" data-name="Rectangle 4360" width="22.646" height="3.278" transform="matrix(0.726, -0.687, 0.687, 0.726, -8837.998, 12498.29)" fill="#6ad1e3"></rect>
    <path id="Path_128673" data-name="Path 128673" d="M1324.751,13028.038l-1.28-3.018a6.047,6.047,0,0,0,2.983-2.779l2.92,1.488a9.245,9.245,0,0,1-4.623,4.309" transform="translate(-10126.303 -571.978)" fill="#6ad1e3"></path>
    <rect id="Rectangle_4361" data-name="Rectangle 4361" width="4.09" height="3.278" transform="matrix(0.446, -0.895, 0.895, 0.446, -8681.903, 12442.279)" fill="#6ad1e3"></rect>
    <path id="Path_128674" data-name="Path 128674" d="M1262.385,13005.325a12,12,0,0,1-2.2-.2l.6-3.222a8.941,8.941,0,0,0,5.425-.7l1.4,2.964a12.266,12.266,0,0,1-5.219,1.162" transform="translate(-10117.525 -569.058)" fill="#6ad1e3"></path>
    <rect id="Rectangle_4362" data-name="Rectangle 4362" width="3.278" height="4.091" transform="matrix(0.447, -0.894, 0.894, 0.447, -8865.101, 12512.777)" fill="#6ad1e3"></rect>
    <path id="Path_128675" data-name="Path 128675" d="M1299.156,13003.8l-1.114-3.082a17.655,17.655,0,0,1,9.123-.77l-.581,3.225a14.414,14.414,0,0,0-7.428.627" transform="translate(-10122.776 -568.847)" fill="#6ad1e3"></path>
    <path id="Path_128676" data-name="Path 128676" d="M1332.927,13045.662a7.227,7.227,0,0,1-1.684-.194l.759-3.188a4.228,4.228,0,0,0,3.294-.6l1.836,2.716a7.561,7.561,0,0,1-4.2,1.269" transform="translate(-10127.381 -574.673)" fill="#6ad1e3"></path>
    <path id="Path_128680" data-name="Path 128680" d="M1213.607,13219.5l-1.427-2.95a57.237,57.237,0,0,0,30.217-38.017c1.615-7.121,1.077-12.747-1.6-16.722a9.075,9.075,0,0,0-1.193-1.424,18.448,18.448,0,0,1-6.779,6.18c-3.07,1.606-6.081,1.58-8.053-.069a5.285,5.285,0,0,1-1.84-3.785,7.79,7.79,0,0,1,2.052-5.595,10.026,10.026,0,0,1,8.309-3,13.919,13.919,0,0,1,5.238,1.5,36.885,36.885,0,0,0,2.919-13.262c.164-3.393.058-8.232-2.745-11.069a5.876,5.876,0,0,0-5.486-1.295,3.16,3.16,0,0,0-2.372,2.188l-3.189-.755a6.306,6.306,0,0,1,4.676-4.59,9.077,9.077,0,0,1,8.7,2.148c3.71,3.754,3.881,9.52,3.687,13.53a39.612,39.612,0,0,1-3.448,14.952,12.68,12.68,0,0,1,2.241,2.511c3.2,4.754,3.9,11.24,2.076,19.278a59.765,59.765,0,0,1-31.986,40.241m18.726-62.141a6.587,6.587,0,0,0-4.947,1.99,4.54,4.54,0,0,0-1.181,3.157,1.994,1.994,0,0,0,.67,1.476c1.086.908,3.066.4,4.433-.319a15.264,15.264,0,0,0,5.624-5.17,10.6,10.6,0,0,0-3.894-1.107q-.358-.026-.705-.026" transform="translate(-10110.867 -586.439)" fill="#6ad1e3"></path>
  </g>
</svg>
