<?xml version="1.0" encoding="UTF-8"?>
<svg xmlns="http://www.w3.org/2000/svg" width="501.917" height="460.49" viewBox="0 0 501.917 460.49">
  <g id="Group_3547" data-name="Group 3547" transform="translate(8123.794 178.701)">
    <g id="Group_3533" data-name="Group 3533" transform="translate(-8123.794 -54.207)">
      <path id="Path_126449" data-name="Path 126449" d="M6584.59-2917.511c-46.257,1.667-94.418.848-136.058-19.37-10.2-4.951-20.305-11.479-25.59-21.509-3.514-6.668-4.589-14.314-5.458-21.8a553.237,553.237,0,0,1,4.608-158.842c2.292-13.088,5.85-27.357,16.708-35.014,6.782-4.781,15.331-6.134,23.561-7.189,35.1-4.5,70.533-6,105.923-6.35,39.825-.394,80.824.9,117.409,16.639,10.654,4.583,21.455,11.04,26.213,21.618,2.7,6.007,3.165,12.749,3.473,19.329,2.724,58.268-7.748,102.535-22.989,158.839-3.353,12.387-7.377,25.107-16.031,34.584-15.642,17.129-41.583,19.065-64.777,18.776" transform="translate(-6413.418 3188.037)" fill="#703dc1"></path>
      <path id="Path_126450" data-name="Path 126450" d="M6556.117-2916.638c-35.854,0-73.98-3.544-107.868-20-8.273-4.018-19.945-10.635-25.766-21.679-3.5-6.644-4.6-14.169-5.5-21.939a552.358,552.358,0,0,1,4.612-158.955c2.425-13.849,6.147-27.708,16.869-35.268,6.744-4.755,15.076-6.146,23.736-7.257,30.571-3.921,64.243-5.939,105.97-6.353,19.054-.189,39.514-.043,59.968,2.272,22.037,2.495,40.878,7.2,57.6,14.4,8.837,3.8,21.189,10.2,26.416,21.818,2.677,5.949,3.187,12.605,3.507,19.472,2.738,58.563-7.806,102.823-23,158.96-3.328,12.292-7.313,25.1-16.12,34.746-15.687,17.178-41.7,19.2-65.073,18.9l.01-.785c23.22.294,49-1.7,64.483-18.648,8.689-9.514,12.64-22.222,15.942-34.421,15.177-56.067,25.708-100.27,22.976-158.718-.317-6.789-.819-13.364-3.439-19.187-5.113-11.368-17.293-17.668-26.009-21.418-37.247-16.025-80.046-16.975-117.25-16.607-41.7.413-75.338,2.429-105.878,6.347-8.559,1.1-16.786,2.469-23.384,7.12-10.488,7.4-14.152,21.078-16.548,34.762a551.579,551.579,0,0,0-4.6,158.729c.892,7.693,1.977,15.139,5.415,21.663,5.713,10.84,17.24,17.37,25.414,21.338,42.862,20.811,92.61,20.89,135.874,19.331l.028.785C6575.288-2916.9,6565.783-2916.638,6556.117-2916.638Z" transform="translate(-6413.307 3188.145)" fill="#703dc1"></path>
    </g>
    <g id="Group_3534" data-name="Group 3534" transform="translate(-8038.881 -56.332)">
      <path id="Path_126451" data-name="Path 126451" d="M6541.15-3185.344c-5.5,1.679-8.852,7.171-11.075,12.472a76.041,76.041,0,0,0-5.9,29.328c0,2.209.2,4.654,1.778,6.2a8.6,8.6,0,0,0,4.479,1.856,141.438,141.438,0,0,0,49.465.943c2-.316,4.179-.788,5.4-2.4,1.116-1.463,1.123-3.458,1.125-5.3.009-10.615,1.573-21.563,7.068-30.646s15.565-15.937,26.16-15.268" transform="translate(-6522.089 3190.282)" fill="#6ad1e3"></path>
      <path id="Path_126452" data-name="Path 126452" d="M6557.222-3131.29a142.942,142.942,0,0,1-27.77-2.729,10.375,10.375,0,0,1-5.527-2.408c-2.121-2.068-2.406-5.047-2.406-7.688a78.533,78.533,0,0,1,6.063-30.134c3.2-7.623,7.251-12.091,12.39-13.659l1.215,3.985c-3.879,1.184-7.074,4.875-9.763,11.286a74.322,74.322,0,0,0-5.741,28.522c0,1.772.136,3.718,1.149,4.705a7,7,0,0,0,3.429,1.3,138.583,138.583,0,0,0,48.735.929c1.57-.249,3.308-.6,4.074-1.6.695-.911.7-2.5.7-4.037.009-13.167,2.421-23.543,7.368-31.722,6.387-10.555,17.4-16.937,28.074-16.268l-.262,4.157c-9.119-.577-18.655,5.023-24.247,14.267-4.544,7.51-6.758,17.183-6.768,29.569,0,2.019,0,4.531-1.55,6.56-1.842,2.415-5.026,2.919-6.736,3.19A143.206,143.206,0,0,1,6557.222-3131.29Z" transform="translate(-6521.519 3190.853)" fill="#6ad1e3"></path>
    </g>
    <g id="Group_3535" data-name="Group 3535" transform="translate(-7916.495 -178.701)">
      <path id="Path_126453" data-name="Path 126453" d="M6910.271-3204.208c-1.193-54.086-28.476-107.008-71.841-139.353q-77.016,50.266-156.253,97.012a202.125,202.125,0,0,1,70.109,107.125c10.55,40.572,8.14,83.19,9.729,125.08s8.077,85.71,33.223,119.25c2.5,3.337,5.58,6.784,9.715,7.324,3.5.458,6.871-1.3,9.953-3.023a773.235,773.235,0,0,0,155.316-114.413c-41.577-47.291-63.464-111.378-59.5-174.222" transform="translate(-6678.494 3346.099)" fill="#6ad1e3"></path>
      <path id="Path_126454" data-name="Path 126454" d="M6805.119-2886.306a11.021,11.021,0,0,1-1.446-.094c-4.891-.638-8.361-4.473-11.111-8.139-27.138-36.2-32.231-83.369-33.638-120.422-.376-9.906-.531-20.009-.682-29.779-.483-31.512-.983-64.1-8.982-94.855a199.47,199.47,0,0,0-69.38-106.012l-2.4-1.884,2.625-1.548c52.542-31,105.086-63.62,156.173-96.963l1.217-.794,1.167.869a181.754,181.754,0,0,1,52.341,62.238,181.756,181.756,0,0,1,20.337,78.738l-4.166.092a177.558,177.558,0,0,0-19.875-76.92,177.755,177.755,0,0,0-49.969-59.935c-49.909,32.549-101.2,64.405-152.506,94.727a203.72,203.72,0,0,1,68.465,106.344c8.125,31.242,8.628,64.081,9.116,95.84.149,9.748.3,19.826.678,29.686,1.385,36.448,6.364,82.806,32.81,118.081,2.229,2.972,4.959,6.069,8.317,6.507,2.767.363,5.682-1.106,8.668-2.777a770.673,770.673,0,0,0,153.45-112.731,245.387,245.387,0,0,1-45.917-80.468,245.079,245.079,0,0,1-12.78-93.748l4.158.262a240.855,240.855,0,0,0,12.565,92.139,240.894,240.894,0,0,0,46.421,80.577l1.324,1.5-1.453,1.381a774.879,774.879,0,0,1-155.735,114.721C6811.729-2887.892,6808.574-2886.306,6805.119-2886.306Z" transform="translate(-6677.483 3346.796)" fill="#6ad1e3"></path>
    </g>
    <g id="Group_3536" data-name="Group 3536" transform="translate(-7885.13 -49.734)">
      <path id="Path_126455" data-name="Path 126455" d="M6782.144-3127.992c-.308-6.58-.771-13.322-3.473-19.329-4.758-10.578-15.559-17.034-26.213-21.618a176.106,176.106,0,0,0-28.53-9.377,201.82,201.82,0,0,1,37.347,74.469c7.725,29.705,8.5,60.507,8.987,91.317C6779.075-3050.313,6784.134-3085.417,6782.144-3127.992Z" transform="translate(-6718.848 3181.556)" fill="#f04e98"></path>
      <path id="Path_126456" data-name="Path 126456" d="M6767.158-2997.449l-.251-15.938c-.538-34.1-1.537-62.446-8.925-90.854A200.693,200.693,0,0,0,6721-3177.985l-3.546-4.46,5.54,1.333a179.257,179.257,0,0,1,28.846,9.482c9.078,3.906,21.776,10.5,27.227,22.615,2.789,6.2,3.314,13.02,3.642,20.043h0c1.771,37.864-1.8,72.556-11.93,116Zm-39.585-178.442a204.477,204.477,0,0,1,34.207,70.662c6.5,25.013,8.125,51.646,8.73,75.169,7.316-35.759,9.807-66.062,8.28-98.729h0c-.309-6.631-.8-13.043-3.3-18.616-3.721-8.272-11.729-14.825-25.2-20.621A171.391,171.391,0,0,0,6727.573-3175.891Z" transform="translate(-6717.454 3182.445)" fill="#f04e98"></path>
    </g>
    <path id="Path_126457" data-name="Path 126457" d="M6774.8-3192.1l-2.041-3.632a27.307,27.307,0,0,0,6.9-5.527c-.014-.042-.026-.082-.039-.124a6.642,6.642,0,0,1,1.692-7.1,3.71,3.71,0,0,1,1.642-.909,2.969,2.969,0,0,1,3.155,1.163c1.109,1.558.791,4.041-.157,5.54q-.615.974-1.3,1.9a3.439,3.439,0,0,0,2,1.121c2.3.306,4.489-1.247,5.772-3.3a14.954,14.954,0,0,1-.134-11.376l1.612-4.03,2.136,3.779a14.245,14.245,0,0,1,1.487,10.021,15.264,15.264,0,0,0,3.447-4.332,19.568,19.568,0,0,1,4.351-5.391,19.182,19.182,0,0,1,6.29-2.892c.623-.2,1.244-.394,1.853-.612,4.577-1.638,8.676-4.629,12.641-7.523l19.057-13.908,2.456,3.365-19.057,13.908c-4.2,3.068-8.549,6.241-13.692,8.081-.656.235-1.326.448-2,.661a15.8,15.8,0,0,0-4.988,2.205,16.273,16.273,0,0,0-3.381,4.314c-1.425,2.281-2.9,4.64-5.471,6.1a4.865,4.865,0,0,1-3.652.646c-2.135,2.867-5.52,4.918-9.282,4.412a7.519,7.519,0,0,1-4.153-2.068A31.434,31.434,0,0,1,6774.8-3192.1Z" transform="translate(-14614.491 3144.938)" fill="#703dc1"></path>
    <path id="Path_126458" data-name="Path 126458" d="M6877.688-3244.685l-2.09-3.6a21.721,21.721,0,0,0,6.372-5.64l3.322,2.512A25.9,25.9,0,0,1,6877.688-3244.685Z" transform="translate(-14636.631 3148.102)" fill="#703dc1"></path>
    <rect id="Rectangle_3649" data-name="Rectangle 3649" width="4.519" height="4.166" transform="matrix(0.858, -0.514, 0.514, 0.858, -7817.636, -8.703)" fill="#703dc1"></rect>
    <rect id="Rectangle_3650" data-name="Rectangle 3650" width="4.962" height="4.166" transform="translate(-7806.927 -14.599) rotate(-39.335)" fill="#703dc1"></rect>
    <path id="Path_126459" data-name="Path 126459" d="M6846.219-3163.083l-2.512-3.324a28.565,28.565,0,0,0,6.349-6.656,6.991,6.991,0,0,1-2.515-4.492,6.552,6.552,0,0,1,2.789-6.649,4.886,4.886,0,0,1,2.851-.784,4,4,0,0,1,3.246,1.958,7.5,7.5,0,0,1,.522,5.536c.111-.114.213-.231.308-.349a16.909,16.909,0,0,0,2.509-5.706l4.051.926a.22.22,0,0,0-.022-.114,1.574,1.574,0,0,0,1.549.289,8.03,8.03,0,0,0,2.59-2.681c.292-.4.583-.8.886-1.186,3.269-4.145,7.927-6.457,12.43-8.694,1.552-.771,3.156-1.567,4.639-2.413,5.442-3.107,10.224-7.472,14.85-11.693l2.808,3.077c-4.793,4.375-9.748,8.9-15.591,12.234-1.588.906-3.247,1.73-4.852,2.527-4.28,2.126-8.322,4.132-11.012,7.542-.269.341-.527.7-.786,1.054a11.317,11.317,0,0,1-4.193,4.006,5.787,5.787,0,0,1-4.616,0,14.111,14.111,0,0,1-1.994,3.445,8.821,8.821,0,0,1-6.287,3.422A32.774,32.774,0,0,1,6846.219-3163.083Zm6.677-17.74a1.156,1.156,0,0,0-.38.166,2.483,2.483,0,0,0-.855,2.485,3.3,3.3,0,0,0,.545,1.4q.238-.493.457-1A4.4,4.4,0,0,0,6852.9-3180.823Z" transform="translate(-14629.765 3138.453)" fill="#703dc1"></path>
    <path id="Path_126460" data-name="Path 126460" d="M6826.64-3068.865l-2.88-3.011a300.544,300.544,0,0,1,31.971-26.575l2.434,3.381A296.246,296.246,0,0,0,6826.64-3068.865Z" transform="translate(-14625.471 3114.627)" fill="#703dc1"></path>
    <path id="Path_126461" data-name="Path 126461" d="M6826.418-3002.793l-2.777-3.1a489.165,489.165,0,0,1,63.3-47.935l2.235,3.515A485.068,485.068,0,0,0,6826.418-3002.793Z" transform="translate(-14625.445 3105.021)" fill="#703dc1"></path>
    <rect id="Rectangle_3651" data-name="Rectangle 3651" width="40.616" height="4.166" transform="translate(-7768.354 130.257) rotate(-41.69)" fill="#703dc1"></rect>
    <path id="Path_126462" data-name="Path 126462" d="M6505.024-2981.537a208.492,208.492,0,0,0-43.106-6.667l.19-3.92a212.442,212.442,0,0,1,43.918,6.794Z" transform="translate(-14547.567 3091.736)" fill="#f04e98"></path>
    <path id="Path_126463" data-name="Path 126463" d="M6499.109-2946.727c-12.224-1.82-24.541-4.086-36.609-6.736l.841-3.832c11.982,2.63,24.21,4.88,36.347,6.687Z" transform="translate(-14547.693 3084.237)" fill="#f04e98"></path>
    <path id="Path_126464" data-name="Path 126464" d="M6473.533-2910.7a66.429,66.429,0,0,1-13.73-5.237l1.8-3.488a62.48,62.48,0,0,0,12.918,4.926Z" transform="translate(-14547.112 3076.083)" fill="#f04e98"></path>
    <path id="Path_126465" data-name="Path 126465" d="M6660.354-2948.481l-2.547-2.983c22.325-19.06,45.653-37.505,69.339-54.825l2.316,3.168C6705.856-2985.861,6682.6-2967.477,6660.354-2948.481Z" transform="translate(-14589.741 3094.785)" fill="#f04e98"></path>
    <path id="Path_126466" data-name="Path 126466" d="M6675.5-2919.27l-2.954-2.583a459.973,459.973,0,0,1,83.362-74.631l2.243,3.219A456.011,456.011,0,0,0,6675.5-2919.27Z" transform="translate(-14592.915 3092.674)" fill="#f04e98"></path>
    <rect id="Rectangle_3652" data-name="Rectangle 3652" width="94.893" height="3.924" transform="translate(-7904.635 194.784) rotate(-42.602)" fill="#f04e98"></rect>
    <rect id="Rectangle_3653" data-name="Rectangle 3653" width="1.096" height="3.924" transform="matrix(0.708, -0.706, 0.706, 0.708, -7878.406, 203.292)" fill="#f04e98"></rect>
    <path id="Path_126467" data-name="Path 126467" d="M6693.163-2868.833a422.957,422.957,0,0,0-31.436-44.879l3.06-2.455a426.575,426.575,0,0,1,31.729,45.3Z" transform="translate(-14590.586 3075.383)" fill="#f04e98"></path>
    <rect id="Rectangle_3654" data-name="Rectangle 3654" width="3.924" height="57.188" transform="matrix(0.839, -0.544, 0.544, 0.839, -7906.712, 135.309)" fill="#f04e98"></rect>
    <path id="Path_126468" data-name="Path 126468" d="M6662.222-2860.972l-1.8-3.484a26.177,26.177,0,0,0,10.9-10.719l3.453,1.862A30.126,30.126,0,0,1,6662.222-2860.972Z" transform="translate(-14590.304 3066.557)" fill="#f04e98"></path>
    <path id="Path_126469" data-name="Path 126469" d="M6740.04-2951.685c-10.535-16.994-20.707-34.51-30.229-52.061l3.448-1.871c9.488,17.485,19.62,34.935,30.116,51.866Z" transform="translate(-14600.938 3094.641)" fill="#f04e98"></path>
    <rect id="Rectangle_3655" data-name="Rectangle 3655" width="8.383" height="3.924" transform="matrix(0.837, -0.546, 0.546, 0.837, -7875.065, 67.287)" fill="#f04e98"></rect>
    <rect id="Rectangle_3656" data-name="Rectangle 3656" width="5.481" height="3.924" transform="matrix(0.707, -0.707, 0.707, 0.707, -7869.882, 76.955)" fill="#f04e98"></rect>
    <rect id="Rectangle_3657" data-name="Rectangle 3657" width="5.2" height="3.924" transform="translate(-7853.198 167.375) rotate(-63.425)" fill="#f04e98"></rect>
  </g>
</svg>
