<?xml version="1.0" encoding="UTF-8"?>
<svg xmlns="http://www.w3.org/2000/svg" width="323.965" height="235.481" viewBox="0 0 323.965 235.481">
  <g id="Group_3546" data-name="Group 3546" transform="translate(8183.999 -567.899)">
    <g id="Group_3539" data-name="Group 3539" transform="translate(-8184 567.899)">
      <path id="Path_126470" data-name="Path 126470" d="M6561.072-2581.906c-38.861-13.126-80.7-13.514-121.719-13.77-8.568-.054-17.292-.085-25.482,2.429-15.816,4.854-27.562,18.757-33.888,34.045s-8.023,32.03-9.655,48.495l-7.818,78.926c-1.293,13.056-2.121,27.711,6.374,37.71,6.585,7.75,17.14,10.616,27.074,12.791,63.814,13.973,129.549,16.12,194.85,17.923,21.146.583,44.7.27,60.077-14.252,12.038-11.365,15.947-28.715,18.577-45.06a591.716,591.716,0,0,0,7.02-117.85c-.187-4.619-.5-9.471-2.982-13.372-3.02-4.742-8.592-7.093-13.862-9.048a369.994,369.994,0,0,0-85.278-20.532" transform="translate(-6355.991 2598.682)" fill="#f04e98"></path>
      <g id="Group_3537" data-name="Group 3537" transform="translate(166.659 14.973)">
        <path id="Path_126471" data-name="Path 126471" d="M6756.975-2546.155c-3.02-4.742-8.593-7.094-13.862-9.048a370.137,370.137,0,0,0-64.413-17.459l-68.572,117.739c39.354,26.323,82.154,50.766,129.315,54.932,3.454.3,6.948.487,10.438.493,1.284-5.1,2.233-10.316,3.058-15.434a591.721,591.721,0,0,0,7.02-117.851C6759.771-2537.4,6759.457-2542.255,6756.975-2546.155Z" transform="translate(-6606.126 2575.972)" fill="#703dc1"></path>
        <path id="Path_126472" data-name="Path 126472" d="M6750.187-2398.177l-2.337,0c-3.379-.006-6.979-.175-10.7-.5-48.454-4.281-91.461-29.168-130.716-55.425l-2.338-1.563,71.042-121.971,2.054.363a373.73,373.73,0,0,1,64.932,17.6c5.844,2.167,11.843,4.744,15.347,10.246,2.808,4.409,3.234,9.545,3.448,14.857a595.527,595.527,0,0,1-7.058,118.447c-1.025,6.385-1.983,11.224-3.109,15.69ZM6612.1-2457.526c37.961,25.233,79.413,48.8,125.575,52.879,2.694.239,5.318.389,7.828.45.854-3.682,1.628-7.764,2.449-12.885a589.6,589.6,0,0,0,6.986-117.255c-.187-4.634-.508-8.729-2.519-11.886h0c-2.5-3.937-7.489-6.037-12.378-7.851a367.734,367.734,0,0,0-61.84-16.949Z" transform="translate(-6604.101 2577.646)" fill="#703dc1"></path>
      </g>
      <g id="Group_3538" data-name="Group 3538" transform="translate(33.688 0)">
        <path id="Path_126473" data-name="Path 126473" d="M6675.576-2562.941a370,370,0,0,0-85.279-20.532l-13.285,1.566c-38.861-13.127-80.7-13.514-121.719-13.77-8.568-.054-17.292-.085-25.482,2.429a47.959,47.959,0,0,0-20.674,13.295c3.755,8.824,9.547,16.761,15.516,24.334a432.184,432.184,0,0,0,98.255,91.056c7.225,4.853,14.846,9.586,23.418,11.083,17.257,3.012,33.674-7.5,48.043-17.521,34.058-23.749,68.554-47.91,97.145-77.756a16.565,16.565,0,0,0-2.074-5.137C6686.419-2558.635,6680.846-2560.986,6675.576-2562.941Z" transform="translate(-6405.619 2598.682)" fill="#59cbe8"></path>
        <path id="Path_126474" data-name="Path 126474" d="M6550.692-2451.472a38.622,38.622,0,0,1-6.662-.576c-9.205-1.605-17.188-6.583-24.572-11.545a433.7,433.7,0,0,1-98.935-91.687c-5.955-7.555-12-15.814-15.919-25.015l-.766-1.8,1.341-1.423a50.6,50.6,0,0,1,21.974-14.1c8.693-2.669,17.7-2.609,26.377-2.561,40.567.253,82.508.515,122.017,13.712l12.971-1.529.351.041a373.009,373.009,0,0,1,85.967,20.7c5.844,2.167,11.843,4.744,15.347,10.246a19.391,19.391,0,0,1,2.46,6.053l.377,1.584-1.128,1.176c-29.1,30.378-63.919,54.658-97.591,78.14C6580.684-2460.567,6566.194-2451.473,6550.692-2451.472Zm-139.777-129.357c3.653,7.859,9.015,15.128,14.307,21.844a427.772,427.772,0,0,0,97.573,90.424c6.853,4.6,14.213,9.213,22.263,10.619,15.8,2.753,31.292-6.9,45.818-17.028,32.976-22.994,67.058-46.762,95.511-76.143a12.189,12.189,0,0,0-1.254-2.688c-2.5-3.936-7.489-6.036-12.377-7.849h0a367.015,367.015,0,0,0-84.237-20.324l-13.6,1.6-.64-.216c-38.785-13.1-80.467-13.361-120.777-13.612-8.255-.054-16.77-.1-24.586,2.3A43.967,43.967,0,0,0,6410.915-2580.828Z" transform="translate(-6403.838 2600.196)" fill="#59cbe8"></path>
      </g>
      <path id="Path_126475" data-name="Path 126475" d="M6384.85-2300.367a191.392,191.392,0,0,1-31.748-39.817l5.131-3.077a185.471,185.471,0,0,0,30.761,38.572Z" transform="translate(-6353.102 2513.862)" fill="#703dc1"></path>
      <path id="Path_126476" data-name="Path 126476" d="M6428.961-2304.245a724.731,724.731,0,0,1-66.068-78.347l4.84-3.524a718.831,718.831,0,0,0,65.519,77.7Z" transform="translate(-6356.392 2528.262)" fill="#703dc1"></path>
      <path id="Path_126477" data-name="Path 126477" d="M6465.766-2326.859a644.336,644.336,0,0,1-99.506-108.163l4.839-3.521a638.386,638.386,0,0,0,98.582,107.155Z" transform="translate(-6357.523 2545.878)" fill="#703dc1"></path>
      <path id="Path_126478" data-name="Path 126478" d="M6368.607-2339.107l-5.587-2.142a368.517,368.517,0,0,1,29.718-60.375l5.1,3.124A362.761,362.761,0,0,0,6368.607-2339.107Z" transform="translate(-6356.435 2533.472)" fill="#703dc1"></path>
      <path id="Path_126479" data-name="Path 126479" d="M6399.424-2309.463l-5.325-2.738a280.7,280.7,0,0,1,32.488-49.487l4.628,3.8A274.242,274.242,0,0,0,6399.424-2309.463Z" transform="translate(-6366.877 2520.053)" fill="#703dc1"></path>
      <path id="Path_126480" data-name="Path 126480" d="M6447.928-2297.106l-5.213-2.939a135.426,135.426,0,0,1,29.3-35.858l3.921,4.523A129.415,129.415,0,0,0,6447.928-2297.106Z" transform="translate(-6383.213 2511.389)" fill="#703dc1"></path>
      <rect id="Rectangle_3658" data-name="Rectangle 3658" width="7.147" height="5.985" transform="matrix(0.847, -0.532, 0.532, 0.847, 107.786, 180.136)" fill="#703dc1"></rect>
      <path id="Path_126481" data-name="Path 126481" d="M6509.687-2269.964l-3.547-4.818a63.6,63.6,0,0,0,11.507-10.926l4.629,3.793A69.579,69.579,0,0,1,6509.687-2269.964Z" transform="translate(-6404.525 2494.523)" fill="#703dc1"></path>
      <rect id="Rectangle_3659" data-name="Rectangle 3659" width="9.122" height="5.985" transform="matrix(0.667, -0.745, 0.745, 0.667, 128.442, 195.917)" fill="#703dc1"></rect>
      <path id="Path_126482" data-name="Path 126482" d="M6562.332-2339.059l-4.733-3.659a22.9,22.9,0,0,1,8.775-6.9l2.437,5.464A16.967,16.967,0,0,0,6562.332-2339.059Z" transform="translate(-6421.816 2515.997)" fill="#703dc1"></path>
    </g>
  </g>
</svg>
