<?xml version="1.0" encoding="UTF-8"?>
<svg xmlns="http://www.w3.org/2000/svg" width="921.723" height="964.133" viewBox="0 0 921.723 964.133">
  <g id="Group_3216" data-name="Group 3216" transform="translate(-188.373 -6295.156)">
    <g id="Group_3213" data-name="Group 3213">
      <path id="Path_126191" data-name="Path 126191" d="M506.074,6982.045l-114.349,61.144,61.731-7.016a418.216,418.216,0,0,0-82.257,54.346l56.41-14.633q-24.168,16.589-46.85,35.216a306.124,306.124,0,0,0,37.314-11.751c-26.473,24.088-47.914,53.092-69.169,81.889l-56.411,76.424c34.393-32.854,81.536-48.063,122.276-72.609,29.118-17.543,54.988-39.9,80.7-62.14a731.971,731.971,0,0,1-40.351,69.115c23.024-15.076,39.655-37.906,55.758-60.223q-7.57,31-17.789,61.271c19.985-28.323,33.47-60.617,46.8-92.617a78.79,78.79,0,0,1,1.939,38.133c9.46-11.444,10.942-27.271,15.969-41.242,5.637-15.666,15.86-29.17,24.835-43.193a307.464,307.464,0,0,0,22.5-42.007c1.1-2.5,2.189-5.141,2-7.869-.3-4.5-3.909-7.989-7.372-10.875a184.255,184.255,0,0,0-45.086-27.664c-6.31-2.712-14.533-4.732-19.313.2" fill="#703dc1"></path>
      <path id="Path_126192" data-name="Path 126192" d="M294.046,7259.289l-3.361-2.96L347.1,7179.9c18.884-25.585,38.345-51.951,61.509-74.693-8.975,3.108-18.122,5.812-27.309,8.072l-9.615,2.364,7.652-6.284c11.882-9.758,24.214-19.2,36.781-28.175l-53.893,13.982,7.526-6.367a420.526,420.526,0,0,1,71.928-49.031l-61.376,6.976,124.715-66.686,2.119,3.964-103.983,55.6,62.593-7.113-11.278,5.667a415.98,415.98,0,0,0-74.012,47.615l58.976-15.3-10.548,7.241c-13.116,9.005-26.041,18.566-38.533,28.5,9.106-2.576,18.123-5.587,26.915-8.987l11.225-4.341-8.9,8.1c-26.409,24.03-48,53.278-68.874,81.562l-44.9,60.826c19.828-15.079,42.486-26.342,64.548-37.309,14.43-7.174,29.351-14.591,43.246-22.962,29.037-17.5,55.142-40.077,80.387-61.915l8.747-7.566-5.276,10.291c-10.311,20.113-21.659,39.926-33.819,59.05,18.195-14.791,32.532-34.661,45.4-52.5l6.737-9.338-2.731,11.187c-3.717,15.218-7.957,30.458-12.655,45.49,15.124-24.733,26.42-51.86,37.4-78.233l2.4-5.762,1.825,5.969a80.9,80.9,0,0,1,3.342,28.952c2.757-5.759,4.493-12.163,6.3-18.811,1.2-4.42,2.437-8.989,4.007-13.353,4.55-12.647,12.066-23.97,19.336-34.921,1.894-2.855,3.854-5.807,5.72-8.724a306.01,306.01,0,0,0,22.335-41.7c1.082-2.46,1.964-4.67,1.82-6.813-.241-3.564-3.3-6.577-6.568-9.3a181.668,181.668,0,0,0-44.536-27.326c-5.506-2.367-12.893-4.341-16.811-.3l-3.229-3.129c4.513-4.654,12.058-4.9,21.816-.7a186.064,186.064,0,0,1,45.637,28c4.037,3.363,7.821,7.2,8.175,12.45.214,3.157-.913,6.023-2.188,8.925a310.671,310.671,0,0,1-22.663,42.314c-1.888,2.948-3.858,5.916-5.763,8.786-7.121,10.728-14.485,21.822-18.851,33.956-1.508,4.2-2.723,8.675-3.9,13.008-2.744,10.123-5.582,20.591-12.453,28.9l-5.66,6.849,1.722-8.716a76.456,76.456,0,0,0-.233-30.658c-12.406,29.716-25.553,60.08-44.458,86.874L486.015,7207l4.941-14.639c5.517-16.343,10.507-33.041,14.878-49.781-13.667,18.625-29.277,38.1-49.486,51.332l-9.092,5.953,5.984-9.07c12.439-18.855,24.106-38.478,34.768-58.466-22.631,19.484-46.139,39.025-72.079,54.652-14.051,8.466-29.055,15.925-43.565,23.138C344.849,7223.795,316.4,7237.938,294.046,7259.289Z" fill="#703dc1"></path>
    </g>
    <g id="Group_3214" data-name="Group 3214">
      <path id="Path_126193" data-name="Path 126193" d="M704.329,6715.62c-43.284,40.882-100.964,131.493-122.279,187.088-12,4.382-26.795,2.875-39.39,4.373-29.867,3.55-56.671,6.986-76.552,31.542q-22.3,27.552-44.6,55.106c-7.435,9.188-14.305,18.607-15.816,30.674l17.4-17.157c5.929-5.846,11.914-11.738,18.916-16.244,20.247-13.031,67.929-18.983,90.174-7.444,3.343,1.733-2.392,8.858.931,4.076q-43.131,62.081-86.26,124.162l124.974-105.925c8.865,39.271,16.65,84.266-7.282,116.64-5.285,7.148-12.2,13.889-13.314,22.708q31.63-23.523,63.26-47.047c4.576-3.4,9.269-6.933,12.209-11.82,2.786-4.631,3.762-10.094,4.688-15.418l11.256-64.736c1.066-6.132,2.22-12.484,5.781-17.588,4.157-5.961,11-9.381,17.656-12.3,31-13.574,64.169-21.4,96.054-32.749a462.106,462.106,0,0,0,205.3-146.572c53.065-66.63,109.1-167.625,118.972-252.23C945.51,6552.67,806.921,6618.719,704.329,6715.62Z" fill="#f04e98"></path>
      <path id="Path_126194" data-name="Path 126194" d="M547.808,7151.084l.785-6.2c.978-7.73,5.787-13.771,10.437-19.614,1.134-1.424,2.308-2.9,3.376-4.343,22.248-30.1,16.135-72.255,7.783-110.181L433.078,7126.961,530,6987.451a6.519,6.519,0,0,0,.6-1.715c-21.48-10.807-67.876-4.9-87.151,7.5-6.8,4.373-12.74,10.234-18.488,15.9L402.1,7031.685l.953-7.613c1.609-12.844,8.978-22.86,16.388-32.016l44.6-55.107c20.784-25.672,48.725-28.994,78.306-32.511,4.39-.522,9.087-.69,13.629-.852,8.243-.294,16.754-.6,24.037-2.988,20.789-53.412,77.211-144.147,122.49-186.912l1.827,1.934-1.827-1.934c107.331-101.378,247.2-163.917,383.757-171.581l3.159-.176-.366,3.142c-10.439,89.493-70.916,192.534-119.534,253.58a464.75,464.75,0,0,1-206.491,147.421c-12.126,4.315-24.614,8.178-36.692,11.913-19.7,6.093-40.062,12.393-59.186,20.766-5.993,2.624-12.708,5.885-16.541,11.381-3.289,4.717-4.379,10.988-5.341,16.522l-11.256,64.736c-.914,5.256-1.95,11.214-5.03,16.334-3.253,5.409-8.378,9.22-12.9,12.584ZM573.457,7001l.967,4.283c9.064,40.154,16.689,85.763-7.738,118.808-1.125,1.521-2.329,3.033-3.492,4.5a70.463,70.463,0,0,0-6.7,9.405l56.415-41.957c4.328-3.219,8.8-6.547,11.517-11.056,2.566-4.267,3.471-9.47,4.346-14.5l11.255-64.736c1.058-6.079,2.256-12.97,6.221-18.655,4.624-6.631,12.114-10.3,18.772-13.211,19.4-8.494,39.911-14.839,59.748-20.975,12.024-3.719,24.459-7.566,36.481-11.842a459.424,459.424,0,0,0,204.11-145.724c47.608-59.776,106.679-160.087,118.023-247.727-134.31,8.377-271.619,70.2-377.221,169.947-45.1,42.6-101.41,133.39-121.622,186.106l-.433,1.131-1.138.416c-8.317,3.037-17.712,3.373-26.8,3.7-4.638.166-9.018.323-13.189.819-28.477,3.385-55.374,6.583-74.8,30.574l-44.6,55.1c-5.245,6.482-10.162,12.982-13.008,20.453l10.653-10.5c5.941-5.859,12.085-11.915,19.344-16.588,20.936-13.472,69.715-19.562,92.841-7.569a4.8,4.8,0,0,1,2.476,5.13,13.812,13.812,0,0,1-.755,2.709l.169.118c-.711,1.024-.95,1.422-.953,1.426l-.02-.012c-.05.071-.1.139-.152.205l-73.545,105.862Z" fill="#f04e98"></path>
    </g>
    <g id="Group_3215" data-name="Group 3215">
      <path id="Path_126195" data-name="Path 126195" d="M582.05,6902.708c-12,4.382-26.795,2.875-39.39,4.373-29.867,3.55-56.671,6.986-76.552,31.542q-22.3,27.552-44.6,55.106c-7.436,9.188-14.306,18.607-15.817,30.674l17.4-17.157c5.929-5.847,11.914-11.738,18.916-16.244,20.247-13.031,67.929-18.983,90.174-7.444,2.059,1.068.674,4.18.083,5.295L446.854,7111.8l124.974-105.925c8.865,39.271,16.65,84.266-7.282,116.64-5.285,7.148-12.2,13.889-13.314,22.708q31.63-23.523,63.26-47.047c4.576-3.4,9.269-6.933,12.209-11.82,2.786-4.631,3.762-10.094,4.688-15.418l11.256-64.736c1.066-6.132,2.22-12.484,5.781-17.589,4.157-5.96,11-9.38,17.656-12.295,31-13.574,64.169-21.4,96.054-32.749a456.632,456.632,0,0,0,75.228-34.815c-62.98-49.464-108.619-120.835-126.944-198.8q-3.063,2.82-6.091,5.67C661.045,6756.5,603.365,6847.113,582.05,6902.708Zm-49.921,86.4c-.108.188-.132.212,0,0Z" fill="#6ad1e3"></path>
      <path id="Path_126196" data-name="Path 126196" d="M548.005,7150.745l.74-5.841c.973-7.684,5.767-13.708,10.4-19.532,1.136-1.428,2.311-2.9,3.381-4.351,22.335-30.215,16.143-72.532,7.756-110.555L433.874,7126.085l96.241-138.53a5.907,5.907,0,0,0,.648-1.908c-21.477-10.892-68.063-4.981-87.4,7.463-6.81,4.383-12.76,10.248-18.512,15.921l-22.546,22.233.9-7.172c1.6-12.807,8.959-22.8,16.356-31.94l44.6-55.106c20.745-25.624,48.656-28.942,78.205-32.455,4.384-.522,9.077-.689,13.615-.851,8.282-.3,16.831-.6,24.15-3.019,20.762-53.388,77.194-144.153,122.478-186.924q3.035-2.865,6.115-5.693l3.157-2.9.982,4.176a357.506,357.506,0,0,0,126.052,197.4l2.915,2.289-3.21,1.855a460.247,460.247,0,0,1-75.641,35.006c-12.124,4.313-24.612,8.176-36.687,11.911-19.7,6.094-40.07,12.4-59.2,20.771-6.012,2.633-12.749,5.905-16.606,11.434-3.308,4.744-4.4,11.034-5.367,16.584l-11.256,64.735c-.912,5.244-1.945,11.189-5.009,16.282-3.239,5.382-8.351,9.184-12.862,12.539Zm25.358-149.462.911,4.036c9.057,40.121,16.677,85.689-7.712,118.682-1.124,1.52-2.327,3.032-3.49,4.494a65.709,65.709,0,0,0-7.045,10.033L613,7096.16c4.34-3.228,8.828-6.566,11.557-11.1,2.58-4.289,3.488-9.508,4.365-14.555l11.256-64.735c1.055-6.064,2.25-12.937,6.2-18.594,4.6-6.6,12.069-10.252,18.707-13.158,19.392-8.491,39.9-14.834,59.732-20.969,12.026-3.721,24.463-7.568,36.487-11.845a454.741,454.741,0,0,0,71.61-32.791,362.766,362.766,0,0,1-123.92-193.72q-1.471,1.371-2.934,2.75c-45.117,42.615-101.443,133.432-121.659,186.163l-.41,1.067-1.072.391c-8.294,3.029-17.677,3.365-26.751,3.689-4.641.166-9.025.322-13.2.819-28.509,3.389-55.435,6.59-74.9,30.63l-44.6,55.106c-5.406,6.679-10.465,13.38-13.275,21.146l11.147-10.992c5.936-5.853,12.073-11.9,19.319-16.567,20.9-13.455,69.6-19.537,92.686-7.562a4.381,4.381,0,0,1,2.213,2.627c.657,2.1-.217,4.459-1.067,6.066l-.192.31.017.01a3.309,3.309,0,0,1-.47.642l-74,106.521Z" fill="#6ad1e3"></path>
    </g>
    <path id="Path_126197" data-name="Path 126197" d="M545.6,6748.748l-.2-5.012c70.726-2.75,251.57-29.557,320.28-49.994,9.8-2.916,19.156-6.068,25.826-12.534,6.209-6.019,9.758-16.72,4.948-24.21a9.457,9.457,0,0,0-1.848-2.09,38.322,38.322,0,0,1-20.335,4.444l-3.18-.223.966-3.038c1.545-4.861,5.9-8.216,11.647-8.976a18.765,18.765,0,0,1,11.092,1.915,39.154,39.154,0,0,0,5.627-4.263,37.15,37.15,0,0,0,10.465-16,18.539,18.539,0,0,1-8.252,3c-5.887.632-10.864-1.709-13.311-6.282l-.725-1.356.879-1.261c5.116-7.34,15.328-10.009,23.459-6.705.425-7.722-5.924-15.332-12.971-18.48-8.932-3.992-19.527-3.41-28.872-2.9l-310.283,17.053c-23.928,1.314-50.837,1.25-67.424-16.293-8.456-8.944-12.507-20.965-16.08-31.57-6.722-19.945-15.086-44.766-10.325-68.529,6.361-31.73,37.865-56.358,70.16-54.842,44.163,2.034,79.355,54.406,107.587,160.111l-4.845,1.295c-27.595-103.319-61.278-154.477-102.973-156.4-29.955-1.382-59.118,21.417-65.011,50.82-4.5,22.446,3.288,45.553,10.159,65.94,3.409,10.116,7.272,21.582,14.972,29.727,15.113,15.983,40.7,15.982,63.505,14.73l310.282-17.053c9.917-.544,21.155-1.163,31.194,3.325,9.893,4.419,18.262,15.594,15.4,26.794l-.005.212c-.256,10.391-5.218,20.731-13.614,28.369a44.094,44.094,0,0,1-4.736,3.752,14.3,14.3,0,0,1,1.614,2.059c6.43,10.016,1.874,23.2-5.679,30.522-7.485,7.254-17.462,10.638-27.887,13.739C798.114,6719.071,616.576,6745.987,545.6,6748.748Zm340.569-96.779a13.813,13.813,0,0,0-1.8.118,10.528,10.528,0,0,0-5.377,2.251,33.5,33.5,0,0,0,9.534-2.17A14.074,14.074,0,0,0,886.166,6651.969Zm8.482-27.549c2.275,2.581,5.862,2.528,7.447,2.358,3.427-.373,7.508-2.3,9.5-5.734A15.209,15.209,0,0,0,894.648,6624.42Z" fill="#360484"></path>
    <path id="Path_126198" data-name="Path 126198" d="M720.175,6972.775c-3.824,0-7.66-1.71-11.3-5.074-4.93-4.562-8.3-11.03-9.866-14.479l-26.046-57.264c-1.911-4.2-4.29-9.431-3.913-14.966.611-8.971,7.779-16.44,21.3-22.2q1.185-.5,2.377-.992c-20.884,1.364-46.173-2.066-84.123-20.438-31.664-15.328-58.2-58.086-65.558-90.567l4.89-1.108c7.1,31.324,32.55,72.491,62.854,87.162,54.722,26.492,82.317,21.08,109.006,15.846,5.171-1.013,10.517-2.062,15.967-2.86l.748,4.96a185.328,185.328,0,0,0-44.2,12.612c-11.648,4.959-17.794,10.989-18.265,17.924-.291,4.272,1.709,8.67,3.473,12.55l26.046,57.264c1.519,3.336,9.606,19.792,19.543,16.059,8.039-3.02,6.915-15.667,3.512-25.579l-1.046-3.043,3.207-.27a170.983,170.983,0,0,0,132.243-84.937c13.786-24.48,22.228-59.673,4.574-85.028-10.984-15.776-29.643-24.334-46.107-31.885-20.324-9.324-38.656-16.768-57.207-13.446l-.885-4.936c21.6-3.882,43,5.939,60.184,13.823,16.2,7.432,36.365,16.68,48.131,33.578,18.98,27.26,10.213,64.548-4.321,90.355a176.118,176.118,0,0,1-133.08,87.182c3.4,11.893,3.055,24.937-7.441,28.881A13.326,13.326,0,0,1,720.175,6972.775Z" fill="#360484"></path>
    <path id="Path_126199" data-name="Path 126199" d="M472.781,6571.022a80.432,80.432,0,0,1-15.284-1.446l.953-4.924c28.06,5.431,59.154-5.712,77.376-27.728a31.806,31.806,0,0,0,5.584-9.089,14.714,14.714,0,0,1-12.241-.369l-1.963-1.036.791-2.075c1.08-2.834,2.424-6.364,5.3-8.791,3.148-2.657,8.516-3.439,11.7-.063a7.742,7.742,0,0,1,1.523,2.4c2.771-3.523,4.606-7.967,6.26-11.97,2.4-5.821,4.494-12.268,2.7-17.186q-.27.312-.531.611c-2.408,2.776-5.706,6.578-10.452,7.581a9.79,9.79,0,0,1-8.558-2.494,7.051,7.051,0,0,1-2.247-6.279l.061-.275c1.346-4.747,5.626-8.274,11.169-9.2a14.388,14.388,0,0,1,10.547,2.075c2.566-3.54,4.379-7.155,4.357-11.042a25.167,25.167,0,0,0-1.7-7.708c-4.582-13.674-13.112-30.291-27.722-31.81l.518-4.988c13.665,1.42,24.717,13.594,31.96,35.2a29.722,29.722,0,0,1,1.962,9.274c.031,5.671-2.809,10.711-5.872,14.788,4.247,6.944,1.623,15.681-1.552,23.367-2.2,5.321-4.689,11.353-9.35,15.808-.242.231-.492.457-.751.68-.418,4.924-2.934,10.123-7.622,15.786C523.6,6559.563,498.062,6571.022,472.781,6571.022Zm60.842-47.24a12.234,12.234,0,0,0,8.688-1.973c-.01-.108-.021-.215-.034-.322a4.459,4.459,0,0,0-.929-2.544c-1.068-1.132-3.466-.685-4.818.453A11.8,11.8,0,0,0,533.623,6523.782Zm4.995-34.678a2.1,2.1,0,0,0,.78,1.716,4.846,4.846,0,0,0,4.056,1.213c2.865-.606,5.183-3.058,7.7-5.962q.6-.686,1.178-1.37a9.8,9.8,0,0,0-6.586-1.069C542.958,6484.1,539.646,6485.783,538.618,6489.1Z" fill="#360484"></path>
    <path id="Path_126200" data-name="Path 126200" d="M577.82,6525.958a20.4,20.4,0,0,1-6.478-1.051c-3.217-1.077-5.143-3.146-5.283-5.678a6.906,6.906,0,0,1,.66-3.1,28.865,28.865,0,0,1,20.5-16.937l.429,2.059a5.761,5.761,0,0,1,1.836-1.09c2.9-1.06,6.408.576,7.817,3.644a10.463,10.463,0,0,1,.187,7.365,20.415,20.415,0,0,1-19.666,14.792Zm7.571-21.069a23.828,23.828,0,0,0-14.042,13.164,2.984,2.984,0,0,0-.283.9c.01.175.561.766,1.869,1.2a15.714,15.714,0,0,0,12.08-.971,15.449,15.449,0,0,0,4.563-3.686,6.125,6.125,0,0,1-4.391-4,9.635,9.635,0,0,1-.1-5.526C585.178,6505.592,585.277,6505.232,585.391,6504.889Z" fill="#360484"></path>
    <path id="Path_126201" data-name="Path 126201" d="M587.808,6552.188c-10.164-3.914-22.814-8.784-30.438-19l4.02-3c6.757,9.057,18.658,13.639,28.22,17.321Z" fill="#360484"></path>
    <path id="Path_126202" data-name="Path 126202" d="M716.974,6604l-2.858-4.121c28.963-20.084,51.479-48.945,71.345-74.407,16.1-20.641,30.453-41.086,29.236-64.257-.238-4.531-1.4-7.566-3.445-9.024a5.415,5.415,0,0,0-4.252-.943,8.626,8.626,0,0,0-1.34.346c-2.272,5.879-7.083,9.9-12.6,10.5l-5.531.609,3.207-4.547c1.362-1.93,5.5-7.348,10.811-10.206.722-3.084.489-6.83-2.041-9.567a9.925,9.925,0,0,0-7.656-2.938,15.15,15.15,0,0,1-3.61,6.695,11.33,11.33,0,0,1-11.013,3.715l-2.308-.568.444-2.335c1.05-5.518,5.523-10.039,11.673-11.8l.121-.034a6.835,6.835,0,0,0-.28-1.221c-2.023-6.149-9.437-9.015-15.394-8.62-6.813.468-13.241,4.138-19.172,8.033-18.153,11.927-34.512,26.872-50.333,41.324l-78.6,71.8-3.383-3.7,78.6-71.8c15.965-14.584,32.474-29.665,50.962-41.812,6.5-4.27,13.616-8.3,21.582-8.846,8.025-.537,17.656,3.41,20.5,12.056a12.123,12.123,0,0,1,.483,2.09h.031a14.234,14.234,0,0,1,14.727,15.783,10.26,10.26,0,0,1,7.276,1.9c3.405,2.423,5.22,6.625,5.546,12.846,1.308,24.9-13.582,46.187-30.29,67.6C769.329,6554.305,746.563,6583.485,716.974,6604Zm68.88-167a11.3,11.3,0,0,0-4.333,3.817,7.983,7.983,0,0,0,3.041-2.081A10.058,10.058,0,0,0,785.854,6437Z" fill="#360484"></path>
    <path id="Path_126203" data-name="Path 126203" d="M1026.563,6689.573a212.865,212.865,0,0,1-80.7-118.142l4.852-1.268a210.726,210.726,0,0,0,78.8,115.352Z" fill="#6ad1e3"></path>
    <path id="Path_126204" data-name="Path 126204" d="M1008.66,6757.845c-14.562-5.64-28.547-15.739-44.009-31.78a276.3,276.3,0,0,1-58.487-91.87l4.682-1.8a271.21,271.21,0,0,0,57.417,90.189c14.937,15.5,28.349,25.216,42.208,30.584Z" fill="#6ad1e3"></path>
    <path id="Path_126205" data-name="Path 126205" d="M1019.135,6728.987c-22.509-9.679-38.212-29.673-52.067-47.311-21.233-27.031-47.658-60.673-52.384-99.813l4.978-.6c4.559,37.747,30.5,70.776,51.35,97.316,13.485,17.168,28.768,36.627,50.1,45.8Z" fill="#6ad1e3"></path>
    <path id="Path_126206" data-name="Path 126206" d="M924.411,6605.8l-2.433-4.385c10.511-5.834,21.363-11.364,32.252-16.437l2.118,4.547C945.565,6594.543,934.82,6600.019,924.411,6605.8Z" fill="#6ad1e3"></path>
    <path id="Path_126207" data-name="Path 126207" d="M938.91,6634.835l-2.8-4.158,15.815-10.66c4.238-2.858,9.514-6.415,15.669-6.7l.23,5.01c-4.4.2-8.367,2.657-13.1,5.846Z" fill="#6ad1e3"></path>
    <path id="Path_126208" data-name="Path 126208" d="M959.17,6662.619l-3.7-3.389a83.625,83.625,0,0,1,23.327-17.843l2.3,4.455A78.621,78.621,0,0,0,959.17,6662.619Z" fill="#6ad1e3"></path>
    <rect id="Rectangle_3280" data-name="Rectangle 3280" width="26.734" height="5.014" transform="matrix(0.666, -0.746, 0.746, 0.666, 979.748, 6687.763)" fill="#6ad1e3"></rect>
    <path id="Path_126209" data-name="Path 126209" d="M1009.646,6716.157l-4.273-2.625c5.768-9.386,11.962-18.678,18.411-27.615l4.067,2.934C1021.475,6697.689,1015.35,6706.877,1009.646,6716.157Z" fill="#6ad1e3"></path>
    <rect id="Rectangle_3281" data-name="Rectangle 3281" width="9.412" height="5.015" transform="matrix(0.756, -0.655, 0.655, 0.756, 915.282, 6623.539)" fill="#6ad1e3"></rect>
    <path id="Path_126210" data-name="Path 126210" d="M926.109,6664.048l-2.744-4.2c6.8-4.445,13.543-9.17,20.051-14.047l3.008,4.013C939.83,6654.758,932.995,6659.546,926.109,6664.048Z" fill="#6ad1e3"></path>
    <path id="Path_126211" data-name="Path 126211" d="M944.786,6699.879l-.892-4.936c1.572-.284,3-1.949,4.385-3.559a102.891,102.891,0,0,1,16.741-15.6l2.988,4.027a97.624,97.624,0,0,0-15.869,14.775C950.313,6696.712,948.11,6699.276,944.786,6699.879Z" fill="#6ad1e3"></path>
    <rect id="Rectangle_3282" data-name="Rectangle 3282" width="28.767" height="5.016" transform="matrix(0.656, -0.755, 0.755, 0.656, 970.364, 6728.839)" fill="#6ad1e3"></rect>
    <rect id="Rectangle_3283" data-name="Rectangle 3283" width="5.015" height="6.02" transform="translate(1028.26 6691.321) rotate(-54.378)" fill="#6ad1e3"></rect>
    <path id="Path_126212" data-name="Path 126212" d="M448.088,7115.144l-2.887-4.1a987.516,987.516,0,0,0,123.272-102.817c15.228-14.969,32.3-32.72,42.158-53.994l4.551,2.11c-10.212,22.037-27.651,40.181-43.194,55.46A992.336,992.336,0,0,1,448.088,7115.144Z" fill="#5c54a3"></path>
    <path id="Path_126213" data-name="Path 126213" d="M615.019,6954.177a12.45,12.45,0,0,1-3.4-7.075l4.975-.629a7.419,7.419,0,0,0,2.026,4.21Z" fill="#5c54a3"></path>
    <rect id="Rectangle_3284" data-name="Rectangle 3284" width="5.014" height="5.642" transform="matrix(0.869, -0.495, 0.495, 0.869, 622.324, 6940.366)" fill="#5c54a3"></rect>
    <rect id="Rectangle_3285" data-name="Rectangle 3285" width="5.015" height="2.523" transform="matrix(0.832, -0.554, 0.554, 0.832, 622.497, 6955.162)" fill="#5c54a3"></rect>
    <path id="Path_126214" data-name="Path 126214" d="M637.842,6946.752l-2.809-4.154a6.977,6.977,0,0,1,5.476-1.014l-1.135,4.885A2.031,2.031,0,0,0,637.842,6946.752Z" fill="#5c54a3"></path>
    <path id="Path_126215" data-name="Path 126215" d="M550,7148.748l-2.455-4.373a364.153,364.153,0,0,0,65.742-47.235c4.519-4.083,9.082-8.528,10.886-14.007l4.764,1.568c-2.188,6.644-7.27,11.626-12.289,16.159A368.98,368.98,0,0,1,550,7148.748Z" fill="#5c54a3"></path>
    <path id="Path_126216" data-name="Path 126216" d="M406.364,7025.636l-3.153-3.9,14.355-11.606c9.052-7.32,18.413-14.891,29.048-20.435,18.439-9.611,40.764-13.506,70.255-12.245l-.213,5.01c-28.572-1.214-50.1,2.494-67.723,11.683-10.19,5.311-19.353,12.721-28.214,19.887Z" fill="#5c54a3"></path>
    <rect id="Rectangle_3286" data-name="Rectangle 3286" width="5.016" height="1.399" transform="translate(521.978 6979.683)" fill="#5c54a3"></rect>
    <rect id="Rectangle_3287" data-name="Rectangle 3287" width="9.945" height="5.015" transform="matrix(0.778, -0.629, 0.629, 0.778, 529.222, 6984.048)" fill="#5c54a3"></rect>
    <path id="Path_126217" data-name="Path 126217" d="M652.029,6908.892a271.378,271.378,0,0,1-34.09-39.977l4.114-2.869a266.131,266.131,0,0,0,33.459,39.236Z" fill="#5c54a3"></path>
    <path id="Path_126218" data-name="Path 126218" d="M662.4,6900.805a198.425,198.425,0,0,0-29.477-38.707l3.588-3.506a203.546,203.546,0,0,1,30.221,39.687Z" fill="#5c54a3"></path>
    <path id="Path_126219" data-name="Path 126219" d="M617.646,6890.925l-3.517-3.574a338.059,338.059,0,0,1,40.583-34.094l2.914,4.082A333.049,333.049,0,0,0,617.646,6890.925Z" fill="#5c54a3"></path>
    <path id="Path_126220" data-name="Path 126220" d="M628.772,6904.891l-3.466-3.625c12.53-11.985,25.676-23.636,39.073-34.63l3.182,3.877C654.262,6881.427,641.211,6892.993,628.772,6904.891Z" fill="#5c54a3"></path>
    <rect id="Rectangle_3288" data-name="Rectangle 3288" width="9.384" height="5.015" transform="translate(636.008 6915.96) rotate(-28.092)" fill="#5c54a3"></rect>
    <rect id="Rectangle_3289" data-name="Rectangle 3289" width="4.695" height="5.015" transform="matrix(0.897, -0.443, 0.443, 0.897, 664.048, 6911.69)" fill="#5c54a3"></rect>
    <path id="Path_126221" data-name="Path 126221" d="M651.732,6994.439l-4.043-2.966c4.926-6.716,12.425-10.957,19.794-14.538a243.959,243.959,0,0,1,41.121-15.574l1.346,4.832a239.071,239.071,0,0,0-40.274,15.251C663.352,6984.519,656.228,6988.312,651.732,6994.439Z" fill="#5c54a3"></path>
    <path id="Path_126222" data-name="Path 126222" d="M975.1,6582.783l-2.28-4.467a170.818,170.818,0,0,1,46.236-15.757c9.521-1.783,19.262-2.759,28.683-3.7l.5,4.991c-9.316.933-18.949,1.9-28.26,3.641A165.882,165.882,0,0,0,975.1,6582.783Z" fill="#fff"></path>
    <path id="Path_126223" data-name="Path 126223" d="M984.671,6594.452l-2.07-4.568c12.9-5.851,26.25-11.9,40.425-15.2,1.533-.357,3.078-.684,4.625-1.01,5.606-1.184,10.9-2.3,15.611-4.836l2.377,4.416c-5.347,2.876-11.246,4.122-16.951,5.326-1.513.32-3.025.639-4.523.988C1010.471,6582.756,997.355,6588.7,984.671,6594.452Z" fill="#fff"></path>
    <path id="Path_126224" data-name="Path 126224" d="M997.876,6600.349c-2.251-8.58-4.124-17.374-5.567-26.138l4.949-.815c1.417,8.61,3.257,17.25,5.47,25.679Z" fill="#fff"></path>
    <rect id="Rectangle_3290" data-name="Rectangle 3290" width="5.014" height="26.481" transform="matrix(0.983, -0.185, 0.185, 0.983, 1007.297, 6567.915)" fill="#fff"></rect>
    <path id="Path_126225" data-name="Path 126225" d="M1028.629,6587.329a62.6,62.6,0,0,1-3.791-24.1l5.01.209a57.536,57.536,0,0,0,3.486,22.155Z" fill="#fff"></path>
    <path id="Path_126226" data-name="Path 126226" d="M1033.265,6601.539a7.35,7.35,0,0,1-1.108-.083l.744-4.959a2.669,2.669,0,0,0,2.148-.672l3.439,3.651A7.654,7.654,0,0,1,1033.265,6601.539Z" fill="#fff"></path>
    <rect id="Rectangle_3291" data-name="Rectangle 3291" width="5.329" height="5.015" transform="translate(1011.943 6611.394) rotate(-23.21)" fill="#fff"></rect>
    <rect id="Rectangle_3292" data-name="Rectangle 3292" width="3.958" height="5.016" transform="translate(1049.647 6578.335) rotate(-45)" fill="#fff"></rect>
    <path id="Path_126227" data-name="Path 126227" d="M1017.915,6604.526a9.931,9.931,0,0,1-2.883-.422l1.457-4.8a5.418,5.418,0,0,0,5.685-1.814l3.967,3.069A10.483,10.483,0,0,1,1017.915,6604.526Z" fill="#fff"></path>
    <path id="Path_126228" data-name="Path 126228" d="M1063.474,6564.952l-3.411-3.588-.541-4.92a5.069,5.069,0,0,1,3.952,8.508Zm-3.626-3.315a.509.509,0,0,0-.132-.283.476.476,0,0,0,.211.074A.456.456,0,0,0,1059.848,6561.637Z" fill="#fff"></path>
    <path id="Path_126229" data-name="Path 126229" d="M985.98,6607.056a13.088,13.088,0,0,1-7-3.381l3.436-3.654a8.019,8.019,0,0,0,4.29,2.072Z" fill="#fff"></path>
    <path id="Path_126230" data-name="Path 126230" d="M497.143,6929.09l-1.459-4.8a107.689,107.689,0,0,1,18.264-3.859c.527-.065,1.055-.124,1.583-.185a41.18,41.18,0,0,0,7.076-1.218c.856-.254,1.708-.571,2.611-.907a22.32,22.32,0,0,1,10.93-1.768l.382.01a178.609,178.609,0,0,0,33.706-2.311l.815,4.949a184.3,184.3,0,0,1-34.652,2.376l-.387-.011a17.64,17.64,0,0,0-9.044,1.455c-.942.35-1.914.712-2.93,1.014a45.437,45.437,0,0,1-7.937,1.393q-.774.089-1.546.181A102.5,102.5,0,0,0,497.143,6929.09Z" fill="#fff"></path>
    <path id="Path_126231" data-name="Path 126231" d="M516.6,6936l-4.957-.768a33.491,33.491,0,0,1,7.944-16.9l3.752,3.326A28.413,28.413,0,0,0,516.6,6936Z" fill="#fff"></path>
    <path id="Path_126232" data-name="Path 126232" d="M531.111,6938.514l-5.009-.244a41.637,41.637,0,0,1,9.026-23.832l3.914,3.136A36.58,36.58,0,0,0,531.111,6938.514Z" fill="#fff"></path>
    <path id="Path_126233" data-name="Path 126233" d="M544.075,6937.389a24.17,24.17,0,0,1,6.013-19.427l3.705,3.379a19.1,19.1,0,0,0-4.751,15.352Z" fill="#fff"></path>
    <path id="Path_126234" data-name="Path 126234" d="M549.825,6940.594a129.847,129.847,0,0,0-25.374-11.054l1.5-4.785a134.922,134.922,0,0,1,26.357,11.481Z" fill="#fff"></path>
    <rect id="Rectangle_3293" data-name="Rectangle 3293" width="5.015" height="9.122" transform="translate(555.262 6933.7) rotate(-58.433)" fill="#fff"></rect>
    <path id="Path_126235" data-name="Path 126235" d="M570.992,6928.264l-3.5-3.59a9.946,9.946,0,0,1,5.674-2.732l.621,4.977A4.953,4.953,0,0,0,570.992,6928.264Z" fill="#fff"></path>
    <rect id="Rectangle_3294" data-name="Rectangle 3294" width="2.213" height="5.015" transform="translate(555.155 6923.385) rotate(-18.767)" fill="#fff"></rect>
    <path id="Path_126236" data-name="Path 126236" d="M501.312,6942.666c-.273,0-.546-.01-.821-.029l.356-5a6.684,6.684,0,0,0,3.56-.759l2.362,4.424A11.584,11.584,0,0,1,501.312,6942.666Z" fill="#fff"></path>
    <rect id="Rectangle_3295" data-name="Rectangle 3295" width="7.823" height="5.015" transform="matrix(0.895, -0.447, 0.447, 0.895, 521.265, 6948.048)" fill="#fff"></rect>
    <rect id="Rectangle_3296" data-name="Rectangle 3296" width="2.213" height="5.015" transform="matrix(0.946, -0.323, 0.323, 0.946, 564.25, 6943.681)" fill="#fff"></rect>
    <rect id="Rectangle_3297" data-name="Rectangle 3297" width="256.651" height="5.015" transform="translate(226.342 6785.09) rotate(-41.028)" fill="#6ad1e3"></rect>
    <rect id="Rectangle_3298" data-name="Rectangle 3298" width="175.619" height="5.014" transform="translate(311.984 6790.585) rotate(-42.727)" fill="#6ad1e3"></rect>
    <path id="Path_126237" data-name="Path 126237" d="M446.655,6739.277l-3.183-3.875a393.322,393.322,0,0,0,38.289-36l3.672,3.416A398.326,398.326,0,0,1,446.655,6739.277Z" fill="#6ad1e3"></path>
    <rect id="Rectangle_3299" data-name="Rectangle 3299" width="368.196" height="5.015" transform="translate(238.008 7024.515) rotate(-43.611)" fill="#6ad1e3"></rect>
    <path id="Path_126238" data-name="Path 126238" d="M511.156,6826.6l-2.586-4.3a28.747,28.747,0,0,0,10.172-10.441l4.363,2.471A33.755,33.755,0,0,1,511.156,6826.6Z" fill="#6ad1e3"></path>
    <path id="Path_126239" data-name="Path 126239" d="M638.849,6422.91l-3.981-3.051a106.612,106.612,0,0,0,17.809-35.15c2.046-7.019,2.37-16.24-3.45-19.131-2.248-1.115-5.262-1.137-8.966-.06q-.966.281-1.911.629a44.317,44.317,0,0,1-18.019,16.456l-6.451,3.122,3.1-6.463a35.749,35.749,0,0,1,17.987-17.161c7.148-11.934,9.576-26.658,10.375-36.482.6-7.33.6-15.585-3.894-21.241a12.221,12.221,0,0,0-10.3-4.153,6.947,6.947,0,0,0-5.693,3.5l-4.469-2.278a11.814,11.814,0,0,1,9.661-6.211,17.228,17.228,0,0,1,14.728,6.025c5.578,7.023,5.641,16.461,4.965,24.766-.742,9.138-2.84,22.257-8.563,34a15.463,15.463,0,0,1,9.681,1.065c8.586,4.264,8.746,15.724,6.034,25.027A111.641,111.641,0,0,1,638.849,6422.91Z" fill="#6ad1e3"></path>
    <path id="Path_126240" data-name="Path 126240" d="M446.185,6430.138a342.612,342.612,0,0,0-31.581-38.827l3.649-3.442a347.691,347.691,0,0,1,32.043,39.4Z" fill="#6ad1e3"></path>
    <path id="Path_126241" data-name="Path 126241" d="M501.724,6378.776a276.143,276.143,0,0,0-11.1-42.532l4.736-1.65a281.092,281.092,0,0,1,11.3,43.307Z" fill="#6ad1e3"></path>
    <path id="Path_126242" data-name="Path 126242" d="M563.321,6348.555a94.23,94.23,0,0,1,3.614-28.8l4.82,1.383a89.2,89.2,0,0,0-3.42,27.27Z" fill="#6ad1e3"></path>
    <rect id="Rectangle_3300" data-name="Rectangle 3300" width="5.015" height="5.902" transform="translate(382.109 7174.148) rotate(-17.954)" fill="#f04e98"></rect>
    <path id="Path_126243" data-name="Path 126243" d="M420.218,7154.628" fill="none" stroke="#f04e98" stroke-miterlimit="10" stroke-width="5.015"></path>
    <rect id="Rectangle_3301" data-name="Rectangle 3301" width="6.728" height="5.015" transform="translate(424.483 7147.007) rotate(-33.387)" fill="#f04e98"></rect>
    <rect id="Rectangle_3302" data-name="Rectangle 3302" width="2.639" height="5.016" transform="translate(431.508 7173.381) rotate(-45)" fill="#f04e98"></rect>
    <path id="Path_126244" data-name="Path 126244" d="M342.727,7115.665l-1.953-4.619a28.641,28.641,0,0,1,16.461-1.71l-.961,4.922A23.58,23.58,0,0,0,342.727,7115.665Z" fill="#f04e98"></path>
    <rect id="Rectangle_3303" data-name="Rectangle 3303" width="20.184" height="5.015" transform="matrix(0.835, -0.55, 0.55, 0.835, 424.438, 7225.312)" fill="#f04e98"></rect>
    <rect id="Rectangle_3304" data-name="Rectangle 3304" width="40.917" height="5.015" transform="translate(507.81 7232.161) rotate(-66.98)" fill="#f04e98"></rect>
    <rect id="Rectangle_3305" data-name="Rectangle 3305" width="19.837" height="5.015" transform="matrix(0.753, -0.658, 0.658, 0.753, 265.548, 7186.328)" fill="#f04e98"></rect>
    <rect id="Rectangle_3306" data-name="Rectangle 3306" width="5.901" height="5.016" transform="translate(343.023 7061.072) rotate(-17.952)" fill="#f04e98"></rect>
    <rect id="Rectangle_3307" data-name="Rectangle 3307" width="43.081" height="5.015" transform="matrix(0.955, -0.297, 0.297, 0.955, 318.725, 7025.402)" fill="#f04e98"></rect>
    <rect id="Rectangle_3308" data-name="Rectangle 3308" width="17.605" height="5.015" transform="translate(563.682 7201.84) rotate(-58.018)" fill="#f04e98"></rect>
    <rect id="Rectangle_3309" data-name="Rectangle 3309" width="22.779" height="5.015" transform="translate(466.684 7235.299) rotate(-55.023)" fill="#f04e98"></rect>
    <path id="Path_126245" data-name="Path 126245" d="M861.2,6510.288l-3.717-3.367a496.008,496.008,0,0,1,35.778-35.644c-6.245-20.385,1.137-44.331,17.932-57.522,8.493-6.672,18.256-9.625,26.785-8.109a22.8,22.8,0,0,1,14.626,9.329,69.636,69.636,0,0,1,10.059-23.416c2.249-3.36,5.437-7.519,10.158-9.886,6.64-3.33,15.349-2.4,22.731,2.426,6.43,4.2,10.935,10.361,15,16.307.758,1.11,1.086,1.321,1.191,1.36.1-.034.6-.327.842-.468l44.143-25.842,2.534,4.328-44.143,25.842a6.723,6.723,0,0,1-3.438,1.145h-.106c-2.792-.062-4.394-2.408-5.164-3.536-3.778-5.529-7.941-11.238-13.6-14.939-5.8-3.793-12.768-4.634-17.739-2.141-2.866,1.438-5.407,3.964-8.238,8.193a64.615,64.615,0,0,0-10.788,31.888c-.007.161-.017.323-.028.484l-5.005-.326c.008-.147.016-.293.026-.44.319-7.675-6.863-14.114-13.935-15.371-7.128-1.27-15.44,1.327-22.81,7.115-15.607,12.26-22.24,34.777-15.771,53.539l.544,1.576-1.243,1.112A491.019,491.019,0,0,0,861.2,6510.288Z" fill="#6ad1e3"></path>
    <path id="Path_126246" data-name="Path 126246" d="M191.739,6693.443l-3.365-3.718a725.56,725.56,0,0,0,59.522-60.593,135.8,135.8,0,0,1,1.688-58.926c1.106-4.352,2.555-8.855,5.648-12.324,7.492-8.4,21.495-6.9,29.874-.229a41.334,41.334,0,0,1,9.965,12.215c.619-18.267,9.636-36.338,24.424-47.16,6.342-4.643,12.271-6.49,17.62-5.488,5.811,1.087,9.689,4.907,12.1,9.96a26.1,26.1,0,0,1,9.2-9.993c10.454-6.493,25.23-4.54,33.636,4.449l-3.662,3.426c-6.717-7.18-18.976-8.8-27.329-3.616a22.12,22.12,0,0,0-9.4,13.345,50.876,50.876,0,0,1,.678,13.844l-.923,11.114-3.923-10.44a26.277,26.277,0,0,1-1.006-14.56c-1.392-6.085-4.423-11.5-10.292-12.6-3.934-.733-8.556.815-13.736,4.606-17.215,12.6-25.895,35.917-21.108,56.705l-4.759,1.524c-3.429-8.252-7.315-17.6-14.607-23.407-8.16-6.493-18.484-5.428-23.008-.357-2.495,2.8-3.646,6.743-4.53,10.22a130.724,130.724,0,0,0-1.392,57.912l.247,1.212-.813.933A729.968,729.968,0,0,1,191.739,6693.443Z" fill="#6ad1e3"></path>
    <path id="Path_126247" data-name="Path 126247" d="M739.7,7138.958l-2.961-4.047,103.512-75.717c-10.14-10.416-9.475-27.714-5.179-41.053a98.916,98.916,0,0,1,31.511-46c15.971-12.947,28.792-13.646,36.738-11.952,15.063,3.208,24.291,16.574,31.509,30.181a135.588,135.588,0,0,1,27.383-44.756c9.273-10.046,18.571-14.115,26.88-11.753,6.5,1.842,11.068,6.947,13.674,15.237a41.846,41.846,0,0,1,2.649-7.351c4.252-8.918,12.3-14.925,20.51-15.3a35.616,35.616,0,0,1,5.357.277,29.79,29.79,0,0,0,4.867.241c4.946-.321,9.577-3.38,13.662-6.078l57.525-38,2.764,4.183-57.526,38c-4.378,2.893-9.826,6.493-16.1,6.9a33.353,33.353,0,0,1-5.7-.257,32.225,32.225,0,0,0-4.614-.255c-6.383.293-12.747,5.181-16.213,12.45-3.317,6.957-4,14.947-4.653,22.672l-5-.136c-.492-16.194-4.718-25.532-12.559-27.755-8.045-2.274-16.314,4.357-21.827,10.331a130.4,130.4,0,0,0-28.222,48.492l-1.872,5.87-2.759-5.509c-7.112-14.2-15.942-29.619-30.77-32.777-13.121-2.794-26.012,5.657-32.535,10.944a93.834,93.834,0,0,0-29.9,43.642c-4.1,12.719-4.69,29.319,5.928,37.762l2.573,2.046Z" fill="#6ad1e3"></path>
  </g>
</svg>
