<?xml version="1.0" encoding="UTF-8"?>
<svg xmlns="http://www.w3.org/2000/svg" width="663.801" height="686.03" viewBox="0 0 663.801 686.03">
  <g id="Group_3763" data-name="Group 3763" transform="translate(10645.818 -12991.811)">
    <path id="Path_128434" data-name="Path 128434" d="M2610.794,9861.254q1.846-65.609,3.7-131.218c.056-2,.158-4.136,1.346-5.745,1.087-1.473,2.879-2.217,4.582-2.889a963.243,963.243,0,0,1,124.383-39.521c8.406-2.055,16.983-4.011,25.621-3.5,9.971.6,19.43,4.442,28.578,8.452a639.8,639.8,0,0,1,91.18,49.124c9.025,5.853,18.594,12.9,21.015,23.38,1.089,4.713.577,9.63.059,14.439q-7.246,67.334-14.493,134.668c-.61,5.663-1.351,11.661-4.9,16.116-3.263,4.1-8.361,6.2-13.234,8.124q-56.589,22.348-113.937,42.705c-13.394,4.756-27.669,9.491-41.56,6.479-7.107-1.542-13.615-5.032-20.013-8.489q-46.5-25.124-92.72-50.744c-6.408-3.552-13.307-7.673-15.78-14.568-4.02-11.21,5.648-22.854,5.379-34.76" transform="translate(-12896.34 3495.007)" fill="#703dc1"></path>
    <path id="Path_128435" data-name="Path 128435" d="M2732.341,9985.323a45.578,45.578,0,0,1-9.737-1.021c-7.534-1.633-14.512-5.4-20.667-8.729-30.889-16.69-62.093-33.769-92.744-50.757-7.081-3.925-14.219-8.386-16.916-15.9-2.6-7.255-.2-14.421,2.13-21.353,1.65-4.917,3.208-9.56,3.1-14.189l4.973-.111c.124,5.5-1.649,10.778-3.363,15.883-2.15,6.409-4.181,12.462-2.163,18.092,2.115,5.9,8.135,9.625,14.645,13.233,30.636,16.981,61.825,34.049,92.7,50.731,6.152,3.324,12.513,6.761,19.358,8.246,12.737,2.763,25.745-1.261,40.2-6.392,38.018-13.5,76.325-27.854,113.855-42.675,5.24-2.07,9.466-3.925,12.2-7.361,3.21-4.029,3.855-10.019,4.372-14.832l14.493-134.669c.49-4.553,1-9.262-.009-13.612-2.237-9.684-11.468-16.356-19.946-21.854A638.873,638.873,0,0,0,2798,9689.115c-9.176-4.021-18.2-7.679-27.727-8.246-8.074-.481-16.046,1.267-24.883,3.428a963.728,963.728,0,0,0-124.061,39.42,8.019,8.019,0,0,0-3.5,2.051c-.71.964-.809,2.534-.86,4.339l-3.7,131.219-4.97-.142L2612,9729.967c.057-2.048.135-4.854,1.83-7.153,1.553-2.1,3.934-3.039,5.673-3.724a968.648,968.648,0,0,1,124.7-39.623c9.235-2.259,17.586-4.078,26.361-3.562,10.337.617,20.206,4.614,29.427,8.656a643.719,643.719,0,0,1,91.534,49.316c9.294,6.025,19.432,13.415,22.086,24.906,1.194,5.167.618,10.531.11,15.264l-14.493,134.669c-.587,5.453-1.318,12.238-5.427,17.4-3.78,4.749-9.594,7.044-14.266,8.888-37.584,14.843-75.945,29.221-114.017,42.737-11.662,4.139-22.454,7.584-33.183,7.584" transform="translate(-12896.34 3495.007)" fill="#703dc1"></path>
    <path id="Path_128436" data-name="Path 128436" d="M2726.672,9793.894c-8.043-.393-12.391,9.088-14.573,16.839q-20.294,72.067-46.368,142.337,18.673,10.192,37.387,20.314c6.4,3.457,12.906,6.947,20.012,8.489,13.891,3.013,28.166-1.723,41.561-6.479q57.336-20.353,113.936-42.705c4.874-1.925,9.971-4.025,13.234-8.124,3.548-4.455,4.29-10.453,4.9-16.116l14.493-134.668c.518-4.81,1.03-9.727-.059-14.439a22.526,22.526,0,0,0-.7-2.357l-146.876,17.335Z" transform="translate(-12896.34 3495.007)" fill="#360484"></path>
    <path id="Path_128437" data-name="Path 128437" d="M2732.341,9985.323a45.643,45.643,0,0,1-9.738-1.021c-7.533-1.634-14.511-5.4-20.666-8.73-11.343-6.128-23.574-12.774-37.4-20.32l-1.888-1.031.748-2.017c17.289-46.6,32.867-94.42,46.306-142.146,4.275-15.182,11.122-18.615,16.37-18.663l36.792-19.49.463-.055,148.855-17.568.658,1.882a24.437,24.437,0,0,1,.774,2.62c1.2,5.169.617,10.532.109,15.263l-14.494,134.669c-.586,5.452-1.315,12.236-5.426,17.4-3.781,4.749-9.595,7.044-14.265,8.888-37.586,14.845-75.948,29.223-114.019,42.737-11.66,4.139-22.451,7.585-33.181,7.585m-63.532-33.407c13.046,7.119,24.675,13.437,35.491,19.28,6.152,3.323,12.513,6.762,19.357,8.246,12.742,2.763,25.744-1.26,40.2-6.392,38.017-13.494,76.323-27.853,113.857-42.675,5.24-2.069,9.464-3.925,12.2-7.36,3.21-4.032,3.855-10.021,4.372-14.832l14.493-134.669c.49-4.553,1-9.26-.01-13.613-.016-.067-.031-.136-.049-.2l-144.349,17.037-37.141,19.676-.681-.033c-6.728-.3-10.438,9.275-12.059,15.028-13.281,47.165-28.648,94.428-45.683,140.511" transform="translate(-12896.34 3495.007)" fill="#360484"></path>
    <path id="Path_128439" data-name="Path 128439" d="M2774.847,9786.574c-.172-4.856-.511-10.146-3.757-13.761-2.471-2.754-6.169-3.99-9.7-5.108q-72.56-23-146.629-40.809a19.192,19.192,0,0,0-.276,3.141q-1.846,65.609-3.694,131.217l-10.8,12.058c.268,11.906-9.4,23.55-5.379,34.76,2.473,6.9,9.371,11.017,15.779,14.568q46.224,25.62,92.721,50.745c6.4,3.456,12.906,6.946,20.012,8.488.136.03.273.046.409.075,13.183-17.366,25.951-34.942,34.824-54.778,19.448-43.473,18.17-93,16.484-140.6" transform="translate(-12896.34 3495.007)" fill="#470f9f"></path>
    <rect id="Rectangle_4243" data-name="Rectangle 4243" width="4.138" height="4.973" transform="translate(-10103.371 13428.468) rotate(-26.726)" fill="#f04e98"></rect>
    <g id="Group_3762" data-name="Group 3762" transform="matrix(0.921, -0.391, 0.391, 0.921, -6103.562, -3106.462)">
      <g id="Group_3761" data-name="Group 3761">
        <path id="Path_128438" data-name="Path 128438" d="M2777.332,9786.486c-.2-5.729-.691-11.213-4.391-15.334-3-3.348-7.324-4.718-10.8-5.817-48.049-15.228-97.44-28.974-146.8-40.857l-2.524-.606-.479,2.446q-66.618-15.957-134.158-27.675c16.807,41.675,6.714,89.626-11.764,130.585s-44.9,78.015-62.588,119.32c-27.629,64.517-50.137,128.276-39.856,197.7A1080.054,1080.054,0,0,0,2659.849,10267c-25.11-82.4-11.485-175.723,36.132-247.5,8.059-12.147,17.043-23.732,25.905-35.371.236.055.467.126.7.177.115.027.231.047.441.083l1.539.32.949-1.25c12.8-16.861,26.054-35.017,35.114-55.268,20.126-44.988,18.3-96.367,16.7-141.7" transform="translate(-12896.34 3495.007)" fill="#6ad1e3"></path>
        <path id="Path_128440" data-name="Path 128440" d="M2566.5,10226.247l-3.452-3.58c19.158-18.476,39.063-36.686,59.162-54.125l3.26,3.756c-20.033,17.383-39.874,35.535-58.97,53.949" transform="translate(-12896.34 3495.007)" fill="#f04e98"></path>
        <rect id="Rectangle_4244" data-name="Rectangle 4244" width="69.229" height="4.974" transform="translate(-10315.244 13736.356) rotate(-42.981)" fill="#f04e98"></rect>
        <path id="Path_128441" data-name="Path 128441" d="M2615.073,10256.694l-3.545-3.488c10.141-10.307,19.971-21.164,29.218-32.27l3.822,3.183c-9.335,11.211-19.259,22.17-29.5,32.575" transform="translate(-12896.34 3495.007)" fill="#f04e98"></path>
        <path id="Path_128442" data-name="Path 128442" d="M2637.59,10226.38c-10.9-20.435-22.844-40.632-35.511-60.029l4.164-2.719c12.747,19.52,24.771,39.845,35.736,60.408Z" transform="translate(-12896.34 3495.007)" fill="#f04e98"></path>
        <path id="Path_128443" data-name="Path 128443" d="M2611.693,10249.148c-11.09-11.011-20.437-23.764-29.476-36.1-4.644-6.337-9.447-12.889-14.41-19.1a2.7,2.7,0,0,0-.883-.752,1.2,1.2,0,0,0,1.065-.347l-3.6-3.429a3.764,3.764,0,0,1,2.908-1.172c2.236.1,3.932,2.01,4.4,2.593,5.028,6.29,9.861,12.886,14.536,19.264,8.926,12.18,18.156,24.772,28.969,35.508Z" transform="translate(-12896.34 3495.007)" fill="#f04e98"></path>
        <path id="Path_128454" data-name="Path 128454" d="M2676.938,9881.9a33.35,33.35,0,0,1-9.955-6.769c-2.36,2.06-6.34,2.759-11.372,1.89a577.238,577.238,0,0,1-92.7-24.149,8.873,8.873,0,0,1-4.795,3.551,10.994,10.994,0,0,1-10.555-1.96,14.4,14.4,0,0,1-4.563-9.746,17.808,17.808,0,0,1-6.281,2.358,16.538,16.538,0,0,1-13.16-3.082,15.257,15.257,0,0,1-3.654-4.238,13.484,13.484,0,0,1-10.6,3.056,9.145,9.145,0,0,1-7.152-5.164l4.531-2.05a4.239,4.239,0,0,0,3.39,2.3,8.3,8.3,0,0,0,7.085-2.4,11.566,11.566,0,0,0,.764-.943,18.623,18.623,0,0,1-.348-2.682,16.538,16.538,0,0,1,4.593-12.713l4.732-4.71-.5,6.658c-.313,4.188-.719,9.6-3.115,14.191a10.72,10.72,0,0,0,3.365,4.8,12.295,12.295,0,0,0,17.183-3l7.869-12.7-3.331,14.566c-.881,3.855-.692,8.971,2.481,11.771a6.11,6.11,0,0,0,5.714.964,3.6,3.6,0,0,0,2.559-2.473l.6-2.765,2.665.949a572.25,572.25,0,0,0,94.076,24.71c2.608.453,7.188.61,7.816-1.662l1.268-4.595,3.042,3.67a28.35,28.35,0,0,0,10.354,7.813Z" transform="translate(-12896.34 3495.007)" fill="#fff"></path>
        <path id="Path_128455" data-name="Path 128455" d="M2635.872,9957.39A424.621,424.621,0,0,1,2553.2,9936.1l-.761-.279c-4.375-1.617-8.507-3.144-12.83-3.541-1.278-.118-2.579-.137-3.957-.158a31.257,31.257,0,0,1-8.058-.834,12.638,12.638,0,0,1-7.909-6.3c-4.917,2.911-11.306,4.219-16.876,1.412a12.982,12.982,0,0,1-6.367-7.976,24.034,24.034,0,0,1-7.625,3.7c-6.848,1.948-14.007.8-19.142-3.054l2.986-3.978c3.9,2.933,9.433,3.772,14.8,2.247a18.3,18.3,0,0,0,8.79-5.419,9.68,9.68,0,0,1,3.4-5.31l7.2-5.667-3.342,8.526a19.2,19.2,0,0,1-2.588,4.587,7.589,7.589,0,0,0,.008,1.465,8.256,8.256,0,0,0,4.124,6.439c4.85,2.447,11.013.1,14.688-3.113l4.827-4.22-.719,6.371c-.277,2.448,2.423,4.76,5.082,5.5a27.116,27.116,0,0,0,6.8.653c1.411.021,2.871.043,4.34.178,4.974.458,9.612,2.171,14.1,3.828l.756.279a419.716,419.716,0,0,0,81.7,21.035Z" transform="translate(-12896.34 3495.007)" fill="#fff"></path>
        <path id="Path_128456" data-name="Path 128456" d="M2510.651,9988.966a438.324,438.324,0,0,0-46.826-11.487l.916-4.889a443.981,443.981,0,0,1,47.359,11.618Z" transform="translate(-12896.34 3495.007)" fill="#fff"></path>
        <path id="Path_128457" data-name="Path 128457" d="M2405.783,10111.71l-12.485-11.334.972-1.728a58.691,58.691,0,0,1,8.839-11.854,18.839,18.839,0,0,1-8.735-3.129l-2.428-1.653,2.032-2.121a69.085,69.085,0,0,1,20.318-14.625,10.453,10.453,0,0,1-3.269-2.282,8.441,8.441,0,0,1-1.194-9.313,5.842,5.842,0,0,1,5.994-3.5l-.561,4.941c-.152-.015-.566-.064-.974.76a3.528,3.528,0,0,0,.317,3.662c2,2.075,5.666,2.206,9.239,2.161l16.973-.211-16.2,5.07a64.1,64.1,0,0,0-24.693,14.438,14.006,14.006,0,0,0,9.711.12l14.574-5.313-12.183,9.6a53.765,53.765,0,0,0-12.427,13.984l9.52,8.643Z" transform="translate(-12896.34 3495.007)" fill="#fff"></path>
        <path id="Path_128467" data-name="Path 128467" d="M2536.8,10214.121l-3.472-3.563a12.471,12.471,0,0,0,3.735-8.539l4.97.129a17.488,17.488,0,0,1-5.233,11.974" transform="translate(-12896.34 3495.007)" fill="#f04e98"></path>
        <path id="Path_128468" data-name="Path 128468" d="M2543,10191.67c-.276,0-.553-.013-.828-.037l.447-4.953a4.709,4.709,0,0,0,3.583-1.243l3.42,3.611a9.735,9.735,0,0,1-6.622,2.622" transform="translate(-12896.34 3495.007)" fill="#f04e98"></path>
        <rect id="Rectangle_4251" data-name="Rectangle 4251" width="2.617" height="4.973" transform="translate(-10344.6 13701.811) rotate(-45.002)" fill="#f04e98"></rect>
        <path id="Path_128469" data-name="Path 128469" d="M2610.68,10142.864l-3.336-3.688a20.013,20.013,0,0,1,7.4-4.229l1.484,4.746a15.025,15.025,0,0,0-5.55,3.172" transform="translate(-12896.34 3495.007)" fill="#f04e98"></path>
        <path id="Path_128470" data-name="Path 128470" d="M2623.049,10152.661l-4.02-2.928a25.471,25.471,0,0,0,4.212-9.265l4.85,1.1a30.475,30.475,0,0,1-5.042,11.089" transform="translate(-12896.34 3495.007)" fill="#f04e98"></path>
        <path id="Path_128471" data-name="Path 128471" d="M2638.357,10117.714a3.183,3.183,0,0,0-3.619-1.86l-1.375-4.779a8.154,8.154,0,0,1,9.68,4.976Z" transform="translate(-12896.34 3495.007)" fill="#f04e98"></path>
      </g>
      <rect id="Rectangle_4245" data-name="Rectangle 4245" width="4.973" height="20.632" transform="matrix(0.337, -0.942, 0.942, 0.337, -10345.504, 13493.494)" fill="#fff"></rect>
    </g>
    <path id="Path_128458" data-name="Path 128458" d="M2815.591,9941.05l-3.842-3.156c18.051-21.97,35.325-45.031,51.343-68.543l4.109,2.8c-16.1,23.633-33.464,46.813-51.61,68.9" transform="translate(-12896.34 3495.007)" fill="#f04e98"></path>
    <path id="Path_128459" data-name="Path 128459" d="M2842.358,9935.817l-3.512-3.521a256.562,256.562,0,0,0,30.727-37.036l4.109,2.8a261.472,261.472,0,0,1-31.324,37.757" transform="translate(-12896.34 3495.007)" fill="#f04e98"></path>
    <path id="Path_128460" data-name="Path 128460" d="M2870.114,9927.485a369.36,369.36,0,0,1-37.955-35.646l3.652-3.375a364.388,364.388,0,0,0,37.442,35.164Z" transform="translate(-12896.34 3495.007)" fill="#f04e98"></path>
    <path id="Path_128461" data-name="Path 128461" d="M2875.314,9912.284a390.008,390.008,0,0,0-28.978-31.689l3.479-3.553a395.037,395.037,0,0,1,29.349,32.094Z" transform="translate(-12896.34 3495.007)" fill="#f04e98"></path>
    <rect id="Rectangle_4246" data-name="Rectangle 4246" width="4.974" height="34.043" transform="matrix(0.671, -0.742, 0.742, 0.671, -10086.336, 13399.123)" fill="#f04e98"></rect>
    <path id="Path_128462" data-name="Path 128462" d="M2873.412,9855.872l-4.773-1.391a9.343,9.343,0,0,1,8.647-6.592l.076,4.974a4.382,4.382,0,0,0-3.95,3.009" transform="translate(-12896.34 3495.007)" fill="#f04e98"></path>
    <rect id="Rectangle_4247" data-name="Rectangle 4247" width="8.53" height="4.973" transform="translate(-10016.361 13362.314) rotate(-49.316)" fill="#f04e98"></rect>
    <path id="Path_128463" data-name="Path 128463" d="M2741.781,9688.364l-.691-4.924,14.447-2.03c9.831-1.381,20.973-2.948,31.6-.743l-1.009,4.869c-9.784-2.029-20.012-.592-29.905.8Z" transform="translate(-12896.34 3495.007)" fill="#6ad1e3"></path>
    <path id="Path_128464" data-name="Path 128464" d="M2744.416,9706l-.93-4.885c13.246-2.519,26.758-4.6,40.159-6.182l.584,4.939c-13.287,1.568-26.681,3.631-39.813,6.127" transform="translate(-12896.34 3495.007)" fill="#6ad1e3"></path>
    <rect id="Rectangle_4248" data-name="Rectangle 4248" width="30.289" height="4.972" transform="matrix(0.984, -0.18, 0.18, 0.984, -10137.021, 13215.078)" fill="#6ad1e3"></rect>
    <path id="Path_128465" data-name="Path 128465" d="M2780.061,9728.055a412.445,412.445,0,0,0-13.191-47.969l4.707-1.607a417.3,417.3,0,0,1,13.35,48.552Z" transform="translate(-12896.34 3495.007)" fill="#6ad1e3"></path>
    <path id="Path_128466" data-name="Path 128466" d="M2801.8,9719.845a110.488,110.488,0,0,1-4.647-32.194l4.973.021a105.453,105.453,0,0,0,4.438,30.748Z" transform="translate(-12896.34 3495.007)" fill="#6ad1e3"></path>
    <rect id="Rectangle_4249" data-name="Rectangle 4249" width="4.973" height="7.905" transform="translate(-10073.895 13202.87) rotate(-19.861)" fill="#6ad1e3"></rect>
    <rect id="Rectangle_4250" data-name="Rectangle 4250" width="12.027" height="4.973" transform="translate(-10177.227 13200.534)" fill="#6ad1e3"></rect>
  </g>
</svg>
