<?xml version="1.0" encoding="UTF-8"?>
<svg xmlns="http://www.w3.org/2000/svg" width="376.369" height="398.242" viewBox="0 0 376.369 398.242">
  <g id="Group_3764" data-name="Group 3764" transform="translate(10712.677 -10905.283)">
    <path id="Path_127803" data-name="Path 127803" d="M8255.518,6737.441c-25.487,4.408-50.3,12.246-74.273,21.949-27.155,10.987-53.909,24.815-73.933,46.195s-32.489,51.506-26.853,80.252c5.606,28.606,28.465,51.817,55.242,63.34s56.982,12.683,85.947,9.4a298.8,298.8,0,0,0,110.405-35.218c5.242-2.9,10.6-6.015,16.559-6.627,3.96-.407,7.938.33,11.852,1.063L8402,6925.57l-28.167-22.033c40.443-28.93,53.085-90.352,27.354-132.9s-92.426-48.072-148.426-32.072" transform="translate(-18753.832 4229.486)" fill="#6ad1e3"></path>
    <rect id="Rectangle_3996" data-name="Rectangle 3996" width="335.45" height="229.86" transform="translate(-10674.734 10959.796)" fill="none"></rect>
    <path id="Path_127826" data-name="Path 127826" d="M8194.554,6963.19c-22.743,0-42.545-3.73-60.038-11.257-29.747-12.8-51.589-37.905-57-65.518-5.42-27.651,4.9-58.634,27.608-82.88,22.159-23.661,51.72-37.507,75-46.926,26.642-10.781,51.137-18.017,74.888-22.123l.055.323c28.694-7.745,58.32-9.569,83.776-5.121,30.057,5.253,52.5,18.875,64.913,39.4,12.649,20.92,16.846,47.788,11.509,73.716-5.047,24.52-18.261,46.448-36.5,60.787l34.767,27.2-53.616-10.043c-3.653-.685-7.432-1.391-10.992-1.027-5.027.516-9.877,3.2-14.567,5.8l-.847.469a303.576,303.576,0,0,1-111.519,35.572,243.52,243.52,0,0,1-27.432,1.636m58.861-222.328c-22.513,4.1-45.783,11.086-71.046,21.308-22.706,9.189-51.51,22.661-72.868,45.466-21.393,22.843-31.149,51.861-26.1,77.624,5.037,25.7,25.532,49.133,53.485,61.161,23.2,9.984,50.814,12.983,84.423,9.172A297.532,297.532,0,0,0,8330.6,6920.73l.84-.465c5.218-2.891,10.614-5.88,16.862-6.522,4.424-.453,8.828.371,12.712,1.1l29.446,5.516-21.643-16.928,3.263-2.333c18.669-13.354,32.265-35.043,37.3-59.507s1.11-49.76-10.768-69.4c-11.483-18.992-32.513-31.644-60.811-36.59-25.507-4.458-55.418-2.381-84.223,5.85Z" transform="translate(-18753.832 4229.486)" fill="#6ad1e3"></path>
    <path id="Path_127824" data-name="Path 127824" d="M8677,6411.276c-40.581-9.477-96.836-13.672-136.118.236s-72.765,51.121-70.694,92.742c.468,9.445,2.767,18.934,7.721,26.989,4.75,7.721,11.719,13.819,18.97,19.26a188.394,188.394,0,0,0,66.168,31.733l-30.392,27.814c11.416-2.408,20.859-10.127,31.269-15.4,44.337-22.438,100.306,1.365,146.708-16.416,38.033-14.575,62-58.894,53.374-98.7s-48.788-70.231-89.444-67.754" transform="translate(-19182.275 4503.219)" fill="#703dc1"></path>
    <path id="Path_127825" data-name="Path 127825" d="M8530.971,6610.918l31.06-28.428a190.035,190.035,0,0,1-65.45-31.587c-6.193-4.649-13.963-11.055-19.093-19.4-4.585-7.454-7.282-16.868-7.8-27.226-.988-19.844,5.911-39.59,19.949-57.1a115.742,115.742,0,0,1,51.078-36.137c18-6.374,41.438-9.457,67.748-8.916a342.145,342.145,0,0,1,68.648,8.665l-.089.384c40.057-1.132,78.962,29,87.47,68.258,8.684,40.07-15.4,84.6-53.683,99.274-22.078,8.459-46.608,7.535-70.326,6.644-26.112-.984-53.118-2-76.336,9.752-3.3,1.667-6.555,3.619-9.707,5.5-6.793,4.068-13.818,8.273-21.682,9.933Zm72.914-207.9c-26.631,0-48.283,3.814-62.832,8.965-36.6,12.958-72.522,48.805-70.363,92.245.507,10.19,3.151,19.441,7.648,26.752,5.043,8.2,12.72,14.526,18.843,19.122a188.982,188.982,0,0,0,65.991,31.649l.9.229-29.648,27.135c6.967-1.856,13.335-5.669,19.511-9.367,3.167-1.9,6.44-3.855,9.769-5.54,23.451-11.867,50.59-10.847,76.825-9.858,23.626.889,48.048,1.808,69.93-6.579,37.843-14.5,61.648-58.521,53.067-98.128s-48.486-69.823-88.928-67.36l-.062-1,.224-.014a321.67,321.67,0,0,0-70.871-8.253" transform="translate(-19182.275 4503.219)" fill="#703dc1"></path>
    <path id="Path_127828" data-name="Path 127828" d="M8591.185,6653.49c-34.415-3.447-69.933-6.793-102.968,3.453-9.17,2.843-18.268,6.879-24.939,13.783-5.528,5.72-9.074,13.11-11.354,20.731a77.448,77.448,0,0,0,57.285,97.764c3.705.829,7.583,1.43,10.774,3.49a26.8,26.8,0,0,1,6.172,6.289l15.354,19.563a70.361,70.361,0,0,1-7.078-25.176c33.933,5.531,71.55-8.319,89.868-37.411s24.786-90.854-35.214-103.854" transform="translate(-19063.078 4484.962)" fill="#f04e98"></path>
  </g>
</svg>
