<?xml version="1.0" encoding="UTF-8"?>
<svg xmlns="http://www.w3.org/2000/svg" width="453.002" height="417.469" viewBox="0 0 453.002 417.469">
  <g id="Group_3542" data-name="Group 3542" transform="translate(-7169.511 2768.409)">
    <g id="Group_3540" data-name="Group 3540" transform="translate(7169.511 -2768.409)">
      <path id="Path_126483" data-name="Path 126483" d="M7620.327-2581.093a60.124,60.124,0,0,0-31.271-44.826,60.124,60.124,0,0,0-54.656,0c9.431-9.708,5.677-27.584-5.493-35.226-7.821-5.35-17.8-6.259-27.12-4.025a63.148,63.148,0,0,0,1.96-11.978c1.9-29.4-14.288-58.969-39.52-74.177s-58.288-15.913-84.674-2.812-45.6,39.275-51.337,68.172a34.987,34.987,0,0,0-21.959-24.793,34.988,34.988,0,0,0-32.693,5.294c-7.932,6.205-12.73,15.54-16.569,24.85-6.785,16.457-10.929,36.192-3.993,51.922a40.109,40.109,0,0,0-6.845.838,105.734,105.734,0,0,0-62.441,39.307c-6.2,8.175-11.354,18.666-8.143,28.408,3.039,9.217,12.484,14.563,21.419,18.35,46.855,19.861,99.354,20.461,150.237,19.536,70.527-1.282,141.17-6.14,211.244-13.27C7585.388-2538.265,7624.844-2546.094,7620.327-2581.093Z" transform="translate(-7171.139 2766.8)" fill="#59cbe8"></path>
      <path id="Path_126484" data-name="Path 126484" d="M7321.1-2520.149c-44.331,0-87.256-3.183-127.09-20.066-8.99-3.811-19.771-9.582-23.355-20.451-3.027-9.187-.031-20.109,8.673-31.586a109.572,109.572,0,0,1,64.5-40.6c.923-.19,1.828-.348,2.71-.48-5.342-17.014-.062-36.425,5.621-50.209,3.75-9.1,8.777-19.322,17.641-26.255a38.609,38.609,0,0,1,35.984-5.828,38.607,38.607,0,0,1,20.083,16.94c8.173-25.927,26.836-48.4,50.514-60.159,27.684-13.748,62.216-12.589,88,2.946,26.589,16.028,43.141,47.118,41.185,77.363a65.592,65.592,0,0,1-.913,7.437c9.13-1.088,17.722.8,24.573,5.49a29.361,29.361,0,0,1,12.217,21.211,26.375,26.375,0,0,1-.794,9.845,63.59,63.59,0,0,1,48.375,3.959,63.447,63.447,0,0,1,33.1,47.452h0c1.361,10.572-.919,19.684-6.787,27.08-12.722,16.041-39.28,20.45-58.149,22.373-76.039,7.734-145.229,12.082-211.53,13.285C7337.438-2520.258,7329.245-2520.149,7321.1-2520.149Zm-27.789-190.685a31.463,31.463,0,0,0-19.244,6.48c-7.6,5.943-12.1,15.187-15.5,23.444-5.669,13.754-10.97,33.455-4.027,49.209l2.078,4.709-5.148.146a36.861,36.861,0,0,0-6.251.767,102.563,102.563,0,0,0-60.372,38.009c-5.068,6.68-10.5,16.485-7.615,25.235,2.713,8.23,11.839,13.007,19.487,16.247,45.892,19.455,96.588,20.211,148.82,19.262,66.109-1.2,135.113-5.534,210.956-13.251,10.156-1.034,41.053-4.179,53.433-19.785,4.727-5.963,6.474-13.126,5.341-21.9h0a56.41,56.41,0,0,0-29.44-42.2,56.388,56.388,0,0,0-51.453,0l-19.068,9.947,14.987-15.427c3.3-3.4,4.821-8.291,4.271-13.768a22.682,22.682,0,0,0-9.237-16.19c-6.436-4.4-15.314-5.686-24.359-3.517l-5.629,1.348,1.477-5.595a59.522,59.522,0,0,0,1.853-11.318c1.794-27.735-13.417-56.264-37.854-70.991-23.8-14.349-55.729-15.4-81.35-2.676-24.921,12.376-43.881,37.566-49.479,65.747l-3.18,16-3.588-15.917a31.564,31.564,0,0,0-19.748-22.295A30.234,30.234,0,0,0,7293.313-2710.834Z" transform="translate(-7169.511 2768.409)" fill="#59cbe8"></path>
    </g>
    <path id="Path_126485" data-name="Path 126485" d="M7280.553-2413.958a770.031,770.031,0,0,0,215.846,72.933c-21.486-57.531-15.888-124.542,14.845-177.712,13.278-22.971,31.016-43.6,40.339-68.437,11.931-31.79,8.846-66.979,5.557-100.774-.335-3.448-.81-7.2-3.277-9.627-1.879-1.851-4.566-2.568-7.124-3.209a1536.167,1536.167,0,0,0-204.566-36.711c13.789,28.917,8.712,63.483-2.639,93.443s-28.524,57.487-39.3,87.657c-16.83,47.123-30.046,93.485-19.682,142.438" transform="translate(-34.439 -9.915)" fill="#f04e98"></path>
    <g id="Group_3541" data-name="Group 3541" transform="translate(7248.841 -2744.826)">
      <path id="Path_126486" data-name="Path 126486" d="M7556.682-2584.228c7.968-21.23,9.225-43.977,8.211-66.812-7.5-4.285-16.619-4.94-25.2-2.882a63.069,63.069,0,0,0,1.961-11.978,78.179,78.179,0,0,0-6.511-35.967q-68.732-16.39-138.77-26.444a99.784,99.784,0,0,0-30.25,53.593,34.765,34.765,0,0,0-10.592-17.89c-.409,17.429-4.706,35.15-10.9,51.5-11.351,29.959-28.522,57.488-39.3,87.658-4.6,12.872-8.9,25.687-12.55,38.513,30.31,4.461,61.623,4.49,92.354,3.932,44.039-.8,88.123-3,132.084-6.268C7530.395-2539.65,7547.56-2559.925,7556.682-2584.228Z" transform="translate(-7288.378 2731.965)" fill="#703dc1"></path>
      <path id="Path_126487" data-name="Path 126487" d="M7359.241-2509.018c-22.221,0-46.006-.831-69.041-4.224l-3.9-.574,1.078-3.794c3.233-11.369,7.244-23.674,12.619-38.729,5.7-15.971,13.257-31.377,20.565-46.273,6.588-13.43,13.4-27.316,18.755-41.448,6.716-17.718,10.308-34.658,10.679-50.355l.18-7.578,5.608,5.1a39.423,39.423,0,0,1,7.541,9.331,103.351,103.351,0,0,1,28.634-45.023l1.206-1.1,1.621.229c46.342,6.629,93.135,15.545,139.084,26.5l1.682.4.689,1.592a81.912,81.912,0,0,1,6.788,37.563,65.113,65.113,0,0,1-.916,7.447,36.476,36.476,0,0,1,22.417,4.186l1.655.946.085,1.905c1.254,28.275-1.345,49.3-8.426,68.18h0c-6.213,16.549-16.13,31.36-25.718,45.685-4.744,7.085-9.646,14.41-14,21.809l-.916,1.561-1.808.135c-45.7,3.4-90.2,5.511-132.274,6.278C7375.456-2509.132,7367.452-2509.018,7359.241-2509.018Zm-64.1-10.518c29.84,4,60.905,3.835,87.856,3.345,41.4-.753,85.154-2.811,130.093-6.125,4.213-7.028,8.821-13.913,13.291-20.589,9.369-13.994,19.056-28.468,24.985-44.267,6.574-17.521,9.081-37.157,8.074-63.457-6.047-2.881-13.43-3.473-21.015-1.655l-5.629,1.348,1.477-5.595a59.522,59.522,0,0,0,1.853-11.318,74.682,74.682,0,0,0-5.568-32.786c-44.652-10.6-90.091-19.251-135.11-25.741a96.117,96.117,0,0,0-28.009,50.608l-3.182,16.014-3.586-15.93a30.167,30.167,0,0,0-4.257-9.909,168.127,168.127,0,0,1-10.622,43.986c-5.474,14.437-12.355,28.471-19.015,42.043-7.223,14.724-14.693,29.952-20.265,45.551C7301.785-2540.777,7298.13-2529.7,7295.137-2519.535Z" transform="translate(-7286.298 2733.691)" fill="#703dc1"></path>
    </g>
    <path id="Path_126488" data-name="Path 126488" d="M7532.128-2578.454a25.4,25.4,0,0,1-6.845-3.811,12.748,12.748,0,0,1-8.153,1.368,413.226,413.226,0,0,1-66.159-12.845,8.334,8.334,0,0,1-3.311,2.358,9.575,9.575,0,0,1-9.262-1.166,11.326,11.326,0,0,1-3.754-5.473,14.842,14.842,0,0,1-2.858,1,13.484,13.484,0,0,1-10.858-1.871,12.3,12.3,0,0,1-2.084-1.845,11.259,11.259,0,0,1-7.3,1.926,8.176,8.176,0,0,1-6.651-4.25L7411-2606.3a1.374,1.374,0,0,0,1.18.6,4.247,4.247,0,0,0,3.459-1.392s0,0,0-.007c-.092-.439-.165-.889-.22-1.342a13.489,13.489,0,0,1,3.122-10.568l6.169-6.946-.122,9.288c-.04,2.953-.087,6.7-1.429,10.163a5.778,5.778,0,0,0,1.72,1.936,6.558,6.558,0,0,0,5.291.818,6.575,6.575,0,0,0,4.352-3.115l9.821-18.3-3.358,20.5c-.361,2.2-.145,5.261,1.655,6.663a2.741,2.741,0,0,0,2.45.2c.1-.041.618-.26.665-.554l.592-3.895,3.787,1.091a405.6,405.6,0,0,0,67.748,13.4c2.206.244,3.5-.155,3.757-.375l1.368-6.49,4.436,5.014a18.517,18.517,0,0,0,7.062,4.679Z" transform="translate(-75.494 -45.688)" fill="#fff"></path>
    <path id="Path_126489" data-name="Path 126489" d="M7497.688-2493.78a304.853,304.853,0,0,1-60.1-11.582l-.577-.173a35.113,35.113,0,0,0-8.825-1.879c-.9-.026-1.8.014-2.7.058a23.964,23.964,0,0,1-6.2-.274,11.131,11.131,0,0,1-6.014-3.531,13.837,13.837,0,0,1-12.153,1.041,10.677,10.677,0,0,1-4.858-4.382,19.01,19.01,0,0,1-4.058,1.993,17.375,17.375,0,0,1-15.244-1.517l3.8-5.778a10.459,10.459,0,0,0,9.143.767,11.453,11.453,0,0,0,5.007-3.385,8.531,8.531,0,0,1,2.632-4.453l9.51-8.49-3.912,12.133a15.3,15.3,0,0,1-1.547,3.334c.01.108.021.206.037.294a4.21,4.21,0,0,0,2.216,3.125c2.849,1.219,6.383-.45,8.468-2.511l6.345-6.277-.457,8.916c-.034.628,1.122,1.655,2.521,1.949a17.6,17.6,0,0,0,4.439.131c1.082-.047,2.169-.091,3.227-.064a40.963,40.963,0,0,1,10.612,2.169l.572.172a297.532,297.532,0,0,0,58.733,11.318Z" transform="translate(-66.535 -74.744)" fill="#fff"></path>
    <path id="Path_126490" data-name="Path 126490" d="M7409.309-2439.146a310.291,310.291,0,0,0-33.641-6.085l.852-6.865a317.591,317.591,0,0,1,34.4,6.22Z" transform="translate(-66.121 -101.451)" fill="#fff"></path>
    <rect id="Rectangle_3660" data-name="Rectangle 3660" width="6.922" height="14.711" transform="matrix(0.278, -0.96, 0.96, 0.278, 7372.125, -2535.606)" fill="#fff"></rect>
    <path id="Path_126491" data-name="Path 126491" d="M7527.328-2410.731" transform="translate(-114.763 -114.718)" fill="none" stroke="#fff" stroke-miterlimit="10" stroke-width="2"></path>
    <path id="Path_126492" data-name="Path 126492" d="M7358.394-2354.805l-10.433-8.358,1.2-2.48a43.6,43.6,0,0,1,4.139-6.834,14.694,14.694,0,0,1-4.068-1.649l-3.513-2.088,2.638-3.119a50.876,50.876,0,0,1,11.8-10.22c-.087-.074-.172-.152-.26-.229a7.632,7.632,0,0,1-1.672-8.467,5.909,5.909,0,0,1,5.753-3.791l-.351,6.912a1.48,1.48,0,0,0,.983-.459,1.079,1.079,0,0,0,.014.757c.97.885,3.274.794,5.362.646l23.519-1.736-22.032,8.419a43.97,43.97,0,0,0-13.849,8.518,7.917,7.917,0,0,0,2.555-.625l19.771-8.612-16.086,14.366a36.556,36.556,0,0,0-7.183,8.815l6.038,4.838Z" transform="translate(-56.516 -117.503)" fill="#fff"></path>
  </g>
</svg>
