<?xml version="1.0" encoding="UTF-8"?>
<svg xmlns="http://www.w3.org/2000/svg" width="73" height="73" viewBox="0 0 73 73">
  <g id="Group_3582" data-name="Group 3582" transform="translate(19844 8609)">
    <rect id="Rectangle_3667" data-name="Rectangle 3667" width="73" height="73" transform="translate(-19844 -8609)" fill="none"></rect>
    <g id="Group_3565" data-name="Group 3565" transform="translate(-19835 -8591)">
      <rect id="Rectangle_2880" data-name="Rectangle 2880" width="40.696" height="30.522" transform="translate(12.717 2.544)" fill="#fff"></rect>
      <g id="Group_2777" data-name="Group 2777" transform="translate(5.087 5.088)">
        <g id="Group_2776" data-name="Group 2776">
          <rect id="Rectangle_2881" data-name="Rectangle 2881" width="7.63" height="5.087" fill="#dd509a"></rect>
        </g>
      </g>
      <g id="Group_2779" data-name="Group 2779" transform="translate(0 15.262)">
        <g id="Group_2778" data-name="Group 2778">
          <rect id="Rectangle_2882" data-name="Rectangle 2882" width="12.717" height="5.087" fill="#dd509a"></rect>
        </g>
      </g>
      <g id="Group_2781" data-name="Group 2781" transform="translate(2.543 25.436)">
        <g id="Group_2780" data-name="Group 2780">
          <rect id="Rectangle_2883" data-name="Rectangle 2883" width="10.174" height="5.087" fill="#dd509a"></rect>
        </g>
      </g>
      <g id="Group_2782" data-name="Group 2782" transform="translate(10.175)">
        <path id="Path_125015" data-name="Path 125015" d="M33.005,1264.092H-12.777v-35.609H33.005Zm-40.7-5.087H27.919v-25.435H-7.69Z" transform="translate(12.777 -1228.484)" fill="#6ad2f1"></path>
      </g>
      <g id="Group_2783" data-name="Group 2783" transform="translate(15.261 5.088)">
        <path id="Path_125016" data-name="Path 125016" d="M-10.777,1230.484l17.8,12.718,17.8-12.718Z" transform="translate(10.777 -1230.484)" fill="#703dc1"></path>
      </g>
    </g>
    <g id="Group_3568" data-name="Group 3568" transform="translate(-19835 -8591)">
      <rect id="Rectangle_2880-2" data-name="Rectangle 2880" width="40.696" height="30.522" transform="translate(12.717 2.544)" fill="#fff"></rect>
      <g id="Group_2777-2" data-name="Group 2777" transform="translate(5.087 5.088)">
        <g id="Group_2776-2" data-name="Group 2776">
          <rect id="Rectangle_2881-2" data-name="Rectangle 2881" width="7.63" height="5.087" fill="#dd509a"></rect>
        </g>
      </g>
      <g id="Group_2779-2" data-name="Group 2779" transform="translate(0 15.262)">
        <g id="Group_2778-2" data-name="Group 2778">
          <rect id="Rectangle_2882-2" data-name="Rectangle 2882" width="12.717" height="5.087" fill="#dd509a"></rect>
        </g>
      </g>
      <g id="Group_2781-2" data-name="Group 2781" transform="translate(2.543 25.436)">
        <g id="Group_2780-2" data-name="Group 2780">
          <rect id="Rectangle_2883-2" data-name="Rectangle 2883" width="10.174" height="5.087" fill="#dd509a"></rect>
        </g>
      </g>
      <g id="Group_2782-2" data-name="Group 2782" transform="translate(10.175)">
        <path id="Path_125015-2" data-name="Path 125015" d="M33.005,1264.092H-12.777v-35.609H33.005Zm-40.7-5.087H27.919v-25.435H-7.69Z" transform="translate(12.777 -1228.484)" fill="#6ad2f1"></path>
      </g>
      <g id="Group_2783-2" data-name="Group 2783" transform="translate(15.261 5.088)">
        <path id="Path_125016-2" data-name="Path 125016" d="M-10.777,1230.484l17.8,12.718,17.8-12.718Z" transform="translate(10.777 -1230.484)" fill="#703dc1"></path>
      </g>
    </g>
  </g>
</svg>
