<?xml version="1.0" encoding="UTF-8"?>
<svg xmlns="http://www.w3.org/2000/svg" width="27.753" height="27.754" viewBox="0 0 27.753 27.754">
  <g id="Group_3106" data-name="Group 3106" transform="translate(-241 -1942)">
    <path id="Path_124987" data-name="Path 124987" d="M358.233-71.878a13.892,13.892,0,0,1-13.877-13.877,13.892,13.892,0,0,1,13.877-13.877,13.892,13.892,0,0,1,13.877,13.877A13.892,13.892,0,0,1,358.233-71.878Zm0-25.554a11.69,11.69,0,0,0-11.677,11.677,11.69,11.69,0,0,0,11.677,11.677,11.69,11.69,0,0,0,11.677-11.677A11.69,11.69,0,0,0,358.233-97.432Z" transform="translate(-103.356 2041.632)" fill="#360484"></path>
    <path id="Path_124988" data-name="Path 124988" d="M368.094-67.69a1.1,1.1,0,0,1-.85-.4l-2.771-3.375a1.1,1.1,0,0,1,.152-1.548,1.1,1.1,0,0,1,1.548.152l1.7,2.071a38.878,38.878,0,0,1,7.358-10.163,1.1,1.1,0,0,1,1.555.037,1.1,1.1,0,0,1-.037,1.555,38.392,38.392,0,0,0-7.666,11.054,1.1,1.1,0,0,1-.861.611A1.082,1.082,0,0,1,368.094-67.69Z" transform="translate(-115.939 2029.996)" fill="#360484"></path>
  </g>
</svg>
