<?xml version="1.0" encoding="UTF-8"?>
<svg xmlns="http://www.w3.org/2000/svg" width="964.945" height="810.041" viewBox="0 0 964.945 810.041">
  <g id="Group_3226" data-name="Group 3226" transform="translate(-1410.637 -6502.953)">
    <path id="Path_126275" data-name="Path 126275" d="M2124.76,7097.579l-4.239-1.031a1079.636,1079.636,0,0,1-296.552-121.023l-1.016-.6-.174-1.169c-10.719-72.391,13.9-138.024,40.03-199.045,9.31-21.738,21.184-42.59,32.668-62.755,10.411-18.281,21.175-37.183,29.939-56.609,15.319-33.958,29.79-83.84,11.726-128.633l-1.671-4.142,4.4.762a2163.827,2163.827,0,0,1,283.535,69.143c3.47,1.1,7.788,2.466,10.8,5.816,3.7,4.122,4.188,9.606,4.391,15.334,1.606,45.332,3.427,96.712-16.7,141.7-10.007,22.37-25.08,42.126-39.656,61.232-7.76,10.172-15.785,20.689-22.924,31.451-23.162,34.915-38.706,75.979-44.95,118.754s-3.09,86.568,9.124,126.648Zm-297.231-125.724a1074.746,1074.746,0,0,0,289.966,118.83,297.962,297.962,0,0,1-8.053-124.645c6.351-43.5,22.163-85.262,45.728-120.785,7.229-10.9,15.305-21.482,23.114-31.718,14.4-18.88,29.3-38.4,39.07-60.246,19.655-43.934,17.856-94.7,16.268-139.492-.169-4.778-.535-9.306-3.121-12.188-1.946-2.168-4.916-3.232-8.6-4.4a2158.886,2158.886,0,0,0-278.577-68.233c16.273,45.31,1.876,94.6-13.378,128.408-8.86,19.638-19.683,38.644-30.15,57.025-11.415,20.045-23.22,40.772-32.418,62.251C1841.67,6836.7,1817.438,6901.208,1827.529,6971.855Z" fill="#6ad1e3"></path>
    <g id="Group_3221" data-name="Group 3221">
      <path id="Path_126276" data-name="Path 126276" d="M2072.055,6688.391l3.7-131.217c.056-2,.158-4.137,1.346-5.746,1.087-1.473,2.879-2.217,4.583-2.888a963.33,963.33,0,0,1,124.382-39.521c8.406-2.056,16.983-4.011,25.621-3.5,9.971.6,19.43,4.442,28.578,8.452a639.8,639.8,0,0,1,91.18,49.124c9.025,5.852,18.594,12.9,21.015,23.38,1.089,4.713.577,9.63.059,14.439q-7.246,67.335-14.493,134.669c-.609,5.662-1.351,11.66-4.9,16.115-3.263,4.1-8.361,6.2-13.234,8.125q-56.587,22.347-113.936,42.705c-13.4,4.755-27.67,9.492-41.561,6.478-7.106-1.541-13.615-5.032-20.012-8.488q-46.5-25.124-92.721-50.745c-6.408-3.551-13.307-7.673-15.78-14.569-4.02-11.209,5.648-22.853,5.379-34.758" fill="#fff"></path>
      <path id="Path_126277" data-name="Path 126277" d="M2193.6,6812.461a45.644,45.644,0,0,1-9.738-1.022c-7.534-1.633-14.511-5.4-20.667-8.73-30.888-16.69-62.093-33.768-92.744-50.757-7.08-3.924-14.219-8.385-16.916-15.9-2.6-7.254-.2-14.421,2.131-21.352,1.649-4.917,3.208-9.56,3.1-14.19l4.973-.111c.124,5.5-1.648,10.778-3.362,15.883-2.151,6.409-4.182,12.462-2.163,18.091,2.115,5.9,8.135,9.625,14.644,13.234,30.637,16.981,61.825,34.049,92.7,50.731,6.152,3.324,12.512,6.762,19.358,8.246,12.736,2.763,25.745-1.26,40.2-6.392,38.019-13.5,76.325-27.853,113.856-42.674,5.24-2.07,9.465-3.925,12.2-7.361,3.21-4.03,3.854-10.019,4.372-14.832l14.493-134.669c.489-4.553,1-9.262-.01-13.613-2.236-9.682-11.468-16.356-19.945-21.853a638.775,638.775,0,0,0-90.825-48.933c-9.176-4.022-18.2-7.679-27.728-8.247-8.073-.481-16.046,1.267-24.883,3.428a963.494,963.494,0,0,0-124.06,39.42,8.012,8.012,0,0,0-3.5,2.051c-.71.963-.81,2.534-.861,4.338l-3.694,131.219-4.971-.141,3.695-131.217c.056-2.048.134-4.855,1.83-7.153,1.552-2.1,3.933-3.04,5.673-3.724a968.4,968.4,0,0,1,124.7-39.623c9.234-2.258,17.586-4.078,26.361-3.563,10.337.617,20.2,4.615,29.427,8.657a643.618,643.618,0,0,1,91.534,49.316c9.294,6.025,19.432,13.416,22.086,24.906,1.193,5.167.617,10.531.109,15.264l-14.493,134.669c-.587,5.453-1.317,12.238-5.427,17.4-3.78,4.749-9.593,7.044-14.265,8.888-37.584,14.843-75.946,29.221-114.018,42.737C2215.122,6809.015,2204.33,6812.461,2193.6,6812.461Z" fill="#fff"></path>
    </g>
    <g id="Group_3222" data-name="Group 3222">
      <path id="Path_126278" data-name="Path 126278" d="M2187.933,6621.032c-8.043-.393-12.391,9.086-14.573,16.838q-20.294,72.066-46.369,142.336,18.675,10.194,37.388,20.316c6.4,3.456,12.906,6.947,20.012,8.488,13.891,3.014,28.166-1.723,41.561-6.478q57.336-20.353,113.936-42.706c4.873-1.924,9.971-4.025,13.234-8.124,3.548-4.455,4.29-10.453,4.9-16.115q7.247-67.335,14.493-134.669c.518-4.809,1.03-9.726-.059-14.439a22.448,22.448,0,0,0-.7-2.357l-146.876,17.335Z" fill="#360484"></path>
      <path id="Path_126279" data-name="Path 126279" d="M2193.6,6812.461a45.66,45.66,0,0,1-9.739-1.022c-7.533-1.633-14.51-5.4-20.666-8.73-11.342-6.128-23.574-12.774-37.4-20.32l-1.888-1.032.748-2.016c17.288-46.6,32.867-94.42,46.306-142.146,4.275-15.181,11.122-18.615,16.37-18.662l36.792-19.491.462-.055,148.855-17.568.659,1.882a24.6,24.6,0,0,1,.774,2.62c1.194,5.169.617,10.532.108,15.263l-14.493,134.669c-.586,5.452-1.315,12.236-5.426,17.4-3.781,4.749-9.594,7.044-14.265,8.888-37.587,14.844-75.948,29.222-114.019,42.737C2215.122,6809.015,2204.331,6812.461,2193.6,6812.461Zm-63.533-33.407c13.047,7.119,24.676,13.436,35.492,19.28,6.152,3.324,12.512,6.762,19.357,8.246,12.742,2.763,25.744-1.26,40.2-6.392,38.017-13.494,76.323-27.852,113.857-42.674,5.239-2.07,9.464-3.925,12.2-7.361,3.211-4.032,3.854-10.02,4.371-14.832l14.493-134.669c.49-4.552,1-9.259-.009-13.613-.015-.067-.031-.136-.049-.2l-144.349,17.037-37.141,19.676-.681-.033c-6.729-.305-10.439,9.275-12.059,15.028C2162.473,6685.708,2147.1,6732.971,2130.069,6779.054Z" fill="#360484"></path>
    </g>
    <g id="Group_3223" data-name="Group 3223">
      <path id="Path_126280" data-name="Path 126280" d="M2238.593,6613.623c-.2-5.728-.692-11.213-4.391-15.334-3-3.347-7.324-4.717-10.8-5.817-48.05-15.228-97.44-28.974-146.8-40.857l-2.523-.607-.479,2.446q-66.619-15.956-134.158-27.674c16.807,41.674,6.714,89.626-11.764,130.585s-44.9,78.014-62.588,119.32c-27.63,64.516-50.137,128.276-39.856,197.7a1080.053,1080.053,0,0,0,295.871,120.745c-25.11-82.4-11.485-175.723,36.132-247.5,8.058-12.147,17.043-23.732,25.905-35.371.236.055.467.126.7.178.115.026.231.046.441.083l1.539.319.949-1.25c12.8-16.86,26.054-35.016,35.114-55.267C2242.02,6710.333,2240.2,6658.954,2238.593,6613.623Z" fill="#6ad1e3"></path>
      <path id="Path_126281" data-name="Path 126281" d="M2236.108,6613.711c-.172-4.856-.512-10.145-3.757-13.761-2.471-2.753-6.17-3.99-9.7-5.108q-72.561-22.994-146.629-40.808a19.185,19.185,0,0,0-.276,3.14q-1.848,65.609-3.7,131.217l-10.8,12.059c.268,11.9-9.4,23.549-5.38,34.758,2.474,6.9,9.372,11.017,15.78,14.569q46.224,25.622,92.721,50.745c6.4,3.456,12.906,6.946,20.012,8.488.136.03.273.047.409.075,13.183-17.366,25.95-34.942,34.824-54.778C2239.072,6710.834,2237.794,6661.306,2236.108,6613.711Z" fill="#6ad1e3"></path>
    </g>
    <rect id="Rectangle_3311" data-name="Rectangle 3311" width="4.138" height="4.973" transform="translate(2254.229 6760.598) rotate(-26.726)" fill="#f04e98"></rect>
    <path id="Path_126282" data-name="Path 126282" d="M2027.757,7053.385l-3.452-3.58c19.158-18.476,39.063-36.686,59.162-54.125l3.26,3.756C2066.693,7016.818,2046.853,7034.97,2027.757,7053.385Z" fill="#f04e98"></path>
    <rect id="Rectangle_3312" data-name="Rectangle 3312" width="69.229" height="4.974" transform="matrix(0.732, -0.682, 0.682, 0.732, 2042.356, 7068.485)" fill="#f04e98"></rect>
    <path id="Path_126283" data-name="Path 126283" d="M2076.334,7083.831l-3.545-3.488c10.141-10.307,19.971-21.164,29.218-32.269l3.822,3.182C2096.494,7062.467,2086.57,7073.426,2076.334,7083.831Z" fill="#f04e98"></path>
    <path id="Path_126284" data-name="Path 126284" d="M2098.851,7053.518c-10.9-20.435-22.844-40.632-35.511-60.03l4.164-2.718c12.747,19.519,24.77,39.844,35.735,60.408Z" fill="#f04e98"></path>
    <path id="Path_126285" data-name="Path 126285" d="M2072.954,7076.285c-11.09-11.01-20.436-23.763-29.475-36.1-4.645-6.336-9.448-12.889-14.411-19.1a2.7,2.7,0,0,0-.882-.752,1.19,1.19,0,0,0,1.064-.347l-3.6-3.428a3.761,3.761,0,0,1,2.908-1.171c2.236.1,3.932,2.009,4.4,2.592,5.028,6.29,9.861,12.885,14.536,19.263,8.926,12.18,18.157,24.773,28.969,35.508Z" fill="#f04e98"></path>
    <g id="Group_3224" data-name="Group 3224">
      <path id="Path_126286" data-name="Path 126286" d="M1998.453,6872.584c-8.241,5.247-27.149,13.533-35.391,18.78-22.284,14.187-40.99,20.706-63.274,34.893-13.668,8.7-28.713,19.5-30.577,35.6,8.367-2.347,17.366.943,25.951-.413,5.754-.908,10.959-3.842,16.021-6.725q43.437-24.732,86.873-49.465c3.991-2.272,8.116-4.664,10.745-8.429C2014.807,6888.222,2008.818,6874.195,1998.453,6872.584Z" fill="#f04e98"></path>
      <path id="Path_126287" data-name="Path 126287" d="M1866.314,6965.25l.427-3.682c1.987-17.153,17.41-28.3,31.712-37.408a352.62,352.62,0,0,1,31.85-17.568,348.8,348.8,0,0,0,31.424-17.326c4.23-2.694,11.189-6.162,17.919-9.517,6.618-3.3,13.46-6.709,17.471-9.263l.791-.5.927.144c5.721.889,10.662,4.992,13.218,10.977s2.1,12.394-1.212,17.141c-3,4.3-7.546,6.884-11.555,9.167l-86.872,49.466c-4.966,2.826-10.593,6.029-16.864,7.019a51.079,51.079,0,0,1-12.4-.039c-4.686-.4-9.114-.773-13.263.391Zm10.037-6.754c2.426,0,4.84.206,7.216.407a46.8,46.8,0,0,0,11.207.082c5.375-.848,10.36-3.685,15.179-6.429l86.872-49.466c3.553-2.023,7.579-4.316,9.938-7.693,2.326-3.33,2.593-7.943.716-12.339a12.98,12.98,0,0,0-8.544-7.845c-4.276,2.61-10.774,5.849-17.071,8.987-6.615,3.3-13.456,6.707-17.468,9.261a352.279,352.279,0,0,1-31.851,17.569,348.84,348.84,0,0,0-31.422,17.325c-12.3,7.829-25.473,17.206-28.812,30.366A33.973,33.973,0,0,1,1876.351,6958.5Z" fill="#f04e98"></path>
    </g>
    <path id="Path_126288" data-name="Path 126288" d="M1937.953,7118.369a593.937,593.937,0,0,0-53.462-91.155c-24.793-34.749-41.456-45.868-54.485-52.161-27.106-13.092-60.881-12.871-106.3.694-8.158,2.437-16.447,5.154-24.463,7.782-26.844,8.8-54.6,17.9-83.313,18.488-8.677.174-21.208-.473-30-8.123-9.741-8.478-11.66-22.5-12.252-35.089a411.816,411.816,0,0,1,16.8-137.5c5.673-19.006,13.651-40.505,29.8-55.856,25.719-24.443,70.2-27.442,103.459-6.976,28.949,17.81,49.784,51.944,55.736,91.307,4.7,31.09,1.262,65.392-10.823,107.949l-4.783-1.358c11.883-41.851,15.28-75.484,10.688-105.847-5.736-37.934-25.706-70.762-53.423-87.815-31.405-19.324-73.288-16.6-97.428,6.346-15.3,14.545-22.975,35.294-28.462,53.672a406.877,406.877,0,0,0-16.595,135.841c.571,12.126,2.244,24.343,10.55,31.572,7.493,6.521,18.793,7.065,26.632,6.9,27.969-.569,55.368-9.553,81.866-18.24,8.046-2.639,16.367-5.366,24.588-7.823,46.68-13.942,81.6-14.071,109.886-.407,24.229,11.7,42.093,33.739,56.372,53.751a599.013,599.013,0,0,1,53.91,91.921Z" fill="#360484"></path>
    <path id="Path_126289" data-name="Path 126289" d="M2007.863,7312.994a132.678,132.678,0,0,1-31.445-3.754c-48.039-11.747-87.157-45.166-119.088-76.307l3.473-3.561c31.449,30.673,69.92,63.574,116.8,75.038a127.752,127.752,0,0,0,69.332-2.529c23.523-7.733,41.587-21.833,52.238-40.777,10.074-17.92,14.129-40.374,12.758-70.661a313.765,313.765,0,0,0-33.507-127.1c-23.543-46.311-58.319-86.082-91.951-124.543-6.192-7.082-13.209-15.109-22.2-19.119-8.036-3.581-19.279-3.452-25.227,3.727a12.213,12.213,0,0,0-2.6,7.6c.375.145.741.3,1.1.464,6.286,2.869,9.924,8.176,9.732,14.2l-.085,2.657-2.646-.262c-5.141-.509-9.366-3.907-11.592-9.321a19.447,19.447,0,0,1-1.144-3.922c-4.126-.829-8.938-.278-12.322,2.851-5.51,5.1-6.585,12.991-4.815,20.21,4.745,2.831,6.621,7.465,4.9,12.18l-1.585,4.339-2.749-3.713a32.077,32.077,0,0,1-4.705-9.319c-4.149-1.664-9.712-1.275-12.446,2.167-5.731,7.212-3.72,17.9-.692,28.383,8.431,29.182,17.774,58.526,27.768,87.214l-4.695,1.636c-10.024-28.772-19.394-58.2-27.851-87.469-5.764-19.952-2.438-27.806,1.577-32.858,3.565-4.489,9.713-5.682,15.084-4.6-1.1-7.923.736-16.182,6.835-21.822,4.378-4.048,10.2-5.061,15.442-4.3a16.993,16.993,0,0,1,3.668-9.489c7.53-9.085,21.335-9.442,31.082-5.095,9.991,4.455,17.391,12.919,23.92,20.386,33.832,38.691,68.815,78.7,92.64,125.563a318.774,318.774,0,0,1,34.042,129.128c1.415,31.257-2.841,54.555-13.391,73.322-11.271,20.046-30.3,34.937-55.021,43.064A130.58,130.58,0,0,1,2007.863,7312.994Zm-70.139-375.722a10.365,10.365,0,0,0,3.982,4.738A10.617,10.617,0,0,0,1937.724,6937.272Z" fill="#360484"></path>
    <path id="Path_126290" data-name="Path 126290" d="M1567.606,6956l-.4-4.957c40.63-3.282,74.318-31.662,108.1-62.977,9.882-9.161,20.1-18.633,26.125-30.778a42.824,42.824,0,0,0,4.61-21.047c-.39.388-.78.771-1.176,1.151-6.9,6.654-13.713,8.833-19.183,6.138a10.7,10.7,0,0,1-5.741-7.387c-1.233-5.138.438-11.934,4.159-16.911,3.481-4.659,9.281-8.826,15.117-6.532a13.181,13.181,0,0,1,5.579,4.767,31.306,31.306,0,0,1,4.22,8.164,108.207,108.207,0,0,0,24.865-72.524l4.969-.191a113.214,113.214,0,0,1-28.345,78.6,46.512,46.512,0,0,1-4.619,27.978c-6.429,12.962-17.463,23.19-27.2,32.215C1644.239,6923.648,1609.822,6952.593,1567.606,6956Zm128.279-138.95c-2.711,0-5.741,2.4-7.8,5.16-2.84,3.8-4.2,9.051-3.306,12.773a5.8,5.8,0,0,0,3.1,4.086c4.658,2.294,10.478-2.308,13.534-5.257q1.914-1.844,3.729-3.789a27.367,27.367,0,0,0-4.37-9.634,8.238,8.238,0,0,0-3.373-3.06A4.119,4.119,0,0,0,1695.885,6817.054Z" fill="#360484"></path>
    <path id="Path_126291" data-name="Path 126291" d="M1539.181,7211.955c-13.712,0-26.606-3.481-37.061-10.4-7.134-4.724-12.09-10.685-14.26-16.966-8.268-.607-16.734-4.217-24.284-10.431-10.707-8.812-18.495-23.885-18.26-38.695-19.537-5.514-30.06-25.879-33.143-41.755-6.1-31.418,6.136-67.487,33.568-98.959,15.614-17.915,34.338-33.085,52.446-47.755,9-7.289,18.3-14.826,27.082-22.59,32.571-28.8,51.19-56.677,56.92-85.237l4.875.979c-5.95,29.662-25.086,58.442-58.5,87.985-8.862,7.834-18.208,15.405-27.246,22.727-17.942,14.537-36.5,29.569-51.828,47.159-26.417,30.307-38.239,64.84-32.433,94.744,2.759,14.216,11.9,32.338,28.665,37.633a35.63,35.63,0,0,1,4.808-13.458,13.985,13.985,0,0,1,4.183-4.66,9.44,9.44,0,0,1,8.756-.591,11.235,11.235,0,0,1,6.758,7.6c1.337,5.708-2.023,12.267-7.816,15.258a21.078,21.078,0,0,1-12.167,1.911c.08,12.938,7.042,26.086,16.493,33.865,6.287,5.175,13.219,8.328,19.992,9.164-.043-.426-.072-.854-.088-1.282-.227-6.182,2.8-12.468,8.111-16.813s12.069-6.081,18.085-4.64a7.21,7.21,0,0,1,2.645,1.118c2.226,1.619,2.92,4.724,1.858,8.3-2.937,9.885-12.831,17.387-24.172,18.39,2.827,6.377,8.758,10.9,11.7,12.85,22.083,14.624,50.738,10.354,70.191,1.479a108.135,108.135,0,0,0,31.087-175.349l3.494-3.539a113.109,113.109,0,0,1-32.517,183.413A92.03,92.03,0,0,1,1539.181,7211.955Zm-30.636-50.738a17.033,17.033,0,0,0-10.643,4.014c-4.11,3.367-6.463,8.146-6.292,12.785.021.559.07,1.111.144,1.652.183-.009.365-.021.548-.033,9.381-.664,17.905-6.925,20.269-14.886.431-1.449.327-2.616-.015-2.865a3.391,3.391,0,0,0-.878-.3A13.491,13.491,0,0,0,1508.545,7161.217Zm-57.981-29.743a16.458,16.458,0,0,0,9.565-1.355c3.3-1.7,6.17-5.8,5.255-9.7a6.286,6.286,0,0,0-3.782-4.126,4.557,4.557,0,0,0-4.2.166,9.314,9.314,0,0,0-2.622,3.059A31.015,31.015,0,0,0,1450.564,7131.474Z" fill="#360484"></path>
    <path id="Path_126292" data-name="Path 126292" d="M1752.76,6868.2a32.088,32.088,0,0,1-5-.444,30.492,30.492,0,0,1-10.867-3.392,14.137,14.137,0,0,1-7.18-10.054c-.775-6.157,4.034-12.506,10.719-14.154,5.19-1.282,11.215-.019,16.955,3.557l-1.182,1.9,3.011-2.24c2,2.693,4.274,5.743,5.377,9.4,1.336,4.428.506,8.968-2.164,11.847C1759.817,6867.426,1756.188,6868.2,1752.76,6868.2Zm-8.192-23.564a12.306,12.306,0,0,0-2.947.348c-3.779.932-7.483,4.653-6.975,8.706a9.185,9.185,0,0,0,4.764,6.385,26.118,26.118,0,0,0,9.129,2.769c5.2.824,8.458.311,10.243-1.613,1.453-1.566,1.864-4.325,1.049-7.03a25.615,25.615,0,0,0-4.319-7.479l-.756,1.212A20.253,20.253,0,0,0,1744.568,6844.634Z" fill="#360484"></path>
    <g id="Group_3225" data-name="Group 3225">
      <path id="Path_126293" data-name="Path 126293" d="M1756.524,6847.939c-1.056-1.021-2.911-.7-3.974.318a7.812,7.812,0,0,0-1.867,3.922,11.689,11.689,0,0,0-.375,5.209,4.7,4.7,0,0,0,3.315,3.721c2.62.558,4.98-2.044,5.485-4.676a9.186,9.186,0,0,0-4.874-9.711" fill="#360484"></path>
      <path id="Path_126294" data-name="Path 126294" d="M1754.33,6863.67a5.849,5.849,0,0,1-1.226-.129,7.1,7.1,0,0,1-5.226-5.627,13.9,13.9,0,0,1,.39-6.325,10.023,10.023,0,0,1,2.565-5.131,6.043,6.043,0,0,1,4.317-1.627l.168-.348a10.4,10.4,0,0,1,.957.529,4.627,4.627,0,0,1,1.978,1.14l-.216.223a11.771,11.771,0,0,1,3.514,10.526,9.023,9.023,0,0,1-3.687,5.667A6.387,6.387,0,0,1,1754.33,6863.67Zm.192-13.781a.888.888,0,0,0-.256.168,5.885,5.885,0,0,0-1.168,2.714,9.64,9.64,0,0,0-.359,4.092,2.322,2.322,0,0,0,1.4,1.815,1.2,1.2,0,0,0,.973-.254,4,4,0,0,0,1.551-2.459A6.743,6.743,0,0,0,1754.522,6849.889Z" fill="#360484"></path>
    </g>
    <path id="Path_126295" data-name="Path 126295" d="M1748.117,6910.118c-5.517,0-11.037-3.076-16.422-9.155a65.013,65.013,0,0,1-15.8-35.548l4.941-.555a60,60,0,0,0,14.585,32.806c4.575,5.165,9.019,7.656,13.2,7.467l.252,4.967C1748.617,6910.112,1748.366,6910.118,1748.117,6910.118Z" fill="#360484"></path>
    <path id="Path_126296" data-name="Path 126296" d="M2138.2,6709.041a33.348,33.348,0,0,1-9.955-6.768c-2.36,2.059-6.34,2.759-11.372,1.889a577.276,577.276,0,0,1-92.7-24.149,8.878,8.878,0,0,1-4.795,3.551,11,11,0,0,1-10.555-1.96,14.4,14.4,0,0,1-4.563-9.746,17.793,17.793,0,0,1-6.28,2.358,16.537,16.537,0,0,1-13.161-3.082,15.253,15.253,0,0,1-3.654-4.238,13.483,13.483,0,0,1-10.6,3.055,9.145,9.145,0,0,1-7.153-5.164l4.531-2.049a4.237,4.237,0,0,0,3.39,2.3,8.3,8.3,0,0,0,7.085-2.4,11.664,11.664,0,0,0,.765-.943,18.479,18.479,0,0,1-.349-2.682,16.546,16.546,0,0,1,4.593-12.713l4.732-4.71-.5,6.658c-.313,4.19-.719,9.6-3.115,14.192a10.733,10.733,0,0,0,3.365,4.8,12.294,12.294,0,0,0,17.183-3l7.869-12.7-3.331,14.567c-.881,3.855-.691,8.97,2.481,11.77a6.108,6.108,0,0,0,5.714.964,3.593,3.593,0,0,0,2.559-2.473l.6-2.764,2.666.949a572.226,572.226,0,0,0,94.076,24.71c2.607.453,7.187.61,7.815-1.662l1.269-4.6,3.042,3.67a28.329,28.329,0,0,0,10.353,7.813Z" fill="#fff"></path>
    <path id="Path_126297" data-name="Path 126297" d="M2097.133,6784.527a424.639,424.639,0,0,1-82.673-21.286l-.761-.28c-4.375-1.616-8.508-3.143-12.83-3.541-1.278-.117-2.579-.137-3.957-.157a31.258,31.258,0,0,1-8.058-.834,12.646,12.646,0,0,1-7.91-6.3c-4.917,2.911-11.3,4.22-16.876,1.412a12.978,12.978,0,0,1-6.366-7.975,24.046,24.046,0,0,1-7.625,3.7c-6.848,1.947-14.008.8-19.142-3.055l2.986-3.977c3.9,2.932,9.433,3.772,14.8,2.248a18.3,18.3,0,0,0,8.79-5.419,9.684,9.684,0,0,1,3.4-5.311l7.195-5.667-3.341,8.527a19.213,19.213,0,0,1-2.588,4.587,7.574,7.574,0,0,0,.008,1.464,8.26,8.26,0,0,0,4.124,6.441c4.85,2.446,11.012.1,14.688-3.114l4.827-4.219-.719,6.371c-.277,2.447,2.422,4.759,5.082,5.5a27.109,27.109,0,0,0,6.8.652c1.411.022,2.871.043,4.341.179,4.974.458,9.612,2.171,14.1,3.827l.756.279a419.734,419.734,0,0,0,81.7,21.036Z" fill="#fff"></path>
    <path id="Path_126298" data-name="Path 126298" d="M1971.912,6816.1a438.231,438.231,0,0,0-46.826-11.488l.916-4.888a443.494,443.494,0,0,1,47.359,11.618Z" fill="#fff"></path>
    <rect id="Rectangle_3313" data-name="Rectangle 3313" width="4.973" height="20.632" transform="matrix(0.337, -0.942, 0.942, 0.337, 2012.098, 6825.624)" fill="#fff"></rect>
    <path id="Path_126299" data-name="Path 126299" d="M2067.034,6845.565" fill="none" stroke="#fff" stroke-miterlimit="10" stroke-width="4.973"></path>
    <path id="Path_126300" data-name="Path 126300" d="M1867.044,6938.848l-12.485-11.334.972-1.728a58.634,58.634,0,0,1,8.839-11.854,18.856,18.856,0,0,1-8.735-3.129l-2.428-1.654,2.032-2.121a69.086,69.086,0,0,1,20.318-14.625,10.444,10.444,0,0,1-3.269-2.282,8.441,8.441,0,0,1-1.194-9.313,5.84,5.84,0,0,1,5.994-3.5l-.561,4.941c-.152-.015-.566-.064-.974.76a3.528,3.528,0,0,0,.317,3.662c2,2.075,5.666,2.206,9.239,2.161l16.973-.211-16.2,5.07a64.106,64.106,0,0,0-24.693,14.438,14,14,0,0,0,9.711.12l14.574-5.313-12.183,9.6a53.761,53.761,0,0,0-12.427,13.984l9.52,8.643Z" fill="#fff"></path>
    <path id="Path_126301" data-name="Path 126301" d="M2276.852,6768.188l-3.842-3.157c18.051-21.969,35.325-45.031,51.343-68.543l4.109,2.8C2312.361,6722.923,2295,6746.1,2276.852,6768.188Z" fill="#f04e98"></path>
    <path id="Path_126302" data-name="Path 126302" d="M2303.619,6762.954l-3.512-3.521a256.562,256.562,0,0,0,30.727-37.036l4.109,2.8A261.534,261.534,0,0,1,2303.619,6762.954Z" fill="#f04e98"></path>
    <path id="Path_126303" data-name="Path 126303" d="M2331.375,6754.622a369.3,369.3,0,0,1-37.955-35.646l3.652-3.375a364.388,364.388,0,0,0,37.442,35.164Z" fill="#f04e98"></path>
    <path id="Path_126304" data-name="Path 126304" d="M2336.575,6739.422a390.1,390.1,0,0,0-28.977-31.69l3.478-3.553a395.037,395.037,0,0,1,29.349,32.094Z" fill="#f04e98"></path>
    <rect id="Rectangle_3314" data-name="Rectangle 3314" width="4.974" height="34.043" transform="matrix(0.671, -0.742, 0.742, 0.671, 2271.265, 6731.253)" fill="#f04e98"></rect>
    <path id="Path_126305" data-name="Path 126305" d="M2334.673,6683.01l-4.774-1.391a9.346,9.346,0,0,1,8.648-6.592l.076,4.973A4.385,4.385,0,0,0,2334.673,6683.01Z" fill="#f04e98"></path>
    <rect id="Rectangle_3315" data-name="Rectangle 3315" width="8.53" height="4.974" transform="translate(2341.24 6694.445) rotate(-49.316)" fill="#f04e98"></rect>
    <path id="Path_126306" data-name="Path 126306" d="M2203.042,6515.5l-.691-4.924,14.447-2.03c9.831-1.381,20.973-2.948,31.6-.743l-1.009,4.869c-9.784-2.029-20.012-.592-29.905.8Z" fill="#6ad1e3"></path>
    <path id="Path_126307" data-name="Path 126307" d="M2205.677,6533.14l-.93-4.885c13.246-2.519,26.758-4.6,40.159-6.182l.584,4.94C2232.2,6528.581,2218.809,6530.644,2205.677,6533.14Z" fill="#6ad1e3"></path>
    <rect id="Rectangle_3316" data-name="Rectangle 3316" width="30.29" height="4.972" transform="matrix(0.984, -0.18, 0.18, 0.984, 2220.58, 6547.21)" fill="#6ad1e3"></rect>
    <path id="Path_126308" data-name="Path 126308" d="M2241.321,6555.192a411.985,411.985,0,0,0-13.19-47.968l4.707-1.608a417.227,417.227,0,0,1,13.35,48.551Z" fill="#6ad1e3"></path>
    <path id="Path_126309" data-name="Path 126309" d="M2263.064,6546.982a110.485,110.485,0,0,1-4.646-32.195l4.973.022a105.528,105.528,0,0,0,4.437,30.748Z" fill="#6ad1e3"></path>
    <rect id="Rectangle_3317" data-name="Rectangle 3317" width="4.973" height="7.905" transform="matrix(0.941, -0.34, 0.34, 0.941, 2283.708, 6535.001)" fill="#6ad1e3"></rect>
    <rect id="Rectangle_3318" data-name="Rectangle 3318" width="12.027" height="4.973" transform="translate(2180.374 6532.666)" fill="#6ad1e3"></rect>
    <path id="Path_126310" data-name="Path 126310" d="M1998.065,7041.259l-3.47-3.563a12.475,12.475,0,0,0,3.733-8.54l4.971.129A17.487,17.487,0,0,1,1998.065,7041.259Z" fill="#f04e98"></path>
    <path id="Path_126311" data-name="Path 126311" d="M2004.259,7018.808c-.277,0-.553-.013-.828-.037l.447-4.954a4.707,4.707,0,0,0,3.583-1.243l3.42,3.612A9.741,9.741,0,0,1,2004.259,7018.808Z" fill="#f04e98"></path>
    <rect id="Rectangle_3319" data-name="Rectangle 3319" width="2.617" height="4.973" transform="translate(2013.001 7033.941) rotate(-45)" fill="#f04e98"></rect>
    <path id="Path_126312" data-name="Path 126312" d="M2071.94,6970l-3.336-3.688a20.032,20.032,0,0,1,7.4-4.23l1.484,4.746A15.035,15.035,0,0,0,2071.94,6970Z" fill="#f04e98"></path>
    <path id="Path_126313" data-name="Path 126313" d="M2084.31,6979.8l-4.02-2.928a25.474,25.474,0,0,0,4.212-9.266l4.85,1.1A30.519,30.519,0,0,1,2084.31,6979.8Z" fill="#f04e98"></path>
    <path id="Path_126314" data-name="Path 126314" d="M2099.618,6944.852a3.184,3.184,0,0,0-3.619-1.861l-1.375-4.779a8.153,8.153,0,0,1,9.68,4.976Z" fill="#f04e98"></path>
    <path id="Path_126315" data-name="Path 126315" d="M2096.179,6976.484" fill="none" stroke="#f04e98" stroke-miterlimit="10" stroke-width="4.973"></path>
    <path id="Path_126316" data-name="Path 126316" d="M1739.244,6701.272l-4.973-.072a208.031,208.031,0,0,0-2.745-36.792c-.755-4.573-1.89-9.114-5.063-11.35a7.7,7.7,0,0,0-6.277-.988,11.935,11.935,0,0,0-6.421,4.04q-.584.927-1.21,1.825l-4.226-2.608a14.933,14.933,0,0,1,1.345-2.052,47.079,47.079,0,0,0,3.552-42.1c-.8-1.923-1.954-4.263-3.813-5.3a3.527,3.527,0,0,0-2.683-.245,1.626,1.626,0,0,0-1.011.8l-4.545-2.018a6.5,6.5,0,0,1,3.983-3.5,8.448,8.448,0,0,1,6.68.618c3.194,1.783,4.874,5.071,5.981,7.735a52.181,52.181,0,0,1,.256,38.226q.484-.146.977-.262a12.6,12.6,0,0,1,10.277,1.764c4.669,3.29,6.174,8.964,7.1,14.606A213.028,213.028,0,0,1,1739.244,6701.272Z" fill="#f04e98"></path>
    <path id="Path_126317" data-name="Path 126317" d="M1634.689,6692.822c-12.2-19.742-25.241-39.3-38.764-58.145l4.041-2.9c13.589,18.934,26.7,38.593,38.954,58.433Z" fill="#f04e98"></path>
    <rect id="Rectangle_3320" data-name="Rectangle 3320" width="4.973" height="50.288" transform="translate(1529.751 6678.17) rotate(-50.599)" fill="#f04e98"></rect>
    <path id="Path_126318" data-name="Path 126318" d="M1815.493,6661.5l-4.867-1.023a473.727,473.727,0,0,1,13.953-51.623l4.719,1.568A468.631,468.631,0,0,0,1815.493,6661.5Z" fill="#f04e98"></path>
    <path id="Path_126319" data-name="Path 126319" d="M1546.323,6752.366a90.406,90.406,0,0,1-32.811-10.1l2.347-4.385a85.4,85.4,0,0,0,30.99,9.542Z" fill="#f04e98"></path>
    <rect id="Rectangle_3321" data-name="Rectangle 3321" width="13.878" height="4.973" transform="translate(1854.582 6706.169) rotate(-36.874)" fill="#f04e98"></rect>
    <path id="Path_126320" data-name="Path 126320" d="M2204.255,7224.97l-4.875-.985a119.91,119.91,0,0,0-21.913-95.176l3.953-3.018A124.955,124.955,0,0,1,2204.255,7224.97Z" fill="#f04e98"></path>
    <path id="Path_126321" data-name="Path 126321" d="M2275.735,7211.041l-4.826-1.2c10.829-43.632,2.223-91.889-23.022-129.087l4.115-2.793C2278.027,7116.313,2286.9,7166.061,2275.735,7211.041Z" fill="#f04e98"></path>
  </g>
</svg>
