<?xml version="1.0" encoding="UTF-8"?>
<svg xmlns="http://www.w3.org/2000/svg" width="462" height="424.41" viewBox="0 0 462 424.41">
  <g id="Group_3171" data-name="Group 3171" transform="translate(-5308.453 4566.066)">
    <path id="Path_125587" data-name="Path 125587" d="M5562.833-4227.623c-28.3,1.021-57.757.519-83.229-11.848-6.238-3.029-12.42-7.022-15.653-13.157-2.149-4.078-2.808-8.756-3.338-13.336a338.4,338.4,0,0,1,2.819-97.165c1.4-8.007,3.578-16.735,10.221-21.418,4.148-2.925,9.377-3.752,14.412-4.4,21.473-2.754,43.146-3.669,64.794-3.884,24.361-.241,49.44.549,71.82,10.178,6.517,2.8,13.125,6.754,16.034,13.224,1.653,3.674,1.937,7.8,2.124,11.824,1.667,35.643-4.739,62.721-14.062,97.163-2.051,7.577-4.513,15.359-9.806,21.155-9.569,10.478-25.436,11.662-39.625,11.485" transform="translate(-77.957 -90.064)" fill="#fff"></path>
    <path id="Path_125588" data-name="Path 125588" d="M5399.365-3905.557l-1.989-1.6a549.144,549.144,0,0,0,53.4-80.081,549.245,549.245,0,0,0,38.6-88.175c2.354-7,4.48-13.874,4.621-20.95.078-3.955-.812-6.7-2.644-8.167-3.073-2.455-8.081-.744-11.682,2.042q-1.345,1.042-2.582,2.209c-.063.385-.146.774-.25,1.167-1,3.75-3.637,7.193-8.066,10.525l-3.916,2.946,1.985-4.48a37.39,37.39,0,0,1,7.8-11.336c.182-3.007-1.1-6.336-3.96-7.521-1.949-.807-4.318-.482-6.165-.11a39.856,39.856,0,0,0-20.384,11.1,10.421,10.421,0,0,1-1.169,5.483,7.416,7.416,0,0,1-6.692,4.314l-2.065-.045.968-1.825a41.542,41.542,0,0,1,6.268-8.8,5.773,5.773,0,0,0-.942-2.179c-2.967-4.095-9.207-4.441-13.571-2.687-4.876,1.959-8.71,6.02-12.42,9.947a1123.657,1123.657,0,0,1-104.446,97.353l-1.615-1.971a1121.459,1121.459,0,0,0,104.209-97.131c3.9-4.127,7.927-8.394,13.323-10.562s12.82-1.64,16.583,3.556a7.954,7.954,0,0,1,.908,1.634,42.37,42.37,0,0,1,20.543-10.685c2.2-.444,5.057-.816,7.642.253a9.665,9.665,0,0,1,5.472,7.616q.483-.4.98-.786c4.068-3.147,10.393-5.564,14.833-2.018,2.483,1.986,3.695,5.42,3.6,10.208-.148,7.438-2.333,14.515-4.754,21.712a551.715,551.715,0,0,1-38.778,88.586A551.9,551.9,0,0,1,5399.365-3905.557ZM5441.08-4094.5q-1.063,1.367-2,2.827a6.378,6.378,0,0,0,1.638-2.017A7.72,7.72,0,0,0,5441.08-4094.5Z" transform="translate(0 -236.098)" fill="#360484"></path>
    <g id="Group_3171-2" data-name="Group 3171" transform="translate(5432.11 -4484.471)">
      <path id="Path_125589" data-name="Path 125589" d="M5579.108-4391.675c-3.363,1.026-5.414,4.386-6.775,7.629a46.519,46.519,0,0,0-3.61,17.939c0,1.352.12,2.847,1.087,3.791a5.275,5.275,0,0,0,2.739,1.136,86.54,86.54,0,0,0,30.259.577,4.948,4.948,0,0,0,3.307-1.465,5.262,5.262,0,0,0,.687-3.241c.005-6.495.963-13.191,4.325-18.748s9.52-9.748,16-9.339" transform="translate(-5567.448 4394.697)" fill="#6ad1e3"></path>
      <path id="Path_125590" data-name="Path 125590" d="M5587.908-4359.641a87.431,87.431,0,0,1-16.986-1.669,6.342,6.342,0,0,1-3.382-1.474c-1.3-1.264-1.472-3.087-1.472-4.7a48.053,48.053,0,0,1,3.709-18.433c1.956-4.662,4.435-7.4,7.579-8.354l.743,2.438c-2.374.725-4.327,2.982-5.972,6.9a45.466,45.466,0,0,0-3.511,17.446,4.2,4.2,0,0,0,.7,2.877,4.261,4.261,0,0,0,2.1.8,84.78,84.78,0,0,0,29.812.569,4.011,4.011,0,0,0,2.491-.98,4.38,4.38,0,0,0,.427-2.47c.006-8.054,1.481-14.4,4.508-19.4,3.907-6.457,10.654-10.364,17.172-9.952l-.159,2.543c-5.583-.352-11.411,3.073-14.832,8.727-2.78,4.595-4.134,10.512-4.14,18.088a6.332,6.332,0,0,1-.949,4.013c-1.125,1.477-3.073,1.786-4.12,1.951A87.518,87.518,0,0,1,5587.908-4359.641Z" transform="translate(-5566.068 4396.077)" fill="#6ad1e3"></path>
    </g>
    <g id="Group_3172" data-name="Group 3172" transform="translate(5506.976 -4559.324)">
      <path id="Path_125591" data-name="Path 125591" d="M5866.254-4463.54a111.076,111.076,0,0,0-43.945-85.243q-47.11,30.748-95.581,59.343a123.641,123.641,0,0,1,42.886,65.529c6.454,24.818,4.979,50.888,5.952,76.512s4.941,52.43,20.324,72.947c1.53,2.041,3.412,4.15,5.942,4.479,2.142.28,4.2-.8,6.088-1.85a472.961,472.961,0,0,0,95.009-69.988,149.13,149.13,0,0,1-36.4-106.572" transform="translate(-5724.475 4550.337)" fill="#6ad1e3"></path>
      <path id="Path_125592" data-name="Path 125592" d="M5800.109-4270.334a6.963,6.963,0,0,1-.883-.057c-2.993-.391-5.116-2.736-6.8-4.979-16.6-22.142-19.716-51-20.577-73.663-.229-6.06-.324-12.24-.417-18.216-.3-19.276-.6-39.209-5.495-58.023a122.028,122.028,0,0,0-42.44-64.849l-1.465-1.152,1.605-.947c32.141-18.961,64.283-38.917,95.532-59.312l.745-.487.713.532a111.181,111.181,0,0,1,32.018,38.073,111.165,111.165,0,0,1,12.44,48.164l-2.548.056a108.6,108.6,0,0,0-12.157-47.053,108.745,108.745,0,0,0-30.567-36.663c-30.529,19.91-61.9,39.4-93.29,57.945a124.624,124.624,0,0,1,41.881,65.051c4.97,19.111,5.278,39.2,5.576,58.625.092,5.962.187,12.128.415,18.159.847,22.295,3.894,50.653,20.071,72.23,1.362,1.818,3.033,3.713,5.087,3.981,1.691.222,3.474-.677,5.3-1.7a471.389,471.389,0,0,0,93.866-68.959,150.068,150.068,0,0,1-28.087-49.223,149.912,149.912,0,0,1-7.818-57.346l2.543.16a147.3,147.3,0,0,0,7.687,56.362,147.324,147.324,0,0,0,28.4,49.29l.809.92-.888.844a473.924,473.924,0,0,1-95.265,70.176A12.547,12.547,0,0,1,5800.109-4270.334Z" transform="translate(-5722.034 4552.02)" fill="#6ad1e3"></path>
    </g>
    <g id="Group_3173" data-name="Group 3173" transform="translate(5526.161 -4480.433)">
      <path id="Path_125593" data-name="Path 125593" d="M5804.089-4352.755c-.188-4.025-.471-8.149-2.124-11.824-2.911-6.47-9.518-10.419-16.035-13.224a107.809,107.809,0,0,0-17.452-5.736,123.452,123.452,0,0,1,22.845,45.554c4.726,18.171,5.2,37.013,5.5,55.859C5802.211-4305.238,5805.307-4326.712,5804.089-4352.755Z" transform="translate(-5765.371 4385.521)" fill="#f04e98"></path>
      <path id="Path_125594" data-name="Path 125594" d="M5792.408-4274.5l-.154-9.75c-.328-20.859-.939-38.2-5.458-55.576a122.771,122.771,0,0,0-22.623-45.109l-2.169-2.728,3.389.815a109.575,109.575,0,0,1,17.646,5.8c5.552,2.389,13.32,6.422,16.654,13.833,1.706,3.794,2.028,7.964,2.228,12.26h0c1.083,23.161-1.1,44.382-7.3,70.958Zm-24.214-109.154a125.061,125.061,0,0,1,20.925,43.224c3.979,15.3,4.97,31.592,5.34,45.98,4.475-21.875,6-40.411,5.065-60.393h0c-.189-4.055-.487-7.978-2.021-11.388-2.275-5.061-7.173-9.069-15.414-12.613A104.68,104.68,0,0,0,5768.193-4383.658Z" transform="translate(-5762.003 4387.667)" fill="#f04e98"></path>
    </g>
    <path id="Path_125595" data-name="Path 125595" d="M6012.037-4335.945a276.976,276.976,0,0,1-47.727-4.131c-6.106-1.068-8.31-6.258-7.773-10.627a10.48,10.48,0,0,1,.188-1.064,17.687,17.687,0,0,1-5.7-.479c-7.585-1.933-11.52-9.159-10.435-14.695a8.412,8.412,0,0,1,.381-1.341,11.563,11.563,0,0,1-6.729-6.987,16.859,16.859,0,0,1,.87-13.623c3.662-6.794,10.683-10.722,17.725-13.954,25.244-11.586,52.673-17.776,79.2-23.762l.561,2.486c-26.4,5.957-53.7,12.117-78.7,23.591-6.64,3.047-13.239,6.713-16.545,12.848a14.443,14.443,0,0,0-.731,11.508,9.032,9.032,0,0,0,5.245,5.508c.116.042.233.082.35.12a10.894,10.894,0,0,1,5.735-3.875,8.267,8.267,0,0,1,8.525,2.007l1.251,1.344-1.7.7c-4.1,1.7-8.411,3.26-12.561,2.7a5.788,5.788,0,0,0-.383,1.215c-.843,4.3,2.466,10.181,8.563,11.735a15.58,15.58,0,0,0,6.107.274,8.8,8.8,0,0,1,8.7-4.514,11.173,11.173,0,0,1,2.222.386l2.694.756-2.339,1.536a28.722,28.722,0,0,1-9.536,4.112,7.817,7.817,0,0,0-.43,1.773,6.784,6.784,0,0,0,5.684,7.807,275.457,275.457,0,0,0,129.8-8.546l.767,2.431A277.334,277.334,0,0,1,6012.037-4335.945Zm-48.994-20-.1.043Zm-17.791-14.145h.008a22.015,22.015,0,0,0,7.646-1.771,6.439,6.439,0,0,0-4.256-.109A8.582,8.582,0,0,0,5945.252-4370.093Z" transform="translate(-324.862 -72.517)" fill="#360484"></path>
    <path id="Path_125596" data-name="Path 125596" d="M5818.562-4415.626l-1.248-2.222a16.7,16.7,0,0,0,4.219-3.38c-.009-.025-.017-.05-.024-.076a4.063,4.063,0,0,1,1.035-4.344,2.27,2.27,0,0,1,1-.556,1.814,1.814,0,0,1,1.928.711,3.28,3.28,0,0,1-.094,3.389q-.378.6-.8,1.163a2.1,2.1,0,0,0,1.225.685,3.819,3.819,0,0,0,3.532-2.02,9.141,9.141,0,0,1-.082-6.958l.985-2.466,1.307,2.312a8.722,8.722,0,0,1,.91,6.129,9.337,9.337,0,0,0,2.108-2.649,11.972,11.972,0,0,1,2.662-3.3,11.7,11.7,0,0,1,3.848-1.769c.381-.121.761-.241,1.134-.375a31.856,31.856,0,0,0,7.731-4.6l11.657-8.508,1.5,2.059-11.657,8.507a33.774,33.774,0,0,1-8.376,4.943c-.4.144-.811.274-1.222.4a9.674,9.674,0,0,0-3.05,1.349,9.931,9.931,0,0,0-2.068,2.64,9.94,9.94,0,0,1-3.347,3.733,2.976,2.976,0,0,1-2.234.4,6.18,6.18,0,0,1-5.678,2.7,4.6,4.6,0,0,1-2.54-1.265A19.22,19.22,0,0,1,5818.562-4415.626Z" transform="translate(-264.603 -63.235)" fill="#703dc1"></path>
    <path id="Path_125597" data-name="Path 125597" d="M5921.426-4453.5l-1.279-2.205a13.284,13.284,0,0,0,3.9-3.45l2.033,1.537A15.872,15.872,0,0,1,5921.426-4453.5Z" transform="translate(-318.075 -55.595)" fill="#703dc1"></path>
    <rect id="Rectangle_3134" data-name="Rectangle 3134" width="1.06" height="2.548" transform="translate(5612.077 -4518.01) rotate(-26.692)" fill="#703dc1"></rect>
    <rect id="Rectangle_3135" data-name="Rectangle 3135" width="2.764" height="2.548" transform="matrix(0.858, -0.514, 0.514, 0.858, 5567.449, -4455.335)" fill="#703dc1"></rect>
    <rect id="Rectangle_3136" data-name="Rectangle 3136" width="3.036" height="2.549" transform="translate(5573.999 -4458.94) rotate(-39.358)" fill="#703dc1"></rect>
    <path id="Path_125598" data-name="Path 125598" d="M5889.793-4386.18l-1.535-2.034a17.468,17.468,0,0,0,3.883-4.071,4.272,4.272,0,0,1-1.539-2.748,4.007,4.007,0,0,1,1.707-4.066,2.972,2.972,0,0,1,1.743-.479,2.447,2.447,0,0,1,1.986,1.2,4.593,4.593,0,0,1,.319,3.386c.067-.069.13-.141.188-.213a10.353,10.353,0,0,0,1.535-3.49l2.479.565a.144.144,0,0,0-.015-.07.957.957,0,0,0,.948.177,4.923,4.923,0,0,0,1.585-1.641c.178-.246.356-.49.541-.724,2-2.536,4.849-3.951,7.6-5.318.949-.472,1.93-.959,2.837-1.477a52.936,52.936,0,0,0,9.083-7.152l1.718,1.882a54.826,54.826,0,0,1-9.538,7.483c-.971.555-1.986,1.059-2.968,1.546-2.618,1.3-5.091,2.528-6.735,4.613-.165.209-.322.426-.48.645a6.931,6.931,0,0,1-2.566,2.451,3.537,3.537,0,0,1-2.823,0,8.649,8.649,0,0,1-1.22,2.107,5.4,5.4,0,0,1-3.846,2.093A20.027,20.027,0,0,1,5889.793-4386.18Zm4.086-10.852a.7.7,0,0,0-.233.1,1.517,1.517,0,0,0-.522,1.52,2.01,2.01,0,0,0,.333.855q.146-.3.279-.608A2.69,2.69,0,0,0,5893.879-4397.031Z" transform="translate(-301.493 -78.898)" fill="#703dc1"></path>
    <path id="Path_125599" data-name="Path 125599" d="M5870.072-4285.575l-1.761-1.842a183.844,183.844,0,0,1,19.557-16.256l1.488,2.068A181.294,181.294,0,0,0,5870.072-4285.575Z" transform="translate(-291.121 -136.443)" fill="#703dc1"></path>
    <path id="Path_125600" data-name="Path 125600" d="M5869.89-4227.833l-1.7-1.9a299.224,299.224,0,0,1,38.719-29.323l1.368,2.15A296.662,296.662,0,0,0,5869.89-4227.833Z" transform="translate(-291.059 -159.643)" fill="#703dc1"></path>
    <rect id="Rectangle_3137" data-name="Rectangle 3137" width="24.845" height="2.548" transform="translate(5597.594 -4370.332) rotate(-41.693)" fill="#703dc1"></rect>
    <path id="Path_125601" data-name="Path 125601" d="M5532.837-4190.87a127.574,127.574,0,0,0-26.368-4.079l.116-2.4a129.913,129.913,0,0,1,26.865,4.156Z" transform="translate(-102.967 -191.731)" fill="#f04e98"></path>
    <path id="Path_125602" data-name="Path 125602" d="M5529.444-4156.053c-7.476-1.113-15.01-2.5-22.395-4.12l.515-2.345c7.331,1.61,14.811,2.986,22.233,4.091Z" transform="translate(-103.268 -209.842)" fill="#f04e98"></path>
    <path id="Path_125603" data-name="Path 125603" d="M5512.752-4119.307a40.636,40.636,0,0,1-8.4-3.2l1.1-2.134a38.174,38.174,0,0,0,7.9,3.013Z" transform="translate(-101.867 -229.536)" fill="#f04e98"></path>
    <path id="Path_125604" data-name="Path 125604" d="M5703.916-4176.149l-1.558-1.826c13.655-11.658,27.925-22.941,42.416-33.537l1.417,1.937C5731.747-4199.013,5717.524-4187.768,5703.916-4176.149Z" transform="translate(-204.827 -184.366)" fill="#f04e98"></path>
    <path id="Path_125605" data-name="Path 125605" d="M5718.9-4154.475l-1.806-1.58a281.332,281.332,0,0,1,50.994-45.652l1.371,1.97A279.009,279.009,0,0,0,5718.9-4154.475Z" transform="translate(-212.491 -189.464)" fill="#f04e98"></path>
    <rect id="Rectangle_3138" data-name="Rectangle 3138" width="58.047" height="2.4" transform="translate(5514.231 -4330.859) rotate(-42.606)" fill="#f04e98"></rect>
    <rect id="Rectangle_3139" data-name="Rectangle 3139" width="0.671" height="2.4" transform="translate(5530.273 -4325.654) rotate(-45.024)" fill="#f04e98"></rect>
    <path id="Path_125606" data-name="Path 125606" d="M5725.507-4092.435a258.291,258.291,0,0,0-19.23-27.452l1.872-1.5a260.969,260.969,0,0,1,19.409,27.708Z" transform="translate(-206.865 -231.228)" fill="#f04e98"></path>
    <rect id="Rectangle_3140" data-name="Rectangle 3140" width="2.4" height="34.982" transform="matrix(0.839, -0.544, 0.544, 0.839, 5512.959, -4367.242)" fill="#f04e98"></rect>
    <path id="Path_125607" data-name="Path 125607" d="M5706.073-4071.709l-1.1-2.131a16.009,16.009,0,0,0,6.666-6.556l2.112,1.139A18.434,18.434,0,0,1,5706.073-4071.709Z" transform="translate(-206.184 -252.544)" fill="#f04e98"></path>
    <path id="Path_125608" data-name="Path 125608" d="M5772.852-4177.849c-6.44-10.387-12.662-21.1-18.492-31.847l2.109-1.144c5.809,10.7,12.008,21.378,18.423,31.726Z" transform="translate(-231.867 -184.715)" fill="#f04e98"></path>
    <rect id="Rectangle_3141" data-name="Rectangle 3141" width="5.128" height="2.4" transform="translate(5532.318 -4408.851) rotate(-33.122)" fill="#f04e98"></rect>
    <rect id="Rectangle_3142" data-name="Rectangle 3142" width="3.352" height="2.4" transform="translate(5535.489 -4402.937) rotate(-44.996)" fill="#f04e98"></rect>
    <rect id="Rectangle_3143" data-name="Rectangle 3143" width="3.18" height="2.4" transform="translate(5545.695 -4347.626) rotate(-63.445)" fill="#f04e98"></rect>
    <path id="Path_125609" data-name="Path 125609" d="M5355.984-4231.486l-2.4-.11c.191-4.2-3.286-7.772-6.82-9.129a16.254,16.254,0,0,0-5.88-1.009,8.659,8.659,0,0,1-2.01,5.745,7.078,7.078,0,0,1-4.81,2.318,5.829,5.829,0,0,1-4.284-1.4,4.429,4.429,0,0,1-1.565-3.686c.153-1.472,1.187-3.433,5.236-4.406a36.06,36.06,0,0,1,4.714-.828c-.021-.083-.047-.165-.073-.247a17.029,17.029,0,0,0-4.213-6.384,15.983,15.983,0,0,0-5.906-4.255,6.373,6.373,0,0,0-6.269.864l-1.6-1.789a8.788,8.788,0,0,1,8.658-1.342,18.166,18.166,0,0,1,6.85,4.862,19.236,19.236,0,0,1,4.772,7.329c.085.272.159.545.222.818a18.758,18.758,0,0,1,7.019,1.167C5352.766-4240.994,5356.2-4236.273,5355.984-4231.486Zm-17.505-10.123a33.607,33.607,0,0,0-4.465.781c-.977.235-3.265.932-3.409,2.321a2.069,2.069,0,0,0,.777,1.649,3.453,3.453,0,0,0,2.538.792,4.633,4.633,0,0,0,3.151-1.5A6.281,6.281,0,0,0,5338.479-4241.609Z" transform="translate(-6.059 -160.347)" fill="#f04e98"></path>
    <path id="Path_125610" data-name="Path 125610" d="M5362.858-4133.713a199.137,199.137,0,0,1-31.494-2.795l.4-2.366a196.747,196.747,0,0,0,31.113,2.761Z" transform="translate(-11.913 -222.136)" fill="#f04e98"></path>
    <rect id="Rectangle_3144" data-name="Rectangle 3144" width="2.4" height="30.439" transform="translate(5331.841 -4452.257) rotate(-52.078)" fill="#f04e98"></rect>
    <rect id="Rectangle_3145" data-name="Rectangle 3145" width="2.4" height="25.163" transform="translate(5347.972 -4472.202) rotate(-42.118)" fill="#f04e98"></rect>
    <path id="Path_125611" data-name="Path 125611" d="M5681.5-4503.277a76.382,76.382,0,0,1-.27-27.664c.563-3.256,1.6-7.555,4.26-10.677a11.978,11.978,0,0,1-.716-1.477,25.418,25.418,0,0,1,2.11-22.973l2.02,1.3a22.98,22.98,0,0,0-1.908,20.771c.082.2.181.426.3.663.27-.206.552-.4.848-.587,1.76-1.1,3.022-.872,3.77-.487a2.564,2.564,0,0,1,1.219,3.162,3.638,3.638,0,0,1-3.625,2.659,4.473,4.473,0,0,1-2.479-1.111c-2.076,2.67-2.944,6.352-3.432,9.169a74.018,74.018,0,0,0,.261,26.8Zm7.23-38.136a2.032,2.032,0,0,0,1.026.436,1.089,1.089,0,0,0,.881-.558.989.989,0,0,0,.221-.713h0a.23.23,0,0,0-.044-.028c-.263-.135-.8.014-1.4.389C5689.173-4541.74,5688.945-4541.581,5688.727-4541.413Z" transform="translate(-193.251)" fill="#f04e98"></path>
    <path id="Path_125612" data-name="Path 125612" d="M5612.183-4462.751a54.487,54.487,0,0,1-5.55-16.1l2.364-.418a52.091,52.091,0,0,0,5.3,15.392Z" transform="translate(-155.051 -45.134)" fill="#f04e98"></path>
    <path id="Path_125613" data-name="Path 125613" d="M5746.557-4501.92l-2.39-.226a123.663,123.663,0,0,1,2.873-17.236l2.334.562A121.228,121.228,0,0,0,5746.557-4501.92Z" transform="translate(-226.567 -24.276)" fill="#f04e98"></path>
    <rect id="Rectangle_3146" data-name="Rectangle 3146" width="6.557" height="2.4" transform="matrix(0.219, -0.976, 0.976, 0.219, 5547.527, -4539.365)" fill="#f04e98"></rect>
    <path id="Path_125614" data-name="Path 125614" d="M5752.667-3995.419a36.046,36.046,0,0,1-11.288-1.8l.753-2.279a33.853,33.853,0,0,0,19.861.366l.669,2.3A35.944,35.944,0,0,1,5752.667-3995.419Z" transform="translate(-225.118 -294.611)" fill="#f04e98"></path>
    <path id="Path_125615" data-name="Path 125615" d="M5751.991-3955.1a30.934,30.934,0,0,1-7.387-.891l.575-2.33a28.614,28.614,0,0,0,12.316.286l.466,2.354A30.827,30.827,0,0,1,5751.991-3955.1Z" transform="translate(-226.794 -316.02)" fill="#f04e98"></path>
    <rect id="Rectangle_3147" data-name="Rectangle 3147" width="6.557" height="2.4" transform="translate(5547.707 -4293.405) rotate(-12.888)" fill="#f04e98"></rect>
  </g>
</svg>
