<?xml version="1.0" encoding="UTF-8"?>
<svg xmlns="http://www.w3.org/2000/svg" width="960" height="886.395" viewBox="0 0 960 886.395">
  <g id="Group_3752" data-name="Group 3752" transform="translate(20127.965 -16732.402)">
    <path id="Path_128582" data-name="Path 128582" d="M2784.744,13159.458a817.575,817.575,0,0,1-104.711,35.49l-14.011-18.156c3.157-3.3,7.547-5.073,11.795-6.751l96.935-38.3c2.1-.831,4.4-1.673,6.568-1.027,3.978,1.188,4.946,6.39,4.528,10.52a39.417,39.417,0,0,1-3.378,12.426" transform="translate(-22196.766 3901.996)" fill="#6ad1e3"></path>
    <path id="Path_128583" data-name="Path 128583" d="M2679.021,13197.928l-16.452-21.319,1.558-1.63c3.611-3.774,8.454-5.688,12.727-7.377l96.935-38.3c2.051-.811,5.151-2.033,8.281-1.1,5.54,1.654,6.9,8.2,6.386,13.3a41.85,41.85,0,0,1-3.6,13.254l-4.767-2.185a36.613,36.613,0,0,0,3.153-11.6c.329-3.247-.365-7.055-2.669-7.74-1.285-.386-2.96.2-4.855.951l-96.935,38.3a38.013,38.013,0,0,0-9.2,4.638l11.458,14.849a817,817,0,0,0,102.693-34.928l2.015,4.842a822.887,822.887,0,0,1-105.046,35.6Z" transform="translate(-22196.766 3901.996)" fill="#6ad1e3"></path>
    <path id="Path_128584" data-name="Path 128584" d="M2681.011,13199.96l-.867-5.172a310.442,310.442,0,0,0,102.954-36.714l2.6,4.553a315.653,315.653,0,0,1-104.688,37.333" transform="translate(-22196.766 3901.996)" fill="#6ad1e3"></path>
    <path id="Path_128585" data-name="Path 128585" d="M2448.268,13114.027h-224.6a14.678,14.678,0,0,1-14.678-14.679v-137.473a14.677,14.677,0,0,1,14.678-14.678h224.6a14.677,14.677,0,0,1,14.678,14.678v137.473a14.679,14.679,0,0,1-14.678,14.679" transform="translate(-22196.766 3901.996)" fill="#6ad1e3"></path>
    <path id="Path_128586" data-name="Path 128586" d="M2448.268,13116.649h-224.6a17.321,17.321,0,0,1-17.3-17.3v-137.473a17.32,17.32,0,0,1,17.3-17.3h224.6a17.32,17.32,0,0,1,17.3,17.3v137.473a17.321,17.321,0,0,1-17.3,17.3m-224.6-166.829a12.069,12.069,0,0,0-12.056,12.056v137.473a12.069,12.069,0,0,0,12.056,12.057h224.6a12.069,12.069,0,0,0,12.056-12.057v-137.473a12.069,12.069,0,0,0-12.056-12.056Z" transform="translate(-22196.766 3901.996)" fill="#6ad1e3"></path>
    <path id="Path_128587" data-name="Path 128587" d="M2856.179,13386.575H2171.9a33.661,33.661,0,0,1-33.623-33.623V12864.03a33.662,33.662,0,0,1,33.623-33.624h684.276a33.662,33.662,0,0,1,33.623,33.624v488.922a33.661,33.661,0,0,1-33.623,33.623M2171.9,12835.65a28.411,28.411,0,0,0-28.379,28.38v488.922a28.412,28.412,0,0,0,28.379,28.379h684.276a28.412,28.412,0,0,0,28.379-28.379V12864.03a28.411,28.411,0,0,0-28.379-28.38Z" transform="translate(-22196.766 3901.996)" fill="#360484"></path>
    <path id="Path_128588" data-name="Path 128588" d="M2860.086,12833.029H2168a27.094,27.094,0,0,0-27.094,27.094v23.394H2887.18v-23.394a27.094,27.094,0,0,0-27.094-27.094" transform="translate(-22196.766 3901.996)" fill="#360484"></path>
    <path id="Path_128589" data-name="Path 128589" d="M2889.8,12886.139H2138.28v-26.015a29.75,29.75,0,0,1,29.716-29.717h692.09a29.75,29.75,0,0,1,29.716,29.717Zm-746.278-5.244h741.034v-20.771a24.5,24.5,0,0,0-24.472-24.473H2168a24.5,24.5,0,0,0-24.472,24.473Z" transform="translate(-22196.766 3901.996)" fill="#360484"></path>
    <path id="Path_128590" data-name="Path 128590" d="M2177,12863.06a5.407,5.407,0,0,1-3.854-1.713,5.846,5.846,0,0,1-1.342-6.334,6.235,6.235,0,0,1,3.962-3.4,7.246,7.246,0,0,1,5.944.773l-1.744,2.722.846-.736a5.384,5.384,0,0,1-1.969,8.32,4.81,4.81,0,0,1-1.843.366m.9-6.515a2.149,2.149,0,0,0-.612.088,1.1,1.1,0,0,0-.678.487,1.024,1.024,0,0,0,.342.615l1.329-1.157a2.228,2.228,0,0,0-.381-.033" transform="translate(-22196.766 3901.996)" fill="#6ad1e3"></path>
    <path id="Path_128591" data-name="Path 128591" d="M2210.273,12854.6c-2-1.28-5.136-.7-6.089,1.472s1.445,5.1,3.641,4.2a2.771,2.771,0,0,0,.987-4.175" transform="translate(-22196.766 3901.996)" fill="#f04e98"></path>
    <path id="Path_128592" data-name="Path 128592" d="M2206.978,12863.06a5.407,5.407,0,0,1-3.854-1.713,5.848,5.848,0,0,1-1.342-6.334,6.235,6.235,0,0,1,3.962-3.4,7.245,7.245,0,0,1,5.944.773l-1.744,2.722.846-.736a5.384,5.384,0,0,1-1.969,8.32,4.811,4.811,0,0,1-1.843.366m.9-6.515a2.151,2.151,0,0,0-.612.088,1.1,1.1,0,0,0-.678.487,1.024,1.024,0,0,0,.342.615l1.329-1.157a2.225,2.225,0,0,0-.381-.033" transform="translate(-22196.766 3901.996)" fill="#f04e98"></path>
    <path id="Path_128593" data-name="Path 128593" d="M2236.952,12863.06a5.407,5.407,0,0,1-3.854-1.713,5.848,5.848,0,0,1-1.342-6.334,6.235,6.235,0,0,1,3.962-3.4,7.246,7.246,0,0,1,5.944.773l-1.744,2.722.846-.736a5.384,5.384,0,0,1-1.969,8.32,4.81,4.81,0,0,1-1.843.366m.9-6.515a2.149,2.149,0,0,0-.612.088,1.1,1.1,0,0,0-.678.487,1.024,1.024,0,0,0,.342.615l1.329-1.157a2.228,2.228,0,0,0-.381-.033" transform="translate(-22196.766 3901.996)" fill="#6ad1e3"></path>
    <rect id="Rectangle_4295" data-name="Rectangle 4295" width="5.244" height="21.332" transform="matrix(0.926, -0.377, 0.377, 0.926, -19377.461, 16758.719)" fill="#5c54a3"></rect>
    <path id="Path_128594" data-name="Path 128594" d="M2847.953,12871.785a284.363,284.363,0,0,1-17.5-33.346l4.8-2.123a278.871,278.871,0,0,0,17.179,32.729Z" transform="translate(-22196.766 3901.996)" fill="#5c54a3"></path>
    <rect id="Rectangle_4296" data-name="Rectangle 4296" width="5.244" height="43.239" transform="translate(-19343.729 16737.563) rotate(-24.144)" fill="#5c54a3"></rect>
    <rect id="Rectangle_4297" data-name="Rectangle 4297" width="28.537" height="5.243" transform="translate(-19362.873 16746.543) rotate(-22.634)" fill="#5c54a3"></rect>
    <path id="Path_128595" data-name="Path 128595" d="M2845.755,12868.166l-2.747-4.467a207.935,207.935,0,0,1,40.1-19.08l1.734,4.949a202.706,202.706,0,0,0-39.083,18.6" transform="translate(-22196.766 3901.996)" fill="#5c54a3"></path>
    <path id="Path_128596" data-name="Path 128596" d="M2870.3,12876.354l-3.147-4.192a73.038,73.038,0,0,1,21.937-11.274l1.578,5a67.907,67.907,0,0,0-20.368,10.467" transform="translate(-22196.766 3901.996)" fill="#5c54a3"></path>
    <path id="Path_128597" data-name="Path 128597" d="M2879.146,12883.27c-.193,0-.385-.008-.578-.023l.458-5.225a1.739,1.739,0,0,0,1.418-.581l4,3.394a7.026,7.026,0,0,1-5.295,2.436" transform="translate(-22196.766 3901.996)" fill="#5c54a3"></path>
    <rect id="Rectangle_4298" data-name="Rectangle 4298" width="2.638" height="5.244" transform="matrix(0.835, -0.55, 0.55, 0.835, -19390.365, 16748.984)" fill="#5c54a3"></rect>
    <rect id="Rectangle_4299" data-name="Rectangle 4299" width="3.94" height="5.245" transform="translate(-19344.561 16777.934) rotate(-21.65)" fill="#5c54a3"></rect>
    <rect id="Rectangle_4300" data-name="Rectangle 4300" width="3.272" height="5.243" transform="translate(-19363.012 16778.857) rotate(-26.541)" fill="#5c54a3"></rect>
    <rect id="Rectangle_4301" data-name="Rectangle 4301" width="5.244" height="6.544" transform="translate(-19396.408 16776.465) rotate(-26.565)" fill="#5c54a3"></rect>
    <path id="Path_128598" data-name="Path 128598" d="M2792.95,12859.632a23.971,23.971,0,0,0-3.957-6.595l4.005-3.384a29.137,29.137,0,0,1,4.823,8.038Z" transform="translate(-22196.766 3901.996)" fill="#5c54a3"></path>
    <rect id="Rectangle_4302" data-name="Rectangle 4302" width="2.195" height="5.244" transform="translate(-19399.916 16763.889)" fill="#5c54a3"></rect>
    <rect id="Rectangle_4303" data-name="Rectangle 4303" width="960" height="5.244" transform="translate(-20127.965 17610.475)" fill="#360484"></rect>
    <rect id="Rectangle_4304" data-name="Rectangle 4304" width="409.756" height="5.244" transform="translate(-19990.34 17612.043) rotate(-81.711)" fill="#360484"></rect>
    <rect id="Rectangle_4305" data-name="Rectangle 4305" width="409.756" height="5.244" transform="translate(-19915.977 17612.041) rotate(-81.711)" fill="#360484"></rect>
    <rect id="Rectangle_4306" data-name="Rectangle 4306" width="74.634" height="5.244" transform="translate(-19934.064 17246.816)" fill="#360484"></rect>
    <rect id="Rectangle_4307" data-name="Rectangle 4307" width="74.634" height="5.244" transform="translate(-19936.99 17283.328)" fill="#360484"></rect>
    <rect id="Rectangle_4308" data-name="Rectangle 4308" width="74.634" height="5.244" transform="translate(-19946.746 17319.84)" fill="#360484"></rect>
    <rect id="Rectangle_4309" data-name="Rectangle 4309" width="74.634" height="5.244" transform="translate(-19953.088 17356.352)" fill="#360484"></rect>
    <rect id="Rectangle_4310" data-name="Rectangle 4310" width="74.634" height="5.244" transform="translate(-19958.209 17392.863)" fill="#360484"></rect>
    <rect id="Rectangle_4311" data-name="Rectangle 4311" width="74.634" height="5.244" transform="translate(-19958.209 17429.373)" fill="#360484"></rect>
    <rect id="Rectangle_4312" data-name="Rectangle 4312" width="74.634" height="5.244" transform="translate(-19965.959 17465.885)" fill="#360484"></rect>
    <rect id="Rectangle_4313" data-name="Rectangle 4313" width="74.634" height="5.244" transform="translate(-19972.111 17502.396)" fill="#360484"></rect>
    <rect id="Rectangle_4314" data-name="Rectangle 4314" width="74.634" height="5.244" transform="translate(-19977.234 17538.906)" fill="#360484"></rect>
    <rect id="Rectangle_4315" data-name="Rectangle 4315" width="74.634" height="5.244" transform="translate(-19980.16 17575.418)" fill="#360484"></rect>
    <rect id="Rectangle_4316" data-name="Rectangle 4316" width="5.244" height="409.756" transform="matrix(0.99, -0.144, 0.144, 0.99, -19365.326, 17207.328)" fill="#360484"></rect>
    <rect id="Rectangle_4317" data-name="Rectangle 4317" width="5.244" height="409.756" transform="matrix(0.99, -0.144, 0.144, 0.99, -19439.691, 17207.328)" fill="#360484"></rect>
    <rect id="Rectangle_4318" data-name="Rectangle 4318" width="74.634" height="5.244" transform="translate(-19431.945 17246.816)" fill="#360484"></rect>
    <rect id="Rectangle_4319" data-name="Rectangle 4319" width="74.634" height="5.244" transform="translate(-19429.018 17283.328)" fill="#360484"></rect>
    <rect id="Rectangle_4320" data-name="Rectangle 4320" width="74.634" height="5.244" transform="translate(-19419.262 17319.84)" fill="#360484"></rect>
    <rect id="Rectangle_4321" data-name="Rectangle 4321" width="74.634" height="5.244" transform="translate(-19412.92 17356.352)" fill="#360484"></rect>
    <rect id="Rectangle_4322" data-name="Rectangle 4322" width="74.634" height="5.244" transform="translate(-19407.797 17392.863)" fill="#360484"></rect>
    <rect id="Rectangle_4323" data-name="Rectangle 4323" width="74.634" height="5.244" transform="translate(-19407.797 17429.373)" fill="#360484"></rect>
    <rect id="Rectangle_4324" data-name="Rectangle 4324" width="74.634" height="5.244" transform="translate(-19400.047 17465.885)" fill="#360484"></rect>
    <rect id="Rectangle_4325" data-name="Rectangle 4325" width="74.634" height="5.244" transform="translate(-19393.896 17502.396)" fill="#360484"></rect>
    <rect id="Rectangle_4326" data-name="Rectangle 4326" width="74.634" height="5.244" transform="translate(-19388.773 17538.906)" fill="#360484"></rect>
    <rect id="Rectangle_4327" data-name="Rectangle 4327" width="74.634" height="5.244" transform="translate(-19385.848 17575.418)" fill="#360484"></rect>
    <path id="Path_128599" data-name="Path 128599" d="M2217.211,13260.056l-2.024-4.838a379.213,379.213,0,0,0,96.977-58.974c2.092-1.748,3.877-3.355,4.546-5.324a3.862,3.862,0,0,0-.184-2.854,2.551,2.551,0,0,0-.127-.224,17.888,17.888,0,0,1-7.171,6.422l-5.882,2.848,2.284-6.123c1.852-4.967,4.674-8.111,7.812-8.934a14.015,14.015,0,0,0,.8-3.74,9.05,9.05,0,0,1-6.6.728l-2.612-.747.84-2.584a8.714,8.714,0,0,1,4.442-5.014,9.073,9.073,0,0,1,3.636-.95,4.176,4.176,0,0,0-2.648-3.2c-2.267-.7-5.079.659-7.767,2.111l-63.516,34.291c-10.712,5.781-22.131,11.2-33.619,8.428-3.42-.824-5.94-2.319-7.49-4.445-1.621-2.223-2.019-4.812-2.287-7.273a126.424,126.424,0,0,1,.164-28.774c.757-6.283,2.177-13.414,6.971-18.671,7.054-7.736,22.244-9.652,33.615-.177,7.773,6.477,12.705,16.536,15.076,30.751l-5.172.863c-2.156-12.925-6.494-21.946-13.261-27.586-7.169-5.973-19.767-7.571-26.384-.318-3.8,4.165-4.981,10.306-5.639,15.765a121.253,121.253,0,0,0-.157,27.578,10.106,10.106,0,0,0,1.311,4.753c.8,1.093,2.3,1.913,4.481,2.438,9.694,2.338,19.675-2.427,29.9-7.947l63.516-34.29c2.709-1.461,7.242-3.913,11.8-2.507a9.4,9.4,0,0,1,6.079,11.288,18.257,18.257,0,0,1-.216,10.06,7.129,7.129,0,0,1,2.5,2.813,9.1,9.1,0,0,1,.473,6.916c-1.106,3.25-3.538,5.477-6.146,7.657a384.488,384.488,0,0,1-98.318,59.788" transform="translate(-22196.766 3901.996)" fill="#360484"></path>
    <path id="Path_128600" data-name="Path 128600" d="M2819.892,13293.492a421.567,421.567,0,0,1-66.284-63.446c-8.049-9.595-16.009-21.114-14.014-33.795l.333-2.12.174-.008a15.373,15.373,0,0,1,.964-5.751,11.309,11.309,0,0,1,4.747-5.562,14.9,14.9,0,0,1-.085-2.472,10.419,10.419,0,0,1,2.679-6.867c4.983-5.173,12.951-1.73,18.261,2.791,5.582,4.752,11.093,9.9,16.421,14.878,16.929,15.814,34.432,32.165,56.471,37.877,2.492.646,5.381,1.228,7.936.654,6.87-1.549,9.711-10.7,10.613-14.565a68.648,68.648,0,0,0,1.529-21.822c-.83-9.227-5.231-19.112-13.189-20.405-5.757-.931-11.486,2.769-16.814,6.91-9.224,7.167-19.894,16.994-20.548,29.463l-5.237-.274c.766-14.592,12.462-25.477,22.567-33.329,5.966-4.638,13.113-9.2,20.873-7.945,11.469,1.863,16.633,14.69,17.572,25.11a73.906,73.906,0,0,1-1.645,23.486c-1.4,5.994-5.157,16.366-14.569,18.487-3.646.819-7.3.111-10.4-.692-23.328-6.046-41.327-22.86-58.734-39.122-5.287-4.937-10.752-10.044-16.242-14.718-2.683-2.284-8.451-5.88-11.086-3.144a5.426,5.426,0,0,0-1.218,3.485,10.137,10.137,0,0,0,.006,1.059c.227.023.456.058.686.1a7.587,7.587,0,0,1,5.7,5.489,6.32,6.32,0,0,1-1.679,6.549l-1.552,1.409-1.717-1.2a15.773,15.773,0,0,1-4.994-5.865,6.01,6.01,0,0,0-1.456,2.136,10.749,10.749,0,0,0-.6,4.308,9.61,9.61,0,0,1,3.993,2.862,9.127,9.127,0,0,1,2.034,7.773l-.3,1.335-1.269.513a5.229,5.229,0,0,1-4.249-.116c2.094,7.054,7.062,13.773,12.06,19.73a416.355,416.355,0,0,0,65.458,62.657Z" transform="translate(-22196.766 3901.996)" fill="#360484"></path>
    <path id="Path_128601" data-name="Path 128601" d="M2246.571,13386.465a30.846,30.846,0,0,1-10.224-2.138,91.322,91.322,0,0,1-30.574-18.349c-2.386-2.173-4.735-4.634-5.757-7.9a17.139,17.139,0,0,1-.31-7.523c1.031-7.276,3.931-14.146,6.736-20.789,3.777-8.948,7.345-17.4,6.389-26.32-.493-4.6-2.177-8.961-3.958-13.582a92.23,92.23,0,0,1-3.231-9.372c-3.483-13.063,1.452-21.671,6.736-25.073l2.839,4.41c-5.694,3.665-6.367,12.34-4.508,19.312a87.231,87.231,0,0,0,3.056,8.838c1.826,4.732,3.713,9.627,4.28,14.909,1.1,10.268-2.9,19.749-6.772,28.919-2.675,6.334-5.44,12.885-6.375,19.485a12.362,12.362,0,0,0,.123,5.222c.612,1.957,2.155,3.648,4.283,5.586a86.017,86.017,0,0,0,28.8,17.286c3.519,1.254,7.611,2.414,11.279,1.506,2.962-.733,5.878-3.5,5.5-6.444-.2-1.574-1.288-3.124-2.436-4.766a18,18,0,0,1-3.215-6.276c-1.051-4.672,1.185-8.924,3.567-12.879l7.446-12.364,4.492,2.705-7.446,12.365c-1.908,3.168-3.568,6.241-2.943,9.022a13.7,13.7,0,0,0,2.4,4.422c1.392,1.99,2.97,4.247,3.338,7.1.775,5.987-4.19,10.908-9.438,12.207a16.958,16.958,0,0,1-4.074.48" transform="translate(-22196.766 3901.996)" fill="#360484"></path>
    <path id="Path_128602" data-name="Path 128602" d="M2313.98,13347.613l-2.938-4.345a11.359,11.359,0,0,0,4.734-7.3,3.887,3.887,0,0,0-.072-2.18,1.409,1.409,0,0,0-.961-.835c-1.59-.489-4.68.33-7.353,1.944l-4.113,2.484.136-4.8a125.515,125.515,0,0,0-38.569-93.292l3.606-3.808a130.982,130.982,0,0,1,40.252,93.03,12.51,12.51,0,0,1,7.584-.567,6.629,6.629,0,0,1,4.185,3.66,8.746,8.746,0,0,1,.47,5.274,16.494,16.494,0,0,1-6.961,10.737" transform="translate(-22196.766 3901.996)" fill="#360484"></path>
    <path id="Path_128603" data-name="Path 128603" d="M2195.672,13183.979c-.157,0-.314,0-.472-.008l.2-5.239c3.164.151,6.31-2.036,9.008-4.067,4.913-3.7,9.723-7.879,11.649-13.388,1.507-4.312,1.16-9.181.824-13.89l5.23-.373c.357,5,.761,10.658-1.1,15.991-2.387,6.828-7.872,11.653-13.444,15.848-3.546,2.671-7.437,5.126-11.895,5.126" transform="translate(-22196.766 3901.996)" fill="#360484"></path>
    <path id="Path_128604" data-name="Path 128604" d="M2229.9,13173.165a8.127,8.127,0,0,1-2.393-6.79l5.2.672a2.831,2.831,0,0,0,.821,2.333Z" transform="translate(-22196.766 3901.996)" fill="#360484"></path>
    <path id="Path_128605" data-name="Path 128605" d="M2231.422,13185.007a12.68,12.68,0,0,1-10.387-5.414l4.354-2.922a7.351,7.351,0,0,0,7.648,2.889l1.335,5.07a11.548,11.548,0,0,1-2.95.377" transform="translate(-22196.766 3901.996)" fill="#360484"></path>
    <path id="Path_128606" data-name="Path 128606" d="M2316.469,13176.054l-12.535-11.4a20.565,20.565,0,0,1-4.49-4.127l3.809-3.581,3.94,3.583a15.922,15.922,0,0,0,3.711,1.761,13.038,13.038,0,0,1,2.076-5.836c1.839-2.988,3.771-5.967,5.759-8.885-6.5-5.5-8.836-10.871-6.952-16a16.1,16.1,0,0,1,3.408-5.074,217.9,217.9,0,0,1,29.828-27.564c1.344-1.026,3.844-2.941,6.863-2.64,3.824.378,6.5,3.824,7.346,9.453,3.334,22.214-5.516,37.2-14.909,43.822-5.564,3.921-11.488,4.708-15.847,2.1l2.692-4.5c2.976,1.779,7.186.193,10.134-1.886,12.389-8.731,14.608-26.334,12.745-38.756-.361-2.4-1.328-4.881-2.676-5.014-.889-.08-2.1.773-3.164,1.587a212.759,212.759,0,0,0-29.109,26.9,11.376,11.376,0,0,0-2.388,3.38c-1.463,3.985,3.084,8.5,7.157,11.581l2.01,1.521-1.443,2.068c-2.423,3.476-4.774,7.061-6.988,10.656-1.269,2.062-1.551,3.963-1.121,4.238l8.121,5.2-8.705-.339,4.256,3.871Z" transform="translate(-22196.766 3901.996)" fill="#360484"></path>
    <path id="Path_128607" data-name="Path 128607" d="M2857.512,13423.5l-.151,0a7.592,7.592,0,0,1-5.684-2.845,10.445,10.445,0,0,1-2.258-8.1,17.9,17.9,0,0,1,4.285-8.486,59.421,59.421,0,0,1-14.368-18.222l4.676-2.373a54.109,54.109,0,0,0,15.04,18.186l2.208,1.708-1.844,2.1c-2.471,2.81-4.4,5.175-4.815,7.893a5.2,5.2,0,0,0,1.092,3.922,2.383,2.383,0,0,0,1.775.975c1.384.013,3-1.331,4.366-2.605a231.323,231.323,0,0,0,17.577-18.306c3.482-4.051,7.282-8.822,8.3-14.182,1.246-6.555-1.533-13.243-5.012-20.678l-11.426-24.422c-1.409-3.012-3.163-6.761-2.952-10.848a22.8,22.8,0,0,1,1.9-7.17c.168-.433.336-.864.5-1.3,5.1-13.724,2.76-28.193-.106-37.916-3.73-12.658-10.23-24.533-16.517-36.019l4.6-2.517c6.419,11.727,13.058,23.854,16.948,37.053,3.09,10.486,5.6,26.15-.01,41.227-.17.457-.347.912-.524,1.369a18.624,18.624,0,0,0-1.553,5.539c-.143,2.781,1.242,5.743,2.465,8.356l11.426,24.421c2.987,6.383,7.078,15.126,5.413,23.88-1.261,6.629-5.553,12.056-9.477,16.62a236.587,236.587,0,0,1-17.976,18.722c-1.51,1.409-4.3,4.016-7.9,4.016" transform="translate(-22196.766 3901.996)" fill="#360484"></path>
    <path id="Path_128608" data-name="Path 128608" d="M2782.153,13423.378a10.1,10.1,0,0,1-4.992-1.108,6.6,6.6,0,0,1-3.186-4.262,5.171,5.171,0,0,1,.8-4.2,7.2,7.2,0,0,1,1.837-1.688,5.121,5.121,0,0,0,.586-.447c.6-.594.6-2.306.593-3.328a322.7,322.7,0,0,1,18.84-109.526l4.939,1.763a317.462,317.462,0,0,0-18.535,107.752c0,1.844.011,4.928-2.143,7.063a9.339,9.339,0,0,1-1.261,1.013,6.661,6.661,0,0,0-.552.415,1.4,1.4,0,0,0,.629.867c.922.512,2.288.48,3.979.391l19.047-1.044c1.581-.087,2.953-.208,3.738-.812.978-.752,1.4-2.554,1.772-4.145a177.825,177.825,0,0,1,20.515-50.749l4.5,2.689a172.586,172.586,0,0,0-19.911,49.256c-.515,2.2-1.22,5.213-3.681,7.105-2.136,1.644-4.744,1.786-6.648,1.891l-19.048,1.045c-.555.029-1.172.063-1.823.063" transform="translate(-22196.766 3901.996)" fill="#360484"></path>
    <path id="Path_128609" data-name="Path 128609" d="M2857.993,13204.151c-13.54-4.217-24.167-13.372-28.426-24.491-1.319-3.444-1.238-6.264.241-8.382l4.3,3c-.411.588-.284,1.833.356,3.5,3.69,9.632,13.069,17.617,25.089,21.359Z" transform="translate(-22196.766 3901.996)" fill="#360484"></path>
    <rect id="Rectangle_4328" data-name="Rectangle 4328" width="5.996" height="5.243" transform="matrix(0.651, -0.759, 0.759, 0.651, -19376.785, 17098.545)" fill="#360484"></rect>
    <path id="Path_128610" data-name="Path 128610" d="M2820.928,13210.953l-1.932-4.875a92.586,92.586,0,0,0,11.473-5.491l2.584,4.563a97.741,97.741,0,0,1-12.125,5.8" transform="translate(-22196.766 3901.996)" fill="#360484"></path>
    <path id="Path_128611" data-name="Path 128611" d="M2797.869,13302.009c-21.652-11.553-65.36-57.224-77.583-84.651-4.481-7.664-5.18-14.231-2.063-18.457a7.959,7.959,0,0,1,.032-4.022,8.416,8.416,0,0,1,4.918-5.445,10.354,10.354,0,0,1-.491-1.476,8.8,8.8,0,0,1,2.09-8.483l1-1,1.387.289a27.965,27.965,0,0,1,13.7,7.313l-3.67,3.747a22.71,22.71,0,0,0-9.393-5.5,4.43,4.43,0,0,0-.032,2.355,4.1,4.1,0,0,0,1.628,2.443,7.838,7.838,0,0,1,1.147.506l22.572,12.231-24.579-7.415a8.056,8.056,0,0,1-1.145-.445,3.6,3.6,0,0,0-2.14.248,3.267,3.267,0,0,0-1.938,2.014,2.433,2.433,0,0,0-.077.445,7.154,7.154,0,0,1,3.039,1.431,6.921,6.921,0,0,1,2.6,4.613l.319,3.008-3.022-.11a8.072,8.072,0,0,1-4.52-1.624c-.639,3.766,2.154,8.97,3.233,10.8l.139.27c11.552,26.087,54.755,71.314,75.319,82.286Z" transform="translate(-22196.766 3901.996)" fill="#360484"></path>
    <path id="Path_128612" data-name="Path 128612" d="M2284.976,13255.639a22.365,22.365,0,0,1-5.179-.6l1.208-5.1c6.572,1.555,14.152-.872,23.17-7.425,7.325-5.321,11.026-10.224,11.646-15.427.151-1.275.03-2.877-.769-3.544a.321.321,0,0,0-.1-.053,5.9,5.9,0,0,1-2.021,1.765l-4.427,2.324.606-4.962a4.805,4.805,0,0,1,.087-.5l-2.111-1.559a4.276,4.276,0,0,1-1.067-1.143,55.837,55.837,0,0,0-24.17,10.955l-3.243-4.121a61.133,61.133,0,0,1,26.686-12.032,5.981,5.981,0,0,1,.893-.093,4.611,4.611,0,0,1,1.281-1.259,5.586,5.586,0,0,1,6.953.937,7.179,7.179,0,0,1,1.913,4.623,5.672,5.672,0,0,1,2.081,1.091c2.1,1.759,3.033,4.666,2.612,8.188-1.057,8.875-8.365,15.122-13.771,19.049-8.186,5.95-15.528,8.886-22.28,8.886" transform="translate(-22196.766 3901.996)" fill="#360484"></path>
    <path id="Path_128613" data-name="Path 128613" d="M2458.741,13063.667a253.341,253.341,0,0,0-36.976-28.691c-7.46-4.75-16.176-9.28-24.274-6.831-3.919,1.185-7.258,3.905-10.793,6.785-3.943,3.213-8.021,6.535-13.225,7.9-14.388,3.779-26.478-9.437-31.007-15.294-1.366-1.766-2.708-3.612-4.006-5.4-5.373-7.392-10.447-14.373-18.058-17.726-13.278-5.849-28.777,1.758-42.187,9.973-23.438,14.355-46.625,29.769-68.917,45.813l-3.063-4.256c22.4-16.119,45.692-31.605,69.241-46.029,14.567-8.922,31.547-17.128,47.04-10.3,8.906,3.923,14.64,11.812,20.185,19.441,1.276,1.755,2.595,3.57,3.913,5.274,12.008,15.528,22.573,14.207,25.527,13.429,4.1-1.078,7.573-3.9,11.244-6.895,3.775-3.075,7.678-6.255,12.589-7.739,10.186-3.076,20.639,2.354,28.608,7.428a258.729,258.729,0,0,1,37.744,29.286Z" transform="translate(-22196.766 3901.996)" fill="#f04e98"></path>
    <path id="Path_128614" data-name="Path 128614" d="M2217.7,12964.242l-2.882-4.381a174.189,174.189,0,0,0,18.106-13.687l3.427,3.968a179.739,179.739,0,0,1-18.651,14.1" transform="translate(-22196.766 3901.996)" fill="#6ad1e3"></path>
    <rect id="Rectangle_4329" data-name="Rectangle 4329" width="31.235" height="5.244" transform="translate(-19979.305 16878.418) rotate(-38.403)" fill="#6ad1e3"></rect>
    <rect id="Rectangle_4330" data-name="Rectangle 4330" width="13.865" height="5.243" transform="matrix(0.765, -0.644, 0.644, 0.765, -19973.354, 16892.309)" fill="#6ad1e3"></rect>
    <rect id="Rectangle_4331" data-name="Rectangle 4331" width="5.244" height="30.541" transform="translate(-19969.088 16854.137) rotate(-26.37)" fill="#6ad1e3"></rect>
    <path id="Path_128615" data-name="Path 128615" d="M2257.464,12971.779a94.716,94.716,0,0,0-11.814-19.349l4.116-3.25a100.107,100.107,0,0,1,12.469,20.42Z" transform="translate(-22196.766 3901.996)" fill="#6ad1e3"></path>
    <rect id="Rectangle_4332" data-name="Rectangle 4332" width="7.805" height="5.244" transform="translate(-19922.113 16858.281)" fill="#6ad1e3"></rect>
    <path id="Path_128616" data-name="Path 128616" d="M2277.83,13110.169l-5.245-.039a72.113,72.113,0,0,0-3.405-22.48c-.431-1.355-1.625-4.523-3.379-4.667a5.184,5.184,0,0,0-2.682,1.021,27.909,27.909,0,0,0-11.046,13.243l-5-1.532a6.822,6.822,0,0,0-11.055-6.668c-1.591,1.336-2.611,3.416-3.69,5.618a24.261,24.261,0,0,1-4.12,6.5l-3.767-3.646a20.133,20.133,0,0,0,3.179-5.166c1.272-2.6,2.587-5.278,5.025-7.326a12.383,12.383,0,0,1,13.992-1.092,11.922,11.922,0,0,1,4.279,4.543,32.792,32.792,0,0,1,9.431-8.932,9.738,9.738,0,0,1,5.881-1.8c2.484.205,5.877,1.812,7.945,8.3a77.461,77.461,0,0,1,3.653,24.111" transform="translate(-22196.766 3901.996)" fill="#6ad1e3"></path>
    <path id="Path_128617" data-name="Path 128617" d="M2442.4,13106.981a15.759,15.759,0,0,1-10.234-3.781c-.414-.359-.812-.741-1.209-1.125a8.754,8.754,0,0,0-2.129-1.706c-3.1-1.414-7.039,3.341-8.59,5.451l-4.225-3.106c4.954-6.743,10.278-9.271,14.994-7.115a12.968,12.968,0,0,1,3.6,2.707c.326.316.651.634.991.928a10.579,10.579,0,0,0,8.383,2.379l.833,5.178a15.248,15.248,0,0,1-2.411.191" transform="translate(-22196.766 3901.996)" fill="#6ad1e3"></path>
    <path id="Path_128618" data-name="Path 128618" d="M2790.648,13013.591a58.485,58.485,0,1,1-58.485-58.484,58.486,58.486,0,0,1,58.485,58.484" transform="translate(-22196.766 3901.996)" fill="#f04e98"></path>
    <path id="Path_128619" data-name="Path 128619" d="M2732.163,13074.7a61.107,61.107,0,1,1,61.107-61.107,61.176,61.176,0,0,1-61.107,61.107m0-116.972a55.864,55.864,0,1,0,55.863,55.864,55.928,55.928,0,0,0-55.863-55.864" transform="translate(-22196.766 3901.996)" fill="#f04e98"></path>
    <path id="Path_128620" data-name="Path 128620" d="M2690.1,13049.168l-3.529-3.879a29.417,29.417,0,0,1,6.615-4.188c2.8-1.435,5.435-2.79,6.754-5.047,1.143-1.954,1.27-4.526,1.405-7.251l.011-.238c.345-6.936,1.1-15.057,4.084-22.715,3.215-8.25,8.668-14.666,15.355-18.066a27.1,27.1,0,0,1,28.052,2.463c5.761,4.34,10.037,11.408,12.04,19.9,1.721,7.3,1.728,14.788,1.576,22.459a5.261,5.261,0,0,0,.285,2.4,5.022,5.022,0,0,0,1.486.983l12.474,6.522-2.429,4.646-12.473-6.521a8.787,8.787,0,0,1-3.333-2.594,8.893,8.893,0,0,1-1.252-5.542c.145-7.32.143-14.447-1.438-21.151-1.723-7.3-5.306-13.312-10.091-16.918a21.771,21.771,0,0,0-22.521-1.977c-5.536,2.816-10.1,8.249-12.845,15.3-2.712,6.959-3.409,14.556-3.732,21.069l-.012.238c-.152,3.083-.324,6.578-2.115,9.641-2.092,3.575-5.546,5.349-8.887,7.063a25.133,25.133,0,0,0-5.48,3.4" transform="translate(-22196.766 3901.996)" fill="#fff"></path>
    <path id="Path_128621" data-name="Path 128621" d="M2518.61,13115.1l-3.665-3.75c6.684-6.531,13.319-13.3,19.721-20.121l3.823,3.59c-6.453,6.874-13.142,13.7-19.879,20.281" transform="translate(-22196.766 3901.996)" fill="#fff"></path>
    <rect id="Rectangle_4333" data-name="Rectangle 4333" width="135.609" height="5.244" transform="translate(-19686.955 17019.742)" fill="#f04e98"></rect>
    <rect id="Rectangle_4334" data-name="Rectangle 4334" width="135.609" height="5.244" transform="translate(-19686.955 17056.328)" fill="#f04e98"></rect>
    <rect id="Rectangle_4335" data-name="Rectangle 4335" width="135.609" height="5.244" transform="translate(-19686.955 17092.914)" fill="#f04e98"></rect>
    <rect id="Rectangle_4336" data-name="Rectangle 4336" width="135.609" height="5.244" transform="translate(-19686.955 17129.5)" fill="#f04e98"></rect>
    <rect id="Rectangle_4337" data-name="Rectangle 4337" width="86.341" height="5.244" transform="translate(-19686.955 17166.084)" fill="#f04e98"></rect>
    <path id="Path_128622" data-name="Path 128622" d="M2684.2,13176.691l-4.614-2.49a9.319,9.319,0,0,1,4.214-3.985l2.228,4.748a4.05,4.05,0,0,0-1.828,1.728" transform="translate(-22196.766 3901.996)" fill="#f04e98"></path>
    <rect id="Rectangle_4338" data-name="Rectangle 4338" width="2.487" height="5.244" transform="translate(-19502.166 17067.551) rotate(-11.685)" fill="#f04e98"></rect>
    <path id="Path_128623" data-name="Path 128623" d="M2701.389,13182.221l-3.714-3.7.494-.493,3.7,3.713Z" transform="translate(-22196.766 3901.996)" fill="#f04e98"></path>
    <rect id="Rectangle_4339" data-name="Rectangle 4339" width="3.81" height="5.244" transform="translate(-19466.719 17059.863) rotate(-39.825)" fill="#f04e98"></rect>
    <rect id="Rectangle_4340" data-name="Rectangle 4340" width="2.182" height="5.244" transform="translate(-19432.291 17062.637) rotate(-63.333)" fill="#f04e98"></rect>
    <path id="Path_128624" data-name="Path 128624" d="M2781.128,13145.864a5.934,5.934,0,0,0-3.367-.09l-1.366-5.062a11.268,11.268,0,0,1,6.367.17Z" transform="translate(-22196.766 3901.996)" fill="#f04e98"></path>
    <path id="Path_128625" data-name="Path 128625" d="M2784.16,13134.01a.738.738,0,0,0-.5-.3l.523-5.217a5.978,5.978,0,0,1,4.36,2.642Z" transform="translate(-22196.766 3901.996)" fill="#f04e98"></path>
    <path id="Path_128626" data-name="Path 128626" d="M2782.969,13157.431l-1.994-4.85a15.891,15.891,0,0,1,6.425-1.188l-.126,5.242a10.749,10.749,0,0,0-4.3.8" transform="translate(-22196.766 3901.996)" fill="#f04e98"></path>
    <path id="Path_128627" data-name="Path 128627" d="M2140.435,13205.708c-14.609-2.822-27.518-8.961-37.332-17.751a60.047,60.047,0,0,1-16.051-23.119,10.846,10.846,0,0,1-3.285-.7c-4.729-1.8-7.238-6.5-8.713-9.873a64.613,64.613,0,0,1,2.778-56.377l4.575,2.563a59.272,59.272,0,0,0-2.548,51.715c1.63,3.729,3.339,5.937,5.349,6.891a50.108,50.108,0,0,1-1.36-7.755c-.282-3-.423-7.45,1.6-11.354,1.9-3.68,6.317-6.911,11.067-5.988,3.946.772,7.191,4.426,7.893,8.881.5,3.205-.148,6.691-2,10.659-2.09,4.491-5.8,8.569-10.109,10.376a54.927,54.927,0,0,0,14.3,20.179c9.108,8.157,21.151,13.866,34.828,16.508Zm-45.6-66.67c-1.964,0-3.85,1.612-4.731,3.315-1.054,2.038-1.383,4.725-1.033,8.454a45.132,45.132,0,0,0,1.532,8.108c3.047-1.412,5.7-4.732,7.055-7.633,1.393-2.992,1.906-5.488,1.569-7.63-.309-1.96-1.686-4.152-3.721-4.552a3.554,3.554,0,0,0-.671-.063" transform="translate(-22196.766 3901.996)" fill="#6ad1e3"></path>
    <path id="Path_128628" data-name="Path 128628" d="M2168.113,13134.68c-19.78-29.156-38.919-59.307-56.884-89.61-.72-1.214-2.059-3.475-1.457-5.994l5.1,1.216c-.109.456.6,1.654.868,2.1,17.911,30.214,36.992,60.272,56.712,89.343Z" transform="translate(-22196.766 3901.996)" fill="#6ad1e3"></path>
    <path id="Path_128629" data-name="Path 128629" d="M2137.683,13254.022a213.7,213.7,0,0,1-60.51-19.118l2.3-4.711a208.4,208.4,0,0,0,59.026,18.648Z" transform="translate(-22196.766 3901.996)" fill="#6ad1e3"></path>
    <path id="Path_128630" data-name="Path 128630" d="M2133.974,13306.872a309.066,309.066,0,0,1-36.414-4.879l1-5.146a303.76,303.76,0,0,0,35.794,4.795Z" transform="translate(-22196.766 3901.996)" fill="#6ad1e3"></path>
    <path id="Path_128631" data-name="Path 128631" d="M2827.092,13151.317l-1.945-4.869a70.217,70.217,0,0,0,36.909-34.558,26,26,0,0,0,1.221-2.936c-3.447,2.585-7.2,4.953-11.665,5h-.1a10.716,10.716,0,0,1-8.272-4.151,7.634,7.634,0,0,1-1.4-6.873c.682-2.315,2.4-4.245,5.238-5.9a17.925,17.925,0,0,1,15.342-1.106,11.341,11.341,0,0,1,4.468,3.327,28.462,28.462,0,0,0,6.1-7.541,16.2,16.2,0,0,0,1.822-8.765,59.972,59.972,0,0,1-11.891,5.211c-9.375,2.934-15.285-.326-16.983-4.857a8.327,8.327,0,0,1,.536-7.006c1.8-3.393,5.864-6.275,10.344-7.346,6.166-1.476,14.547-1,19.579,4.754a14.728,14.728,0,0,1,1.045,1.346c19.177-13.788,30.515-39,26.047-62.315l5.151-.987c4.906,25.613-7.756,53.324-29.027,68.159a20.706,20.706,0,0,1-1.985,14.254,35.465,35.465,0,0,1-8.6,10.215c.445,3.519-.858,6.89-2.236,9.773a75.517,75.517,0,0,1-39.7,37.165m28.967-51.384a12.86,12.86,0,0,0-6.344,1.637c-1.6.933-2.562,1.891-2.845,2.847a2.54,2.54,0,0,0,.556,2.226,5.448,5.448,0,0,0,4.085,2.072h.042c3.209-.036,6.249-2.163,9.338-4.53.67-.514,1.335-1.026,1.991-1.545a6.039,6.039,0,0,0-2.527-1.889,11.033,11.033,0,0,0-4.3-.816m6.83-26.459a21.214,21.214,0,0,0-4.858.579c-2.939.7-5.854,2.684-6.933,4.708a3.151,3.151,0,0,0-.255,2.7c1.216,3.245,7.09,2.76,10.507,1.693a55.477,55.477,0,0,0,11.694-5.232,8.873,8.873,0,0,0-.6-.765c-2.372-2.709-6.006-3.687-9.557-3.687" transform="translate(-22196.766 3901.996)" fill="#6ad1e3"></path>
    <rect id="Rectangle_4341" data-name="Rectangle 4341" width="67" height="5.244" transform="translate(-19298.869 17080.924) rotate(-41.283)" fill="#6ad1e3"></rect>
    <path id="Path_128632" data-name="Path 128632" d="M2919.832,13237.729l-.583-5.211c6.754-.755,13-4.142,19.872-8.158,11.476-6.7,22.993-13.721,34.229-20.854,5.045-3.2,9.714-6.469,11.432-11.206l4.929,1.79c-2.279,6.283-7.944,10.283-13.551,13.843-11.291,7.17-22.863,14.221-34.394,20.953-7.4,4.325-14.159,7.975-21.934,8.844" transform="translate(-22196.766 3901.996)" fill="#6ad1e3"></path>
    <path id="Path_128633" data-name="Path 128633" d="M2928.031,13300.363c-.247,0-.493,0-.739,0l.081-5.244a42.191,42.191,0,0,0,22.044-5.8l2.652,4.524a47.513,47.513,0,0,1-24.038,6.527" transform="translate(-22196.766 3901.996)" fill="#6ad1e3"></path>
    <path id="Path_128634" data-name="Path 128634" d="M2427.373,13716.8l-.119-24.868c-.029-6.382-2.008-11.9-5.571-15.529-3.918-4-9.93-5.322-14.293-3.159a9.3,9.3,0,0,0-4.634,6.064,8.8,8.8,0,0,0-.262,2.122q.851,2.307,1.594,4.643l4.913,15.4-9.529-13.053a11.685,11.685,0,0,1-2.161-5.883,111.7,111.7,0,0,0-20.811-34.607c-3.542-4-8.361-8.778-14.237-10.274-8.158-2.079-20.1,3.324-25.175,15.674-4.494,10.943-3.241,23.948-2.234,34.4l.568,5.9-4.749-3.551c-3.088-2.311-7.133-1.648-9.891-.258s-5.7,4.247-5.677,8.1l-5.244.026c-.026-5.229,3.255-10.138,8.561-12.812a15.736,15.736,0,0,1,10.791-1.42c-.88-10.118-1.3-21.841,3.026-32.378,4.886-11.9,17.937-22.168,31.318-18.764,7.26,1.848,12.829,7.319,16.87,11.88a116.837,116.837,0,0,1,18.972,29.4,13.96,13.96,0,0,1,5.66-5.307c6.338-3.146,14.905-1.386,20.368,4.185a24.15,24.15,0,0,1,5.792,10.136,23.01,23.01,0,0,1,18.022-9.3h.193a23.014,23.014,0,0,1,21.779,18.235l-5.152.972a17.857,17.857,0,0,0-16.677-13.963c-.047,0-.094,0-.141,0a17.869,17.869,0,0,0-16.8,13.643Z" transform="translate(-22196.766 3901.996)" fill="#5c54a3"></path>
    <path id="Path_128635" data-name="Path 128635" d="M2697.1,13692.422l-5.172-.865a36.28,36.28,0,0,1,13.556-22.56,11.123,11.123,0,0,1,5.19-2.475,7.623,7.623,0,0,1,5.831,1.573,11.813,11.813,0,0,1,3.2,4.1c2.816-6.8,6.636-13.8,13.063-18.464a22.871,22.871,0,0,1,18.714-3.4,15.339,15.339,0,0,1,10.4,8.521l-4.8,2.111a10.2,10.2,0,0,0-6.97-5.57,17.413,17.413,0,0,0-14.263,2.587c-7.515,5.456-11.122,15.4-14.019,23.385l-3.794,10.458-1.276-11.053c-.441-3.83-1.836-7.255-3.471-8.522a2.368,2.368,0,0,0-1.9-.524,6.531,6.531,0,0,0-2.714,1.44,30.979,30.979,0,0,0-11.578,19.266" transform="translate(-22196.766 3901.996)" fill="#5c54a3"></path>
  </g>
</svg>
