<?xml version="1.0" encoding="UTF-8"?>
<svg xmlns="http://www.w3.org/2000/svg" width="955.511" height="963.47" viewBox="0 0 955.511 963.47">
  <g id="Group_3663" data-name="Group 3663" transform="translate(14236.336 -13947.877)">
    <path id="Path_128159" data-name="Path 128159" d="M8465.932,8122.434A1221.579,1221.579,0,0,1,8316.86,8239c-4.2,2.785-8.515,5.591-13.4,6.8-6.256,1.547-12.822.337-19.165-.806a862.632,862.632,0,0,0-149.15-13.654c-12.487-.054-25.921.472-35.879,8-7.516,5.685-11.937,14.682-14.073,23.86-7.641,32.833,10.936,65.627,30.159,93.321a982.267,982.267,0,0,0,109,131.078c20.6,20.794,42.9,41.155,70.326,51.376,21.389,7.969,50.629,6.344,60.748-14.114,3.746-7.574,4.056-16.326,4.292-24.774q1.9-67.928,3.808-135.857c.213-7.586.481-15.424,3.717-22.289,3.5-7.443,10.089-12.9,16.481-18.075q59.631-48.309,120.892-94.554c5.55-4.189,11.927-8.595,18.812-7.613,2.65.377,5.337,1.55,7.9.793,2.741-.808,4.413-3.577,5.333-6.282,2.428-7.133,1.426-14.953-.135-22.324a157.614,157.614,0,0,0-49.54-84.845c-3.22-2.839-6.979-5.7-11.269-5.541s-8.336,5.155-5.989,8.75" transform="translate(-22319.766 5922.996)" fill="#6ad1e3"></path>
    <rect id="Rectangle_4092" data-name="Rectangle 4092" width="454.69" height="439.92" transform="translate(-14236.336 14026.496)" fill="none"></rect>
    <path id="Path_128160" data-name="Path 128160" d="M8700.342,8170.107a921.769,921.769,0,0,1,131.435,55.822c3.372,1.752,6.8,3.577,9.387,6.363,3.309,3.565,4.909,8.342,6.474,12.947a650.847,650.847,0,0,0,45.49,103.463c4.527,8.263,9.783,16.94,18.4,20.763,6.5,2.885,14.054,2.517,20.895.572,24.471-6.954,39.332-31.2,50.592-54.015a741.231,741.231,0,0,0,46.707-119.866c6.2-21.2,11.494-43.363,8.219-65.206-2.556-17.033-14.313-35.744-31.52-34.949-6.369.294-12.26,3.289-17.924,6.219l-91.087,47.136c-5.086,2.632-10.359,5.318-16.074,5.691-6.194.406-12.2-1.948-17.958-4.276q-53.684-21.714-106.6-45.261c-4.795-2.133-10.032-4.734-11.9-9.637-.719-1.888-.927-4.091-2.365-5.509-1.534-1.514-3.974-1.606-6.1-1.225-5.6,1-10.393,4.523-14.688,8.248a118.931,118.931,0,0,0-37.912,63.713c-.7,3.163-1.212,6.689.46,9.464s6.448,3.62,7.965.757" transform="translate(-22319.766 5922.996)" fill="#6ad1e3"></path>
    <rect id="Rectangle_4093" data-name="Rectangle 4093" width="355.79" height="282.61" transform="translate(-13636.615 14011.945)" fill="none"></rect>
    <path id="Path_128161" data-name="Path 128161" d="M8535.872,8559.678c-34.525-35.461-71.187-82.312-100.585-128.54-24.5-38.523-55.8-95.338-65.8-147.224-1.024-5.318-4.144-21.5,5.913-29.665a11.191,11.191,0,0,1,8-2.353,18.34,18.34,0,0,1,7.062-13.526,16.315,16.315,0,0,1,14.033-2.27,13.315,13.315,0,0,1,2.738-4.949c6.272-7.081,17.3-7.063,24.951-3.387,7.8,3.752,13.562,10.778,18.188,16.425q9.1,11.1,18.15,22.275c31.421,38.676,63.912,78.669,100.292,113.734,49.03,47.256,99.581,79.328,150.249,95.322,9.022,2.846,18.432,4.95,26.12,1.1,7.492-3.744,12.151-12.375,14.661-27.163a218.99,218.99,0,0,0-4.66-93.9c-5.1-18.635-15.583-42.442-36.512-50.038-23.938-8.689-50.331,8.108-64.72,27.394-8.415,11.28-14.83,24.247-21.033,36.785-5.268,10.645-10.712,21.652-17.415,31.759l-4.532-3c6.514-9.821,11.882-20.672,17.074-31.165,6.311-12.757,12.838-25.948,21.548-37.625,15.553-20.846,44.38-38.893,70.933-29.254,23.114,8.39,34.456,33.84,39.9,53.712a224.492,224.492,0,0,1,4.777,96.242c-1.778,10.472-5.536,25.091-17.591,31.117-9.442,4.721-20.56,2.252-30.187-.786-51.476-16.249-102.745-48.747-152.386-96.591-36.617-35.294-69.214-75.417-100.738-114.22q-9.056-11.147-18.137-22.26c-4.511-5.5-9.621-11.74-16.338-14.97-5.811-2.792-14.04-2.97-18.527,2.092a8.068,8.068,0,0,0-1.76,3.513c5.138,3.108,7.976,8.056,7.628,13.386l-.192,2.935-2.911-.423c-4.167-.6-7.625-3.616-9.25-8.056a16.183,16.183,0,0,1-.949-4.5c-3.258-1.073-7.19-1.076-10.167,1.129a13.092,13.092,0,0,0-4.914,10.18c-.007.142-.011.284-.013.426a16.024,16.024,0,0,1,5.17,3.823c3.679,4.151,3.728,9.081.125,12.562l-1.795,1.733-1.88-1.639a21.091,21.091,0,0,1-6.746-12.436,5.971,5.971,0,0,0-4.827,1.084c-5.065,4.112-6.375,12.1-4,24.415,7.787,40.405,30.281,90.661,65.051,145.336,29.205,45.929,65.613,92.459,99.891,127.664Z" transform="translate(-22319.766 5922.996)" fill="#360484"></path>
    <path id="Path_128162" data-name="Path 128162" d="M8864.719,8520.084l-5.432-.211c4.448-114.484-17.826-228.718-39.368-339.191-2.113-10.836-4.742-24.32-13.055-33.219-2.514-2.692-4.922-4.071-7.157-4.1a5.182,5.182,0,0,0-4.4,2.046c-1.628,2.013-2.478,5.208-2.726,8.691a16.378,16.378,0,0,1,.705,11.322l-3.013,9.634-2.232-9.843a40.28,40.28,0,0,1-.958-10,14.637,14.637,0,0,0-1.942-2.844,12.5,12.5,0,0,0-10.078-4.62,17.949,17.949,0,0,0-3.586,5.785c3.838,2.033,6.288,6.667,6.022,11.531-.239,4.347-2.678,7.77-6.362,8.934l-2.043.646-1.105-1.836a23.957,23.957,0,0,1-3.035-15.205c-3.907.286-7.916,3.145-9.979,6.631-3.183,5.38-3.531,12.3-3.837,18.4l-6.946,138.061-5.429-.273,6.945-138.061c.321-6.4.722-14.358,4.59-20.9,3.214-5.432,9.542-9.689,15.942-9.334a23.062,23.062,0,0,1,5.673-8.926l.608-.586.834-.136a17.2,17.2,0,0,1,14.861,5.215,16.528,16.528,0,0,1,2.865-5.711,10.547,10.547,0,0,1,8.691-4.062c3.777.048,7.5,2.007,11.063,5.824,9.376,10.038,12.171,24.371,14.417,35.889,21.6,110.778,43.938,225.328,39.464,340.443M8770.2,8159.3a18.954,18.954,0,0,0,1.149,8.034,5.765,5.765,0,0,0,.721-2.566,7.607,7.607,0,0,0-1.87-5.468" transform="translate(-22319.766 5922.996)" fill="#360484"></path>
    <path id="Path_128163" data-name="Path 128163" d="M8865.257,8988.351l-1.159-1.838c-5.2-8.24-4.057-17.847-2.95-27.136a89.2,89.2,0,0,0,.9-12.391c-.444-17.964-13.086-32.965-25.311-47.473q-1.276-1.516-2.539-3.018a397.813,397.813,0,0,1-63.224-104.736,530.29,530.29,0,0,1-199.273-6.385l29.165,41.175c1.758,2.482,4.164,5.88,4.248,9.947.118,5.646-3.932,9.792-8.325,13.432a545.6,545.6,0,0,1-73.708,51.421c-8.675,5.042-18,9.969-28.284,10.021h-.115c-10.407,0-22.418-6.954-23.763-18.25-.817-6.88,2.336-12.935,5.384-18.79,2.761-5.3,5.366-10.309,4.848-15.479-.562-5.583-4.74-10.4-8.779-15.062a459.592,459.592,0,0,1-43.023-58.4c-14.865-23.934-33.666-59.94-25.354-96.169,4.46-19.432,17.8-36.948,36.605-48.061,17.958-10.613,38.632-14.043,57.157-9.57l26.165-87.855,5.21,1.551-27.685,92.954-2.583-.737c-17.746-5.059-37.974-2.02-55.5,8.337s-29.942,26.613-34.071,44.6c-5.985,26.085,1.854,55.345,24.672,92.084a454.5,454.5,0,0,0,42.515,57.705c4.379,5.053,9.344,10.779,10.079,18.076.682,6.786-2.427,12.76-5.435,18.535-2.79,5.36-5.426,10.422-4.807,15.637.772,6.486,8,13.455,18.337,13.455h.115c8.941-.046,17.542-4.61,25.58-9.282a540.483,540.483,0,0,0,72.971-50.907c3.344-2.771,6.428-5.794,6.359-9.135-.046-2.22-1.5-4.445-3.248-6.916l-37.5-52.937,7.04,1.7a524.462,524.462,0,0,0,206.258,7.593l2.148-.353.813,2.018A392.381,392.381,0,0,0,8838.368,8893q1.254,1.5,2.529,3.006c12.23,14.517,26.094,30.968,26.587,50.84a93.068,93.068,0,0,1-.94,13.169c-.94,7.917-1.837,15.437,1.113,21.7a227.463,227.463,0,0,0,91.208-61.916c5.25-5.879,10.149-12.315,10.441-19.551.278-6.9-3.849-13.774-7.163-19.3-29.487-49.159-60-101.819-80.643-157.581-23.057-62.291-30.937-121.083-23.424-174.742l5.383.754c-7.388,52.759.4,110.661,23.14,172.1,20.478,55.323,50.851,107.731,80.206,156.671,3.687,6.146,8.276,13.8,7.932,22.315-.361,8.947-5.892,16.319-11.817,22.953a232.889,232.889,0,0,1-95.615,64.2Z" transform="translate(-22319.766 5922.996)" fill="#360484"></path>
    <path id="Path_128164" data-name="Path 128164" d="M8758.127,8407.211l-13.5-7.916c-4.84-2.837-10.324-6.052-14.176-11.023a21.471,21.471,0,0,1-3.044-5.35,16.529,16.529,0,0,1-7.182,3.553c-6.259,1.348-13.512-.738-19.4-5.585a46.553,46.553,0,0,1-8.973-10.4,12.469,12.469,0,0,1-1.606.365c-7.353,1.155-15.348-2.746-21.373-10.431a44.582,44.582,0,0,1-7.773-38.561l5.244,1.433a39.044,39.044,0,0,0,6.809,33.774c3.573,4.558,9.5,9.09,15.6,8.5-1.794-2.972-3.384-5.941-3.474-9.447-.1-4.159,2.686-8.909,7.376-9.331a8.6,8.6,0,0,1,7.254,3.3,11.043,11.043,0,0,1,1.533,11.257,15.582,15.582,0,0,1-4.776,6.564,40.735,40.735,0,0,0,7.613,8.778c4.616,3.8,10.147,5.471,14.8,4.469a11.562,11.562,0,0,0,7.039-4.906,14.659,14.659,0,0,1,1.646-6.852l4.156-7.873.948,8.853a13.341,13.341,0,0,1-1.244,7.069,15.371,15.371,0,0,0,3.125,7.49c3.207,4.141,8,6.948,12.627,9.663l13.5,7.916ZM8693.3,8352.2c-.053,0-.1,0-.153.008-1.419.127-2.471,2.135-2.43,3.776.059,2.257,1.309,4.494,2.813,6.975.066.108.132.218.2.327a10.165,10.165,0,0,0,2.632-3.854c.5-1.313,1.073-3.823-.623-5.86a3.465,3.465,0,0,0-2.437-1.372" transform="translate(-22319.766 5922.996)" fill="#360484"></path>
    <path id="Path_128165" data-name="Path 128165" d="M8645.921,8388.3a4.407,4.407,0,0,1-3.3-1.46,5.892,5.892,0,0,1-1.343-3.513,43.517,43.517,0,0,1,.625-12.777l5.332,1.062a38.1,38.1,0,0,0-.583,10.8,5.406,5.406,0,0,0,.755-.71c1.284-1.47,2.28-2.691,2.451-3.929a1.584,1.584,0,0,0-.517-1.363l-.118-5.424a5.518,5.518,0,0,1,4.3,1.905,7.173,7.173,0,0,1,1.726,5.632c-.41,2.942-2.338,5.147-3.746,6.758-.613.7-2.826,2.992-5.528,3.019Z" transform="translate(-22319.766 5922.996)" fill="#360484"></path>
    <path id="Path_128166" data-name="Path 128166" d="M8636.658,8417.687l-.619-5.4a31.877,31.877,0,0,0,22.768-14.269l4.59,2.912a36.929,36.929,0,0,1-26.738,16.756" transform="translate(-22319.766 5922.996)" fill="#360484"></path>
    <path id="Path_128167" data-name="Path 128167" d="M8863.332,8537.64a11.988,11.988,0,0,1-6.93-2.2l3.153-4.431a6.594,6.594,0,0,0,5.649.915l1.595,5.2a11.843,11.843,0,0,1-3.468.518" transform="translate(-22319.766 5922.996)" fill="#360484"></path>
    <path id="Path_128168" data-name="Path 128168" d="M8363.522,8364.232q.028-.983.059-1.972c-2.594-1.511-5.243-2.938-7.872-4.353-16.595-8.923-34.583-18.127-53.279-15.793-14.681,1.833-28.078,10.7-42.873,10.818-18.839.147-34.8-13.729-53.134-18.069-19.623-4.646-39.888,1.951-59.749,5.446-14.572,2.565-31,2.806-43.942-3.256,3.978,6.71,8.279,13.222,12.617,19.471a982.184,982.184,0,0,0,109,131.077c20.6,20.794,42.9,41.156,70.326,51.376,21.389,7.969,50.629,6.345,60.748-14.113,3.746-7.575,4.056-16.327,4.292-24.774q1.9-67.929,3.808-135.858" transform="translate(-22319.766 5922.996)" fill="#f04e98"></path>
    <rect id="Rectangle_4094" data-name="Rectangle 4094" width="260.85" height="210.16" transform="translate(-14217.035 14256.256)" fill="none"></rect>
    <path id="Path_128169" data-name="Path 128169" d="M9021.67,8221.879a33.608,33.608,0,0,0-19.619-3.6c-17.891,2.472-32.306,20.622-50.191,18.124-10.883-1.52-19.334-10.483-29.932-13.388-26.238-7.187-55.548,24.057-78.443,9.362l1.1,5.032a63.8,63.8,0,0,1,3.057,7.831,650.847,650.847,0,0,0,45.49,103.463c4.527,8.263,9.783,16.94,18.4,20.763,6.5,2.885,14.054,2.517,20.895.572,24.471-6.954,39.332-31.2,50.592-54.015a741.561,741.561,0,0,0,38.66-94.144" transform="translate(-22319.766 5922.996)" fill="#703dc1"></path>
    <path id="Path_128170" data-name="Path 128170" d="M8922.05,8372.068a26.284,26.284,0,0,1-10.729-2.146c-8.7-3.862-13.976-12.482-18.63-20.979a652.7,652.7,0,0,1-45.528-103.542,63.693,63.693,0,0,0-3.03-7.771l-.04-.115-1.352-6.212,1.015.652c12.117,7.776,25.974,2.494,40.646-3.1,12.484-4.761,25.4-9.682,37.658-6.324,4.854,1.331,9.3,3.937,13.6,6.457,5.115,3,10.4,6.1,16.269,6.918,9.874,1.376,18.565-3.582,27.766-8.834,7.055-4.028,14.35-8.193,22.288-9.29a34.113,34.113,0,0,1,19.911,3.649l.388.194-.137.412a743.81,743.81,0,0,1-38.687,94.206c-11.3,22.9-26.187,47.25-50.9,54.273a38.924,38.924,0,0,1-10.5,1.551m-76.993-134.827a65.132,65.132,0,0,1,3.054,7.838,651.646,651.646,0,0,0,45.457,103.383c4.573,8.348,9.741,16.81,18.159,20.546,7.25,3.218,15.182,2.075,20.556.548,24.339-6.918,39.075-31.056,50.281-53.756a742.932,742.932,0,0,0,38.494-93.665,32.973,32.973,0,0,0-18.939-3.362c-7.746,1.07-14.956,5.187-21.928,9.168-8.941,5.105-18.186,10.379-28.4,8.956-6.062-.847-11.437-4-16.635-7.045-4.245-2.488-8.632-5.06-13.36-6.354-11.951-3.277-24.7,1.589-37.039,6.293-14.515,5.536-28.247,10.77-40.534,3.623Z" transform="translate(-22319.766 5922.996)" fill="#703dc1"></path>
    <path id="Path_128171" data-name="Path 128171" d="M8193,8388.481a9.756,9.756,0,0,1-5.333-1.5l2.934-4.575c2.138,1.371,5.432.259,7.6-1.113,1.135-.716,2.22-1.56,3.366-2.454a31.44,31.44,0,0,1,6.147-4.04c8.041-3.689,16.839-.689,24.6,1.955l.7.238c6.123,2.083,13.339,4.172,20.643,4.079,7.351-.12,13.941-2.687,18.082-7.042l3.94,3.746c-5.142,5.4-13.135,8.588-21.935,8.73-8.106.146-15.916-2.134-22.48-4.368l-.7-.237c-7.133-2.433-14.508-4.946-20.581-2.159a26.872,26.872,0,0,0-5.074,3.387,46.751,46.751,0,0,1-3.8,2.762,15.382,15.382,0,0,1-8.105,2.592" transform="translate(-22319.766 5922.996)" fill="#6ad1e3"></path>
    <path id="Path_128172" data-name="Path 128172" d="M8243.315,8407.83c-.383,0-.766-.008-1.146-.024a50.631,50.631,0,0,1-6.626-.869,32.234,32.234,0,0,0-7.933-.763l-.408-5.42a36.715,36.715,0,0,1,9.288.829,45.767,45.767,0,0,0,5.917.792,21.335,21.335,0,0,0,13.031-3.773l3.1,4.462a26.8,26.8,0,0,1-15.228,4.767" transform="translate(-22319.766 5922.996)" fill="#6ad1e3"></path>
    <path id="Path_128173" data-name="Path 128173" d="M8288.791,8372.429l-4.166-3.492a13.284,13.284,0,0,1,10.538-4.7l-.187,5.433a7.871,7.871,0,0,0-6.186,2.756" transform="translate(-22319.766 5922.996)" fill="#6ad1e3"></path>
    <rect id="Rectangle_4095" data-name="Rectangle 4095" width="6.068" height="5.436" transform="translate(-14026.97 14300.839)" fill="#6ad1e3"></rect>
    <rect id="Rectangle_4096" data-name="Rectangle 4096" width="6.067" height="5.436" transform="translate(-14039.864 14316.009)" fill="#6ad1e3"></rect>
    <path id="Path_128174" data-name="Path 128174" d="M8269.133,8433.027l-2.685-4.729a52.675,52.675,0,0,1,21.56-6.641c1.235-.1,2.482-.159,3.73-.217,3.522-.161,6.847-.314,9.806-1.465a30.842,30.842,0,0,0,7.246-4.579,43.96,43.96,0,0,1,6.728-4.506c7.892-4.007,17.1-3.1,24.5-2.374l-.532,5.41c-6.7-.66-15.03-1.479-21.509,1.813a39.2,39.2,0,0,0-5.886,3.976,35.462,35.462,0,0,1-8.577,5.327c-3.79,1.474-7.725,1.655-11.528,1.83-1.183.053-2.366.105-3.538.2a47.16,47.16,0,0,0-19.316,5.951" transform="translate(-22319.766 5922.996)" fill="#6ad1e3"></path>
    <rect id="Rectangle_4097" data-name="Rectangle 4097" width="6.827" height="5.436" transform="translate(-14080.067 14360.763)" fill="#6ad1e3"></rect>
    <path id="Path_128175" data-name="Path 128175" d="M8251.994,8453.691l-1.816-5.122a9.761,9.761,0,0,1,6.311-.066l-1.709,5.161a4.378,4.378,0,0,0-2.785.027" transform="translate(-22319.766 5922.996)" fill="#6ad1e3"></path>
    <path id="Path_128176" data-name="Path 128176" d="M8270.518,8477.766l-.806-5.377a58.944,58.944,0,0,0,20.732-7.282c.449-.263.895-.529,1.342-.8a34.39,34.39,0,0,1,5.849-3.007c4.762-1.743,9.8-1.425,14.25-1.145l-.342,5.425c-4.1-.257-8.35-.525-12.039.826a29.748,29.748,0,0,0-4.924,2.563c-.466.28-.933.561-1.4.833a64.433,64.433,0,0,1-22.66,7.962" transform="translate(-22319.766 5922.996)" fill="#6ad1e3"></path>
    <rect id="Rectangle_4098" data-name="Rectangle 4098" width="13.983" height="5.435" transform="matrix(0.981, -0.196, 0.196, 0.981, -14029.039, 14419.122)" fill="#6ad1e3"></rect>
    <path id="Path_128177" data-name="Path 128177" d="M8309.728,8516.6l-2-5.057a3.34,3.34,0,0,0,2-2.486l5.364.873a8.826,8.826,0,0,1-5.371,6.67" transform="translate(-22319.766 5922.996)" fill="#6ad1e3"></path>
    <path id="Path_128178" data-name="Path 128178" d="M8318.832,8497.938c-.087,0-.173,0-.26-.01a4.342,4.342,0,0,1-.44-8.523l.53,3.105a1.35,1.35,0,0,0-1.178.876,1.4,1.4,0,0,0,1.034,1.342l.337-1.086.192,1.121a1.4,1.4,0,0,0,1.2-1.193,1.342,1.342,0,0,0-1.051-1.023l.935-3.009a4.354,4.354,0,0,1-1.3,8.4" transform="translate(-22319.766 5922.996)" fill="#6ad1e3"></path>
    <path id="Path_128179" data-name="Path 128179" d="M8928.158,8264.732c-5.573,0-11.076-3.315-15.933-6.824s-11.052-7.244-15.92-5.024a19.9,19.9,0,0,0-3.813,2.616c-2.655,2.117-5.665,4.513-9.73,4.006l.678-5.394c1.67.219,3.254-.943,5.662-2.862a24.17,24.17,0,0,1,4.945-3.31c7.415-3.395,15.312,1.189,21.363,5.561,5.169,3.736,11.1,7.265,15.936,5.123l2.2,4.97a13.153,13.153,0,0,1-5.392,1.139" transform="translate(-22319.766 5922.996)" fill="#f04e98"></path>
    <path id="Path_128180" data-name="Path 128180" d="M8945.28,8267.956a4.279,4.279,0,0,1-1.347-.215,4.569,4.569,0,0,1-2.61-6.282l3.172,1.588a1.093,1.093,0,0,0-.078.263l.927.163.84.42a1.083,1.083,0,0,0,.093-.257l3.493.614a4.474,4.474,0,0,1-2.138,3.047,4.593,4.593,0,0,1-2.352.659" transform="translate(-22319.766 5922.996)" fill="#f04e98"></path>
    <rect id="Rectangle_4099" data-name="Rectangle 4099" width="4.17" height="5.435" transform="translate(-13376.568 14197.199) rotate(-14.057)" fill="#f04e98"></rect>
    <rect id="Rectangle_4100" data-name="Rectangle 4100" width="5.437" height="2.262" transform="translate(-13363.004 14194.325) rotate(-63.324)" fill="#f04e98"></rect>
    <rect id="Rectangle_4101" data-name="Rectangle 4101" width="10.935" height="5.436" transform="matrix(0.844, -0.536, 0.536, 0.844, -13344.006, 14178.33)" fill="#f04e98"></rect>
    <path id="Path_128181" data-name="Path 128181" d="M8962.807,8299.912q-.256,0-.513-.006c-4.632-.111-9.448-1.581-14.725-4.492l-.14-.078a5.446,5.446,0,0,0-1.627-.714c-.668-.056-1.713.681-2.717,1.4-.378.271-.754.539-1.131.787-4.611,3.033-10.889,3.657-17.221,1.707-5.364-1.649-10.114-4.844-14.3-7.662l3.033-4.512c4.068,2.736,8.275,5.564,12.869,6.979,4.707,1.449,9.432,1.055,12.635-1.053.318-.209.636-.437.954-.666,1.643-1.175,3.679-2.64,6.371-2.394a9.412,9.412,0,0,1,3.769,1.372l.135.072c4.494,2.48,8.493,3.729,12.228,3.818A13.207,13.207,0,0,0,8973,8290.21l4.174,3.484a18.671,18.671,0,0,1-14.367,6.218" transform="translate(-22319.766 5922.996)" fill="#f04e98"></path>
    <path id="Path_128182" data-name="Path 128182" d="M8924.509,8326.292a48.955,48.955,0,0,1-14.844-2.3l1.658-5.178a43.374,43.374,0,0,0,17.121,1.863l.5,5.412c-1.471.138-2.955.206-4.44.206" transform="translate(-22319.766 5922.996)" fill="#f04e98"></path>
    <rect id="Rectangle_4102" data-name="Rectangle 4102" width="5.435" height="2.262" transform="translate(-13403.405 14265.025) rotate(-63.424)" fill="#f04e98"></rect>
    <rect id="Rectangle_4103" data-name="Rectangle 4103" width="5.436" height="1.43" transform="matrix(0.707, -0.707, 0.707, 0.707, -13388.94, 14257.439)" fill="#f04e98"></rect>
    <rect id="Rectangle_4104" data-name="Rectangle 4104" width="5.436" height="15.168" transform="translate(-14087.99 14211.523) rotate(-35.792)" fill="#f04e98"></rect>
    <rect id="Rectangle_4105" data-name="Rectangle 4105" width="5.437" height="6.784" transform="matrix(0.902, -0.432, 0.432, 0.902, -14069.196, 14205.147)" fill="#f04e98"></rect>
    <rect id="Rectangle_4106" data-name="Rectangle 4106" width="7.701" height="5.437" transform="translate(-14054.98 14222.05) rotate(-65.962)" fill="#f04e98"></rect>
    <rect id="Rectangle_4107" data-name="Rectangle 4107" width="6.475" height="5.436" transform="matrix(0.783, -0.622, 0.622, 0.783, -14025.958, 14236.097)" fill="#f04e98"></rect>
    <rect id="Rectangle_4108" data-name="Rectangle 4108" width="5.436" height="1.012" transform="translate(-13994.542 14239.334)" fill="#f04e98"></rect>
    <rect id="Rectangle_4109" data-name="Rectangle 4109" width="5.435" height="24.46" transform="matrix(0.876, -0.482, 0.482, 0.876, -14187.232, 14205.163)" fill="#f04e98"></rect>
    <path id="Path_128183" data-name="Path 128183" d="M8162.55,8293.713a49.2,49.2,0,0,1-1.447-12.83l5.435.1a43.749,43.749,0,0,0,1.287,11.415Z" transform="translate(-22319.766 5922.996)" fill="#f04e98"></path>
    <rect id="Rectangle_4110" data-name="Rectangle 4110" width="6.783" height="5.435" transform="matrix(0.896, -0.443, 0.443, 0.896, -14146.732, 14230.88)" fill="#f04e98"></rect>
    <rect id="Rectangle_4111" data-name="Rectangle 4111" width="7.701" height="5.436" transform="translate(-14128.453 14216.532) rotate(-23.219)" fill="#f04e98"></rect>
    <rect id="Rectangle_4112" data-name="Rectangle 4112" width="2.023" height="5.436" transform="translate(-14172.86 14231.559)" fill="#f04e98"></rect>
    <rect id="Rectangle_4113" data-name="Rectangle 4113" width="5.436" height="6.152" transform="translate(-14118.726 14235.112) rotate(-80.497)" fill="#f04e98"></rect>
    <rect id="Rectangle_4114" data-name="Rectangle 4114" width="2.262" height="5.436" transform="translate(-13989.047 14240.854) rotate(-26.65)" fill="#f04e98"></rect>
    <rect id="Rectangle_4115" data-name="Rectangle 4115" width="5.436" height="8.333" transform="translate(-13991.384 14224.913) rotate(-78.366)" fill="#f04e98"></rect>
    <rect id="Rectangle_4116" data-name="Rectangle 4116" width="3.646" height="5.436" transform="translate(-13975.719 14230.809) rotate(-55.442)" fill="#f04e98"></rect>
    <rect id="Rectangle_4117" data-name="Rectangle 4117" width="5.436" height="2.262" transform="matrix(0.454, -0.891, 0.891, 0.454, -13435.731, 14124.325)" fill="#360484"></rect>
    <path id="Path_128184" data-name="Path 128184" d="M8898.81,8206.993a41.16,41.16,0,0,1-2.145-16.259l5.422.388a35.7,35.7,0,0,0,1.859,14.092Z" transform="translate(-22319.766 5922.996)" fill="#360484"></path>
    <rect id="Rectangle_4118" data-name="Rectangle 4118" width="2.86" height="5.436" transform="matrix(0.707, -0.707, 0.707, 0.707, -13396.021, 14118.07)" fill="#360484"></rect>
    <rect id="Rectangle_4119" data-name="Rectangle 4119" width="3.199" height="5.437" transform="translate(-13386.801 14129.688) rotate(-17.983)" fill="#360484"></rect>
    <path id="Path_128185" data-name="Path 128185" d="M8973.705,8183.678l-5.156-1.719a10.789,10.789,0,0,1,6.868-6.764l1.642,5.181a5.348,5.348,0,0,0-3.354,3.3" transform="translate(-22319.766 5922.996)" fill="#360484"></path>
    <path id="Path_128186" data-name="Path 128186" d="M8981.382,8201.683h-.14l.1-5.436a2.582,2.582,0,0,0,2.41-1.876l5.3,1.231a8.012,8.012,0,0,1-7.669,6.081" transform="translate(-22319.766 5922.996)" fill="#360484"></path>
    <rect id="Rectangle_4120" data-name="Rectangle 4120" width="5.435" height="5.446" transform="translate(-13324.312 14109.367) rotate(-68.209)" fill="#360484"></rect>
    <rect id="Rectangle_4121" data-name="Rectangle 4121" width="7.703" height="5.436" transform="matrix(0.919, -0.395, 0.395, 0.919, -13360.781, 14122.56)" fill="#360484"></rect>
    <rect id="Rectangle_4122" data-name="Rectangle 4122" width="5.897" height="5.435" transform="matrix(0.515, -0.857, 0.857, 0.515, -13320.576, 14121.626)" fill="#360484"></rect>
    <path id="Path_128187" data-name="Path 128187" d="M9010.626,8166.9l-4.29-2.659a4.971,4.971,0,0,1,4.284-2.29h0a4.968,4.968,0,0,1,4.286,2.285Z" transform="translate(-22319.766 5922.996)" fill="#360484"></path>
    <rect id="Rectangle_4123" data-name="Rectangle 4123" width="5.057" height="5.436" transform="translate(-13463.884 14134.466)" fill="#360484"></rect>
    <rect id="Rectangle_4124" data-name="Rectangle 4124" width="9.541" height="5.436" transform="translate(-14067.898 14251.074) rotate(-57.88)" fill="#f04e98"></rect>
    <rect id="Rectangle_4125" data-name="Rectangle 4125" width="5.057" height="5.436" transform="translate(-14050.637 14250.854) rotate(-53.157)" fill="#f04e98"></rect>
    <rect id="Rectangle_4126" data-name="Rectangle 4126" width="5.056" height="5.437" transform="translate(-14013.151 14213.474) rotate(-53.037)" fill="#f04e98"></rect>
    <path id="Path_128188" data-name="Path 128188" d="M8350.432,8332.88l-.367-3.646.606-3.615a3.692,3.692,0,0,1-.239,7.261" transform="translate(-22319.766 5922.996)" fill="#f04e98"></path>
    <path id="Path_128189" data-name="Path 128189" d="M8528.831,8107.711c-6.19-3.138-9.823-10.669-8.834-18.313a24.009,24.009,0,0,1,3.088-8.853,15.745,15.745,0,0,1-1.194-3.073c-1.312-4.883-.465-9.824.538-14.013a86.736,86.736,0,0,1,5.905-16.793c1.661-3.52,3.833-7.522,7.348-10.515,3.976-3.38,9.132-4.683,13.459-3.4l-1.547,5.211c-2.585-.766-5.8.126-8.389,2.329-2.729,2.323-4.541,5.7-5.955,8.693a81.288,81.288,0,0,0-5.534,15.74c-.782,3.267-1.465,7.029-.767,10.513a36.712,36.712,0,0,1,3.023-3,16.083,16.083,0,0,1,7.309-4.075,8.608,8.608,0,0,1,9.047,3.574c2.255,3.76.5,8.212-1.687,10.883-3.082,3.763-7.6,5.784-11.806,5.276a11.547,11.547,0,0,1-6.049-2.665,17.569,17.569,0,0,0-1.4,4.864c-.686,5.315,1.8,10.685,5.9,12.768Zm.816-27.226a6.5,6.5,0,0,0,3.841,2.016c2.332.283,5.062-1.022,6.947-3.324,1.151-1.407,1.943-3.453,1.231-4.641a3.275,3.275,0,0,0-3.325-1.04,11.139,11.139,0,0,0-4.769,2.817,30.024,30.024,0,0,0-3.926,4.172" transform="translate(-22319.766 5922.996)" fill="#f04e98"></path>
    <path id="Path_128190" data-name="Path 128190" d="M8537.439,8144.93l-2.242-4.953a408.3,408.3,0,0,0,49.068-26.4l2.9,4.6a413.807,413.807,0,0,1-49.724,26.749" transform="translate(-22319.766 5922.996)" fill="#f04e98"></path>
    <path id="Path_128191" data-name="Path 128191" d="M8563.92,8176.059l-2.714-4.711a145.6,145.6,0,0,1,47.468-17.252l.944,5.354a140.131,140.131,0,0,0-45.7,16.609" transform="translate(-22319.766 5922.996)" fill="#f04e98"></path>
    <path id="Path_128192" data-name="Path 128192" d="M8575.948,8215.043l-.412-5.42a87.009,87.009,0,0,0,17.614-3.19l1.517,5.221a92.565,92.565,0,0,1-18.719,3.39" transform="translate(-22319.766 5922.996)" fill="#f04e98"></path>
    <rect id="Rectangle_4127" data-name="Rectangle 4127" width="5.435" height="23.062" transform="translate(-13891.021 13990.137) rotate(-14.599)" fill="#f04e98"></rect>
    <rect id="Rectangle_4128" data-name="Rectangle 4128" width="5.436" height="8.092" transform="translate(-13847.892 13982.443)" fill="#f04e98"></rect>
    <path id="Path_128193" data-name="Path 128193" d="M8661.257,8120.573a18.784,18.784,0,0,1-3.787-.377,27.594,27.594,0,0,1-19.874-17.057,25.715,25.715,0,0,1-1.269-4.812c-.392-.22-.785-.46-1.187-.722-6.261-4.094-10.9-11.174-13.058-19.936-1.853-7.514-1.777-15.161-1.523-22.985.272-8.328.881-16.364,5.3-23.142l4.556,2.969c-3.653,5.6-4.175,12.822-4.42,20.35-.241,7.429-.319,14.665,1.366,21.508,1.575,6.394,4.63,11.678,8.712,15.154a27.3,27.3,0,0,1,5.445-14.279c2.276-2.955,4.8-4.456,7.492-4.461h.012c4.051,0,6.926,3.385,7.673,6.733.721,3.213-.175,6.352-1.034,8.727-2.1,5.8-6.648,11.863-13.186,11.864l-.168,0q.176.576.385,1.141a22.041,22.041,0,0,0,15.876,13.625,13.683,13.683,0,0,0,10.254-1.956,5.908,5.908,0,0,0,2.614-4.2l5.405.582a11.279,11.279,0,0,1-4.817,8.01,18.656,18.656,0,0,1-10.767,3.265m-19.853-26.017a5.079,5.079,0,0,0,.8.107c3.89.167,6.919-4.329,8.348-8.272.608-1.681,1.254-3.846.841-5.689-.3-1.347-1.384-2.484-2.368-2.484h0c-.9,0-2.033.834-3.194,2.343a22.005,22.005,0,0,0-4.421,14" transform="translate(-22319.766 5922.996)" fill="#360484"></path>
    <path id="Path_128194" data-name="Path 128194" d="M8693.463,8078.379a83.062,83.062,0,0,1-10.728-23.36l5.231-1.479a77.643,77.643,0,0,0,10.026,21.835Z" transform="translate(-22319.766 5922.996)" fill="#360484"></path>
    <rect id="Rectangle_4129" data-name="Rectangle 4129" width="32.427" height="5.437" transform="translate(-13590.097 13980.232) rotate(-86.174)" fill="#360484"></rect>
    <path id="Path_128195" data-name="Path 128195" d="M8770.191,8052.689l-4.7-2.726a38.35,38.35,0,0,0,4.914-15.058l5.405.574a43.812,43.812,0,0,1-5.616,17.21" transform="translate(-22319.766 5922.996)" fill="#360484"></path>
    <rect id="Rectangle_4130" data-name="Rectangle 4130" width="14.479" height="5.436" transform="translate(-13685.503 14090.219) rotate(-24.788)" fill="#360484"></rect>
    <path id="Path_128196" data-name="Path 128196" d="M8658.391,8220.6l-4.3-3.323a101.053,101.053,0,0,1,21.217-20.442l3.16,4.422a95.63,95.63,0,0,0-20.073,19.344" transform="translate(-22319.766 5922.996)" fill="#360484"></path>
    <path id="Path_128197" data-name="Path 128197" d="M8748.293,8689c-84.206,0-168.614-17.028-245.68-50.267l2.153-4.992c111.823,48.23,239.248,62.026,358.8,38.847l1.036,5.336A611.528,611.528,0,0,1,8748.293,8689" transform="translate(-22319.766 5922.996)" fill="#6ad1e3"></path>
    <path id="Path_128198" data-name="Path 128198" d="M8905.858,8595.758l-5.337-1.041a390.354,390.354,0,0,0,1.769-140.469l5.358-.908a395.757,395.757,0,0,1-1.79,142.418" transform="translate(-22319.766 5922.996)" fill="#6ad1e3"></path>
    <path id="Path_128199" data-name="Path 128199" d="M8948.884,8569.96l-5.06-1.988a119.351,119.351,0,0,0,3.859-75.307l5.235-1.461a124.813,124.813,0,0,1-4.035,78.756" transform="translate(-22319.766 5922.996)" fill="#6ad1e3"></path>
    <path id="Path_128200" data-name="Path 128200" d="M8348.038,8760.224c-19.187-45.893-4.165-103.678,34.94-134.414l3.361,4.273c-37.254,29.281-51.565,84.328-33.286,128.043Z" transform="translate(-22319.766 5922.996)" fill="#6ad1e3"></path>
    <path id="Path_128201" data-name="Path 128201" d="M8278.984,8688.539l-5.437-.045a69.917,69.917,0,0,1,24.605-52.283l3.5,4.16a64.4,64.4,0,0,0-22.669,48.168" transform="translate(-22319.766 5922.996)" fill="#6ad1e3"></path>
  </g>
</svg>
