<?xml version="1.0" encoding="UTF-8"?>
<svg xmlns="http://www.w3.org/2000/svg" width="963.314" height="830.709" viewBox="0 0 963.314 830.709">
  <g id="Group_3688" data-name="Group 3688" transform="translate(22319.766 -15633.234)">
    <path id="Path_128202" data-name="Path 128202" d="M787.565,10125.6c0,172.1-139.513,311.61-311.61,311.61s-311.61-139.512-311.61-311.61,139.512-311.609,311.61-311.609,311.61,139.513,311.61,311.609" transform="translate(-22319.766 5922.996)" fill="#f04e98"></path>
    <rect id="Rectangle_4131" data-name="Rectangle 4131" width="623.22" height="623.22" transform="translate(-22155.42 15736.986)" fill="none"></rect>
    <path id="Path_128203" data-name="Path 128203" d="M164.345,10125.6a312.156,312.156,0,0,0,9.918,78.284c11.9,5.636,25.79,6.98,38.1,2.149,3.232-1.27,6.567-2.919,10-2.4,3.716.566,6.539,3.518,9.13,6.241,7.583,7.976,16.247,15.7,26.96,18.214s23.794-2,27.506-12.355c5.4-15.067-10.27-28.347-19.864-41.155-14.139-18.876-13.022-51.173,8.32-61.21,7.192-3.382,15.967-4.021,21.575-9.652,7.7-7.733,5.465-20.961.032-30.429s-13.5-17.572-16.8-27.975q21.514-27.826,43.028-55.65c3.323-4.3,6.736-8.785,7.911-14.088,1.64-7.4-1.346-14.959-4.272-21.953l-33.435-79.895c-77.65,56.672-128.1,148.38-128.1,251.871" transform="translate(-22319.766 5922.996)" fill="#703dc1"></path>
    <path id="Path_128204" data-name="Path 128204" d="M264.336,10231.245a28.32,28.32,0,0,1-6.455-.727c-11.576-2.72-20.749-11.091-28.2-18.922-2.363-2.484-4.806-5.056-7.7-5.5-2.3-.342-4.776.656-7.4,1.723-.442.18-.882.358-1.32.53-12.3,4.829-26.906,4.021-40.074-2.216l-1.052-.5-.292-1.127A314.032,314.032,0,0,1,290.98,9871.721l2.547-1.858,34.652,82.8c2.649,6.331,6.278,15,4.406,23.451-1.318,5.95-5.065,10.8-8.372,15.072L282,10045.783c2.086,5.77,5.691,10.841,9.492,16.189,2.294,3.227,4.666,6.563,6.685,10.081,5.979,10.421,8.166,24.8-.427,33.425-4.074,4.09-9.445,5.766-14.639,7.388a59.79,59.79,0,0,0-7.642,2.761c-9.539,4.486-13.451,13.094-15.053,19.525a46.8,46.8,0,0,0,7.666,37.938c1.889,2.522,3.993,5.031,6.22,7.689,8.808,10.507,18.79,22.417,14,35.8-3.517,9.816-14.069,14.667-23.964,14.667m-43.307-30.194a11.268,11.268,0,0,1,1.7.128c4.58.7,7.9,4.185,10.56,6.986,6.94,7.3,15.424,15.086,25.726,17.506,9.2,2.161,21.214-1.345,24.592-10.771,3.832-10.693-4.788-20.977-13.124-30.922-2.172-2.592-4.418-5.271-6.389-7.9a51.967,51.967,0,0,1-8.513-42.127c2.634-10.571,8.943-18.677,17.766-22.827a64.519,64.519,0,0,1,8.277-3.008c4.829-1.507,9.39-2.932,12.6-6.148,4.856-4.876,6.627-15.249-.364-27.433-1.9-3.309-4.2-6.544-6.424-9.674-4.11-5.783-8.36-11.762-10.593-18.786l-.4-1.245,43.827-56.684c2.987-3.863,6.373-8.241,7.45-13.1,1.415-6.388-1.037-13.042-4.138-20.453l-32.211-76.971a309.627,309.627,0,0,0-115,324.5c11.649,5.206,24.369,5.8,35.071,1.6.42-.165.841-.336,1.264-.509,2.514-1.021,5.311-2.159,8.315-2.159" transform="translate(-22319.766 5922.996)" fill="#703dc1"></path>
    <path id="Path_128205" data-name="Path 128205" d="M395.664,10245.413l-27.65-38.784c-2.264-3.175-4.573-6.446-5.54-10.224-2.855-11.156,6.8-21.631,16.8-27.341s21.744-9.729,28.275-19.214c7.839-11.383,7.537-29.589,20.3-34.9,4.2-1.751,8.936-1.524,13.481-1.226,19.926,1.311,41.607,4.278,55.378,18.739,16.143,16.951,15.671,43.311,13.756,66.64,17.6-.251,31.6,19.2,28.24,36.478s-20.779,29.752-38.375,30.318c-11.521.37-25.52-2.578-32.6,6.521-1.9,2.444-3.055,5.594-5.647,7.286-2.359,1.54-5.386,1.514-8.191,1.258a68.237,68.237,0,0,1-51.882-33.078" transform="translate(-22319.766 5922.996)" fill="#703dc1"></path>
    <path id="Path_128206" data-name="Path 128206" d="M456.436,10283.586c-.946,0-1.878-.062-2.772-.143a70.633,70.633,0,0,1-53.807-34.306l4.3-2.5a65.574,65.574,0,0,0,49.957,31.851c2.29.211,4.866.271,6.6-.862a12.021,12.021,0,0,0,3.144-3.889,31.275,31.275,0,0,1,1.9-2.842c6.329-8.138,17.283-7.824,26.948-7.55,2.639.076,5.132.146,7.535.069,17.219-.554,33.037-12.986,36.01-28.3,1.575-8.113-.954-17.1-6.765-24.05-5.043-6.028-11.845-9.467-18.7-9.467l-.292,0-2.741.039.224-2.732c2-24.38,1.8-49.094-13.077-64.719-12.893-13.537-33.447-16.638-53.739-17.971-4.662-.306-8.81-.44-12.361,1.038-6.944,2.892-9.594,10.608-12.4,18.776-1.806,5.257-3.673,10.692-6.8,15.239-5.314,7.719-13.672,11.971-21.755,16.083-2.447,1.245-4.976,2.531-7.335,3.879-8.818,5.035-18.2,14.49-15.623,24.563.864,3.377,3.046,6.438,5.156,9.4l27.649,38.783-4.054,2.891-27.65-38.783c-2.264-3.177-4.83-6.776-5.924-11.052-3.272-12.787,7.639-24.218,17.977-30.122,2.463-1.406,5.047-2.721,7.546-3.992,7.876-4.008,15.315-7.793,19.913-14.469,2.744-3.986,4.5-9.094,6.2-14.033,3.04-8.852,6.184-18,15.2-21.755,4.547-1.894,9.3-1.759,14.6-1.411,21.3,1.4,42.947,4.731,57.017,19.506,15.684,16.47,16.492,41.281,14.638,65.973,7.509.69,14.736,4.654,20.165,11.143,6.763,8.085,9.692,18.624,7.834,28.193-3.455,17.8-20.969,31.7-40.739,32.332-2.554.082-5.239,0-7.836-.068-9.306-.265-18.1-.517-22.875,5.629a26.857,26.857,0,0,0-1.59,2.4,16.086,16.086,0,0,1-4.662,5.448,12.551,12.551,0,0,1-7.007,1.794" transform="translate(-22319.766 5922.996)" fill="#703dc1"></path>
    <path id="Path_128207" data-name="Path 128207" d="M720.67,9987.155c5.6-4.08,7.81-11.279,9.419-18.018q2.193-9.187,3.743-18.511a313.012,313.012,0,0,0-118.719-103.908q-1.734,9.768-3.469,19.532c-.552,3.112-1.2,6.415-3.368,8.713-2.246,2.378-5.652,3.18-8.855,3.852-18.159,3.8-37.043,7.244-52.343,17.739s-25.982,30.366-19.66,47.81c2.79,7.7,8.542,16.319,4.018,23.142-3.449,5.2-10.814,5.6-16.293,8.592-9.519,5.191-12.3,17.7-11.488,28.511,1.729,23.053,22.4,47.389,44.558,40.793,19.04-5.668,27.788-30.424,47.085-35.138,17.4-4.249,34.431,9.909,52.321,9.119,2.858-.126,5.831-.7,8.06-2.492,6.418-5.166,2.722-15.851,6.273-23.285,4.542-9.512,18.071-9.486,28.247-6.742s21.953,6.5,30.471.292" transform="translate(-22319.766 5922.996)" fill="#703dc1"></path>
    <path id="Path_128208" data-name="Path 128208" d="M540.719,10049a31.823,31.823,0,0,1-18.137-6.04c-11.7-8.06-20.3-23.4-21.409-38.164-1.079-14.386,3.7-25.931,12.778-30.883a41.466,41.466,0,0,1,6.49-2.643c3.666-1.253,7.129-2.437,8.921-5.14,2.815-4.247.391-9.845-2.176-15.772-.733-1.69-1.49-3.438-2.108-5.145-3.2-8.821-2.578-18.634,1.79-28.377a54.681,54.681,0,0,1,18.8-22.334c14.77-10.132,32.62-13.839,49.883-17.424l3.358-.7c3.141-.658,5.878-1.348,7.555-3.124,1.6-1.7,2.163-4.263,2.727-7.438L613.245,9843l2.982,1.491a315.851,315.851,0,0,1,119.664,104.733l.56.826-.164.983c-1.049,6.294-2.32,12.578-3.777,18.68-1.785,7.477-4.278,15.009-10.374,19.451-8.976,6.545-20.545,3.385-30.753.6l-1.831-.5c-9.306-2.507-21.529-2.6-25.354,5.412-1.268,2.655-1.468,5.938-1.68,9.413-.33,5.423-.673,11.031-5.278,14.738-2.317,1.865-5.427,2.859-9.511,3.041-8.541.359-16.767-2.423-24.721-5.128-9.4-3.2-18.278-6.219-27.119-4.061-9.118,2.228-15.777,9.374-22.828,16.939-6.961,7.471-14.159,15.2-24.137,18.165a28.655,28.655,0,0,1-8.205,1.212m76.26-198.543-2.883,16.23c-.53,2.984-1.255,7.071-4.01,9.987-2.664,2.822-6.323,3.776-10.154,4.578l-3.366.7c-16.782,3.485-34.134,7.089-48.079,16.654-18.405,12.625-23.353,32.147-18.728,44.908.567,1.563,1.262,3.167,2,4.863,2.844,6.564,6.065,14,1.756,20.5-2.727,4.114-7.167,5.632-11.459,7.1a36.908,36.908,0,0,0-5.716,2.3c-8.612,4.7-10.914,16.582-10.2,26.139,1,13.346,8.745,27.187,19.269,34.438,4.963,3.418,12.825,6.913,22.1,4.156,8.68-2.584,15.109-9.483,21.915-16.789,7.239-7.767,14.725-15.8,25.29-18.381,10.25-2.5,20.243.9,29.9,4.184,7.518,2.558,15.293,5.2,22.9,4.867,2.986-.133,5.147-.769,6.609-1.945,2.891-2.327,3.141-6.422,3.43-11.163.232-3.8.471-7.727,2.158-11.256,3.368-7.055,13.318-12.879,31.143-8.072l1.844.5c9.571,2.613,19.468,5.313,26.51.182h0c5.031-3.666,7.007-10.482,8.463-16.583,1.355-5.672,2.547-11.507,3.544-17.357a310.893,310.893,0,0,0-114.232-100.746" transform="translate(-22319.766 5922.996)" fill="#703dc1"></path>
    <path id="Path_128209" data-name="Path 128209" d="M610.514,10113.811a26.175,26.175,0,0,0-28.309,36.945c1.364,2.887,3.382,5.623,6.266,7,1.929.92,4.116,1.17,6.079,2.016,7.278,3.141,10.457,13.825,18.375,14.2,6.02.281,10.167-5.747,13.065-11.031,4.205-7.665,8.549-16.324,6.287-24.77-.734-2.741-2.146-5.3-2.563-8.105a11.992,11.992,0,0,1,4.05-10.718c-4.077-4.324-8.379-8.8-13.988-10.763s-12.9-.5-15.615,4.787" transform="translate(-22319.766 5922.996)" fill="#703dc1"></path>
    <path id="Path_128210" data-name="Path 128210" d="M613.336,10176.463c-.175,0-.35,0-.527-.012-5.532-.259-9.082-4.429-12.213-8.107-2.253-2.646-4.38-5.146-7.032-6.289a19.316,19.316,0,0,0-2.542-.816A21.082,21.082,0,0,1,587.4,10160c-3.066-1.462-5.571-4.214-7.446-8.182a28.575,28.575,0,0,1,22.61-40.655c3.761-5.755,11.906-7.084,18.035-4.937,6.308,2.21,11.114,7.31,14.976,11.406l1.8,1.915-2.011,1.7a9.457,9.457,0,0,0-3.192,8.448,21.458,21.458,0,0,0,1.308,4.3,36.649,36.649,0,0,1,1.2,3.521c2.449,9.146-1.873,18.161-6.509,26.612-2.923,5.328-7.616,12.332-14.837,12.333m-7.235-60.553a23.66,23.66,0,0,0-21.646,33.782c.944,1.994,2.592,4.624,5.087,5.813a17,17,0,0,0,2.793.929,23.675,23.675,0,0,1,3.2,1.048c3.719,1.6,6.328,4.669,8.851,7.634,2.834,3.328,5.281,6.2,8.654,6.359.09.006.18.008.269.008,4.609,0,8.19-5.541,10.5-9.748,4.322-7.878,8.038-15.56,6.064-22.93-.266-.994-.644-1.99-1.043-3.045a25.506,25.506,0,0,1-1.577-5.336,14.588,14.588,0,0,1,3.067-11.1c-3.27-3.4-6.953-6.855-11.366-8.4a12.583,12.583,0,0,0-8.979.276c.329.047.655.1.982.158l-.884,4.9a22.4,22.4,0,0,0-3.971-.352" transform="translate(-22319.766 5922.996)" fill="#703dc1"></path>
    <path id="Path_128211" data-name="Path 128211" d="M718.777,10320.911a64.162,64.162,0,0,0-13.794-12.4c-8.219-5.433-18.473-8.958-27.946-6.253-3.546,1.012-6.888,2.866-10.562,3.184-15.965,1.377-21.464-24.063-37.026-27.886-6.671-1.639-13.71,1.277-19.138,5.487-21.4,16.6-22.314,48.7-37.822,70.9-8.2,11.746-20.2,20.262-29.64,31.042s-16.42,25.8-11.557,39.275a37.971,37.971,0,0,0,3.755,7.358,311.473,311.473,0,0,0,183.73-110.707" transform="translate(-22319.766 5922.996)" fill="#703dc1"></path>
    <path id="Path_128212" data-name="Path 128212" d="M533.851,10434.382l-.907-1.433a40.1,40.1,0,0,1-3.993-7.843c-4.483-12.427.012-28.037,12.026-41.763,3.923-4.481,8.306-8.6,12.544-12.59,6-5.646,12.213-11.486,16.928-18.237,6.178-8.846,10.076-19.606,13.846-30.014,5.558-15.34,11.3-31.2,24.491-41.429,6.945-5.385,14.694-7.546,21.257-5.937,8.013,1.97,13.343,8.706,18.5,15.224,5.614,7.1,10.464,13.234,17.722,12.6a23.717,23.717,0,0,0,6.162-1.737c1.263-.478,2.568-.971,3.93-1.358,12.191-3.485,24.03,2.623,30,6.569a66.588,66.588,0,0,1,14.331,12.882l1.311,1.566-1.282,1.591a314.28,314.28,0,0,1-185.2,111.591Zm91.744-154.791c-4.349,0-9.2,1.885-13.758,5.419-12.047,9.342-17.3,23.84-22.86,39.189-3.88,10.71-7.892,21.785-14.446,31.169-5.01,7.173-11.41,13.192-17.6,19.013-4.152,3.905-8.445,7.943-12.209,12.242-10.8,12.342-14.948,26.1-11.088,36.792a31.858,31.858,0,0,0,2.632,5.428,309.314,309.314,0,0,0,179.265-107.882,61.224,61.224,0,0,0-11.922-10.373c-5.259-3.476-15.615-8.87-25.889-5.936-1.163.332-2.317.767-3.538,1.229a27.813,27.813,0,0,1-7.494,2.04c-9.932.853-16.094-6.935-22.054-14.472-4.634-5.858-9.425-11.915-15.779-13.476a13.633,13.633,0,0,0-3.261-.383" transform="translate(-22319.766 5922.996)" fill="#703dc1"></path>
    <path id="Path_128213" data-name="Path 128213" d="M272.4,9997.95l-3.492-3.549c9.481-9.327,11.882-25.194,5.585-36.908l4.385-2.357c7.3,13.588,4.52,32-6.478,42.814" transform="translate(-22319.766 5922.996)" fill="#f04e98"></path>
    <path id="Path_128214" data-name="Path 128214" d="M297.514,9979.807l-4.726-1.567a31.234,31.234,0,0,0,.426-18.088l4.8-1.345a36.268,36.268,0,0,1-.495,21" transform="translate(-22319.766 5922.996)" fill="#f04e98"></path>
    <rect id="Rectangle_4132" data-name="Rectangle 4132" width="4.978" height="1.965" transform="translate(-22011.027 15896.851) rotate(-44.982)" fill="#f04e98"></rect>
    <path id="Path_128215" data-name="Path 128215" d="M271.878,10092.9l-3.934-3.054a14.814,14.814,0,0,0-.361-18.055l3.809-3.207a19.953,19.953,0,0,1,.486,24.315" transform="translate(-22319.766 5922.996)" fill="#f04e98"></path>
    <path id="Path_128216" data-name="Path 128216" d="M287.289,10098.936l-3.54-3.5a8.016,8.016,0,0,0,2.007-7.37l4.827-1.226a12.985,12.985,0,0,1-3.294,12.1" transform="translate(-22319.766 5922.996)" fill="#f04e98"></path>
    <rect id="Rectangle_4133" data-name="Rectangle 4133" width="3.107" height="4.979" transform="matrix(0.894, -0.449, 0.449, 0.894, -22047.969, 16021.96)" fill="#f04e98"></rect>
    <path id="Path_128217" data-name="Path 128217" d="M249.29,10189.375a24.043,24.043,0,0,1-8.368-24.931l4.8,1.324a18.957,18.957,0,0,0,6.6,19.655Z" transform="translate(-22319.766 5922.996)" fill="#f04e98"></path>
    <path id="Path_128218" data-name="Path 128218" d="M267.2,10205.719l-4.966-.356a9.64,9.64,0,0,0-4.5-8.728l2.59-4.252a14.73,14.73,0,0,1,6.873,13.336" transform="translate(-22319.766 5922.996)" fill="#f04e98"></path>
    <rect id="Rectangle_4134" data-name="Rectangle 4134" width="4.978" height="6.948" transform="translate(-22076.068 16126.354) rotate(-53.127)" fill="#f04e98"></rect>
    <rect id="Rectangle_4135" data-name="Rectangle 4135" width="8.337" height="4.979" transform="translate(-22123.207 16114.925)" fill="#f04e98"></rect>
    <path id="Path_128219" data-name="Path 128219" d="M388.354,10209.979c-6.706-5.245-14.17-12.426-12.36-21.447,1.6-7.977,9.552-12.035,17.12-14.954l1.791,4.646c-6.3,2.433-12.9,5.676-14.029,11.286-1.275,6.357,4.966,12.184,10.546,16.548Z" transform="translate(-22319.766 5922.996)" fill="#f04e98"></path>
    <rect id="Rectangle_4136" data-name="Rectangle 4136" width="4.979" height="3.107" transform="translate(-21922.779 16120.871) rotate(-63.008)" fill="#f04e98"></rect>
    <rect id="Rectangle_4137" data-name="Rectangle 4137" width="4.98" height="5.009" transform="matrix(0.554, -0.832, 0.832, 0.554, -21918.979, 16137.61)" fill="#f04e98"></rect>
    <rect id="Rectangle_4138" data-name="Rectangle 4138" width="4.979" height="4.394" transform="translate(-21909.121 16129.428) rotate(-18.497)" fill="#f04e98"></rect>
    <path id="Path_128220" data-name="Path 128220" d="M422.125,10160.616a6.99,6.99,0,0,1-4.942-2.039l3.543-3.5a1.932,1.932,0,0,0,.877.488,8.376,8.376,0,0,0,.35-3.858l4.927-.721a13.376,13.376,0,0,1-1.41,8.149l-.5.942-1.027.288a6.734,6.734,0,0,1-1.819.248" transform="translate(-22319.766 5922.996)" fill="#f04e98"></path>
    <rect id="Rectangle_4139" data-name="Rectangle 4139" width="5.003" height="4.979" transform="translate(-21895.152 16055.622) rotate(-30.744)" fill="#f04e98"></rect>
    <rect id="Rectangle_4140" data-name="Rectangle 4140" width="2.779" height="4.979" transform="translate(-21882.82 16064.902)" fill="#f04e98"></rect>
    <rect id="Rectangle_4141" data-name="Rectangle 4141" width="6.214" height="4.979" transform="translate(-21876.932 16051.382) rotate(-26.581)" fill="#f04e98"></rect>
    <rect id="Rectangle_4142" data-name="Rectangle 4142" width="4.979" height="15.841" transform="matrix(0.782, -0.624, 0.624, 0.782, -21898.506, 16170.256)" fill="#f04e98"></rect>
    <rect id="Rectangle_4143" data-name="Rectangle 4143" width="6.947" height="4.979" transform="translate(-21865.475 16182.513) rotate(-52.805)" fill="#f04e98"></rect>
    <rect id="Rectangle_4144" data-name="Rectangle 4144" width="4.979" height="5.009" transform="matrix(0.57, -0.821, 0.821, 0.57, -21875.723, 16185.898)" fill="#f04e98"></rect>
    <rect id="Rectangle_4145" data-name="Rectangle 4145" width="2.779" height="4.979" transform="translate(-21867.535 16191.349)" fill="#f04e98"></rect>
    <path id="Path_128221" data-name="Path 128221" d="M543.771,9953.413l-4.2-16.513c-1.424-5.6-2.675-13.549,2.87-17.947l3.1,3.9c-2.5,1.982-2.86,6.057-1.14,12.821l4.2,16.512Z" transform="translate(-22319.766 5922.996)" fill="#f04e98"></path>
    <rect id="Rectangle_4146" data-name="Rectangle 4146" width="1.965" height="4.979" transform="translate(-21778.977 15900.279) rotate(-44.992)" fill="#f04e98"></rect>
    <path id="Path_128222" data-name="Path 128222" d="M567.073,9974.08l-4.819-1.25a6.05,6.05,0,0,0-4.706-7.059l.7-4.93a11.009,11.009,0,0,1,8.827,13.238" transform="translate(-22319.766 5922.996)" fill="#f04e98"></path>
    <rect id="Rectangle_4147" data-name="Rectangle 4147" width="4.979" height="1.39" transform="translate(-21764.422 15906.208)" fill="#f04e98"></rect>
    <path id="Path_128223" data-name="Path 128223" d="M524.69,10004.264l-4.967-.348a84.273,84.273,0,0,1,3.476-18.743l4.761,1.457a79.278,79.278,0,0,0-3.27,17.634" transform="translate(-22319.766 5922.996)" fill="#f04e98"></path>
    <rect id="Rectangle_4148" data-name="Rectangle 4148" width="5.558" height="4.979" transform="translate(-21791.113 15938.457)" fill="#f04e98"></rect>
    <path id="Path_128224" data-name="Path 128224" d="M541.356,10007.445l-3.094-3.9a9.336,9.336,0,0,1,11.353,0l-3.091,3.9a4.366,4.366,0,0,0-5.168,0" transform="translate(-22319.766 5922.996)" fill="#f04e98"></path>
    <path id="Path_128225" data-name="Path 128225" d="M615.329,9889.831l-3.031-3.949a17.189,17.189,0,0,0,5.16-19.551l4.585-1.939a22.067,22.067,0,0,1-6.714,25.439" transform="translate(-22319.766 5922.996)" fill="#f04e98"></path>
    <path id="Path_128226" data-name="Path 128226" d="M625.958,9900.771l-2.61-4.24a33.32,33.32,0,0,0,8.892-7.981l3.934,3.053a38.306,38.306,0,0,1-10.216,9.169" transform="translate(-22319.766 5922.996)" fill="#f04e98"></path>
    <rect id="Rectangle_4149" data-name="Rectangle 4149" width="4.979" height="13.895" transform="translate(-21698.219 15925.028) rotate(-53.39)" fill="#f04e98"></rect>
    <rect id="Rectangle_4150" data-name="Rectangle 4150" width="4.98" height="6.947" transform="translate(-21684.383 15912.521) rotate(-52.352)" fill="#f04e98"></rect>
    <path id="Path_128227" data-name="Path 128227" d="M702.57,9981.413a14.087,14.087,0,0,1-6.5-1.986,76.835,76.835,0,0,0-20.3-7.431l1.037-4.869a81.755,81.755,0,0,1,21.619,7.911c2.817,1.511,4.513,1.637,4.945,1.093l3.9,3.1a5.713,5.713,0,0,1-4.7,2.186" transform="translate(-22319.766 5922.996)" fill="#f04e98"></path>
    <rect id="Rectangle_4151" data-name="Rectangle 4151" width="4.98" height="11.871" transform="translate(-21630.691 15883.312) rotate(-70.129)" fill="#f04e98"></rect>
    <path id="Path_128228" data-name="Path 128228" d="M585.343,10139.1a16.786,16.786,0,0,1,11.193-19.788l1.528,4.738a11.807,11.807,0,0,0-7.872,13.919Z" transform="translate(-22319.766 5922.996)" fill="#f04e98"></path>
    <rect id="Rectangle_4152" data-name="Rectangle 4152" width="6.856" height="4.979" transform="matrix(0.576, -0.818, 0.818, 0.576, -21726.586, 16061.032)" fill="#f04e98"></rect>
    <path id="Path_128229" data-name="Path 128229" d="M592.141,10151.15a4.771,4.771,0,0,1-3.235-1.242l3.234-3.523,3.16,3.589a4.771,4.771,0,0,1-3.159,1.177" transform="translate(-22319.766 5922.996)" fill="#f04e98"></path>
    <path id="Path_128230" data-name="Path 128230" d="M599.75,10149.694l-2.31-4.41a2.864,2.864,0,0,0,1.321-1.477l4.64,1.808a7.91,7.91,0,0,1-3.651,4.079" transform="translate(-22319.766 5922.996)" fill="#f04e98"></path>
    <path id="Path_128231" data-name="Path 128231" d="M609.577,10116.513l-2.585-3.4a4.31,4.31,0,0,1,5.861.66Z" transform="translate(-22319.766 5922.996)" fill="#f04e98"></path>
    <path id="Path_128232" data-name="Path 128232" d="M594.7,10337.442l-4.93-.7a89.484,89.484,0,0,1,26.847-52.124l3.43,3.608a84.487,84.487,0,0,0-25.347,49.212" transform="translate(-22319.766 5922.996)" fill="#f04e98"></path>
    <rect id="Rectangle_4153" data-name="Rectangle 4153" width="7.464" height="4.979" transform="matrix(0.468, -0.884, 0.884, 0.468, -21722.506, 16269.993)" fill="#f04e98"></rect>
    <path id="Path_128233" data-name="Path 128233" d="M611.958,10327.081l-.7-1.087a1.754,1.754,0,0,0,.727-.81,1.882,1.882,0,0,0-.506-2.1l-1.228,1.355-.993-1.536a1.883,1.883,0,0,0-.839,2,1.749,1.749,0,0,0,.588.914l-.868.961a3.107,3.107,0,1,1,3.821.309" transform="translate(-22319.766 5922.996)" fill="#f04e98"></path>
    <path id="Path_128234" data-name="Path 128234" d="M612.861,10342.3a2.747,2.747,0,0,1-2.065-.969l.511-.445a2.361,2.361,0,0,0,.73.424,2.326,2.326,0,0,0,2.528-.615l-1.54-1.309,1.522-1.328a2.316,2.316,0,0,0-2.536-.582,2.377,2.377,0,0,0-.724.434l-.517-.438a2.682,2.682,0,0,1,2.968-.841,3.019,3.019,0,0,1,.037,5.5,2.568,2.568,0,0,1-.914.168" transform="translate(-22319.766 5922.996)" fill="#f04e98"></path>
    <rect id="Rectangle_4154" data-name="Rectangle 4154" width="5.931" height="4.978" transform="matrix(0.783, -0.622, 0.622, 0.783, -21703.24, 16230.365)" fill="#f04e98"></rect>
    <rect id="Rectangle_4155" data-name="Rectangle 4155" width="2.62" height="4.979" transform="matrix(0.707, -0.707, 0.707, 0.707, -21747.02, 16292.588)" fill="#f04e98"></rect>
    <path id="Path_128235" data-name="Path 128235" d="M542.984,10421.822a38.063,38.063,0,0,1,18.437-38.41l2.462,4.328c-11.316,6.436-18.038,20.439-15.982,33.3Z" transform="translate(-22319.766 5922.996)" fill="#f04e98"></path>
    <rect id="Rectangle_4156" data-name="Rectangle 4156" width="8.285" height="4.979" transform="translate(-21762.35 16338.585) rotate(-63.061)" fill="#f04e98"></rect>
    <rect id="Rectangle_4157" data-name="Rectangle 4157" width="5.859" height="4.98" transform="translate(-21753.457 16319.775) rotate(-18.425)" fill="#f04e98"></rect>
    <rect id="Rectangle_4158" data-name="Rectangle 4158" width="9.171" height="4.979" transform="matrix(0.707, -0.707, 0.707, 0.707, -21747.02, 16330.567)" fill="#f04e98"></rect>
    <path id="Path_128236" data-name="Path 128236" d="M664.17,10318.271l-1.4-4.776a114.427,114.427,0,0,0,18.96-7.454l2.228,4.453a119.332,119.332,0,0,1-19.787,7.777" transform="translate(-22319.766 5922.996)" fill="#f04e98"></path>
    <path id="Path_128237" data-name="Path 128237" d="M379.015,10026.53a7.1,7.1,0,0,1-2.481-.446l1.733-4.667c1.711.637,3.965-1.069,5.154-3.081a29.049,29.049,0,0,0,1.679-3.572,25.3,25.3,0,0,1,2.89-5.545c5.128-6.9,14.668-7.357,22.406-6.979,7.891.379,14.762.345,18.923-3.962l3.581,3.459c-6.067,6.279-15.707,5.815-22.745,5.476-6.5-.308-14.445-.034-18.169,4.977a21.25,21.25,0,0,0-2.292,4.494,33.3,33.3,0,0,1-1.986,4.184c-1.827,3.095-5.17,5.663-8.693,5.663" transform="translate(-22319.766 5922.996)" fill="#f04e98"></path>
    <path id="Path_128238" data-name="Path 128238" d="M380.464,10053.6a6.7,6.7,0,0,1-3.431-.912l2.521-4.3c1.037.608,2.782-.058,3.869-1.057a18.29,18.29,0,0,0,2.7-3.511c.446-.685.908-1.392,1.417-2.085a24.206,24.206,0,0,1,9.176-7.562l2.122,4.5a19.224,19.224,0,0,0-7.283,6c-.442.6-.852,1.232-1.263,1.862a22.251,22.251,0,0,1-3.5,4.456,9.747,9.747,0,0,1-6.327,2.6" transform="translate(-22319.766 5922.996)" fill="#f04e98"></path>
    <rect id="Rectangle_4159" data-name="Rectangle 4159" width="5.857" height="4.979" transform="translate(-21910.9 15951.949) rotate(-17.22)" fill="#f04e98"></rect>
    <rect id="Rectangle_4160" data-name="Rectangle 4160" width="2.071" height="4.979" transform="translate(-21903.9 15967.815) rotate(-26.716)" fill="#f04e98"></rect>
    <rect id="Rectangle_4161" data-name="Rectangle 4161" width="1.31" height="4.979" transform="translate(-21893.381 15948.913) rotate(-44.992)" fill="#f04e98"></rect>
    <path id="Path_128239" data-name="Path 128239" d="M424.2,9899.428a12.552,12.552,0,0,1-4.655-.861l1.841-4.627c4.19,1.667,8.926-1.073,10.768-2.329a56.457,56.457,0,0,0,4.912-3.925,54.528,54.528,0,0,1,6.048-4.721c6.17-3.961,13.4-5.306,20.388-6.605,7.449-1.387,14.485-2.7,19.968-6.945l3.05,3.936c-6.437,4.988-14.4,6.472-22.107,7.9-6.819,1.27-13.26,2.467-18.61,5.9a50.144,50.144,0,0,0-5.49,4.3,60.671,60.671,0,0,1-5.354,4.263,19.423,19.423,0,0,1-10.759,3.705" transform="translate(-22319.766 5922.996)" fill="#f04e98"></path>
    <path id="Path_128240" data-name="Path 128240" d="M443.044,9913.1l-.181-4.977a33.519,33.519,0,0,0,23.259-10.875l3.7,3.331a38.078,38.078,0,0,1-26.78,12.521" transform="translate(-22319.766 5922.996)" fill="#f04e98"></path>
    <rect id="Rectangle_4162" data-name="Rectangle 4162" width="5.24" height="4.979" transform="translate(-21849.842 15843.31) rotate(-45.01)" fill="#f04e98"></rect>
    <rect id="Rectangle_4163" data-name="Rectangle 4163" width="2.072" height="4.978" transform="translate(-21898.293 15842.843) rotate(-26.561)" fill="#f04e98"></rect>
    <rect id="Rectangle_4164" data-name="Rectangle 4164" width="3.819" height="4.978" transform="translate(-21836.67 15820.335) rotate(-14.115)" fill="#f04e98"></rect>
    <rect id="Rectangle_4165" data-name="Rectangle 4165" width="2.071" height="4.978" transform="translate(-21829.742 15830.8) rotate(-26.561)" fill="#f04e98"></rect>
    <rect id="Rectangle_4166" data-name="Rectangle 4166" width="2.072" height="4.978" transform="translate(-21798.246 15772.44) rotate(-26.561)" fill="#f04e98"></rect>
    <rect id="Rectangle_4167" data-name="Rectangle 4167" width="4.988" height="4.978" transform="matrix(0.927, -0.376, 0.376, 0.927, -21957.375, 15846.532)" fill="#f04e98"></rect>
    <rect id="Rectangle_4168" data-name="Rectangle 4168" width="2.071" height="4.979" transform="translate(-21948.502 15867.113) rotate(-63.412)" fill="#f04e98"></rect>
    <path id="Path_128241" data-name="Path 128241" d="M299.3,10156.191a7.318,7.318,0,0,1-1.28-.111l.869-4.9c1.964.352,3.99-1.842,4.563-2.521.521-.615,1.012-1.285,1.531-1.993a16.745,16.745,0,0,1,11.9-7.828l18.928-5.047,1.283,4.809-18.928,5.05a12.087,12.087,0,0,0-9.167,5.961c-.546.744-1.111,1.516-1.741,2.261-2.361,2.8-5.2,4.323-7.957,4.323" transform="translate(-22319.766 5922.996)" fill="#f04e98"></path>
    <rect id="Rectangle_4169" data-name="Rectangle 4169" width="9.671" height="4.979" transform="matrix(0.957, -0.29, 0.29, 0.957, -22006.26, 16085.461)" fill="#f04e98"></rect>
    <rect id="Rectangle_4170" data-name="Rectangle 4170" width="4.989" height="4.979" transform="translate(-21975.021 16065.944) rotate(-21.903)" fill="#f04e98"></rect>
    <rect id="Rectangle_4171" data-name="Rectangle 4171" width="2.071" height="4.979" transform="translate(-21987.221 16094.809) rotate(-26.561)" fill="#f04e98"></rect>
    <path id="Path_128242" data-name="Path 128242" d="M530.761,10096.351a16.97,16.97,0,0,1-6.217-1.136l1.814-4.636c6.462,2.529,13.442-1.518,16.143-3.374a75.452,75.452,0,0,0,7.755-6.424,90.381,90.381,0,0,1,7.213-6.084c4.048-2.965,12.09-7.575,20.464-5.14l-1.392,4.781c-6.324-1.841-12.821,1.95-16.13,4.375a86.447,86.447,0,0,0-6.814,5.758,80.187,80.187,0,0,1-8.276,6.837c-4.834,3.322-9.893,5.042-14.56,5.042" transform="translate(-22319.766 5922.996)" fill="#f04e98"></path>
    <rect id="Rectangle_4172" data-name="Rectangle 4172" width="23.614" height="4.978" transform="translate(-21765.801 16030.741) rotate(-24.635)" fill="#f04e98"></rect>
    <rect id="Rectangle_4173" data-name="Rectangle 4173" width="12.078" height="4.979" transform="matrix(0.843, -0.538, 0.538, 0.843, -21746.564, 16007.913)" fill="#f04e98"></rect>
    <path id="Path_128243" data-name="Path 128243" d="M603.751,10065.872l-2.863-4.074a15.3,15.3,0,0,1,12.2-2.326l-1.162,4.842a10.256,10.256,0,0,0-8.17,1.559" transform="translate(-22319.766 5922.996)" fill="#f04e98"></path>
    <path id="Path_128244" data-name="Path 128244" d="M620.609,10067.116l-1.421-4.771a38.465,38.465,0,0,0,9.57-4.351l2.66,4.209a43.439,43.439,0,0,1-10.809,4.913" transform="translate(-22319.766 5922.996)" fill="#f04e98"></path>
    <path id="Path_128245" data-name="Path 128245" d="M630.292,10089.762a13.836,13.836,0,0,1-1.407-.07l.5-4.953a10.034,10.034,0,0,0,8.815-3.927l4.018,2.941a14.979,14.979,0,0,1-11.928,6.009" transform="translate(-22319.766 5922.996)" fill="#f04e98"></path>
    <rect id="Rectangle_4174" data-name="Rectangle 4174" width="17.957" height="4.98" transform="translate(-21629.947 15971.121) rotate(-15.145)" fill="#f04e98"></rect>
    <path id="Path_128246" data-name="Path 128246" d="M276.02,10292.52a40.4,40.4,0,0,1-4.712-.273l.583-4.946a37.576,37.576,0,0,0,28.47-8.714c1.112-.959,2.186-1.99,3.324-3.082,3.753-3.6,7.635-7.331,13.048-8.47a27.772,27.772,0,0,1,8.414-.095c.453.042.906.084,1.357.12a67.37,67.37,0,0,0,25.3-2.777l1.477,4.756a72.385,72.385,0,0,1-27.186,2.985c-.468-.039-.936-.082-1.4-.126a23.678,23.678,0,0,0-6.931.01c-4.018.845-7.227,3.926-10.625,7.188-1.134,1.089-2.308,2.216-3.521,3.263a42.744,42.744,0,0,1-27.592,10.161" transform="translate(-22319.766 5922.996)" fill="#f04e98"></path>
    <rect id="Rectangle_4175" data-name="Rectangle 4175" width="3.339" height="4.98" transform="matrix(0.555, -0.832, 0.832, 0.555, -21999.295, 16225.342)" fill="#f04e98"></rect>
    <path id="Path_128247" data-name="Path 128247" d="M346.13,10296.912l-4.818-1.256a.554.554,0,0,0-1.066-.3l-4.759-1.464a5.534,5.534,0,0,1,10.643,3.024" transform="translate(-22319.766 5922.996)" fill="#f04e98"></path>
    <path id="Path_128248" data-name="Path 128248" d="M347.253,10311.231l-3.107-3.891,2.226-1.778-.148-.234,2.216-1.4,2.881,4.051Z" transform="translate(-22319.766 5922.996)" fill="#f04e98"></path>
    <rect id="Rectangle_4176" data-name="Rectangle 4176" width="8.788" height="4.979" transform="translate(-22023.949 16231.773) rotate(-18.443)" fill="#f04e98"></rect>
    <path id="Path_128249" data-name="Path 128249" d="M273.248,10267.2l-1.458-4.762a117.643,117.643,0,0,0,18.142-7.258l2.227,4.454a122.835,122.835,0,0,1-18.911,7.565" transform="translate(-22319.766 5922.996)" fill="#f04e98"></path>
    <rect id="Rectangle_4177" data-name="Rectangle 4177" width="20.317" height="4.979" transform="translate(-21887.006 16254.258) rotate(-24.089)" fill="#f04e98"></rect>
    <path id="Path_128250" data-name="Path 128250" d="M466.7,10321.67l-3.7-3.33a47.033,47.033,0,0,1,23.836-14.163c2.04-.485,4.164-.859,6.218-1.221,6.5-1.143,12.638-2.223,16.312-6.594l3.812,3.2c-4.84,5.757-12.172,7.047-19.262,8.293-2.073.365-4.031.709-5.925,1.162a41.993,41.993,0,0,0-21.289,12.648" transform="translate(-22319.766 5922.996)" fill="#f04e98"></path>
    <path id="Path_128251" data-name="Path 128251" d="M466.419,10343.154l-2.278-4.429c9.363-4.817,19.052-9.291,28.8-13.292l1.892,4.607c-9.614,3.948-19.173,8.359-28.411,13.113" transform="translate(-22319.766 5922.996)" fill="#f04e98"></path>
    <rect id="Rectangle_4178" data-name="Rectangle 4178" width="8.286" height="4.978" transform="translate(-21830.723 16266.077) rotate(-26.561)" fill="#f04e98"></rect>
    <rect id="Rectangle_4179" data-name="Rectangle 4179" width="0.926" height="4.979" transform="translate(-21777.68 16202.928)" fill="#f04e98"></rect>
    <path id="Path_128252" data-name="Path 128252" d="M635.31,10220.9c-.254,0-.508-.006-.767-.019l.24-4.973c5.311.263,9.728-3.642,14.41-7.768a70.841,70.841,0,0,1,6.466-5.263c9.233-6.362,21.122-7.272,30.675-8l.38,4.964c-9.423.721-20.1,1.538-28.23,7.139a66.3,66.3,0,0,0-6,4.9c-5.037,4.438-10.239,9.023-17.175,9.023" transform="translate(-22319.766 5922.996)" fill="#f04e98"></path>
    <rect id="Rectangle_4180" data-name="Rectangle 4180" width="21.605" height="4.979" transform="matrix(0.862, -0.507, 0.507, 0.862, -21661.279, 16154.203)" fill="#f04e98"></rect>
    <path id="Path_128253" data-name="Path 128253" d="M670.99,10247.874l-1.954-4.58a19.028,19.028,0,0,0,9.61-9.246l4.5,2.129a24.07,24.07,0,0,1-12.157,11.7" transform="translate(-22319.766 5922.996)" fill="#f04e98"></path>
    <rect id="Rectangle_4181" data-name="Rectangle 4181" width="14.5" height="4.979" transform="translate(-21601.824 16115.264) rotate(-26.581)" fill="#f04e98"></rect>
    <rect id="Rectangle_4182" data-name="Rectangle 4182" width="5.931" height="4.98" transform="matrix(0.779, -0.627, 0.627, 0.779, -21812.533, 16290.627)" fill="#f04e98"></rect>
    <path id="Path_128254" data-name="Path 128254" d="M62.3,9968.449a10.63,10.63,0,0,1-2.066-.2,7.606,7.606,0,0,1-5.289-4.3,12.522,12.522,0,0,1-8.2,1.9,9.836,9.836,0,0,1-7.853-7.611c-.018-.08-.036-.159-.052-.237a17.444,17.444,0,0,1-8.011,2.162,11.554,11.554,0,0,1-8.9-4.5,8.1,8.1,0,0,1-1.491-7.211,13.174,13.174,0,0,1,3.453-5.271c22.326-23.83,45.929-47.013,70.156-68.908l1.747-1.576c10.1-9.112,20.547-18.535,27.707-30.041,8.277-13.3,10.634-28.2,6.3-39.85-5.519-14.854-21.2-21.138-31.832-17.5-10.168,3.49-15.742,14-18.159,19.963-9.542,23.521-4.981,49.393,1.467,78.335l-4.86,1.082c-5.116-22.965-12.123-54.417-1.221-81.287,4.724-11.644,12.238-19.741,21.157-22.8,15.947-5.472,32.886,6.4,38.115,20.47,4.863,13.087,2.342,29.615-6.743,44.215-7.532,12.1-18.242,21.764-28.6,31.105l-1.744,1.575c-24.124,21.8-47.628,44.888-69.86,68.618a9.285,9.285,0,0,0-2.3,3.24,3.262,3.262,0,0,0,.686,2.848,6.6,6.6,0,0,0,4.93,2.511h.027c3.543,0,6.907-2.128,10.609-4.724.066-.048.132-.094.2-.14l2.824,4.1-.117.082a2.407,2.407,0,0,0-.646,2.6c.393,1.685,1.874,3.57,3.669,3.813,2.394.312,4.722-.816,6.671-2.519a5.582,5.582,0,0,1,5.047-4.848l5.166-.511-2.836,4.349a24.45,24.45,0,0,1-2.438,3.159c.25,1.292,1.088,2.6,2.178,2.819,3.374.671,6.888-2.1,10.183-5.194,24.459-22.96,49.752-46.7,71.958-72.534l3.775,3.246c-22.379,26.033-47.77,49.868-72.326,72.919-3.726,3.5-7.8,6.652-12.491,6.652" transform="translate(-22319.766 5922.996)" fill="#360484"></path>
    <path id="Path_128255" data-name="Path 128255" d="M134.468,10033.149a12.459,12.459,0,0,1-6.258-2.187,116.782,116.782,0,0,1-35.478-33.076c-2.665-3.813-5.994-9.549-4.151-15.284,2.074-6.455,8.947-8.885,15.4-10.409l20.655-4.89a46.449,46.449,0,0,1-28.181-32.055l4.848-1.139c3.688,15.711,17.972,28.686,33.964,30.85l13.3,1.8-43.44,10.279c-5.1,1.205-10.486,2.99-11.8,7.087-.9,2.8.178,6.165,3.493,10.911a111.809,111.809,0,0,0,33.954,31.655c1.5.9,3.058,1.686,4.222,1.418a2.12,2.12,0,0,0,1.291-1.045,4.58,4.58,0,0,0,.489-3.317c-.586-2.386-2.619-4.5-4.412-6.362l-2.816-2.923,3.883-1.183c3.087-.942,6.279-1.915,9.291-3.111,21.68-8.612,37.188-31.793,36.875-55.119-.087-6.45-3.108-15.528-9.552-15.528h-.011l-.008-4.979h.019c9.26,0,14.4,10.528,14.531,20.442.345,25.721-16.11,50.315-40.016,59.812-1.962.779-3.957,1.457-5.941,2.089a14.763,14.763,0,0,1,2.993,5.675,9.538,9.538,0,0,1-1.074,7.1,7.1,7.1,0,0,1-4.384,3.295,7.273,7.273,0,0,1-1.68.2" transform="translate(-22319.766 5922.996)" fill="#360484"></path>
    <path id="Path_128256" data-name="Path 128256" d="M174.814,9938.144l-1.043-4.868,63.682-13.649c1.851-.4,3.949-.846,5.274-1.962,1.384-1.168,2.174-3.265,2.87-5.115l7.974-21.186c2.23-5.925,4.69-14.333.321-18.921-.452-.476-.658-.534-.667-.536-.031.008-.5.105-1.651,1.626-3.492,4.62-7.377,9.283-13.073,11.119-5.146,1.659-10.557.532-15.332-.461l-1.218-.252c-22.806-4.657-46.5-2.843-69.42-1.086l-.38-4.965c23.258-1.781,47.308-3.625,70.8,1.171l1.237.257c4.374.909,8.9,1.851,12.79.6,4.314-1.391,7.616-5.4,10.627-9.383.838-1.109,3.062-4.062,6.383-3.545a6.113,6.113,0,0,1,3.514,2.022c6.3,6.616,3.436,16.928.733,24.109l-7.974,21.186c-.866,2.3-1.943,5.162-4.321,7.167-2.275,1.917-5.138,2.531-7.439,3.026Z" transform="translate(-22319.766 5922.996)" fill="#360484"></path>
    <path id="Path_128257" data-name="Path 128257" d="M161.9,9865.3l-3.32-3.711c12.872-11.517,26.182-23.426,41.62-32.146,1.049-.593,2.108-1.17,3.168-1.748a62.538,62.538,0,0,0,10.865-6.917,21.883,21.883,0,0,0,5.2-6.334l-7.26,3.977,3.99-7.406a10.812,10.812,0,0,1,5.492-4.855,15.6,15.6,0,0,0,2.39-4.306,11.355,11.355,0,0,1-5.612,1.2l-4.462-.224,2.537-3.676a9.622,9.622,0,0,1,8.446-4.019,34.432,34.432,0,0,0,4.47-5.737,7.8,7.8,0,0,0,1.306-2.609,2.6,2.6,0,0,0-.58-1.943,5.219,5.219,0,0,0-3.389-1.936c-2.622-.319-5.364.811-8.419,2.206a524,524,0,0,0-59.262,31.831l-2.633-4.228a529.247,529.247,0,0,1,59.826-32.133c3.615-1.652,7.183-3.093,11.091-2.62a10.149,10.149,0,0,1,6.766,3.889,7.509,7.509,0,0,1,1.515,5.729,11.761,11.761,0,0,1-2.051,4.534,43.6,43.6,0,0,1-3.655,4.976l-.109,1.389a19.979,19.979,0,0,1-3.726,10.075c-.173,5.642-3.3,11.453-8.638,16.009a67.158,67.158,0,0,1-11.712,7.5c-1.038.565-2.076,1.132-3.1,1.714-14.969,8.455-28.075,20.181-40.749,31.521" transform="translate(-22319.766 5922.996)" fill="#360484"></path>
    <path id="Path_128258" data-name="Path 128258" d="M70.757,9829.216a31.586,31.586,0,0,1-10.078-1.626l1.59-4.719a27.567,27.567,0,0,0,24.086-3.405,12.614,12.614,0,0,0,2.719-2.476,7.9,7.9,0,0,1-4.527-3.295,4.609,4.609,0,0,1-.259-4.253l.244-.561.476-.383a5.505,5.505,0,0,1,5.989-.53,7.462,7.462,0,0,1,3.858,4.458c5.6-.517,11.328-3.612,15.849-8.7,5.159-5.8,8.281-13.341,10.887-20.623l4.688,1.677c-2.775,7.755-6.132,15.818-11.854,22.254-5.567,6.26-12.79,9.986-19.9,10.405a14.125,14.125,0,0,1-5.329,6.114,32.555,32.555,0,0,1-18.435,5.658" transform="translate(-22319.766 5922.996)" fill="#360484"></path>
    <path id="Path_128259" data-name="Path 128259" d="M117.026,9820.312l-.631-3.205a9.225,9.225,0,0,1,1.189-6.553l2.381,1.472c.025-.06.05-.118.072-.179l4.653,1.774a9.813,9.813,0,0,1-4.74,5.231Z" transform="translate(-22319.766 5922.996)" fill="#360484"></path>
    <path id="Path_128260" data-name="Path 128260" d="M115.559,9834.009a7.646,7.646,0,0,1-5.859-2.918,7.541,7.541,0,0,1-1.533-6.977l4.757,1.471a2.96,2.96,0,0,0,2.812,3.438l.5,4.952a6.567,6.567,0,0,1-.678.034" transform="translate(-22319.766 5922.996)" fill="#360484"></path>
    <path id="Path_128261" data-name="Path 128261" d="M786.966,10540.947a9.56,9.56,0,0,1-1.858-.187,11.557,11.557,0,0,1-7.911-6.066,17.427,17.427,0,0,1-1.523-8.157c-.078.019-.157.038-.237.056a9.837,9.837,0,0,1-10.263-3.778,12.5,12.5,0,0,1-1.837-8.213,7.6,7.6,0,0,1-6.171-2.9c-3.414-4.55-2.257-10.337-.5-15.913,10.129-32.116,20.6-65.326,34.369-96.783l4.561,2c-13.658,31.213-24.091,64.294-34.182,96.285-1.359,4.309-2.332,8.676-.267,11.427.666.888,2.211,1.077,3.485.741a24.475,24.475,0,0,1,1.79-3.567l2.689-4.439,1.78,4.877a5.581,5.581,0,0,1-2.183,6.648c-.687,2.5-.705,5.084.623,7.1,1,1.514,3.339,2.027,5.025,1.656a2.413,2.413,0,0,0,2.064-1.71c.008-.049.015-.1.023-.142l4.92.768c-.012.08-.025.16-.04.24-.736,4.474-1.2,8.437.352,11.634a6.6,6.6,0,0,0,4.4,3.354,3.261,3.261,0,0,0,2.864-.616,9.276,9.276,0,0,0,1.922-3.478c11.751-30.32,22.37-61.508,31.561-92.7l.664-2.256c3.931-13.383,8-27.222,15.638-39.254,9.219-14.516,23.022-23.95,36.924-25.239,14.946-1.4,32.985,8.733,34.966,25.478,1.108,9.363-2.933,19.646-11.379,28.947-19.492,21.473-50.873,28.789-73.787,34.131l-1.13-4.849c28.878-6.733,54.17-13.835,71.231-32.629,4.321-4.76,11.383-14.34,10.12-25.017-1.32-11.157-13.777-22.562-29.561-21.1-12.378,1.148-24.782,9.729-33.181,22.952-7.265,11.438-11.23,24.935-15.064,37.987l-.665,2.261c-9.23,31.32-19.894,62.641-31.694,93.088a13.149,13.149,0,0,1-3.253,5.4,7.815,7.815,0,0,1-5.287,1.97" transform="translate(-22319.766 5922.996)" fill="#360484"></path>
    <path id="Path_128262" data-name="Path 128262" d="M721.941,10495.77a34.8,34.8,0,0,1-5.575-.511,116.79,116.79,0,0,1-45.184-17.637c-2.345-1.547-4.6-3.38-5.233-6.292a7.1,7.1,0,0,1,1.07-5.38,9.527,9.527,0,0,1,5.931-4.043,14.753,14.753,0,0,1,6.41.236c-.29-2.062-.544-4.155-.691-6.258-1.8-25.661,13.23-51.149,36.56-61.984,9-4.18,20.722-4.11,24.728,4.253l-4.491,2.149c-2.788-5.819-12.286-4.607-18.14-1.888-21.157,9.827-35.326,33.849-33.691,57.121.227,3.225.734,6.528,1.224,9.72l.615,4.015-3.856-1.272c-2.454-.809-5.236-1.729-7.644-1.219a4.577,4.577,0,0,0-2.777,1.878,2.115,2.115,0,0,0-.382,1.617c.254,1.169,1.644,2.224,3.109,3.189a111.792,111.792,0,0,0,43.242,16.88c5.714.93,9.213.444,11.346-1.58,3.122-2.963,2.4-8.593,1.273-13.71l-9.563-43.6,7.386,11.2c8.882,13.474,26.763,20.726,42.522,17.238l1.075,4.86a46.453,46.453,0,0,1-41.1-11.5l4.548,20.733c1.42,6.473,2.208,13.72-2.709,18.387-2.789,2.647-6.491,3.394-10,3.394" transform="translate(-22319.766 5922.996)" fill="#360484"></path>
    <path id="Path_128263" data-name="Path 128263" d="M734.633,10395.394l-15.3-63.307c-.553-2.286-1.241-5.131-.5-8.014.776-3.015,2.889-5.225,4.586-7l15.637-16.369c5.3-5.548,13.352-12.593,22.044-9.789a6.126,6.126,0,0,1,3.346,2.29c1.9,2.775.209,6.054-.427,7.289-2.286,4.44-4.466,9.153-3.85,13.643.556,4.053,3.364,7.721,6.079,11.267l.769,1.007c14.5,19.091,23.264,41.561,31.739,63.293l-4.639,1.808c-8.35-21.412-16.985-43.553-31.065-62.09l-.757-.991c-2.964-3.872-6.323-8.26-7.058-13.614-.814-5.929,1.7-11.451,4.355-16.6.87-1.688.756-2.159.74-2.209a2.2,2.2,0,0,0-.764-.352c-6.027-1.947-12.538,3.912-16.912,8.489l-15.637,16.369c-1.365,1.43-2.913,3.048-3.365,4.8-.432,1.679.072,3.763.517,5.6l15.3,63.307Z" transform="translate(-22319.766 5922.996)" fill="#360484"></path>
    <path id="Path_128264" data-name="Path 128264" d="M810.658,10376.849l-4.783-1.385c4.727-16.336,9.615-33.227,10.748-50.386.077-1.177.138-2.358.2-3.54a67.026,67.026,0,0,1,1.683-13.8c1.792-6.781,5.673-12.121,10.682-14.724a19.991,19.991,0,0,1,7.466-7.725l1.2-.7a43.55,43.55,0,0,1,2.9-5.449,11.731,11.731,0,0,1,3.2-3.813,7.507,7.507,0,0,1,5.82-1.119,10.142,10.142,0,0,1,6.436,4.414c2.121,3.312,2.368,7.155,2.447,11.129a529.009,529.009,0,0,1-3.03,67.843l-4.95-.543a524.094,524.094,0,0,0,3-67.2c-.067-3.358-.238-6.32-1.662-8.544a5.218,5.218,0,0,0-3.213-2.215,2.614,2.614,0,0,0-2,.32,7.734,7.734,0,0,0-1.785,2.306,34.468,34.468,0,0,0-3.234,6.518,9.61,9.61,0,0,1,.04,9.351l-2.214,3.881-2.136-3.925a11.341,11.341,0,0,1-1.351-5.577,15.576,15.576,0,0,0-2.845,4.021,10.824,10.824,0,0,1-1.995,7.054l-4.946,6.808.438-8.268a21.807,21.807,0,0,0-3.455,7.43,62.441,62.441,0,0,0-1.525,12.788c-.062,1.206-.124,2.411-.2,3.614-1.168,17.694-6.132,34.851-10.933,51.441" transform="translate(-22319.766 5922.996)" fill="#360484"></path>
    <path id="Path_128265" data-name="Path 128265" d="M883.731,10450.338a32.638,32.638,0,0,1-8.724-27.443,14.117,14.117,0,0,1,3.2-7.452c-2.706-6.593-2.479-14.717.75-22.447,3.32-7.948,9.132-14.467,14.918-20.328l3.543,3.5c-5.433,5.5-10.874,11.585-13.867,18.75-2.622,6.277-2.932,12.778-.969,18.053a7.475,7.475,0,0,1,5.69,1.544,5.51,5.51,0,0,1,2.118,5.627l-.139.6-.4.463a4.66,4.66,0,0,1-3.946,1.609,7.906,7.906,0,0,1-4.931-2.652,12.633,12.633,0,0,0-1.052,3.523,27.57,27.57,0,0,0,7.37,23.182Z" transform="translate(-22319.766 5922.996)" fill="#360484"></path>
    <path id="Path_128266" data-name="Path 128266" d="M865.869,10396.4l.047-3.268a9.826,9.826,0,0,1,2.661-6.54l3.615,3.426c-.044.046-.087.094-.129.142l2.357,1.508a9.219,9.219,0,0,1-5.389,3.912Z" transform="translate(-22319.766 5922.996)" fill="#360484"></path>
    <path id="Path_128267" data-name="Path 128267" d="M861.306,10407.915a8.426,8.426,0,0,1-1.978-.238,7.542,7.542,0,0,1-5.431-4.641l4.681-1.7a2.961,2.961,0,0,0,4.316,1.045l3.388,3.648a7.266,7.266,0,0,1-4.976,1.881" transform="translate(-22319.766 5922.996)" fill="#360484"></path>
    <path id="Path_128268" data-name="Path 128268" d="M875.133,10171.939l-4.937-.649c9.456-71.821-1.066-146.3-30.428-215.388-29.63-69.72-76.188-128.427-134.642-169.776-58.847-41.627-129.944-65.666-205.6-69.516s-148.83,12.847-211.6,48.284l-2.448-4.336c63.593-35.9,137.7-52.813,214.3-48.923S648.383,9739.887,708,9782.062c59.208,41.884,106.357,101.323,136.348,171.894,29.71,69.907,40.354,145.285,30.783,217.984" transform="translate(-22319.766 5922.996)" fill="#f04e98"></path>
    <path id="Path_128269" data-name="Path 128269" d="M871.891,10171.245l-22.63-38.521c-2.759,7.841-1.465,16.473.169,24.621a328.993,328.993,0,0,0,18.814,61.668,285.44,285.44,0,0,0,37.358-82.074,151.808,151.808,0,0,1-31.5,33.917" transform="translate(-22319.766 5922.996)" fill="#f04e98"></path>
    <rect id="Rectangle_4183" data-name="Rectangle 4183" width="57.949" height="86.29" transform="translate(-21472.111 16055.716)" fill="none"></rect>
    <path id="Path_128270" data-name="Path 128270" d="M466.153,10536.851q-10.731,0-21.536-.55c-76.605-3.9-148.608-28.251-208.227-70.425-59.208-41.882-106.357-101.322-136.348-171.892-29.71-69.906-40.354-145.285-30.783-217.986l4.936.651c-9.455,71.818,1.067,146.3,30.429,215.388,29.63,69.718,76.188,128.426,134.641,169.774,58.847,41.629,129.944,65.666,205.6,69.518s148.83-12.847,211.6-48.286l2.448,4.336c-57.611,32.527-123.855,49.472-192.764,49.472" transform="translate(-22319.766 5922.996)" fill="#f04e98"></path>
    <path id="Path_128271" data-name="Path 128271" d="M72.5,10076.693l22.63,38.521c2.759-7.84,1.465-16.472-.169-24.621a329.017,329.017,0,0,0-18.814-61.668A285.445,285.445,0,0,0,38.789,10111a151.789,151.789,0,0,1,31.5-33.917" transform="translate(-22319.766 5922.996)" fill="#f04e98"></path>
    <rect id="Rectangle_4184" data-name="Rectangle 4184" width="57.948" height="86.28" transform="translate(-22280.977 15951.926)" fill="none"></rect>
    <rect id="Rectangle_4185" data-name="Rectangle 4185" width="42.652" height="4.979" transform="matrix(0.825, -0.565, 0.565, 0.825, -21434.467, 16223.77)" fill="#f04e98"></rect>
    <path id="Path_128272" data-name="Path 128272" d="M903.149,10341.758l-3.252-3.77a74.375,74.375,0,0,1,28.753-15.322l1.315,4.8a69.37,69.37,0,0,0-26.816,14.289" transform="translate(-22319.766 5922.996)" fill="#f04e98"></path>
    <path id="Path_128273" data-name="Path 128273" d="M948.5,10397.823a18.4,18.4,0,0,1-16.115-9.271,17.786,17.786,0,0,1-1.192-13.283,86.562,86.562,0,0,0-23.034-10.529l1.379-4.784a91.418,91.418,0,0,1,23.679,10.7,16.981,16.981,0,0,1,6.058-5.967c8.023-4.571,19.257-1.651,24.042,6.244l-4.259,2.58c-3.386-5.588-11.641-7.73-17.319-4.5a12.071,12.071,0,0,0-4.386,4.428,91.524,91.524,0,0,1,19.567,18.9l1.826,2.393-2.691,1.346a16.859,16.859,0,0,1-7.555,1.739m-12.9-19.5a12.486,12.486,0,0,0,1.176,7.888c2.573,4.814,8.667,7.412,14.011,6.43a86.749,86.749,0,0,0-15.187-14.317" transform="translate(-22319.766 5922.996)" fill="#f04e98"></path>
    <rect id="Rectangle_4186" data-name="Rectangle 4186" width="4.979" height="23.214" transform="translate(-22319.766 15781.33) rotate(-61.598)" fill="#f04e98"></rect>
    <path id="Path_128274" data-name="Path 128274" d="M38.325,9837.705A208.894,208.894,0,0,1,8.2,9802.171l4.133-2.776a203.925,203.925,0,0,0,29.4,34.688Z" transform="translate(-22319.766 5922.996)" fill="#f04e98"></path>
    <path id="Path_128275" data-name="Path 128275" d="M49.428,9782.4l-4.953-.509a70.314,70.314,0,0,0,.064-10q-.036-.875-.068-1.761a15.387,15.387,0,0,1-7.49-4.678c-4.2-4.819-4.6-11.463-4.536-16.042a70.488,70.488,0,0,1,12.708-39.174l4.072,2.864a65.473,65.473,0,0,0-11.8,36.381c-.085,5.975.967,10.01,3.31,12.7a10.1,10.1,0,0,0,3.673,2.634q.017-.738.054-1.478c.424-8.234,3.341-14.787,8.212-18.45a14.669,14.669,0,0,1,12.266-2.312,10.956,10.956,0,0,1,7.525,6.1c3.256,7.373-2.7,15.645-10.331,19.381a27.557,27.557,0,0,1-12.65,2.826c.01.27.021.538.032.81a75,75,0,0,1-.086,10.705m-.059-16.512a22.4,22.4,0,0,0,10.575-2.3c5.4-2.643,9.983-8.326,7.964-12.9a6.214,6.214,0,0,0-4.227-3.3,9.712,9.712,0,0,0-8.017,1.474c-4.954,3.726-6.03,10.827-6.232,14.727-.039.766-.058,1.528-.063,2.294" transform="translate(-22319.766 5922.996)" fill="#f04e98"></path>
    <rect id="Rectangle_4187" data-name="Rectangle 4187" width="41.13" height="4.979" transform="translate(-22209.693 15688.259) rotate(-83.265)" fill="#f04e98"></rect>
    <rect id="Rectangle_4188" data-name="Rectangle 4188" width="31.55" height="4.979" transform="translate(-22159.848 15692.074) rotate(-86.41)" fill="#f04e98"></rect>
    <rect id="Rectangle_4189" data-name="Rectangle 4189" width="4.979" height="26.526" transform="translate(-21472.184 16415.723) rotate(-24.851)" fill="#f04e98"></rect>
    <path id="Path_128276" data-name="Path 128276" d="M893.338,10494.086A62.874,62.874,0,0,0,882.962,10469l4.077-2.856a67.87,67.87,0,0,1,11.2,27.082Z" transform="translate(-22319.766 5922.996)" fill="#f04e98"></path>
  </g>
</svg>
