<?xml version="1.0" encoding="UTF-8"?>
<svg xmlns="http://www.w3.org/2000/svg" width="275.988" height="273.939" viewBox="0 0 275.988 273.939">
  <g id="Group_3168" data-name="Group 3168" transform="translate(-3874.777 5757.043)">
    <path id="Path_125536" data-name="Path 125536" d="M3970.194-5557.219a3.189,3.189,0,0,0,2.669-.564c3.728,14.456,11.02,27.7,18.239,40.766a45.961,45.961,0,0,0,6.353,9.525c5.941,6.311,15.2,8.78,23.824,7.864s16.662-4.863,23.809-9.766a16.532,16.532,0,0,0,5.045-4.753c1.949-3.216,1.71-7.278,1.029-10.975-1.849-10.048-6.438-19.35-10.978-28.5l-7.509-15.143c-1.251-2.523-2.662-5.213-5.176-6.483" fill="#f04e98" stroke="#f04e98" stroke-miterlimit="10" stroke-width="2"></path>
    <path id="Path_125537" data-name="Path 125537" d="M3886.2-5560.507a182.829,182.829,0,0,1-7.555-44.651c-.317-7.326-.039-15.179,4.163-21.189,4.3-6.154,11.79-9.08,18.841-11.661,28.542-10.449,57.408-20.707,87.484-25.093,4.8-.7,9.86-1.221,14.367.571,3.887,1.547,6.949,4.675,9.365,8.091,6.2,8.771,8.736,19.564,10.709,30.125a400.616,400.616,0,0,1,5.727,44.1,8.39,8.39,0,0,1-.567,4.694c-.9,1.643-2.76,2.48-4.5,3.175-35.236,14.069-74.254,14.624-111.2,23.262-4.889,1.144-9.914,2.438-14.872,1.642s-9.877-4.328-10.516-9.309" fill="#6ad1e3" stroke="#6ad1e3" stroke-miterlimit="10" stroke-width="2"></path>
    <path id="Path_125538" data-name="Path 125538" d="M3931.715-5645.39c5.087-2.353,11.323-.876,15.825,2.463s7.552,8.257,10.1,13.246c9.391,18.357,13.372,38.923,17.248,59.175" fill="none" stroke="#703dc1" stroke-miterlimit="10" stroke-width="2"></path>
    <path id="Path_125539" data-name="Path 125539" d="M4028.733-5575.515a5.357,5.357,0,0,0,.6-2.109,16.24,16.24,0,0,0-7.476-2.638,27.834,27.834,0,0,0-7.168.658,526.81,526.81,0,0,0-70.075,17.826,6.763,6.763,0,0,0-3.482,2c-1.019,1.359-.876,3.232-.686,4.919l.063.563c28.383-4.507,57.128-7.428,83.72-18.046C4025.975-5573.035,4027.83-5573.872,4028.733-5575.515Z" fill="#360484" stroke="#360484" stroke-miterlimit="10" stroke-width="2"></path>
    <path id="Path_125540" data-name="Path 125540" d="M3982.718-5562.245c-5.4,1.262-10.942,2.691-16.414,1.812s-10.9-4.777-11.606-10.274l-1.6-4.152a201.784,201.784,0,0,1-8.338-49.28c-.35-8.086-.043-16.753,4.595-23.386,3.632-5.193,9.318-8.3,15.272-10.753-21.389,5.21-42.271,12.689-62.98,20.271-7.052,2.582-14.538,5.508-18.841,11.662-4.2,6.01-4.48,13.863-4.163,21.189a182.829,182.829,0,0,0,7.555,44.651l1.446,3.761c.639,4.981,5.558,8.512,10.516,9.309s9.982-.5,14.872-1.641c32.317-7.556,66.22-8.927,97.79-18.568C4001.388-5566.121,3991.994-5564.414,3982.718-5562.245Z" fill="#703dc1" stroke="#703dc1" stroke-miterlimit="10" stroke-width="2"></path>
    <path id="Path_125541" data-name="Path 125541" d="M3913.507-5642.762q-4.89-20.572-11.537-40.673c-.233-.705-.552-1.5-1.254-1.742a2.453,2.453,0,0,0-1.9.424,135.271,135.271,0,0,0-22.392,15.246,1.727,1.727,0,0,0-.628.791,1.745,1.745,0,0,0,.279,1.212l2.3,4.517a5.818,5.818,0,0,0,2.164,2.707c1.72.915,3.8-.078,5.476-1.066q9.339-5.491,18.391-11.457" fill="#360484" stroke="#360484" stroke-miterlimit="10" stroke-width="2"></path>
    <path id="Path_125542" data-name="Path 125542" d="M3938.856-5555.375q-.366,35.589.108,71.182a1.749,1.749,0,0,0,1.6-1.745" fill="none" stroke="#360484" stroke-miterlimit="10" stroke-width="2"></path>
    <path id="Path_125543" data-name="Path 125543" d="M4030.41-5662.24a147.666,147.666,0,0,0-6.373-16.681l-11.53,2.134c2.074-6.272,4.216-12.677,8.241-17.917s10.357-9.187,16.937-8.585c4.063.372,7.766,2.392,11.335,4.37l15.447,8.559" fill="none" stroke="#360484" stroke-miterlimit="10" stroke-width="2"></path>
    <path id="Path_125544" data-name="Path 125544" d="M4029.917-5663.678c3.669,13.288,12.467,25.345,24.673,31.751s27.771,6.624,39.546-.544l4.188,21.719c.591,3.063,1.234,6.246,3.124,8.728s5.426,4.009,8.219,2.622,3.223-6.259.325-7.414c-.783,2.306.789,4.963,3.036,5.9a8.124,8.124,0,0,0,7.008-.785,7,7,0,0,0,3.561-4.273,3.923,3.923,0,0,0-2.38-4.616c-2.12.334-2.423,3.655-.824,5.085s4.006,1.4,6.129,1.087c4.023-.591,8.358-2.247,10.08-5.931,2.073-4.441-.534-9.567-3.188-13.687a247.673,247.673,0,0,0-48.55-55.176" fill="none" stroke="#360484" stroke-miterlimit="10" stroke-width="2"></path>
    <path id="Path_125545" data-name="Path 125545" d="M4065.088-5675.334c-.688-8.423-1.375-16.918-.312-25.3.459-3.628,1.286-7.312,3.308-10.359a27.517,27.517,0,0,1,7.181-6.729,181.773,181.773,0,0,1,32.188-18.482c5.673-2.526,11.653-4.795,17.863-4.756a4.609,4.609,0,0,1,1.974.33,4.187,4.187,0,0,1,1.938,2.689c2.1,6.829-2.564,13.723-6.965,19.351-2.507,3.208-5.223,6.568-9.057,7.938-.878-1.929,2.052-3.831,3.921-2.829s2.444,3.428,2.352,5.546a14.741,14.741,0,0,1-6.049,11.166,4.184,4.184,0,0,1-2.724.99,1.775,1.775,0,0,1-1.669-1.873c0-.043.007-.085.012-.127a2.658,2.658,0,0,1,3.625-.807,5.428,5.428,0,0,1,2.252,3.373,12.2,12.2,0,0,1-4.528,12.86c-3.047,2.183-7.944,2.472-10.068-.616.9-1.194,2.991-.7,3.753.586a5.414,5.414,0,0,1,.09,4.35c-2.565,8.135-11.283,12.913-19.735,14.067" fill="none" stroke="#360484" stroke-miterlimit="10" stroke-width="2"></path>
    <path id="Path_125546" data-name="Path 125546" d="M4066.054-5637.678a27.365,27.365,0,0,1-7.261,18.4" fill="none" stroke="#360484" stroke-miterlimit="10" stroke-width="2"></path>
    <path id="Path_125547" data-name="Path 125547" d="M4052.419-5632.625a15.854,15.854,0,0,1-9.674,9.189" fill="none" stroke="#360484" stroke-miterlimit="10" stroke-width="2"></path>
    <path id="Path_125548" data-name="Path 125548" d="M4058.336-5618.882q-11.531-4.46-23.3-8.271c-3.2-1.037-6.967-1.965-9.722-.029a10.783,10.783,0,0,0-3.252,4.762,285.137,285.137,0,0,0-10.1,27.944c-1.136,3.58-2.147,7.839.155,10.807,1.465,1.889,3.9,2.693,6.184,3.392,14.757,4.515,29.691,8.844,45.058,10.275a6.665,6.665,0,0,0,2.662-.121,6.692,6.692,0,0,0,3.18-2.981,108.539,108.539,0,0,0,13.311-27.981c.512-1.653.964-3.531.122-5.042a6.682,6.682,0,0,0-3.084-2.4L4066.1-5615.2" fill="#360484" stroke="#360484" stroke-miterlimit="10" stroke-width="2"></path>
    <path id="Path_125549" data-name="Path 125549" d="M4052.1-5698.252a15.485,15.485,0,0,1-3.276-10.7,36.272,36.272,0,0,1,2.654-11.093,113.117,113.117,0,0,1,17.688-31.128c1.606-2,3.442-4.055,5.927-4.7a3.666,3.666,0,0,1,2.636.178,4.656,4.656,0,0,1,1.788,2.236,25.513,25.513,0,0,1-2.286,25.361c-.539-1.492,1.139-3.107,2.71-2.9a3.977,3.977,0,0,1,3.051,3.258,11.664,11.664,0,0,1-.312,4.714" fill="none" stroke="#360484" stroke-miterlimit="10" stroke-width="2"></path>
    <path id="Path_125550" data-name="Path 125550" d="M3977.6-5546.76a27.336,27.336,0,0,1,4.485-5.865l11.36-12.356" fill="none" stroke="#703dc1" stroke-miterlimit="10" stroke-width="2"></path>
    <path id="Path_125551" data-name="Path 125551" d="M3981.81-5533.015q13.934-18.261,28.817-35.769" fill="none" stroke="#703dc1" stroke-miterlimit="10" stroke-width="2"></path>
    <path id="Path_125552" data-name="Path 125552" d="M3988.666-5520.166c5.734-8.5,12.721-16.06,19.211-23.993,8.414-10.281,16.013-21.2,23.6-32.1a.7.7,0,0,0,.182-.631c-.086-.212-.507-.171-.455.051" fill="none" stroke="#703dc1" stroke-miterlimit="10" stroke-width="2"></path>
    <path id="Path_125553" data-name="Path 125553" d="M3976.334-5556.95a428.661,428.661,0,0,0,30.888,34.274" fill="none" stroke="#703dc1" stroke-miterlimit="10" stroke-width="2"></path>
    <path id="Path_125554" data-name="Path 125554" d="M3991.093-5561.387l23.353,24.172" fill="none" stroke="#703dc1" stroke-miterlimit="10" stroke-width="2"></path>
    <path id="Path_125555" data-name="Path 125555" d="M4018.382-5531.3a7.753,7.753,0,0,1,1.122-2.222" fill="none" stroke="#703dc1" stroke-miterlimit="10" stroke-width="2"></path>
    <path id="Path_125556" data-name="Path 125556" d="M4024.117-5539.219l1.434-.3" fill="none" stroke="#703dc1" stroke-miterlimit="10" stroke-width="2"></path>
    <path id="Path_125557" data-name="Path 125557" d="M4026.665-5531.135l.478-2.067" fill="none" stroke="#703dc1" stroke-miterlimit="10" stroke-width="2"></path>
    <path id="Path_125558" data-name="Path 125558" d="M4016.523-5567.732q4.694,6.225,9.8,12.127" fill="none" stroke="#703dc1" stroke-miterlimit="10" stroke-width="2"></path>
    <path id="Path_125559" data-name="Path 125559" d="M4046.8-5623.208a57.493,57.493,0,0,0-5.394,12.155,1.348,1.348,0,0,0-.076.8,1.347,1.347,0,0,0,.771.687,41.937,41.937,0,0,0,9.585,3.343,2.5,2.5,0,0,0,1.3.042,2.594,2.594,0,0,0,1.282-1.4l5.238-9.812" fill="#f04e98" stroke="#f04e98" stroke-miterlimit="10" stroke-width="2"></path>
    <path id="Path_125560" data-name="Path 125560" d="M4029.343-5688.767a6.174,6.174,0,0,0-5.459,3.209,1.16,1.16,0,0,0-.174.572,1.125,1.125,0,0,0,.524.784,5.092,5.092,0,0,0,3.979.793,9.946,9.946,0,0,0,3.768-1.726c.911-.632,1.86-1.591,1.617-2.671a2.044,2.044,0,0,0-1.19-1.324,6.028,6.028,0,0,0-1.79-.416" fill="none" stroke="#360484" stroke-miterlimit="10" stroke-width="2"></path>
    <path id="Path_125561" data-name="Path 125561" d="M4025.779-5684.119a1.375,1.375,0,0,1-1.167-1.12,2.2,2.2,0,0,1,.41-1.643,1.969,1.969,0,0,1,1.162-.863,1.883,1.883,0,0,1,1.647.578,1.965,1.965,0,0,1,.633,1.439,1.65,1.65,0,0,1-1.433,1.5,1.857,1.857,0,0,1-1.83-1.053" stroke="#360484" stroke-miterlimit="10" stroke-width="2"></path>
    <path id="Path_125562" data-name="Path 125562" d="M3998.817-5732.393c3.018-1.264,6.452.632,8.73,2.979a21.805,21.805,0,0,1,5.9,12.076c.136.972.13,2.135-.655,2.725a1.921,1.921,0,0,1-2.626-.7l-.014-.024a3.7,3.7,0,0,1-.136-2.99,7.433,7.433,0,0,1,9.552-4.389c.083.031.166.063.248.1,3.432,1.6,4.994,5.536,6.243,9.111" fill="none" stroke="#6ad1e3" stroke-miterlimit="10" stroke-width="2"></path>
    <path id="Path_125563" data-name="Path 125563" d="M4000.741-5706.148a13.178,13.178,0,0,1,6.2,3.085" fill="none" stroke="#6ad1e3" stroke-miterlimit="10" stroke-width="2"></path>
    <path id="Path_125564" data-name="Path 125564" d="M4033.652-5738.59a120.742,120.742,0,0,1,.949,15.261" fill="none" stroke="#6ad1e3" stroke-miterlimit="10" stroke-width="2"></path>
    <path id="Path_125565" data-name="Path 125565" d="M4109.831-5669.348a60.755,60.755,0,0,1,9.628-9.9" fill="none" stroke="#6ad1e3" stroke-miterlimit="10" stroke-width="2"></path>
    <path id="Path_125566" data-name="Path 125566" d="M4117.385-5662a63.189,63.189,0,0,1,7.554-6.058" fill="none" stroke="#6ad1e3" stroke-miterlimit="10" stroke-width="2"></path>
    <path id="Path_125567" data-name="Path 125567" d="M4132.606-5649.886a34.021,34.021,0,0,1,9.936,16.233" fill="none" stroke="#6ad1e3" stroke-miterlimit="10" stroke-width="2"></path>
    <path id="Path_125568" data-name="Path 125568" d="M4144.767-5653.226a12.3,12.3,0,0,1,5,9.063" fill="none" stroke="#6ad1e3" stroke-miterlimit="10" stroke-width="2"></path>
    <path id="Path_125569" data-name="Path 125569" d="M3892.972-5574.517a39.958,39.958,0,0,1,13.819-3.862" fill="none" stroke="#fff" stroke-miterlimit="10" stroke-width="2"></path>
    <path id="Path_125570" data-name="Path 125570" d="M3896.772-5567.407l10.469-2.945" fill="none" stroke="#fff" stroke-miterlimit="10" stroke-width="2"></path>
    <path id="Path_125571" data-name="Path 125571" d="M3901.037-5559.4l6.689-1.862" fill="none" stroke="#fff" stroke-miterlimit="10" stroke-width="2"></path>
  </g>
</svg>
