<?xml version="1.0" encoding="UTF-8"?>
<svg xmlns="http://www.w3.org/2000/svg" width="86" height="86" viewBox="0 0 86 86">
  <g id="Group_3045" data-name="Group 3045" transform="translate(-1458 -2109)">
    <circle id="Ellipse_12" data-name="Ellipse 12" cx="43" cy="43" r="43" transform="translate(1458 2109)" fill="#dd509a"></circle>
    <g id="Group_851" data-name="Group 851" transform="translate(1482.32 2132.16)">
      <g id="Group_848" data-name="Group 848" transform="translate(0 16.427)">
        <path id="Path_38261" data-name="Path 38261" d="M297.479,144.426a4.989,4.989,0,0,0,5.969,4.9,6.807,6.807,0,0,1,3.518-2.834,6.62,6.62,0,0,1-.9-5.535A5,5,0,0,0,297.479,144.426Z" transform="translate(-294.145 -139.424)" fill="#6ad2f1"></path>
        <path id="Path_38262" data-name="Path 38262" d="M295.479,150.426v5h8.336c0-6.6-.29-7.969.917-10h-4.251A5,5,0,0,0,295.479,150.426Z" transform="translate(-295.479 -135.421)" fill="#6ad2f1"></path>
      </g>
      <g id="Group_849" data-name="Group 849" transform="translate(23.858 16.427)">
        <path id="Path_38263" data-name="Path 38263" d="M319.275,144.426a4.99,4.99,0,0,1-5.969,4.9,6.806,6.806,0,0,0-3.518-2.834,6.633,6.633,0,0,0,.9-5.535A5,5,0,0,1,319.275,144.426Z" transform="translate(-309.789 -139.424)" fill="#6ad2f1"></path>
        <path id="Path_38264" data-name="Path 38264" d="M321.182,150.426v5h-8.336c0-6.6.288-7.969-.917-10h4.251A5,5,0,0,1,321.182,150.426Z" transform="translate(-308.361 -135.421)" fill="#6ad2f1"></path>
      </g>
      <g id="Group_850" data-name="Group 850" transform="translate(8.336 13.092)">
        <path id="Path_38265" data-name="Path 38265" d="M316,147.827a6.668,6.668,0,1,0-11.045,0,6.656,6.656,0,0,0-4.48,6.269v6.669h20.007V154.1A6.655,6.655,0,0,0,316,147.827Zm-5.522-7.069a3.334,3.334,0,1,1-3.334,3.334A3.34,3.34,0,0,1,310.482,140.758Zm6.669,16.672H303.813V154.1a3.339,3.339,0,0,1,3.334-3.334h6.669a3.34,3.34,0,0,1,3.334,3.334Z" transform="translate(-300.479 -137.424)" fill="#fff"></path>
      </g>
      <path id="Path_38266" data-name="Path 38266" d="M301.882,131.424l1.1,2.172,2.406.375-1.725,1.718.386,2.4-2.167-1.11-2.167,1.11.386-2.4-1.725-1.718,2.406-.375Z" transform="translate(-293.546 -128.335)" fill="#6ad2f1"></path>
      <path id="Path_38267" data-name="Path 38267" d="M313.882,131.424l1.1,2.172,2.406.375-1.725,1.718.386,2.4-2.167-1.11-2.167,1.11.386-2.4-1.725-1.718,2.406-.375Z" transform="translate(-285.54 -128.335)" fill="#6ad2f1"></path>
      <path id="Path_38268" data-name="Path 38268" d="M308.48,129.571l1.57,3.1,3.432.536-2.461,2.45.551,3.429L308.48,137.5l-3.091,1.584.551-3.429-2.461-2.45,3.432-.536Z" transform="translate(-290.142 -129.571)" fill="#6ad2f1"></path>
    </g>
  </g>
</svg>
