<?xml version="1.0" encoding="UTF-8"?>
<svg xmlns="http://www.w3.org/2000/svg" width="73" height="73" viewBox="0 0 73 73">
  <g id="Group_3063" data-name="Group 3063" transform="translate(19806 9216)">
    <rect id="Rectangle_3091" data-name="Rectangle 3091" width="73" height="73" transform="translate(-19806 -9216)" fill="none"></rect>
    <g id="Group_3050" data-name="Group 3050" transform="translate(-19800 -9211)">
      <ellipse id="Ellipse_44" data-name="Ellipse 44" cx="27.857" cy="27.857" rx="27.857" ry="27.857" transform="translate(2.785 2.787)" fill="#fff"></ellipse>
      <g id="Group_2827" data-name="Group 2827">
        <path id="Path_125069" data-name="Path 125069" d="M331.119,1247.353a30.643,30.643,0,1,1,30.643-30.643A30.675,30.675,0,0,1,331.119,1247.353Zm0-55.714a25.071,25.071,0,1,0,25.071,25.071A25.1,25.1,0,0,0,331.119,1191.639Z" transform="translate(-300.476 -1186.068)" fill="#6ad2f1"></path>
      </g>
      <path id="Path_125070" data-name="Path 125070" d="M322.206,1213.008a16.989,16.989,0,0,1-16.661-13.658c-.078-.39-2.861-.27,33.375-.27A16.991,16.991,0,0,1,322.206,1213.008Z" transform="translate(-291.563 -1162.865)" fill="#dd509a"></path>
      <g id="Group_2828" data-name="Group 2828" transform="translate(11.143 16.714)">
        <path id="Path_125071" data-name="Path 125071" d="M321.19,1200.425h-5.571a2.786,2.786,0,0,0-5.571,0h-5.571a8.357,8.357,0,0,1,16.714,0Z" transform="translate(-304.476 -1192.068)" fill="#703dc1"></path>
      </g>
      <g id="Group_2829" data-name="Group 2829" transform="translate(33.428 16.714)">
        <path id="Path_125072" data-name="Path 125072" d="M329.19,1200.425h-5.571a2.786,2.786,0,0,0-5.571,0h-5.571a8.357,8.357,0,1,1,16.714,0Z" transform="translate(-312.476 -1192.068)" fill="#703dc1"></path>
      </g>
    </g>
  </g>
</svg>
