<?xml version="1.0" encoding="UTF-8"?>
<svg xmlns="http://www.w3.org/2000/svg" width="86" height="86" viewBox="0 0 86 86">
  <g id="Group_3043" data-name="Group 3043" transform="translate(-597 -2109)">
    <circle id="Ellipse_8" data-name="Ellipse 8" cx="43" cy="43" r="43" transform="translate(597 2109)" fill="#360484"></circle>
    <g id="Group_843" data-name="Group 843" transform="translate(621.119 2135.16)">
      <path id="Path_38250" data-name="Path 38250" d="M173.149,155.582c-.532.555.61-.594-8.97,8.986l-1.167-5.9-5.9-1.167c7.712-7.711,7.081-7.087,7.652-7.636a4.459,4.459,0,0,0,4.4,3.768C171.465,153.631,172.145,155.025,173.149,155.582Z" transform="translate(-157.11 -127.893)" fill="#6ad2f1"></path>
      <path id="Path_38251" data-name="Path 38251" d="M169.49,155.582c.532.555-.61-.594,8.97,8.986l1.167-5.9,5.9-1.167c-7.713-7.711-7.081-7.087-7.652-7.636a4.459,4.459,0,0,1-4.4,3.768C171.174,153.631,170.494,155.025,169.49,155.582Z" transform="translate(-148.85 -127.893)" fill="#6ad2f1"></path>
      <g id="Group_842" data-name="Group 842" transform="translate(3.338)">
        <path id="Path_38252" data-name="Path 38252" d="M169.79,164.9a2.762,2.762,0,0,0-1.964-.814,6.121,6.121,0,0,1-6.114-6.114,2.758,2.758,0,0,0-.814-1.964,6.121,6.121,0,0,1,0-8.645,2.759,2.759,0,0,0,.814-1.966,6.121,6.121,0,0,1,6.114-6.114,2.76,2.76,0,0,0,1.964-.812,6.12,6.12,0,0,1,8.646,0,2.76,2.76,0,0,0,1.964.812,6.121,6.121,0,0,1,6.114,6.114,2.759,2.759,0,0,0,.814,1.966,6.118,6.118,0,0,1,0,8.645,2.758,2.758,0,0,0-.814,1.964,6.121,6.121,0,0,1-6.114,6.114,2.762,2.762,0,0,0-1.964.814A6.12,6.12,0,0,1,169.79,164.9Zm2.357-24.07a6.069,6.069,0,0,1-4.321,1.789,2.783,2.783,0,0,0-2.779,2.779,6.071,6.071,0,0,1-1.791,4.323,2.781,2.781,0,0,0,0,3.93,6.067,6.067,0,0,1,1.791,4.321,2.783,2.783,0,0,0,2.779,2.779,6.071,6.071,0,0,1,4.321,1.791,2.786,2.786,0,0,0,3.931,0,6.074,6.074,0,0,1,4.321-1.791,2.783,2.783,0,0,0,2.779-2.779,6.067,6.067,0,0,1,1.791-4.321,2.781,2.781,0,0,0,0-3.93,6.071,6.071,0,0,1-1.791-4.323,2.783,2.783,0,0,0-2.779-2.779,6.072,6.072,0,0,1-4.321-1.789A2.783,2.783,0,0,0,172.148,140.831Z" transform="translate(-159.112 -136.686)" fill="#fff"></path>
      </g>
      <path id="Path_38253" data-name="Path 38253" d="M170.779,141.879l2.093,4.131,4.576.714-3.282,3.267.735,4.572-4.122-2.112-4.122,2.112.735-4.572-3.282-3.267,4.576-.714Z" transform="translate(-152.439 -133.22)" fill="#292932"></path>
      <path id="Path_38254" data-name="Path 38254" d="M170.779,141.879l2.093,4.131,4.576.714-3.282,3.267.735,4.572-4.122-2.112-4.122,2.112.735-4.572-3.282-3.267,4.576-.714Z" transform="translate(-152.439 -133.22)" fill="#6ad2f1"></path>
    </g>
  </g>
</svg>
