<?xml version="1.0" encoding="UTF-8"?>
<svg xmlns="http://www.w3.org/2000/svg" width="73" height="73" viewBox="0 0 73 73">
  <g id="Group_3067" data-name="Group 3067" transform="translate(19615 9216)">
    <rect id="Rectangle_3096" data-name="Rectangle 3096" width="73" height="73" transform="translate(-19615 -9216)" fill="none"></rect>
    <g id="Group_3051" data-name="Group 3051" transform="translate(-19601 -9211)">
      <ellipse id="Ellipse_45" data-name="Ellipse 45" cx="19.5" cy="19.5" rx="19.5" ry="19.5" transform="translate(2.785 2.785)" fill="#fff"></ellipse>
      <path id="Path_125079" data-name="Path 125079" d="M376.232,1202.366a6.97,6.97,0,0,0-6.964-6.964h-2.786a1.393,1.393,0,0,1,0-2.786h9.75v-5.571h-5.571v-2.786h-5.571v2.925a6.965,6.965,0,0,0,1.393,13.789h2.786a1.393,1.393,0,0,1,0,2.786h-9.75v5.571h5.571v2.786h5.571v-2.928A6.974,6.974,0,0,0,376.232,1202.366Z" transform="translate(-345.59 -1175.902)" fill="#703dc1"></path>
      <g id="Group_2838" data-name="Group 2838">
        <path id="Path_125080" data-name="Path 125080" d="M399.089,1203.545a22.286,22.286,0,1,0-25.071,22.09v16.909h5.571v-16.909A22.3,22.3,0,0,0,399.089,1203.545ZM376.8,1220.259a16.714,16.714,0,1,1,16.714-16.714A16.733,16.733,0,0,1,376.8,1220.259Z" transform="translate(-354.518 -1181.259)" fill="#6ad2f1"></path>
      </g>
      <path id="Rectangle_2934" data-name="Rectangle 2934" d="M3,0H16.714a0,0,0,0,1,0,0V8.143a3,3,0,0,1-3,3H0a0,0,0,0,1,0,0V3A3,3,0,0,1,3,0Z" transform="translate(22.285 50.142)" fill="#dd509a"></path>
      <path id="Rectangle_2935" data-name="Rectangle 2935" d="M0,0H13.714a3,3,0,0,1,3,3v8.143a0,0,0,0,1,0,0H3a3,3,0,0,1-3-3V0A0,0,0,0,1,0,0Z" transform="translate(22.285 61.284) rotate(-180)" fill="#dd509a"></path>
    </g>
  </g>
</svg>
