<?xml version="1.0" encoding="UTF-8"?>
<svg xmlns="http://www.w3.org/2000/svg" width="680.511" height="643.958" viewBox="0 0 680.511 643.958">
  <g id="Group_3114" data-name="Group 3114" transform="translate(-1309.608 -792.54)">
    <g id="Group_3114-2" data-name="Group 3114" transform="translate(1533.923 1052.65)">
      <g id="Group_3" data-name="Group 3" transform="translate(0 93.936)">
        <path id="Path_16" data-name="Path 16" d="M1601.406,1240.179v-1.194c0-3.8-1.375-5.1-5.392-5.1-3.8,0-5.356,1.846-5.356,5.681v8.794c0,3.87,1.592,5.753,5.356,5.753,4.017,0,5.392-1.3,5.392-5.175V1247.6h3.329v1.266c0,5.284-2.28,8.215-8.722,8.215-6.188,0-8.685-3.329-8.685-8.647v-8.9c0-5.284,2.606-8.648,8.794-8.648,6.442,0,8.613,3.04,8.613,8.252v1.049Z" transform="translate(-1587.328 -1230.877)" fill="#7c7c7c"></path>
        <path id="Path_17" data-name="Path 17" d="M1629.937,1245.057v5.357c0,5.139-3.039,7.817-8.36,7.817-5.392,0-8.4-2.678-8.4-7.817v-5.357c0-4.994,2.894-7.816,8.4-7.816C1627.042,1237.241,1629.937,1240.063,1629.937,1245.057Zm-13.607.109v5.139c0,3.329,1.665,5.139,5.248,5.139,3.547,0,5.211-1.81,5.211-5.139v-5.139c0-3.474-1.809-5.175-5.211-5.175C1618.1,1239.991,1616.329,1241.692,1616.329,1245.166Z" transform="translate(-1592.299 -1232.1)" fill="#7c7c7c"></path>
        <path id="Path_18" data-name="Path 18" d="M1641.584,1237.6l.579,2.968a6.813,6.813,0,0,1,6.08-3.329c5.247,0,7.563,2.967,7.563,7.852v12.775H1652.7v-12.525c0-3.329-1.7-5.32-5.248-5.32-3.293,0-5.175,2.244-5.175,5.609v12.233h-3.148V1237.6Z" transform="translate(-1597.288 -1232.1)" fill="#7c7c7c"></path>
        <path id="Path_19" data-name="Path 19" d="M1663.587,1236.742h3l.652-3.98h2.425v3.98h4.343v2.787h-4.343v11.545c0,2.968,1.195,3.438,4.343,3.22v2.967a15.417,15.417,0,0,1-1.81.109c-4.632,0-5.719-2.1-5.719-6.37V1239.53h-2.894Z" transform="translate(-1601.992 -1231.239)" fill="#7c7c7c"></path>
        <path id="Path_20" data-name="Path 20" d="M1683.26,1248.568v1.773c0,3.329,1.448,5.1,4.994,5.1,3.329,0,4.7-.833,4.7-4.09h3.149c0,4.379-2.606,6.877-7.709,6.877-5.356,0-8.323-2.75-8.323-7.89v-5.284c0-4.994,2.714-7.816,8.215-7.816,5.392,0,8.106,2.75,8.106,7.636v3.691Zm9.988-3.945c0-3.113-1.628-4.632-4.958-4.632-3.293,0-5.03,1.519-5.03,4.632v1.52h9.988Z" transform="translate(-1605.163 -1232.1)" fill="#7c7c7c"></path>
        <path id="Path_21" data-name="Path 21" d="M1707.939,1237.6l.58,2.968a6.811,6.811,0,0,1,6.08-3.329c5.247,0,7.563,2.967,7.563,7.852v12.775h-3.112v-12.525c0-3.329-1.7-5.32-5.248-5.32-3.293,0-5.175,2.244-5.175,5.609v12.233h-3.148V1237.6Z" transform="translate(-1610.048 -1232.1)" fill="#7c7c7c"></path>
        <path id="Path_22" data-name="Path 22" d="M1729.942,1236.742h3l.651-3.98h2.425v3.98h4.342v2.787h-4.342v11.545c0,2.968,1.194,3.438,4.342,3.22v2.967a15.389,15.389,0,0,1-1.809.109c-4.632,0-5.719-2.1-5.719-6.37V1239.53h-2.894Z" transform="translate(-1614.752 -1231.239)" fill="#7c7c7c"></path>
        <path id="Path_23" data-name="Path 23" d="M1766.435,1239.6v-2.208c0-2.208-1.158-3.691-4.668-3.691-3.257,0-4.742,1.338-4.742,3.619,0,1.918.906,3,2.75,3.728l5.645,2.28c3.294,1.339,4.994,3.583,4.994,6.66,0,4.6-3.22,7.092-8.323,7.092-4.958,0-8.36-2.244-8.36-6.622V1248h3.33v2.388c0,2.461,1.52,3.87,5.03,3.87,3.764,0,4.922-1.592,4.922-4.126a4.133,4.133,0,0,0-2.824-4.017l-5.61-2.207c-3.112-1.195-4.849-3.474-4.849-6.7,0-3.981,2.968-6.334,8.034-6.334s8,2.642,8,6.66v2.063Z" transform="translate(-1619.326 -1230.876)" fill="#7c7c7c"></path>
        <path id="Path_24" data-name="Path 24" d="M1781.284,1237.6l.579,2.968a6.812,6.812,0,0,1,6.08-3.329c5.248,0,7.564,2.967,7.564,7.852v12.775h-3.113v-12.525c0-3.329-1.7-5.32-5.247-5.32-3.294,0-5.175,2.244-5.175,5.609v12.233h-3.148V1237.6Z" transform="translate(-1624.152 -1232.1)" fill="#7c7c7c"></path>
        <path id="Path_25" data-name="Path 25" d="M1805.11,1243.646c0-4.126,2.642-6.405,7.528-6.405,4.958,0,7.273,2.243,7.273,6.224v14.4h-2.424l-.615-2.968a7.238,7.238,0,0,1-6.333,3.33c-4.018,0-5.863-2.353-5.863-5.79,0-3.583,2.605-6.008,6.551-6.008h5.464V1243.1c0-2.208-1.194-3.185-4.089-3.185s-4.379,1.231-4.379,3.728Zm6.3,5.14c-2.569,0-3.547,1.519-3.547,3.51,0,2.316,1.158,3.474,3.438,3.474a5.353,5.353,0,0,0,5.5-5.1v-1.883Z" transform="translate(-1629.123 -1232.1)" fill="#7c7c7c"></path>
        <path id="Path_26" data-name="Path 26" d="M1831.762,1237.6l.543,3.4c.976-2.135,3.98-3.763,6.876-3.763v3.148c-4.234,0-6.768,2.027-6.768,5.537v11.943h-3.184V1237.6Z" transform="translate(-1633.845 -1232.1)" fill="#7c7c7c"></path>
        <path id="Path_27" data-name="Path 27" d="M1846.751,1248.568v1.773c0,3.329,1.447,5.1,4.994,5.1,3.328,0,4.7-.833,4.7-4.09h3.148c0,4.379-2.606,6.877-7.708,6.877-5.356,0-8.323-2.75-8.323-7.89v-5.284c0-4.994,2.714-7.816,8.214-7.816,5.392,0,8.107,2.75,8.107,7.636v3.691Zm9.988-3.945c0-3.113-1.628-4.632-4.958-4.632-3.293,0-5.03,1.519-5.03,4.632v1.52h9.988Z" transform="translate(-1636.602 -1232.1)" fill="#7c7c7c"></path>
      </g>
      <path id="Path_28" data-name="Path 28" d="M1719.585,1149.448h24.288v-31.706a3.166,3.166,0,0,0-3.165-3.166h-41.763a3.167,3.167,0,0,0-3.166,3.166v18.9h19.857a3.95,3.95,0,0,1,3.95,3.951Z" transform="translate(-1608.182 -1114.576)" fill="#dd509a"></path>
      <path id="Path_29" data-name="Path 29" d="M1740.951,1154.7v26a2.778,2.778,0,0,1-2.778,2.779h-42.54a2.779,2.779,0,0,1-2.778-2.779v-38.8h-8.315a3.951,3.951,0,0,0-3.951,3.95V1191.8a3.951,3.951,0,0,0,3.951,3.95h64.727a3.951,3.951,0,0,0,3.95-3.95v-33.144a3.951,3.951,0,0,0-3.95-3.95Z" transform="translate(-1605.262 -1119.83)" fill="#59cbe8"></path>
      <path id="Path_30" data-name="Path 30" d="M1743.873,1180.7v-26h-21.51a2.778,2.778,0,0,1-2.778-2.778h0v-6.076a3.95,3.95,0,0,0-3.95-3.95h-19.857v38.8a2.778,2.778,0,0,0,2.778,2.778h42.539A2.777,2.777,0,0,0,1743.873,1180.7Z" transform="translate(-1608.182 -1119.83)" fill="#703dc1"></path>
    </g>
    <g id="Group_3124" data-name="Group 3124" transform="translate(1309.608 792.54)">
      <g id="Group_3117" data-name="Group 3117" transform="translate(0 0.798)">
        <g id="Group_3115" data-name="Group 3115" transform="translate(48.416 9.573)">
          <path id="Path_125234" data-name="Path 125234" d="M1372.447,808.557v7.51h8.941v2.673h-8.941v9.388h-2.9V805.853h12.474v2.7Z" transform="translate(-1369.551 -805.471)" fill="#7c7c7c"></path>
          <path id="Path_125235" data-name="Path 125235" d="M1393.045,828.129h-2.928V805.853h2.928Z" transform="translate(-1373.506 -805.471)" fill="#7c7c7c"></path>
          <path id="Path_125236" data-name="Path 125236" d="M1403.131,805.853v19.475h8.56v2.8H1400.2V805.853Z" transform="translate(-1375.445 -805.471)" fill="#7c7c7c"></path>
          <path id="Path_125237" data-name="Path 125237" d="M1421.807,808.557v6.333h9.26v2.673h-9.26v7.828h9.865v2.737h-12.792V805.853h12.792v2.7Z" transform="translate(-1379.036 -805.471)" fill="#7c7c7c"></path>
          <path id="Path_125238" data-name="Path 125238" d="M1449.709,813.049v-1.941c0-1.942-1.019-3.246-4.1-3.246-2.864,0-4.169,1.178-4.169,3.182a3.227,3.227,0,0,0,2.418,3.278l4.965,2c2.9,1.178,4.391,3.15,4.391,5.856,0,4.041-2.833,6.236-7.319,6.236-4.36,0-7.352-1.972-7.352-5.824v-2.163h2.928v2.1c0,2.165,1.336,3.405,4.424,3.405,3.309,0,4.327-1.4,4.327-3.627a3.632,3.632,0,0,0-2.481-3.532l-4.934-1.942a6.011,6.011,0,0,1-4.264-5.887c0-3.5,2.61-5.568,7.065-5.568s7.033,2.323,7.033,5.855v1.814Z" transform="translate(-1382.817 -805.38)" fill="#7c7c7c"></path>
        </g>
        <g id="Group_3116" data-name="Group 3116">
          <path id="Path_125239" data-name="Path 125239" d="M1332.958,806.871V793.528h-23.35v33.357h10.007v6.671h23.349V806.871Zm-3.336-10.007-3.336,3.336H1316.28l-3.336-3.336Zm-10.007,26.686h-6.672V801.581l1.954,1.955h12.77l1.955-1.955v5.29h-10.007V823.55Zm20.014,6.671h-16.678V810.206h16.678Z" transform="translate(-1309.608 -793.528)" fill="#7c7c7c"></path>
          <rect id="Rectangle_3108" data-name="Rectangle 3108" width="11.679" height="2.502" transform="translate(15.759 30.855)" fill="#7c7c7c"></rect>
          <rect id="Rectangle_3109" data-name="Rectangle 3109" width="8.244" height="2.502" transform="translate(15.759 25.852)" fill="#7c7c7c"></rect>
        </g>
      </g>
      <g id="Group_3120" data-name="Group 3120" transform="translate(502.745 1.148)">
        <g id="Group_3118" data-name="Group 3118" transform="translate(49.551 9.223)">
          <path id="Path_125240" data-name="Path 125240" d="M2005.773,813.558v-1.05c0-3.341-1.209-4.487-4.741-4.487-3.342,0-4.71,1.623-4.71,5v7.732c0,3.405,1.4,5.06,4.71,5.06,3.532,0,4.741-1.146,4.741-4.551v-1.178h2.927V821.2c0,4.646-2,7.223-7.668,7.223-5.442,0-7.638-2.928-7.638-7.605v-7.828c0-4.646,2.291-7.605,7.733-7.605,5.664,0,7.573,2.673,7.573,7.255v.923Z" transform="translate(-1993.394 -805.38)" fill="#7c7c7c"></path>
          <path id="Path_125241" data-name="Path 125241" d="M2033.156,812.985v7.828c0,4.71-2.292,7.605-7.86,7.605s-7.828-2.9-7.828-7.605v-7.828c0-4.71,2.259-7.605,7.828-7.605S2033.156,808.308,2033.156,812.985Zm-12.761.064v7.7c0,3.373,1.273,5.06,4.9,5.06,3.66,0,4.932-1.687,4.932-5.06v-7.7c0-3.405-1.305-5.028-4.932-5.028S2020.4,809.644,2020.4,813.049Z" transform="translate(-1998.023 -805.38)" fill="#7c7c7c"></path>
          <path id="Path_125242" data-name="Path 125242" d="M2058.385,805.853v22.276h-2.7l-8.5-14.989-1.5-2.9.1,4.264v13.62h-2.864V805.853h2.9l8.306,14.32,1.5,2.832-.1-4.2V805.853Z" transform="translate(-2002.918 -805.471)" fill="#7c7c7c"></path>
          <path id="Path_125243" data-name="Path 125243" d="M2066.125,805.853h15.147v2.8h-6.11v19.476h-2.928V808.652h-6.109Z" transform="translate(-2007.38 -805.471)" fill="#7c7c7c"></path>
          <path id="Path_125244" data-name="Path 125244" d="M2091.866,808.557v6.333h9.26v2.673h-9.26v7.828h9.864v2.737h-12.792V805.853h12.792v2.7Z" transform="translate(-2011.767 -805.471)" fill="#7c7c7c"></path>
          <path id="Path_125245" data-name="Path 125245" d="M2125.639,805.853v22.276h-2.7l-8.5-14.989-1.495-2.9.1,4.264v13.62h-2.864V805.853h2.9l8.306,14.32,1.5,2.832-.1-4.2V805.853Z" transform="translate(-2015.85 -805.471)" fill="#7c7c7c"></path>
          <path id="Path_125246" data-name="Path 125246" d="M2133.38,805.853h15.148v2.8h-6.11v19.476h-2.928V808.652h-6.11Z" transform="translate(-2020.313 -805.471)" fill="#7c7c7c"></path>
        </g>
        <g id="Group_3119" data-name="Group 3119">
          <path id="Path_125247" data-name="Path 125247" d="M1932.046,793.961v40.028H1965.4V793.961Zm30.021,36.692h-26.686V797.3h26.686Z" transform="translate(-1932.046 -793.961)" fill="#7c7c7c"></path>
          <rect id="Rectangle_3110" data-name="Rectangle 3110" width="13.342" height="3.336" transform="translate(13.343 30.021)" fill="#7c7c7c"></rect>
          <rect id="Rectangle_3111" data-name="Rectangle 3111" width="3.336" height="3.336" transform="translate(6.671 30.021)" fill="#7c7c7c"></rect>
          <rect id="Rectangle_3112" data-name="Rectangle 3112" width="20.014" height="3.335" transform="translate(6.671 23.35)" fill="#7c7c7c"></rect>
          <rect id="Rectangle_3113" data-name="Rectangle 3113" width="6.671" height="3.336" transform="translate(20.014 15.01)" fill="#7c7c7c"></rect>
          <rect id="Rectangle_3114" data-name="Rectangle 3114" width="6.671" height="3.336" transform="translate(20.014 8.339)" fill="#7c7c7c"></rect>
          <circle id="Ellipse_90" data-name="Ellipse 90" cx="2.502" cy="2.502" r="2.502" transform="translate(9.173 6.671)" fill="#7c7c7c"></circle>
          <path id="Path_125248" data-name="Path 125248" d="M1950.312,815.484v-1.669a3.346,3.346,0,0,0-3.335-3.336h-3.336a3.347,3.347,0,0,0-3.337,3.336v1.669Z" transform="translate(-1933.634 -797.137)" fill="#7c7c7c"></path>
        </g>
      </g>
      <g id="Group_3123" data-name="Group 3123" transform="translate(199.403)">
        <g id="Group_3121" data-name="Group 3121" transform="translate(57.175 10.371)">
          <path id="Path_125249" data-name="Path 125249" d="M1639.651,813.558v-1.05c0-3.341-1.209-4.487-4.741-4.487-3.342,0-4.711,1.623-4.711,5v7.732c0,3.405,1.4,5.06,4.711,5.06,3.532,0,4.741-1.146,4.741-4.551v-1.178h2.928V821.2c0,4.646-2.006,7.223-7.669,7.223-5.442,0-7.638-2.928-7.638-7.605v-7.828c0-4.646,2.292-7.605,7.734-7.605,5.664,0,7.574,2.673,7.574,7.255v.923Z" transform="translate(-1627.271 -805.38)" fill="#7c7c7c"></path>
          <path id="Path_125250" data-name="Path 125250" d="M1655.022,805.853v19.475h8.559v2.8h-11.487V805.853Z" transform="translate(-1632.044 -805.471)" fill="#7c7c7c"></path>
          <path id="Path_125251" data-name="Path 125251" d="M1673.7,828.129h-2.928V805.853h2.928Z" transform="translate(-1635.636 -805.471)" fill="#7c7c7c"></path>
          <path id="Path_125252" data-name="Path 125252" d="M1683.783,808.557v6.333h9.26v2.673h-9.26v7.828h9.865v2.737h-12.792V805.853h12.792v2.7Z" transform="translate(-1637.575 -805.471)" fill="#7c7c7c"></path>
          <path id="Path_125253" data-name="Path 125253" d="M1717.557,805.853v22.276h-2.7l-8.5-14.989-1.495-2.9.1,4.264v13.62h-2.864V805.853h2.9l8.306,14.32,1.5,2.832-.1-4.2V805.853Z" transform="translate(-1641.659 -805.471)" fill="#7c7c7c"></path>
          <path id="Path_125254" data-name="Path 125254" d="M1725.3,805.853h15.148v2.8h-6.11v19.476h-2.928V808.652H1725.3Z" transform="translate(-1646.121 -805.471)" fill="#7c7c7c"></path>
          <path id="Path_125255" data-name="Path 125255" d="M1762.838,805.853c4.87,0,7.7,2.736,7.7,7.638v7c0,4.805-2.768,7.638-7.7,7.638H1755.2V805.853Zm-.413,19.538c3.532,0,5.186-1.5,5.186-5.187v-6.4c0-3.627-1.558-5.251-5.186-5.251h-4.3v16.834Z" transform="translate(-1651.871 -805.471)" fill="#7c7c7c"></path>
          <path id="Path_125256" data-name="Path 125256" d="M1784.313,805.853h4.742l6.142,22.276h-3.087l-1.464-5.442h-7.955l-1.4,5.442h-3.118Zm2.832,2.928h-.891l-2.959,11.3h6.809Z" transform="translate(-1656.289 -805.471)" fill="#7c7c7c"></path>
          <path id="Path_125257" data-name="Path 125257" d="M1798.9,805.853h15.148v2.8h-6.109v19.476h-2.928V808.652h-6.11Z" transform="translate(-1660.274 -805.471)" fill="#7c7c7c"></path>
          <path id="Path_125258" data-name="Path 125258" d="M1823.4,805.853h4.741l6.142,22.276h-3.086l-1.464-5.442h-7.955l-1.4,5.442h-3.119Zm2.833,2.928h-.891l-2.959,11.3h6.81Z" transform="translate(-1663.804 -805.471)" fill="#7c7c7c"></path>
        </g>
        <g id="Group_3122" data-name="Group 3122">
          <path id="Path_125259" data-name="Path 125259" d="M1568.993,825.578h-9.173a3.347,3.347,0,0,0-3.336,3.336v3.336h3.336v-3.336h9.173Z" transform="translate(-1556.484 -798.893)" fill="#7c7c7c"></path>
          <path id="Path_125260" data-name="Path 125260" d="M1599.728,825.578h-9.173v3.336h9.173v3.336h3.336v-3.336A3.347,3.347,0,0,0,1599.728,825.578Z" transform="translate(-1563.036 -798.893)" fill="#7c7c7c"></path>
          <path id="Path_125261" data-name="Path 125261" d="M1580.071,819.383a5,5,0,1,0,5,5A5,5,0,0,0,1580.071,819.383Zm0,6.672a1.668,1.668,0,1,1,1.667-1.668A1.668,1.668,0,0,1,1580.071,826.055Z" transform="translate(-1560.057 -797.702)" fill="#7c7c7c"></path>
          <path id="Path_125262" data-name="Path 125262" d="M1574.273,837.174h10.008v3.336h3.336v-3.336a3.346,3.346,0,0,0-3.336-3.336h-10.008a3.346,3.346,0,0,0-3.336,3.336v3.336h3.336Z" transform="translate(-1559.263 -800.481)" fill="#7c7c7c"></path>
          <path id="Path_125263" data-name="Path 125263" d="M1590.635,807.857v-8.646l-6.672-6.671h-20.014v15.317a5,5,0,1,0,3.336,0V795.876h15.01v5h5v6.978a5,5,0,1,0,3.336,0Zm-25.018,6.365a1.667,1.667,0,1,1,1.668-1.667A1.667,1.667,0,0,1,1565.617,814.221Zm23.35,0a1.667,1.667,0,1,1,1.668-1.667A1.668,1.668,0,0,1,1588.967,814.221Z" transform="translate(-1557.278 -792.54)" fill="#7c7c7c"></path>
          <rect id="Rectangle_3115" data-name="Rectangle 3115" width="10.007" height="2.502" transform="translate(12.509 5.837)" fill="#7c7c7c"></rect>
          <rect id="Rectangle_3116" data-name="Rectangle 3116" width="15.011" height="2.502" transform="translate(12.509 10.841)" fill="#7c7c7c"></rect>
          <rect id="Rectangle_3117" data-name="Rectangle 3117" width="10.007" height="2.502" transform="translate(15.01 15.844)" fill="#7c7c7c"></rect>
        </g>
      </g>
    </g>
    <g id="Group_3137" data-name="Group 3137" transform="translate(1370.966 848.407)">
      <g id="Group_3127" data-name="Group 3127" transform="translate(266.85)">
        <path id="Path_125264" data-name="Path 125264" d="M1723.942,1047.138a.808.808,0,0,1-.808-.808V863.685a.808.808,0,1,1,1.615,0V1046.33A.808.808,0,0,1,1723.942,1047.138Z" transform="translate(-1717.335 -861.933)" fill="#7c7c7c"></path>
        <g id="Group_3125" data-name="Group 3125">
          <path id="Path_125265" data-name="Path 125265" d="M1715.955,868.813l1.183,1.1,5.422-5.835,5.424,5.835,1.183-1.1-6.607-7.1Z" transform="translate(-1715.955 -861.708)" fill="#7c7c7c"></path>
        </g>
        <g id="Group_3126" data-name="Group 3126" transform="translate(0 177.942)">
          <path id="Path_125266" data-name="Path 125266" d="M1715.955,1083.117l1.183-1.1,5.422,5.834,5.424-5.834,1.183,1.1-6.607,7.1Z" transform="translate(-1715.955 -1082.015)" fill="#7c7c7c"></path>
        </g>
      </g>
      <g id="Group_3130" data-name="Group 3130" transform="translate(266.85 349.555)">
        <path id="Path_125267" data-name="Path 125267" d="M1723.942,1367.091a.807.807,0,0,1-.808-.808v-69.822a.808.808,0,1,1,1.615,0v69.822A.807.807,0,0,1,1723.942,1367.091Z" transform="translate(-1717.335 -1294.71)" fill="#7c7c7c"></path>
        <g id="Group_3128" data-name="Group 3128">
          <path id="Path_125268" data-name="Path 125268" d="M1715.955,1301.589l1.183,1.1,5.422-5.834,5.424,5.834,1.183-1.1-6.607-7.1Z" transform="translate(-1715.955 -1294.485)" fill="#7c7c7c"></path>
        </g>
        <g id="Group_3129" data-name="Group 3129" transform="translate(0 65.119)">
          <path id="Path_125269" data-name="Path 125269" d="M1715.955,1376.209l1.183-1.1,5.422,5.835,5.424-5.835,1.183,1.1-6.607,7.1Z" transform="translate(-1715.955 -1375.107)" fill="#7c7c7c"></path>
        </g>
      </g>
      <g id="Group_3133" data-name="Group 3133" transform="translate(0 5.054)">
        <path id="Path_125270" data-name="Path 125270" d="M1630.891,1044.964h0a.808.808,0,0,1-.806-.809l0-1.1c.041-14.776.075-27.538-9.635-37.274-13.589-13.627-44.92-19.7-101.589-19.7-27.767,0-51.573-5.408-70.756-16.072a101.021,101.021,0,0,1-37.78-36.519c-16.274-26.929-17.73-55.444-17.789-63.542a.809.809,0,0,1,.8-.814h.006a.808.808,0,0,1,.808.8c.058,7.994,1.494,36.142,17.556,62.718a99.4,99.4,0,0,0,37.182,35.942c18.94,10.531,42.481,15.87,69.971,15.87,57.132,0,88.817,6.223,102.733,20.177,10.183,10.211,10.148,23.284,10.107,38.42l0,1.1A.808.808,0,0,1,1630.891,1044.964Z" transform="translate(-1386.913 -868.189)" fill="#7c7c7c"></path>
        <g id="Group_3131" data-name="Group 3131">
          <path id="Path_125271" data-name="Path 125271" d="M1385.574,875.215l1.207,1.075,5.291-5.954,5.552,5.712,1.158-1.128-6.764-6.955Z" transform="translate(-1385.574 -867.965)" fill="#7c7c7c"></path>
        </g>
        <g id="Group_3132" data-name="Group 3132" transform="translate(237.324 169.484)">
          <path id="Path_125272" data-name="Path 125272" d="M1679.4,1078.98l1.176-1.109,5.459,5.8,5.386-5.869,1.19,1.094-6.561,7.147Z" transform="translate(-1679.399 -1077.8)" fill="#7c7c7c"></path>
        </g>
      </g>
      <g id="Group_3136" data-name="Group 3136" transform="translate(293.001 5.054)">
        <path id="Path_125273" data-name="Path 125273" d="M1756.258,1044.964a.808.808,0,0,1-.808-.805l0-1.1c-.041-15.136-.076-28.209,10.107-38.421,13.917-13.954,45.6-20.177,102.733-20.177,27.49,0,51.031-5.339,69.971-15.87a99.407,99.407,0,0,0,37.183-35.942c16.061-26.577,17.5-54.724,17.555-62.718a.808.808,0,0,1,.808-.8h.006a.808.808,0,0,1,.8.814c-.058,8.1-1.514,36.612-17.789,63.542A101.009,101.009,0,0,1,1939.043,970c-19.183,10.665-42.989,16.072-70.756,16.072-56.669,0-88,6.076-101.59,19.7-9.709,9.736-9.675,22.5-9.635,37.275l0,1.1a.808.808,0,0,1-.806.809Z" transform="translate(-1749.7 -868.189)" fill="#7c7c7c"></path>
        <g id="Group_3134" data-name="Group 3134" transform="translate(237.326)">
          <path id="Path_125274" data-name="Path 125274" d="M2042.161,874.921l1.158,1.128,5.551-5.712,5.292,5.954,1.207-1.075-6.447-7.25Z" transform="translate(-2042.161 -867.965)" fill="#7c7c7c"></path>
        </g>
        <g id="Group_3135" data-name="Group 3135" transform="translate(0 169.485)">
          <path id="Path_125275" data-name="Path 125275" d="M1748.333,1078.895l1.19-1.094,5.384,5.869,5.461-5.8,1.176,1.109-6.652,7.062Z" transform="translate(-1748.333 -1077.8)" fill="#7c7c7c"></path>
        </g>
      </g>
    </g>
    <path id="Path_125276" data-name="Path 125276" d="M1828.013,1518.96c35.69-14.723,42.47-77,29.278-111.1-.951-2.458-2.024-5.052-1.547-7.646a12.412,12.412,0,0,1,2.773-5.189c7.452-9.531,17.647-18.772,17.5-30.869-.047-3.822-1.687-8.13-5.32-9.317s-8.078,3.483-5.614,6.4c2.816-3.86.453-10.275-4.194-11.388s-9.658,3.539-8.894,8.256c4.859-2.386,2.147-10.91-3.176-11.9s-10.338,3.041-13.3,7.571-4.786,9.829-8.407,13.852c2.025-3.295-1.913-7.655-5.777-7.479s-6.989,3.1-9.58,5.968c-5.366,5.945-10.23,12.757-11.707,20.628-1.842,9.818,1.8,19.743,2.742,29.688a55.183,55.183,0,0,1-48.049,59.979" transform="translate(-85.596 -106.441)" fill="none" stroke="#360484" stroke-miterlimit="10" stroke-width="3"></path>
    <path id="Path_125277" data-name="Path 125277" d="M1580.43,1548.827c-38.081-6.355-58.637-65.527-53.419-101.721.376-2.609.841-5.377-.2-7.8a12.406,12.406,0,0,0-3.865-4.437c-9.4-7.62-21.4-14.343-23.966-26.166-.81-3.735-.178-8.3,3.1-10.271s8.654,1.585,6.907,4.984c-3.61-3.132-2.745-9.914,1.536-12.038s10.205,1.286,10.517,6.054c-5.27-1.237-4.536-10.152.431-12.3s10.755.648,14.659,4.4,6.866,8.508,11.3,11.617c-2.711-2.757.149-7.89,3.954-8.583s7.506,1.453,10.675,3.671c6.561,4.593,12.826,10.141,16.03,17.481,3.995,9.156,2.671,19.644,3.977,29.548a55.823,55.823,0,0,0,20.465,36.061,54.881,54.881,0,0,0,14.4,8.171" transform="translate(-36.353 -113.809)" fill="none" stroke="#360484" stroke-miterlimit="10" stroke-width="3"></path>
    <path id="Path_125278" data-name="Path 125278" d="M1748.528,1483.968c1.715-16.809,1.023-34.251-5.381-49.887-3.193-7.8-7.872-15.136-14.43-20.427s-15.128-8.372-23.486-7.309c-7.891,1-14.936,5.517-20.827,10.861-21.394,19.407-30.134,56.9-36.6,85.049" transform="translate(-65.033 -117.993)" fill="none" stroke="#360484" stroke-miterlimit="10" stroke-width="3"></path>
    <path id="Path_125279" data-name="Path 125279" d="M1920.117,1425.532c0,6.336-1.878,14.636-5.238,18-10.072,10.072-10.341-2.821-3.223-3.492,10.194-.962,3.33,15.8-1.8,22.312" transform="translate(-114.829 -121.722)" fill="none" stroke="#6ad1e3" stroke-miterlimit="10" stroke-width="3"></path>
    <path id="Path_125280" data-name="Path 125280" d="M1642.555,1442.633c-13.177-4.9-10.709-17.769-8.374-23.014,4.882-10.964,11.652-.651,5.285,2.6-9.119,4.657-9.8-15.847-3.895-22.293" transform="translate(-61.947 -116.798)" fill="none" stroke="#6ad1e3" stroke-miterlimit="10" stroke-width="3"></path>
    <path id="Path_125281" data-name="Path 125281" d="M1931.495,1468.148l1.221,1a57.333,57.333,0,0,0,9.806-25.527" transform="translate(-119.587 -125.2)" fill="none" stroke="#6ad1e3" stroke-miterlimit="10" stroke-width="3"></path>
    <path id="Path_125282" data-name="Path 125282" d="M1672.229,1376.981a26.721,26.721,0,0,0,3.224,10.475" transform="translate(-69.731 -112.386)" fill="none" stroke="#6ad1e3" stroke-miterlimit="10" stroke-width="3"></path>
    <path id="Path_125283" data-name="Path 125283" d="M1689.115,1371.212c.205,3.6.761,10.179,1.268,13.657" transform="translate(-72.978 -111.277)" fill="none" stroke="#6ad1e3" stroke-miterlimit="10" stroke-width="3"></path>
    <path id="Path_125284" data-name="Path 125284" d="M1497.964,1486.181a51.333,51.333,0,0,0,18.563,32.68" transform="translate(-36.22 -133.385)" fill="none" stroke="#6ad1e3" stroke-miterlimit="10" stroke-width="3"></path>
    <path id="Path_125285" data-name="Path 125285" d="M1482.4,1508.669a25.072,25.072,0,0,0,12.7,17.2" transform="translate(-33.228 -137.709)" fill="none" stroke="#6ad1e3" stroke-miterlimit="10" stroke-width="3"></path>
    <path id="Path_125286" data-name="Path 125286" d="M1699.579,1420.479a35.11,35.11,0,0,0,1.815,10.349c1.268,3.28,3.639,6.293,6.925,7.545,1.937.738,4.345.738,5.857-.681s1.311-4.456-.645-5.142c-1.262,1.839-.367,4.553,1.427,5.878a9.5,9.5,0,0,0,6.4,1.368,10.7,10.7,0,0,0,5.212-1.553,5.311,5.311,0,0,0,2.49-4.619c1.939,1.435,3.958,2.907,6.318,3.4s5.168-.267,6.3-2.395" transform="translate(-74.99 -120.751)" fill="none" stroke="#360484" stroke-miterlimit="10" stroke-width="3"></path>
    <path id="Path_125287" data-name="Path 125287" d="M1690.6,1450.815a9.689,9.689,0,0,1,10.093,2.337c1.034,1.081,1.793,2.842.858,4.01a3.354,3.354,0,0,1-2.757.913,13.954,13.954,0,0,1-8.692-3.3.882.882,0,0,1-.363-.521.911.911,0,0,1,.265-.622l1.473-1.9" transform="translate(-73.098 -126.478)" fill="none" stroke="#360484" stroke-miterlimit="10" stroke-width="3"></path>
    <path id="Path_125288" data-name="Path 125288" d="M1691.828,1451.112a2.042,2.042,0,0,0,1.508,3.733,2.005,2.005,0,0,0,1.547-1.734,1.849,1.849,0,0,0-1.307-1.886,1.712,1.712,0,0,0-2,1.054" transform="translate(-73.316 -126.641)" fill="none" stroke="#360484" stroke-miterlimit="10" stroke-width="3"></path>
    <path id="Path_125289" data-name="Path 125289" d="M1715.542,1454a9.687,9.687,0,0,1,10.092,2.337c1.035,1.081,1.793,2.842.859,4.01a3.356,3.356,0,0,1-2.758.913,13.955,13.955,0,0,1-8.692-3.3.881.881,0,0,1-.363-.521.911.911,0,0,1,.265-.622l1.473-1.9" transform="translate(-77.894 -127.091)" fill="none" stroke="#360484" stroke-miterlimit="10" stroke-width="3"></path>
    <path id="Path_125290" data-name="Path 125290" d="M1716.767,1454.3a2.043,2.043,0,0,0,1.508,3.734,2.007,2.007,0,0,0,1.547-1.735,1.848,1.848,0,0,0-1.307-1.885,1.714,1.714,0,0,0-2,1.053" transform="translate(-78.111 -127.253)" fill="none" stroke="#360484" stroke-miterlimit="10" stroke-width="3"></path>
    <path id="Path_125291" data-name="Path 125291" d="M1723.607,1467.87c-12.872,11.876-25.392,11.062-31.71-.926" transform="translate(-73.513 -129.686)" fill="none" stroke="#360484" stroke-miterlimit="10" stroke-width="3"></path>
  </g>
</svg>
