<?xml version="1.0" encoding="UTF-8"?>
<svg xmlns="http://www.w3.org/2000/svg" width="324" height="268" viewBox="0 0 324 268">
  <g id="Group_3170" data-name="Group 3170" transform="translate(-1033.999 -8031)">
    <circle id="Ellipse_43" data-name="Ellipse 43" cx="134" cy="134" r="134" transform="translate(1066 8031)" fill="#6ad2f1"></circle>
    <g id="Group_3169" data-name="Group 3169" transform="translate(-3453.945 14539.976)">
      <path id="Path_125536" data-name="Path 125536" d="M4603.525-6259.124c6.348-10.344,9.563-22.242,10.938-34.22,1.118-9.74,1.571-21.3-4.862-29.443-6.876-8.705-19.085-8.479-28.626-4.937a56.674,56.674,0,0,0-25.182,19.142,55.281,55.281,0,0,0-4.367,6.8,31.973,31.973,0,0,0-3.34,8.263,15.664,15.664,0,0,0,.482,8.772,29.381,29.381,0,0,0,4.457,7.652,79.869,79.869,0,0,0,25.273,21.214c10.651,5.876,22.276,9.733,34.06,12.607,12.786,3.118,25.821,5.331,38.792,7.528,6.66,1.128,13.344,2.14,20.063,2.852,6.775.717,13.579,1.047,20.383,1.349,3.417.15,6.835.295,10.25.5a26.981,26.981,0,0,1,8.495,1.482,9.206,9.206,0,0,1,5.307,5.03c.835,2.118.68,4.67-1.184,6.2a5.247,5.247,0,0,1-5.826.54l.5.869c.017-1.543,1.52-2.525,2.935-2.673a3.491,3.491,0,0,1,3.621,2.687c1.349,4.393-2.686,7.643-6.363,8.974l1.238.7c-.27-.717.2-1.247.855-1.549a1.717,1.717,0,0,1,2.155.406c1.357,1.619.527,4.1-.519,5.631-2.552,3.735-7.624,4.953-11.738,6a280.318,280.318,0,0,1-34.88,6.557,287.072,287.072,0,0,1-35.386,2.142,287.406,287.406,0,0,1-35.38-2.228,281.277,281.277,0,0,1-34.865-6.637q-2.128-.546-4.249-1.126a1.007,1.007,0,0,0-.535,1.94,284.966,284.966,0,0,0,37.158,7.511,287.9,287.9,0,0,0,37.714,2.552,287.116,287.116,0,0,0,37.877-2.438q9.393-1.233,18.692-3.074c5.889-1.172,11.852-2.388,17.6-4.131,4.365-1.322,9.344-3.618,10.852-8.324.689-2.152.409-4.86-1.492-6.311a3.959,3.959,0,0,0-5.376.93,2.8,2.8,0,0,0-.426,2.686,1.021,1.021,0,0,0,1.237.7c4.04-1.463,8.1-4.541,8.09-9.243-.006-3.908-3.306-7.509-7.377-6.071a4.812,4.812,0,0,0-3.453,4.386,1.008,1.008,0,0,0,.5.868c4.112,2.373,9.767-.141,10.455-4.911a9.136,9.136,0,0,0-1.921-6.693,12.452,12.452,0,0,0-6.469-4.256,36.287,36.287,0,0,0-8.623-1.184c-3.377-.188-6.756-.332-10.134-.482-6.749-.3-13.493-.645-20.211-1.371-13.208-1.428-26.3-3.928-39.355-6.369-12.655-2.366-25.314-5.084-37.4-9.6a96.881,96.881,0,0,1-28.753-16.292,68.04,68.04,0,0,1-11.276-12.007,22.2,22.2,0,0,1-3.954-7.837,15.6,15.6,0,0,1,.958-8.955,48.358,48.358,0,0,1,8.553-13.988,55.962,55.962,0,0,1,11.865-10.528c8.343-5.49,19.68-9.961,29.6-6.2,9.992,3.79,12.293,15.188,12.135,24.7a96.267,96.267,0,0,1-1.937,17.052,80.789,80.789,0,0,1-5.257,17.039,66.43,66.43,0,0,1-4.1,7.8c-.679,1.107,1.061,2.119,1.737,1.017Z" transform="translate(-39.699 -95.773)" fill="#360484"></path>
      <path id="Path_125537" data-name="Path 125537" d="M5042.393-6188.91c.069-15.872.134-31.752-.575-47.612a335.3,335.3,0,0,0-5.148-46.985c-2.589-13.779-5.935-28.841.506-42.093a26.29,26.29,0,0,1,11.389-12.253c5.722-2.9,12.452-2.744,18.387-.574,12.638,4.619,19.693,17.613,22.508,30.077,2.9,12.854,1.489,27.1-6.38,37.988-8.014,11.091-21.037,17.189-33.937,20.56a207.685,207.685,0,0,1-22.667,4.257q-11.818,1.719-23.718,2.793a447.734,447.734,0,0,1-47.631,1.772q-6-.1-11.995-.354c-2.91-.125-5.956-.291-8.768.624a7.73,7.73,0,0,0-5.52,5.887,9.024,9.024,0,0,0,2.892,8.156,13.089,13.089,0,0,0,8.431,3.063,1.017,1.017,0,0,0,.971-1.273c-1.036-4.118-6.641-5.33-9.721-2.751-3.687,3.088-2.781,9.063.6,11.971a12.441,12.441,0,0,0,7.8,2.829,1.014,1.014,0,0,0,1.006-1.006c-.155-2.951-3.3-4.395-5.94-3.819-3.362.732-4.351,4.639-3.443,7.568,1.146,3.7,4.59,5.658,8.005,6.932a115.416,115.416,0,0,0,12.267,3.673,150.214,150.214,0,0,0,51.134,3.762,148.881,148.881,0,0,0,28.343-5.593,1.007,1.007,0,0,0-.535-1.941,147.613,147.613,0,0,1-46.9,6.177,147.55,147.55,0,0,1-23.312-2.539q-5.831-1.111-11.559-2.692-2.931-.81-5.826-1.742a37.337,37.337,0,0,1-4.981-1.85,9.168,9.168,0,0,1-4.226-3.6,5.217,5.217,0,0,1-.33-4.731,2.852,2.852,0,0,1,3.046-1.519c1.031.14,2.18.767,2.24,1.916l1.007-1.006a10.089,10.089,0,0,1-6.808-2.633,6.419,6.419,0,0,1-1.82-5.945,4.261,4.261,0,0,1,3.889-3.57,3.909,3.909,0,0,1,4.121,2.647l.971-1.274c-3.063-.082-6.492-1.2-8.255-3.878-1.564-2.38-1.722-5.748.444-7.819,2.021-1.933,5.179-2.117,7.821-2.1,3.735.018,7.475.284,11.209.375a447.5,447.5,0,0,0,48.11-1.412q11.938-.995,23.81-2.626c7.675-1.05,15.369-2.195,22.921-3.934,13.346-3.073,26.791-8.559,36.008-19.086,8.963-10.236,11.889-24.08,10.127-37.358-1.695-12.771-7.414-26.438-18.54-33.742a28.327,28.327,0,0,0-18.429-4.72,23.952,23.952,0,0,0-15.41,8.351,35.679,35.679,0,0,0-7.613,15.93c-1.525,7.265-.98,14.786.107,22.071,1.17,7.839,2.919,15.577,4.081,23.418,1.167,7.87,1.981,15.791,2.556,23.725,1.154,15.933,1.325,31.918,1.3,47.887q-.007,5.815-.039,11.63a1.007,1.007,0,0,0,2.013,0Z" transform="translate(-292.935 -87.762)" fill="#360484"></path>
      <path id="Path_125538" data-name="Path 125538" d="M4616.538-6299.652a19.94,19.94,0,0,1-9.521,12.418,18.286,18.286,0,0,1-3.608,1.589,19.194,19.194,0,0,1-1.979.516,2.195,2.195,0,0,1-.742.087c-.279-.016-.07,0-.052,0-.118.041-.123-.065-.043,0,.115.095.069.178.086-.035a2.988,2.988,0,0,1,1.878-2.407,2.137,2.137,0,0,1,1.563-.025,3.521,3.521,0,0,1,.574.325c.015.012.188.171.254.236.105.107.233.265.249.285a3.916,3.916,0,0,1,.224.36c.07.129.114.229.119.241a3.707,3.707,0,0,1,.125.4c.021.085.04.17.053.257-.021-.141,0,.041,0,.095a3.567,3.567,0,0,1,0,.415c-.012.172.027-.129,0,.041-.012.068-.027.137-.045.2a2.082,2.082,0,0,1-.377.766,5.691,5.691,0,0,1-1.54,1.307c-.635.411-1.286.8-1.943,1.171a45.423,45.423,0,0,1-8.243,3.65,49.146,49.146,0,0,1-17.872,2.378,46.935,46.935,0,0,1-17.373-4.243q-1.031-.48-2.038-1.014a1.029,1.029,0,0,0-1.376.361,1.018,1.018,0,0,0,.361,1.377,49.136,49.136,0,0,0,19.291,5.46,50.8,50.8,0,0,0,19.733-2.441,47.875,47.875,0,0,0,9.171-4.159c1.413-.834,3.066-1.747,3.831-3.272a4.311,4.311,0,0,0-.328-4.325,4.293,4.293,0,0,0-3.951-1.993,4.935,4.935,0,0,0-3.864,2.705,3.856,3.856,0,0,0-.417,2.537,2.025,2.025,0,0,0,2.177,1.357,14.151,14.151,0,0,0,4.394-1.159,22.242,22.242,0,0,0,12.549-12.852,19.55,19.55,0,0,0,.629-2.074c.308-1.257-1.632-1.794-1.941-.534Z" transform="translate(-44.412 -115.48)" fill="#360484"></path>
      <path id="Path_125539" data-name="Path 125539" d="M4522.317-6328.956c1.133-5.646,1.562-11.738-.929-17.1-2.012-4.333-6.425-7.837-11.285-8.1a10.394,10.394,0,0,0-10.455,8.254c-.485,2.348-.261,5.682,2.114,6.98a3.59,3.59,0,0,0,3.518.008,2.908,2.908,0,0,0,1.187-3.379,4.024,4.024,0,0,0-2.779-2.611,9.387,9.387,0,0,0-4.231.032,16.185,16.185,0,0,0-6.9,2.9,11.347,11.347,0,0,0-4.216,5.841,10.189,10.189,0,0,0,.321,6.6,7.124,7.124,0,0,0,4.719,4.416c2.024.454,4.71-.169,5.226-2.492.541-2.437-1.808-4.31-4.049-4.411-2.614-.117-4.405,2.264-5.2,4.475a15.813,15.813,0,0,0-.564,7.54,16.517,16.517,0,0,0,2.771,7.071,15.179,15.179,0,0,0,13.156,6.438,13.688,13.688,0,0,0,3.6-.7,1.031,1.031,0,0,0,.7-1.238,1.017,1.017,0,0,0-1.238-.7,12.87,12.87,0,0,1-11.875-2.087,14.43,14.43,0,0,1-5.308-11.129,11.11,11.11,0,0,1,1.285-5.889,4.3,4.3,0,0,1,.869-1.06,2.474,2.474,0,0,1,.44-.328c.1-.061.2-.118.3-.17.052-.026.1-.053.159-.076.172-.074-.094.031.065-.022.1-.032.194-.058.292-.082.049-.012.1-.022.15-.03-.022,0-.134.013-.016.005s.237-.012.357-.009l.153.009c.171.011-.131-.026.039,0a2.551,2.551,0,0,1,1.055.371c.043.026.086.053.129.081.018.011.188.128.1.066-.036-.026.126.107.165.144.072.067.138.137.2.209.032.035.065.072.094.111-.063-.085-.023-.027.009.027.048.081.1.162.138.246-.073-.143.017.047.034.1s.062.271.038.1a1.882,1.882,0,0,1,.006.378c.012-.165-.018.065-.033.122s-.092.265-.026.112a2.013,2.013,0,0,1-.127.237c-.024.038-.048.075-.073.11-.084.122.1-.1-.007,0-.062.061-.123.124-.186.184-.081.077.019-.01.033-.021-.035.025-.072.051-.109.074-.088.055-.179.1-.269.155-.011.005-.146.066-.045.023s-.074.026-.092.031a4.621,4.621,0,0,1-.544.138c-.116.024.011,0,.03,0-.047.006-.1.011-.144.014-.115.008-.228.014-.342.015a2.958,2.958,0,0,1-1.117-.158c-.1-.028-.191-.059-.286-.092-.041-.015-.263-.11-.128-.048a4.223,4.223,0,0,1-.6-.333,5.086,5.086,0,0,1-.91-.794,7.146,7.146,0,0,1-1.745-4.71,8.26,8.26,0,0,1,1.642-5.124,11.646,11.646,0,0,1,4.884-3.682,16.256,16.256,0,0,1,3.066-.932,8.516,8.516,0,0,1,3.2-.213,3.357,3.357,0,0,1,.742.212,2.007,2.007,0,0,1,.5.313,1.818,1.818,0,0,1,.592.99c.037.16.018,0,.021.163,0,.042-.018.294,0,.16a1.189,1.189,0,0,1-.087.309c.057-.122-.181.222-.074.1-.027.031-.208.189-.1.108a1.478,1.478,0,0,1-.26.152c.126-.058-.1.028-.142.04s-.1.025-.15.035c-.167.033.129-.007-.042,0a1.639,1.639,0,0,1-1.022-.209,2.225,2.225,0,0,1-.8-.894,5.318,5.318,0,0,1-.466-2.877,8.563,8.563,0,0,1,2.264-5.07,8.051,8.051,0,0,1,4.9-2.58c3.948-.421,7.773,1.966,9.966,5.209,2.724,4.028,2.928,9.189,2.366,13.867-.143,1.188-.352,2.368-.586,3.541a1.031,1.031,0,0,0,.7,1.238,1.016,1.016,0,0,0,1.238-.7Z" transform="translate(0 -79.724)" fill="#360484"></path>
      <path id="Path_125540" data-name="Path 125540" d="M5221.161-6291.045c5.378,4.858,11.116,9.854,18.1,12.191a19.049,19.049,0,0,0,10.275.834,8.248,8.248,0,0,0,4.008-2.136,5.449,5.449,0,0,0,1.449-4.718,7.1,7.1,0,0,0-3.3-4.707,12.813,12.813,0,0,0-6.237-1.66,1.012,1.012,0,0,0-1.007,1.006c.237,2.9,2.781,4.616,5.147,5.84a34.071,34.071,0,0,0,8.045,2.917,59.032,59.032,0,0,0,17.267.945c3.255-.226,6.5-.6,9.737-1a1.038,1.038,0,0,0,1.006-1.006,1.012,1.012,0,0,0-1.006-1.006,121.493,121.493,0,0,1-16.646,1.21,40.264,40.264,0,0,1-15.737-3.009,20.822,20.822,0,0,1-3.864-2.111,6.584,6.584,0,0,1-1.261-1.192,3.993,3.993,0,0,1-.483-.813,3.209,3.209,0,0,1-.19-.777l-1.007,1.006c2.96.148,6.523,1.1,7.446,4.236a3.426,3.426,0,0,1-.712,3.337,6.278,6.278,0,0,1-3.3,1.722,8.951,8.951,0,0,1-1.873.249,18.794,18.794,0,0,1-2.442-.069,20.959,20.959,0,0,1-4.589-.978,33.3,33.3,0,0,1-8.668-4.542,91.085,91.085,0,0,1-8.736-7.194,1.029,1.029,0,0,0-1.424,0,1.016,1.016,0,0,0,0,1.423Z" transform="translate(-487.091 -120.541)" fill="#360484"></path>
      <path id="Path_125541" data-name="Path 125541" d="M4697.359-6222.984a16.19,16.19,0,0,0-6.039-1.916,2.919,2.919,0,0,0-1.7.189,2.473,2.473,0,0,0-1.09,1.167,3.57,3.57,0,0,0,.057,2.985c.824,1.849,2.944,2.8,4.763,3.371a11.275,11.275,0,0,0,3.128.527,5.165,5.165,0,0,0,3.073-.712,2.731,2.731,0,0,0,1.165-3.024,4.117,4.117,0,0,0-2.182-2.157c-1.141-.612-2.158,1.125-1.015,1.738a6.27,6.27,0,0,1,.833.5,1.4,1.4,0,0,1,.434.485.467.467,0,0,1,.007.349,1.085,1.085,0,0,1-.417.473,3.575,3.575,0,0,1-1.975.332,8.977,8.977,0,0,1-2.222-.365,6.6,6.6,0,0,1-3.549-1.97,1.839,1.839,0,0,1-.361-1.462c.043-.167.138-.39.258-.445a2.646,2.646,0,0,1,.938.047,13.865,13.865,0,0,1,4.873,1.625c1.135.627,2.151-1.11,1.017-1.738Z" transform="translate(-133.11 -165.609)" fill="#360484"></path>
      <path id="Path_125542" data-name="Path 125542" d="M4708.126-6217.987q-.17.567-.333,1.136a3.131,3.131,0,0,0-.194,1.544,2.022,2.022,0,0,0,1.97,1.427,2.727,2.727,0,0,0,2.1-.868,2.257,2.257,0,0,0,.558-1.073,2.326,2.326,0,0,0-.188-1.385,2.1,2.1,0,0,0-.771-.88,1.9,1.9,0,0,0-1.371-.255,2.122,2.122,0,0,0-1.634,1.682,2.7,2.7,0,0,0,.921,2.486,2.381,2.381,0,0,0,1.371.6,1.646,1.646,0,0,0,1.335-.552,2.359,2.359,0,0,0,.278-2.592,2.289,2.289,0,0,0-.638-.814,2.6,2.6,0,0,0-.729-.424,2.3,2.3,0,0,0-.626-.126,1,1,0,0,0-.712.294,1.064,1.064,0,0,0-.294.712,3.4,3.4,0,0,0,.6,2.011,1.078,1.078,0,0,0,.6.462,1.028,1.028,0,0,0,.775-.1,1.017,1.017,0,0,0,.361-1.376,2.669,2.669,0,0,1-.277-.494l.1.239a2.679,2.679,0,0,1-.163-.6l.036.268a2.762,2.762,0,0,1-.022-.412l-1.006,1.007.037,0-.268-.036a1.315,1.315,0,0,1,.322.085l-.241-.1a1.55,1.55,0,0,1,.286.167l-.2-.158a1.667,1.667,0,0,1,.289.289l-.158-.2a1.722,1.722,0,0,1,.207.355l-.1-.241a1.684,1.684,0,0,1,.108.4l-.036-.269a1.49,1.49,0,0,1,0,.367l.036-.268a1.345,1.345,0,0,1-.089.32l.1-.241a1.387,1.387,0,0,1-.127.222l.157-.2a1,1,0,0,1-.155.162l.2-.157a.845.845,0,0,1-.154.089l.24-.1a.827.827,0,0,1-.167.043l.268-.036a.951.951,0,0,1-.217,0l.267.036a1.284,1.284,0,0,1-.26-.077l.24.1a1.692,1.692,0,0,1-.319-.191l.2.156a2.142,2.142,0,0,1-.339-.346l.158.2a2.108,2.108,0,0,1-.25-.428l.1.24a1.8,1.8,0,0,1-.105-.377l.035.268a1.514,1.514,0,0,1,0-.385l-.036.268a1.38,1.38,0,0,1,.08-.289l-.1.241a1.447,1.447,0,0,1,.15-.262l-.157.2a1.384,1.384,0,0,1,.24-.241l-.2.158a1.251,1.251,0,0,1,.218-.125l-.24.1a1.038,1.038,0,0,1,.242-.063l-.267.035a1.039,1.039,0,0,1,.2,0l-.268-.035a.969.969,0,0,1,.217.056l-.241-.1a1.12,1.12,0,0,1,.226.13l-.2-.157a1.257,1.257,0,0,1,.212.217l-.157-.2a1.464,1.464,0,0,1,.153.27l-.1-.241a1.433,1.433,0,0,1,.083.3l-.036-.268a1.287,1.287,0,0,1,0,.31l.036-.269a1.238,1.238,0,0,1-.075.272l.1-.24a1.441,1.441,0,0,1-.169.291l.157-.2a1.689,1.689,0,0,1-.269.27l.2-.157a1.966,1.966,0,0,1-.371.219l.24-.1a2.068,2.068,0,0,1-.5.139l.268-.036a1.764,1.764,0,0,1-.418,0l.268.035a1.552,1.552,0,0,1-.355-.1l.24.1a1.272,1.272,0,0,1-.241-.14l.2.158a1,1,0,0,1-.161-.163l.158.2a.878.878,0,0,1-.076-.131l.1.239a.818.818,0,0,1-.045-.147l.037.268a1.031,1.031,0,0,1-.005-.229l-.036.268a6.753,6.753,0,0,1,.25-.954q.137-.482.282-.96a1.016,1.016,0,0,0-.7-1.238,1.027,1.027,0,0,0-1.238.7Z" transform="translate(-145.954 -169.744)" fill="#360484"></path>
      <path id="Path_125543" data-name="Path 125543" d="M4676.162-6205.2a12.27,12.27,0,0,0,5.392,12.3,1.019,1.019,0,0,0,1.376-.361,1.024,1.024,0,0,0-.361-1.377,10.218,10.218,0,0,1-4.466-10.025,1.037,1.037,0,0,0-.7-1.238,1.014,1.014,0,0,0-1.237.7Z" transform="translate(-124.973 -178.237)" fill="#360484"></path>
      <path id="Path_125544" data-name="Path 125544" d="M5283.062-6225.346a13.055,13.055,0,0,0-8.191,2.456c-1.239.911-2.277,2.062-2.014,3.708a3.968,3.968,0,0,0,2.646,2.958,8.678,8.678,0,0,0,4.531.038,19.387,19.387,0,0,0,4.179-1.313,18.254,18.254,0,0,0,3.683-2.145c1.194-.9,2.372-2.119,2.113-3.741a3.176,3.176,0,0,0-2.915-2.4,10.374,10.374,0,0,0-4.848.718,1.032,1.032,0,0,0-.7,1.238,1.015,1.015,0,0,0,1.238.7,10.359,10.359,0,0,1,3.4-.722,3.1,3.1,0,0,1,1.161.176c.049.015.1.032.146.052-.021-.009-.111-.051-.008,0a2.464,2.464,0,0,1,.3.17c-.123-.083.052.049.09.084,0,0,.109.12.044.039s.045.073.055.09a1.053,1.053,0,0,1,.066.125c-.01-.023-.044-.121-.016-.013a.679.679,0,0,1,.03.191,1.138,1.138,0,0,1-.152.49,3.836,3.836,0,0,1-1,1.056,16.915,16.915,0,0,1-2.978,1.821,17.057,17.057,0,0,1-3.228,1.176,11.662,11.662,0,0,1-3.5.462,3.2,3.2,0,0,1-1.448-.394,1.934,1.934,0,0,1-.794-.874,1.113,1.113,0,0,1-.054-.887,2.641,2.641,0,0,1,.892-.986,11.163,11.163,0,0,1,7.289-2.266,1.018,1.018,0,0,0,1.006-1.006,1.022,1.022,0,0,0-1.006-1.006Z" transform="translate(-521.614 -165.006)" fill="#360484"></path>
      <path id="Path_125545" data-name="Path 125545" d="M5281.335-6215.619a2.027,2.027,0,0,0-1.976-.03,2.574,2.574,0,0,0-1.2,1.452,4.211,4.211,0,0,0-.1,2.722,2.262,2.262,0,0,0,2.223,1.733,2.258,2.258,0,0,0,1.59-.835,3.061,3.061,0,0,0,.668-1.855,7.213,7.213,0,0,0-.189-1.7,1.945,1.945,0,0,0-1.194-1.513,1.814,1.814,0,0,0-1.829.47,2.367,2.367,0,0,0-.636,1.812c.04.993.252,2.316,1.267,2.783a1.869,1.869,0,0,0,2.056-.322,3.1,3.1,0,0,0,.889-1.407,2.748,2.748,0,0,0,.05-1.67,1.76,1.76,0,0,0-1.737-1.246,2.149,2.149,0,0,0-1.715,1.073,3.768,3.768,0,0,0-.358,2,1.018,1.018,0,0,0,1.514.869,2.449,2.449,0,0,0,1.233-1.69,2.579,2.579,0,0,0-.578-2.229,1.007,1.007,0,0,0-1.219-.157,2.29,2.29,0,0,0-.981,1.59,2.293,2.293,0,0,0,.534,1.8,1.007,1.007,0,0,0,.711.294,1.025,1.025,0,0,0,.711-.294,1.014,1.014,0,0,0,.295-.711,1.162,1.162,0,0,0-.295-.712c.019.024.124.2.067.08-.014-.029-.033-.06-.049-.088-.07-.116.044.074.042.1a.409.409,0,0,0-.029-.1c-.005-.02-.029-.081-.021-.1,0,0,.015.264.019.116,0-.055.019-.312-.007-.122s.019-.042.031-.092.061-.156-.006,0-.016.037,0,0a.594.594,0,0,0,.053-.087c.034-.086-.137.142-.066.083s.262-.217,0-.03l-1.219-.158c.119.137-.125-.2-.041-.052.027.047.052.1.083.144.052.077-.081-.261-.03-.065.011.045.024.092.038.137.063.213-.01-.236,0-.056,0,.047.006.1.005.143,0,.027.01.131-.007.144.024-.019.052-.291.007-.077-.02.095-.059.184-.082.276.064-.249.071-.159.021-.067-.022.042-.049.082-.073.123-.089.155.158-.173.042-.053-.033.034-.064.07-.1.1s-.047.042-.071.062c.136-.1.172-.131.108-.087-.05.022-.1.059-.146.084l1.514.869c-.005-.179-.011-.359,0-.539,0-.086.023-.181.019-.266,0,.029-.049.237,0,.07.014-.053.024-.107.039-.16s.028-.083.041-.125c.039-.126-.093.171-.021.06a.53.53,0,0,0,.057-.1c.028-.08-.067.089-.078.1a.847.847,0,0,0,.153-.151c-.1.139-.159.111-.072.063.022-.014.045-.027.069-.039q.1-.054-.12.046a.513.513,0,0,0,.1-.033c.093-.034.094.047-.116.01.017,0,.095-.015.1,0s-.24-.042-.143-.02c.207.045-.189-.119,0,0,.1.064-.18-.142-.088-.064.148.125-.055-.073-.052-.073s.036.071.046.084c-.127-.147-.069-.2-.048-.1.007.032.017.067.025.1.026.092-.04.1-.013-.115-.008.066.007.143,0,.21,0,.036,0,.071-.007.106-.012.175.038-.2.011-.08s-.063.259-.1.388c-.05.154.027-.063.036-.079-.02.031-.033.072-.05.106-.045.09-.1.173-.15.258s-.057,0,.051-.062a.506.506,0,0,0-.076.088c-.033.036-.207.167-.064.074s-.072.034-.1.053c-.1.067.211-.087.1-.045-.188.069.09,0,.091-.006-.01.014-.084-.006-.1,0,.161-.031.213.039.108,0,.263.087.16.08.1.042-.089-.057-.006-.041.082.074a.605.605,0,0,0-.071-.066c-.069-.06-.014-.1.063.089a1.643,1.643,0,0,0-.115-.2c-.062-.105.078.212.041.093-.01-.034-.023-.067-.034-.1-.019-.061-.035-.123-.05-.185s-.031-.142-.043-.214c-.005-.035-.011-.071-.017-.106-.034-.2.03.27,0,.026a4.81,4.81,0,0,1-.039-.517c0-.045,0-.091,0-.136v-.034c.009-.089.008-.09,0,0l-.009.066q.01-.05.022-.1a1.405,1.405,0,0,0,.051-.162c.028.026-.1.2-.027.084.08-.134-.05.067-.064.074a.545.545,0,0,0,.073-.079c.075-.08.06.02-.079.055a.51.51,0,0,0,.09-.056c.092-.062.055.047-.1.038.022,0,.081-.041.1-.027-.012-.009-.287.021-.092.022.124,0-.242-.04-.121-.01s-.208-.1-.1-.038c.092.055-.105-.083-.1-.077.112.1-.048-.063-.055-.083a.573.573,0,0,0,.056.093c.083.126-.032-.064-.035-.089.011.088.058.183.078.271.035.158.06.319.085.479.008.05.015.1.022.149.023.144-.019-.189-.007-.044.01.113.023.224.028.336s.005.2,0,.3a1.4,1.4,0,0,0-.01.147c-.011-.011.05-.246.006-.048-.02.092-.043.181-.067.271s-.073.066.04-.081a1.055,1.055,0,0,0-.064.129c-.031.057-.079.112-.106.17.081-.171.112-.133.051-.068-.026.028-.051.057-.078.083a.553.553,0,0,0-.084.077c.044-.1.171-.118.07-.057-.031.019-.065.038-.1.058-.072.035-.065.035.021,0s.094-.038.019-.01c-.042.011-.267.074-.081.026.152-.038.05-.012,0-.011s-.17-.017.014.007c.2.026-.016-.018-.06-.027-.113-.026.22.112.122.052a.952.952,0,0,0-.093-.051c-.125-.063.108.067.1.083l-.063-.055c-.011-.009-.124-.117-.117-.126s.154.229.079.1c-.015-.026-.033-.05-.048-.075-.025-.043-.127-.265-.053-.085s-.018-.054-.033-.1c-.022-.07-.041-.141-.057-.212s-.025-.147-.04-.22c.069.333.014.09.009-.008a3.245,3.245,0,0,1,.007-.472.377.377,0,0,1,.01-.1c-.021.041-.044.272-.01.094.018-.1.036-.19.058-.284s.049-.187.08-.28c.014-.04.029-.08.043-.12.041-.116-.1.194-.011.037.021-.037.039-.075.061-.111s.132-.176.027-.055.118-.1.126-.122c-.034.095-.173.117-.066.056a1.669,1.669,0,0,0,.151-.083c-.024.019-.229.069-.081.04.043-.009.21-.036.032-.018s-.056,0-.022.006a.784.784,0,0,1,.083,0c.081,0,.038,0-.131-.021a.776.776,0,0,0,.106.026c-.08.009-.211-.11-.042,0a1.016,1.016,0,0,0,1.377-.361,1.028,1.028,0,0,0-.362-1.377Z" transform="translate(-524.977 -171.624)" fill="#360484"></path>
      <path id="Path_125546" data-name="Path 125546" d="M5291.439-6187.886a31.476,31.476,0,0,0,13.732-12.685,31.389,31.389,0,0,0,2.27-4.88,1.016,1.016,0,0,0-.7-1.238,1.028,1.028,0,0,0-1.237.7,29.405,29.405,0,0,1-10.644,13.8,29.77,29.77,0,0,1-4.433,2.566,1.016,1.016,0,0,0-.362,1.377,1.029,1.029,0,0,0,1.377.36Z" transform="translate(-532.989 -177.713)" fill="#360484"></path>
      <g id="Group_3169-2" data-name="Group 3169" transform="translate(4760.176 -6344.095)">
        <path id="Path_125547" data-name="Path 125547" d="M5305.942-6079.089a1.9,1.9,0,0,1,2.713.781,5.493,5.493,0,0,1,.337,3.17c-1.237,13.45-2.489,26.985-6.107,40a4.236,4.236,0,0,0-.145,2.743,4.044,4.044,0,0,0,1.182,1.4,103.336,103.336,0,0,0,19.7,13.389l7.023-20.822a8.909,8.909,0,0,0,.691-3.867,8.9,8.9,0,0,0-1.26-3.16L5316.86-6069.2a22.151,22.151,0,0,1-2.957-7.193c-.4-2.576.268-5.48,2.323-7.084l-7.094,3.458" transform="translate(-5301.557 6084.473)" fill="#360484"></path>
        <path id="Path_125548" data-name="Path 125548" d="M5304.665-6080.349c-.116.094.178-.033,0,.005.026-.006.318-.037.132-.033.015,0,.327.036.146,0a1.572,1.572,0,0,1,.308.091c-.149-.063.163.1.151.094.246.154-.068-.087.146.11a.952.952,0,0,1,.312.433,6.584,6.584,0,0,1,.076,3.182c-.236,2.574-.476,5.148-.732,7.722-.5,5.054-1.079,10.1-1.858,15.124a144.93,144.93,0,0,1-3.083,15,10.334,10.334,0,0,0-.672,3.7,4.631,4.631,0,0,0,1.977,2.964q2.811,2.408,5.788,4.614a103.814,103.814,0,0,0,13.769,8.636,1.023,1.023,0,0,0,1.479-.6l4.762-14.118c.788-2.335,1.586-4.667,2.363-7.006a9.732,9.732,0,0,0,.652-3.519,8.252,8.252,0,0,0-1.137-3.458c-2.334-4.333-4.787-8.6-7.181-12.9-2.376-4.269-4.82-8.508-7.124-12.817a14.761,14.761,0,0,1-2.131-6.578,6.166,6.166,0,0,1,2.139-5.024,1,1,0,0,0,.079-1.321,1.022,1.022,0,0,0-1.3-.26l-7.093,3.458a1.016,1.016,0,0,0-.361,1.377,1.028,1.028,0,0,0,1.377.361l7.094-3.458-1.22-1.581a7.612,7.612,0,0,0-2.619,4.944,12.137,12.137,0,0,0,.953,6.275,59.717,59.717,0,0,0,3.278,6.317l3.648,6.555,7.3,13.108c.583,1.048,1.207,2.083,1.732,3.162a4.687,4.687,0,0,1,.481,2.984,26.05,26.05,0,0,1-1.037,3.406l-1.224,3.628-5.374,15.932,1.479-.6a103.957,103.957,0,0,1-12.665-7.827q-2.917-2.107-5.674-4.42c-.455-.383-.913-.764-1.357-1.16a2.175,2.175,0,0,1-.852-1.195,3.41,3.41,0,0,1,.155-1.361c.17-.666.363-1.325.538-1.989,2.68-10.189,3.979-20.681,5.01-31.147q.214-2.172.415-4.344c.13-1.4.323-2.808.367-4.21a4.263,4.263,0,0,0-1.274-3.543,2.756,2.756,0,0,0-3.563-.125,1.011,1.011,0,0,0,0,1.422,1.029,1.029,0,0,0,1.423,0Z" transform="translate(-5299.568 6086.443)" fill="#360484"></path>
      </g>
      <path id="Path_125549" data-name="Path 125549" d="M4903.958-6443.273a143.623,143.623,0,0,0-54.492-.581c-12,2.193-24.264,6.261-32.623,15.144-7.385,7.846-10.9,18.652-12.153,29.354-.613,5.247-.72,10.652.766,15.723a26.33,26.33,0,0,0,20.068,18.088l-13.322,12.728a47.13,47.13,0,0,0,17.09-5.972,23.188,23.188,0,0,1,5.813-2.875,18.534,18.534,0,0,1,6.238-.139c19.191,1.761,38.667,3.8,57.623.321a20.13,20.13,0,0,1,5.226-.538,20.538,20.538,0,0,1,5.574,1.62,83.037,83.037,0,0,0,22.628,5.186,36.5,36.5,0,0,1-18.051-11.584c10.463-3.166,18.564-12.462,21.29-23.046s.379-22.156-5.351-31.466-14.629-16.433-24.537-21.052" transform="translate(-210.223 -18.577)" fill="#f04e98"></path>
      <path id="Path_125550" data-name="Path 125550" d="M4945.664-6335.543a3.247,3.247,0,0,1-1.7-.479,3.9,3.9,0,0,1-1.183-1.194l-9.992-14.624,3.944-2.695,9.189,13.448a412.834,412.834,0,0,1,35.529-36.146l3.193,3.553a408.13,408.13,0,0,0-35.671,36.366A4.425,4.425,0,0,1,4945.664-6335.543Z" transform="translate(-295.639 -64.398)" fill="#fff"></path>
      <path id="Path_125551" data-name="Path 125551" d="M5332.868-6053.908" transform="translate(-561.523 -279.275)" fill="none" stroke="#f04e98" stroke-miterlimit="10" stroke-width="2"></path>
      <path id="Path_125552" data-name="Path 125552" d="M5326.348-6063.979l1.337-.524a.757.757,0,0,0,.342-.18.767.767,0,0,0,.26-.282.758.758,0,0,0,.119-.375.764.764,0,0,0-.018-.4,1.019,1.019,0,0,0-.463-.6l-.24-.1a1.026,1.026,0,0,0-.535,0l-1.337.524a.751.751,0,0,0-.343.18.758.758,0,0,0-.259.282.747.747,0,0,0-.119.374.759.759,0,0,0,.018.4,1.017,1.017,0,0,0,.463.6l.24.1a1.026,1.026,0,0,0,.535,0Z" transform="translate(-556.342 -270.919)" fill="#f04e98"></path>
      <path id="Path_125553" data-name="Path 125553" d="M5319.413-6048.07l1.34-.653a.763.763,0,0,0,.282-.259.756.756,0,0,0,.18-.342.759.759,0,0,0,.018-.4.744.744,0,0,0-.119-.374,1.019,1.019,0,0,0-.6-.463l-.268-.036a1,1,0,0,0-.508.138l-1.339.653a.765.765,0,0,0-.282.26.762.762,0,0,0-.181.342.766.766,0,0,0-.018.4.744.744,0,0,0,.12.374,1.017,1.017,0,0,0,.6.462l.267.036a.992.992,0,0,0,.507-.138Z" transform="translate(-551.574 -281.474)" fill="#f04e98"></path>
      <path id="Path_125554" data-name="Path 125554" d="M5331.523-6051.687a2.872,2.872,0,0,1,.527-.123l-.268.036a2.9,2.9,0,0,1,.736,0l-.268-.036.074.011a.768.768,0,0,0,.4.018.744.744,0,0,0,.373-.12.756.756,0,0,0,.282-.259.759.759,0,0,0,.181-.342,1.019,1.019,0,0,0-.1-.775l-.157-.2a1.01,1.01,0,0,0-.444-.259,3.94,3.94,0,0,0-.942-.061,4.014,4.014,0,0,0-.93.173,1.065,1.065,0,0,0-.6.462.762.762,0,0,0-.119.375.757.757,0,0,0,.019.4,1.016,1.016,0,0,0,.462.6,1.014,1.014,0,0,0,.775.1Z" transform="translate(-559.783 -279.34)" fill="#f04e98"></path>
      <path id="Path_125555" data-name="Path 125555" d="M5325.023-6034.736a6.706,6.706,0,0,1,.836-.422l-.241.1a6.89,6.89,0,0,1,1.166-.371,1.026,1.026,0,0,0,.6-.463,1.027,1.027,0,0,0,.1-.775,1.017,1.017,0,0,0-.462-.6,1.09,1.09,0,0,0-.775-.1,7.781,7.781,0,0,0-2.242.895,1.041,1.041,0,0,0-.462.6,1.021,1.021,0,0,0,.1.774,1.014,1.014,0,0,0,.6.463,1.047,1.047,0,0,0,.775-.1Z" transform="translate(-555.305 -290.246)" fill="#f04e98"></path>
      <path id="Path_125556" data-name="Path 125556" d="M5344.4-6030.06" transform="translate(-569.184 -295.124)" fill="none" stroke="#f04e98" stroke-miterlimit="10" stroke-width="2"></path>
      <path id="Path_125557" data-name="Path 125557" d="M5317.461-6017.929a5.626,5.626,0,0,1,.991-.542l-.24.1a5.612,5.612,0,0,1,1.373-.372l-.268.036.042,0a.761.761,0,0,0,.388-.087.751.751,0,0,0,.323-.208,1.024,1.024,0,0,0,.294-.711,1.012,1.012,0,0,0-.294-.711.968.968,0,0,0-.711-.3,6.569,6.569,0,0,0-1.526.351,6.561,6.561,0,0,0-1.388.706,1.074,1.074,0,0,0-.462.6,1.027,1.027,0,0,0,.1.775,1.015,1.015,0,0,0,.6.462,1,1,0,0,0,.775-.1Z" transform="translate(-550.279 -301.325)" fill="#f04e98"></path>
      <path id="Path_125558" data-name="Path 125558" d="M5339.516-6031.879a5.629,5.629,0,0,1,1.407-.386l-.268.036c.193-.026.388-.042.583-.048a1.049,1.049,0,0,0,.712-.294,1.022,1.022,0,0,0,.295-.711,1.014,1.014,0,0,0-.295-.711,1.02,1.02,0,0,0-.712-.295,6.412,6.412,0,0,0-2.258.47.753.753,0,0,0-.341.181.75.75,0,0,0-.259.282,1.023,1.023,0,0,0-.1.775,1.016,1.016,0,0,0,.462.6.971.971,0,0,0,.775.1Z" transform="translate(-565.094 -292.312)" fill="#f04e98"></path>
      <path id="Path_125559" data-name="Path 125559" d="M5314.139-6000.982a9.009,9.009,0,0,1,1.966-1.145l-.24.1a9.293,9.293,0,0,1,1.026-.36,1.019,1.019,0,0,0,.7-1.237,1.024,1.024,0,0,0-1.238-.7,9.7,9.7,0,0,0-3.233,1.606,1.1,1.1,0,0,0-.463.6,1.026,1.026,0,0,0,.1.775,1.02,1.02,0,0,0,.6.463.975.975,0,0,0,.775-.1Z" transform="translate(-548.071 -312.201)" fill="#f04e98"></path>
      <path id="Path_125560" data-name="Path 125560" d="M5337.153-6008.565a5.841,5.841,0,0,1,.625-.563l-.2.158a5.652,5.652,0,0,1,1.217-.713l-.24.1.156-.063a.772.772,0,0,0,.342-.18.767.767,0,0,0,.259-.282,1.034,1.034,0,0,0,.1-.776,1.019,1.019,0,0,0-.463-.6.979.979,0,0,0-.775-.1,6.636,6.636,0,0,0-1.312.66,6.69,6.69,0,0,0-1.129.937,1.045,1.045,0,0,0-.295.711,1.027,1.027,0,0,0,.295.712,1.011,1.011,0,0,0,.712.294,1.026,1.026,0,0,0,.71-.294Z" transform="translate(-563.23 -307.373)" fill="#f04e98"></path>
      <path id="Path_125561" data-name="Path 125561" d="M5359.729-6009.5a.193.193,0,0,1,.013-.042l-.1.241a.261.261,0,0,1,.029-.049l-.157.2a.3.3,0,0,1,.043-.043l-.2.157a.3.3,0,0,1,.057-.033l-.24.1a.334.334,0,0,1,.073-.02l-.268.036a.271.271,0,0,1,.066,0l-.268-.036a.238.238,0,0,1,.055.015l-.24-.1a.2.2,0,0,1,.045.026l-.2-.157,0,0a.77.77,0,0,0,.324.208.765.765,0,0,0,.388.086.768.768,0,0,0,.388-.086.761.761,0,0,0,.323-.208l.158-.2a.992.992,0,0,0,.137-.508l-.035-.268a1.011,1.011,0,0,0-.259-.444,1.892,1.892,0,0,0-.229-.175,2.283,2.283,0,0,0-.264-.113l-.029-.01a2.079,2.079,0,0,0-.3-.041.288.288,0,0,0-.062,0,2.446,2.446,0,0,0-.3.042l-.03.009c-.09.034-.179.07-.265.112l-.031.018a2.769,2.769,0,0,0-.225.173l-.023.021a2.218,2.218,0,0,0-.177.227.178.178,0,0,0-.016.026,2.065,2.065,0,0,0-.113.264.208.208,0,0,0-.009.034.757.757,0,0,0-.018.4.758.758,0,0,0,.119.375.767.767,0,0,0,.26.282.752.752,0,0,0,.342.18l.268.036a1,1,0,0,0,.508-.138l.2-.157a1.01,1.01,0,0,0,.259-.445Z" transform="translate(-578.06 -307.818)" fill="#f04e98"></path>
      <path id="Path_125562" data-name="Path 125562" d="M5330.04-5988.884a1.918,1.918,0,0,0-1.1.875,1.026,1.026,0,0,0,.157,1.219,1.042,1.042,0,0,0,1.22.158q.526-.285,1.075-.521l-.24.1a12.57,12.57,0,0,1,2.218-.7,1.013,1.013,0,0,0,.7-1.237,1.03,1.03,0,0,0-1.237-.7,13.379,13.379,0,0,0-3.534,1.323l1.377,1.377c.021-.039.106-.157,0-.017s-.01.022.016,0c.094-.1-.074.075-.093.07.007,0,.114-.063.124-.068l-.24.1c.029-.013.06-.024.09-.034a1.024,1.024,0,0,0,.7-1.237,1.02,1.02,0,0,0-1.237-.7Z" transform="translate(-558.827 -321.932)" fill="#f04e98"></path>
      <path id="Path_125563" data-name="Path 125563" d="M5359.97-5991.705a3.823,3.823,0,0,1,.431-.217l-.24.1a3.854,3.854,0,0,1,.955-.264l-.267.037c.075-.011.15-.019.226-.024a.758.758,0,0,0,.387-.087.751.751,0,0,0,.324-.208,1.024,1.024,0,0,0,.295-.711,1.018,1.018,0,0,0-.295-.711.988.988,0,0,0-.711-.294,4.894,4.894,0,0,0-2.121.642,1.044,1.044,0,0,0-.462.6,1.025,1.025,0,0,0,.1.775,1.019,1.019,0,0,0,.6.462,1.048,1.048,0,0,0,.775-.1Z" transform="translate(-578.53 -319.031)" fill="#f04e98"></path>
      <path id="Path_125564" data-name="Path 125564" d="M5310.134-5971.128c.06-.049.127-.095.185-.148-.223.207-.028.023.033-.021.127-.093.257-.181.39-.267a8.553,8.553,0,0,1,.823-.467c.141-.069.291-.125.43-.2-.275.146-.037.017.034-.011s.147-.056.221-.082a8.481,8.481,0,0,1,.908-.267,1.015,1.015,0,0,0,.7-1.238,1.028,1.028,0,0,0-1.237-.7,9.707,9.707,0,0,0-3.911,1.979,1.01,1.01,0,0,0-.294.712,1.023,1.023,0,0,0,.294.711,1.013,1.013,0,0,0,.712.294,1.142,1.142,0,0,0,.711-.294Z" transform="translate(-545.273 -332.007)" fill="#f04e98"></path>
      <path id="Path_125565" data-name="Path 125565" d="M5318.647-5955.925a13.843,13.843,0,0,1,1.478-.731l-.24.1a13.845,13.845,0,0,1,1.727-.592,1.018,1.018,0,0,0,.7-1.237,1.024,1.024,0,0,0-1.238-.7,14.693,14.693,0,0,0-3.445,1.425,1.017,1.017,0,0,0-.36,1.377,1.026,1.026,0,0,0,1.377.36Z" transform="translate(-551.065 -342.268)" fill="#f04e98"></path>
      <path id="Path_125566" data-name="Path 125566" d="M5350.8-5977.021c.125-.119.253-.236.385-.349.062-.053.125-.105.188-.157.039-.031.08-.062.119-.095-.033.028-.166.125-.058.046a10.146,10.146,0,0,1,.866-.574,9.2,9.2,0,0,1,.9-.459c.058-.026.215-.082-.044.017l.113-.046c.075-.03.152-.06.229-.087.172-.064.346-.121.521-.175a1.021,1.021,0,0,0,.7-1.237,1.023,1.023,0,0,0-1.238-.7,10.3,10.3,0,0,0-4.1,2.4,1.015,1.015,0,0,0,0,1.423,1.027,1.027,0,0,0,1.423,0Z" transform="translate(-572.304 -327.807)" fill="#f04e98"></path>
      <path id="Path_125567" data-name="Path 125567" d="M5341.337-5959.631l.04.408a1,1,0,0,0,.138.508.749.749,0,0,0,.259.282.747.747,0,0,0,.342.18,1.006,1.006,0,0,0,.535,0l1.57-.566a.752.752,0,0,0,.342-.18.757.757,0,0,0,.26-.282,1.024,1.024,0,0,0,.1-.775,1.016,1.016,0,0,0-.462-.6,1,1,0,0,0-.775-.1l-1.57.566,1.274.97-.04-.408a.751.751,0,0,0-.086-.387.756.756,0,0,0-.209-.324,1.02,1.02,0,0,0-.711-.295,1.013,1.013,0,0,0-.711.295.984.984,0,0,0-.3.711Z" transform="translate(-567.15 -341.153)" fill="#f04e98"></path>
      <path id="Path_125568" data-name="Path 125568" d="M5371.988-5961.4c.208-.1.419-.195.632-.285l-.239.1a14.182,14.182,0,0,1,2.019-.672,1.015,1.015,0,0,0,.7-1.237,1.025,1.025,0,0,0-1.237-.7,15.365,15.365,0,0,0-2.892,1.058,1.007,1.007,0,0,0-.462.6,1.023,1.023,0,0,0,.1.775,1.017,1.017,0,0,0,.6.462,1.13,1.13,0,0,0,.775-.1Z" transform="translate(-586.517 -338.872)" fill="#f04e98"></path>
      <path id="Path_125569" data-name="Path 125569" d="M5311.4-5933.278l2.8.149a1.012,1.012,0,0,0,1.006-1.007,1.028,1.028,0,0,0-1.006-1.006l-2.8-.148a1.013,1.013,0,0,0-1.006,1.006,1.029,1.029,0,0,0,1.006,1.006Z" transform="translate(-546.584 -358.105)" fill="#f04e98"></path>
      <path id="Path_125570" data-name="Path 125570" d="M5336.539-5938.915a32.1,32.1,0,0,1,3.077-1.578,1.006,1.006,0,0,0,.462-.6,1.026,1.026,0,0,0-.1-.775,1.014,1.014,0,0,0-.6-.462,1.16,1.16,0,0,0-.775.1,32.211,32.211,0,0,0-3.077,1.577,1.019,1.019,0,0,0-.361,1.377,1.025,1.025,0,0,0,1.377.361Z" transform="translate(-562.956 -353.408)" fill="#f04e98"></path>
      <path id="Path_125571" data-name="Path 125571" d="M5361.6-5948.361l.933.266a.749.749,0,0,0,.4.018.742.742,0,0,0,.374-.119.759.759,0,0,0,.283-.259.769.769,0,0,0,.18-.343l.036-.268a1,1,0,0,0-.138-.507l-.157-.2a1.012,1.012,0,0,0-.445-.259l-.933-.266a.749.749,0,0,0-.4-.018.73.73,0,0,0-.375.119.762.762,0,0,0-.282.259.755.755,0,0,0-.18.343l-.036.268a1.011,1.011,0,0,0,.138.508l.157.2a1,1,0,0,0,.444.259Z" transform="translate(-580.125 -348.105)" fill="#f04e98"></path>
      <path id="Path_125572" data-name="Path 125572" d="M5377.784-5947.446l1.329-.165a.758.758,0,0,0,.387-.087.751.751,0,0,0,.324-.208.761.761,0,0,0,.208-.323.768.768,0,0,0,.086-.388,1.013,1.013,0,0,0-.295-.711l-.2-.158a1.006,1.006,0,0,0-.508-.138l-1.329.166a.753.753,0,0,0-.388.086.742.742,0,0,0-.324.208.741.741,0,0,0-.208.323.753.753,0,0,0-.086.388,1.015,1.015,0,0,0,.294.712l.2.157a1,1,0,0,0,.508.138Z" transform="translate(-590.705 -348.58)" fill="#f04e98"></path>
      <path id="Path_125573" data-name="Path 125573" d="M5335.641-5919.887a5.782,5.782,0,0,0,3.152-.911,1.059,1.059,0,0,0,.462-.6,1.026,1.026,0,0,0-.1-.774,1.021,1.021,0,0,0-1.377-.361,4.893,4.893,0,0,1-.768.407l.241-.1a4.915,4.915,0,0,1-1.191.323l.268-.036a5.027,5.027,0,0,1-.685.043,1.016,1.016,0,0,0-1.006,1.006,1.025,1.025,0,0,0,1.006,1.006Z" transform="translate(-562.696 -366.49)" fill="#f04e98"></path>
      <path id="Path_125574" data-name="Path 125574" d="M5366.517-5933c.061-.051.121-.1.184-.15l-.2.158a4.277,4.277,0,0,1,.922-.535l-.241.1a4.258,4.258,0,0,1,.648-.21,1.03,1.03,0,0,0,.6-.463,1.03,1.03,0,0,0,.1-.775,1.019,1.019,0,0,0-.463-.6,1.08,1.08,0,0,0-.775-.1,5.282,5.282,0,0,0-2.2,1.153,1.016,1.016,0,0,0-.295.712,1.024,1.024,0,0,0,.295.711,1.008,1.008,0,0,0,.711.294l.267-.036a1,1,0,0,0,.444-.259Z" transform="translate(-582.744 -357.898)" fill="#f04e98"></path>
      <path id="Path_125575" data-name="Path 125575" d="M5362.282-5904.058" transform="translate(-581.071 -378.863)" fill="none" stroke="#f04e98" stroke-miterlimit="10" stroke-width="2"></path>
      <path id="Path_125576" data-name="Path 125576" d="M5362.144-5907.586a3.716,3.716,0,0,0,.854-.238,4.665,4.665,0,0,0,.989-.523.758.758,0,0,0,.282-.259.751.751,0,0,0,.18-.342,1.027,1.027,0,0,0-.1-.775,1.012,1.012,0,0,0-.6-.462.985.985,0,0,0-.775.1,3.724,3.724,0,0,1-.723.411l.24-.1a3.71,3.71,0,0,1-.879.249.76.76,0,0,0-.342.18.759.759,0,0,0-.259.282,1.023,1.023,0,0,0-.1.776,1.014,1.014,0,0,0,.462.6l.241.1a1.014,1.014,0,0,0,.535,0Z" transform="translate(-580.132 -374.767)" fill="#f04e98"></path>
      <path id="Path_125577" data-name="Path 125577" d="M5356.034-5921.989l.4-.265a.76.76,0,0,0,.281-.259.749.749,0,0,0,.181-.342.767.767,0,0,0,.019-.4.746.746,0,0,0-.12-.374l-.157-.2a1,1,0,0,0-.444-.259l-.268-.036a1,1,0,0,0-.508.137l-.4.265a.756.756,0,0,0-.283.258.774.774,0,0,0-.18.342.759.759,0,0,0-.018.4.738.738,0,0,0,.119.374l.157.2a1,1,0,0,0,.444.259l.268.036a1,1,0,0,0,.507-.137Z" transform="translate(-575.913 -365.525)" fill="#f04e98"></path>
      <path id="Path_125578" data-name="Path 125578" d="M5350.3-5900.234a1.079,1.079,0,0,1,.2.008l-.268-.036a2.138,2.138,0,0,1,.488.155l-.24-.1a3.847,3.847,0,0,0,.767.294,2.116,2.116,0,0,0,.936-.014,1.506,1.506,0,0,0,1.182-1.444,1.052,1.052,0,0,0-.294-.712,1.023,1.023,0,0,0-.711-.294,1.015,1.015,0,0,0-.712.294,1.024,1.024,0,0,0-.294.712.658.658,0,0,1,0,.069l.036-.267a.487.487,0,0,1-.028.1l.1-.239a.513.513,0,0,1-.055.091l.158-.2a.58.58,0,0,1-.079.076l.2-.157a.73.73,0,0,1-.162.093l.24-.1a.977.977,0,0,1-.216.057l.268-.035a1.091,1.091,0,0,1-.252,0l.268.036a1.751,1.751,0,0,1-.446-.145l.24.1a2.965,2.965,0,0,0-1.327-.355,1.065,1.065,0,0,0-.712.295,1.023,1.023,0,0,0-.294.711,1.023,1.023,0,0,0,.294.712,1,1,0,0,0,.712.295Z" transform="translate(-572.439 -379.978)" fill="#f04e98"></path>
      <path id="Path_125579" data-name="Path 125579" d="M5347.705-6019.617l1.6-.8a1.015,1.015,0,0,0,.463-.6,1.034,1.034,0,0,0-.1-.775,1.014,1.014,0,0,0-.6-.462l-.268-.037a1.006,1.006,0,0,0-.508.138l-1.6.8a1.02,1.02,0,0,0-.462.6,1.027,1.027,0,0,0,.1.775,1.02,1.02,0,0,0,.6.463l.268.036a1.009,1.009,0,0,0,.509-.137Z" transform="translate(-570.378 -300.284)" fill="#f04e98"></path>
      <path id="Path_125580" data-name="Path 125580" d="M4611.6-6431.412a18.1,18.1,0,0,1-2.246-14.171,10.937,10.937,0,0,1-2.1-5.467,25.489,25.489,0,0,1,2.114-14.446l1.3.608a24.035,24.035,0,0,0-1.993,13.626,11.154,11.154,0,0,0,1.223,3.937,17.142,17.142,0,0,1,1.569-3.211c1.381-2.2,3.164-3.272,4.887-2.94a3.868,3.868,0,0,1,2.9,3.378,6.308,6.308,0,0,1-1.137,4.112,5.883,5.883,0,0,1-2.348,2.231,5.182,5.182,0,0,1-5.179-.672,16.829,16.829,0,0,0,2.217,12.235Zm-.637-14.546a3.963,3.963,0,0,0,4.18.912,4.554,4.554,0,0,0,1.764-1.717,5.022,5.022,0,0,0,.919-3.167,2.442,2.442,0,0,0-1.749-2.14c-1.627-.312-3.015,1.678-3.4,2.295A15.468,15.468,0,0,0,4610.967-6445.958Z" transform="translate(-79.112 -5.74)" fill="#f04e98"></path>
      <path id="Path_125581" data-name="Path 125581" d="M4677.6-6419.962l-1.277-.653a87.806,87.806,0,0,0,9.227-32.125l1.428.124A89.283,89.283,0,0,1,4677.6-6419.962Z" transform="translate(-125.191 -14.217)" fill="#f04e98"></path>
      <path id="Path_125582" data-name="Path 125582" d="M4733.466-6392.061l-1.12-.895a35.777,35.777,0,0,0,7.792-22.68l1.433-.017A37.219,37.219,0,0,1,4733.466-6392.061Z" transform="translate(-162.425 -38.866)" fill="#f04e98"></path>
      <path id="Path_125583" data-name="Path 125583" d="M5253.433-6471.509a.965.965,0,0,1,.4-.4c-.017.01.264-.134.143-.08s.176-.058.158-.052c.063-.02.128-.036.193-.052.014,0,.314-.042.132-.024a4.3,4.3,0,0,1,.463-.008c.04,0,.26.023.1,0,.069.01.139.024.207.039a2.1,2.1,0,0,1,.83.319,2.43,2.43,0,0,1,.257.182,3.979,3.979,0,0,1,.394.4,4.217,4.217,0,0,1,.583.976,8.374,8.374,0,0,1,.563,2.2,24.935,24.935,0,0,1-1.171,11.218,6.136,6.136,0,0,1-.86,1.862,1.415,1.415,0,0,1-.557.457,1.207,1.207,0,0,1-.272.071c.066-.008.1,0-.056-.013-.216-.011-.094-.009-.05,0a1.417,1.417,0,0,1-.308-.091c.124.056-.292-.2-.209-.138a2.415,2.415,0,0,1-.305-.308,1.491,1.491,0,0,1-.32-.784c.015.131.034-.362.015-.254a2.042,2.042,0,0,1,.058-.228c.038-.134.042-.145.02-.088a2.046,2.046,0,0,1,.6-.822,3.017,3.017,0,0,1,1.71-.706,5.623,5.623,0,0,1,2.441.481,8.806,8.806,0,0,1,3.807,2.855c2.432,3.588-.913,7.558-3.246,10.146a1.029,1.029,0,0,0,0,1.423,1.016,1.016,0,0,0,1.423,0,20.1,20.1,0,0,0,3.944-5.558,7.668,7.668,0,0,0-.048-6.464,9.928,9.928,0,0,0-4.715-4.072c-1.978-.914-4.386-1.279-6.26.088a4.11,4.11,0,0,0-1.678,2.409,3.473,3.473,0,0,0,.812,2.984,3.109,3.109,0,0,0,2.521,1.13,3.364,3.364,0,0,0,2.495-1.627,11.225,11.225,0,0,0,1.215-2.96,26.271,26.271,0,0,0,.785-3.328,27.266,27.266,0,0,0,.285-7.087c-.21-2.221-.762-4.741-2.771-6.042a3.964,3.964,0,0,0-5.467.92c-.687,1.1,1.054,2.114,1.738,1.016Z" transform="translate(-507.472 0.001)" fill="#f04e98"></path>
      <path id="Path_125584" data-name="Path 125584" d="M5327.18-6471.112a47.01,47.01,0,0,1-1.187,22.1,45.64,45.64,0,0,1-2.216,5.913,1.036,1.036,0,0,0,.36,1.377,1.014,1.014,0,0,0,1.377-.361,49.193,49.193,0,0,0,4.408-22.917,49.658,49.658,0,0,0-.8-6.648,1.015,1.015,0,0,0-1.238-.7,1.028,1.028,0,0,0-.7,1.237Z" transform="translate(-555.403 -1.164)" fill="#f04e98"></path>
      <path id="Path_125585" data-name="Path 125585" d="M5394.173-6450.418c1.782,2.954.609,6.654-.583,9.615a92.139,92.139,0,0,1-5.074,10.474q-1.63,2.919-3.452,5.727a1.018,1.018,0,0,0,.361,1.376,1.024,1.024,0,0,0,1.377-.36,101.274,101.274,0,0,0,6.045-10.688c.918-1.884,1.783-3.8,2.58-5.736a21.639,21.639,0,0,0,1.527-5.229,9.326,9.326,0,0,0-1.043-6.192,1.007,1.007,0,0,0-1.737,1.016Z" transform="translate(-596.12 -14.767)" fill="#f04e98"></path>
      <path id="Path_125586" data-name="Path 125586" d="M5426.527-6344.243a15.048,15.048,0,0,0,8.214-7.248,1.031,1.031,0,0,0-.361-1.377,1.016,1.016,0,0,0-1.377.361,13.022,13.022,0,0,1-7.011,6.323,1.034,1.034,0,0,0-.7,1.238,1.015,1.015,0,0,0,1.238.7Z" transform="translate(-622.921 -80.503)" fill="#f04e98"></path>
    </g>
  </g>
</svg>
