<?xml version="1.0" encoding="UTF-8"?>
<svg xmlns="http://www.w3.org/2000/svg" width="295.283" height="45.309" viewBox="0 0 295.283 45.309">
  <g id="Group_817" data-name="Group 817" transform="translate(-58.681 -59)">
    <path id="Path_16" data-name="Path 16" d="M6694.02-3881.885v-1.234c0-3.928-1.423-5.276-5.575-5.276-3.927,0-5.536,1.908-5.536,5.874v9.092c0,4,1.646,5.949,5.536,5.949,4.154,0,5.575-1.347,5.575-5.351v-1.384h3.442v1.309c0,5.466-2.357,8.493-9.017,8.493-6.4,0-8.979-3.443-8.979-8.944v-9.2c0-5.466,2.694-8.944,9.09-8.944,6.659,0,8.9,3.143,8.9,8.53v1.085Z" transform="translate(-6556.336 3959.294)" fill="#fff"></path>
    <path id="Path_17" data-name="Path 17" d="M6756.875-3868.633v5.538c0,5.313-3.143,8.081-8.646,8.081-5.574,0-8.68-2.768-8.68-8.081v-5.538c0-5.168,2.993-8.082,8.68-8.082C6753.881-3876.714,6756.875-3873.8,6756.875-3868.633Zm-14.067.112v5.313c0,3.441,1.721,5.312,5.425,5.312,3.666,0,5.387-1.871,5.387-5.312v-5.315c0-3.592-1.871-5.35-5.387-5.35-3.594,0-5.425,1.761-5.425,5.35Z" transform="translate(-6594.835 3949.817)" fill="#fff"></path>
    <path id="Path_18" data-name="Path 18" d="M6802.4-3876.35l.6,3.068a7.045,7.045,0,0,1,6.286-3.443c5.424,0,7.82,3.068,7.82,8.119v13.207h-3.218v-12.945c0-3.441-1.758-5.5-5.425-5.5-3.4,0-5.35,2.32-5.35,5.8v12.646h-3.254v-20.952Z" transform="translate(-6633.476 3949.827)" fill="#fff"></path>
    <path id="Path_19" data-name="Path 19" d="M6856.718-3883.014h3.106l.674-4.115H6863v4.115h4.49v2.882H6863v11.935c0,3.068,1.235,3.554,4.49,3.329v3.068a16.059,16.059,0,0,1-1.87.112c-4.789,0-5.911-2.171-5.911-6.585v-11.86h-2.994Z" transform="translate(-6669.912 3956.491)" fill="#fff"></path>
    <path id="Path_20" data-name="Path 20" d="M6898.345-3865.008v1.833c0,3.441,1.5,5.275,5.167,5.275,3.442,0,4.864-.861,4.864-4.228h3.256c0,4.527-2.693,7.109-7.969,7.109-5.537,0-8.6-2.843-8.6-8.156v-5.466c0-5.167,2.807-8.081,8.493-8.081,5.575,0,8.38,2.843,8.38,7.895v3.816Zm10.327-4.074c0-3.218-1.685-4.789-5.126-4.789-3.4,0-5.2,1.571-5.2,4.789v1.571h10.327Z" transform="translate(-6694.479 3949.822)" fill="#fff"></path>
    <path id="Path_21" data-name="Path 21" d="M6956.633-3876.35l.6,3.068a7.046,7.046,0,0,1,6.287-3.443c5.423,0,7.819,3.068,7.819,8.119v13.207h-3.218v-12.945c0-3.441-1.758-5.5-5.424-5.5-3.4,0-5.351,2.32-5.351,5.8v12.646h-3.254v-20.952Z" transform="translate(-6732.302 3949.827)" fill="#fff"></path>
    <path id="Path_22" data-name="Path 22" d="M7010.955-3883.014h3.105l.672-4.115h2.508v4.115h4.489v2.882h-4.489v11.935c0,3.068,1.234,3.554,4.489,3.329v3.068a16.066,16.066,0,0,1-1.87.112c-4.789,0-5.912-2.171-5.912-6.585v-11.86h-2.992Z" transform="translate(-6768.74 3956.491)" fill="#fff"></path>
    <path id="Path_23" data-name="Path 23" d="M7079.386-3882.5v-2.286c0-2.286-1.192-3.816-4.826-3.816-3.367,0-4.9,1.383-4.9,3.741,0,1.987.936,3.105,2.844,3.854l5.836,2.357c3.405,1.385,5.168,3.7,5.168,6.884,0,4.751-3.33,7.332-8.605,7.332-5.126,0-8.646-2.32-8.646-6.846v-2.544h3.442v2.469c0,2.544,1.57,4,5.2,4,3.891,0,5.088-1.646,5.088-4.265a4.274,4.274,0,0,0-2.919-4.153l-5.8-2.286c-3.217-1.234-5.013-3.592-5.013-6.921,0-4.115,3.068-6.547,8.3-6.547s8.269,2.731,8.269,6.884v2.133Z" transform="translate(-6804.174 3959.306)" fill="#fff"></path>
    <path id="Path_24" data-name="Path 24" d="M7127.12-3876.35l.6,3.068a7.045,7.045,0,0,1,6.287-3.443c5.424,0,7.819,3.068,7.819,8.119v13.207H7138.6v-12.945c0-3.441-1.759-5.5-5.424-5.5-3.4,0-5.352,2.32-5.352,5.8v12.646h-3.253v-20.952Z" transform="translate(-6841.544 3949.827)" fill="#fff"></path>
    <path id="Path_25" data-name="Path 25" d="M7185.121-3870.092c0-4.265,2.732-6.623,7.783-6.623,5.125,0,7.52,2.32,7.52,6.435v14.891h-2.506l-.636-3.069a7.488,7.488,0,0,1-6.548,3.443c-4.153,0-6.062-2.432-6.062-5.987,0-3.7,2.694-6.21,6.772-6.21h5.648v-3.443c0-2.285-1.234-3.292-4.228-3.292s-4.526,1.272-4.526,3.854Zm6.509,5.313c-2.656,0-3.666,1.571-3.666,3.63,0,2.394,1.192,3.591,3.554,3.591a5.534,5.534,0,0,0,5.688-5.275v-1.946Z" transform="translate(-6880.05 3949.817)" fill="#fff"></path>
    <path id="Path_26" data-name="Path 26" d="M7244.349-3876.341l.562,3.517c1.01-2.207,4.116-3.891,7.109-3.891v3.255c-4.373,0-7,2.094-7,5.724v12.347h-3.292v-20.952Z" transform="translate(-6916.612 3949.817)" fill="#fff"></path>
    <path id="Path_27" data-name="Path 27" d="M7278.351-3865.008v1.833c0,3.441,1.5,5.275,5.163,5.275,3.441,0,4.863-.861,4.863-4.228h3.254c0,4.527-2.692,7.109-7.969,7.109-5.537,0-8.6-2.843-8.6-8.156v-5.466c0-5.167,2.807-8.081,8.492-8.081,5.574,0,8.38,2.843,8.38,7.895v3.816Zm10.325-4.074c0-3.218-1.683-4.789-5.126-4.789-3.4,0-5.2,1.571-5.2,4.789v1.571h10.325Z" transform="translate(-6937.966 3949.822)" fill="#fff"></path>
    <path id="Path_28" data-name="Path 28" d="M6534.645-3895.16h14.5v-18.922a1.889,1.889,0,0,0-1.89-1.89h-24.926a1.889,1.889,0,0,0-1.89,1.889h0v11.28h11.851a2.357,2.357,0,0,1,2.357,2.357h0Z" transform="translate(-6454.436 3974.972)" fill="#f04e98"></path>
    <path id="Path_29" data-name="Path 29" d="M6536.085-3871.669v15.516a1.659,1.659,0,0,1-1.658,1.658h-25.388a1.658,1.658,0,0,1-1.657-1.657h0v-23.159h-4.963a2.357,2.357,0,0,0-2.357,2.356h0v27.423a2.357,2.357,0,0,0,2.356,2.358h38.627a2.357,2.357,0,0,0,2.357-2.358h0v-19.781a2.357,2.357,0,0,0-2.357-2.357h-4.96Z" transform="translate(-6441.381 3951.482)" fill="#6ad1e3"></path>
    <path id="Path_30" data-name="Path 30" d="M6549.14-3856.152v-15.517H6536.3a1.658,1.658,0,0,1-1.658-1.658v-3.626a2.356,2.356,0,0,0-2.356-2.358h-11.852v23.159a1.658,1.658,0,0,0,1.657,1.658h25.388a1.659,1.659,0,0,0,1.658-1.658Z" transform="translate(-6454.437 3951.481)" fill="#703dc1"></path>
  </g>
</svg>
