<?xml version="1.0" encoding="UTF-8"?>
<svg xmlns="http://www.w3.org/2000/svg" width="965.947" height="823.277" viewBox="0 0 965.947 823.277">
  <g id="Group_3186" data-name="Group 3186" transform="translate(-5390.422 -1102.969)">
    <path id="Path_125683" data-name="Path 125683" d="M5415.664,1511.439c.676-20.153,1.387-40.541,6.9-59.937s-9.259-29.556,7.786-40.33c11.668-7.374,51.054-19.093,64.5-22.233,49.47-11.56,98.989-22.965,148.85-32.7,67.84-13.251,138.177-23.369,205.687-8.527,8.842,1.944,17.915,4.473,24.812,10.338,9.512,8.088,13.193,20.982,15.768,33.2,10.187,48.32,10.6,98.094,10.972,147.474.528,70.139,1.053,140.381-4.454,210.305-2.438,30.95-6.792,63.656-26.256,87.844-18.549,23.052-48.425,34.664-77.889,37.366s-59.018-2.493-88.151-7.668l-107.651-19.123" fill="#fff"></path>
    <path id="Path_125684" data-name="Path 125684" d="M5501.5,1510.455l-1.281-3.789a1015.081,1015.081,0,0,1,315.819-53.48l.039,4A1011.107,1011.107,0,0,0,5501.5,1510.455Z" fill="#6ad1e3"></path>
    <g id="Group_3181" data-name="Group 3181">
      <g id="Group_3180" data-name="Group 3180">
        <path id="Path_125685" data-name="Path 125685" d="M5611.9,1326.917a46.973,46.973,0,0,0-37.438-39c-38.5-7.538-80.1,21.854-62.878,63.3,16.347,39.322,76.715,43.765,95.934,4.563A48.072,48.072,0,0,0,5611.9,1326.917Z" fill="#f04e98" style="isolation: isolate"></path>
        <path id="Path_125686" data-name="Path 125686" d="M5605.177,1318.285a46.973,46.973,0,0,0-37.437-39c-38.5-7.538-80.105,21.855-62.878,63.3,16.346,39.322,76.715,43.766,95.934,4.564A48.063,48.063,0,0,0,5605.177,1318.285Z" fill="#6ad1e3" style="isolation: isolate"></path>
      </g>
      <rect id="Rectangle_3190" data-name="Rectangle 3190" width="52.45" height="4.487" transform="matrix(0.74, -0.672, 0.672, 0.74, 5526.243, 1331.913)" fill="#fff"></rect>
      <path id="Path_125687" data-name="Path 125687" d="M5570.173,1329.652a12.364,12.364,0,0,1-2.538-.308c-6.213-1.3-13.253-2.766-18.787-7.213a42.968,42.968,0,0,1-5.2-5.247,38.643,38.643,0,0,0-4.658-4.728l2.807-3.5a42.819,42.819,0,0,1,5.217,5.261,38.789,38.789,0,0,0,4.646,4.718c4.694,3.772,11.174,5.124,16.892,6.317,2.048.426,2.405.095,2.44.055a2.237,2.237,0,0,0,.26-1.063,17.072,17.072,0,0,0-4.837-13.44,22.3,22.3,0,0,0-13.423-6.43l.547-4.453a26.79,26.79,0,0,1,16.112,7.777,21.606,21.606,0,0,1,6.06,17.038,6.215,6.215,0,0,1-1.339,3.521A5.352,5.352,0,0,1,5570.173,1329.652Z" fill="#fff"></path>
      <path id="Path_125688" data-name="Path 125688" d="M5553.771,1345.275c-.263,0-.529-.006-.8-.022-3.428-.2-6.523-1.7-9.358-3.29a93.361,93.361,0,0,1-15.581-10.98l2.945-3.382a88.942,88.942,0,0,0,14.832,10.45c2.734,1.534,5.043,2.585,7.423,2.723,3.386.2,6.855-1.542,9.91-3.076a4.292,4.292,0,0,0,1.468-.973,3.585,3.585,0,0,0,.233-1.243,23.193,23.193,0,0,0-.728-7.458l4.336-1.15a27.637,27.637,0,0,1,.868,8.9,6.94,6.94,0,0,1-.873,3.277,7.508,7.508,0,0,1-3.29,2.657C5561.973,1343.307,5558.051,1345.275,5553.771,1345.275Z" fill="#fff"></path>
    </g>
    <g id="Group_3183" data-name="Group 3183">
      <g id="Group_3182" data-name="Group 3182">
        <path id="Path_125689" data-name="Path 125689" d="M5750.39,1435.946a46.971,46.971,0,0,0-52.085,14.475c-24.89,30.328-18.733,80.893,25.923,85.37,42.372,4.249,74.9-46.8,49.5-82.305A48.071,48.071,0,0,0,5750.39,1435.946Z" fill="#f04e98" style="isolation: isolate"></path>
        <path id="Path_125690" data-name="Path 125690" d="M5739.6,1437.776a46.973,46.973,0,0,0-52.085,14.476c-24.89,30.327-18.732,80.892,25.923,85.369,42.372,4.249,74.9-46.8,49.5-82.3A48.069,48.069,0,0,0,5739.6,1437.776Z" fill="#6ad1e3" style="isolation: isolate"></path>
      </g>
      <rect id="Rectangle_3191" data-name="Rectangle 3191" width="4.485" height="52.45" transform="translate(5701.554 1462.829) rotate(-13.927)" fill="#fff"></rect>
      <path id="Path_125691" data-name="Path 125691" d="M5702.825,1493.149l-1.75-4.13a42.636,42.636,0,0,1,7.107-2.1,38.869,38.869,0,0,0,6.354-1.855c5.548-2.344,9.81-7.41,13.57-11.878,1.345-1.6,1.224-2.072,1.206-2.121-.027-.071-.159-.284-.813-.734a17.074,17.074,0,0,0-14.128-2.112,22.3,22.3,0,0,0-12.024,8.77l-3.66-2.593a26.79,26.79,0,0,1,14.485-10.5,21.6,21.6,0,0,1,17.874,2.742,6.214,6.214,0,0,1,2.465,2.85c1.1,2.932-1.132,5.586-1.973,6.586-4.085,4.855-8.715,10.358-15.256,13.122a42.681,42.681,0,0,1-7.084,2.091A38.879,38.879,0,0,0,5702.825,1493.149Z" fill="#fff"></path>
      <path id="Path_125692" data-name="Path 125692" d="M5714.211,1511.717l-1.582-4.2a88.854,88.854,0,0,0,16.231-8.1c2.648-1.681,4.667-3.215,5.918-5.245,1.782-2.89,1.892-6.766,1.99-10.186a4.3,4.3,0,0,0-.162-1.752,3.559,3.559,0,0,0-.982-.793,23.182,23.182,0,0,0-6.912-2.895l1.041-4.363a27.616,27.616,0,0,1,8.249,3.455,6.938,6.938,0,0,1,2.47,2.32,7.531,7.531,0,0,1,.78,4.155c-.108,3.787-.243,8.5-2.655,12.412-1.8,2.923-4.588,4.938-7.332,6.679A93.4,93.4,0,0,1,5714.211,1511.717Z" fill="#fff"></path>
    </g>
    <g id="Group_3185" data-name="Group 3185">
      <g id="Group_3184" data-name="Group 3184">
        <path id="Path_125693" data-name="Path 125693" d="M5856.483,1261.687a46.976,46.976,0,0,0,49.134,22.545c38.583-7.112,66.5-49.717,35.274-81.95-29.632-30.584-87.421-12.572-90.919,30.947A48.067,48.067,0,0,0,5856.483,1261.687Z" fill="#f04e98" style="isolation: isolate"></path>
        <path id="Path_125694" data-name="Path 125694" d="M5865.907,1267.249a46.975,46.975,0,0,0,49.134,22.546c38.583-7.112,66.5-49.718,35.274-81.95-29.631-30.584-87.421-12.572-90.919,30.947A48.074,48.074,0,0,0,5865.907,1267.249Z" fill="#6ad1e3" style="isolation: isolate"></path>
      </g>
      <rect id="Rectangle_3192" data-name="Rectangle 3192" width="52.45" height="4.486" transform="matrix(0.442, -0.897, 0.897, 0.442, 5907.117, 1270.671)" fill="#fff"></rect>
      <path id="Path_125695" data-name="Path 125695" d="M5913.578,1266.6a25.431,25.431,0,0,1-10.626-2.255,21.6,21.6,0,0,1-11.887-13.626,6.2,6.2,0,0,1-.044-3.77c1.049-2.949,4.468-3.537,5.755-3.758,6.254-1.074,13.346-2.29,20.123-.182a43.055,43.055,0,0,1,6.761,2.972,38.746,38.746,0,0,0,6.069,2.69l-1.326,4.285a42.854,42.854,0,0,1-6.785-2.98,38.87,38.87,0,0,0-6.051-2.684c-5.749-1.787-12.274-.669-18.032.32-2.059.354-2.272.794-2.289.843a2.217,2.217,0,0,0,.148,1.084,17.07,17.07,0,0,0,9.431,10.73,22.311,22.311,0,0,0,14.846,1.058l1.123,4.342A28.82,28.82,0,0,1,5913.578,1266.6Z" fill="#fff"></path>
      <path id="Path_125696" data-name="Path 125696" d="M5896.919,1245.788a27.652,27.652,0,0,1-4.072-7.961,6.925,6.925,0,0,1-.389-3.37,7.506,7.506,0,0,1,2.086-3.677c2.523-2.821,5.664-6.334,10.034-7.768,3.263-1.072,6.693-.813,9.912-.371a93.369,93.369,0,0,1,18.522,4.5l-1.5,4.228a88.854,88.854,0,0,0-17.631-4.281c-3.1-.424-5.637-.555-7.906.188-3.227,1.06-5.811,3.95-8.09,6.5a4.278,4.278,0,0,0-1.008,1.443,3.536,3.536,0,0,0,.238,1.24,23.21,23.21,0,0,0,3.413,6.674Z" fill="#fff"></path>
    </g>
    <path id="Path_125697" data-name="Path 125697" d="M5445.792,1440.405c3.558,21.917,29.54,31.093,51.292,35.547a1736.809,1736.809,0,0,0,346.274,35.284c26.175.028,56.766.227,78.872,16.358,32,23.353,25.628,71.151,26.206,105.548q1.094,65.019,4.227,129.983c1.788,37.051,6.048,77.887-14.585,110.888-22.531,36.036-69.7,46.534-112.017,50.465-112.5,10.448-247.491-27.331-354.639-63.169-13.945-4.664-28.35-10.086-38.241-20.968-13.616-14.98-15.753-36.812-17.217-57q-6.126-84.492-12.253-168.985l-6.84-94.333c-1.788-24.655-3.463-50.18,5.012-73.4s38.06-47.777,62.191-50.138c-2.922,4.688-28.59,17.574-18.282,43.924" fill="#f04e98" style="isolation: isolate"></path>
    <path id="Path_125698" data-name="Path 125698" d="M5412.359,1490.832l-3.773-2.426a42.482,42.482,0,0,1,19.854-16.363l1.661,4.168A37.947,37.947,0,0,0,5412.359,1490.832Z" fill="#f04e98"></path>
    <path id="Path_125699" data-name="Path 125699" d="M5415.926,1522.645l-3.836-2.325a98.867,98.867,0,0,1,38.592-36.294l2.086,3.971A94.374,94.374,0,0,0,5415.926,1522.645Z" fill="#f04e98"></path>
    <path id="Path_125700" data-name="Path 125700" d="M5425.319,1557.231l-3.486-2.822a248.7,248.7,0,0,1,53.342-49.1l2.525,3.707A244.265,244.265,0,0,0,5425.319,1557.231Z" fill="#f04e98"></path>
    <path id="Path_125701" data-name="Path 125701" d="M5470.614,1558.515c-18.535-26.849-38.45-53.23-59.193-78.411l3.463-2.851c20.822,25.277,40.815,51.761,59.422,78.713Z" fill="#f04e98"></path>
    <path id="Path_125702" data-name="Path 125702" d="M5480.9,1531.351a327.967,327.967,0,0,0-26.842-38.392l3.482-2.828a332.322,332.322,0,0,1,27.211,38.919Z" fill="#f04e98"></path>
    <rect id="Rectangle_3193" data-name="Rectangle 3193" width="4.486" height="10.071" transform="matrix(0.302, -0.953, 0.953, 0.302, 5485.189, 1497.982)" fill="#f04e98"></rect>
    <path id="Path_125703" data-name="Path 125703" d="M5443.934,1582.851q-1.515,0-3.016-.138l.41-4.467a29.2,29.2,0,0,0,10.954-1.1l1.289,4.3A33.713,33.713,0,0,1,5443.934,1582.851Z" fill="#f04e98"></path>
    <path id="Path_125704" data-name="Path 125704" d="M5501.5,1458.306l-1.281-3.789a1015.082,1015.082,0,0,1,315.819-53.481l.039,4A1011.1,1011.1,0,0,0,5501.5,1458.306Z" fill="#6ad1e3"></path>
    <path id="Path_125705" data-name="Path 125705" d="M5808.619,1885.031l41.87-43.94,11.888-12.477c2.664-2.8-1.572-7.045-4.242-4.242l-41.87,43.94-11.888,12.477c-2.664,2.8,1.572,7.044,4.242,4.242Z" fill="#6ad1e3"></path>
    <path id="Path_125706" data-name="Path 125706" d="M5843.379,1894.6l35.6-45.137,10.216-12.953a3.1,3.1,0,0,0,0-4.243c-1.042-1.041-3.234-1.279-4.243,0l-35.6,45.138-10.215,12.952a3.1,3.1,0,0,0,0,4.243c1.041,1.041,3.234,1.279,4.243,0Z" fill="#6ad1e3"></path>
    <path id="Path_125707" data-name="Path 125707" d="M5877.907,1894.52a441.089,441.089,0,0,0,30.509-38.264,3.024,3.024,0,0,0-1.077-4.1,3.063,3.063,0,0,0-4.1,1.076,426.912,426.912,0,0,1-29.57,37.049,3.069,3.069,0,0,0,0,4.243,3.03,3.03,0,0,0,4.242,0Z" fill="#6ad1e3"></path>
    <path id="Path_125708" data-name="Path 125708" d="M5851.249,1814.06a206.452,206.452,0,0,1,38.976,33.695q4.931,5.474,9.463,11.285c1,1.278,3.2,1.048,4.243,0a3.076,3.076,0,0,0,0-4.242,211.208,211.208,0,0,0-37.378-37.107q-5.984-4.618-12.276-8.812a3,3,0,0,0-3.028,5.181Z" fill="#6ad1e3"></path>
    <path id="Path_125709" data-name="Path 125709" d="M5876.335,1791.764l35.985,52.08a3.078,3.078,0,0,0,4.1,1.076,3.028,3.028,0,0,0,1.076-4.105l-35.985-52.08a3.078,3.078,0,0,0-4.1-1.076,3.028,3.028,0,0,0-1.076,4.1Z" fill="#6ad1e3"></path>
    <path id="Path_125710" data-name="Path 125710" d="M5815.767,1839.241l44.993,39.673,12.748,11.241a3.073,3.073,0,0,0,4.243,0,3.029,3.029,0,0,0,0-4.243l-44.993-39.673L5820.01,1835a3.072,3.072,0,0,0-4.243,0,3.029,3.029,0,0,0,0,4.243Z" fill="#6ad1e3"></path>
    <path id="Path_125711" data-name="Path 125711" d="M5763.215,1874.232,5774.3,1861.7a3,3,0,1,0-4.243-4.242l-11.08,12.533a3,3,0,0,0,4.242,4.243Z" fill="#6ad1e3"></path>
    <path id="Path_125712" data-name="Path 125712" d="M5808.2,1804.2h11.016a3,3,0,0,0,0-6H5808.2a3,3,0,0,0,0,6Z" fill="#6ad1e3"></path>
    <path id="Path_125713" data-name="Path 125713" d="M5790.153,1910.921a18.134,18.134,0,0,0,18.631-5.278,3,3,0,0,0-4.243-4.242,14.61,14.61,0,0,1-1.457,1.473c-.181.157-.819.6-.291.25-.287.19-.562.4-.854.584-.589.373-1.205.667-1.822.986-.379.2.479-.18.08-.029-.179.068-.357.141-.538.206q-.489.176-.988.319a14.464,14.464,0,0,1-1.914.421c0,.015.68-.075,0-.006-.153.016-.306.029-.459.04-.345.024-.69.037-1.036.037s-.69-.011-1.035-.035q-.23-.016-.458-.039c-.086-.009-.586-.1-.172-.017.459.09-.19-.041-.283-.058-.15-.03-.3-.061-.45-.095-.376-.085-.745-.189-1.113-.3a3.029,3.029,0,0,0-3.69,2.1,3.062,3.062,0,0,0,2.095,3.69Z" fill="#6ad1e3"></path>
    <path id="Path_125714" data-name="Path 125714" d="M5840.485,1774.251a62.866,62.866,0,0,0,19.582-6.677,3.027,3.027,0,0,0,1.076-4.1,3.066,3.066,0,0,0-4.1-1.076,57.607,57.607,0,0,1-18.148,6.073,3.01,3.01,0,0,0-2.1,3.69,3.087,3.087,0,0,0,3.69,2.095Z" fill="#6ad1e3"></path>
    <path id="Path_125715" data-name="Path 125715" d="M5905.228,1746.665l1.574,1.574a3.085,3.085,0,0,0,4.242,0l.47-.607a2.993,2.993,0,0,0,.409-1.514l-.107-.8a3.007,3.007,0,0,0-.772-1.324l-1.573-1.573a3.084,3.084,0,0,0-4.243,0l-.469.607a2.991,2.991,0,0,0-.41,1.514l.108.8a2.984,2.984,0,0,0,.771,1.324Z" fill="#6ad1e3"></path>
    <path id="Path_125716" data-name="Path 125716" d="M5671.284,1854.624a58.123,58.123,0,0,0,28.262-6.783,3,3,0,0,0-3.028-5.181,51.791,51.791,0,0,1-25.234,5.964c-3.862-.074-3.862,5.926,0,6Z" fill="#6ad1e3"></path>
    <path id="Path_125717" data-name="Path 125717" d="M5533.506,1117a9,9,0,0,1,2.21-3.231,13.446,13.446,0,0,1,3.211-2.05,16.1,16.1,0,0,1,2.251-.706,10.381,10.381,0,0,1,2.194-.337,17.792,17.792,0,0,1,2.4.009c.212.015.425.034.637.058-.069-.008-.361-.055-.006,0,.473.07.942.166,1.406.279,7.166,1.754,12.041,8.75,15.026,15.347,7.075,15.635,6.856,34.436.481,50.291-1.379,3.429-3.047,7.223-5.649,9.814a5.935,5.935,0,0,1-3.708,1.948,4.852,4.852,0,0,1-3.744-1.781,6.843,6.843,0,0,1-1.779-4.078,13.113,13.113,0,0,1,1.095-6.137,24.075,24.075,0,0,1,2.74-4.815,27.826,27.826,0,0,1,3.025-3.416,30.88,30.88,0,0,1,16.722-7.932,6.3,6.3,0,0,1,.773-.1c.368-.039.735-.077,1.1-.106q1.34-.107,2.686-.111,1.184,0,2.365.075c.367.024.733.055,1.1.091q.313.031.626.069a1.391,1.391,0,0,1,.293.041,27.9,27.9,0,0,1,8.922,2.859c13.349,7.125,17.725,23.661,19.314,37.606.217,1.91.391,3.826.538,5.743a3.074,3.074,0,0,0,3,3,3.024,3.024,0,0,0,3-3c-1.3-17.079-5.1-36.64-20.262-46.98-12.91-8.806-31.357-6.594-43.025,3.25-6.656,5.615-12.713,15.813-8.874,24.571,1.864,4.253,6.291,7.62,11.089,7.1,4.923-.538,8.424-4.31,10.8-8.385,4.958-8.517,7.592-18.532,8.4-28.3a70.13,70.13,0,0,0-3.747-29.157c-3.064-8.573-8.061-17.531-16.557-21.715-7.215-3.553-17.071-2.8-22.718,3.367a15.336,15.336,0,0,0-3.117,5.233,3.028,3.028,0,0,0,2.1,3.691,3.063,3.063,0,0,0,3.69-2.1Z" fill="#6ad1e3"></path>
    <path id="Path_125718" data-name="Path 125718" d="M5675.2,1106.756q5.47,24.775,9.655,49.811,4.131,24.75,6.967,49.691,1.617,14.25,2.814,28.542a3.078,3.078,0,0,0,3,3,3.024,3.024,0,0,0,3-3q-2.146-25.563-5.624-50.988-3.442-25.26-8.2-50.318-2.7-14.208-5.823-28.333a3,3,0,0,0-5.785,1.595Z" fill="#6ad1e3"></path>
    <path id="Path_125719" data-name="Path 125719" d="M5757.526,1130.37a168.836,168.836,0,0,1,1.54,56q-1.134,7.989-3.015,15.843c-.9,3.754,4.889,5.355,5.785,1.595a175.717,175.717,0,0,0,3.959-58.288q-.852-8.426-2.483-16.749a3.03,3.03,0,0,0-3.69-2.1,3.063,3.063,0,0,0-2.1,3.691Z" fill="#6ad1e3"></path>
    <path id="Path_125720" data-name="Path 125720" d="M5415.98,1233.778a77.2,77.2,0,0,1,35.192,16.537,3.082,3.082,0,0,0,4.242,0,3.025,3.025,0,0,0,0-4.243,83.19,83.19,0,0,0-37.839-18.08,3.081,3.081,0,0,0-3.69,2.1,3.028,3.028,0,0,0,2.1,3.691Z" fill="#6ad1e3"></path>
    <path id="Path_125721" data-name="Path 125721" d="M5391.885,1317.245l31.691,15.067a3.082,3.082,0,0,0,4.1-1.076,3.026,3.026,0,0,0-1.076-4.1l-31.691-15.068a3.083,3.083,0,0,0-4.1,1.077,3.026,3.026,0,0,0,1.076,4.1Z" fill="#6ad1e3"></path>
    <path id="Path_125722" data-name="Path 125722" d="M5794.675,1238.272c-16.037,6.243-26.459,21.837-28.78,38.567a71.318,71.318,0,0,0,2.521,29.746c2.342,8,5.787,17.4,14.23,20.652,8.7,3.35,17.843-2.575,22.384-9.765a52.721,52.721,0,0,0,5.416-12.968c1.091-3.59,2.035-7.392,1.629-11.173-.455-4.231-2.688-8.031-6.973-9.292s-9.18.577-12.667,3.082c-6.8,4.887-10.455,12.73-13.145,20.427-3.377,9.661-5.862,19.938-4.214,30.2,1.292,8.043,5.756,15.853,12.617,20.385a23.538,23.538,0,0,0,5.539,2.633,3,3,0,0,0,1.6-5.786c-6.086-2.029-10.582-7.639-12.673-13.685-2.761-7.982-1.646-16.595.538-24.573,1.956-7.142,4.308-14.646,8.89-20.56a18.025,18.025,0,0,1,7.221-5.768,7.9,7.9,0,0,1,4.509-.62,3.6,3.6,0,0,1,.88.345,4.582,4.582,0,0,1,.388.246c.409.282-.261-.248.093.082.107.1.668.731.391.364a5.957,5.957,0,0,1,.585.992c-.2-.412.129.377.171.52a10.124,10.124,0,0,1,.247,1.034s.075.5.039.217c-.041-.327.024.325.027.389.025.432.04.863.035,1.3a17.337,17.337,0,0,1-.579,4.343,59.461,59.461,0,0,1-3.57,10.767c-2.8,6.2-8.295,12.65-15.568,11.705-2.727-.354-5.324-2.391-6.972-4.757a36.175,36.175,0,0,1-4.47-9.732,69.291,69.291,0,0,1-3.659-25.251c.76-14.427,7.8-28.794,20.5-36.126a33.343,33.343,0,0,1,4.422-2.152,3.091,3.091,0,0,0,2.1-3.691,3.023,3.023,0,0,0-3.691-2.095Z" fill="#6ad1e3"></path>
    <path id="Path_125723" data-name="Path 125723" d="M6136.616,1342.032c5.129-23.992,10.316-48.646,22.8-70.077,10.562-18.126,26.654-34.11,47.542-39.242a56.338,56.338,0,0,1,30.527.758,45.765,45.765,0,0,1,23.375,17.427c12.549,17.907,14.657,41.519,14.438,62.742q-.1,9.91-1.166,19.779a113.916,113.916,0,0,1-3.012,18.184c-1.4,5.038-3.974,9.3-8.781,11.664-4.275,2.1-9.364,2.322-14.036,2.184-11.476-.337-23.09-2.376-34.354-4.483-11.62-2.173-23.13-4.92-34.5-8.165a470.986,470.986,0,0,1-67.052-25.091,709.019,709.019,0,0,1-63.842-33.644c-20.752-12.217-40.833-25.427-60.975-38.609-9.122-5.97-20.006-11.145-30.841-6.528-4.434,1.89-8.285,5.435-9.705,10.148-1.365,4.533.19,9.526,3.171,13.056a11.438,11.438,0,0,0,11.868,3.949,3.044,3.044,0,0,0,2.095-3.69c-2.969-10.253-14.343-15.929-24.508-14-10.979,2.084-16.219,13.441-14.164,23.727a19.721,19.721,0,0,0,9.721,13.566,2.994,2.994,0,0,0,3.028,0c4.6-3.2,4.9-9.533,1.621-13.845-3.752-4.937-10.814-4.776-15.578-1.391-5.729,4.07-7.448,11.036-7.271,17.748a71.293,71.293,0,0,0,3.469,19.464c8,25.273,27,45.571,45.607,63.661a453.942,453.942,0,0,0,204.446,114.09q4.719,1.187,9.462,2.267c3.759.859,5.364-4.924,1.6-5.786a448.013,448.013,0,0,1-195.248-100q-13.827-12.171-26.61-25.476c-8.589-8.968-16.733-18.449-23.328-29-6.387-10.218-11.332-21.53-12.926-33.555-.712-5.364-1.437-12.647,2.534-17.006,2.5-2.748,8.155-4.725,9.792-.07.431,1.227.534,2.937-.593,3.721h3.028c-6.582-3.51-8.9-12.341-6.124-19.057,2.984-7.221,11.48-9.009,18.2-6.1a13.864,13.864,0,0,1,8.062,8.645l2.095-3.69c-3.554,1.032-6.591-2.166-7.559-5.354-1.206-3.974,1.005-7.562,4.4-9.61,9.629-5.814,20.425.778,28.536,6.162,20.231,13.43,40.623,26.6,61.584,38.872a698.034,698.034,0,0,0,64.5,33.7,476.032,476.032,0,0,0,67.712,25.032c11.482,3.22,23.109,5.931,34.846,8.051q9,1.625,18.066,2.783a145.823,145.823,0,0,0,16.812,1.543,36.12,36.12,0,0,0,15.308-2.71,21.014,21.014,0,0,0,10.614-11.035c2.4-5.554,3.187-11.7,4.007-17.645.924-6.7,1.555-13.431,1.831-20.187.908-22.2-.7-46.593-11.634-66.455a54.634,54.634,0,0,0-21.276-21.857,57.3,57.3,0,0,0-30.916-6.481c-22.2,1.409-41.269,14.08-54.646,31.339-14.857,19.169-22.367,42.519-27.833,65.846-1.414,6.032-2.711,12.09-4.006,18.148-.805,3.765,4.978,5.375,5.786,1.595Z" fill="#360484"></path>
    <path id="Path_125724" data-name="Path 125724" d="M6183.462,1224.325a67.286,67.286,0,0,0,22.423,43.288c4.363,3.81,9.513,7.787,15.131,9.478,5.956,1.793,12.468-.495,15.071-6.369a11.78,11.78,0,0,0-5.446-15.154c-3-1.5-7.057-1.844-9.016,1.438-1.606,2.691-.417,5.988.851,8.529,2.66,5.329,6.972,9.611,11.67,13.171,11.193,8.48,25.043,13.334,38.965,14.578a3.022,3.022,0,0,0,3-3,3.063,3.063,0,0,0-3-3,71.077,71.077,0,0,1-29.719-9.61,49.066,49.066,0,0,1-11.431-8.935,27.417,27.417,0,0,1-4.031-5.7,8.159,8.159,0,0,1-1.05-2.623c.093.531-.232-.87-.058-.287-.175-.587.224-.2-.016-.095.026-.011-.6.482-.593.371.017-.27,2.187.782,2.318.868a6.4,6.4,0,0,1,1.726,1.831,5.278,5.278,0,0,1,.476,4.978,6.544,6.544,0,0,1-3.209,3.27c-2.151.875-4.625.23-6.647-.694a46.65,46.65,0,0,1-11.46-7.918,61.31,61.31,0,0,1-19.955-38.415,3.087,3.087,0,0,0-3-3,3.021,3.021,0,0,0-3,3Z" fill="#360484"></path>
    <path id="Path_125725" data-name="Path 125725" d="M6190.634,1282.265a46.287,46.287,0,0,0-11.166-2.753,24.576,24.576,0,0,0-10.237.5,12.619,12.619,0,0,0-7.607,6.039,9.608,9.608,0,0,0,.219,9.656c3.718,5.828,11.174,7.575,17.618,7.918,5.719.3,13.064.6,17.514-3.652a9.947,9.947,0,0,0,2.431-10.385,10.087,10.087,0,0,0-8.892-6.5,3.026,3.026,0,0,0-3,3,3.06,3.06,0,0,0,3,3,3.951,3.951,0,0,1,3.283,2.62,4.068,4.068,0,0,1-1.261,4.217,9.967,9.967,0,0,1-5.481,1.656,60.783,60.783,0,0,1-7.192.062c-4.267-.191-9.086-.956-12.194-4.181a4.621,4.621,0,0,1-1.249-2.155,3.794,3.794,0,0,1,.385-2.229,6.617,6.617,0,0,1,4.424-3.4,20.946,20.946,0,0,1,8.366-.152,42.6,42.6,0,0,1,9.444,2.519,3.022,3.022,0,0,0,3.69-2.1,3.068,3.068,0,0,0-2.1-3.69Z" fill="#360484"></path>
    <path id="Path_125726" data-name="Path 125726" d="M6169.1,1282.348a19.268,19.268,0,0,0-2.761,3.876,8.875,8.875,0,0,0-.918,5.122,6.634,6.634,0,0,0,2.858,4.692,7.019,7.019,0,0,0,5.531.783,7.831,7.831,0,0,0,4.1-2.553,7.249,7.249,0,0,0,1.843-5.085,6.784,6.784,0,0,0-2.889-5.027,5.549,5.549,0,0,0-8.72,3.237,5.28,5.28,0,0,0,1.479,5.278,3.044,3.044,0,0,0,4.712-.607l.576-.771-.469.607a2.714,2.714,0,0,1,.486-.5l-.607.469a.941.941,0,0,1,.232-.122l-.716.3.121-.03-.8.107.125,0-.8-.107.127.024-.716-.3.072.033-.608-.469.055.048-.469-.607.04.059-.3-.716a.383.383,0,0,1,.037.143l-.108-.8v.077l.107-.8a.6.6,0,0,1-.033.153l.3-.717a.571.571,0,0,1-.067.131l.469-.607-.043.05.607-.47-.049.036.717-.3-.052.019.8-.108h-.055l1.514.41-.056-.024.607.469-.056-.049a3.173,3.173,0,0,0-2.121-.879,3,3,0,0,0-2.122,5.121,3.259,3.259,0,0,0,2.687.9,3.213,3.213,0,0,0,2.336-1.537,3.456,3.456,0,0,0-.21-3.9,3.514,3.514,0,0,0-4.6-.723,7.868,7.868,0,0,0-2.139,2.348l4.711-.607a2.4,2.4,0,0,1-.352-.35l.469.607a2.41,2.41,0,0,1-.244-.414l.3.717a2.632,2.632,0,0,1-.158-.556l.107.8a3.056,3.056,0,0,1,0-.79l-.108.8a3.491,3.491,0,0,1,.222-.778l-.3.716a3.427,3.427,0,0,1,.358-.613l-.469.607a2.985,2.985,0,0,1,.493-.5l-.607.469a2.648,2.648,0,0,1,.52-.3l-.717.3a2.726,2.726,0,0,1,.54-.143l-.8.107a3.113,3.113,0,0,1,.746,0l-.8-.107a3.521,3.521,0,0,1,.717.2l-.716-.3a3.965,3.965,0,0,1,.764.442l-.607-.469a4.241,4.241,0,0,1,.721.728l-.469-.607a4.14,4.14,0,0,1,.447.779l-.3-.717a3.714,3.714,0,0,1,.229.865l-.107-.8a4.206,4.206,0,0,1-.017.924l.107-.8a4.645,4.645,0,0,1-.287,1.016l.3-.717a5.2,5.2,0,0,1-.612,1.034l.469-.607a5.734,5.734,0,0,1-.961.95l.607-.469a5.689,5.689,0,0,1-1.048.615l.716-.3a5.439,5.439,0,0,1-1.361.372l.8-.107a5.022,5.022,0,0,1-1.123,0l.8.107a4.247,4.247,0,0,1-.934-.248l.717.3a3.783,3.783,0,0,1-.718-.416l.608.469a3.751,3.751,0,0,1-.545-.539l.469.607a4.054,4.054,0,0,1-.454-.761l.3.717a4.709,4.709,0,0,1-.313-1.117l.107.8a5.557,5.557,0,0,1,0-1.446l-.107.8a6.372,6.372,0,0,1,.432-1.486l-.3.717a11.611,11.611,0,0,1,1.445-2.346l-.469.607c.316-.407.644-.8.974-1.2a3.22,3.22,0,0,0,.878-2.122,3.054,3.054,0,0,0-.878-2.121c-1.109-1.017-3.17-1.287-4.243,0Z" fill="#360484"></path>
    <path id="Path_125727" data-name="Path 125727" d="M6179.257,1320.035a53.262,53.262,0,0,0,29.08-9.884,3.086,3.086,0,0,0,1.077-4.1,3.024,3.024,0,0,0-4.1-1.076,47.633,47.633,0,0,1-26.052,9.064,3,3,0,0,0,0,6Z" fill="#360484"></path>
    <path id="Path_125728" data-name="Path 125728" d="M6096.208,1474.222c-19.367,8.2-38.775,16.827-55.425,29.9-16.181,12.7-28.256,29.743-36.675,48.4a193.169,193.169,0,0,0-10.456,29.4,136.346,136.346,0,0,0-5.055,33.6,81.938,81.938,0,0,0,5.6,31.825,80.706,80.706,0,0,0,14.427,23.044c12.163,13.742,28.426,23.552,45.579,29.76,21.017,7.607,43.728,9.589,65.922,10.1,11.6.268,23.2.119,34.795.1,2.119,0,4.537-.234,6.542.613,1.792.757,2.315,2.409,2.645,4.179.373,1.995.315,4.138.54,6.189a22.054,22.054,0,0,0,1.465,6.058c3.265,7.957,10.778,13.535,19.017,15.562,8.838,2.174,18.014-.049,25.406-5.223,7.821-5.476,13.464-13.379,17.06-22.15,4.273-10.421,5.563-21.784,6.47-32.921.848-10.4,2.244-21.678-1.5-31.7-3.221-8.616-10.541-15.29-19.887-16.336a16.064,16.064,0,0,0-11.437,2.976,3.048,3.048,0,0,0-1.228,3.747,3.013,3.013,0,0,0,3.539,1.737c25.843-6.595,51.117-19.954,67.168-41.793a72.19,72.19,0,0,0,13.682-33.914,70.157,70.157,0,0,0-4.027-33.936c-4.71-12.071-13.007-22.6-24.547-28.766-3.405-1.819-6.439,3.359-3.029,5.181,19.234,10.274,27.5,32.877,25.967,53.867a65.279,65.279,0,0,1-10.841,31.112,89.9,89.9,0,0,1-26.434,25.573,132.8,132.8,0,0,1-39.534,16.89l2.312,5.483a10.926,10.926,0,0,1,9.372-1.96,18.308,18.308,0,0,1,9.154,5.243c6.51,6.76,6.493,17.635,6.008,26.45-.576,10.455-1.288,21.118-3.752,31.322-2.179,9.024-5.985,17.672-12.535,24.387-5.606,5.747-13.236,9.914-21.256,9.6-6.963-.276-14.4-3.922-18.178-9.905-2.069-3.282-2.443-6.538-2.714-10.4-.322-4.564-1.366-9.509-5.875-11.735a17,17,0,0,0-7.384-1.43c-2.761-.038-5.524.006-8.284.018-5.58.023-11.16.055-16.74.033-22.08-.087-44.391-.988-65.823-6.757-16.751-4.509-32.889-12.381-45.89-23.983-13.369-11.928-22.617-27.548-25.052-45.439-2.843-20.878,2.4-42.454,9.6-61.954,6.684-18.109,16.4-35.405,30.142-49.11,14.24-14.2,32.29-23.694,50.482-31.832,4.54-2.031,9.115-3.986,13.7-5.925,1.492-.632,1.819-2.834,1.076-4.1a3.081,3.081,0,0,0-4.1-1.076Z" fill="#360484"></path>
    <path id="Path_125729" data-name="Path 125729" d="M6125.082,1710.954a147.5,147.5,0,0,0,37.09,67.222c5.42,5.6,11.233,10.93,16.013,17.094,4.44,5.724,7.911,12.269,7.614,19.4-.312,7.5-5.022,14.531-6.188,22.084-.6,3.9-.335,7.914,1.827,11.332a16.279,16.279,0,0,0,9.7,6.769,40.819,40.819,0,0,0,12.243,1.021,84.116,84.116,0,0,0,12.948-1.512c17.086-3.311,32.815-11.768,47.018-21.566,15.34-10.583,29.578-22.827,43.6-35.068q11.113-9.7,21.914-19.747,5.357-4.983,10.632-10.049a113.827,113.827,0,0,0,9.213-9.5c5.486-6.652,9.562-15.007,6.746-23.733-1.343-4.161-3.823-7.762-6.451-11.2-2.653-3.475-5.3-6.945-7.838-10.507a285.942,285.942,0,0,1-26.649-46,282.228,282.228,0,0,1-17.505-49.827q-1.572-6.3-2.854-12.665a3,3,0,1,0-5.786,1.595,285.825,285.825,0,0,0,14.922,49.9,291.372,291.372,0,0,0,23.78,46.724q6.979,11.078,14.957,21.48c2.529,3.295,5.2,6.566,6.965,10.354a14.578,14.578,0,0,1,.711,10.559c-2.324,7.635-9.059,13.4-14.626,18.747q-10.383,9.965-21.071,19.6c-13.848,12.489-27.972,24.82-42.771,36.178-13.364,10.256-27.743,19.861-43.745,25.46a82.235,82.235,0,0,1-23.9,4.77,34.619,34.619,0,0,1-11.208-.9,11.714,11.714,0,0,1-4.013-1.966,9.682,9.682,0,0,1-1.449-1.495,9.475,9.475,0,0,1-.741-1.211,4.022,4.022,0,0,1-.372-.846c-1.025-3.059-.394-6.084.6-9.379,1.13-3.746,2.691-7.344,3.849-11.081a29.615,29.615,0,0,0,1.461-11.52,32.178,32.178,0,0,0-3.147-10.946c-3.359-7.012-8.765-12.949-14.135-18.477-5.614-5.78-11.369-11.361-16.439-17.643a140.814,140.814,0,0,1-23.7-43.231q-1.967-5.83-3.424-11.814c-.918-3.749-6.705-2.162-5.786,1.595Z" fill="#360484"></path>
    <path id="Path_125730" data-name="Path 125730" d="M6143.55,1276.66q-29.818-19.65-61-37.107c-10.012-5.6-20.1-11.561-31.033-15.195a52.7,52.7,0,0,0-16.5-2.893c-2.565,0-5.52.027-7.925,1-3.048,1.23-4.185,3.9-4.443,7a22.317,22.317,0,0,0,3.359,13.589,14.211,14.211,0,0,0,4.98,4.857,11.322,11.322,0,0,0,7.241,1.125,2.876,2.876,0,0,0,2.1-2.1,10.71,10.71,0,0,0-1.439-7.579,14.976,14.976,0,0,0-5.515-4.925,24.471,24.471,0,0,0-15.562-2.259c-5.163.8-10.586,3.061-14.026,7.128a13.505,13.505,0,0,0-2.333,15.127c2.288,5.216,7.89,9.191,13.7,7.365a3,3,0,0,0,2.1-2.095,10.407,10.407,0,0,0-4.6-10.658c-3.162-2.208-7.632-2.669-10.91-.438-5.979,4.07-5.785,14.482.862,17.84a3.073,3.073,0,0,0,4.1-1.077,3.029,3.029,0,0,0-1.076-4.1c-.246-.125-.478-.263-.714-.4-.636-.379.285.324-.227-.2-.042-.043-.616-.682-.229-.188a5.455,5.455,0,0,1-.434-.667c-.068-.118-.393-.823-.159-.249-.085-.208-.154-.423-.219-.638-.078-.262-.128-.527-.193-.792-.082-.334,0,.424-.023-.149a11.022,11.022,0,0,1,.02-1.641c-.07.66.058-.2.077-.278.063-.265.15-.518.226-.779.168-.579-.217.287.119-.27.114-.19.22-.385.333-.576.071-.112.145-.222.224-.329q-.258.335-.051.095a7.772,7.772,0,0,1,.571-.555c.224-.188-.315.137.155-.082.033-.016.748-.359.352-.2a2.1,2.1,0,0,1,1.323-.235,4.524,4.524,0,0,1,2.445.837,5.444,5.444,0,0,1,1.829,1.974c.424.741-.08-.39.2.41a5.8,5.8,0,0,1,.239.888c-.075-.42-.006.1,0,.27a4.48,4.48,0,0,1-.009.465c.054-.278.044-.232-.029.139l2.095-2.095c-.24.075-.484.131-.725.2-.472.138.414-.019-.064.028a6.165,6.165,0,0,1-1.267-.006c.574.064-.368-.113-.561-.173.033.011-.8-.314-.424-.146.264.118-.433-.244-.52-.3-.164-.1-.323-.2-.482-.306-.445-.292.5.448-.2-.143a10.783,10.783,0,0,1-.852-.813,7.354,7.354,0,0,1-1.365-1.981,7.671,7.671,0,0,1,.72-8.572c2.467-3.174,6.108-4.724,10.026-5.556a19.046,19.046,0,0,1,11.034.682,11.94,11.94,0,0,1,4.344,2.839c.128.14.257.284.376.432-.344-.431.128.207.189.3.123.2.233.4.342.6s.223.567.086.165c.074.219.145.436.2.659.026.1.148.884.12.563-.025-.281-.072,1.405.006.85l2.095-2.095c.449-.064-.486,0-.681,0s-.381-.015-.569-.034c.58.058-.017-.012-.165-.054-.168-.047-.992-.3-.816-.231.328.132-.194-.1-.265-.134-.2-.11-.4-.219-.6-.341-.157-.1-.312-.2-.463-.31.4.282.013.009-.057-.052a11.6,11.6,0,0,1-.93-.9c-.133-.144-.262-.292-.388-.441-.32-.378.216.306-.082-.1-.271-.368-.521-.753-.755-1.146a16.694,16.694,0,0,1-2.24-9.7c.116-1.851.588-1.937,2.387-2.127a39.523,39.523,0,0,1,7.542-.052,53.881,53.881,0,0,1,14.345,3.585c9.805,3.727,18.968,9.227,28.088,14.35q14.258,8.008,28.241,16.489,15.833,9.6,31.294,19.8a3,3,0,0,0,3.029-5.181Z" fill="#360484"></path>
  </g>
</svg>
