<?xml version="1.0" encoding="UTF-8"?>
<svg xmlns="http://www.w3.org/2000/svg" width="959.998" height="914.771" viewBox="0 0 959.998 914.771">
  <g id="Group_3200" data-name="Group 3200" transform="translate(-5091.582 -3307.342)">
    <path id="Path_125952" data-name="Path 125952" d="M5498.981,4053.436c-75.834-58.68-158.607-116.449-253.915-126.962-20.694-2.283-41.972-2.211-61.929,3.721-31.8,9.451-57.382,32.746-80.748,56.292-4.157,4.188-8.423,8.637-10.155,14.278s-.032,12.8,5.287,15.358c11.6,5.575,22.207-14.326,34.891-12.131,7.2,1.247,11.05,8.928,14.267,15.493,27.3,55.713,86.952,91.249,148.433,99.573s124.249-7.732,180.258-34.418c10.745-5.119,22.883-13.17,22.383-25.061" fill="#fff" style="isolation: isolate"></path>
    <path id="Path_125953" data-name="Path 125953" d="M5507.795,4084.127c-24.523,14.418-55.3,9.909-83.315,4.948-27.013-4.783-54.245-9.628-79.731-19.778-51.986-20.705-93.765-62.867-120.433-112.06s-39.121-105.1-43.262-160.9c-1.008-13.581,2-31.727,15.512-33.4,10.983-1.357,18.76,9.85,27.717,16.35,9,6.529,20.366,8.557,31.163,11.206,42.876,10.516,81.685,33.075,119.523,55.819,28.6,17.192,57.565,35.095,79.1,60.589,41.207,48.787,48.861,117.365,47.312,181.207" fill="#fff" style="isolation: isolate"></path>
    <path id="Path_125954" data-name="Path 125954" d="M5537.563,4098.152c-24.852.538-43.972-21.233-57.524-42.073-29.783-45.8-51.791-98.673-50.615-153.291,1.59-73.844,44.963-140.556,95.745-194.191,9.373-9.9,20.81-20.235,34.423-19.5,11.973.647,21.9,10.048,27.466,20.665s7.846,22.6,11.668,33.965c7.912,23.524,22.366,44.181,34.123,66.038a312.837,312.837,0,0,1,32.64,94.461c2.366,13.629,3.827,27.514,2.648,41.3-3.737,43.719-32.921,80.482-60.859,114.316-9.209,11.152-18.643,22.5-30.913,30.161s-28.1,11.113-41.359,5.347" fill="#fff" style="isolation: isolate"></path>
    <path id="Path_125955" data-name="Path 125955" d="M5579.606,4092.014c7.07-74.667,15.548-153.241,59.274-214.176,44.481-61.989,118.431-95.463,191.317-118.019,9.667-2.991,19.806-5.87,29.773-4.125s19.624,9.569,19.988,19.681c.669,18.539-26.75,26.733-30.006,45-.96,5.38.392,10.866,1.5,16.218,9.357,45.263,1.042,93.346-19.692,134.655s-53.387,76.019-91.276,102.491c-24.968,17.444-52.985,31.718-83.2,35.528s-62.929-4.068-84.4-25.675" fill="#fff" style="isolation: isolate"></path>
    <path id="Path_125956" data-name="Path 125956" d="M5683.8,4091.507a259.213,259.213,0,0,1,293.78-164.153c26.4,5.267,53.741,16.028,68.521,38.525,3.591,5.466,6.4,11.984,5.193,18.412-2.061,10.992-14.575,16.628-25.7,17.753s-22.9-.31-33.049,4.381c-22.088,10.207-23.224,41.154-37.734,60.688-12.132,16.333-32.779,23.462-52.191,29.554-47.031,14.761-95.192,28.78-144.482,28.407s-100.628-17.087-132.465-54.718" fill="#fff" style="isolation: isolate"></path>
    <path id="Path_125957" data-name="Path 125957" d="M5661.975,4037.233c-73.825-24.426-154.721-41.208-228.621-17.011-17.48,5.723-34.574,13.906-47.6,26.891s-21.55,31.352-19.544,49.636c3.243,29.567,30.964,49.385,56.111,65.272,31.133,19.669,62.585,39.5,97.254,51.914,12.495,4.476,25.511,7.985,38.781,8.17,12.836.18,25.541-2.76,37.711-6.845a204.781,204.781,0,0,0,114.766-97.678c4.109-7.809,7.776-16.19,7.837-25.013.158-23.079-22.854-38.555-43.11-49.616" fill="#fff" style="isolation: isolate"></path>
    <path id="Path_125958" data-name="Path 125958" d="M5476.386,3506.873a119.535,119.535,0,0,1,16.342-50.9c8.62-14.528,20.527-28.4,36.216-35.447a42.569,42.569,0,0,1,23.077-3.5,50.564,50.564,0,0,1,22.09,9.219,63.252,63.252,0,0,1,16.2,16.961,115.314,115.314,0,0,1,9.335,18.423,269.158,269.158,0,0,1,14.019,44.15q.5,2.206.932,4.427a3.031,3.031,0,0,0,3.691,2.1,3.062,3.062,0,0,0,2.1-3.691,259.051,259.051,0,0,0-13.36-44.639,150.031,150.031,0,0,0-9.8-20.977,70.358,70.358,0,0,0-15.8-18.635,59.927,59.927,0,0,0-23.007-12.148,47.621,47.621,0,0,0-25.995.625c-17.429,5.418-31.04,19.258-41.027,34.024a125.027,125.027,0,0,0-20.2,52.687c-.335,2.435-.615,4.875-.818,7.325a3.024,3.024,0,0,0,3,3,3.061,3.061,0,0,0,3-3Z" fill="#360484"></path>
    <path id="Path_125959" data-name="Path 125959" d="M5345.176,3600.888q-14.65-37.8-29.614-75.486-3.729-9.389-7.477-18.768c-2.262-5.661-4.272-11.531-7.011-16.984-2.252-4.481-5.5-8.755-10.376-10.5a12.552,12.552,0,0,0-12.085,2.079c-3.51,2.806-5.519,7.235-6.611,11.5a38.267,38.267,0,0,0-.707,15.031c.347,2.384,3.534,2.681,5.014,1.324,6.1-5.584,2.882-15.08-3.018-19.382-7.08-5.162-16.14-1.056-20.236,5.828a20.758,20.758,0,0,0-2.57,13.955c.307,1.927,2.9,2.713,4.407,1.793,6.01-3.66,5.41-12.663.45-17-6.413-5.6-15.709-1.779-20.3,4.214-5.6,7.312-5.143,17.617-5.583,26.345-.5,9.973-.98,19.948-1.292,29.929-.62,19.825-.6,39.706,1.156,59.477a269.5,269.5,0,0,0,9.648,52.8,192.955,192.955,0,0,0,20.568,46.821c8.854,14.3,19.892,27.451,33.338,37.631,13.152,9.958,28.854,16.38,45.481,16.6,16.424.219,32.609-5.191,46.573-13.615,14.628-8.824,26.644-21.023,36.7-34.736,10.315-14.067,18.451-29.582,26-45.261q2.8-5.812,5.525-11.661a3.086,3.086,0,0,0-1.077-4.1,3.025,3.025,0,0,0-4.1,1.076c-7.058,15.063-14.248,30.12-23.023,44.276-8.509,13.726-18.6,26.669-31.178,36.907-11.844,9.641-25.963,16.876-41,19.817a67.1,67.1,0,0,1-43.6-6.1c-13.947-7.129-25.512-18.158-35.113-30.4a165.438,165.438,0,0,1-23.3-41.379,230.3,230.3,0,0,1-12.7-46.825c-3.028-18.251-4.1-36.792-4.241-55.274-.145-19.043.737-38.075,1.7-57.088.37-7.31-.269-17,5.216-22.717,2.061-2.147,5.1-3.9,8.148-3.418a5.773,5.773,0,0,1,4.287,6.634,2.362,2.362,0,0,1-1.3,1.864l4.407,1.793c-.988-6.2,3.474-15.043,10.5-14.552.372.033.415.037.13.01.2.037.405.082.6.133.109.028,1.134.373.744.21a8.5,8.5,0,0,1,1.1.578c.1.062.951.652.675.435a9.129,9.129,0,0,1,2.848,3.585,7.538,7.538,0,0,1,.719,3.758,9.76,9.76,0,0,1-.334,1.261,3.692,3.692,0,0,1-1.194,1.533l5.014,1.324c.059.4-.022-.137-.024-.182-.01-.219-.05-.445-.071-.665q-.064-.675-.1-1.354-.083-1.563-.025-3.129a27.97,27.97,0,0,1,.684-5.5c.2-.9.436-1.789.716-2.665a18.25,18.25,0,0,1,.911-2.371,18.847,18.847,0,0,1,1.228-2.2,7.106,7.106,0,0,1,1.289-1.6,6.433,6.433,0,0,1,3.177-1.912c.183-.046.367-.085.551-.123.478-.1-.438.032.057-.013a10.1,10.1,0,0,1,1.191-.035,6.3,6.3,0,0,1,2.421.5c3.608,1.453,5.817,5.569,7.419,9.025,2.431,5.241,4.381,10.741,6.523,16.1q3.486,8.73,6.955,17.465,6.99,17.6,13.91,35.232,7.792,19.849,15.5,39.733a3.089,3.089,0,0,0,3.69,2.1,3.024,3.024,0,0,0,2.1-3.691Z" fill="#360484"></path>
    <path id="Path_125960" data-name="Path 125960" d="M5344.978,3605.116c8.783-20.514,17.913-41.9,34.287-57.626,8.39-8.061,18.335-14.324,28.74-19.449a153.612,153.612,0,0,1,73.4-15.516c3.861.146,3.855-5.854,0-6a160.236,160.236,0,0,0-72.368,14.407,127.294,127.294,0,0,0-30.316,18.949,107.785,107.785,0,0,0-22.013,27.063c-6.635,11.2-11.8,23.194-16.915,35.143a3.1,3.1,0,0,0,1.077,4.1c1.262.738,3.463.421,4.1-1.076Z" fill="#360484"></path>
    <path id="Path_125961" data-name="Path 125961" d="M5753.082,3602.483q13.686-35.319,27.647-70.531,6.981-17.605,14.031-35.184c1.507-3.75,3.285-7.9,6.475-10.542a8.213,8.213,0,0,1,4.419-1.8,10.454,10.454,0,0,1,1.2.017c.612.042.193.023.062,0q.279.048.555.114a8.656,8.656,0,0,1,1.065.329c-.479-.183.576.306.77.423.159.1.313.2.467.3.514.343-.232-.235.282.213a12.851,12.851,0,0,1,.929.891,8.318,8.318,0,0,1,1.417,1.91,18.625,18.625,0,0,1,2.2,5.36,28.056,28.056,0,0,1,.97,5.966c.067,1.106.085,2.215.048,3.322q-.029.854-.1,1.705c-.019.224-.041.447-.064.67-.009.086-.128.971-.061.513l5.014-1.324a3.675,3.675,0,0,1-1.194-1.533,9.453,9.453,0,0,1-.334-1.261,7.538,7.538,0,0,1,.719-3.758,9.121,9.121,0,0,1,2.847-3.585c-.276.217.572-.373.676-.435a8.4,8.4,0,0,1,1.1-.578c-.391.163.635-.182.743-.21.2-.051.4-.1.606-.133-.285.027-.242.023.13-.01,7.027-.491,11.488,8.351,10.5,14.552l4.407-1.793c-.118-.072-.668-.509-.371-.24-.1-.092-.571-.615-.3-.258a4.8,4.8,0,0,1-.443-.734c.205.4-.143-.435-.191-.632a5.116,5.116,0,0,1,.162-2.731,4.988,4.988,0,0,1,4.321-3.92c3.069-.373,6.043,1.391,8.1,3.585,2.552,2.728,3.6,6.523,4.179,10.124a116.487,116.487,0,0,1,.907,12.72q.364,7.2.7,14.4c.426,9.421.771,18.847.923,28.278a426.928,426.928,0,0,1-2.406,56.907,246.148,246.148,0,0,1-10.452,48.191,180.105,180.105,0,0,1-20.642,43.2c-8.579,12.947-19.2,25.014-32.043,33.867-12.648,8.717-27.239,13.81-42.7,13.189-15.174-.61-29.817-6.263-42.487-14.436-13.426-8.661-24.492-20.447-33.673-33.443-9.6-13.588-17.294-28.4-24.487-43.371q-2.637-5.485-5.207-11a3.026,3.026,0,0,0-4.1-1.076,3.068,3.068,0,0,0-1.076,4.1c7.4,15.792,14.946,31.586,24.311,46.329,9.265,14.585,20.334,28.122,34.119,38.653,12.868,9.831,28.189,17.135,44.3,19.444a74.175,74.175,0,0,0,24.6-.442,75.415,75.415,0,0,0,22.88-8.653c14.649-8.322,26.7-20.656,36.585-34.16a178.693,178.693,0,0,0,23.479-45.016,242.29,242.29,0,0,0,11.921-50.043,410.01,410.01,0,0,0,3.118-59.754c-.122-9.892-.469-19.781-.908-29.664q-.333-7.481-.719-14.958c-.238-4.718-.355-9.463-1.038-14.144-1.181-8.093-5.709-16.751-14.435-18.545a11.791,11.791,0,0,0-10.624,2.614,12.318,12.318,0,0,0-3.7,8.634,9.249,9.249,0,0,0,4.375,8.155c1.511.92,4.1.134,4.407-1.793,1.306-8.2-2.39-17.624-10.392-21.015a12.554,12.554,0,0,0-11.37.539,15.438,15.438,0,0,0-6.755,8.553,10.956,10.956,0,0,0,2.692,11.522c1.481,1.357,4.668,1.06,5.014-1.324,1.21-8.309.121-18.1-5.464-24.739a12.535,12.535,0,0,0-10.523-4.556c-5.267.457-9.207,3.761-12.01,8.057-3.067,4.7-4.845,10.247-6.917,15.425q-3.754,9.378-7.487,18.763-7.518,18.9-14.957,37.835-8.31,21.153-16.522,42.345a3.024,3.024,0,0,0,2.1,3.691,3.07,3.07,0,0,0,3.691-2.1Z" fill="#360484"></path>
    <path id="Path_125962" data-name="Path 125962" d="M5752.674,3602.087c-9.08-21.208-18.643-43.147-35.7-59.291a119.288,119.288,0,0,0-29.482-19.936,159.467,159.467,0,0,0-76.432-16.335,3,3,0,0,0,0,6,153.653,153.653,0,0,1,69.544,13.681c10.564,4.843,20.792,10.8,29.554,18.488a103.815,103.815,0,0,1,20.846,26c6.43,11,11.48,22.724,16.487,34.417.637,1.489,2.83,1.821,4.1,1.076a3.078,3.078,0,0,0,1.076-4.1Z" fill="#360484"></path>
    <path id="Path_125963" data-name="Path 125963" d="M5423,3702.142c-13.478-13.238-33.943-16.366-52.091-16.3-17.307.066-34.857,3.7-50.243,11.777a76.02,76.02,0,0,0-35.292,38.235c-7.2,17.417-7.9,36.839-5.265,55.3a147.774,147.774,0,0,0,19.106,54.885,103.489,103.489,0,0,0,18.471,22.881,131.372,131.372,0,0,0,24.563,17.338c9.106,5.126,18.585,9.549,28.011,14.047q15.25,7.28,30.524,14.509c20.149,9.511,40.371,18.876,60.774,27.832,40.946,17.972,82.591,33.973,125.454,46.767,4.34,1.295,8.8,2.8,11.492,6.693,2.567,3.716,4.271,7.741,7.874,10.651,6.508,5.257,15.341,6.392,23.355,4.685,19-4.047,29.128-24.049,37.07-39.836a317.851,317.851,0,0,0,23.053-60.423c1.407-5.245,2.733-10.53,3.8-15.855,1.061-5.288,1.757-10.955,0-16.18-2.8-8.326-10.239-13.69-17.307-18.273-6.81-4.417-14.015-8.249-21.177-12.054-10.508-5.584-21.133-10.946-31.789-16.24-25.4-12.617-51-24.815-76.664-36.875q-31.354-14.736-62.865-29.131-4.474-2.039-8.955-4.064a3.1,3.1,0,0,0-4.1,1.077,3.019,3.019,0,0,0,1.076,4.1c17.4,7.85,34.721,15.872,52.023,23.932q37.467,17.454,74.681,35.445c21.018,10.211,42.088,20.448,62.527,31.787,3.247,1.8,6.476,3.637,9.641,5.578,5.257,3.222,10.937,6.7,14.648,11.719,6.164,8.342,2.254,19.34-.021,28.421a313.656,313.656,0,0,1-9.286,30.418,306.115,306.115,0,0,1-12.013,28.607c-4.273,8.883-8.752,17.9-14.467,25.961-4.851,6.843-11.314,13.3-19.592,15.632-6.817,1.919-15.2,1.366-20.584-3.707-3.17-2.988-4.557-7.279-7.375-10.561-3.065-3.569-7.528-5.444-11.912-6.828-10.183-3.215-20.44-6.156-30.575-9.531-20.613-6.862-40.953-14.526-61.07-22.723-40.311-16.425-79.694-35.014-118.972-53.742-18.069-8.615-37.134-16.651-52.83-29.324-14.9-12.031-25.387-28.34-32.16-46.129-12.4-32.554-16.745-75.453,8.079-103.538,11.059-12.51,26.34-20.315,42.419-24.207,16.447-3.983,34.532-4.4,51.007-.321,8.418,2.083,16.467,5.661,22.717,11.8,2.757,2.708,7-1.531,4.243-4.242Z" fill="#360484"></path>
    <path id="Path_125964" data-name="Path 125964" d="M5659.928,3691.583a178.952,178.952,0,0,1,90.26-1.287c12.68,3.157,25.047,7.874,36.023,15.047a76.564,76.564,0,0,1,26.17,29.037c6.624,12.718,10.583,26.989,12.924,41.086,2.45,14.762,2.646,30.125-.594,44.783a88.724,88.724,0,0,1-15.686,34.538,72.138,72.138,0,0,1-13.188,13.356,99.994,99.994,0,0,1-18.755,10.994c-13.876,6.537-28.25,12.146-42.653,17.4q-21.977,8.02-44.5,14.429-5.51,1.567-11.048,3.037c-3.729.99-2.147,6.779,1.6,5.785q23.187-6.159,45.876-14.023,22.809-7.916,44.98-17.52a165.5,165.5,0,0,0,20.464-10.12,78.76,78.76,0,0,0,16.514-13.272,90.431,90.431,0,0,0,19.935-34.634c4.569-14.4,5.686-29.8,4.334-44.794A155.2,155.2,0,0,0,5821.9,3740.8c-5.427-13.245-13.227-25.315-24.332-34.5-10.627-8.784-23.16-14.886-36.239-19.084a175.029,175.029,0,0,0-44.594-7.845,185.968,185.968,0,0,0-47.229,3.714q-5.628,1.174-11.173,2.708c-3.718,1.024-2.139,6.814,1.6,5.786Z" fill="#360484"></path>
    <path id="Path_125965" data-name="Path 125965" d="M5395.613,3925.23" fill="none" stroke="#360484" stroke-miterlimit="10" stroke-width="2"></path>
    <path id="Path_125966" data-name="Path 125966" d="M5385.865,3905.446c-2.13-3.942-6.972-2.686-9.609-.079-2.827,2.8-3.686,7.424-4.062,11.225-.8,8.089,2.043,16.2,5.746,23.262,3.863,7.366,9.014,14.026,14.233,20.469a225.307,225.307,0,0,0,34.919,34.582q4.931,3.917,10.057,7.578a99.23,99.23,0,0,0,10.237,6.7c3.6,1.94,7.782,3.506,11.941,3.174a15.126,15.126,0,0,0,9.7-4.262,11.6,11.6,0,0,0,2.746-4.585,21.513,21.513,0,0,0,.477-6.469,5.655,5.655,0,0,1,1.325-4.126,14.263,14.263,0,0,1,3.858-2.722,214.6,214.6,0,0,1,23.976-10.452q12.6-4.812,25.6-8.477,3.16-.891,6.341-1.712c3.735-.967,2.151-6.756-1.6-5.785a305.33,305.33,0,0,0-48.037,16.861,98.39,98.39,0,0,0-10.611,5.115c-3.2,1.923-6.017,4.715-6.632,8.542-.338,2.1-.046,4.178-.218,6.279a5.579,5.579,0,0,1-.135.877c-.028.115-.314,1-.175.662a6.293,6.293,0,0,1-.45.846,2.679,2.679,0,0,1-.489.669,8.992,8.992,0,0,1-6.843,2.779c-3.529-.053-6.846-1.778-9.79-3.574-3.295-2.011-6.461-4.26-9.588-6.522a217.194,217.194,0,0,1-17.794-14.377A221.018,221.018,0,0,1,5390.194,3948c-4.423-6.051-8.5-12.61-10.686-19.832a30.256,30.256,0,0,1-1.4-10.385,21.085,21.085,0,0,1,.857-4.909,15.919,15.919,0,0,1,.806-2.284,3.229,3.229,0,0,1,.963-1.2c.249-.224.066-.074,0-.027.162-.125.349-.214.515-.333.457-.326-.094.139.329-.153.2-.138.176-.138.108-.039s-.4-.027-.476-.042c.712.147-.492-.35-.511-.356-.067-.023-.353-.59-.016.034,1.837,3.4,7.019.372,5.181-3.028Z" fill="#360484"></path>
    <path id="Path_125967" data-name="Path 125967" d="M5551.75,3805.623a232.064,232.064,0,0,1,26.811-20.815c4.673-3.175,9.411-6.252,14.167-9.3s9.47-6.191,14.407-8.935c5.067-2.816,10.545-5.2,16.385-5.7a3.079,3.079,0,0,0,3-3,3.022,3.022,0,0,0-3-3c-11.679.984-21.509,7.588-31.12,13.724-9.9,6.321-19.772,12.716-29.16,19.786-5.436,4.094-10.719,8.389-15.733,12.994a3,3,0,0,0,4.243,4.243Z" fill="#360484"></path>
    <path id="Path_125968" data-name="Path 125968" d="M5507.245,3418.59a62.753,62.753,0,0,0,18.415,22.483,59.531,59.531,0,0,0,12.24,7.3c5.14,2.263,11.213,3.846,15.939-.206,3.933-3.371,5.611-9.766,4.159-14.682a10.431,10.431,0,0,0-11.58-7.521,7.586,7.586,0,0,0-5.941,4.84c-1.019,3.047.762,5.417,3.027,7.217a33.244,33.244,0,0,0,13.853,6.285,79.366,79.366,0,0,0,18.127,1.381,126.027,126.027,0,0,0,20.7-2.167,3.03,3.03,0,0,0,2.1-3.691,3.066,3.066,0,0,0-3.691-2.095,111.106,111.106,0,0,1-29.461,1.678,42.644,42.644,0,0,1-11.707-2.5,24.222,24.222,0,0,1-5.178-2.777,12.885,12.885,0,0,1-1.944-1.6c-.057-.06-.134-.187-.185-.2l-.088-.147.142.484s-.014.111-.055.1c-.164-.024.3-.419.332-.45a4.785,4.785,0,0,1,.572-.359c-.029.012.6-.165.839-.195-.385.048.568.031.773.054-.151-.017-.44-.1.149.043a7.975,7.975,0,0,1,.775.225,4.429,4.429,0,0,1,2.477,2.434c1.238,2.887.109,7.508-2.427,9.382-2.955,2.186-7.558-.144-10.43-1.525a56.511,56.511,0,0,1-26.749-26.818,3.027,3.027,0,0,0-4.1-1.076,3.065,3.065,0,0,0-1.076,4.1Z" fill="#360484"></path>
    <path id="Path_125969" data-name="Path 125969" d="M5505.763,3465.311c8.059,8.537,20.284,9.668,31.269,7.862a3.023,3.023,0,0,0,2.095-3.69,3.072,3.072,0,0,0-3.69-2.1c-8.882,1.461-18.926.572-25.432-6.318-2.656-2.814-6.893,1.434-4.242,4.242Z" fill="#360484"></path>
    <path id="Path_125970" data-name="Path 125970" d="M5585.876,3459.919c-2.46,4.235-7.519,5.868-12.213,6.381a109.13,109.13,0,0,1-18.968.184,3,3,0,0,0,0,6,100.926,100.926,0,0,0,21.133-.463c6.04-.884,12.055-3.61,15.229-9.074,1.943-3.345-3.24-6.37-5.181-3.028Z" fill="#360484"></path>
    <path id="Path_125971" data-name="Path 125971" d="M5530.933,3487.575c5.126,1.918,10.946,1.291,16.259.653a101.111,101.111,0,0,0,16.648-3.4c3.694-1.092,2.122-6.885-1.595-5.786a91.868,91.868,0,0,1-15.053,3.184c-4.784.575-10.045,1.289-14.664-.438a3.025,3.025,0,0,0-3.69,2.095,3.065,3.065,0,0,0,2.1,3.69Z" fill="#360484"></path>
    <path id="Path_125972" data-name="Path 125972" d="M5375.921,4085.7c-36.1-7.573-71.344-27.238-101.909-56.867-24.9-24.133-47.278-55.248-68.422-95.125l4.244-2.25c20.9,39.425,42.992,70.148,67.521,93.926,29.914,29,64.337,48.227,99.552,55.615Z" fill="#f04e98"></path>
    <path id="Path_125973" data-name="Path 125973" d="M5294.485,3982.211a281.21,281.21,0,0,1-85-129.861l4.594-1.4a276.349,276.349,0,0,0,83.529,127.616Z" fill="#f04e98"></path>
    <path id="Path_125974" data-name="Path 125974" d="M5281.156,3920.508a131.122,131.122,0,0,1-38.359-53.155l4.476-1.747a126.3,126.3,0,0,0,36.95,51.205Z" fill="#f04e98"></path>
    <rect id="Rectangle_3245" data-name="Rectangle 3245" width="4.804" height="13.406" transform="translate(5276.707 3879.977) rotate(-37.503)" fill="#f04e98"></rect>
    <path id="Path_125975" data-name="Path 125975" d="M5139.894,3980.521l-3.934-2.756a89.64,89.64,0,0,1,20.446-20.891l2.84,3.875A84.772,84.772,0,0,0,5139.894,3980.521Z" fill="#f04e98"></path>
    <rect id="Rectangle_3246" data-name="Rectangle 3246" width="9.479" height="4.804" transform="matrix(0.711, -0.703, 0.703, 0.711, 5152.092, 3985.273)" fill="#f04e98"></rect>
    <rect id="Rectangle_3247" data-name="Rectangle 3247" width="7.219" height="4.804" transform="matrix(0.925, -0.379, 0.379, 0.925, 5169.002, 3952.499)" fill="#f04e98"></rect>
    <path id="Path_125976" data-name="Path 125976" d="M5178.2,3984.794a8.154,8.154,0,0,1-3.964-1.016l2.338-4.2a3.423,3.423,0,0,0,3.106.071l2.14,4.3A8.128,8.128,0,0,1,5178.2,3984.794Z" fill="#f04e98"></path>
    <path id="Path_125977" data-name="Path 125977" d="M5387.153,4103.024l-4.685-1.058c4.131-18.295,17.6-35.392,36.943-46.906,17.532-10.435,37.61-15.536,56.694-19.494,39.583-8.21,71.877-10.829,101.637-8.242,37.089,3.224,70.188,15.051,95.716,34.205,6.384,4.788,14.267,11.469,18.607,20.7l-4.347,2.043c-3.89-8.272-11.2-14.447-17.143-18.9-24.81-18.614-57.054-30.115-93.249-33.262-29.277-2.542-61.133.048-100.245,8.161-18.675,3.873-38.289,8.845-55.213,18.918C5403.648,4070.031,5391,4086.009,5387.153,4103.024Z" fill="#f04e98"></path>
    <path id="Path_125978" data-name="Path 125978" d="M5590.191,4061.187a203.2,203.2,0,0,0-95.317-1.11l-1.078-4.681a208.011,208.011,0,0,1,97.581,1.136Z" fill="#f04e98"></path>
    <path id="Path_125979" data-name="Path 125979" d="M5546.828,4085.737a25.824,25.824,0,0,0-19.607-2.571l-1.283-4.629a30.287,30.287,0,0,1,23.324,3.06Z" fill="#f04e98"></path>
    <path id="Path_125980" data-name="Path 125980" d="M5549.4,4107.774" fill="none" stroke="#f04e98" stroke-miterlimit="10" stroke-width="4.804"></path>
    <path id="Path_125981" data-name="Path 125981" d="M5450.194,3859.759" fill="none" stroke="#f04e98" stroke-miterlimit="10" stroke-width="4.804"></path>
    <path id="Path_125982" data-name="Path 125982" d="M5427.9,3911.365a47.451,47.451,0,0,1,.8-29.8l4.516,1.64a42.6,42.6,0,0,0-.721,26.767Z" fill="#f04e98"></path>
    <path id="Path_125983" data-name="Path 125983" d="M5452.217,3994.178a110.143,110.143,0,0,1-24.744-54.948l4.756-.681a105.261,105.261,0,0,0,23.65,52.519Z" fill="#f04e98"></path>
    <rect id="Rectangle_3248" data-name="Rectangle 3248" width="1.341" height="4.805" transform="translate(5472.984 4023.594)" fill="#f04e98"></rect>
    <path id="Path_125984" data-name="Path 125984" d="M5450.264,3924.958c-4.338-13.553-3.247-27.886-1.608-40.118a270.709,270.709,0,0,1,23.54-79.705l4.344,2.051a265.907,265.907,0,0,0-23.122,78.293c-1.568,11.7-2.627,25.37,1.421,38.014Z" fill="#f04e98"></path>
    <path id="Path_125985" data-name="Path 125985" d="M5475.525,3908.482a131.9,131.9,0,0,1,9.551-74.035l4.389,1.953a127.041,127.041,0,0,0-9.2,71.309Z" fill="#f04e98"></path>
    <path id="Path_125986" data-name="Path 125986" d="M5505.952,3889l-4.275-2.19a31.769,31.769,0,0,1,10.162-11.6l2.732,3.951A26.935,26.935,0,0,0,5505.952,3889Z" fill="#f04e98"></path>
    <rect id="Rectangle_3249" data-name="Rectangle 3249" width="18.235" height="4.804" transform="matrix(0.588, -0.809, 0.809, 0.588, 5681.519, 3846.281)" fill="#f04e98"></rect>
    <path id="Path_125987" data-name="Path 125987" d="M5719.479,3859.407l-4.467-1.765a124.614,124.614,0,0,1,36.157-49.9l3.07,3.7A119.809,119.809,0,0,0,5719.479,3859.407Z" fill="#f04e98"></path>
    <rect id="Rectangle_3250" data-name="Rectangle 3250" width="17.063" height="4.803" transform="translate(5729.953 3859.355) rotate(-45.428)" fill="#f04e98"></rect>
    <path id="Path_125988" data-name="Path 125988" d="M5705.861,4046.939l-1.134-4.668c9.055-2.2,17.833-6.019,26.32-9.71,16.938-7.366,34.454-14.981,49.354-26.259,17.668-13.373,31.024-31.44,41.758-47.349,8.607-12.754,17.96-27.764,20.018-44.524l4.767.586c-2.186,17.816-11.884,33.409-20.8,46.626-10.955,16.236-24.613,34.694-42.842,48.491-15.358,11.624-33.14,19.356-50.337,26.835C5724.289,4040.738,5715.319,4044.638,5705.861,4046.939Z" fill="#f04e98"></path>
    <path id="Path_125989" data-name="Path 125989" d="M5704.334,4023.813l-1.84-4.438a111.676,111.676,0,0,0,44.718-33.791l3.767,2.98A116.487,116.487,0,0,1,5704.334,4023.813Z" fill="#f04e98"></path>
    <path id="Path_125990" data-name="Path 125990" d="M5706.68,3979.36l-3.535-3.252a109.511,109.511,0,0,1,23.3-19.189l2.514,4.094A104.737,104.737,0,0,0,5706.68,3979.36Z" fill="#f04e98"></path>
    <rect id="Rectangle_3251" data-name="Rectangle 3251" width="10.209" height="4.804" transform="translate(5718.643 4087.881) rotate(-22.394)" fill="#f04e98"></rect>
    <rect id="Rectangle_3252" data-name="Rectangle 3252" width="30.753" height="4.804" transform="translate(5879.635 4022.931) rotate(-54.533)" fill="#f04e98"></rect>
    <path id="Path_125991" data-name="Path 125991" d="M5546.586,3653.685c-18.741-12.6-38.959-27.513-43.358-49.664-2.2-11.087,1.219-24.452,11.414-29.333,7.778-3.723,17.4-1.388,24.324,3.747s11.667,12.637,15.953,20.118c-.859-11.34,9.2-20.414,19.115-25.984,3.646-2.048,8.019-3.93,11.873-2.308,2.3.966,3.942,3.022,5.274,5.128,7.009,11.079,7.769,25.378,3.965,37.924s-11.773,23.492-21.078,32.727c-5.779,5.735-13.689,11.263-21.451,8.806" fill="#6ad1e3" style="isolation: isolate"></path>
    <path id="Path_125992" data-name="Path 125992" d="M5503.868,3597.948a24.417,24.417,0,0,1,10.286-20.4l2.756,3.935a19.823,19.823,0,0,0-8.239,16.342Z" fill="#f04e98"></path>
    <path id="Path_125993" data-name="Path 125993" d="M5523.928,3589.848" fill="none" stroke="#f04e98" stroke-miterlimit="10" stroke-width="4.804"></path>
    <path id="Path_125994" data-name="Path 125994" d="M5518.245,3602.9l-4.682-1.078a23.546,23.546,0,0,1,5.923-10.98l3.473,3.32A18.716,18.716,0,0,0,5518.245,3602.9Z" fill="#f04e98"></path>
    <rect id="Rectangle_3253" data-name="Rectangle 3253" width="3.997" height="4.804" transform="translate(5529.908 3608.11) rotate(-27.013)" fill="#f04e98"></rect>
    <rect id="Rectangle_3254" data-name="Rectangle 3254" width="4.804" height="9.828" transform="translate(5579.283 3583.093) rotate(-88.474)" fill="#f04e98"></rect>
    <path id="Path_125995" data-name="Path 125995" d="M5580.2,3597.023a7.55,7.55,0,0,0-5.305-2.169l-.052-4.8h.13a12.25,12.25,0,0,1,8.629,3.583Z" fill="#f04e98"></path>
    <path id="Path_125996" data-name="Path 125996" d="M5355.943,3453.377c-8.75-12.768-13.344-24.345-14.046-35.394a42.8,42.8,0,0,1,.4-9.212,39.777,39.777,0,0,1-15.277-23.587c-3.26-14.791,1.341-28.965,5.777-38.251,5.57-11.667,13.6-21.875,21.36-31.746l3.776,2.968c-7.6,9.666-15.46,19.661-20.8,30.848-4.111,8.6-8.387,21.689-5.42,35.146a35.192,35.192,0,0,0,11.721,19.462c2.473-8.528,7.641-15.723,14.7-19.881a17.534,17.534,0,0,1,7.886-2.656c4.629-.258,8.9,2.1,11.725,6.506,3.273,5.1,3.719,11.546,1.134,16.419-4.974,9.375-17.168,12.007-26.111,9.727a29.89,29.89,0,0,1-5.956-2.229,37.233,37.233,0,0,0-.123,6.182c.645,10.161,4.967,20.949,13.214,32.981Zm-8.266-46.85a25.742,25.742,0,0,0,6.281,2.544c7.168,1.827,16.858-.117,20.68-7.322,1.758-3.315,1.383-7.967-.933-11.574-1.861-2.9-4.581-4.478-7.4-4.306a12.939,12.939,0,0,0-5.73,2C5354.267,3391.585,5349.649,3398.486,5347.677,3406.527Z" fill="#f04e98"></path>
    <path id="Path_125997" data-name="Path 125997" d="M5414.705,3470.872a21.114,21.114,0,0,1-1.829-18.243l4.5,1.685a16.223,16.223,0,0,0,1.4,14.013Z" fill="#f04e98"></path>
    <path id="Path_125998" data-name="Path 125998" d="M5487.513,3375.454c-5.8-16.843-10.933-34.145-15.248-51.428l4.66-1.164c4.282,17.148,9.372,34.316,15.129,51.028Z" fill="#f04e98"></path>
    <path id="Path_125999" data-name="Path 125999" d="M5542.528,3373.5l-4.748-.732a350,350,0,0,0,3.866-65.263l4.8-.166A354.714,354.714,0,0,1,5542.528,3373.5Z" fill="#f04e98"></path>
    <path id="Path_126000" data-name="Path 126000" d="M5608.127,3383.339l-4.539-1.574c7.778-22.415,14.849-45.4,21.013-68.326l4.638,1.249C5623.046,3337.719,5615.942,3360.817,5608.127,3383.339Z" fill="#f04e98"></path>
    <path id="Path_126001" data-name="Path 126001" d="M5702.957,3479.8l-1.57-4.539c8.9-3.082,30.573-14.413,39.5-52.986,1.56-6.748,2.913-15.375-.513-22.254a16.667,16.667,0,0,0-10.076-8.19,51.521,51.521,0,0,1-11.068,9.31c-2.027,1.257-4.456,2.534-7.233,2.352a7.08,7.08,0,0,1-4.868-2.426,5.53,5.53,0,0,1-1.361-4.14,7.465,7.465,0,0,1,2.206-4.273c4.663-5.059,12-7.431,19.627-6.345.328.047.655.1.978.158,8.468-10.517,12.806-24.526,11.044-37.865-.867-6.559-3.065-11.265-6.534-13.988a10.263,10.263,0,0,0-7.689-1.97,6.588,6.588,0,0,0-4.564,2.667l-3.973-2.7a11.346,11.346,0,0,1,7.8-4.71,15.019,15.019,0,0,1,11.392,2.938c4.49,3.525,7.293,9.291,8.329,17.138,1.845,13.96-2.4,28.588-10.858,39.921a21.116,21.116,0,0,1,11.148,9.986c4.106,8.248,2.634,17.948.891,25.477C5736.1,3464.265,5712.615,3476.455,5702.957,3479.8Zm21.008-88.947a16.777,16.777,0,0,0-12.462,5.057,3.27,3.27,0,0,0-.957,1.488.807.807,0,0,0,.236.553,2.277,2.277,0,0,0,1.5.747c1.423.082,2.952-.735,4.406-1.639a46.238,46.238,0,0,0,7.889-6.2Q5724.273,3390.851,5723.965,3390.851Z" fill="#f04e98"></path>
    <path id="Path_126002" data-name="Path 126002" d="M5188.43,3672.911a159.827,159.827,0,0,1-11.024-111.671l4.637,1.258a154.966,154.966,0,0,0,10.687,108.273Z" fill="#f04e98"></path>
    <path id="Path_126003" data-name="Path 126003" d="M5133.935,3674.234a185.494,185.494,0,0,1-7.76-76.141l4.775.517a180.678,180.678,0,0,0,7.559,74.154Z" fill="#f04e98"></path>
    <path id="Path_126004" data-name="Path 126004" d="M5891.688,3678.143l-4.46-1.784a200.711,200.711,0,0,0,12.423-101.829l4.758-.658A205.512,205.512,0,0,1,5891.688,3678.143Z" fill="#f04e98"></path>
    <path id="Path_126005" data-name="Path 126005" d="M5930.879,3663.191l-3.6-3.183a88.976,88.976,0,0,0,21.7-64.161l4.791-.348A92.594,92.594,0,0,1,5930.879,3663.191Z" fill="#f04e98"></path>
  </g>
</svg>
