<?xml version="1.0" encoding="UTF-8"?>
<svg xmlns="http://www.w3.org/2000/svg" id="Layer_1" data-name="Layer 1" viewBox="0 0 49.7 101.76">
  <defs>
    <style>.cls-1{fill:#fff;}</style>
  </defs>
  <path id="Path_125189" data-name="Path 125189" class="cls-1" d="M33.46,85.14a3.41,3.41,0,0,0-6.8-.43c0,.31,0,.62,0,.92,0,.05,0,.18,0,.32l0,.18a4.05,4.05,0,0,1-.12.47c-.09.31-.19.62-.29.93-.2.55-.43,1.1-.67,1.63l-.33.7v0c0,.11-.11.21-.16.31l-.58,1.07c-3.36-6.18-7.63-11.83-10.86-18.09A61.31,61.31,0,0,1,6.87,51.36a41.77,41.77,0,0,1,17.81-38.3,37.33,37.33,0,0,1,10-5c3-.94,7.31-2.33,9.75-.28,1.4,1.18,3.76.53,4.73-.89a3.48,3.48,0,0,0-.88-4.73C45-.5,40.33-.27,36.48.56A42.67,42.67,0,0,0,25.87,4.41,49.63,49.63,0,0,0,7.29,21.53c-9.73,15.13-9,33.62-2.15,49.75,3.38,8,8.74,14.88,12.88,22.44-.3,0-.6-.09-.89-.15L16,93.36h0l-.63-.13c-.73-.16-1.45-.34-2.17-.54-.24-.07-.47-.16-.7-.24a3,3,0,0,0-1.61-1.19,3.47,3.47,0,0,0-4.33,2.11c-.8,2.09.55,4,2.35,4.94a15.88,15.88,0,0,0,3.42,1.17c3,.72,6.07,1.2,9.12,1.71l1.73.3.41.11a3.47,3.47,0,0,0,4.32-2.11c.22-.59.47-1.16.74-1.72l.09-.2.4-.77c.61-1.14,1.25-2.27,1.84-3.43C32.26,90.8,33.48,88.07,33.46,85.14Z"></path>
</svg>
