<?xml version="1.0" encoding="UTF-8"?>
<svg xmlns="http://www.w3.org/2000/svg" width="854.613" height="858.35" viewBox="0 0 854.613 858.35">
  <g id="Group_3102" data-name="Group 3102" transform="translate(176.342 85.652)">
    <path id="Path_125196" data-name="Path 125196" d="M-19.97,248.415c-22.591,3.906-44.581,10.855-65.834,19.454-24.069,9.74-47.783,22-65.532,40.948s-28.8,45.652-23.8,71.132c4.97,25.356,25.231,45.929,48.965,56.143s50.508,11.242,76.182,8.328A264.815,264.815,0,0,0,47.87,413.2c4.646-2.566,9.4-5.332,14.676-5.874a36.9,36.9,0,0,1,10.506.941l36.812,6.9L84.9,395.637c35.848-25.641,47.054-80.085,24.247-117.8s-81.923-42.61-131.56-28.428" transform="translate(0 -37.241)" fill="#6ad1e3" style="isolation: isolate"></path>
    <path id="Path_125197" data-name="Path 125197" d="M600.621,753.575a1090.214,1090.214,0,0,0-44.755-165.187c-3.982-11.143-9.325-23.453-20.407-27.6-8.757-3.275-18.495-.367-27.329,2.7a804.735,804.735,0,0,0-112.292,48.82c-3.191,1.687-6.519,3.531-8.4,6.611-2.5,4.1-1.849,9.3-1.071,14.038,7.336,44.623,20.124,106.864,34.446,149.757l.413-2.211a155.3,155.3,0,0,0,17.12,45.143c2.038,3.568,4.377,7.21,7.988,9.17,4.082,2.214,9.022,1.879,13.641,1.39a342.957,342.957,0,0,0,117.745-34.613c8.672-4.365,17.668-9.615,21.949-18.33C604.114,774.211,602.487,763.485,600.621,753.575Z" transform="translate(-63.86 -73.29)" fill="#6ad2f1" style="isolation: isolate"></path>
    <path id="Path_125198" data-name="Path 125198" d="M271.959,612.207C53.911,521.8,24.279,318.645,37.97,225.206c3.564-24.328,9.773-48.565,21.632-70.1,5.365-9.744,13.655-19.871,24.779-19.83s18.5,18.124,8.191,22.292c-4.606-9.076,3.675-21.7,13.834-21.09s16.871,14.133,11.213,22.593c-7.335-3.873-3.443-16.919,4.723-18.374s15.847,5.582,18.337,13.492,1.221,16.44.4,24.693c-7.483,74.96,25.652,150.894,79.661,203.409s126.975,82.91,201.48,94.041c13.549,2.024,28.7,3.068,39.631-5.188,10.5-7.933,13.881-22.085,15.376-35.164a223.937,223.937,0,0,0-10.961-98.669c-10.708-30.752-33.136-62.286-65.606-64.739-21.606-1.632-41.959,10.285-58.5,24.287a215.887,215.887,0,0,0-67.949,105.971" transform="translate(-24.031 -25.103)" fill="none" stroke="#360484" stroke-miterlimit="10" stroke-width="6"></path>
    <path id="Path_125199" data-name="Path 125199" d="M368.321,308.422c-5.954,16.4.316,36.424,14.566,46.5,6.4,4.526,15.02,7.08,22.113,3.743s10.237-14.236,4.279-19.329c-2.161-1.847-5.646-2.545-7.789-.678a6.888,6.888,0,0,0-1.983,4.373c-1.094,8.164,4.581,16,11.7,20.144,7.18,4.175,16.479,5.349,23.81,1.444s11.607-13.539,8.147-21.089c-2.134-4.657-9.454-7.515-12.093-3.123a7.332,7.332,0,0,0-.828,4.024c.267,8.649,7.342,15.523,14.663,20.134a79.7,79.7,0,0,0,66.338,8.168" transform="translate(-61.634 -44.778)" fill="none" stroke="#360484" stroke-miterlimit="10" stroke-width="6"></path>
    <path id="Path_125200" data-name="Path 125200" d="M370.193,384.666a34.082,34.082,0,0,0-16.14-7.157,6.479,6.479,0,0,0-3.834.26,5.005,5.005,0,0,0-2.2,2.433,10.646,10.646,0,0,0,.564,9.3A22.847,22.847,0,0,0,355,396.619c2.613,2.057,5.535,3.924,8.827,4.388s7.018-.806,8.589-3.736a11.231,11.231,0,0,0,1-3.176c.386-1.969.436-4.444-1.274-5.5" transform="translate(-59.488 -52.61)" fill="none" stroke="#360484" stroke-miterlimit="10" stroke-width="6"></path>
    <path id="Path_125201" data-name="Path 125201" d="M352.445,379.625a5.006,5.006,0,0,0-.462,9.253,6.3,6.3,0,0,0,4.458.19,5.436,5.436,0,0,0,3.71-3.212c.785-2.35-.807-4.9-2.837-6.317" transform="translate(-59.705 -52.859)" fill="#360484" stroke="#360484" stroke-miterlimit="10" stroke-width="6"></path>
    <path id="Path_125202" data-name="Path 125202" d="M433.486,409.378a34.082,34.082,0,0,0-16.14-7.157,6.486,6.486,0,0,0-3.834.259,5.011,5.011,0,0,0-2.2,2.434,10.645,10.645,0,0,0,.564,9.3,22.845,22.845,0,0,0,6.412,7.118c2.613,2.057,5.534,3.924,8.827,4.388s7.018-.806,8.589-3.737a11.216,11.216,0,0,0,1-3.175c.386-1.97.436-4.444-1.274-5.5" transform="translate(-66.68 -55.418)" fill="none" stroke="#360484" stroke-miterlimit="10" stroke-width="6"></path>
    <path id="Path_125203" data-name="Path 125203" d="M415.738,404.337a5.006,5.006,0,0,0-.462,9.253,6.3,6.3,0,0,0,4.458.19,5.436,5.436,0,0,0,3.71-3.212c.785-2.35-.807-4.9-2.837-6.317" transform="translate(-66.897 -55.667)" fill="#360484" stroke="#360484" stroke-miterlimit="10" stroke-width="6"></path>
    <path id="Path_125204" data-name="Path 125204" d="M382.311,391.329,360.871,420.5l16.1,2.291L362.4,437.935a146.553,146.553,0,0,0,45.2,1.88,83.171,83.171,0,0,1-27.776,19.78,126.32,126.32,0,0,1,.455-20.249" transform="translate(-61.042 -54.198)" fill="none" stroke="#360484" stroke-miterlimit="10" stroke-width="6"></path>
    <path id="Path_125205" data-name="Path 125205" d="M170,594.459c-28.152,32.522-31.15,81.988-14.42,121.616s50.4,70.147,87.8,91.387a304.621,304.621,0,0,0,147.017,39.5c39.154.337,80.057-7.777,110.43-32.489a15.519,15.519,0,0,0,4.666-5.273c2.893-6.358-3.8-13.774-10.771-14.177s-13.318,3.814-18.732,8.227c10.838.507,19.716-12.643,15.2-22.506s-20.278-11.721-26.969-3.181c4.689,6.337,16.3,1.954,17.776-5.79s-4.5-15.285-11.674-18.562-15.3-3.41-23.16-4.069c-54.48-4.569-144.064-26.262-176.86-90.967" transform="translate(-36.549 -77.28)" fill="none" stroke="#360484" stroke-miterlimit="10" stroke-width="6"></path>
    <path id="Path_125206" data-name="Path 125206" d="M508.5,602.583a233.555,233.555,0,0,1,52.716,43.742" transform="translate(-77.817 -78.203)" fill="none" stroke="#f04e98" stroke-miterlimit="10" stroke-width="6"></path>
    <path id="Path_125207" data-name="Path 125207" d="M525.269,584.963a103.525,103.525,0,0,1,40.1,27.431" transform="translate(-79.723 -76.201)" fill="none" stroke="#f04e98" stroke-miterlimit="10" stroke-width="6"></path>
    <path id="Path_125208" data-name="Path 125208" d="M545.447,568.852a40.746,40.746,0,0,1,10.274,6.167" transform="translate(-82.015 -74.37)" fill="none" stroke="#f04e98" stroke-miterlimit="10" stroke-width="6"></path>
    <path id="Path_125209" data-name="Path 125209" d="M505.471,616.254l31.16-47.006" transform="translate(-77.473 -74.415)" fill="none" stroke="#f04e98" stroke-miterlimit="10" stroke-width="6"></path>
    <path id="Path_125210" data-name="Path 125210" d="M531.169,629.14q11.869-20.857,25.1-40.9" transform="translate(-80.393 -76.573)" fill="none" stroke="#f04e98" stroke-miterlimit="10" stroke-width="6"></path>
    <path id="Path_125211" data-name="Path 125211" d="M562.911,624.9a113.124,113.124,0,0,1,10.514-21.448" transform="translate(-84 -78.302)" fill="none" stroke="#f04e98" stroke-miterlimit="10" stroke-width="6"></path>
    <path id="Path_125212" data-name="Path 125212" d="M577,641.294c.774.153,1.112-.913,1.611-1.524s1.841.316,1.08.52" transform="translate(-85.601 -82.405)" fill="none" stroke="#f04e98" stroke-miterlimit="10" stroke-width="6"></path>
    <path id="Path_125213" data-name="Path 125213" d="M581.361,664.4v-.742" transform="translate(-86.096 -85.143)" fill="none" stroke="#f04e98" stroke-miterlimit="10" stroke-width="6"></path>
    <path id="Path_125214" data-name="Path 125214" d="M487.6,597.177l8.953-2.812" transform="translate(-75.442 -77.269)" fill="none" stroke="#f04e98" stroke-miterlimit="10" stroke-width="6"></path>
    <path id="Path_125215" data-name="Path 125215" d="M459.07,673.4l18.84-5.5c17.034-4.97,34.212-10,49.848-18.391" transform="translate(-72.201 -83.535)" fill="none" stroke="#fff" stroke-miterlimit="10" stroke-width="6"></path>
    <path id="Path_125216" data-name="Path 125216" d="M469.165,700.662a91.96,91.96,0,0,0,35.544-10.943" transform="translate(-73.348 -88.104)" fill="none" stroke="#fff" stroke-miterlimit="10" stroke-width="6"></path>
    <path id="Path_125217" data-name="Path 125217" d="M480.89,726.462a136.112,136.112,0,0,1,16.846-6.353" transform="translate(-74.68 -91.557)" fill="none" stroke="#fff" stroke-miterlimit="10" stroke-width="6"></path>
    <path id="Path_125218" data-name="Path 125218" d="M319.559,164.887c-30.5-3.055-61.985-6.021-91.266,3.061-8.128,2.521-16.193,6.1-22.107,12.217-4.9,5.07-8.043,11.62-10.063,18.375A68.646,68.646,0,0,0,246.9,285.195c3.284.735,6.721,1.267,9.549,3.093a23.7,23.7,0,0,1,5.471,5.574l13.611,17.34a62.339,62.339,0,0,1-6.275-22.314c30.076,4.9,63.419-7.375,79.657-33.161s21.97-80.53-31.213-92.053" transform="translate(-42.003 -28.125)" fill="#f04e98" style="isolation: isolate"></path>
    <path id="Path_125219" data-name="Path 125219" d="M-39.651,32.137a88.69,88.69,0,0,0-21.97,40.8c-2.313,9.968-2.337,21.814,5.1,28.845,6.633,6.276,17.72,6.343,25.356,1.337S-19.25,88.971-18.6,79.864c.106-1.494.079-3.139-.878-4.291-1.094-1.319-3.027-1.541-4.736-1.412-12.7.963-20.169,14.684-23.389,27.008-2,7.664-3.287,15.811-1.214,23.455s8.235,14.631,16.105,15.526c7.63.866,14.643-3.873,20.855-8.387,5.72-4.156,12.167-10.64,9.4-17.148-2.211-5.206-9.7-6.424-14.547-3.509s-7.349,8.589-8.46,14.134A43.963,43.963,0,0,0-15.53,162.3a43.96,43.96,0,0,0,35.478,14.6" transform="translate(-12.88 -13.384)" fill="none" stroke="#6ad1e3" stroke-miterlimit="10" stroke-width="6"></path>
    <path id="Path_125220" data-name="Path 125220" d="M102.378,37.6q19.013,35.636,40.952,69.6" transform="translate(-31.67 -14.005)" fill="none" stroke="#6ad1e3" stroke-miterlimit="10" stroke-width="6"></path>
    <path id="Path_125221" data-name="Path 125221" d="M167.064,33.269q11.083,39.136,25.565,77.2" transform="translate(-39.02 -13.513)" fill="none" stroke="#6ad1e3" stroke-miterlimit="10" stroke-width="6"></path>
    <path id="Path_125222" data-name="Path 125222" d="M229.239,107.072a37.292,37.292,0,0,0,.6,12.916" transform="translate(-46.051 -21.899)" fill="none" stroke="#6ad1e3" stroke-miterlimit="10" stroke-width="6"></path>
    <path id="Path_125223" data-name="Path 125223" d="M231.407,143.477a9.371,9.371,0,0,0,7.949-2.889" transform="translate(-46.332 -25.707)" fill="none" stroke="#6ad1e3" stroke-miterlimit="10" stroke-width="6"></path>
    <path id="Path_125224" data-name="Path 125224" d="M243.7,128.276l6.923-1.006" transform="translate(-47.728 -24.194)" fill="none" stroke="#6ad1e3" stroke-miterlimit="10" stroke-width="6"></path>
    <path id="Path_125225" data-name="Path 125225" d="M756.046,419.587c-8.312,29.668-33.233,54.078-63.065,61.775-5.229,1.348-10.806,2.206-15.982.667s-9.792-6.046-9.92-11.444c-.156-6.519,6.4-11.738,12.912-12.055s12.657,3.085,17.7,7.217a20.145,20.145,0,0,1,5.717,6.6c1.889,3.953,1.486,8.662.113,12.823-3.382,10.25-12.015,17.9-21.164,23.632-6.348,3.974-13.453,7.357-20.941,7.21s-15.313-4.747-17.063-12.03c6.3-7.831,21.163-5.087,24.252,4.477,3.023,9.365-4.612,19.191-13.537,23.336s-19.089,4.617-28.479,7.561" transform="translate(-91.235 -57.409)" fill="none" stroke="#6ad1e3" stroke-miterlimit="10" stroke-width="6"></path>
    <path id="Path_125226" data-name="Path 125226" d="M640.765,622.475c5.165-3.727,11.447-5.479,17.5-7.453a202.018,202.018,0,0,0,40.062-18.093" transform="translate(-92.846 -77.56)" fill="none" stroke="#6ad1e3" stroke-miterlimit="10" stroke-width="6"></path>
    <path id="Path_125227" data-name="Path 125227" d="M655.552,686.838a164.147,164.147,0,0,0,46.511-10.546" transform="translate(-94.526 -86.578)" fill="none" stroke="#6ad1e3" stroke-miterlimit="10" stroke-width="6"></path>
    <path id="Path_125228" data-name="Path 125228" d="M584.2,475.544a33.387,33.387,0,0,1,10.74-8.162" transform="translate(-86.418 -62.84)" fill="none" stroke="#6ad1e3" stroke-miterlimit="10" stroke-width="6"></path>
    <path id="Path_125229" data-name="Path 125229" d="M590.882,499.882a22.255,22.255,0,0,0,10.865,1.2" transform="translate(-87.178 -66.533)" fill="none" stroke="#6ad1e3" stroke-miterlimit="10" stroke-width="6"></path>
    <path id="Path_125230" data-name="Path 125230" d="M608.7,482.015l4.38-.875-2.4.875" transform="translate(-89.203 -64.404)" fill="none" stroke="#6ad1e3" stroke-miterlimit="10" stroke-width="6"></path>
    <path id="Path_125231" data-name="Path 125231" d="M564.051,488.7l2.969-.989" transform="translate(-84.129 -65.15)" fill="none" stroke="#6ad1e3" stroke-miterlimit="10" stroke-width="6"></path>
    <path id="Path_125232" data-name="Path 125232" d="M398.051-77.93c-35.969-8.4-85.831-12.118-120.65.209s-64.5,45.312-62.662,82.2c.416,8.372,2.453,16.783,6.845,23.922,4.21,6.844,10.387,12.249,16.814,17.072A166.994,166.994,0,0,0,297.046,73.6L270.109,98.258c10.118-2.134,18.487-8.976,27.714-13.646,39.3-19.888,88.908,1.21,130.037-14.551,33.713-12.919,54.956-52.2,47.31-87.486S431.926-79.675,395.89-77.48" transform="translate(-44.428)" fill="#fff"></path>
    <path id="Path_125233" data-name="Path 125233" d="M685.261,202.018a158.367,158.367,0,0,0-117.912-19.575c-16.439,3.8-33.182,11.013-42.636,24.989-9.34,13.805-9.858,32.307-4.212,47.99s16.78,28.85,29.275,39.881a177.656,177.656,0,0,0,73.261,38.771L589.73,368.448a87.546,87.546,0,0,0,32.238-16.061c4.881-3.868,9.536-8.366,15.465-10.275,5.146-1.656,10.706-1.171,16.085-.622,16.612,1.693,33.379,3.824,49.943,1.72s33.245-9.019,43.421-22.258c14.19-18.464,12.489-45.6,1.2-65.969s-42.724-42.01-62.405-54.457" transform="translate(-78.765 -30.017)" fill="#6ad1e3" style="isolation: isolate"></path>
  </g>
</svg>
