<?xml version="1.0" encoding="UTF-8"?>
<svg xmlns="http://www.w3.org/2000/svg" width="680.509" height="810.789" viewBox="0 0 680.509 810.789">
  <g id="Group_3138" data-name="Group 3138" transform="translate(-237.496 -792.54)">
    <g id="Group_3147" data-name="Group 3147" transform="translate(237.496 792.54)">
      <g id="Group_3140" data-name="Group 3140" transform="translate(0 0.798)">
        <g id="Group_3138-2" data-name="Group 3138" transform="translate(48.415 9.573)">
          <path id="Path_125292" data-name="Path 125292" d="M300.334,808.557v7.51h8.942v2.673h-8.942v9.388h-2.9V805.853h12.475v2.7Z" transform="translate(-297.438 -805.471)" fill="#7c7c7c"></path>
          <path id="Path_125293" data-name="Path 125293" d="M320.933,828.129h-2.928V805.853h2.928Z" transform="translate(-301.393 -805.471)" fill="#7c7c7c"></path>
          <path id="Path_125294" data-name="Path 125294" d="M331.019,805.853v19.475h8.56v2.8H328.091V805.853Z" transform="translate(-303.332 -805.471)" fill="#7c7c7c"></path>
          <path id="Path_125295" data-name="Path 125295" d="M349.695,808.557v6.333h9.259v2.673h-9.259v7.828h9.864v2.737H346.767V805.853h12.792v2.7Z" transform="translate(-306.924 -805.471)" fill="#7c7c7c"></path>
          <path id="Path_125296" data-name="Path 125296" d="M377.6,813.049v-1.941c0-1.942-1.019-3.246-4.1-3.246-2.864,0-4.169,1.178-4.169,3.182a3.228,3.228,0,0,0,2.418,3.278l4.964,2c2.9,1.178,4.391,3.15,4.391,5.856,0,4.041-2.832,6.236-7.319,6.236-4.359,0-7.35-1.972-7.35-5.824v-2.163h2.927v2.1c0,2.165,1.337,3.405,4.423,3.405,3.31,0,4.328-1.4,4.328-3.627a3.633,3.633,0,0,0-2.483-3.532l-4.932-1.942a6.009,6.009,0,0,1-4.264-5.887c0-3.5,2.609-5.568,7.064-5.568s7.033,2.323,7.033,5.855v1.814Z" transform="translate(-310.705 -805.38)" fill="#7c7c7c"></path>
        </g>
        <g id="Group_3139" data-name="Group 3139">
          <path id="Path_125297" data-name="Path 125297" d="M260.845,806.871V793.528H237.5v33.357H247.5v6.671h23.35V806.871Zm-3.335-10.007-3.336,3.336H244.167l-3.335-3.336ZM247.5,823.549h-6.671V801.581l1.953,1.955h12.771l1.954-1.955v5.29H247.5v16.678Zm20.014,6.671H250.838V810.206h16.678Z" transform="translate(-237.496 -793.528)" fill="#7c7c7c"></path>
          <rect id="Rectangle_3118" data-name="Rectangle 3118" width="11.679" height="2.502" transform="translate(15.759 30.855)" fill="#7c7c7c"></rect>
          <rect id="Rectangle_3119" data-name="Rectangle 3119" width="8.244" height="2.502" transform="translate(15.759 25.852)" fill="#7c7c7c"></rect>
        </g>
      </g>
      <g id="Group_3143" data-name="Group 3143" transform="translate(502.745 1.148)">
        <g id="Group_3141" data-name="Group 3141" transform="translate(49.55 9.223)">
          <path id="Path_125298" data-name="Path 125298" d="M933.66,813.558v-1.05c0-3.341-1.209-4.487-4.741-4.487-3.341,0-4.71,1.623-4.71,5v7.732c0,3.405,1.4,5.06,4.71,5.06,3.532,0,4.741-1.146,4.741-4.551v-1.178h2.927V821.2c0,4.646-2,7.223-7.668,7.223-5.441,0-7.638-2.928-7.638-7.605v-7.828c0-4.646,2.291-7.605,7.733-7.605,5.664,0,7.573,2.673,7.573,7.255v.923Z" transform="translate(-921.281 -805.38)" fill="#7c7c7c"></path>
          <path id="Path_125299" data-name="Path 125299" d="M961.043,812.985v7.828c0,4.71-2.291,7.605-7.86,7.605s-7.828-2.9-7.828-7.605v-7.828c0-4.71,2.259-7.605,7.828-7.605S961.043,808.308,961.043,812.985Zm-12.761.064v7.7c0,3.373,1.274,5.06,4.9,5.06,3.66,0,4.932-1.687,4.932-5.06v-7.7c0-3.405-1.3-5.028-4.932-5.028S948.282,809.644,948.282,813.049Z" transform="translate(-925.91 -805.38)" fill="#7c7c7c"></path>
          <path id="Path_125300" data-name="Path 125300" d="M986.273,805.853v22.276h-2.706l-8.5-14.989-1.5-2.9.1,4.264v13.62h-2.864V805.853h2.9l8.306,14.32L983.5,823l-.1-4.2V805.853Z" transform="translate(-930.805 -805.471)" fill="#7c7c7c"></path>
          <path id="Path_125301" data-name="Path 125301" d="M994.013,805.853h15.148v2.8h-6.11v19.476h-2.928V808.652h-6.109Z" transform="translate(-935.267 -805.471)" fill="#7c7c7c"></path>
          <path id="Path_125302" data-name="Path 125302" d="M1019.753,808.557v6.333h9.26v2.673h-9.26v7.828h9.864v2.737h-12.792V805.853h12.792v2.7Z" transform="translate(-939.654 -805.471)" fill="#7c7c7c"></path>
          <path id="Path_125303" data-name="Path 125303" d="M1053.527,805.853v22.276h-2.705l-8.5-14.989-1.5-2.9.1,4.264v13.62h-2.863V805.853h2.895l8.306,14.32,1.5,2.832-.1-4.2V805.853Z" transform="translate(-943.738 -805.471)" fill="#7c7c7c"></path>
          <path id="Path_125304" data-name="Path 125304" d="M1061.268,805.853h15.147v2.8h-6.109v19.476h-2.928V808.652h-6.109Z" transform="translate(-948.2 -805.471)" fill="#7c7c7c"></path>
        </g>
        <g id="Group_3142" data-name="Group 3142">
          <path id="Path_125305" data-name="Path 125305" d="M859.934,793.961v40.028h33.357V793.961Zm30.021,36.692H863.27V797.3h26.685Z" transform="translate(-859.934 -793.961)" fill="#7c7c7c"></path>
          <rect id="Rectangle_3120" data-name="Rectangle 3120" width="13.342" height="3.336" transform="translate(13.343 30.021)" fill="#7c7c7c"></rect>
          <rect id="Rectangle_3121" data-name="Rectangle 3121" width="3.336" height="3.336" transform="translate(6.671 30.021)" fill="#7c7c7c"></rect>
          <rect id="Rectangle_3122" data-name="Rectangle 3122" width="20.014" height="3.335" transform="translate(6.671 23.35)" fill="#7c7c7c"></rect>
          <rect id="Rectangle_3123" data-name="Rectangle 3123" width="6.671" height="3.336" transform="translate(20.014 15.01)" fill="#7c7c7c"></rect>
          <rect id="Rectangle_3124" data-name="Rectangle 3124" width="6.671" height="3.336" transform="translate(20.014 8.339)" fill="#7c7c7c"></rect>
          <circle id="Ellipse_91" data-name="Ellipse 91" cx="2.502" cy="2.502" r="2.502" transform="translate(9.173 6.671)" fill="#7c7c7c"></circle>
          <path id="Path_125306" data-name="Path 125306" d="M878.2,815.484v-1.669a3.346,3.346,0,0,0-3.336-3.336h-3.336a3.347,3.347,0,0,0-3.336,3.336v1.669Z" transform="translate(-861.522 -797.137)" fill="#7c7c7c"></path>
        </g>
      </g>
      <g id="Group_3146" data-name="Group 3146" transform="translate(199.401)">
        <g id="Group_3144" data-name="Group 3144" transform="translate(57.176 10.371)">
          <path id="Path_125307" data-name="Path 125307" d="M567.538,813.558v-1.05c0-3.341-1.209-4.487-4.741-4.487-3.341,0-4.71,1.623-4.71,5v7.732c0,3.405,1.4,5.06,4.71,5.06,3.532,0,4.741-1.146,4.741-4.551v-1.178h2.928V821.2c0,4.646-2,7.223-7.669,7.223-5.442,0-7.638-2.928-7.638-7.605v-7.828c0-4.646,2.291-7.605,7.733-7.605,5.664,0,7.574,2.673,7.574,7.255v.923Z" transform="translate(-555.159 -805.38)" fill="#7c7c7c"></path>
          <path id="Path_125308" data-name="Path 125308" d="M582.909,805.853v19.475h8.56v2.8H579.981V805.853Z" transform="translate(-559.932 -805.471)" fill="#7c7c7c"></path>
          <path id="Path_125309" data-name="Path 125309" d="M601.585,828.129h-2.928V805.853h2.928Z" transform="translate(-563.524 -805.471)" fill="#7c7c7c"></path>
          <path id="Path_125310" data-name="Path 125310" d="M611.671,808.557v6.333h9.26v2.673h-9.26v7.828h9.865v2.737H608.743V805.853h12.792v2.7Z" transform="translate(-565.463 -805.471)" fill="#7c7c7c"></path>
          <path id="Path_125311" data-name="Path 125311" d="M645.445,805.853v22.276H642.74l-8.5-14.989-1.5-2.9.1,4.264v13.62h-2.864V805.853h2.9l8.306,14.32L642.676,823l-.1-4.2V805.853Z" transform="translate(-569.547 -805.471)" fill="#7c7c7c"></path>
          <path id="Path_125312" data-name="Path 125312" d="M653.186,805.853h15.147v2.8h-6.109v19.476H659.3V808.652h-6.109Z" transform="translate(-574.009 -805.471)" fill="#7c7c7c"></path>
          <path id="Path_125313" data-name="Path 125313" d="M690.727,805.853c4.869,0,7.7,2.736,7.7,7.638v7c0,4.805-2.769,7.638-7.7,7.638h-7.638V805.853Zm-.414,19.538c3.533,0,5.187-1.5,5.187-5.187v-6.4c0-3.627-1.559-5.251-5.187-5.251h-4.3v16.834Z" transform="translate(-579.76 -805.471)" fill="#7c7c7c"></path>
          <path id="Path_125314" data-name="Path 125314" d="M712.2,805.853h4.741l6.143,22.276H720l-1.464-5.442h-7.956l-1.4,5.442H706.06Zm2.833,2.928h-.892l-2.959,11.3h6.811Z" transform="translate(-584.177 -805.471)" fill="#7c7c7c"></path>
          <path id="Path_125315" data-name="Path 125315" d="M726.784,805.853h15.148v2.8h-6.109v19.476h-2.928V808.652h-6.11Z" transform="translate(-588.162 -805.471)" fill="#7c7c7c"></path>
          <path id="Path_125316" data-name="Path 125316" d="M751.286,805.853h4.741l6.143,22.276h-3.088l-1.464-5.442h-7.956l-1.4,5.442h-3.118Zm2.833,2.928h-.892l-2.959,11.3h6.811Z" transform="translate(-591.693 -805.471)" fill="#7c7c7c"></path>
        </g>
        <g id="Group_3145" data-name="Group 3145">
          <path id="Path_125317" data-name="Path 125317" d="M496.88,825.578h-9.173a3.347,3.347,0,0,0-3.336,3.336v3.336h3.336v-3.336h9.173Z" transform="translate(-484.371 -798.893)" fill="#7c7c7c"></path>
          <path id="Path_125318" data-name="Path 125318" d="M527.615,825.578h-9.173v3.336h9.173v3.336h3.336v-3.336A3.347,3.347,0,0,0,527.615,825.578Z" transform="translate(-490.923 -798.893)" fill="#7c7c7c"></path>
          <path id="Path_125319" data-name="Path 125319" d="M507.959,819.383a5,5,0,1,0,5,5A5,5,0,0,0,507.959,819.383Zm0,6.672a1.668,1.668,0,1,1,1.668-1.668A1.667,1.667,0,0,1,507.959,826.055Z" transform="translate(-487.945 -797.702)" fill="#7c7c7c"></path>
          <path id="Path_125320" data-name="Path 125320" d="M502.161,837.174h10.007v3.336H515.5v-3.336a3.347,3.347,0,0,0-3.336-3.336H502.161a3.346,3.346,0,0,0-3.336,3.336v3.336h3.336Z" transform="translate(-487.15 -800.482)" fill="#7c7c7c"></path>
          <path id="Path_125321" data-name="Path 125321" d="M518.522,807.856v-8.646l-6.672-6.671H491.837v15.316a5,5,0,1,0,3.335,0V795.876h15.01v5h5v6.978a5,5,0,1,0,3.337,0ZM493.5,814.221a1.667,1.667,0,1,1,1.668-1.667A1.668,1.668,0,0,1,493.5,814.221Zm23.35,0a1.667,1.667,0,1,1,1.668-1.667A1.667,1.667,0,0,1,516.855,814.221Z" transform="translate(-485.165 -792.54)" fill="#7c7c7c"></path>
          <rect id="Rectangle_3125" data-name="Rectangle 3125" width="10.007" height="2.502" transform="translate(12.509 5.837)" fill="#7c7c7c"></rect>
          <rect id="Rectangle_3126" data-name="Rectangle 3126" width="15.011" height="2.502" transform="translate(12.509 10.841)" fill="#7c7c7c"></rect>
          <rect id="Rectangle_3127" data-name="Rectangle 3127" width="10.007" height="2.502" transform="translate(15.011 15.844)" fill="#7c7c7c"></rect>
        </g>
      </g>
    </g>
    <g id="Group_3148" data-name="Group 3148" transform="translate(547.945 1033.047)">
      <path id="Path_125322" data-name="Path 125322" d="M623.358,1092.771v3.972h4.418v1.154h-4.418v4.055h4.912v1.22h-6.413v-11.622h6.413v1.22Z" transform="translate(-621.857 -1090.546)" fill="#703dc1"></path>
      <path id="Path_125323" data-name="Path 125323" d="M645.859,1095.565a4.083,4.083,0,0,1,.965,2.926v5.258h-1.5v-5.126a2.913,2.913,0,0,0-.65-2.043,2.31,2.31,0,0,0-1.789-.71,2.46,2.46,0,0,0-1.9.783,3.3,3.3,0,0,0-.716,2.3v4.8h-1.5v-5.126a2.889,2.889,0,0,0-.659-2.043,2.314,2.314,0,0,0-1.78-.71,2.476,2.476,0,0,0-1.921.783,3.3,3.3,0,0,0-.717,2.3v4.8h-1.5v-9.05h1.5v2.061a2.932,2.932,0,0,1,1.178-1.641,3.679,3.679,0,0,1,3.956.015,3.185,3.185,0,0,1,1.212,1.723,3.274,3.274,0,0,1,1.271-1.7,3.5,3.5,0,0,1,2.01-.6A3.351,3.351,0,0,1,645.859,1095.565Z" transform="translate(-623.843 -1091.123)" fill="#703dc1"></path>
      <path id="Path_125324" data-name="Path 125324" d="M659.024,1095.251a3.443,3.443,0,0,1,1.278,1.765v-2.308h1.5v9.05h-1.5v-2.307a3.443,3.443,0,0,1-1.278,1.765,3.725,3.725,0,0,1-2.234.659,4.1,4.1,0,0,1-2.143-.561,3.865,3.865,0,0,1-1.475-1.607,5.948,5.948,0,0,1,0-4.937,3.865,3.865,0,0,1,1.475-1.616,4.1,4.1,0,0,1,2.143-.561A3.725,3.725,0,0,1,659.024,1095.251ZM655,1096.81a3.965,3.965,0,0,0,0,4.862,2.906,2.906,0,0,0,2.218.883,3.081,3.081,0,0,0,1.59-.413,2.864,2.864,0,0,0,1.1-1.161,3.673,3.673,0,0,0,.4-1.74,3.716,3.716,0,0,0-.4-1.747,2.8,2.8,0,0,0-1.1-1.162,3.124,3.124,0,0,0-1.59-.4A2.9,2.9,0,0,0,655,1096.81Z" transform="translate(-627.776 -1091.131)" fill="#703dc1"></path>
      <path id="Path_125325" data-name="Path 125325" d="M666.9,1090.562a1.206,1.206,0,0,1,1.484,0,.936.936,0,0,1,0,1.334,1.2,1.2,0,0,1-1.484,0,.933.933,0,0,1,0-1.334Zm1.484,3.321v9.05h-1.5v-9.05Z" transform="translate(-630.464 -1090.307)" fill="#703dc1"></path>
      <path id="Path_125326" data-name="Path 125326" d="M673.282,1090.837v12.2h-1.5v-12.2Z" transform="translate(-631.457 -1090.409)" fill="#703dc1"></path>
    </g>
    <g id="Group_3149" data-name="Group 3149" transform="translate(406.585 1121.815)">
      <path id="Path_125327" data-name="Path 125327" d="M453.419,1200.209v1.22h-5.077v4.022h4.3v1.17h-4.3v5.21h-1.5v-11.623Z" transform="translate(-446.842 -1200.209)" fill="#703dc1"></path>
      <path id="Path_125328" data-name="Path 125328" d="M463.52,1203.811a4.008,4.008,0,0,1,1.615,1.615,5.5,5.5,0,0,1,0,4.938,4.018,4.018,0,0,1-1.615,1.607,5.141,5.141,0,0,1-4.665,0,4.078,4.078,0,0,1-1.623-1.607,5.432,5.432,0,0,1,0-4.938,4.067,4.067,0,0,1,1.623-1.615,5.134,5.134,0,0,1,4.665,0Zm-3.824,1.121a2.724,2.724,0,0,0-1.1,1.113,4.261,4.261,0,0,0,0,3.693,2.718,2.718,0,0,0,1.1,1.112,3.25,3.25,0,0,0,2.984,0,2.724,2.724,0,0,0,1.1-1.112,4.261,4.261,0,0,0,0-3.693,2.731,2.731,0,0,0-1.1-1.113,3.25,3.25,0,0,0-2.984,0Z" transform="translate(-448.726 -1200.794)" fill="#703dc1"></path>
      <path id="Path_125329" data-name="Path 125329" d="M473.116,1203.729a3.865,3.865,0,0,1,2.043-.519v1.632H474.7a3.2,3.2,0,0,0-2.077.651,2.608,2.608,0,0,0-.808,2.152v4.765h-1.5v-9.05h1.5v1.829A3.318,3.318,0,0,1,473.116,1203.729Z" transform="translate(-451.355 -1200.786)" fill="#703dc1"></path>
      <path id="Path_125330" data-name="Path 125330" d="M491.824,1204.224a4.082,4.082,0,0,1,.964,2.926v5.259h-1.5v-5.127a2.92,2.92,0,0,0-.651-2.044,2.31,2.31,0,0,0-1.789-.708,2.458,2.458,0,0,0-1.9.783,3.294,3.294,0,0,0-.717,2.3v4.8h-1.5v-5.127a2.9,2.9,0,0,0-.659-2.044,2.317,2.317,0,0,0-1.781-.708,2.475,2.475,0,0,0-1.92.783,3.294,3.294,0,0,0-.717,2.3v4.8h-1.5v-9.05h1.5v2.06a2.936,2.936,0,0,1,1.178-1.64,3.678,3.678,0,0,1,3.956.017,3.176,3.176,0,0,1,1.212,1.722,3.271,3.271,0,0,1,1.27-1.706,3.507,3.507,0,0,1,2.011-.6A3.351,3.351,0,0,1,491.824,1204.224Z" transform="translate(-452.862 -1200.786)" fill="#703dc1"></path>
      <path id="Path_125331" data-name="Path 125331" d="M504.362,1204.05a3.37,3.37,0,0,1,1.129,2.152h-1.434a2.074,2.074,0,0,0-.667-1.327,2.174,2.174,0,0,0-1.525-.519,1.878,1.878,0,0,0-1.261.388,1.306,1.306,0,0,0-.454,1.047,1.081,1.081,0,0,0,.305.8,1.944,1.944,0,0,0,.758.461,12.316,12.316,0,0,0,1.245.338,12.32,12.32,0,0,1,1.624.47,2.547,2.547,0,0,1,1.055.767,2.158,2.158,0,0,1,.437,1.417,2.229,2.229,0,0,1-.832,1.8,3.357,3.357,0,0,1-2.218.692,4.243,4.243,0,0,1-2.637-.775,3.087,3.087,0,0,1-1.2-2.16h1.451a1.891,1.891,0,0,0,.716,1.336,2.59,2.59,0,0,0,1.674.511,1.737,1.737,0,0,0,1.212-.4,1.332,1.332,0,0,0,.437-1.038,1.138,1.138,0,0,0-.313-.841,2.054,2.054,0,0,0-.775-.478,11.216,11.216,0,0,0-1.269-.346,12.24,12.24,0,0,1-1.608-.463,2.449,2.449,0,0,1-1.022-.733,2.05,2.05,0,0,1-.42-1.359,2.278,2.278,0,0,1,.84-1.838,3.474,3.474,0,0,1,2.292-.7A3.652,3.652,0,0,1,504.362,1204.05Z" transform="translate(-456.811 -1200.794)" fill="#703dc1"></path>
    </g>
    <g id="Group_3150" data-name="Group 3150" transform="translate(359.054 1304.017)">
      <path id="Path_125332" data-name="Path 125332" d="M389.495,1433.445v4.682h-1.5V1426.5h3.692a4.217,4.217,0,0,1,2.984.931,3.334,3.334,0,0,1,.989,2.547,3.245,3.245,0,0,1-1.021,2.547,4.285,4.285,0,0,1-2.952.915Zm4.03-1.83a2.547,2.547,0,0,0,0-3.288,2.812,2.812,0,0,0-1.971-.569h-2.06v4.434h2.06A2.784,2.784,0,0,0,393.525,1431.614Z" transform="translate(-387.994 -1425.927)" fill="#703dc1"></path>
      <path id="Path_125333" data-name="Path 125333" d="M406.967,1429.8a4.064,4.064,0,0,1,.973,2.926v5.259h-1.5v-5.127a2.892,2.892,0,0,0-.693-2.077,2.474,2.474,0,0,0-1.88-.726,2.569,2.569,0,0,0-1.978.8,3.314,3.314,0,0,0-.741,2.333v4.8h-1.5v-12.2h1.5v5.292a3.081,3.081,0,0,1,1.228-1.7,3.559,3.559,0,0,1,2.036-.593A3.377,3.377,0,0,1,406.967,1429.8Z" transform="translate(-390.235 -1425.79)" fill="#703dc1"></path>
      <path id="Path_125334" data-name="Path 125334" d="M419.1,1430.105a4.009,4.009,0,0,1,1.615,1.615,5.5,5.5,0,0,1,0,4.938,4.018,4.018,0,0,1-1.615,1.607,5.14,5.14,0,0,1-4.665,0,4.078,4.078,0,0,1-1.623-1.607,5.432,5.432,0,0,1,0-4.938,4.068,4.068,0,0,1,1.623-1.615,5.134,5.134,0,0,1,4.665,0Zm-3.824,1.121a2.724,2.724,0,0,0-1.1,1.113,4.261,4.261,0,0,0,0,3.693,2.716,2.716,0,0,0,1.1,1.112,3.249,3.249,0,0,0,2.984,0,2.723,2.723,0,0,0,1.1-1.112,4.261,4.261,0,0,0,0-3.693,2.731,2.731,0,0,0-1.1-1.113,3.251,3.251,0,0,0-2.984,0Z" transform="translate(-392.653 -1426.512)" fill="#703dc1"></path>
      <path id="Path_125335" data-name="Path 125335" d="M433.215,1430.519a4.064,4.064,0,0,1,.973,2.927v5.259h-1.5v-5.127a2.888,2.888,0,0,0-.693-2.077,2.474,2.474,0,0,0-1.88-.726,2.569,2.569,0,0,0-1.978.8,3.314,3.314,0,0,0-.741,2.333v4.8h-1.5v-9.051h1.5v2.144a3.08,3.08,0,0,1,1.228-1.7,3.559,3.559,0,0,1,2.036-.593A3.377,3.377,0,0,1,433.215,1430.519Z" transform="translate(-395.282 -1426.504)" fill="#703dc1"></path>
      <path id="Path_125336" data-name="Path 125336" d="M447.173,1434.507h-7.237a3.164,3.164,0,0,0,.882,2.325,2.875,2.875,0,0,0,2.035.775,2.939,2.939,0,0,0,1.821-.552,2.284,2.284,0,0,0,.9-1.476h1.6a3.775,3.775,0,0,1-2.209,2.835,4.887,4.887,0,0,1-2.044.412,4.658,4.658,0,0,1-2.308-.56,3.965,3.965,0,0,1-1.574-1.607,5.645,5.645,0,0,1,0-4.938,3.957,3.957,0,0,1,1.574-1.615,4.669,4.669,0,0,1,2.308-.561,4.561,4.561,0,0,1,2.3.561,3.863,3.863,0,0,1,1.5,1.5,4.223,4.223,0,0,1,.519,2.077A4.489,4.489,0,0,1,447.173,1434.507Zm-1.78-2.406a2.411,2.411,0,0,0-1.039-1.006,3.167,3.167,0,0,0-1.434-.33,2.968,2.968,0,0,0-2.077.767,3.087,3.087,0,0,0-.906,2.25h5.786A3.085,3.085,0,0,0,445.392,1432.1Z" transform="translate(-397.7 -1426.512)" fill="#703dc1"></path>
    </g>
    <g id="Group_3151" data-name="Group 3151" transform="translate(532.655 1248.839)">
      <path id="Path_125337" data-name="Path 125337" d="M614.565,1358.965v11.424h-1.5v-9.116l-3.644,9.116h-1.335l-3.66-9.083v9.083h-1.5v-11.424h1.8l4.055,9.595,3.989-9.595Z" transform="translate(-602.927 -1357.761)" fill="#703dc1"></path>
      <path id="Path_125338" data-name="Path 125338" d="M628.47,1366.723h-7.237a3.164,3.164,0,0,0,.882,2.324,2.874,2.874,0,0,0,2.035.775,2.94,2.94,0,0,0,1.821-.552,2.284,2.284,0,0,0,.9-1.477h1.6a3.778,3.778,0,0,1-2.209,2.836,4.888,4.888,0,0,1-2.045.412,4.666,4.666,0,0,1-2.308-.56,3.957,3.957,0,0,1-1.574-1.608,5.088,5.088,0,0,1-.569-2.464,5.142,5.142,0,0,1,.569-2.473,3.951,3.951,0,0,1,1.574-1.615,4.666,4.666,0,0,1,2.308-.561,4.563,4.563,0,0,1,2.3.561,3.854,3.854,0,0,1,1.5,1.5,4.215,4.215,0,0,1,.519,2.077A4.489,4.489,0,0,1,628.47,1366.723Zm-1.78-2.406a2.414,2.414,0,0,0-1.039-1.006,3.167,3.167,0,0,0-1.435-.33,2.968,2.968,0,0,0-2.077.767,3.088,3.088,0,0,0-.906,2.25h5.786A3.091,3.091,0,0,0,626.689,1364.317Z" transform="translate(-606.165 -1358.299)" fill="#703dc1"></path>
      <path id="Path_125339" data-name="Path 125339" d="M641.2,1366.723h-7.237a3.167,3.167,0,0,0,.882,2.324,2.877,2.877,0,0,0,2.036.775,2.943,2.943,0,0,0,1.821-.552,2.287,2.287,0,0,0,.9-1.477h1.6A3.778,3.778,0,0,1,639,1370.63a4.887,4.887,0,0,1-2.044.412,4.669,4.669,0,0,1-2.308-.56,3.963,3.963,0,0,1-1.574-1.608,5.088,5.088,0,0,1-.569-2.464,5.142,5.142,0,0,1,.569-2.473,3.956,3.956,0,0,1,1.574-1.615,4.669,4.669,0,0,1,2.308-.561,4.558,4.558,0,0,1,2.3.561,3.86,3.86,0,0,1,1.5,1.5,4.214,4.214,0,0,1,.519,2.077A4.489,4.489,0,0,1,641.2,1366.723Zm-1.78-2.406a2.41,2.41,0,0,0-1.039-1.006,3.166,3.166,0,0,0-1.434-.33,2.97,2.97,0,0,0-2.077.767,3.087,3.087,0,0,0-.906,2.25h5.786A3.083,3.083,0,0,0,639.424,1364.317Z" transform="translate(-608.614 -1358.299)" fill="#703dc1"></path>
      <path id="Path_125340" data-name="Path 125340" d="M649.892,1369.1v1.318H648.77a2.877,2.877,0,0,1-2.069-.659,2.977,2.977,0,0,1-.684-2.209v-4.879h-1.352v-1.3h1.352v-2.259h1.517v2.259h2.341v1.3h-2.341v4.912a1.7,1.7,0,0,0,.321,1.195,1.546,1.546,0,0,0,1.113.322Z" transform="translate(-610.953 -1357.789)" fill="#703dc1"></path>
      <path id="Path_125341" data-name="Path 125341" d="M653.355,1357.73a1.206,1.206,0,0,1,1.484,0,.937.937,0,0,1,0,1.335,1.2,1.2,0,0,1-1.484,0,.933.933,0,0,1,0-1.335Zm1.484,3.322v9.05h-1.5v-9.05Z" transform="translate(-612.57 -1357.475)" fill="#703dc1"></path>
      <path id="Path_125342" data-name="Path 125342" d="M665.557,1362.735a4.064,4.064,0,0,1,.973,2.926v5.258h-1.5v-5.126a2.894,2.894,0,0,0-.692-2.077,2.478,2.478,0,0,0-1.879-.725,2.568,2.568,0,0,0-1.978.8,3.309,3.309,0,0,0-.741,2.333v4.8h-1.5v-9.05h1.5v2.144a3.08,3.08,0,0,1,1.228-1.7,3.559,3.559,0,0,1,2.036-.593A3.378,3.378,0,0,1,665.557,1362.735Z" transform="translate(-613.563 -1358.292)" fill="#703dc1"></path>
      <path id="Path_125343" data-name="Path 125343" d="M677.2,1362.42a3.439,3.439,0,0,1,1.278,1.765v-2.308h1.5v9.2a4.6,4.6,0,0,1-.527,2.226,3.785,3.785,0,0,1-1.484,1.516,4.423,4.423,0,0,1-2.225.544,4.781,4.781,0,0,1-2.984-.882,3.891,3.891,0,0,1-1.468-2.382h1.484a2.563,2.563,0,0,0,1,1.426,3.189,3.189,0,0,0,1.888.519,2.768,2.768,0,0,0,2.019-.784,2.917,2.917,0,0,0,.8-2.184v-2.456a3.434,3.434,0,0,1-1.278,1.764,3.72,3.72,0,0,1-2.234.659,4.1,4.1,0,0,1-2.143-.56,3.866,3.866,0,0,1-1.475-1.608,5.332,5.332,0,0,1-.536-2.464,5.389,5.389,0,0,1,.536-2.473,3.862,3.862,0,0,1,1.475-1.615,4.105,4.105,0,0,1,2.143-.561A3.72,3.72,0,0,1,677.2,1362.42Zm-4.022,1.559a3.965,3.965,0,0,0,0,4.862,2.9,2.9,0,0,0,2.217.882,3.083,3.083,0,0,0,1.591-.412,2.867,2.867,0,0,0,1.1-1.162,3.67,3.67,0,0,0,.4-1.739,3.714,3.714,0,0,0-.4-1.747,2.811,2.811,0,0,0-1.1-1.163,3.134,3.134,0,0,0-1.591-.4A2.9,2.9,0,0,0,673.177,1363.979Z" transform="translate(-615.981 -1358.299)" fill="#703dc1"></path>
      <path id="Path_125344" data-name="Path 125344" d="M690.328,1362.561a3.37,3.37,0,0,1,1.129,2.152h-1.434a2.078,2.078,0,0,0-.667-1.328,2.178,2.178,0,0,0-1.525-.518,1.885,1.885,0,0,0-1.262.387,1.307,1.307,0,0,0-.453,1.047,1.082,1.082,0,0,0,.305.8,1.955,1.955,0,0,0,.758.461,12.587,12.587,0,0,0,1.245.338,12.357,12.357,0,0,1,1.624.47,2.539,2.539,0,0,1,1.055.767,2.157,2.157,0,0,1,.437,1.417,2.229,2.229,0,0,1-.833,1.8,3.353,3.353,0,0,1-2.217.692,4.241,4.241,0,0,1-2.637-.775,3.092,3.092,0,0,1-1.2-2.16H686.1a1.892,1.892,0,0,0,.717,1.335,2.588,2.588,0,0,0,1.674.511,1.736,1.736,0,0,0,1.212-.4,1.333,1.333,0,0,0,.437-1.038,1.14,1.14,0,0,0-.313-.841,2.053,2.053,0,0,0-.775-.478,11.214,11.214,0,0,0-1.27-.347,12.127,12.127,0,0,1-1.607-.462,2.449,2.449,0,0,1-1.022-.733,2.052,2.052,0,0,1-.42-1.36,2.278,2.278,0,0,1,.84-1.838,3.473,3.473,0,0,1,2.292-.7A3.653,3.653,0,0,1,690.328,1362.561Z" transform="translate(-618.642 -1358.299)" fill="#703dc1"></path>
    </g>
    <g id="Group_3152" data-name="Group 3152" transform="translate(734.042 1305.702)">
      <path id="Path_125345" data-name="Path 125345" d="M859.612,1438.694a2.981,2.981,0,0,1-1.2,1.153,4.092,4.092,0,0,1-1.995.445,4.793,4.793,0,0,1-2.052-.42,3.646,3.646,0,0,1-1.434-1.154,3.265,3.265,0,0,1-.619-1.673h1.6a2.27,2.27,0,0,0,1.162,1.739,2.574,2.574,0,0,0,1.294.305,2.052,2.052,0,0,0,1.517-.528,1.83,1.83,0,0,0,.527-1.351,1.744,1.744,0,0,0-.371-1.154,2.648,2.648,0,0,0-.915-.7,12.243,12.243,0,0,0-1.484-.552,15.135,15.135,0,0,1-1.772-.684,3.025,3.025,0,0,1-1.137-.965,2.807,2.807,0,0,1-.47-1.7,2.935,2.935,0,0,1,.437-1.6,2.865,2.865,0,0,1,1.253-1.071,4.516,4.516,0,0,1,1.92-.38,4.134,4.134,0,0,1,2.721.833,3.187,3.187,0,0,1,1.17,2.118h-1.615a2.189,2.189,0,0,0-.709-1.22,2.232,2.232,0,0,0-1.567-.528,2.136,2.136,0,0,0-1.45.471,1.881,1.881,0,0,0-.19,2.423,2.466,2.466,0,0,0,.882.659,14.336,14.336,0,0,0,1.451.535,14.881,14.881,0,0,1,1.805.692,3.058,3.058,0,0,1,1.162,1,2.987,2.987,0,0,1,.478,1.772A3.1,3.1,0,0,1,859.612,1438.694Z" transform="translate(-852.26 -1427.978)" fill="#703dc1"></path>
      <path id="Path_125346" data-name="Path 125346" d="M871.662,1431.89a4.064,4.064,0,0,1,.973,2.926v5.258h-1.5v-5.127a2.892,2.892,0,0,0-.692-2.077,2.477,2.477,0,0,0-1.88-.726,2.569,2.569,0,0,0-1.978.8,3.314,3.314,0,0,0-.741,2.333v4.8h-1.5v-12.2h1.5v5.292a3.078,3.078,0,0,1,1.229-1.7,3.555,3.555,0,0,1,2.035-.593A3.376,3.376,0,0,1,871.662,1431.89Z" transform="translate(-854.584 -1427.876)" fill="#703dc1"></path>
      <path id="Path_125347" data-name="Path 125347" d="M883.3,1432.29a3.44,3.44,0,0,1,1.278,1.765v-2.308h1.5v9.05h-1.5v-2.308a3.435,3.435,0,0,1-1.278,1.764,3.714,3.714,0,0,1-2.233.659,4.1,4.1,0,0,1-2.144-.56,3.877,3.877,0,0,1-1.475-1.608,5.343,5.343,0,0,1-.536-2.464,5.4,5.4,0,0,1,.536-2.473,3.873,3.873,0,0,1,1.475-1.615,4.109,4.109,0,0,1,2.144-.561A3.719,3.719,0,0,1,883.3,1432.29Zm-4.022,1.559a3.962,3.962,0,0,0,0,4.862,2.9,2.9,0,0,0,2.217.882,3.086,3.086,0,0,0,1.591-.412,2.861,2.861,0,0,0,1.1-1.162,3.67,3.67,0,0,0,.4-1.739,3.717,3.717,0,0,0-.4-1.747,2.8,2.8,0,0,0-1.1-1.163,3.136,3.136,0,0,0-1.591-.4A2.9,2.9,0,0,0,879.282,1433.849Z" transform="translate(-857.001 -1428.598)" fill="#703dc1"></path>
      <path id="Path_125348" data-name="Path 125348" d="M894.026,1432.11a3.874,3.874,0,0,1,2.044-.519v1.632h-.462a3.205,3.205,0,0,0-2.077.651,2.609,2.609,0,0,0-.808,2.152v4.764h-1.5v-9.05h1.5v1.83A3.325,3.325,0,0,1,894.026,1432.11Z" transform="translate(-859.753 -1428.59)" fill="#703dc1"></path>
      <path id="Path_125349" data-name="Path 125349" d="M907.214,1436.593h-7.237a3.163,3.163,0,0,0,.882,2.324,2.874,2.874,0,0,0,2.035.775,2.939,2.939,0,0,0,1.821-.552,2.284,2.284,0,0,0,.9-1.476h1.6A3.776,3.776,0,0,1,905,1440.5a4.891,4.891,0,0,1-2.044.412,4.658,4.658,0,0,1-2.308-.56,3.962,3.962,0,0,1-1.574-1.608,5.087,5.087,0,0,1-.569-2.464,5.141,5.141,0,0,1,.569-2.473,3.957,3.957,0,0,1,1.574-1.615,4.669,4.669,0,0,1,2.308-.561,4.562,4.562,0,0,1,2.3.561,3.862,3.862,0,0,1,1.5,1.5,4.223,4.223,0,0,1,.519,2.077A4.489,4.489,0,0,1,907.214,1436.593Zm-1.78-2.406a2.411,2.411,0,0,0-1.039-1.006,3.167,3.167,0,0,0-1.434-.33,2.969,2.969,0,0,0-2.077.767,3.088,3.088,0,0,0-.906,2.25h5.786A3.084,3.084,0,0,0,905.433,1434.187Z" transform="translate(-861.154 -1428.598)" fill="#703dc1"></path>
      <path id="Path_125350" data-name="Path 125350" d="M917.633,1431.568a3.435,3.435,0,0,1,1.278,1.765v-5.457h1.5v12.2h-1.5v-2.308a3.43,3.43,0,0,1-1.278,1.764,3.712,3.712,0,0,1-2.233.659,4.1,4.1,0,0,1-2.144-.56,3.876,3.876,0,0,1-1.475-1.608,5.342,5.342,0,0,1-.536-2.464,5.4,5.4,0,0,1,.536-2.473,3.872,3.872,0,0,1,1.475-1.615,4.112,4.112,0,0,1,2.144-.561A3.717,3.717,0,0,1,917.633,1431.568Zm-4.022,1.559a3.965,3.965,0,0,0,0,4.862,2.9,2.9,0,0,0,2.217.882,3.083,3.083,0,0,0,1.591-.412,2.86,2.86,0,0,0,1.1-1.162,3.669,3.669,0,0,0,.4-1.739,3.716,3.716,0,0,0-.4-1.747,2.8,2.8,0,0,0-1.1-1.163,3.134,3.134,0,0,0-1.591-.4A2.9,2.9,0,0,0,913.612,1433.127Z" transform="translate(-863.603 -1427.876)" fill="#703dc1"></path>
      <path id="Path_125351" data-name="Path 125351" d="M859.133,1453.082v1.22h-5.077v4.022h4.3v1.17h-4.3v5.21h-1.5v-11.623Z" transform="translate(-852.317 -1432.723)" fill="#703dc1"></path>
      <path id="Path_125352" data-name="Path 125352" d="M869.234,1456.684a4.009,4.009,0,0,1,1.615,1.615,5.5,5.5,0,0,1,0,4.938,4.019,4.019,0,0,1-1.615,1.607,5.141,5.141,0,0,1-4.665,0,4.078,4.078,0,0,1-1.623-1.607,5.431,5.431,0,0,1,0-4.938,4.067,4.067,0,0,1,1.623-1.615,5.134,5.134,0,0,1,4.665,0Zm-3.824,1.121a2.726,2.726,0,0,0-1.1,1.113,4.262,4.262,0,0,0,0,3.693,2.717,2.717,0,0,0,1.1,1.112,3.25,3.25,0,0,0,2.984,0,2.728,2.728,0,0,0,1.1-1.112,4.262,4.262,0,0,0,0-3.693,2.737,2.737,0,0,0-1.1-1.113,3.251,3.251,0,0,0-2.984,0Z" transform="translate(-854.201 -1433.308)" fill="#703dc1"></path>
      <path id="Path_125353" data-name="Path 125353" d="M877.528,1452.368v12.2h-1.5v-12.2Z" transform="translate(-856.83 -1432.586)" fill="#703dc1"></path>
      <path id="Path_125354" data-name="Path 125354" d="M886.7,1456.06a3.44,3.44,0,0,1,1.278,1.765v-5.457h1.5v12.2h-1.5v-2.308a3.435,3.435,0,0,1-1.278,1.764,3.715,3.715,0,0,1-2.234.659,4.1,4.1,0,0,1-2.143-.56,3.869,3.869,0,0,1-1.475-1.607,5.944,5.944,0,0,1,0-4.938,3.861,3.861,0,0,1,1.475-1.615,4.106,4.106,0,0,1,2.143-.561A3.726,3.726,0,0,1,886.7,1456.06Zm-4.022,1.559a3.966,3.966,0,0,0,0,4.863,2.9,2.9,0,0,0,2.217.881,3.08,3.08,0,0,0,1.591-.411,2.867,2.867,0,0,0,1.1-1.163,3.661,3.661,0,0,0,.4-1.739,3.71,3.71,0,0,0-.4-1.747,2.8,2.8,0,0,0-1.1-1.163,3.132,3.132,0,0,0-1.591-.4A2.905,2.905,0,0,0,882.679,1457.619Z" transform="translate(-857.654 -1432.586)" fill="#703dc1"></path>
      <path id="Path_125355" data-name="Path 125355" d="M902.774,1461.085h-7.237a3.167,3.167,0,0,0,.882,2.325,2.877,2.877,0,0,0,2.035.775,2.943,2.943,0,0,0,1.821-.552,2.288,2.288,0,0,0,.9-1.476h1.6a3.779,3.779,0,0,1-2.21,2.835,4.886,4.886,0,0,1-2.044.412,4.658,4.658,0,0,1-2.308-.56,3.967,3.967,0,0,1-1.575-1.607,5.645,5.645,0,0,1,0-4.938,3.958,3.958,0,0,1,1.575-1.615,4.666,4.666,0,0,1,2.308-.561,4.563,4.563,0,0,1,2.3.561,3.864,3.864,0,0,1,1.5,1.5,4.217,4.217,0,0,1,.519,2.077A4.567,4.567,0,0,1,902.774,1461.085Zm-1.78-2.407a2.417,2.417,0,0,0-1.039-1.006,3.173,3.173,0,0,0-1.434-.329,2.966,2.966,0,0,0-2.077.766,3.082,3.082,0,0,0-.906,2.25h5.786A3.093,3.093,0,0,0,900.994,1458.679Z" transform="translate(-860.3 -1433.308)" fill="#703dc1"></path>
      <path id="Path_125356" data-name="Path 125356" d="M910.159,1456.6a3.867,3.867,0,0,1,2.044-.519v1.632h-.461a3.2,3.2,0,0,0-2.077.65,2.608,2.608,0,0,0-.808,2.152v4.765h-1.5v-9.05h1.5v1.829A3.32,3.32,0,0,1,910.159,1456.6Z" transform="translate(-862.855 -1433.3)" fill="#703dc1"></path>
      <path id="Path_125357" data-name="Path 125357" d="M920.4,1456.923a3.37,3.37,0,0,1,1.129,2.152H920.1a2.076,2.076,0,0,0-.667-1.327,2.174,2.174,0,0,0-1.525-.519,1.879,1.879,0,0,0-1.261.388,1.306,1.306,0,0,0-.454,1.047,1.081,1.081,0,0,0,.305.8,1.944,1.944,0,0,0,.758.461,12.357,12.357,0,0,0,1.245.338,12.429,12.429,0,0,1,1.624.47,2.548,2.548,0,0,1,1.055.766,2.158,2.158,0,0,1,.437,1.417,2.229,2.229,0,0,1-.832,1.8,3.357,3.357,0,0,1-2.218.692,4.243,4.243,0,0,1-2.637-.775,3.087,3.087,0,0,1-1.2-2.16h1.451a1.891,1.891,0,0,0,.716,1.336,2.59,2.59,0,0,0,1.674.511,1.736,1.736,0,0,0,1.212-.4,1.332,1.332,0,0,0,.437-1.038,1.137,1.137,0,0,0-.313-.841,2.053,2.053,0,0,0-.775-.478,11.19,11.19,0,0,0-1.269-.346,12.245,12.245,0,0,1-1.608-.463,2.45,2.45,0,0,1-1.022-.734,2.049,2.049,0,0,1-.42-1.359,2.278,2.278,0,0,1,.84-1.838,3.474,3.474,0,0,1,2.292-.7A3.653,3.653,0,0,1,920.4,1456.923Z" transform="translate(-864.272 -1433.308)" fill="#703dc1"></path>
    </g>
    <g id="Group_3153" data-name="Group 3153" transform="translate(662.152 1122.151)">
      <path id="Path_125358" data-name="Path 125358" d="M798.191,1202.445a5.4,5.4,0,0,1,2.037,2.118,6.745,6.745,0,0,1,0,6.149,5.4,5.4,0,0,1-2.037,2.119,5.643,5.643,0,0,1-2.909.759,5.738,5.738,0,0,1-2.927-.759,5.362,5.362,0,0,1-2.052-2.119,6.745,6.745,0,0,1,0-6.149,5.366,5.366,0,0,1,2.052-2.118,5.738,5.738,0,0,1,2.927-.758A5.643,5.643,0,0,1,798.191,1202.445Zm-5.061,1.195a3.839,3.839,0,0,0-1.483,1.582,5.689,5.689,0,0,0,0,4.823,3.818,3.818,0,0,0,1.483,1.591,4.194,4.194,0,0,0,2.153.552,4.108,4.108,0,0,0,2.134-.561,3.879,3.879,0,0,0,1.484-1.591,5.678,5.678,0,0,0,0-4.814,3.84,3.84,0,0,0-1.484-1.582,4.439,4.439,0,0,0-4.286,0Z" transform="translate(-768.313 -1200.829)" fill="#703dc1"></path>
      <path id="Path_125359" data-name="Path 125359" d="M813.515,1205.885a4.064,4.064,0,0,1,.973,2.926v5.259h-1.5v-5.127a2.892,2.892,0,0,0-.692-2.077,2.476,2.476,0,0,0-1.88-.726,2.566,2.566,0,0,0-1.978.8,3.308,3.308,0,0,0-.741,2.332v4.8h-1.5v-9.05h1.5v2.143a3.083,3.083,0,0,1,1.228-1.7,3.56,3.56,0,0,1,2.036-.593A3.378,3.378,0,0,1,813.515,1205.885Z" transform="translate(-771.512 -1201.442)" fill="#703dc1"></path>
      <path id="Path_125360" data-name="Path 125360" d="M820.82,1201.156v12.2h-1.5v-12.2Z" transform="translate(-774.035 -1200.727)" fill="#703dc1"></path>
      <path id="Path_125361" data-name="Path 125361" d="M824.111,1200.88a1.206,1.206,0,0,1,1.484,0,.938.938,0,0,1,0,1.336,1.205,1.205,0,0,1-1.484,0,.934.934,0,0,1,0-1.336Zm1.484,3.323v9.05h-1.5v-9.05Z" transform="translate(-774.903 -1200.625)" fill="#703dc1"></path>
      <path id="Path_125362" data-name="Path 125362" d="M836.313,1205.885a4.067,4.067,0,0,1,.973,2.926v5.259h-1.5v-5.127a2.892,2.892,0,0,0-.692-2.077,2.476,2.476,0,0,0-1.88-.726,2.565,2.565,0,0,0-1.978.8,3.308,3.308,0,0,0-.741,2.332v4.8h-1.5v-9.05h1.5v2.143a3.083,3.083,0,0,1,1.228-1.7,3.558,3.558,0,0,1,2.036-.593A3.378,3.378,0,0,1,836.313,1205.885Z" transform="translate(-775.896 -1201.442)" fill="#703dc1"></path>
      <path id="Path_125363" data-name="Path 125363" d="M850.271,1209.874h-7.237a3.167,3.167,0,0,0,.882,2.325,2.878,2.878,0,0,0,2.035.775,2.94,2.94,0,0,0,1.821-.552,2.282,2.282,0,0,0,.9-1.476h1.6a3.777,3.777,0,0,1-2.21,2.836,4.9,4.9,0,0,1-2.044.411,4.658,4.658,0,0,1-2.308-.56,3.961,3.961,0,0,1-1.574-1.607,5.638,5.638,0,0,1,0-4.938,3.951,3.951,0,0,1,1.574-1.615,4.676,4.676,0,0,1,2.308-.561,4.572,4.572,0,0,1,2.3.561,3.864,3.864,0,0,1,1.5,1.5,4.217,4.217,0,0,1,.519,2.077A4.567,4.567,0,0,1,850.271,1209.874Zm-1.78-2.407a2.429,2.429,0,0,0-1.039-1.006,3.179,3.179,0,0,0-1.435-.329,2.967,2.967,0,0,0-2.077.766,3.086,3.086,0,0,0-.906,2.25h5.786A3.092,3.092,0,0,0,848.491,1207.467Z" transform="translate(-778.313 -1201.449)" fill="#703dc1"></path>
      <path id="Path_125364" data-name="Path 125364" d="M772.337,1235.24a4.858,4.858,0,0,1-2.086,2.027,7.073,7.073,0,0,1-3.306.717h-3.692v-11.623h3.692a7.216,7.216,0,0,1,3.306.7,4.77,4.77,0,0,1,2.086,2.011,7.064,7.064,0,0,1,0,6.166Zm-2.028.222a5.142,5.142,0,0,0,.008-6.6,4.762,4.762,0,0,0-3.486-1.179h-2.077v8.952h2.077A4.785,4.785,0,0,0,770.309,1235.462Z" transform="translate(-763.254 -1205.574)" fill="#703dc1"></path>
      <path id="Path_125365" data-name="Path 125365" d="M784.218,1229.964a4.009,4.009,0,0,1,1.615,1.615,5.5,5.5,0,0,1,0,4.938,4.019,4.019,0,0,1-1.615,1.607,5.134,5.134,0,0,1-4.665,0,4.083,4.083,0,0,1-1.623-1.607,5.429,5.429,0,0,1,0-4.937,4.073,4.073,0,0,1,1.623-1.615,5.127,5.127,0,0,1,4.665,0Zm-3.824,1.12a2.734,2.734,0,0,0-1.1,1.113,4.263,4.263,0,0,0,0,3.694,2.726,2.726,0,0,0,1.1,1.112,3.25,3.25,0,0,0,2.984,0,2.729,2.729,0,0,0,1.106-1.112,4.271,4.271,0,0,0,0-3.694,2.737,2.737,0,0,0-1.106-1.113,3.25,3.25,0,0,0-2.984,0Z" transform="translate(-765.962 -1206.159)" fill="#703dc1"></path>
      <path id="Path_125366" data-name="Path 125366" d="M797.779,1230.327a3.908,3.908,0,0,1,1.4,2.472H797.6a2.315,2.315,0,0,0-.9-1.524,3.173,3.173,0,0,0-3.264-.191,2.632,2.632,0,0,0-1.047,1.113,4.536,4.536,0,0,0,0,3.71,2.626,2.626,0,0,0,1.047,1.112,3.156,3.156,0,0,0,3.264-.2,2.348,2.348,0,0,0,.9-1.534h1.583a3.886,3.886,0,0,1-1.4,2.481,4.424,4.424,0,0,1-2.868.915,4.658,4.658,0,0,1-2.308-.561,3.965,3.965,0,0,1-1.574-1.607,5.644,5.644,0,0,1,0-4.937,3.956,3.956,0,0,1,1.574-1.615,4.668,4.668,0,0,1,2.308-.561A4.4,4.4,0,0,1,797.779,1230.327Z" transform="translate(-768.486 -1206.159)" fill="#703dc1"></path>
      <path id="Path_125367" data-name="Path 125367" d="M811.672,1229.547v9.05h-1.5v-2.127a3.041,3.041,0,0,1-1.228,1.69,3.629,3.629,0,0,1-2.052.586,3.36,3.36,0,0,1-2.539-1.014,4.039,4.039,0,0,1-.972-2.91v-5.275h1.5v5.127a2.922,2.922,0,0,0,.693,2.085,2.46,2.46,0,0,0,1.88.733,2.569,2.569,0,0,0,1.978-.8,3.316,3.316,0,0,0,.742-2.333v-4.814Z" transform="translate(-770.97 -1206.187)" fill="#703dc1"></path>
      <path id="Path_125368" data-name="Path 125368" d="M830.3,1230.377a4.082,4.082,0,0,1,.964,2.926v5.259h-1.5v-5.127a2.921,2.921,0,0,0-.651-2.044,2.309,2.309,0,0,0-1.789-.708,2.458,2.458,0,0,0-1.9.783,3.3,3.3,0,0,0-.717,2.3v4.8h-1.5v-5.127a2.9,2.9,0,0,0-.66-2.044,2.314,2.314,0,0,0-1.78-.708,2.478,2.478,0,0,0-1.921.783,3.3,3.3,0,0,0-.717,2.3v4.8h-1.5v-9.05h1.5v2.061a2.939,2.939,0,0,1,1.179-1.641,3.68,3.68,0,0,1,3.957.017,3.176,3.176,0,0,1,1.212,1.723,3.268,3.268,0,0,1,1.27-1.707,3.5,3.5,0,0,1,2.01-.6A3.352,3.352,0,0,1,830.3,1230.377Z" transform="translate(-773.517 -1206.151)" fill="#703dc1"></path>
      <path id="Path_125369" data-name="Path 125369" d="M845.782,1234.365h-7.236a3.169,3.169,0,0,0,.881,2.325,2.881,2.881,0,0,0,2.036.775,2.944,2.944,0,0,0,1.821-.552,2.286,2.286,0,0,0,.9-1.476h1.6a3.778,3.778,0,0,1-2.209,2.836,4.887,4.887,0,0,1-2.044.412,4.663,4.663,0,0,1-2.308-.561,3.965,3.965,0,0,1-1.574-1.607,5.644,5.644,0,0,1,0-4.937,3.956,3.956,0,0,1,1.574-1.615,4.672,4.672,0,0,1,2.308-.561,4.563,4.563,0,0,1,2.3.561,3.869,3.869,0,0,1,1.5,1.5,4.217,4.217,0,0,1,.519,2.077A4.484,4.484,0,0,1,845.782,1234.365Zm-1.78-2.407a2.42,2.42,0,0,0-1.039-1.005,3.175,3.175,0,0,0-1.434-.33,2.966,2.966,0,0,0-2.077.767,3.083,3.083,0,0,0-.906,2.25h5.786A3.086,3.086,0,0,0,844,1231.958Z" transform="translate(-777.45 -1206.159)" fill="#703dc1"></path>
      <path id="Path_125370" data-name="Path 125370" d="M857.683,1230.377a4.064,4.064,0,0,1,.973,2.926v5.259h-1.5v-5.127a2.893,2.893,0,0,0-.692-2.077,2.475,2.475,0,0,0-1.88-.725,2.568,2.568,0,0,0-1.978.8,3.308,3.308,0,0,0-.742,2.333v4.8h-1.5v-9.05h1.5v2.143a3.079,3.079,0,0,1,1.228-1.7,3.554,3.554,0,0,1,2.036-.594A3.378,3.378,0,0,1,857.683,1230.377Z" transform="translate(-780.005 -1206.151)" fill="#703dc1"></path>
      <path id="Path_125371" data-name="Path 125371" d="M867.592,1236.74v1.319H866.47a2.882,2.882,0,0,1-2.068-.659,2.979,2.979,0,0,1-.684-2.21v-4.879h-1.352v-1.3h1.352v-2.259h1.517v2.259h2.341v1.3h-2.341v4.912a1.7,1.7,0,0,0,.321,1.2,1.55,1.55,0,0,0,1.113.322Z" transform="translate(-782.313 -1205.649)" fill="#703dc1"></path>
      <path id="Path_125372" data-name="Path 125372" d="M876.31,1230.2a3.369,3.369,0,0,1,1.13,2.152H876a2.074,2.074,0,0,0-.667-1.328,2.174,2.174,0,0,0-1.525-.519,1.883,1.883,0,0,0-1.261.388,1.307,1.307,0,0,0-.454,1.047,1.081,1.081,0,0,0,.305.8,1.947,1.947,0,0,0,.758.461,12.3,12.3,0,0,0,1.245.338,12.43,12.43,0,0,1,1.623.47,2.542,2.542,0,0,1,1.055.767,2.154,2.154,0,0,1,.437,1.417,2.228,2.228,0,0,1-.832,1.8,3.357,3.357,0,0,1-2.217.693,4.252,4.252,0,0,1-2.638-.775,3.09,3.09,0,0,1-1.2-2.16h1.451a1.891,1.891,0,0,0,.716,1.335,2.59,2.59,0,0,0,1.674.511,1.739,1.739,0,0,0,1.212-.4,1.337,1.337,0,0,0,.437-1.039,1.138,1.138,0,0,0-.313-.841,2.055,2.055,0,0,0-.775-.477,11.018,11.018,0,0,0-1.269-.346,12.3,12.3,0,0,1-1.607-.462,2.462,2.462,0,0,1-1.023-.734,2.049,2.049,0,0,1-.42-1.359,2.28,2.28,0,0,1,.84-1.838,3.475,3.475,0,0,1,2.292-.7A3.648,3.648,0,0,1,876.31,1230.2Z" transform="translate(-783.902 -1206.159)" fill="#703dc1"></path>
    </g>
    <path id="Path_125373" data-name="Path 125373" d="M295.878,895.491S191.433,1111.12,332.94,1241.677" transform="translate(-4.089 -19.797)" fill="none" stroke="#7c7c7c" stroke-linecap="round" stroke-miterlimit="10" stroke-width="2"></path>
    <path id="Path_125374" data-name="Path 125374" d="M332.973,896.534s-26.954,112.868,59.8,160.88" transform="translate(-17.599 -19.998)" fill="none" stroke="#7c7c7c" stroke-linecap="round" stroke-miterlimit="10" stroke-width="2"></path>
    <path id="Path_125375" data-name="Path 125375" d="M401.326,1137.429s-37.9,53.908-25.269,123.818" transform="translate(-26.149 -66.321)" fill="none" stroke="#7c7c7c" stroke-linecap="round" stroke-miterlimit="10" stroke-width="2"></path>
    <path id="Path_125376" data-name="Path 125376" d="M466.355,1407.524s35.377,58.961,88.442,60.646" transform="translate(-44.009 -118.26)" fill="none" stroke="#7c7c7c" stroke-linecap="round" stroke-miterlimit="10" stroke-width="2"></path>
    <path id="Path_125377" data-name="Path 125377" d="M720.807,1470.054s42.115,2.527,86.757-61.488" transform="translate(-92.94 -118.46)" fill="none" stroke="#7c7c7c" stroke-linecap="round" stroke-miterlimit="10" stroke-width="2"></path>
    <path id="Path_125378" data-name="Path 125378" d="M943.974,1242.921s139.822-114.553,39.588-345.344" transform="translate(-135.854 -20.198)" fill="none" stroke="#7c7c7c" stroke-linecap="round" stroke-miterlimit="10" stroke-width="2"></path>
    <path id="Path_125379" data-name="Path 125379" d="M949.149,895.491s28.638,113.711-61.488,164.249" transform="translate(-125.025 -19.797)" fill="none" stroke="#7c7c7c" stroke-linecap="round" stroke-miterlimit="10" stroke-width="2"></path>
    <path id="Path_125380" data-name="Path 125380" d="M893.4,896.534S853.81,984.976,729.15,987.5" transform="translate(-94.544 -19.998)" fill="none" stroke="#7c7c7c" stroke-linecap="round" stroke-miterlimit="10" stroke-width="2"></path>
    <path id="Path_125381" data-name="Path 125381" d="M399.614,896.534s23.8,36.166,104.445,42.115c102.761,7.58,261.956-46.327,320.917,46.327s14.319,209.733-2.527,229.106" transform="translate(-31.175 -19.998)" fill="none" stroke="#7c7c7c" stroke-linecap="round" stroke-miterlimit="10" stroke-width="2"></path>
    <path id="Path_125382" data-name="Path 125382" d="M363.115,894.448s32.007,85.915,163.406,92.653" transform="translate(-24.156 -19.597)" fill="none" stroke="#7c7c7c" stroke-linecap="round" stroke-miterlimit="10" stroke-width="2"></path>
    <path id="Path_125383" data-name="Path 125383" d="M708.574,877.763s27.8,42.115-7.581,76.649" transform="translate(-89.129 -16.388)" fill="none" stroke="#7c7c7c" stroke-linecap="round" stroke-miterlimit="10" stroke-width="2"></path>
    <path id="Path_125384" data-name="Path 125384" d="M697.865,1075.9s31.165,78.334,0,128.03" transform="translate(-88.528 -54.49)" fill="none" stroke="#7c7c7c" stroke-linecap="round" stroke-miterlimit="10" stroke-width="2"></path>
    <path id="Path_125385" data-name="Path 125385" d="M458.013,1287.261s36.219-43.8,102.761-35.376" transform="translate(-42.405 -88.124)" fill="none" stroke="#7c7c7c" stroke-linecap="round" stroke-miterlimit="10" stroke-width="2"></path>
    <path id="Path_125386" data-name="Path 125386" d="M574.268,1289.683s-26.954,80.861,3.369,128.872" transform="translate(-62.637 -95.6)" fill="none" stroke="#7c7c7c" stroke-linecap="round" stroke-miterlimit="10" stroke-width="2"></path>
    <path id="Path_125387" data-name="Path 125387" d="M488.255,1363.716s60.215-2.341,112.868,31.165c46.327,29.481,127.187-2.526,145.718-17.688" transform="translate(-48.22 -109.829)" fill="none" stroke="#7c7c7c" stroke-linecap="round" stroke-miterlimit="10" stroke-width="2"></path>
    <path id="Path_125388" data-name="Path 125388" d="M708.293,1251.951s57.277-9.265,99.392,35.376" transform="translate(-90.533 -88.19)" fill="none" stroke="#7c7c7c" stroke-linecap="round" stroke-miterlimit="10" stroke-width="2"></path>
    <path id="Path_125389" data-name="Path 125389" d="M891.832,1129.086s26.111,76.65,1.685,124.661" transform="translate(-125.827 -64.717)" fill="none" stroke="#7c7c7c" stroke-linecap="round" stroke-miterlimit="10" stroke-width="2"></path>
    <path id="Path_125390" data-name="Path 125390" d="M524.754,1063.858s12.635,1.684,21.058-14.32,22.742-14.319,22.742-14.319" transform="translate(-55.239 -46.657)" fill="none" stroke="#7c7c7c" stroke-linecap="round" stroke-miterlimit="10" stroke-width="2"></path>
    <path id="Path_125391" data-name="Path 125391" d="M543.525,1148.979s52.223-33.693,85.072-6.739,82.546-5.054,82.546-5.054" transform="translate(-58.849 -65.237)" fill="none" stroke="#7c7c7c" stroke-linecap="round" stroke-miterlimit="10" stroke-width="2"></path>
    <path id="Path_125392" data-name="Path 125392" d="M714.55,1035.228s29.48-1.684,46.327,32.008" transform="translate(-91.736 -46.666)" fill="none" stroke="#7c7c7c" stroke-linecap="round" stroke-miterlimit="10" stroke-width="2"></path>
    <path id="Path_125393" data-name="Path 125393" d="M857.953,1541.745c-6.734-41.479-65.468-40.092-92.7-21.07a45.15,45.15,0,0,0-8.683,7.794c-5.878,6.957-10.132,15.526-10.792,24.61s2.608,18.644,9.565,24.522c4.543,3.837,10.276,5.9,16.1,7.252.819.19,2.129,10.431-7.872,13.765,14.585.417,17.237-10.5,17.237-10.5s2.586.593,3.838,1.053c5.613,2.061,11.784,1.859,17.735,1.29,13.786-1.317,27.82-4.653,38.96-12.882S860.171,1555.415,857.953,1541.745Z" transform="translate(-97.726 -137.564)" fill="#703dc1"></path>
    <path id="Path_125394" data-name="Path 125394" d="M582.716,1609.7c-12.762.028-23.483,9.416-31.708,19.174a165.907,165.907,0,0,0-27.372,45.843c-3.121,7.9-5.66,16.209-5.542,24.7.152,11,4.832,21.633,11.688,30.244a65.3,65.3,0,0,0,92.446,9.866c8-6.548,14.347-14.918,19.672-23.781,18.882-31.424,25.227-68.7,28.778-105.186.607-6.231,1.021-13-2.371-18.258s-12.189-7.237-15.752-2.089c-1.685,2.433-1.268,6.479,1.476,7.587,2.361-4.807-1.044-11.434-6.328-12.313s-10.651,4.288-9.974,9.6c3.058-.218,4.258-4.782,2.211-7.065s-5.794-2.262-8.482-.786-4.56,4.054-6.33,6.557q-27.315,38.635-51.022,79.66" transform="translate(-53.957 -152.464)" fill="none" stroke="#360484" stroke-miterlimit="10" stroke-width="3"></path>
    <path id="Path_125395" data-name="Path 125395" d="M595.438,1599.015a173.091,173.091,0,0,1,5.573-40.77c3.82-14.648,10.494-29.879,23.725-37.237,6.958-3.87,15.1-5.146,23.065-5.094,6.862.044,14.048,1.162,19.523,5.3,7.042,5.323,9.854,14.465,11.813,23.074a260.149,260.149,0,0,1,6.237,46.434" transform="translate(-68.831 -139.103)" fill="none" stroke="#360484" stroke-miterlimit="10" stroke-width="3"></path>
    <path id="Path_125396" data-name="Path 125396" d="M709.533,1612.4c9.234-.827,18.05,4.715,23.931,11.882s9.473,15.879,13.64,24.16c1.907,3.789,4.115,7.689,7.759,9.86" transform="translate(-90.772 -157.641)" fill="none" stroke="#360484" stroke-miterlimit="10" stroke-width="3"></path>
    <path id="Path_125397" data-name="Path 125397" d="M754.424,1664.317c9.311-7.038,15.031-17.9,18.576-29.022s5.2-22.746,8.1-34.051c.818-3.184,1.8-6.469,4.038-8.881s6.076-3.648,8.9-1.962c3.056,1.827,3.6,5.95,3.808,9.5l1.187,19.934" transform="translate(-99.404 -153.278)" fill="none" stroke="#360484" stroke-miterlimit="10" stroke-width="3"></path>
    <path id="Path_125398" data-name="Path 125398" d="M801.628,1612.622c3.463-5.44,11.8-7.713,16.692-3.506s2.327,14.258-4.118,14.434c.019-4.716,6.944-6.732,10.758-3.959,8.457,6.151,5.038,24.371,4.148,33.156a140.789,140.789,0,0,1-21.209,61.008c-10.111,16.212-23.78,33.037-42.243,39.9" transform="translate(-101.564 -156.607)" fill="none" stroke="#360484" stroke-miterlimit="10" stroke-width="3"></path>
    <path id="Path_125399" data-name="Path 125399" d="M622.5,1517.875a24.973,24.973,0,0,0,12.213,17.786,13.893,13.893,0,0,0,7.024,2.064,7.5,7.5,0,0,0,6.277-3.318,5.191,5.191,0,0,0-1.064-6.668c-.937-.687-2.638-.708-2.909.422a2.111,2.111,0,0,0,.59,1.678c3.048,3.979,7.987,6.164,12.947,6.879s10.008.115,14.974-.56c3.345-.455,7.043-1.149,9.064-3.853" transform="translate(-74.035 -139.48)" fill="none" stroke="#360484" stroke-miterlimit="10" stroke-width="3"></path>
    <path id="Path_125400" data-name="Path 125400" d="M639.625,1555.714a8.584,8.584,0,0,0-4.83-.779c-1.232.05-2.463.119-3.691.223-1.127.1-2.43.336-2.957,1.337a2.321,2.321,0,0,0,.5,2.56,5.624,5.624,0,0,0,2.4,1.352,21.262,21.262,0,0,0,7.059,1.115,3.589,3.589,0,0,0,1.128-.145,3.9,3.9,0,0,0,1.14-.718,6.758,6.758,0,0,0,1.657-1.687,2.3,2.3,0,0,0,.17-2.262,3.451,3.451,0,0,0-2.46-1.312" transform="translate(-75.082 -146.602)" fill="none" stroke="#360484" stroke-miterlimit="10" stroke-width="3"></path>
    <path id="Path_125401" data-name="Path 125401" d="M637.237,1556.422c-.046-.611-.913-.859-1.433-.536a2.323,2.323,0,0,0-.87,1.56,3.371,3.371,0,0,0-.044,1.589,1.461,1.461,0,0,0,1.062,1.089,2,2,0,0,0,1.652-.752,3.156,3.156,0,0,0,1-1.694,1.442,1.442,0,0,0-.883-1.6,1.356,1.356,0,0,0-1.466.658,2.274,2.274,0,0,0-.183,1.676,1.03,1.03,0,0,0,.267.54.82.82,0,0,0,.976,0,2.385,2.385,0,0,0,.666-.8" transform="translate(-76.403 -146.762)" fill="#360484" stroke="#360484" stroke-miterlimit="10" stroke-width="3"></path>
    <path id="Path_125402" data-name="Path 125402" d="M673.727,1555.714a8.58,8.58,0,0,0-4.829-.779c-1.232.05-2.463.119-3.691.223-1.127.1-2.43.336-2.957,1.337a2.323,2.323,0,0,0,.5,2.56,5.629,5.629,0,0,0,2.4,1.352,21.265,21.265,0,0,0,7.059,1.115,3.583,3.583,0,0,0,1.128-.145,3.892,3.892,0,0,0,1.14-.718,6.776,6.776,0,0,0,1.658-1.687,2.3,2.3,0,0,0,.17-2.262,3.448,3.448,0,0,0-2.459-1.312" transform="translate(-81.64 -146.602)" fill="none" stroke="#360484" stroke-miterlimit="10" stroke-width="3"></path>
    <path id="Path_125403" data-name="Path 125403" d="M671.339,1556.422c-.045-.611-.912-.859-1.432-.536a2.324,2.324,0,0,0-.871,1.56,3.371,3.371,0,0,0-.044,1.589,1.462,1.462,0,0,0,1.062,1.089,2,2,0,0,0,1.653-.752,3.161,3.161,0,0,0,1-1.694,1.443,1.443,0,0,0-.884-1.6,1.356,1.356,0,0,0-1.466.658,2.27,2.27,0,0,0-.182,1.676,1.018,1.018,0,0,0,.267.54.818.818,0,0,0,.975,0,2.4,2.4,0,0,0,.666-.8" transform="translate(-82.961 -146.762)" fill="#360484" stroke="#360484" stroke-miterlimit="10" stroke-width="3"></path>
    <path id="Path_125404" data-name="Path 125404" d="M517.526,1553.331c1.718-3.672,6.293-5.548,10.245-4.645a12.094,12.094,0,0,1,8.39,8.062c1.689,5.082-.334,11.638-5.354,13.506-.91-1.3-.148-3.068.624-4.452a17.892,17.892,0,0,1,3.169-4.517,6.05,6.05,0,0,1,5.038-1.776,7.825,7.825,0,0,1,3.454,1.883,30.268,30.268,0,0,1,9.382,13.733" transform="translate(-53.849 -145.362)" fill="none" stroke="#6ad0ef" stroke-miterlimit="10" stroke-width="3"></path>
    <path id="Path_125405" data-name="Path 125405" d="M561.073,1515.817l15.551,22.684" transform="translate(-62.223 -139.085)" fill="none" stroke="#6ad0ef" stroke-miterlimit="10" stroke-width="3"></path>
    <path id="Path_125406" data-name="Path 125406" d="M588.981,1494.531l5.748,20.66" transform="translate(-67.59 -134.991)" fill="none" stroke="#6ad0ef" stroke-miterlimit="10" stroke-width="3"></path>
    <path id="Path_125407" data-name="Path 125407" d="M627.314,1465.943c-3.707-.136-7.156,2.519-8.646,5.917a15.4,15.4,0,0,0-.1,10.88,7.941,7.941,0,0,0,2.245,3.761,3.536,3.536,0,0,0,4.114.435,2.059,2.059,0,0,0,.927-1.5,2.177,2.177,0,0,0-.792-1.7c-1.476-1.322-3.948-.9-5.4.449a9.3,9.3,0,0,0-2.415,5.319,16.954,16.954,0,0,0,.38,8.3" transform="translate(-72.962 -129.493)" fill="none" stroke="#6ad0ef" stroke-miterlimit="10" stroke-width="3"></path>
    <path id="Path_125408" data-name="Path 125408" d="M706.482,1483.834a137.553,137.553,0,0,1-8.7,15.268" transform="translate(-88.512 -132.934)" fill="none" stroke="#6ad0ef" stroke-miterlimit="10" stroke-width="3"></path>
    <path id="Path_125409" data-name="Path 125409" d="M729.146,1515.464,715.071,1530.3" transform="translate(-91.837 -139.017)" fill="none" stroke="#6ad0ef" stroke-miterlimit="10" stroke-width="3"></path>
    <path id="Path_125410" data-name="Path 125410" d="M737.206,1554.385a141.731,141.731,0,0,0-14.852,14.47" transform="translate(-93.237 -146.501)" fill="none" stroke="#6ad0ef" stroke-miterlimit="10" stroke-width="3"></path>
    <path id="Path_125411" data-name="Path 125411" d="M784.463,1551.65l10.319,15.1a1.716,1.716,0,0,0,.476.522c.679.417,1.5-.244,2.017-.847a422.494,422.494,0,0,1,37.051-37.773" transform="translate(-105.181 -141.553)" fill="none" stroke="#fff" stroke-miterlimit="10" stroke-width="6"></path>
    <g id="Group_3154" data-name="Group 3154" transform="translate(525.806 949.76)">
      <path id="Path_125412" data-name="Path 125412" d="M649.315,990.912c-10.49-3.543-21.785-3.648-32.857-3.717a22.881,22.881,0,0,0-6.878.655c-4.27,1.311-7.44,5.063-9.147,9.191s-2.166,8.646-2.606,13.09l-2.111,21.3c-.349,3.524-.573,7.48,1.72,10.179,1.778,2.093,4.627,2.866,7.309,3.453,17.226,3.772,34.969,4.352,52.6,4.838,5.708.157,12.065.073,16.217-3.847,3.249-3.068,4.305-7.751,5.014-12.163a159.726,159.726,0,0,0,1.9-31.812,7.176,7.176,0,0,0-.805-3.61,7.1,7.1,0,0,0-3.742-2.443,99.883,99.883,0,0,0-23.02-5.542" transform="translate(-594.649 -987.191)" fill="#f04e98"></path>
      <path id="Path_125413" data-name="Path 125413" d="M690.265,999.456a7.1,7.1,0,0,0-3.742-2.443,99.86,99.86,0,0,0-17.387-4.713l-18.51,31.782c10.623,7.105,22.176,13.7,34.907,14.828.932.082,1.875.132,2.817.133.346-1.377.6-2.785.825-4.166a159.726,159.726,0,0,0,1.9-31.812A7.176,7.176,0,0,0,690.265,999.456Z" transform="translate(-605.25 -988.174)" fill="#703dc1" stroke="#703dc1" stroke-miterlimit="10" stroke-width="2"></path>
      <path id="Path_125414" data-name="Path 125414" d="M677.946,996.031a99.883,99.883,0,0,0-23.02-5.542l-3.587.423c-10.49-3.543-21.785-3.648-32.857-3.717a22.881,22.881,0,0,0-6.878.655,12.944,12.944,0,0,0-5.58,3.589,29.638,29.638,0,0,0,4.188,6.568,116.66,116.66,0,0,0,26.523,24.579,16.906,16.906,0,0,0,6.321,2.992c4.658.813,9.09-2.025,12.969-4.729,9.193-6.411,18.505-12.933,26.223-20.99a4.482,4.482,0,0,0-.56-1.386A7.1,7.1,0,0,0,677.946,996.031Z" transform="translate(-596.673 -987.191)" fill="#59cbe8" stroke="#59cbe8" stroke-miterlimit="10" stroke-width="2"></path>
      <path id="Path_125415" data-name="Path 125415" d="M594.447,1043.72a50.9,50.9,0,0,0,8.436,10.581" transform="translate(-594.447 -998.062)" fill="none" stroke="#703dc1" stroke-miterlimit="10" stroke-width="2"></path>
      <path id="Path_125416" data-name="Path 125416" d="M596.571,1034.285a194.265,194.265,0,0,0,17.76,21.062" transform="translate(-594.855 -996.247)" fill="none" stroke="#703dc1" stroke-miterlimit="10" stroke-width="2"></path>
      <path id="Path_125417" data-name="Path 125417" d="M597.317,1022.651a173.072,173.072,0,0,0,26.736,29.061" transform="translate(-594.999 -994.01)" fill="none" stroke="#703dc1" stroke-miterlimit="10" stroke-width="2"></path>
      <path id="Path_125418" data-name="Path 125418" d="M596.724,1046.943a98.552,98.552,0,0,1,7.957-16.165" transform="translate(-594.885 -995.573)" fill="none" stroke="#703dc1" stroke-miterlimit="10" stroke-width="2"></path>
      <path id="Path_125419" data-name="Path 125419" d="M603.577,1052.968a74.768,74.768,0,0,1,8.675-13.216" transform="translate(-596.203 -997.298)" fill="none" stroke="#703dc1" stroke-miterlimit="10" stroke-width="2"></path>
      <path id="Path_125420" data-name="Path 125420" d="M614.346,1055.06a35.946,35.946,0,0,1,7.735-9.465" transform="translate(-598.274 -998.422)" fill="none" stroke="#703dc1" stroke-miterlimit="10" stroke-width="2"></path>
      <path id="Path_125421" data-name="Path 125421" d="M630.144,1047l1.633-1.027" transform="translate(-601.311 -998.494)" fill="none" stroke="#703dc1" stroke-miterlimit="10" stroke-width="2"></path>
      <path id="Path_125422" data-name="Path 125422" d="M628.142,1059.7a18.02,18.02,0,0,0,3.253-3.088" transform="translate(-600.927 -1000.541)" fill="none" stroke="#703dc1" stroke-miterlimit="10" stroke-width="2"></path>
      <path id="Path_125423" data-name="Path 125423" d="M637.261,1051.9l1.641-1.834" transform="translate(-602.68 -999.281)" fill="none" stroke="#703dc1" stroke-miterlimit="10" stroke-width="2"></path>
      <path id="Path_125424" data-name="Path 125424" d="M639.759,1044.328a5.394,5.394,0,0,1,2.059-1.619" transform="translate(-603.16 -997.867)" fill="none" stroke="#703dc1" stroke-miterlimit="10" stroke-width="2"></path>
    </g>
    <g id="Group_3155" data-name="Group 3155" transform="translate(518.326 1141.417)">
      <path id="Path_125425" data-name="Path 125425" d="M679.31,1241.279c-6.142-29.564-53.786-16.115-55.867,9.557-.671,8.283,4.06,16.555,11.137,20.91s16.13,4.963,24.042,2.422C672.13,1269.831,682.194,1255.171,679.31,1241.279Z" transform="translate(-592.531 -1224.478)" fill="#703dc1" stroke="#703dc1" stroke-miterlimit="10" stroke-width="2"></path>
      <path id="Path_125426" data-name="Path 125426" d="M641.117,1292.717c-6.142-29.564-53.786-16.115-55.867,9.557-.671,8.283,4.059,16.555,11.137,20.91s16.13,4.962,24.041,2.422C633.937,1321.268,644,1306.609,641.117,1292.717Z" transform="translate(-585.187 -1234.369)" fill="#59cbe8" stroke="#59cbe8" stroke-miterlimit="10" stroke-width="2"></path>
      <path id="Path_125427" data-name="Path 125427" d="M651.216,1301.618c.707-30.186,50-25.556,56.675-.679,2.154,8.025-1.006,17.016-7.181,22.576s-14.97,7.791-23.21,6.719C663.431,1328.405,650.886,1315.8,651.216,1301.618Z" transform="translate(-597.883 -1235.271)" fill="#f04e98"></path>
      <path id="Path_125428" data-name="Path 125428" d="M634.146,1272.738l6.685-6.344a4.536,4.536,0,0,0,1.826-4.2l.216-12.158a6.257,6.257,0,0,1,.408-2.564,5.954,5.954,0,0,1,2.868-2.458,54.512,54.512,0,0,1,9.6-3.885c3.288-.979,7.159-1.547,9.885.535,1.965,1.5,2.82,4.013,3.48,6.4q1.084,3.924,1.834,7.929c.454,2.424,1.148,5.29,3.463,6.138.942.346,2.378.9,1.909,1.783" transform="translate(-594.601 -1227.51)" fill="none" stroke="#59cbe8" stroke-miterlimit="10" stroke-width="2"></path>
      <path id="Path_125429" data-name="Path 125429" d="M596.607,1323.265l6.76-3.409a2.106,2.106,0,0,0,.873-.653,2.141,2.141,0,0,0,.217-1.217,109.6,109.6,0,0,1,1.176-17.734c.738-5.112,2.1-10.685,6.329-13.653a10.494,10.494,0,0,1,10.628-.716c4.291,2.224,6.472,7.156,7.345,11.91s.772,9.679,2.07,14.335a2.551,2.551,0,0,0,.665,1.292,2.707,2.707,0,0,0,1.733.46l5.235.167" transform="translate(-587.383 -1236.071)" fill="none" stroke="#703dc1" stroke-miterlimit="10" stroke-width="2"></path>
      <path id="Path_125430" data-name="Path 125430" d="M702.554,1324.728l-6.515-3.245a3.761,3.761,0,0,1-1.33-.925,3.633,3.633,0,0,1-.6-1.749c-.882-5.795-.684-11.779-2.337-17.4s-5.828-11.092-11.641-11.854c-6.021-.789-11.646,3.814-14.307,9.272s-3.118,11.679-4.081,17.675c-.236,1.468-1.2,3.376-2.6,2.884" transform="translate(-599.408 -1236.975)" fill="none" stroke="#fff" stroke-miterlimit="10" stroke-width="2"></path>
      <path id="Path_125431" data-name="Path 125431" d="M695.193,1297.331a14.3,14.3,0,0,1-5.34,1.88c-1.926.269-4.225-.041-5.23-1.706a1.019,1.019,0,0,1-.185-.7c.12-.626,1.175-.581,1.444,0a1.6,1.6,0,0,1-.515,1.715,3.235,3.235,0,0,1-5.491-2.4c.007-.3.179-.7.476-.633a.46.46,0,0,1,.281.25,1.545,1.545,0,0,1-.666,1.963,2.838,2.838,0,0,1-2.224.143c-2.32-.678-3.807-2.875-5.1-4.917" transform="translate(-602.005 -1237.64)" fill="none" stroke="#fff" stroke-miterlimit="10" stroke-width="2"></path>
      <path id="Path_125432" data-name="Path 125432" d="M607.48,1295.944a27.042,27.042,0,0,0,9.942-3.01c1.644-.872,3.4-2.325,3.161-4.17-.506-.2-1.084.347-1.037.892a1.373,1.373,0,0,0,1.068,1.1,4.012,4.012,0,0,0,1.625-.023c2.589-.4,5.175-.814,7.76-1.233" transform="translate(-589.474 -1236.832)" fill="none" stroke="#703dc1" stroke-miterlimit="10" stroke-width="2"></path>
      <path id="Path_125433" data-name="Path 125433" d="M644.316,1255.878a34.157,34.157,0,0,0,11.533-7.745c.613-.628,1.247-1.48.94-2.3a1.574,1.574,0,0,0-.606,2.342,2.751,2.751,0,0,0,2.508.964,4.662,4.662,0,0,0,4.005-5.324,1.2,1.2,0,0,0-.551,1.381,3.486,3.486,0,0,0,.838,1.364,1.7,1.7,0,0,0,2.711.392l6.529-3.839" transform="translate(-596.557 -1228.061)" fill="none" stroke="#59cbe8" stroke-miterlimit="10" stroke-width="2"></path>
      <path id="Path_125434" data-name="Path 125434" d="M659.691,1257.6a1.549,1.549,0,0,0-.426.7.532.532,0,0,0,.373.638c.347.048.579-.4.506-.741a4.384,4.384,0,0,0-.474-.934" transform="translate(-599.43 -1230.782)" fill="none" stroke="#59cbe8" stroke-miterlimit="10" stroke-width="2"></path>
      <path id="Path_125435" data-name="Path 125435" d="M668.574,1256a1.54,1.54,0,0,0-.426.7.532.532,0,0,0,.372.638c.347.048.579-.4.506-.741a4.39,4.39,0,0,0-.474-.934" transform="translate(-601.138 -1230.474)" fill="none" stroke="#59cbe8" stroke-miterlimit="10" stroke-width="2"></path>
      <path id="Path_125436" data-name="Path 125436" d="M659.743,1264.546a9.84,9.84,0,0,0,2.861,1.142" transform="translate(-599.524 -1232.183)" fill="none" stroke="#59cbe8" stroke-miterlimit="10" stroke-width="2"></path>
      <path id="Path_125437" data-name="Path 125437" d="M619.457,1299.984a2.3,2.3,0,0,0-.278,1.665.953.953,0,0,0,.329-1.744" transform="translate(-591.713 -1238.983)" fill="none" stroke="#703dc1" stroke-miterlimit="10" stroke-width="2"></path>
      <path id="Path_125438" data-name="Path 125438" d="M627.982,1298.147a2.3,2.3,0,0,0-.278,1.666.954.954,0,0,0,.33-1.744" transform="translate(-593.353 -1238.629)" fill="none" stroke="#703dc1" stroke-miterlimit="10" stroke-width="2"></path>
      <path id="Path_125439" data-name="Path 125439" d="M624.75,1307.384a5.679,5.679,0,0,1-3.456-2.664" transform="translate(-592.13 -1239.908)" fill="none" stroke="#703dc1" stroke-miterlimit="10" stroke-width="2"></path>
      <path id="Path_125440" data-name="Path 125440" d="M605.645,1298.807a18.9,18.9,0,0,0-5.966.3,3.374,3.374,0,0,0-1.354.52,2.814,2.814,0,0,0-.922,2.31,3.264,3.264,0,0,0,.473,1.793,1.811,1.811,0,0,0,1.581.849.832.832,0,0,0,.686-.379.456.456,0,0,0-.256-.653c-.253-.046-.466.181-.607.4a3.343,3.343,0,0,0-.582,2.331,2.094,2.094,0,0,0,1.542,1.723,1.54,1.54,0,0,0,1.812-1.22,2.013,2.013,0,0,0,.333,2.174,5.609,5.609,0,0,0,1.893,1.338" transform="translate(-587.536 -1238.75)" fill="none" stroke="#703dc1" stroke-miterlimit="10" stroke-width="2"></path>
      <path id="Path_125441" data-name="Path 125441" d="M686,1307.3a.582.582,0,0,1,.734.526.309.309,0,0,1-.065.206c-.128.144-.391.032-.456-.149a.85.85,0,0,1,.065-.562" transform="translate(-604.573 -1240.399)" fill="none" stroke="#fff" stroke-miterlimit="10" stroke-width="2"></path>
      <path id="Path_125442" data-name="Path 125442" d="M676.439,1306.4a.581.581,0,0,1,.734.526.308.308,0,0,1-.065.205c-.128.144-.391.032-.456-.149a.851.851,0,0,1,.065-.562" transform="translate(-602.734 -1240.227)" fill="none" stroke="#fff" stroke-miterlimit="10" stroke-width="2"></path>
      <path id="Path_125443" data-name="Path 125443" d="M686.707,1313.068a3.849,3.849,0,0,1-4.059,3.155" transform="translate(-603.928 -1241.514)" fill="none" stroke="#fff" stroke-miterlimit="10" stroke-width="2"></path>
      <path id="Path_125444" data-name="Path 125444" d="M643.871,1245.536a9.685,9.685,0,0,1-3.333-.267,3.353,3.353,0,0,1-2.319-2.228,3.8,3.8,0,0,1,.135-1.937,14.987,14.987,0,0,1,2.288-4.258c1.552-2.227,3.514-4.586,6.216-4.832a2.918,2.918,0,0,1,1.778.329c1.044.633,1.313,2.017,1.352,3.237a17.671,17.671,0,0,1-.864,6.036" transform="translate(-595.37 -1225.924)" fill="none" stroke="#59cbe8" stroke-miterlimit="10" stroke-width="2"></path>
    </g>
    <g id="Group_3156" data-name="Group 3156" transform="translate(704.438 1197.016)">
      <path id="Path_125445" data-name="Path 125445" d="M852.565,1384.56c-10.011.361-20.434.184-29.446-4.192-2.208-1.072-4.395-2.484-5.538-4.655a13.289,13.289,0,0,1-1.182-4.719,119.738,119.738,0,0,1,1-34.377c.5-2.833,1.266-5.921,3.616-7.579a11.146,11.146,0,0,1,5.1-1.556,195.45,195.45,0,0,1,22.924-1.374c8.62-.086,17.492.195,25.41,3.6,2.306.992,4.643,2.39,5.673,4.679a11.409,11.409,0,0,1,.751,4.183c.59,12.611-1.677,22.191-4.975,34.377-.726,2.681-1.6,5.433-3.47,7.484-3.385,3.707-9,4.127-14.019,4.064" transform="translate(-815.607 -1299.618)" fill="#703dc1" stroke="#703dc1" stroke-miterlimit="10" stroke-width="2"></path>
      <path id="Path_125446" data-name="Path 125446" d="M842.484,1326.6a4.329,4.329,0,0,0-2.4,2.7,16.45,16.45,0,0,0-1.278,6.347,1.826,1.826,0,0,0,.385,1.341,1.859,1.859,0,0,0,.969.4,30.621,30.621,0,0,0,10.705.2,1.748,1.748,0,0,0,1.17-.519,1.856,1.856,0,0,0,.243-1.147,12.774,12.774,0,0,1,1.531-6.633,6.467,6.467,0,0,1,5.661-3.3" transform="translate(-820.069 -1299.596)" fill="#59cbe8" stroke="#59cbe8" stroke-miterlimit="10" stroke-width="2"></path>
      <path id="Path_125447" data-name="Path 125447" d="M921.4,1323.474a39.3,39.3,0,0,0-15.547-30.16q-16.669,10.878-33.817,21a43.742,43.742,0,0,1,15.173,23.185c2.284,8.781,1.762,18,2.106,27.07s1.749,18.55,7.191,25.808a3.445,3.445,0,0,0,2.1,1.585,3.619,3.619,0,0,0,2.154-.654,167.339,167.339,0,0,0,33.614-24.762,52.762,52.762,0,0,1-12.878-37.706" transform="translate(-826.457 -1293.314)" fill="#59cbe8" stroke="#59cbe8" stroke-miterlimit="10" stroke-width="2"></path>
      <path id="Path_125448" data-name="Path 125448" d="M893.009,1338.428a9.435,9.435,0,0,0-.861-4.026,12.853,12.853,0,0,0-6.345-5.579c-2.3-.829-4.59-.868-7-1.355a41.123,41.123,0,0,1,9.035,15.991c1.915,6.188,2.107,12.6,2.228,19.024A70.916,70.916,0,0,0,893.009,1338.428Z" transform="translate(-827.759 -1299.882)" fill="#f04e98"></path>
      <path id="Path_125449" data-name="Path 125449" d="M891.352,1325.144A6.374,6.374,0,0,0,893.6,1323c.181-.287.165-.848-.166-.771a.376.376,0,0,0-.157.093c-.674.607-.1,1.9.795,2.019a1.937,1.937,0,0,0,1.956-1.535,2.638,2.638,0,0,0-.257-1.922,2.8,2.8,0,0,0,.055,2.186.6.6,0,0,0,.235.3.561.561,0,0,0,.527-.066c.846-.481,1.094-1.619,1.862-2.218a5.629,5.629,0,0,1,1.636-.69,11.6,11.6,0,0,0,2.85-1.688l4.124-3.01" transform="translate(-830.173 -1297.619)" fill="none" stroke="#703dc1" stroke-miterlimit="10" stroke-width="2"></path>
      <path id="Path_125450" data-name="Path 125450" d="M912.98,1313.835a5.128,5.128,0,0,0,1.513-1.338" transform="translate(-834.332 -1297.003)" fill="none" stroke="#703dc1" stroke-miterlimit="10" stroke-width="2"></path>
      <path id="Path_125451" data-name="Path 125451" d="M917.333,1311.189l.335-.168" transform="translate(-835.169 -1296.719)" fill="none" stroke="#703dc1" stroke-miterlimit="10" stroke-width="2"></path>
      <path id="Path_125452" data-name="Path 125452" d="M897.821,1338.543l.839-.5" transform="translate(-831.417 -1301.915)" fill="none" stroke="#2582ff" stroke-miterlimit="10" stroke-width="2"></path>
      <path id="Path_125453" data-name="Path 125453" d="M900.757,1336.875l.831-.681" transform="translate(-831.981 -1301.56)" fill="none" stroke="#703dc1" stroke-miterlimit="10" stroke-width="2"></path>
      <path id="Path_125454" data-name="Path 125454" d="M906.332,1331.265a6.672,6.672,0,0,0,2.08-2.639c.209-.481.195-1.26-.33-1.292a.605.605,0,0,0-.352.1,1.056,1.056,0,0,0,.271,1.818,1.367,1.367,0,0,0,1.342-.543,4.016,4.016,0,0,0,.624-1.387c-.069.444.561.706.968.516a2.926,2.926,0,0,0,.914-.966c.882-1.118,2.327-1.586,3.564-2.292a18.992,18.992,0,0,0,3.294-2.589" transform="translate(-833.053 -1298.829)" fill="none" stroke="#703dc1" stroke-miterlimit="10" stroke-width="2"></path>
      <path id="Path_125455" data-name="Path 125455" d="M902.187,1351.015a64.324,64.324,0,0,1,6.871-5.711" transform="translate(-832.256 -1303.312)" fill="none" stroke="#703dc1" stroke-miterlimit="10" stroke-width="2"></path>
      <path id="Path_125456" data-name="Path 125456" d="M902.148,1365.034a105.176,105.176,0,0,1,13.64-10.33" transform="translate(-832.249 -1305.119)" fill="none" stroke="#703dc1" stroke-miterlimit="10" stroke-width="2"></path>
      <path id="Path_125457" data-name="Path 125457" d="M911.11,1374.444l6.564-5.847" transform="translate(-833.972 -1307.791)" fill="none" stroke="#703dc1" stroke-miterlimit="10" stroke-width="2"></path>
      <path id="Path_125458" data-name="Path 125458" d="M825.745,1367.733a45.5,45.5,0,0,1,9.417,1.456" transform="translate(-817.557 -1307.625)" fill="none" stroke="#f04e98" stroke-miterlimit="10" stroke-width="2"></path>
      <path id="Path_125459" data-name="Path 125459" d="M825.955,1375.044q3.921.862,7.894,1.452" transform="translate(-817.597 -1309.031)" fill="none" stroke="#f04e98" stroke-miterlimit="10" stroke-width="2"></path>
      <path id="Path_125460" data-name="Path 125460" d="M825.516,1382.962a13.946,13.946,0,0,0,2.883,1.1" transform="translate(-817.513 -1310.553)" fill="none" stroke="#f04e98" stroke-miterlimit="10" stroke-width="2"></path>
      <path id="Path_125461" data-name="Path 125461" d="M867.249,1376.5q7.264-6.2,14.981-11.845" transform="translate(-825.538 -1307.032)" fill="none" stroke="#f04e98" stroke-miterlimit="10" stroke-width="2"></path>
      <path id="Path_125462" data-name="Path 125462" d="M870.4,1382.8a99.173,99.173,0,0,1,17.965-16.083" transform="translate(-826.144 -1307.43)" fill="none" stroke="#f04e98" stroke-miterlimit="10" stroke-width="2"></path>
      <path id="Path_125463" data-name="Path 125463" d="M874.579,1389.786l15.116-13.9" transform="translate(-826.947 -1309.192)" fill="none" stroke="#f04e98" stroke-miterlimit="10" stroke-width="2"></path>
      <path id="Path_125464" data-name="Path 125464" d="M881.622,1395.321l.168-.168" transform="translate(-828.302 -1312.897)" fill="none" stroke="#f04e98" stroke-miterlimit="10" stroke-width="2"></path>
      <path id="Path_125465" data-name="Path 125465" d="M868.142,1383.507a91.688,91.688,0,0,1,6.836,9.759" transform="translate(-825.709 -1310.658)" fill="none" stroke="#f04e98" stroke-miterlimit="10" stroke-width="2"></path>
      <path id="Path_125466" data-name="Path 125466" d="M874.107,1376.487l6.736,10.383" transform="translate(-826.856 -1309.308)" fill="none" stroke="#f04e98" stroke-miterlimit="10" stroke-width="2"></path>
      <path id="Path_125467" data-name="Path 125467" d="M867.7,1394.542a6.073,6.073,0,0,0,2.537-2.495" transform="translate(-825.624 -1312.3)" fill="none" stroke="#f04e98" stroke-miterlimit="10" stroke-width="2"></path>
      <path id="Path_125468" data-name="Path 125468" d="M878.3,1364.621q3.1,5.716,6.53,11.246" transform="translate(-827.664 -1307.026)" fill="none" stroke="#f04e98" stroke-miterlimit="10" stroke-width="2"></path>
      <path id="Path_125469" data-name="Path 125469" d="M882.433,1358.75l1.519-.991" transform="translate(-828.458 -1305.707)" fill="none" stroke="#f04e98" stroke-miterlimit="10" stroke-width="2"></path>
      <path id="Path_125470" data-name="Path 125470" d="M883.906,1361.309l.839-.839" transform="translate(-828.741 -1306.228)" fill="none" stroke="#f04e98" stroke-miterlimit="10" stroke-width="2"></path>
      <path id="Path_125471" data-name="Path 125471" d="M888.475,1385.36l.5-1.006" transform="translate(-829.619 -1310.821)" fill="none" stroke="#f04e98" stroke-miterlimit="10" stroke-width="2"></path>
    </g>
    <g id="Group_3157" data-name="Group 3157" transform="translate(393.172 1012.384)">
      <path id="Path_125472" data-name="Path 125472" d="M470.232,1106.957l.909-1.333" transform="translate(-437.927 -1072.589)" fill="none" stroke="#fff" stroke-miterlimit="10" stroke-width="1"></path>
      <path id="Path_125473" data-name="Path 125473" d="M432.695,1080.279a114.612,114.612,0,0,1,1.452,48.626c-2.236,11.964-6.343,24.554-2,35.922a3.369,3.369,0,0,0,1.129,1.7,3.613,3.613,0,0,0,2.411.287l62.869-7.1c-6.1-11.621-3.7-25.627-2.333-38.682a214.146,214.146,0,0,0-.95-52.241,3.291,3.291,0,0,0-3.8-3.413c-17.968-1.635-36.053.092-54.013,1.818a10.7,10.7,0,0,0-5.215,1.427c-1.493,1.045-2.358,3.228-1.354,4.75" transform="translate(-430.236 -1064.724)" fill="#59cbe8" stroke="#59cbe8" stroke-miterlimit="10" stroke-width="1"></path>
      <path id="Path_125474" data-name="Path 125474" d="M451.094,1139.093a38.278,38.278,0,0,1,3.7-4.323c.576-.58,1.351-1.187,2.127-.929a1.574,1.574,0,0,1,.851,1.842,4.589,4.589,0,0,1-1.135,1.885,4.421,4.421,0,0,1,3.08-.221,2.9,2.9,0,0,1,1.551,2.584,7.126,7.126,0,0,1-.757,3.059,7.777,7.777,0,0,1-2.165,3.169c-1.875,1.454-4.513,1.2-6.865.88a1.328,1.328,0,0,1-.753-.268c-.5-.475-.02-1.314-.125-2a4.832,4.832,0,0,0-.582-1.214c-.514-1.1-.015-2.388.481-3.5" transform="translate(-433.999 -1078.004)" fill="#fff" stroke="#fff" stroke-miterlimit="10" stroke-width="1"></path>
      <path id="Path_125475" data-name="Path 125475" d="M449.665,1085.511a25.664,25.664,0,0,1,1.336-3.326,1.425,1.425,0,0,1,2.522-.094,6.354,6.354,0,0,1,.6,1.556,1.565,1.565,0,0,0,.539,1.031,1.476,1.476,0,0,0,.7.153q1.953.1,3.89.391a.444.444,0,0,1,.355.178.424.424,0,0,1-.01.314,5.146,5.146,0,0,1-2.558,3.041,1.476,1.476,0,0,0-.7.528,1.289,1.289,0,0,0-.076.708l.366,4.47a.64.64,0,0,1-.339.635c-.264.127-.488-.039-.679-.2a41.867,41.867,0,0,1-3.61-3.337,26.538,26.538,0,0,1-2.576,2.7,1,1,0,0,1-1.674-.848,25.64,25.64,0,0,1,.513-3.2,9.6,9.6,0,0,1-2.242-1.841,1.044,1.044,0,0,1,.519-1.706,13.97,13.97,0,0,1,4.211-.439" transform="translate(-433.219 -1067.926)" fill="#703dc1" stroke="#703dc1" stroke-miterlimit="10" stroke-width="1"></path>
      <path id="Path_125476" data-name="Path 125476" d="M446.714,1120.57c.649-1.136.29-2.55.036-3.833s-.292-2.838.733-3.651a3.084,3.084,0,0,1,1.857-.55.879.879,0,0,0,.561-.136c.269-.229.141-.662.215-1.007.137-.635.912-.859,1.552-.963l2.436-.4a2.686,2.686,0,0,1,1.584.063.929.929,0,0,1,.445,1.325c1.043.393,2.37-.229,3.253.448a2.523,2.523,0,0,1,.762,1.636,19.383,19.383,0,0,1,.27,4.236,3.244,3.244,0,0,1-1.054,2.643,3.488,3.488,0,0,1-1.408.449l-8.974,1.5a2.221,2.221,0,0,1-1.359-.059c-.413-.207-.646-.816-.321-1.143" transform="translate(-433.382 -1073.42)" fill="#f04e98"></path>
      <path id="Path_125477" data-name="Path 125477" d="M444.373,1147.9a20.161,20.161,0,0,1,1.056-8.314,1,1,0,0,1,1.078-.835,14.53,14.53,0,0,1,2.333-.01,2.214,2.214,0,0,1,1.327.422,2.417,2.417,0,0,1,.492,2.009l-.229,3.787a6.642,6.642,0,0,1-.668,3.02,3.3,3.3,0,0,1-5.078.745" transform="translate(-432.941 -1078.95)" fill="#703dc1" stroke="#703dc1" stroke-miterlimit="10" stroke-width="1"></path>
      <path id="Path_125478" data-name="Path 125478" d="M456.1,1162.921l-10.51,7.848a1.695,1.695,0,0,0-.868,1.561l-.378,3.861c.909-.3,1.875.315,2.829.253a4.075,4.075,0,0,0,2.143-1.087l4.263-3.38c2-1.585,4-3.169,5.971-4.781a2.671,2.671,0,0,0,.781-.857,2.712,2.712,0,0,0-.109-1.955c-.344-1.092-1.019-2.418-2.158-2.307-.474.046-.926.359-1.392.255" transform="translate(-432.948 -1083.444)" fill="#703dc1" stroke="#703dc1" stroke-miterlimit="10" stroke-width="1"></path>
      <path id="Path_125479" data-name="Path 125479" d="M455.4,1115.111a3.408,3.408,0,0,0-4.593,3.726,1.473,1.473,0,0,0,.227.628,1.541,1.541,0,0,0,.7.482,4.3,4.3,0,0,0,4.057-.486,2.881,2.881,0,0,0,1.1-1.4,1.77,1.77,0,0,0-.292-1.7c-.218-.245-.544-.481-.5-.806" transform="translate(-434.184 -1074.371)" fill="none" stroke="#fff" stroke-miterlimit="10" stroke-width="1"></path>
      <path id="Path_125480" data-name="Path 125480" d="M458.407,1163.9a5.722,5.722,0,0,1,2.112,4.392" transform="translate(-435.653 -1083.795)" fill="none" stroke="#fff" stroke-miterlimit="10" stroke-width="1"></path>
      <path id="Path_125481" data-name="Path 125481" d="M469.738,1084.246a1.482,1.482,0,0,0,1.792.089,4.126,4.126,0,0,0,1.253-1.455,1.232,1.232,0,0,0,.242-1.135c-.231-.465-.972-.421-1.325-.04a2.36,2.36,0,0,0-.46,1.457c-.074.957-.017,2.116.813,2.6a1.821,1.821,0,0,0,2.142-.482,5.324,5.324,0,0,0,1.034-2.111.786.786,0,0,0-1.089-.012,84.054,84.054,0,0,0,16.1-.233,10.147,10.147,0,0,1,3-.052" transform="translate(-437.832 -1067.933)" fill="none" stroke="#fff" stroke-miterlimit="10" stroke-width="1"></path>
      <path id="Path_125482" data-name="Path 125482" d="M473.376,1093.446a23.986,23.986,0,0,1,6.84-.5" transform="translate(-438.532 -1070.14)" fill="none" stroke="#fff" stroke-miterlimit="10" stroke-width="1"></path>
      <path id="Path_125483" data-name="Path 125483" d="M485.059,1093.694l2.258-.3" transform="translate(-440.778 -1070.238)" fill="none" stroke="#fff" stroke-miterlimit="10" stroke-width="1"></path>
      <path id="Path_125484" data-name="Path 125484" d="M491.245,1093.189l1.581-.207" transform="translate(-441.968 -1070.158)" fill="none" stroke="#fff" stroke-miterlimit="10" stroke-width="1"></path>
      <path id="Path_125485" data-name="Path 125485" d="M473.56,1112.254l2.483-.326" transform="translate(-438.567 -1073.801)" fill="none" stroke="#fff" stroke-miterlimit="10" stroke-width="1"></path>
      <path id="Path_125486" data-name="Path 125486" d="M480.35,1111.929l1.771-.482" transform="translate(-439.873 -1073.709)" fill="none" stroke="#fff" stroke-miterlimit="10" stroke-width="1"></path>
      <path id="Path_125487" data-name="Path 125487" d="M488.769,1110.928c.1-.466.567-.74.878-1.1s.363-1.072-.1-1.183a.735.735,0,0,0-.691.348,1.6,1.6,0,0,0-.324,1.4,1.08,1.08,0,0,0,1.125.782c.75-.114,1.129-1.1,1.88-1.2a1.951,1.951,0,0,1,.942.213,10.023,10.023,0,0,0,3.6.691" transform="translate(-441.436 -1073.168)" fill="none" stroke="#fff" stroke-miterlimit="10" stroke-width="1"></path>
      <path id="Path_125488" data-name="Path 125488" d="M471.06,1120.562a50.737,50.737,0,0,0,13.337-2.025,1.858,1.858,0,0,0-.62-1.187.788.788,0,0,0-1.167.227.87.87,0,0,0,.306.907,3.09,3.09,0,0,0,2.128.55,52.153,52.153,0,0,0,5.972-.339" transform="translate(-438.086 -1074.813)" fill="none" stroke="#fff" stroke-miterlimit="10" stroke-width="1"></path>
      <path id="Path_125489" data-name="Path 125489" d="M474.414,1138.44l1.836-.02" transform="translate(-438.731 -1078.896)" fill="none" stroke="#fff" stroke-miterlimit="10" stroke-width="1"></path>
      <path id="Path_125490" data-name="Path 125490" d="M481.932,1136.9l9.493-1.174" transform="translate(-440.177 -1078.377)" fill="none" stroke="#fff" stroke-miterlimit="10" stroke-width="1"></path>
      <path id="Path_125491" data-name="Path 125491" d="M473.19,1144.032a68.651,68.651,0,0,0,10.331-.889,1.588,1.588,0,0,0-2.011,1.321,3.941,3.941,0,0,0,3.858-.259" transform="translate(-438.496 -1079.79)" fill="none" stroke="#fff" stroke-miterlimit="10" stroke-width="1"></path>
      <path id="Path_125492" data-name="Path 125492" d="M474.362,1163.1a.774.774,0,0,0,.937.367,1.746,1.746,0,0,0,.84-.687,5.038,5.038,0,0,0,.939-2.362c.047-.383-.078-.912-.464-.9-.358.007-.486.47-.512.827a4.159,4.159,0,0,0,.281,2.319,1.438,1.438,0,0,0,1.99.628c.409-.316.565-.921,1.04-1.125a1.569,1.569,0,0,1,.689-.075,81.03,81.03,0,0,0,10.562-.273" transform="translate(-438.721 -1082.952)" fill="none" stroke="#fff" stroke-miterlimit="10" stroke-width="1"></path>
      <path id="Path_125493" data-name="Path 125493" d="M473.78,1172.49l12.767.329c.623.016,1.381-.045,1.656-.6" transform="translate(-438.609 -1085.395)" fill="none" stroke="#fff" stroke-miterlimit="10" stroke-width="1"></path>
    </g>
    <g id="Group_3158" data-name="Group 3158" transform="translate(655.091 1015.32)">
      <path id="Path_125494" data-name="Path 125494" d="M858.575,1110.919a13.794,13.794,0,0,0-20.06-10.465c2.2-2.266,1.325-6.441-1.283-8.224a7.911,7.911,0,0,0-6.332-.94,14.782,14.782,0,0,0,.458-2.8,19.3,19.3,0,0,0-9.226-17.317,20.955,20.955,0,0,0-19.769-.657,22.939,22.939,0,0,0-11.985,15.916,8.016,8.016,0,0,0-12.759-4.552,13.758,13.758,0,0,0-3.869,5.8c-1.584,3.842-2.552,8.45-.932,12.122a9.43,9.43,0,0,0-1.6.2,24.689,24.689,0,0,0-14.578,9.177c-1.447,1.908-2.651,4.358-1.9,6.632.709,2.152,2.914,3.4,5,4.284,10.939,4.637,23.195,4.777,35.074,4.561,16.466-.3,32.958-1.434,49.318-3.1C850.418,1120.919,859.63,1119.091,858.575,1110.919Z" transform="translate(-754.512 -1068.36)" fill="#59cbe8" stroke="#59cbe8" stroke-miterlimit="10" stroke-width="2"></path>
      <path id="Path_125495" data-name="Path 125495" d="M775.453,1148.978a179.773,179.773,0,0,0,50.392,17.027,49.525,49.525,0,0,1,3.466-41.489c3.1-5.362,7.241-10.178,9.418-15.977,2.785-7.422,2.065-15.637,1.3-23.527a3.534,3.534,0,0,0-.765-2.248,3.5,3.5,0,0,0-1.664-.749,358.554,358.554,0,0,0-47.758-8.571c3.219,6.752,2.034,14.821-.616,21.815s-6.66,13.422-9.175,20.465c-3.929,11-7.015,21.825-4.595,33.254" transform="translate(-758.375 -1069.338)" fill="#f04e98"></path>
      <path id="Path_125496" data-name="Path 125496" d="M839.329,1108.886c1.86-4.957,2.153-10.268,1.917-15.6a8.077,8.077,0,0,0-5.883-.673,14.717,14.717,0,0,0,.457-2.8,18.24,18.24,0,0,0-1.519-8.4q-16.047-3.826-32.4-6.173a23.3,23.3,0,0,0-7.063,12.511,8.109,8.109,0,0,0-2.472-4.177,36.9,36.9,0,0,1-2.545,12.023c-2.65,6.995-6.66,13.422-9.175,20.465-1.073,3.005-2.077,6-2.93,8.991a132.332,132.332,0,0,0,21.562.918c10.281-.187,20.573-.7,30.836-1.464C833.192,1119.293,837.2,1114.56,839.329,1108.886Z" transform="translate(-758.975 -1069.685)" fill="#703dc1" stroke="#703dc1" stroke-miterlimit="10" stroke-width="2"></path>
      <path id="Path_125497" data-name="Path 125497" d="M800.613,1100.824c.449.849,1.83.691,2.429-.06a4.411,4.411,0,0,0,.651-2.749,2.357,2.357,0,1,0,3.838,2.68,2.428,2.428,0,0,0,.687,2.324c.67.521,1.894.239,2.022-.6a95.506,95.506,0,0,0,15.952,3.154c.68.075,1.59-.013,1.732-.682a5.128,5.128,0,0,0,1.959,1.3" transform="translate(-763.377 -1074.063)" fill="none" stroke="#fff" stroke-miterlimit="10" stroke-width="2"></path>
      <path id="Path_125498" data-name="Path 125498" d="M794.8,1118.054a3.419,3.419,0,0,0,4.9-1.723,1.647,1.647,0,0,0,.615,2.567,2.721,2.721,0,0,0,2.863-.755,1.421,1.421,0,0,0,1.229,1.287,10.925,10.925,0,0,0,1.933.033,9.449,9.449,0,0,1,2.4.512,70.187,70.187,0,0,0,13.871,2.673" transform="translate(-762.259 -1077.585)" fill="none" stroke="#fff" stroke-miterlimit="10" stroke-width="2"></path>
      <path id="Path_125499" data-name="Path 125499" d="M794.116,1130.471a73.158,73.158,0,0,1,7.942,1.437" transform="translate(-762.128 -1080.304)" fill="none" stroke="#fff" stroke-miterlimit="10" stroke-width="2"></path>
      <path id="Path_125500" data-name="Path 125500" d="M812.359,1133.7l3.3.955" transform="translate(-765.636 -1080.926)" fill="none" stroke="#fff" stroke-miterlimit="10" stroke-width="2"></path>
      <path id="Path_125501" data-name="Path 125501" d="M823.769,1137.6" transform="translate(-767.83 -1081.675)" fill="none" stroke="#fff" stroke-miterlimit="10" stroke-width="2"></path>
      <path id="Path_125502" data-name="Path 125502" d="M792.627,1140.307c-.653-.034-.846,1.018-.364,1.46a2.442,2.442,0,0,0,1.867.372,11.1,11.1,0,0,0-4.491,3.184,2.754,2.754,0,0,0,2.464.154,9.31,9.31,0,0,0-2.167,2.871l1.933,1.549" transform="translate(-761.267 -1082.195)" fill="none" stroke="#fff" stroke-miterlimit="10" stroke-width="2"></path>
    </g>
    <g id="Group_3159" data-name="Group 3159" transform="translate(340.789 1203.747)">
      <path id="Path_125503" data-name="Path 125503" d="M443.694,1305.561a125.3,125.3,0,0,0-19.857.886c-2.192.273-4.715.84-5.674,2.83a6.855,6.855,0,0,0-.435,3.117l.292,17.677c.029,1.775.1,3.686,1.178,5.1,1.26,1.656,3.51,2.14,5.572,2.424a78.054,78.054,0,0,0,14.27.649,21.8,21.8,0,0,1-2.627,4.75c1.951.139,3.209-1.93,4.75-3.135,4.709-3.682,12.821.637,17.089-3.547,1.671-1.638,2.15-4.112,2.476-6.43a114.615,114.615,0,0,0,1.091-18.018c-.037-1.982-.342-4.327-2.1-5.248a5.727,5.727,0,0,0-2.315-.48l-13.519-.885" transform="translate(-375.446 -1302.34)" fill="#f04e98"></path>
      <path id="Path_125504" data-name="Path 125504" d="M428.011,1372.11q-4.969-26.625-10.81-53.079a70.732,70.732,0,0,0-3.72-12.846c-.726-1.686-1.707-3.438-3.4-4.16a7.957,7.957,0,0,0-4.318-.159,190.63,190.63,0,0,0-35.894,9.127,7.2,7.2,0,0,0-3.795,2.4c-.993,1.511-.729,3.492-.4,5.27,2.274,12.246,12.669,47.323,12.7,47.44.592.523,3.875,9.193,4.21,13.028q.464,1.442.913,2.889c.876,2.848,1.371,5.89,2.486,8.657a5.526,5.526,0,0,0,3.022,3.311,7.478,7.478,0,0,0,4.295-.237,158.691,158.691,0,0,0,20.365-6.36q4.576-1.855,8.992-4.08c2.37-1.195,4.757-2.95,5.517-5.643A12.28,12.28,0,0,0,428.011,1372.11Z" transform="translate(-365.381 -1301.648)" fill="#59cbe8" stroke="#59cbe8" stroke-miterlimit="10" stroke-width="1"></path>
      <path id="Path_125505" data-name="Path 125505" d="M407.859,1325.922a14.3,14.3,0,0,0-8.539-2.576c-8.2.169-16.043,8.039-14.34,16.487,1.513,7.509,9.961,12.071,17.2,10.323,6.537-1.578,11.158-8.6,10.769-15.2A11.824,11.824,0,0,0,407.859,1325.922Z" transform="translate(-369.105 -1305.82)" fill="none" stroke="#703dc1" stroke-miterlimit="10" stroke-width="1"></path>
      <path id="Path_125506" data-name="Path 125506" d="M443.694,1305.561a125.3,125.3,0,0,0-19.857.886c-2.192.273-4.715.84-5.674,2.83a6.855,6.855,0,0,0-.435,3.117l.292,17.677c.029,1.775.1,3.686,1.178,5.1,1.26,1.656,3.51,2.14,5.572,2.424a78.054,78.054,0,0,0,14.27.649,21.8,21.8,0,0,1-2.627,4.75c1.951.139,3.209-1.93,4.75-3.135,4.709-3.682,12.821.637,17.089-3.547,1.671-1.638,2.15-4.112,2.476-6.43a114.615,114.615,0,0,0,1.091-18.018c-.037-1.982-.342-4.327-2.1-5.248a5.727,5.727,0,0,0-2.315-.48l-13.519-.885" transform="translate(-375.446 -1302.34)" fill="#f04e98"></path>
      <path id="Path_125507" data-name="Path 125507" d="M390.028,1387.176l.867,2.269a1.774,1.774,0,0,0,.278.536,1.211,1.211,0,0,0,1.136.33,3.58,3.58,0,0,0,1.129-.5.761.761,0,0,0,.369-.349.77.77,0,0,0,0-.393l-.27-1.543a2.189,2.189,0,0,0-.608-1.393c-.666-.535-1.642-.131-2.387.285l.312-.123" transform="translate(-370.121 -1317.846)" fill="#fff"></path>
      <path id="Path_125508" data-name="Path 125508" d="M396.774,1385.231l.867,2.27a1.8,1.8,0,0,0,.278.535,1.211,1.211,0,0,0,1.136.33,3.568,3.568,0,0,0,1.129-.5.571.571,0,0,0,.37-.741l-.269-1.543a2.19,2.19,0,0,0-.609-1.393c-.665-.535-1.641-.132-2.387.284l.312-.123" transform="translate(-371.418 -1317.472)" fill="#fff"></path>
      <path id="Path_125509" data-name="Path 125509" d="M403.52,1383.286l.867,2.27a1.807,1.807,0,0,0,.278.535,1.212,1.212,0,0,0,1.137.33,3.561,3.561,0,0,0,1.129-.5.763.763,0,0,0,.368-.349.75.75,0,0,0,0-.392l-.269-1.543a2.188,2.188,0,0,0-.609-1.392c-.665-.535-1.641-.132-2.386.284l.311-.123" transform="translate(-372.715 -1317.098)" fill="#fff"></path>
      <path id="Path_125510" data-name="Path 125510" d="M410.267,1381.341l.867,2.27a1.761,1.761,0,0,0,.278.535,1.211,1.211,0,0,0,1.136.33,3.582,3.582,0,0,0,1.129-.5.572.572,0,0,0,.37-.741l-.27-1.544a2.187,2.187,0,0,0-.608-1.392c-.666-.535-1.642-.132-2.387.284l.312-.123" transform="translate(-374.012 -1316.724)" fill="#fff"></path>
      <path id="Path_125511" data-name="Path 125511" d="M417.013,1379.4l.867,2.269a1.777,1.777,0,0,0,.278.535,1.209,1.209,0,0,0,1.136.33,3.566,3.566,0,0,0,1.129-.5.571.571,0,0,0,.37-.741l-.27-1.544a2.187,2.187,0,0,0-.608-1.392c-.666-.535-1.641-.132-2.387.285l.312-.123" transform="translate(-375.31 -1316.35)" fill="#fff"></path>
      <path id="Path_125512" data-name="Path 125512" d="M423.759,1377.452l.867,2.269a1.813,1.813,0,0,0,.278.536,1.212,1.212,0,0,0,1.137.33,3.581,3.581,0,0,0,1.129-.5.763.763,0,0,0,.368-.349.752.752,0,0,0,0-.392l-.269-1.543a2.194,2.194,0,0,0-.609-1.393c-.665-.535-1.641-.131-2.387.285l.312-.123" transform="translate(-376.607 -1315.976)" fill="#fff"></path>
      <path id="Path_125513" data-name="Path 125513" d="M430.506,1375.507l.867,2.27a1.779,1.779,0,0,0,.278.536,1.211,1.211,0,0,0,1.136.33,3.581,3.581,0,0,0,1.129-.5.761.761,0,0,0,.369-.349.769.769,0,0,0,0-.393l-.27-1.543a2.182,2.182,0,0,0-.609-1.392c-.665-.535-1.641-.132-2.386.284l.312-.123" transform="translate(-377.904 -1315.602)" fill="#fff"></path>
      <path id="Path_125514" data-name="Path 125514" d="M392.384,1394.955l.867,2.27a1.815,1.815,0,0,0,.278.536,1.212,1.212,0,0,0,1.137.33,3.584,3.584,0,0,0,1.129-.5.571.571,0,0,0,.369-.741l-.269-1.543a2.19,2.19,0,0,0-.609-1.392c-.665-.535-1.641-.132-2.387.284l.312-.123" transform="translate(-370.574 -1319.342)" fill="#fff"></path>
      <path id="Path_125515" data-name="Path 125515" d="M399.131,1393.01l.867,2.27a1.761,1.761,0,0,0,.278.536,1.211,1.211,0,0,0,1.136.33,3.564,3.564,0,0,0,1.129-.5.571.571,0,0,0,.37-.741l-.27-1.543a2.183,2.183,0,0,0-.609-1.392c-.665-.535-1.641-.132-2.386.284l.312-.123" transform="translate(-371.871 -1318.968)" fill="#fff"></path>
      <path id="Path_125516" data-name="Path 125516" d="M405.877,1391.065l.867,2.27a1.759,1.759,0,0,0,.278.536,1.211,1.211,0,0,0,1.136.33,3.572,3.572,0,0,0,1.129-.5.766.766,0,0,0,.369-.35.758.758,0,0,0,0-.392l-.27-1.543a2.187,2.187,0,0,0-.608-1.392c-.666-.535-1.642-.132-2.387.284l.312-.123" transform="translate(-373.168 -1318.594)" fill="#fff"></path>
      <path id="Path_125517" data-name="Path 125517" d="M412.623,1389.121l.867,2.269a1.8,1.8,0,0,0,.278.536,1.209,1.209,0,0,0,1.136.33,3.566,3.566,0,0,0,1.129-.5.571.571,0,0,0,.37-.741l-.269-1.543a2.191,2.191,0,0,0-.609-1.392c-.665-.535-1.641-.132-2.387.285l.312-.123" transform="translate(-374.466 -1318.22)" fill="#fff"></path>
      <path id="Path_125518" data-name="Path 125518" d="M419.37,1387.176l.867,2.269a1.811,1.811,0,0,0,.278.536,1.212,1.212,0,0,0,1.137.33,3.579,3.579,0,0,0,1.129-.5.573.573,0,0,0,.37-.741l-.27-1.543a2.186,2.186,0,0,0-.609-1.393c-.665-.535-1.641-.131-2.386.285l.311-.123" transform="translate(-375.763 -1317.846)" fill="#fff"></path>
      <path id="Path_125519" data-name="Path 125519" d="M426.116,1385.231l.867,2.27a1.778,1.778,0,0,0,.278.535,1.211,1.211,0,0,0,1.136.33,3.576,3.576,0,0,0,1.129-.5.571.571,0,0,0,.37-.741l-.27-1.543a2.185,2.185,0,0,0-.608-1.393c-.666-.535-1.642-.132-2.387.284l.312-.123" transform="translate(-377.06 -1317.472)" fill="#fff"></path>
      <path id="Path_125520" data-name="Path 125520" d="M432.862,1383.286l.867,2.27a1.788,1.788,0,0,0,.278.535,1.211,1.211,0,0,0,1.136.33,3.546,3.546,0,0,0,1.129-.5.571.571,0,0,0,.37-.741l-.269-1.543a2.192,2.192,0,0,0-.609-1.392c-.665-.535-1.641-.132-2.387.284l.312-.123" transform="translate(-378.357 -1317.098)" fill="#fff"></path>
      <path id="Path_125521" data-name="Path 125521" d="M394.741,1402.734l.867,2.27a1.762,1.762,0,0,0,.278.536,1.211,1.211,0,0,0,1.136.33,3.564,3.564,0,0,0,1.129-.5.571.571,0,0,0,.37-.741l-.27-1.543a2.187,2.187,0,0,0-.608-1.393c-.666-.535-1.642-.132-2.387.284l.312-.123" transform="translate(-371.027 -1320.838)" fill="#fff"></path>
      <path id="Path_125522" data-name="Path 125522" d="M435.219,1391.065l.867,2.27a1.76,1.76,0,0,0,.278.536,1.211,1.211,0,0,0,1.136.33,3.579,3.579,0,0,0,1.129-.5.572.572,0,0,0,.37-.741l-.27-1.543a2.184,2.184,0,0,0-.609-1.392c-.665-.535-1.641-.132-2.386.284l.312-.123" transform="translate(-378.811 -1318.594)" fill="#fff"></path>
      <path id="Path_125523" data-name="Path 125523" d="M388.547,1379.4q17.217-4.277,34.193-9.46" transform="translate(-369.836 -1314.78)" fill="none" stroke="#703dc1" stroke-miterlimit="10" stroke-width="1"></path>
      <path id="Path_125524" data-name="Path 125524" d="M433.042,1323.645a1.537,1.537,0,0,0-.807,1.161.982.982,0,0,0,.813,1.049,1.088,1.088,0,0,0,.766-.283,1.329,1.329,0,0,0,.462-1.356.948.948,0,0,0-1.195-.624" transform="translate(-378.237 -1305.857)" fill="#fff"></path>
      <path id="Path_125525" data-name="Path 125525" d="M442.973,1323.645a1.536,1.536,0,0,0-.808,1.161.982.982,0,0,0,.813,1.049,1.091,1.091,0,0,0,.766-.283,1.332,1.332,0,0,0,.462-1.356.949.949,0,0,0-1.2-.624" transform="translate(-380.146 -1305.857)" fill="#fff"></path>
      <path id="Path_125526" data-name="Path 125526" d="M452.9,1323.645a1.536,1.536,0,0,0-.808,1.161.982.982,0,0,0,.813,1.049,1.091,1.091,0,0,0,.767-.283,1.332,1.332,0,0,0,.462-1.356.949.949,0,0,0-1.2-.624" transform="translate(-382.056 -1305.857)" fill="#fff"></path>
      <path id="Path_125527" data-name="Path 125527" d="M395.021,1351.289a3.667,3.667,0,0,0,1.763-3.356,14.19,14.19,0,0,0-.846-3.891,29.613,29.613,0,0,1-1.077-5.7,2.389,2.389,0,0,1,.074-1.068,2.309,2.309,0,0,1,.955-1,15.313,15.313,0,0,1,6.995-2.492,3.179,3.179,0,0,1,2.091.33,3.322,3.322,0,0,1,.989,1.284,30.034,30.034,0,0,1,1.993,4.774,5.042,5.042,0,0,0,1.2,2.35c1.061.941,2.959.921,3.51,2.227" transform="translate(-371.045 -1307.821)" fill="none" stroke="#703dc1" stroke-miterlimit="10" stroke-width="1"></path>
      <path id="Path_125528" data-name="Path 125528" d="M394.517,1341.265a10.373,10.373,0,0,0,4.637-2.939,1.467,1.467,0,0,0,.484-.972c-.012-.372-.44-.723-.755-.526s-.216.681.038.934a1.58,1.58,0,0,0,1.829.126,4.644,4.644,0,0,0,1.38-1.377l3.223-4.289" transform="translate(-370.984 -1307.527)" fill="none" stroke="#703dc1" stroke-miterlimit="10" stroke-width="1"></path>
      <path id="Path_125529" data-name="Path 125529" d="M399.706,1343.719a.674.674,0,0,1,.674-.377.585.585,0,0,1,.5.568c0,.172-.158.363-.321.305-.146-.052-.168-.254-.123-.4a1,1,0,0,0,.1-.449" transform="translate(-371.982 -1309.664)" fill="none" stroke="#703dc1" stroke-miterlimit="10" stroke-width="1"></path>
      <path id="Path_125530" data-name="Path 125530" d="M404.419,1342.313a.672.672,0,0,1,.674-.377.585.585,0,0,1,.5.568c-.006.172-.158.363-.321.305-.146-.052-.168-.254-.124-.4a.992.992,0,0,0,.1-.45" transform="translate(-372.888 -1309.394)" fill="none" stroke="#703dc1" stroke-miterlimit="10" stroke-width="1"></path>
      <path id="Path_125531" data-name="Path 125531" d="M405.479,1341.93" transform="translate(-373.092 -1309.394)" fill="none" stroke="#703dc1" stroke-miterlimit="10" stroke-width="1"></path>
      <path id="Path_125532" data-name="Path 125532" d="M403.371,1346.764a9.535,9.535,0,0,0,2.18-.558" transform="translate(-372.686 -1310.216)" fill="none" stroke="#703dc1" stroke-miterlimit="10" stroke-width="1"></path>
      <path id="Path_125533" data-name="Path 125533" d="M432.078,1338.2c-1.289-6.17-2.747-12.7-4.106-18.851a65.493,65.493,0,0,0-3.733-12.319c-.052-.123-.8-.1-.857-.22-2.076.3-4.326.916-5.219,2.77a6.855,6.855,0,0,0-.435,3.117q.147,8.838.292,17.677c.029,1.775.1,3.686,1.178,5.1,1.26,1.656,3.51,2.14,5.572,2.424C426.915,1338.189,429.916,1338.08,432.078,1338.2Z" transform="translate(-375.446 -1302.64)" fill="#703dc1" stroke="#703dc1" stroke-miterlimit="10" stroke-width="1"></path>
      <path id="Path_125534" data-name="Path 125534" d="M427.064,1394.9l-.269-1.543a2.191,2.191,0,0,0-.609-1.392,1.168,1.168,0,0,0-.674-.253h0c-.666-.535-22.762,6.4-23.507,6.82l.312-.123-.828.876.867,2.27a1.779,1.779,0,0,0,.278.536,1.211,1.211,0,0,0,1.136.33c.407-.074,22.506-5.992,22.862-6.2a.572.572,0,0,0,.37-.741l-.01-.062a.42.42,0,0,0,.073-.124A.749.749,0,0,0,427.064,1394.9Z" transform="translate(-372.324 -1318.962)" fill="#703dc1"></path>
    </g>
    <path id="Path_125535" data-name="Path 125535" d="M673.2,1474.1a109.392,109.392,0,0,0-6.6,17.764" transform="translate(-82.516 -131.063)" fill="none" stroke="#6ad0ef" stroke-miterlimit="10" stroke-width="3"></path>
  </g>
</svg>
