<?xml version="1.0" encoding="UTF-8"?>
<svg xmlns="http://www.w3.org/2000/svg" width="250.97" height="219.427" viewBox="0 0 250.97 219.427">
  <g id="Group_3430" data-name="Group 3430" transform="translate(-200.341 -162.755)">
    <path id="Path_89361" data-name="Path 89361" d="M254.631,218.166q24-21.422,60.214-25.856l-5.174-29.555a174.466,174.466,0,0,0-52.824,16.625,143.119,143.119,0,0,0-41.006,30.659,132.795,132.795,0,0,0-15.5,20.5V362.855q17.733,19.324,45.792,19.327,27.327,0,43.96-16.254t16.625-42.852q0-25.85-14.038-41.372T255,266.191a79.894,79.894,0,0,0-31.766,6.649Q230.605,239.591,254.631,218.166Z" fill="#240467"></path>
    <path id="Path_89362" data-name="Path 89362" d="M391.468,266.191A79.9,79.9,0,0,0,359.7,272.84q7.376-33.249,31.4-54.674,24-21.422,60.214-25.856l-5.169-29.555a174.489,174.489,0,0,0-52.829,16.625,143.114,143.114,0,0,0-41,30.659,133.073,133.073,0,0,0-26.226,42.114q-9.246,23.655-9.235,51.716,0,35.459,18.1,56.89T382.6,382.182q27.318,0,43.959-16.254,16.62-16.242,16.621-42.852,0-25.85-14.039-41.372T391.468,266.191Z" fill="#240467"></path>
  </g>
</svg>
