<?xml version="1.0" encoding="UTF-8"?>
<svg xmlns="http://www.w3.org/2000/svg" width="461.354" height="397.396" viewBox="0 0 461.354 397.396">
  <g id="Group_3545" data-name="Group 3545" transform="translate(-7207.487 3393.483)">
    <g id="Group_3543" data-name="Group 3543" transform="translate(7335.142 -3393.483)">
      <path id="Path_126493" data-name="Path 126493" d="M7605.208-3319.7c-25.415-122.335-222.57-66.687-231.18,39.55-2.779,34.274,16.8,68.505,46.083,86.525s66.745,20.534,99.486,10.021C7575.5-3201.554,7617.145-3262.215,7605.208-3319.7Z" transform="translate(-7370.428 3392.58)" fill="#703dc1"></path>
      <path id="Path_126494" data-name="Path 126494" d="M7479.19-3174.958c-22.2,0-43.77-5.676-61.73-16.726-31.292-19.254-50.448-55.278-47.664-89.641,2.362-29.155,18.9-56.917,46.563-78.171,25.357-19.482,57.828-31.769,89.08-33.708,53.869-3.351,92.094,23.538,102.143,71.917h0c11.79,56.786-28.445,120.881-87.863,139.959A132.862,132.862,0,0,1,7479.19-3174.958Zm34.99-211.835q-4.094,0-8.326.261c-58.647,3.64-124.635,47-129.394,105.747-2.589,31.92,15.3,65.438,44.5,83.409,27.238,16.762,63.393,20.379,96.712,9.686,56.313-18.082,94.488-78.639,83.358-132.237C7592.248-3362.237,7560.053-3386.793,7514.181-3386.793Z" transform="translate(-7369.528 3393.483)" fill="#703dc1"></path>
    </g>
    <g id="Group_3544" data-name="Group 3544" transform="translate(7207.487 -3221.56)">
      <path id="Path_126495" data-name="Path 126495" d="M7443.167-3101.471c-25.414-122.334-222.569-66.687-231.18,39.55-2.778,34.275,16.8,68.506,46.084,86.526s66.746,20.534,99.485,10.021C7413.454-2983.322,7455.1-3043.983,7443.167-3101.471Z" transform="translate(-7208.386 3174.346)" fill="#59cbe8"></path>
      <path id="Path_126496" data-name="Path 126496" d="M7317.144-2956.725c-22.2,0-43.767-5.676-61.725-16.726-31.292-19.254-50.448-55.278-47.664-89.641,2.363-29.156,18.9-56.916,46.564-78.169,25.358-19.483,57.825-31.769,89.077-33.709,53.885-3.339,92.092,23.542,102.146,71.917h0c11.79,56.789-28.445,120.882-87.862,139.958A132.862,132.862,0,0,1,7317.144-2956.725Zm35-211.837c-2.731,0-5.5.088-8.333.263-58.641,3.64-124.628,47-129.387,105.744-2.589,31.92,15.3,65.439,44.5,83.411,27.238,16.762,63.4,20.385,96.711,9.684,56.311-18.079,94.482-78.639,83.358-132.233h0C7430.205-3144,7398.009-3168.562,7352.14-3168.562Z" transform="translate(-7207.487 3175.249)" fill="#59cbe8"></path>
    </g>
    <path id="Path_126497" data-name="Path 126497" d="M7491.866-3064.148c2.924-124.912,206.884-105.75,234.521-2.81,8.917,33.21-4.16,70.411-29.715,93.42s-61.946,32.24-96.046,27.807C7542.408-2953.3,7490.5-3005.451,7491.866-3064.148Z" transform="translate(-60.343 -51.435)" fill="#f04e98"></path>
    <path id="Path_126498" data-name="Path 126498" d="M7421.122-3186.346l-4.6-4.851,27.663-26.249c2.056-1.95,4.181-3.967,5.255-6.314,1.155-2.525,1.207-5.672,1.26-8.715l.9-50.315c.068-3.752.146-8,2-11.97,2.722-5.819,8.32-9.1,13.354-11.718a229.4,229.4,0,0,1,40.326-16.316c19.492-5.8,33.854-4.9,43.887,2.761,9.11,6.952,12.824,18.221,15.592,28.237,3,10.849,5.579,21.982,7.657,33.088,1.793,9.562,4.357,20,12.194,22.877,4.352,1.6,8.712,3.451,10.069,7a6,6,0,0,1-.371,5.087l-5.908-3.127a.833.833,0,0,0,.056.468c-.415-.744-2.484-1.8-6.149-3.147-12.061-4.426-14.923-19.711-16.461-27.923-2.046-10.921-4.579-21.868-7.529-32.536-2.478-8.968-5.748-19.013-13.2-24.705-8.212-6.271-20.615-6.818-37.928-1.668a222.6,222.6,0,0,0-39.147,15.84c-4.061,2.111-8.548,4.694-10.383,8.622-1.257,2.678-1.315,6.02-1.374,9.253l-.9,50.314c-.06,3.376-.131,7.581-1.867,11.376-1.609,3.524-4.331,6.105-6.729,8.384Z" transform="translate(-44.358 -14.203)" fill="#59cbe8"></path>
    <path id="Path_126499" data-name="Path 126499" d="M7261.28-2972.045l-3.009-5.97,27.972-14.105a6.75,6.75,0,0,0,2.311-1.54,6.943,6.943,0,0,0,.359-3.153,459.13,459.13,0,0,1,4.9-73.926c3.134-21.677,8.862-45.609,27.577-58.755a46.913,46.913,0,0,1,47.436-3.19c21.79,11.283,29.493,37.2,32.146,51.644,1.512,8.21,2.334,16.611,3.131,24.733,1.123,11.414,2.281,23.217,5.366,34.293.395,1.418.888,2.991,1.729,3.725,1.008.88,2.98,1.014,5.083,1.083l21.667.69-.216,6.681-21.666-.69c-2.537-.082-6.368-.206-9.257-2.723-2.239-1.949-3.124-4.621-3.779-6.973-3.241-11.635-4.43-23.734-5.578-35.433-.783-7.985-1.593-16.242-3.052-24.178-2.432-13.24-9.391-36.944-28.648-46.916a40.063,40.063,0,0,0-40.516,2.725c-16.64,11.685-21.878,33.977-24.81,54.241a452.949,452.949,0,0,0-4.831,72.844c.037,1.928.085,4.572-1.436,6.919a11.674,11.674,0,0,1-4.909,3.868Z" transform="translate(-10.777 -54.29)" fill="#703dc1"></path>
    <path id="Path_126500" data-name="Path 126500" d="M7703.35-2965.5l-26.964-13.43a18.531,18.531,0,0,1-6.63-4.738c-2.092-2.629-2.715-5.795-3.172-8.813-1.365-8.94-2.119-18.078-2.85-26.913-1.23-14.889-2.5-30.283-6.73-44.661-5.748-19.543-21.083-43.494-45.393-46.68-24.521-3.221-46.093,16.678-55.769,36.519-8.694,17.84-11.629,38.25-14.469,57.986-.683,4.756-1.368,9.507-2.125,14.221-.754,4.687-3.237,11.115-7.761,13.81a8.565,8.565,0,0,1-7.406.748l2.213-6.31a1.9,1.9,0,0,0,1.772-.181c1.965-1.17,3.933-5.095,4.583-9.127.754-4.681,1.429-9.394,2.107-14.112,2.912-20.247,5.924-41.183,15.08-59.964,10.686-21.923,34.833-43.863,62.642-40.219,27.5,3.6,44.626,29.954,50.935,51.422,4.423,15.034,5.726,30.775,6.982,46,.721,8.725,1.468,17.745,2.793,26.459.34,2.215.731,4.315,1.8,5.658a13.052,13.052,0,0,0,4.377,2.915l26.96,13.43Z" transform="translate(-67.184 -58.511)" fill="#fff"></path>
    <path id="Path_126501" data-name="Path 126501" d="M7625.174-3069.085a16.37,16.37,0,0,1-6.548-1.338,16.61,16.61,0,0,1-6.616-5.322,15.994,15.994,0,0,1-9.834-.012c-11.317-3.3-18.338-14.419-22.982-21.773l5.654-3.57c5.434,8.605,10.993,16.529,19.2,18.926a10.481,10.481,0,0,0,5.046.336,16.03,16.03,0,0,1-.5-4.34,6.625,6.625,0,0,1,2.251-4.925,4.489,4.489,0,0,1,3.768-.878,5.068,5.068,0,0,1,3.375,2.67,9.064,9.064,0,0,1-.689,9.467,9.82,9.82,0,0,0,4,3.3,10.428,10.428,0,0,0,8.646-.332,16.346,16.346,0,0,1-1.228-1.749,7.308,7.308,0,0,1-1.185-5.251,5.711,5.711,0,0,1,5.1-4.532,6.955,6.955,0,0,1,7.194,3.744,8.472,8.472,0,0,1-.053,6.9c3.859,1.59,8.761,1.748,12.991,1.16a56.118,56.118,0,0,0,20.847-7.341l3.427,5.738a62.792,62.792,0,0,1-23.35,8.222c-7.145,1-13.493.1-18.269-2.438A17.262,17.262,0,0,1,7625.174-3069.085Z" transform="translate(-78.88 -62.046)" fill="#fff"></path>
    <path id="Path_126502" data-name="Path 126502" d="M7306.55-3084.349l-.666-6.652a109.218,109.218,0,0,0,39.909-12.085,31.333,31.333,0,0,0,8.535-6.4,7.811,7.811,0,0,1-1.509-3.925,7.071,7.071,0,0,1,2.905-6.206,6.15,6.15,0,0,1,5.964-.874l1.814.732.251,1.939a14.148,14.148,0,0,1-.4,5.661,25.847,25.847,0,0,0,3.433-.37c10.53-1.611,21.043-3.313,31.557-5.014l.528-.087,1.071,6.6-.533.084c-10.528,1.706-21.062,3.409-31.61,5.022a20.084,20.084,0,0,1-7.795.1,35.041,35.041,0,0,1-11.077,8.645A115.969,115.969,0,0,1,7306.55-3084.349Z" transform="translate(-20.881 -57.843)" fill="#703dc1"></path>
    <path id="Path_126503" data-name="Path 126503" d="M7463.511-3255.024l-2.514-6.191a138.672,138.672,0,0,0,46.036-30.724,10.708,10.708,0,0,1,.375-5.377,8.552,8.552,0,0,1,5.452-5.565l3.025-.956,1.113,2.971c1.152,3.08.479,6.4-2,9.911a9.428,9.428,0,0,0,6.457,1.609,15.036,15.036,0,0,0,10.529-6.209,17.061,17.061,0,0,0,1.9-3.176,11.865,11.865,0,0,1-1.1-2.811c-.973-3.986.826-8.1,4.188-9.569l3.809-1.663.806,4.076a20.208,20.208,0,0,1-.291,8.963c.248.3.5.6.741.881.8.935,1.893,2.219,2.813,2.434,1.107.268,3.029-.853,4.168-1.524l27.016-15.883,3.388,5.763-27.016,15.883c-2,1.18-5.356,3.148-9.084,2.271a10.351,10.351,0,0,1-4.994-3.067c-.317.49-.649.971-1.005,1.441a21.715,21.715,0,0,1-15.3,8.854,15.688,15.688,0,0,1-11.492-3.306A145.378,145.378,0,0,1,7463.511-3255.024Z" transform="translate(-53.797 -16.904)" fill="#59cbe8"></path>
    <path id="Path_126504" data-name="Path 126504" d="M7526.866-3240.239a4.764,4.764,0,0,1-.666-.046,4.992,4.992,0,0,1-3.388-2.079,5.95,5.95,0,0,1-.982-4.5,9.384,9.384,0,0,1,2.556-4.478l1.436,1.286,3.972-1.927a11.767,11.767,0,0,0,.611,1.048,11.127,11.127,0,0,1,1.616,3.585,6.322,6.322,0,0,1-1.5,5.475A4.965,4.965,0,0,1,7526.866-3240.239Z" transform="translate(-66.685 -30.028)" fill="#59cbe8"></path>
    <path id="Path_126505" data-name="Path 126505" d="M7564.556-3247.027a4.838,4.838,0,0,1-.662-.045,4.985,4.985,0,0,1-3.385-2.073,5.945,5.945,0,0,1-.992-4.5,9.465,9.465,0,0,1,2.549-4.481l1.439,1.282,3.976-1.929a11.25,11.25,0,0,0,.61,1.049,11.05,11.05,0,0,1,1.615,3.576,6.336,6.336,0,0,1-1.5,5.487A4.964,4.964,0,0,1,7564.556-3247.027Z" transform="translate(-74.683 -28.587)" fill="#59cbe8"></path>
    <path id="Path_126506" data-name="Path 126506" d="M7538.683-3212.019a43.805,43.805,0,0,1-12.811-5.118l3.42-5.741a37.321,37.321,0,0,0,10.865,4.341Z" transform="translate(-67.564 -36.204)" fill="#59cbe8"></path>
    <path id="Path_126507" data-name="Path 126507" d="M7352.474-3058.865l-.7-3.176a12.872,12.872,0,0,1,1.551-9.344l2.869,1.738,1.984-3.157a7.346,7.346,0,0,1,3.28,7.519,7.436,7.436,0,0,1-5.794,5.812Z" transform="translate(-30.557 -68.051)" fill="#703dc1"></path>
    <path id="Path_126508" data-name="Path 126508" d="M7388.633-3066.656l-.691-3.181a12.891,12.891,0,0,1,1.554-9.339l2.869,1.738,1.988-3.157a7.345,7.345,0,0,1,3.277,7.517,7.345,7.345,0,0,1-5.8,5.812Z" transform="translate(-38.233 -66.398)" fill="#703dc1"></path>
    <path id="Path_126509" data-name="Path 126509" d="M7377.584-3034.975a26.689,26.689,0,0,1-16.359-12.612l5.816-3.29a20.26,20.26,0,0,0,12.246,9.436Z" transform="translate(-32.625 -72.704)" fill="#703dc1"></path>
    <path id="Path_126510" data-name="Path 126510" d="M7289.59-3024.277c-3.33-1.691-6.515-3.455-8.914-6.411a13.442,13.442,0,0,1-1.89-3.145,9.755,9.755,0,0,1-5.053.369c-4.488-.906-8.192-4.958-9.015-9.854a15,15,0,0,1,.264-6.043,11.66,11.66,0,0,1-3.153-3.179,16.621,16.621,0,0,1-2.519-9.253c-.042-5.289,1.834-9.756,5.147-12.25a16.962,16.962,0,0,1,6.917-2.755,81.572,81.572,0,0,1,25.746-1.312l-.718,6.645a74.936,74.936,0,0,0-23.638,1.2,11.393,11.393,0,0,0-4.289,1.559c-2.275,1.713-2.494,5.366-2.48,6.855a10.135,10.135,0,0,0,1.394,5.593,4.978,4.978,0,0,0,.457.582c2.066-2.918,4.416-2.994,5.679-2.772a4.814,4.814,0,0,1,3.477,2.694,5.391,5.391,0,0,1-.062,4.866,6.7,6.7,0,0,1-5.516,3.331,8.2,8.2,0,0,0-.111,3.124,5.387,5.387,0,0,0,3.744,4.409,3.326,3.326,0,0,0,2.523-.635,3.18,3.18,0,0,0,.467-.421,9.315,9.315,0,0,1,.927-2.348l7.955-14.265-1.714,16.244a8.267,8.267,0,0,1-.776,2.735,6.242,6.242,0,0,0,1.43,3.81c1.573,1.937,3.989,3.257,6.753,4.66Zm-16.059-27.807Z" transform="translate(-10.997 -66.825)" fill="#703dc1"></path>
    <path id="Path_126511" data-name="Path 126511" d="M7640.893-3032.11a4.582,4.582,0,0,1-.846-.079,4.806,4.806,0,0,1-3.557-3.014,6.6,6.6,0,0,1,.26-4.585l1.877.669-.96-2.792a5.612,5.612,0,0,1,5.069.806,5.624,5.624,0,0,1,2.4,4.539,4.513,4.513,0,0,1-1.14,3.086A4.121,4.121,0,0,1,7640.893-3032.11Zm-1.864-5.844-.009.009a2.15,2.15,0,0,0-.568,1.369,1.125,1.125,0,0,0,.395.906,1.138,1.138,0,0,0,1,.079Zm.979-.673,2.687.958a1.9,1.9,0,0,0-1.388-1.086A2.39,2.39,0,0,0,7640.008-3038.627Z" transform="translate(-90.972 -74.546)" fill="#fff"></path>
    <path id="Path_126512" data-name="Path 126512" d="M7600.316-3035.915a4.6,4.6,0,0,1-.861-.083,4.8,4.8,0,0,1-3.542-3.024,6.644,6.644,0,0,1,.274-4.583l1.87.674-.957-2.787a5.634,5.634,0,0,1,5.07.811,5.614,5.614,0,0,1,2.4,4.535,4.6,4.6,0,0,1-1.113,3.06A4.183,4.183,0,0,1,7600.316-3035.915Zm-1.857-5.842a2.157,2.157,0,0,0-.577,1.34,1.157,1.157,0,0,0,.395.944,1.155,1.155,0,0,0,.992.08Zm.979-.675,2.7.972a1.919,1.919,0,0,0-1.391-1.1A2.451,2.451,0,0,0,7599.438-3042.431Z" transform="translate(-82.363 -73.74)" fill="#fff"></path>
    <path id="Path_126513" data-name="Path 126513" d="M7626.228-2997.1q-.656,0-1.309-.046l.47-6.668a12.754,12.754,0,0,0,8.613-2.616,12.741,12.741,0,0,0,4.658-7.7l6.58,1.191a19.5,19.5,0,0,1-7.139,11.786A19.54,19.54,0,0,1,7626.228-2997.1Z" transform="translate(-88.583 -80.503)" fill="#fff"></path>
    <path id="Path_126514" data-name="Path 126514" d="M7454.845-3298.75a34.207,34.207,0,0,1-10.455-1.374c-6.036-1.94-10.565-6.392-11.823-11.62a18.772,18.772,0,0,1,.6-9.728c2.007-6.892,6.008-12.968,9.936-18.6,6.936-9.952,15.706-20.279,28.158-21.412a15.134,15.134,0,0,1,9.394,1.838c4.527,2.743,6.949,8.176,7.2,16.146a75.889,75.889,0,0,1-3.737,26.122l-6.352-2.079a69.326,69.326,0,0,0,3.412-23.828c-.177-5.569-1.518-9.149-3.989-10.646a9.01,9.01,0,0,0-5.32-.9c-9.724.883-17.228,9.885-23.283,18.575-3.76,5.392-7.275,10.722-9,16.648a12.411,12.411,0,0,0-.519,6.291c.7,2.934,3.6,5.611,7.367,6.822,3.979,1.279,8.587,1.1,12.641.948l.255,6.682C7457.929-3298.807,7456.418-3298.75,7454.845-3298.75Z" transform="translate(-47.68 -6.772)" fill="#59cbe8"></path>
  </g>
</svg>
