<?xml version="1.0" encoding="UTF-8"?>
<svg xmlns="http://www.w3.org/2000/svg" width="958.848" height="867.411" viewBox="0 0 958.848 867.411">
  <g id="Group_3677" data-name="Group 3677" transform="translate(15989.371 -7593.814)">
    <path id="Path_126971" data-name="Path 126971" d="M7287.527,1901.071c-21.494-132.4-208.976-127.974-295.886-67.256a144.089,144.089,0,0,0-27.717,24.881c-18.761,22.206-32.342,49.562-34.45,78.556s8.324,59.514,30.53,78.275c14.5,12.249,32.8,18.847,51.4,23.149,2.614.6,6.8,33.295-25.129,43.936,46.557,1.33,55.025-33.519,55.025-33.519s8.254,1.89,12.25,3.36c17.915,6.58,37.614,5.933,56.613,4.117,44.006-4.205,88.8-14.852,124.36-41.119s60.088-70.742,53.006-114.38" transform="translate(-22319.766 5922.996)" fill="#703dc1"></path>
    <path id="Path_126972" data-name="Path 126972" d="M6988.82,2083.148q-1.261,0-2.56-.037l-2.825-.079,2.681-.894c21.959-7.32,25.785-24.973,26.41-32.224.54-6.257-.652-10.433-1.259-10.758-22.6-5.228-39-12.617-51.584-23.246-21.17-17.887-32.936-48.039-30.708-78.694,2.494-34.3,20.174-61.8,34.567-78.842a144.925,144.925,0,0,1,27.812-24.968c27.527-19.23,66.265-33.265,106.284-38.506,42.356-5.546,83.4-1.107,115.571,12.495,41.877,17.706,67.746,50.072,74.811,93.6,3.377,20.8-.273,42.934-10.556,64a142.039,142.039,0,0,1-42.646,50.858c-30.66,22.652-71.421,36.133-124.609,41.216-18.773,1.794-38.648,2.533-56.833-4.146-3.381-1.242-9.934-2.815-11.727-3.235-1.239,4.125-11.529,33.46-52.829,33.461m144.05-289.577a270.989,270.989,0,0,0-35.1,2.321c-39.864,5.219-78.441,19.193-105.84,38.334a143.907,143.907,0,0,0-27.621,24.793c-14.3,16.923-31.86,44.24-34.332,78.269-2.208,30.342,9.424,60.176,30.353,77.857,12.456,10.524,28.722,17.846,51.188,23.043,1.243.288,1.956,3.736,2.111,7.025.217,4.581-.018,27.262-24.608,36.935,43.219-.1,51.711-32.837,51.794-33.174l.117-.479.48.109c.339.078,8.331,1.917,12.313,3.378,18,6.611,37.737,5.873,56.391,4.091,53-5.065,93.6-18.484,124.111-41.024a141.04,141.04,0,0,0,42.341-50.494c10.192-20.879,13.811-42.806,10.469-63.4-7.009-43.168-32.671-75.269-74.215-92.836-23.007-9.726-50.594-14.744-79.949-14.744" transform="translate(-22319.766 5922.996)" fill="#703dc1"></path>
    <path id="Path_126973" data-name="Path 126973" d="M6545.173,2063.374c-47.429.344-84.179,37.156-112.006,71.6a542.168,542.168,0,0,0-77.8,129.932c-10.288,24.4-19.41,49.735-22.08,76.24-2.5,24.738,1.879,49.455,11.53,72.292,18.1,42.843,52.785,77.907,93.611,99.616a214.247,214.247,0,0,0,134.336,22.509,218.846,218.846,0,0,0,124.587-66.467c16.948-18.03,31.252-38.427,43.849-59.681a522.666,522.666,0,0,0,33.3-67.122c19.2-46.517,32.184-95.386,41.488-144.775,4.68-24.845,8.426-49.859,11.589-74.939q2.4-19.055,4.373-38.164c1.249-11.982,2.746-24.029,2.864-36.092.2-20.906-5.257-44.453-25.974-53.969-7.851-3.609-17-5.167-25.449-2.821-8.238,2.288-15.386,8.678-17.321,17.184-1.85,8.136.683,18.067,8.9,21.656,1.38.6,3.349.521,4.1-1.075,6.128-12.953,1.733-29.1-9.219-38.112-12.4-10.205-29.735-7.757-40.515,3.656-6.083,6.438-9.721,15.224-8.733,24.141.164,1.484,1.245,3.177,3,3,9.425-.954,14.487-10.42,13.262-19.258-1.449-10.465-11.843-15.94-21.688-15.526-12.176.515-21.583,8.474-28.812,17.64-8.631,10.943-16.312,22.73-24.248,34.182q-50.127,72.33-96.415,147.221-26.161,42.333-51.061,85.426c-1.935,3.35,3.247,6.374,5.182,3.027q40.892-70.749,85.174-139.463,22.139-34.338,45.109-68.133,11.482-16.895,23.174-33.651,5.994-8.591,12.042-17.145a106.085,106.085,0,0,1,10.478-13.2c7.5-7.664,20.7-14.266,30.73-6.875a11.42,11.42,0,0,1,4.333,11.544c-.69,3.751-3.115,7.79-7.26,8.21l3,3c-1.432-12.92,8.3-25.151,20.8-27.95,11.871-2.657,22.917,5.628,26.856,16.543,2.181,6.046,2.423,12.795-.366,18.694q2.054-.541,4.1-1.078c-7.826-3.419-8.085-14.2-3.711-20.507,4.613-6.653,12.862-8.824,20.571-8.122a35.651,35.651,0,0,1,22.114,10.816c7.283,7.679,10.364,18.934,11.374,29.217,1.127,11.48.075,23.043-1.047,34.479q-1.781,18.134-3.872,36.237c-2.808,24.1-6.133,48.139-10.244,72.052-8.18,47.573-19.476,94.749-36.178,140.091-16.479,44.733-38.2,88.836-67.71,126.491-14.554,18.575-31.347,35.551-50.81,48.988a211.706,211.706,0,0,1-61.374,29.039A208.205,208.205,0,0,1,6465,2518.607c-40.862-15.63-77.188-44.213-100.778-81.183-12.59-19.73-21.7-42.026-24.639-65.339-3.211-25.422,1.737-50.73,9.795-74.807,15.5-46.3,39.036-90.419,67.093-130.29,13.449-19.11,27.987-37.781,44.445-54.412,15.341-15.5,33.057-29.733,53.694-37.43a89.1,89.1,0,0,1,30.566-5.772c3.859-.027,3.868-6.027,0-6" transform="translate(-22319.766 5922.996)" fill="#360484"></path>
    <path id="Path_126974" data-name="Path 126974" d="M6541.193,2075.042a556.973,556.973,0,0,1,5.821-71.732,535.886,535.886,0,0,1,14.456-68.191c5.157-18.156,11.617-36.023,20.4-52.764,8.514-16.233,19.24-31.4,32.991-43.626,15.165-13.481,33.586-22.118,53.345-26.43a173.528,173.528,0,0,1,32.386-3.736,169.406,169.406,0,0,1,31.015,1.657c9.964,1.578,19.851,4.316,28.8,9.051a69.111,69.111,0,0,1,21.785,18.246c11.743,14.764,17.805,33.382,22.362,51.424,5.759,22.8,10.064,46.04,13.61,69.281q5.484,35.943,7.806,72.275.569,8.816.951,17.644c.167,3.844,6.168,3.867,6,0q-1.625-37.158-6.494-74.073-4.891-36.988-12.97-73.453c-4.3-19.337-9.341-39.012-19.421-56.26a81.929,81.929,0,0,0-18.281-22.011,79.974,79.974,0,0,0-27.777-14.564,130.424,130.424,0,0,0-31.247-5.048,201.134,201.134,0,0,0-32.84.975c-21.707,2.456-43.072,8.846-61.2,21.315-15.658,10.77-28.38,25.186-38.474,41.208-10.313,16.373-17.972,34.351-24.044,52.684a475.142,475.142,0,0,0-16.017,64.975,567.708,567.708,0,0,0-8.366,73.1q-.441,9.024-.591,18.055c-.067,3.862,5.933,3.863,6,0" transform="translate(-22319.766 5922.996)" fill="#360484"></path>
    <path id="Path_126975" data-name="Path 126975" d="M6837.114,2061.314c13.407-1.159,26.685,1.847,38.738,7.787a110.367,110.367,0,0,1,32.611,25.066c10.006,11.021,17.989,23.759,25.092,36.792,7.356,13.5,13.775,27.471,20.581,41.247,6.247,12.643,12.856,25.907,24.281,34.7a44.839,44.839,0,0,0,4.221,2.891c3.316,2,6.335-3.187,3.029-5.18-11.907-7.177-18.658-20.05-24.683-32.086-6.946-13.872-13.385-28-20.683-41.694-7.215-13.541-15.324-26.72-25.355-38.377a117.921,117.921,0,0,0-32.556-26.717c-12.281-6.7-26.1-10.864-40.167-10.687-1.706.022-3.409.113-5.109.259a3.08,3.08,0,0,0-3,3,3.021,3.021,0,0,0,3,3" transform="translate(-22319.766 5922.996)" fill="#360484"></path>
    <path id="Path_126976" data-name="Path 126976" d="M6956.243,2243.476c19.2-14.562,33.984-33.976,45.011-55.283,11.829-22.857,19.4-47.547,25.356-72.5,6.537-27.367,11.1-55.228,18.542-82.378,2.932-10.7,7.224-22.588,17.234-28.434a23.974,23.974,0,0,1,7.007-2.787,19.442,19.442,0,0,1,6.967-.3,15.9,15.9,0,0,1,11,7.661c2.548,4.173,3.71,9.1,4.434,14.1.815,5.636.992,12.147,1.347,18.1l2.622,44.018.651,10.943a3.07,3.07,0,0,0,3,3,3.026,3.026,0,0,0,3-3q-1.345-22.63-2.695-45.262c-.428-7.162-.779-14.333-1.292-21.491a69.723,69.723,0,0,0-2.686-16.218c-1.61-5.042-4.24-9.944-8.442-13.287a21.737,21.737,0,0,0-15.9-4.629,30.957,30.957,0,0,0-15.973,6.7c-4.726,3.742-8.237,8.976-10.779,14.39a102.917,102.917,0,0,0-6.129,18.086c-1.813,7-3.467,14.05-5.045,21.11-3.138,14.039-5.961,28.146-9.035,42.2-5.689,26.013-12.236,52.078-23.263,76.413-9.907,21.865-23.257,42.443-41.435,58.332-2.118,1.85-4.289,3.639-6.529,5.337a3.1,3.1,0,0,0-1.077,4.1c.743,1.269,2.806,2.061,4.106,1.076" transform="translate(-22319.766 5922.996)" fill="#360484"></path>
    <path id="Path_126977" data-name="Path 126977" d="M7103.429,2063.916c8.643-13.319,27.583-21.077,42.742-14.838a21.915,21.915,0,0,1,13.225,14.782,28.759,28.759,0,0,1-1.766,19.064c-3.016,6.478-8.6,11.631-16.008,11.925l3,3c.295-14.069,20.5-17.022,29.953-10.554,10.912,7.467,14.772,22.109,16.2,34.489,1.761,15.271.648,30.786-.962,46.02-1.682,15.921-3.328,31.935-5.783,47.754a448.491,448.491,0,0,1-36.677,120.453,500.425,500.425,0,0,1-63.368,102.17c-24.04,29.84-52.81,56.958-87.8,73.4q-6.3,2.964-12.829,5.393c-3.584,1.34-2.032,7.14,1.6,5.785,37.9-14.176,69.536-40.733,95.641-71.145,26.945-31.39,49.717-67.013,67.908-104.13a455.479,455.479,0,0,0,40.4-124.648c2.9-17.211,4.659-34.625,6.585-51.968,1.762-15.859,3.093-32.005,1.42-47.931-1.457-13.869-5.276-29.123-16.358-38.546-10.976-9.333-30.222-8.792-38.885,3.636a17.771,17.771,0,0,0-3.037,9.827,3.03,3.03,0,0,0,3,3c17.481-.7,26.488-19.554,24.234-35.185a27.65,27.65,0,0,0-13.71-20.3c-8.245-4.729-18.238-5.377-27.351-3.133a44.455,44.455,0,0,0-26.547,18.66c-2.108,3.249,3.085,6.258,5.181,3.027" transform="translate(-22319.766 5922.996)" fill="#360484"></path>
    <path id="Path_126978" data-name="Path 126978" d="M6606.2,1811.423a83.842,83.842,0,0,0,28.017,50.3c7.981,6.872,17.551,12.87,27.909,15.256,10.138,2.336,21.682.633,29.17-7.127,6.446-6.684,8.246-17.886,2.673-25.712-2.732-3.836-6.893-6.6-11.773-5.959a7.219,7.219,0,0,0-5.487,3.421c-1.575,2.723-.708,6.007.946,8.465,5.68,8.437,14.73,14.75,23.947,18.757a88.52,88.52,0,0,0,32.17,6.885c12.562.47,25.081-1.075,37.5-2.757,9.257-1.252,19.2-2.794,26.831-8.619a27.716,27.716,0,0,0,5.328-5.388c.982-1.291.2-3.355-1.076-4.1a3.073,3.073,0,0,0-4.1,1.075c-4.882,6.422-13.549,8.763-21.38,10.16a245.538,245.538,0,0,1-31.67,3.554c-19.093.884-39.856-1.9-54.937-14.707a50.887,50.887,0,0,1-4.89-4.749c-.739-.824-1.474-1.666-2.137-2.554a6.667,6.667,0,0,1-1.365-2.391c-.042-.253.156-.91-.047-.488a3.087,3.087,0,0,1,.26-.439c-.372.516.23.031-.083.126-.331.1.116-.056.214-.118.369-.239-.437.128-.011-.015.213-.069.428-.119.642-.183.534-.155-.175-.015.163-.026a10.042,10.042,0,0,1,1.3.022c-.558-.056.541.131.659.165.175.047,1.1.4.674.207a7.229,7.229,0,0,1,1.242.73c2.417,1.785,4.078,5.439,4.325,8.418a14.734,14.734,0,0,1-2.758,10.34c-4.847,6.758-14.36,9.04-22.342,7.7-9.29-1.561-18.037-6.458-25.318-12.255a78.89,78.89,0,0,1-27.591-43.26c-.494-2.09-.9-4.2-1.216-6.325-.243-1.6-2.262-2.487-3.691-2.095a3.075,3.075,0,0,0-2.095,3.69" transform="translate(-22319.766 5922.996)" fill="#360484"></path>
    <path id="Path_126979" data-name="Path 126979" d="M6662.76,1907.675a25.353,25.353,0,0,0-12.382-3.015c-4.466-.1-8.97.233-13.422.542-3.954.277-8.227.391-11.778,2.369a9.292,9.292,0,0,0-4.442,10.708c1.144,4.2,4.611,7.092,8.467,8.777a59.578,59.578,0,0,0,13.108,3.825,72.315,72.315,0,0,0,14.007,1.222,12.816,12.816,0,0,0,6.948-1.77,38.968,38.968,0,0,0,4.878-3.87c3.513-3.163,6.4-8.041,4.744-12.9-1.557-4.584-6.121-6.293-10.463-7.22a3.07,3.07,0,0,0-3.691,2.094,3.03,3.03,0,0,0,2.1,3.69,20.746,20.746,0,0,1,4.079,1.147,4.11,4.11,0,0,1,2.284,2.073c.889,2.318-1.235,4.967-2.99,6.6a37.42,37.42,0,0,1-3.305,2.751,7.072,7.072,0,0,1-4.579,1.406,63.421,63.421,0,0,1-11.265-.808,68.5,68.5,0,0,1-10.836-2.7c-2.723-.923-5.92-2.169-7.3-4.861a4.747,4.747,0,0,1-.521-2.751,3.087,3.087,0,0,1,1.952-2.309c2.4-1.277,5.65-1.261,8.6-1.468,4.112-.286,8.251-.562,12.375-.554,3.6.006,7.237.358,10.4,2.209,3.34,1.953,6.363-3.232,3.028-5.182" transform="translate(-22319.766 5922.996)" fill="#360484"></path>
    <path id="Path_126980" data-name="Path 126980" d="M6649.215,1912.039c-.148-1.979-2.959-2.786-4.647-1.739s-2.4,3.117-2.822,5.057a10.934,10.934,0,0,0-.142,5.155,4.741,4.741,0,0,0,3.446,3.532c2.011.367,3.913-.994,5.358-2.44a10.241,10.241,0,0,0,3.236-5.494c.315-2.138-.787-4.6-2.865-5.206a4.4,4.4,0,0,0-4.755,2.134,7.38,7.38,0,0,0-.592,5.438,3.354,3.354,0,0,0,.869,1.752,2.665,2.665,0,0,0,3.164,0,7.788,7.788,0,0,0,2.159-2.6" transform="translate(-22319.766 5922.996)" fill="#360484"></path>
    <path id="Path_126981" data-name="Path 126981" d="M6652.215,1912.039a5.461,5.461,0,0,0-2.421-4.184,6.325,6.325,0,0,0-3.808-1c-3.341.226-5.443,2.714-6.555,5.67a19.04,19.04,0,0,0-.954,4.305,11.105,11.105,0,0,0,.288,4.665,7.573,7.573,0,0,0,6.927,5.611c3.118.021,5.817-2.121,7.761-4.367,2.05-2.369,3.574-5.258,3.142-8.475-.39-2.908-2.382-5.752-5.406-6.337a7.492,7.492,0,0,0-8.063,4.193,10.044,10.044,0,0,0-.889,5.247c.233,2.154.805,4.281,2.7,5.571a5.716,5.716,0,0,0,5.8.032,9.926,9.926,0,0,0,3.482-3.82,3,3,0,0,0-5.181-3.028q-.336.549-.693,1.083c-.309.466.327-.336-.054.067-.17.179-.346.347-.523.521-.236.23.163-.156.186-.148a1.621,1.621,0,0,0-.246.143c-.237.178.232-.115.278-.106a1,1,0,0,0-.277.083c-.259.124.271-.036.327-.025a1.045,1.045,0,0,0-.284.013c-.282.057.292.053.333.062-.389-.1.08.066.195.132-.426-.251.1.119.146.159-.049-.041-.336-.3-.046-.028.244.233.057.043,0-.064.018.035.16.515.1.2-.044-.217-.125-.43-.173-.647-.025-.108-.044-.218-.069-.33-.1-.478.071.069,0,.128a7.642,7.642,0,0,0-.051-1.352c0-.113.021-.226.023-.336.006-.349-.01.228-.038.243a4.155,4.155,0,0,0,.173-.76c.031-.1.236-.76.119-.369-.111.365.132-.207.205-.322a1.292,1.292,0,0,0,.168-.25c-.009.044-.382.414-.152.217a2.517,2.517,0,0,0,.51-.492c-.015.038-.476.31-.2.169.088-.046.17-.11.256-.161s.182-.089.265-.141c.265-.167-.226.11-.259.1a2.233,2.233,0,0,0,.57-.164c.085-.023.439-.1-.01-.005s-.009.044.089.027c.288-.046-.258-.039-.308-.061a2.392,2.392,0,0,0,.388.087c.475.072-.459-.292-.061-.036a1.233,1.233,0,0,0,.226.132c.248.079-.227-.156-.254-.215a2.2,2.2,0,0,0,.442.424c.221.162-.188-.214-.191-.266,0,.053.122.173.15.221.087.15.164.329.264.467.169.236-.13-.262-.119-.3-.013.046.077.208.091.256.059.207.109.413.165.619.14.513-.011-.608-.009-.075,0,.184.015.366.008.547,0,.089-.02.184-.019.273.005.3.023-.293.04-.31-.1.1-.14.606-.185.753-.033.108-.27.746-.117.367s-.13.242-.184.341c-.1.179-.585,1.218-.782,1.228,0,0,.352-.429.125-.161-.1.116-.19.235-.289.348-.146.173-.3.342-.45.507-.329.355-.669.7-1.026,1.026-.06.055-.445.462-.509.443-.006,0,.454-.324.163-.124-.093.062-.182.132-.275.194q-.275.188-.566.354c-.094.051-.2.094-.291.154-.326.212.488-.152.121-.042-.2.058-.422.107-.612.183-.29.116.222-.041.276-.019a1.266,1.266,0,0,0-.316.018,1.49,1.49,0,0,0-.319-.005c.025-.03.566.131.275.034-.087-.029-.189-.05-.279-.07-.4-.089.087-.008.187.1a2.738,2.738,0,0,0-.493-.28c-.444-.27.368.376.013-.008a2.46,2.46,0,0,0-.394-.423c.023.014.325.489.178.22-.062-.113-.143-.219-.209-.33s-.319-.681-.153-.252c.177.456-.076-.259-.107-.373a2.068,2.068,0,0,1-.156-.725c0,.008.035.556.037.188,0-.163-.021-.328-.024-.492a12.792,12.792,0,0,1,.076-1.486c.034-.361-.027.159-.023.18a1.353,1.353,0,0,1,.062-.369c.051-.285.108-.572.169-.856.1-.459.213-.915.351-1.363.069-.227.161-.445.228-.672.093-.31-.107.239-.114.25a3.279,3.279,0,0,0,.169-.361,6.856,6.856,0,0,1,.337-.6c.355-.565-.279.254.049-.1.155-.166.322-.318.48-.48.217-.222-.2.168-.221.172a1.287,1.287,0,0,0,.3-.188c.076-.053.381-.181-.073.021-.481.213-.028.044.089,0,.1-.036.412-.062-.087-.005-.524.06-.116.014,0,.016.078,0,.163,0,.239,0,.4-.031-.221-.026-.322-.066a4.51,4.51,0,0,0,.536.127,1.543,1.543,0,0,0,.22.077c-.109-.013-.609-.331-.3-.1a1.165,1.165,0,0,0,.19.118c.317.143-.541-.387-.263-.19.055.038.092.127.15.157-.04-.023-.445-.594-.22-.256.054.082.184.368-.032-.094-.1-.249-.123-.3-.08-.149.058.232.044.093-.043-.423a3.073,3.073,0,0,0,3,3c1.476-.065,3.187-1.329,3-3" transform="translate(-22319.766 5922.996)" fill="#360484"></path>
    <path id="Path_126982" data-name="Path 126982" d="M6752.106,1907.675a25.354,25.354,0,0,0-12.382-3.015c-4.466-.1-8.969.233-13.422.542-3.954.277-8.227.391-11.778,2.369a9.293,9.293,0,0,0-4.442,10.708c1.144,4.2,4.611,7.092,8.468,8.777a59.582,59.582,0,0,0,13.107,3.825,72.332,72.332,0,0,0,14.008,1.222,12.818,12.818,0,0,0,6.948-1.77,39.008,39.008,0,0,0,4.878-3.87c3.512-3.163,6.394-8.041,4.744-12.9-1.558-4.584-6.122-6.293-10.464-7.22a3.068,3.068,0,0,0-3.69,2.094,3.029,3.029,0,0,0,2.095,3.69,20.765,20.765,0,0,1,4.079,1.147,4.119,4.119,0,0,1,2.284,2.073c.888,2.318-1.235,4.967-2.991,6.6a37.414,37.414,0,0,1-3.3,2.751,7.071,7.071,0,0,1-4.578,1.406,63.416,63.416,0,0,1-11.265-.808,68.5,68.5,0,0,1-10.836-2.7c-2.724-.923-5.921-2.169-7.3-4.861a4.754,4.754,0,0,1-.52-2.751,3.082,3.082,0,0,1,1.952-2.309c2.4-1.277,5.65-1.261,8.6-1.468,4.112-.286,8.252-.562,12.375-.554,3.6.006,7.237.358,10.4,2.209,3.34,1.953,6.363-3.232,3.028-5.182" transform="translate(-22319.766 5922.996)" fill="#360484"></path>
    <path id="Path_126983" data-name="Path 126983" d="M6738.562,1912.039c-.148-1.979-2.959-2.786-4.647-1.739s-2.4,3.117-2.823,5.057a10.952,10.952,0,0,0-.141,5.155,4.741,4.741,0,0,0,3.446,3.532c2.01.367,3.913-.994,5.358-2.44a10.242,10.242,0,0,0,3.236-5.494c.315-2.138-.787-4.6-2.865-5.206a4.4,4.4,0,0,0-4.755,2.134,7.382,7.382,0,0,0-.592,5.438,3.351,3.351,0,0,0,.869,1.752,2.665,2.665,0,0,0,3.164,0,7.811,7.811,0,0,0,2.159-2.6" transform="translate(-22319.766 5922.996)" fill="#360484"></path>
    <path id="Path_126984" data-name="Path 126984" d="M6741.562,1912.039a5.463,5.463,0,0,0-2.421-4.184,6.327,6.327,0,0,0-3.809-1c-3.34.226-5.442,2.714-6.554,5.67a19.013,19.013,0,0,0-.954,4.305,11.113,11.113,0,0,0,.288,4.665,7.574,7.574,0,0,0,6.927,5.611c3.118.021,5.817-2.121,7.761-4.367,2.05-2.369,3.574-5.258,3.142-8.475-.39-2.908-2.382-5.752-5.406-6.337a7.492,7.492,0,0,0-8.063,4.193,10.044,10.044,0,0,0-.889,5.247c.233,2.154.805,4.281,2.694,5.571a5.719,5.719,0,0,0,5.8.032,9.93,9.93,0,0,0,3.482-3.82,3,3,0,0,0-5.181-3.028c-.224.366-.456.727-.694,1.083-.308.466.328-.336-.053.067-.17.179-.346.347-.523.521-.236.23.163-.156.186-.148a1.621,1.621,0,0,0-.246.143c-.237.178.232-.115.278-.106a1,1,0,0,0-.277.083c-.26.124.271-.036.326-.025a1.035,1.035,0,0,0-.283.013c-.282.057.292.053.333.062-.389-.1.08.066.194.132-.425-.251.1.119.147.159-.049-.041-.336-.3-.047-.028.244.233.058.043,0-.064.018.035.16.515.1.2-.044-.217-.125-.43-.173-.647-.025-.108-.045-.218-.069-.33-.1-.478.071.069,0,.128a7.736,7.736,0,0,0-.051-1.352c0-.113.021-.226.023-.336,0-.349-.01.228-.038.243a4.117,4.117,0,0,0,.173-.76c.031-.1.236-.76.119-.369-.111.365.132-.207.205-.322.039-.063.154-.182.167-.25-.008.044-.381.414-.151.217a2.507,2.507,0,0,0,.51-.492c-.016.038-.476.31-.2.169.088-.046.17-.11.256-.161s.182-.089.265-.141c.265-.167-.227.11-.259.1a2.224,2.224,0,0,0,.57-.164c.085-.023.439-.1-.01-.005s-.009.044.089.027c.288-.046-.258-.039-.308-.061a2.409,2.409,0,0,0,.387.087c.476.072-.458-.292-.06-.036a1.217,1.217,0,0,0,.226.132c.248.079-.227-.156-.254-.215a2.2,2.2,0,0,0,.442.424c.221.162-.188-.214-.191-.266,0,.053.122.173.15.221.087.15.164.329.264.467.169.236-.13-.262-.119-.3-.013.046.077.208.091.256.059.207.109.413.165.619.14.513-.011-.608-.009-.075,0,.184.014.366.008.547,0,.089-.02.184-.019.273,0,.3.023-.293.04-.31-.1.1-.14.606-.185.753-.033.108-.27.746-.117.367s-.13.242-.184.341c-.1.179-.585,1.218-.782,1.228,0,0,.352-.429.125-.161-.1.116-.19.235-.289.348q-.22.259-.45.507c-.329.355-.669.7-1.026,1.026-.06.055-.445.462-.509.443-.006,0,.454-.324.163-.124-.093.062-.182.132-.275.194q-.275.188-.566.354c-.094.051-.2.094-.291.154-.326.212.488-.152.121-.042-.2.058-.422.107-.612.183-.29.116.222-.041.276-.019a1.264,1.264,0,0,0-.316.018,1.49,1.49,0,0,0-.319-.005c.025-.03.566.131.275.034-.087-.029-.189-.05-.279-.07-.4-.089.087-.008.187.1a2.75,2.75,0,0,0-.493-.28c-.445-.27.368.376.013-.008a2.441,2.441,0,0,0-.394-.423c.023.014.325.489.177.22-.061-.113-.143-.219-.208-.33s-.319-.681-.153-.252c.177.456-.076-.259-.107-.373a2.068,2.068,0,0,1-.156-.725c0,.008.035.556.037.188,0-.163-.021-.328-.024-.492a12.9,12.9,0,0,1,.076-1.486c.034-.361-.027.159-.023.18a1.316,1.316,0,0,1,.062-.369c.051-.285.108-.572.169-.856.1-.459.213-.915.351-1.363.069-.227.161-.445.228-.672.093-.31-.107.239-.114.25a3.469,3.469,0,0,0,.169-.361,6.856,6.856,0,0,1,.337-.6c.355-.565-.28.254.049-.1.155-.166.322-.318.48-.48.217-.222-.2.168-.221.172a1.287,1.287,0,0,0,.3-.188c.076-.053.381-.181-.074.021-.48.213-.028.044.09,0,.1-.036.412-.062-.087-.005-.524.06-.116.014,0,.016.078,0,.162,0,.239,0,.4-.031-.221-.026-.322-.066a4.48,4.48,0,0,0,.536.127,1.508,1.508,0,0,0,.22.077c-.109-.013-.609-.331-.3-.1a1.208,1.208,0,0,0,.19.118c.317.143-.541-.387-.263-.19.055.038.092.127.15.157-.04-.023-.445-.594-.22-.256.054.082.184.368-.032-.094-.1-.249-.123-.3-.08-.149.058.232.044.093-.043-.423a3.072,3.072,0,0,0,3,3c1.476-.065,3.187-1.329,3-3" transform="translate(-22319.766 5922.996)" fill="#360484"></path>
    <path id="Path_126985" data-name="Path 126985" d="M6337.307,1908.448c4.511-8.972,13.961-14.087,23.922-13.927,10.625.169,20.1,7.019,25.655,15.758,9.445,14.868,7.671,40.182-10.733,47.55q2.118.859,4.235,1.724c-2.441-4.377,1.47-9.766,3.628-13.511a48.678,48.678,0,0,1,6.926-9.893c3.4-3.487,8.155-6.493,13.24-6,4.676.449,8.611,3.818,12,6.769a95.493,95.493,0,0,1,27.632,41.329c1.544,4.545,8.791,2.595,7.231-1.993a104.461,104.461,0,0,0-16.271-30.489c-6.312-8.157-14.664-17.764-24.464-21.7-10.464-4.2-20.978,1.744-27.393,10-5.82,7.488-14.364,19.669-9,29.281a3.777,3.777,0,0,0,4.235,1.723c23.394-9.367,27.665-40.378,14.408-59.794-7.19-10.53-18.936-18.366-32.007-18.256-12.226.1-24.153,6.593-29.715,17.653-2.164,4.3,4.3,8.1,6.476,3.784" transform="translate(-22319.766 5922.996)" fill="#f04e98"></path>
    <path id="Path_126986" data-name="Path 126986" d="M6444.921,1807.127q25.221,36.789,50.443,73.58c2.712,3.956,9.215.21,6.476-3.784q-25.224-36.79-50.444-73.58c-2.711-3.957-9.214-.21-6.475,3.784" transform="translate(-22319.766 5922.996)" fill="#f04e98"></path>
    <path id="Path_126987" data-name="Path 126987" d="M6517.661,1750.464q9.322,33.508,18.646,67.015c1.291,4.643,8.53,2.671,7.232-1.994q-9.322-33.507-18.646-67.014c-1.292-4.644-8.53-2.671-7.232,1.993" transform="translate(-22319.766 5922.996)" fill="#f04e98"></path>
    <path id="Path_126988" data-name="Path 126988" d="M6628.191,1670.819c-13.326-.091-25.362,8.482-30.977,20.4-6.407,13.594-5.176,30.8,1.113,44.242,2.811,6.008,7.581,11.154,14.371,12.287,5.657.943,12.253-1.679,14.09-7.521,1.965-6.254-3.193-12.2-9-13.742a18.5,18.5,0,0,0-16.524,4.155c-5.83,5.032-8.269,12.9-9.473,20.249-1.54,9.4-1.469,18.869,1.38,28.017,1.43,4.595,8.673,2.634,7.232-1.993-3.44-11.048-3.578-26.44,2.595-36.69,2.582-4.289,9.2-9.364,14.34-5.81,6.123,4.23-1.648,6.673-4.986,5.51-3.215-1.119-5.315-3.876-6.851-6.8-10.221-19.462-4.727-54.986,22.685-54.8,4.827.034,4.832-7.466,0-7.5" transform="translate(-22319.766 5922.996)" fill="#f04e98"></path>
    <path id="Path_126989" data-name="Path 126989" d="M6742.806,1694.053a371.316,371.316,0,0,0-21.781,58.516c-1.3,4.658,5.937,6.644,7.232,1.994a359.73,359.73,0,0,1,21.024-56.725c2.043-4.343-4.421-8.153-6.475-3.785" transform="translate(-22319.766 5922.996)" fill="#f04e98"></path>
    <path id="Path_126990" data-name="Path 126990" d="M6831.309,1719.547a459.949,459.949,0,0,1-28.215,49.524c-2.653,4.05,3.839,7.813,6.476,3.787a460.084,460.084,0,0,0,28.215-49.525c2.117-4.317-4.349-8.124-6.476-3.786" transform="translate(-22319.766 5922.996)" fill="#f04e98"></path>
    <path id="Path_126991" data-name="Path 126991" d="M6894.629,1801.657l-45.656,48.128c-3.322,3.5,1.973,8.813,5.3,5.3l45.657-48.127c3.321-3.5-1.974-8.815-5.3-5.3" transform="translate(-22319.766 5922.996)" fill="#f04e98"></path>
    <path id="Path_126992" data-name="Path 126992" d="M6916.229,1903.628a472.224,472.224,0,0,0-48.176,46.937c-3.2,3.6,2.087,8.917,5.3,5.3a472.362,472.362,0,0,1,48.176-46.935c3.693-3.119-1.635-8.4-5.3-5.3" transform="translate(-22319.766 5922.996)" fill="#f04e98"></path>
    <path id="Path_126993" data-name="Path 126993" d="M7030.191,1915.351q14.782,21.636,29.567,43.271c3.138,4.594,6.4,11.722,13.145,9,2.771-1.117,4.66-3.5,6.567-5.693q4.285-4.933,8.615-9.825,32.793-37.038,68.2-71.646,20.361-19.9,41.534-38.937c3.6-3.237-1.723-8.528-5.3-5.305q-43.009,38.727-82.694,80.93-9.584,10.2-18.957,20.6-5,5.547-9.938,11.148-2.469,2.8-4.923,5.614c-1.136,1.3-3,4.536-4.591,5.205q-1.673,2.006-2.391-.8l-2.231-3.265-3.347-4.9-8.926-13.063-17.852-26.126c-2.708-3.962-9.209-.213-6.476,3.785" transform="translate(-22319.766 5922.996)" fill="#fff"></path>
  </g>
</svg>
