<?xml version="1.0" encoding="UTF-8"?>
<svg xmlns="http://www.w3.org/2000/svg" width="962.973" height="715.015" viewBox="0 0 962.973 715.015">
  <g id="Group_3672" data-name="Group 3672" transform="translate(20024.088 -6021.434)">
    <path id="Path_126622" data-name="Path 126622" d="M2791.442,759.641l-190.077-.04c-1.97,0-4.128.064-5.614,1.357-1.657,1.442-1.9,3.885-2,6.079a429.231,429.231,0,0,0,.247,46.412q254.9.24,509.558-13.214c5.36-.283,11.058-.688,15.383-3.866,3.524-2.591,5.6-6.653,7.562-10.565q66.078-132.047,132.155-264.094a2592.38,2592.38,0,0,0-373.576-45.988q-49.128,139.566-102.7,277.517" transform="translate(-22319.766 5922.996)" fill="#f04e98"></path>
    <path id="Path_126623" data-name="Path 126623" d="M2713.824,503c18.076-27.534,31.962-58.13,39.389-90.277,7.332-31.739,8.237-65.2-.157-96.825-7.216-27.187-22.764-56.375-49.867-68.044-31.449-13.541-63.187,4.692-86.3,25.586-22.968,20.762-44.58,47.669-50.957,78.679a81.975,81.975,0,0,0,2.35,41.894c4.029,12.469,10.586,23.987,18.287,34.54,16.566,22.7,37.788,41.438,58.315,60.427,9.425,8.719,18.848,17.5,27.451,27.043,11.306,12.544,22.044,25.637,32.234,39.1a576.317,576.317,0,0,1,54.289,86.381c7.738,15.213,14.759,30.791,20.949,46.7q2.361,6.069,4.566,12.2c1.588,4.437,3.2,9.04,3.449,13.785.318,6.173-3.337,16.165-11.239,15.181-3.531-.438-7.773-6.963-4.082-9.651l-3.636-.47c8.274,6.434,9.248,18.728,4.147,27.481-6.179,10.6-19.633,10.861-28.412,3.219-4.93-4.29-8.445-10.717-7.433-17.413l-3.69,2.1c7.916,1.256,7.12,11.089,4.161,16.561-5.864,10.849-19.384,7.418-28.228,2.341-6.19-3.552-11.637-8.171-17.109-12.711q-8.172-6.778-16.33-13.577-16.351-13.632-32.554-27.441c-42.753-36.572-84.405-74.77-120.943-117.659a564.743,564.743,0,0,1-55.576-76.982c-1.975-3.313-7.164-.3-5.181,3.028a567.07,567.07,0,0,0,51.7,72.484,816.448,816.448,0,0,0,61.505,65.51c21.626,20.807,44.119,40.7,66.95,60.168q17.2,14.673,34.617,29.1c5.652,4.7,11.27,9.455,16.983,14.085,5.768,4.676,11.81,9.143,18.692,12.038,10.672,4.49,23.85,4.189,30.275-6.691,4.091-6.93,5.337-18.1-1.74-23.628a12.169,12.169,0,0,0-5.63-2.413c-1.448-.231-3.428.355-3.69,2.094-2.33,15.41,10.946,29.829,26.252,30.471,14.758.621,24.689-13.136,24.49-26.911-.108-7.415-3.066-14.868-9.016-19.494-.975-.759-2.486-1.308-3.636-.47-4.913,3.58-5.323,10.024-2.158,15,3.578,5.625,10.172,7.249,16.129,4.389,6.664-3.2,10.237-10.7,10.407-17.821.213-8.9-3.722-17.6-6.821-25.755a540.957,540.957,0,0,0-45.391-91.725,614.418,614.418,0,0,0-61.295-82.591c-17.939-20.432-38.966-37.776-58.387-56.734-19.089-18.634-38.544-39.6-47.366-65.307a76.274,76.274,0,0,1-2.619-41.456c3.472-15.74,11.192-30.226,20.535-43.243a203.389,203.389,0,0,1,32.126-34.7c12.474-10.817,26.82-20.334,43.122-24.05a53.732,53.732,0,0,1,42.826,8.258c11.849,8.133,20.693,20.183,27.117,32.885,14.345,28.36,17.541,62.117,14.189,93.356-3.551,33.093-14.876,65.24-30.831,94.333q-5.785,10.551-12.41,20.608c-2.125,3.237,3.068,6.246,5.181,3.027" transform="translate(-22319.766 5922.996)" fill="#360484"></path>
    <path id="Path_126624" data-name="Path 126624" d="M2740.566,435c14.869,13.13,24.414,30.769,33.518,48.1q15.766,30.011,30.816,60.391t29.373,61.108c9.088,19.492,18.4,39.053,24.507,59.731a149.7,149.7,0,0,1,5.95,30.6c.206,2.6.337,5.211.365,7.819.02,1.644.164,3.933-1.029,5.249a3.065,3.065,0,0,1-3.52.412,4.867,4.867,0,0,1-2.792-3.5,10.881,10.881,0,0,1,.255-5.67q-2.742.36-5.483.716a19.066,19.066,0,0,1,2.808,11.631,17.017,17.017,0,0,1-1.43,5.651c-.232.509-.539,1.368-1.055,1.666-.716.414-1.8-.047-2.516-.284a33.574,33.574,0,0,1-17.343-13.882,34.167,34.167,0,0,1-4.771-12.189l-4.407,3.389a19.5,19.5,0,0,1,9.423,21.48,12.9,12.9,0,0,1-2.894,5.73c-1.673,1.762-3.466,2-5.747,1.271a87.965,87.965,0,0,1-8.667-3.618q-4.488-1.986-8.921-4.093-9.881-4.692-19.467-9.964c-3.387-1.858-6.418,3.322-3.029,5.182q9.711,5.331,19.72,10.084,4.942,2.341,9.952,4.536c3.3,1.443,6.764,3.361,10.316,4.053,6.951,1.351,11.85-3.821,14.011-9.905a24.6,24.6,0,0,0-.134-15.979,24.87,24.87,0,0,0-11.534-13.958,3.039,3.039,0,0,0-4.407,3.388,40.138,40.138,0,0,0,14.922,24.119c3.712,2.874,8.357,5.731,13.042,6.582a7.416,7.416,0,0,0,7.861-3.122,18.769,18.769,0,0,0,2.71-7.256,25,25,0,0,0-3.262-17.539,3.038,3.038,0,0,0-5.484.717c-1.3,4.714-1.009,10.421,2.642,14.07,3.341,3.338,9.146,4.157,12.885,1.028,4.077-3.412,3.445-9.58,3.207-14.318a138.95,138.95,0,0,0-1.926-16.825c-3.859-22.225-12.709-43.218-22.005-63.637-9.827-21.581-20.031-42.995-30.447-64.3q-15.716-32.141-32.234-63.879c-9.734-18.706-19.21-38.27-33.943-53.66q-2.682-2.8-5.593-5.365a3.071,3.071,0,0,0-4.243,0,3.026,3.026,0,0,0,0,4.241" transform="translate(-22319.766 5922.996)" fill="#360484"></path>
    <path id="Path_126625" data-name="Path 126625" d="M2599.906,230.26c-4.808,20.308-1.322,41.6,7.019,60.5,3.759,8.516,8.71,16.812,16.182,22.57,7.223,5.567,17.327,8.352,26.193,5.341a20,20,0,0,0,10.244-7.589,20.815,20.815,0,0,0,3.542-10.845,16.73,16.73,0,0,0-3.125-10.7c-2.771-3.674-7.968-6.812-12.37-3.813-3.5,2.382-3.818,7.043-2.993,10.833.876,4.027,3.5,7.612,6.06,10.747,5.543,6.781,13.123,11.6,21.2,14.821,19.561,7.8,41.085,4.444,61-.092,2.7-.616,5.4-1.255,8.1-1.9,3.755-.894,2.165-6.681-1.595-5.785-18.378,4.371-38.065,9.137-56.744,4.84a54.177,54.177,0,0,1-20.771-9.4,40.757,40.757,0,0,1-7.486-7.423,33.878,33.878,0,0,1-3.066-4.778c-.06-.114-.42-.894-.245-.469a11.9,11.9,0,0,1-.393-1.132c-.116-.387-.215-.781-.3-1.176-.031-.149-.056-.3-.084-.448-.058-.319,0,.293-.028-.246-.022-.392-.05-.781-.042-1.175,0-.191.02-.381.026-.572,0-.04.063-.5.01-.156a6.1,6.1,0,0,0,.166-.658c.049-.164.1-.332.167-.492-.234.573.006.041.084-.071.056-.081.374-.473.119-.19s.1-.09.176-.139c.279-.185-.1.08-.126.1a2.022,2.022,0,0,1,.436-.242c-.617.189.239.009.295.008a1.933,1.933,0,0,1,.806.165,6.254,6.254,0,0,1,2.1,1.558,5.976,5.976,0,0,1,1.172,1.549c.178.3.34.605.5.918.03.057.278.618.153.32-.111-.266.067.189.069.2a14.921,14.921,0,0,1,.647,2.459c.063.352.01.015,0-.049.026.2.044.4.06.6q.048.607.05,1.22c0,.356-.01.716-.032,1.072a8.913,8.913,0,0,0-.079.893,17.747,17.747,0,0,1-.518,2.274,13.727,13.727,0,0,1-.7,1.909,14.327,14.327,0,0,1-2.4,3.649,11.7,11.7,0,0,1-3.784,2.816c-6.614,3.415-15.061,1.709-21.212-2.319-6.747-4.419-11.263-11.555-14.718-18.674-7.786-16.042-11.8-34.7-9.262-52.482.324-2.271.766-4.524,1.295-6.755.889-3.754-4.895-5.357-5.786-1.6" transform="translate(-22319.766 5922.996)" fill="#360484"></path>
    <path id="Path_126626" data-name="Path 126626" d="M2676.069,360.22q-5.418-1.791-10.935-3.251a72.074,72.074,0,0,0-11.16-2.4c-3.41-.332-7.308.863-9.117,3.986-1.924,3.319-.727,7.362.956,10.513,3.106,5.813,9.068,9.649,15.324,11.284a40.808,40.808,0,0,0,10.628,1.2c3.61-.033,7.394-.332,10.622-2.1,3.18-1.738,5.735-5.154,5.626-8.891a7.973,7.973,0,0,0-7.188-7.762,3.02,3.02,0,0,0-3,3,3.067,3.067,0,0,0,3,3c-.267-.027.378.224.227.1a1.934,1.934,0,0,1,.59.645,2.238,2.238,0,0,1,.258,1.94,5.666,5.666,0,0,1-3.915,3.344,24.238,24.238,0,0,1-7.575.711,32.276,32.276,0,0,1-8.111-1.093c-4.3-1.2-8.381-3.65-10.746-7.443-.833-1.335-2.321-3.914-1.515-5.423-.009.017.39-.415.487-.479a2.432,2.432,0,0,1,1.042-.46,8.349,8.349,0,0,1,3.67.143,162.855,162.855,0,0,1,19.237,5.224,3,3,0,0,0,1.595-5.786" transform="translate(-22319.766 5922.996)" fill="#360484"></path>
    <path id="Path_126627" data-name="Path 126627" d="M2675.277,363.2a12.161,12.161,0,0,1-.071,2.39c.035-.268.071-.533.107-.8a12.112,12.112,0,0,1-.648,2.584,2.27,2.27,0,0,0-.054,1.2,2.225,2.225,0,0,0,.356,1.116,3,3,0,0,0,4.1,1.076l.607-.468a3,3,0,0,0,.772-1.323,12.186,12.186,0,0,0,.635-2.494,15.315,15.315,0,0,0,.191-3.278,3.18,3.18,0,0,0-.879-2.12,3,3,0,0,0-4.242,0,2.97,2.97,0,0,0-.879,2.12" transform="translate(-22319.766 5922.996)" fill="#360484"></path>
    <path id="Path_126628" data-name="Path 126628" d="M2741.849,356.5c-4.1,3.784-10.533,3.987-15.714,5.885-3.213,1.176-6.522,2.98-8.111,6.178-1.466,2.955-1.359,6.841,1.014,9.316,2.4,2.5,6.469,3.022,9.74,3.357a31.608,31.608,0,0,0,9.6-.571,31.142,31.142,0,0,0,9.314-3.59c2.729-1.6,5.528-3.671,7.085-6.494a10.851,10.851,0,0,0-.379-11.085,10.734,10.734,0,0,0-9.991-4.707,3.093,3.093,0,0,0-3,3c0,1.471,1.38,3.2,3,3a4.886,4.886,0,0,1,5.019,2.061,4.752,4.752,0,0,1-.228,5.353,15.059,15.059,0,0,1-5.234,4.087,25.939,25.939,0,0,1-14.382,3.017,21.97,21.97,0,0,1-3.175-.475,6.778,6.778,0,0,1-3.006-1.077c-.18-.168-.169-.178-.278-.514a2.44,2.44,0,0,1-.049-1.2,4.479,4.479,0,0,1,1.23-1.937c1.611-1.491,3.9-2.157,5.965-2.749,5.58-1.594,11.4-2.526,15.826-6.614a3,3,0,0,0-4.243-4.243" transform="translate(-22319.766 5922.996)" fill="#360484"></path>
    <path id="Path_126629" data-name="Path 126629" d="M2675.564,366.018a4.969,4.969,0,0,0-3.49-.411,5.279,5.279,0,0,0-2.433,1.443,6.666,6.666,0,0,0-1.6,5.237,6.752,6.752,0,0,0,1.875,4.532,4.389,4.389,0,0,0,3.052,1.2,5.227,5.227,0,0,0,3.361-1.531c2.625-2.391,4.5-7.034,1.728-10a4.589,4.589,0,0,0-3.14-1.408,4.425,4.425,0,0,0-3.271,1.381,7.5,7.5,0,0,0-1.963,3.743,8.741,8.741,0,0,0,.254,4.563,8.269,8.269,0,0,0,1.017,2.058,8.851,8.851,0,0,0,2.12,2.107,3.027,3.027,0,0,0,2.312.3,3.062,3.062,0,0,0,1.793-1.379,3.027,3.027,0,0,0,.3-2.312,3.45,3.45,0,0,0-1.378-1.793c-.058-.041-.115-.083-.17-.127l.607.469a5.034,5.034,0,0,1-.811-.82c.156.2.312.4.469.607a5.608,5.608,0,0,1-.683-1.178l.3.715a6.117,6.117,0,0,1-.387-1.424q.054.4.107.8a6.118,6.118,0,0,1-.01-1.476c-.036.266-.071.531-.107.8a5.568,5.568,0,0,1,.381-1.416l-.3.717a5.058,5.058,0,0,1,.584-1l-.469.608a3.505,3.505,0,0,1,.505-.529l-.607.469a2.166,2.166,0,0,1,.316-.192c-.239.1-.478.2-.717.3a1.606,1.606,0,0,1,.331-.1l-.8.107a1.855,1.855,0,0,1,.325,0l-.8-.107a2.137,2.137,0,0,1,.317.082l-.716-.3a2.262,2.262,0,0,1,.392.216l-.607-.469a2.243,2.243,0,0,1,.4.4l-.469-.608a2.837,2.837,0,0,1,.173.294q-.152-.357-.3-.716a2.611,2.611,0,0,1,.173.638c-.035-.266-.071-.531-.107-.8a3.541,3.541,0,0,1,0,.69q.054-.4.107-.8a5.515,5.515,0,0,1-.377,1.336l.3-.717a7.9,7.9,0,0,1-1.019,1.734l.47-.607a7.081,7.081,0,0,1-1.123,1.141l.608-.469a3.2,3.2,0,0,1-.445.27l.717-.3a2.222,2.222,0,0,1-.366.114c.266-.036.532-.071.8-.108a1.56,1.56,0,0,1-.426,0l.8.108a1.857,1.857,0,0,1-.273-.08l.717.3a1.8,1.8,0,0,1-.324-.194c.2.157.4.314.608.47a2.363,2.363,0,0,1-.341-.358l.469.608a3.442,3.442,0,0,1-.361-.651c.1.239.2.479.3.717a4.93,4.93,0,0,1-.3-1.157l.108.8a7.419,7.419,0,0,1-.033-1.678l-.108.8a4.236,4.236,0,0,1,.234-.933c-.1.24-.2.478-.3.717a2.985,2.985,0,0,1,.375-.653c-.156.2-.312.4-.469.607a3.119,3.119,0,0,1,.412-.4c-.2.156-.4.312-.607.47a2.839,2.839,0,0,1,.492-.291l-.717.3a2.5,2.5,0,0,1,.536-.153l-.8.106a2.454,2.454,0,0,1,.437-.006l-.8-.107a1.932,1.932,0,0,1,.424.112l-.717-.3.1.049a3.221,3.221,0,0,0,2.311.3,3,3,0,0,0,2.1-3.689,2.953,2.953,0,0,0-1.379-1.794" transform="translate(-22319.766 5922.996)" fill="#360484"></path>
    <path id="Path_126630" data-name="Path 126630" d="M2738.533,364.541a3.7,3.7,0,0,0-1.964-.6,3.782,3.782,0,0,0-1.514.24,8.082,8.082,0,0,0-2.512,1.577,8.513,8.513,0,0,0-2.534,3.824,6.225,6.225,0,0,0,.576,4.993,5.762,5.762,0,0,0,4.587,2.866,5.66,5.66,0,0,0,4.882-2.751,8.969,8.969,0,0,0,1.192-4.776,4.832,4.832,0,0,0-2.687-4.78c-2.4-1.013-4.75.526-5.876,2.633a8.728,8.728,0,0,0-1.029,5.867,4.468,4.468,0,0,0,2.211,2.931,4.584,4.584,0,0,0,2.071.533,3.7,3.7,0,0,0,2.113-.626,2.286,2.286,0,0,0,.841-.774,2.247,2.247,0,0,0,.537-1.019,3.068,3.068,0,0,0-.3-2.313,3.034,3.034,0,0,0-1.793-1.379,2.9,2.9,0,0,0-2.312.3,1.123,1.123,0,0,1-.238.147q.359-.153.717-.3a1.363,1.363,0,0,1-.268.064l.8-.106a1.467,1.467,0,0,1-.281-.009l.8.107a1.7,1.7,0,0,1-.368-.111c.239.1.478.2.716.3a2.067,2.067,0,0,1-.251-.152l.607.469a1.755,1.755,0,0,1-.273-.272l.469.605a2.314,2.314,0,0,1-.212-.39l.3.714a2.8,2.8,0,0,1-.133-.542l.108.8a4.5,4.5,0,0,1,.023-1.037c-.036.267-.072.532-.107.8a7.2,7.2,0,0,1,.5-1.792c-.1.239-.2.479-.3.718a5.96,5.96,0,0,1,.66-1.168l-.469.606a3.279,3.279,0,0,1,.5-.5l-.608.469a2.2,2.2,0,0,1,.388-.224c-.238.1-.477.2-.716.3a1.838,1.838,0,0,1,.31-.083l-.8.109a1.014,1.014,0,0,1,.213-.005c-.266-.035-.531-.071-.8-.108a1.436,1.436,0,0,1,.3.074q-.359-.153-.717-.3a1.4,1.4,0,0,1,.227.128l-.607-.47a1.439,1.439,0,0,1,.238.243l-.469-.606a2.011,2.011,0,0,1,.172.307l-.3-.715a3.008,3.008,0,0,1,.168.638c-.036-.265-.072-.532-.107-.8a7.823,7.823,0,0,1-.047,1.917c.036-.264.071-.531.107-.8a5.892,5.892,0,0,1-.379,1.473q.152-.355.3-.716a3.937,3.937,0,0,1-.446.768q.235-.3.469-.607a3.612,3.612,0,0,1-.612.61l.607-.47a3,3,0,0,1-.555.318c.239-.1.478-.2.716-.3a2.918,2.918,0,0,1-.513.142l.8-.106a2.531,2.531,0,0,1-.577.006l.8.106a2.562,2.562,0,0,1-.545-.145c.238.1.477.2.716.3a2.809,2.809,0,0,1-.577-.334l.607.468a3.371,3.371,0,0,1-.554-.553l.469.607a3.714,3.714,0,0,1-.448-.78c.1.239.2.476.3.717a3.567,3.567,0,0,1-.206-.775c.036.267.072.532.107.8a3.433,3.433,0,0,1,.011-.824c-.036.264-.072.531-.107.8a4.31,4.31,0,0,1,.3-1.041l-.3.715a5.613,5.613,0,0,1,.681-1.126c-.157.2-.313.406-.47.608a7.629,7.629,0,0,1,1.277-1.251l-.608.469a4.185,4.185,0,0,1,.843-.524c-.239.1-.478.2-.717.3a2.136,2.136,0,0,1,.414-.121l-.8.105a2.184,2.184,0,0,1,.3-.01l-.8-.107a1.262,1.262,0,0,1,.282.081q-.359-.15-.717-.3a.878.878,0,0,1,.169.114,3.01,3.01,0,0,0,2.311.3,3,3,0,0,0,2.1-3.689l-.3-.718a3.03,3.03,0,0,0-1.076-1.076" transform="translate(-22319.766 5922.996)" fill="#360484"></path>
    <path id="Path_126631" data-name="Path 126631" d="M2706.319,361.989a351.459,351.459,0,0,1,7.588,40.574l3-3c-1.032-.04-2.138-.934-3.062-1.635-1.521-1.157-3.024-2.3-4.652-3.3a46.067,46.067,0,0,0-9.94-4.539,3.016,3.016,0,0,0-3.8,2.892l1.6,16.831,4.514-2.59c-5.585-3.087-11.385.85-15.812,4.173a80.555,80.555,0,0,0-12.759,11.867,3.077,3.077,0,0,0,0,4.243,3.028,3.028,0,0,0,4.243,0A76.343,76.343,0,0,1,2688,417.175a45.029,45.029,0,0,1,5.563-3.855,10.089,10.089,0,0,1,2.86-1.158,2.8,2.8,0,0,1,2.118.237c1.83,1.012,4.739-.221,4.514-2.59l-1.6-16.831-3.8,2.893a39.547,39.547,0,0,1,9.6,4.634c3.1,2.047,5.7,4.906,9.647,5.058a3.005,3.005,0,0,0,3-3,364.987,364.987,0,0,0-7.8-42.168c-.928-3.747-6.715-2.16-5.786,1.594" transform="translate(-22319.766 5922.996)" fill="#360484"></path>
    <path id="Path_126632" data-name="Path 126632" d="M2469.916,394.532c-31.239,17.745-55.676,46.346-69.124,79.585-13.907,34.373-14.584,73.132-2.9,108.247a159.5,159.5,0,0,0,31.2,54.712c2.261,2.581,6.456-.75,4.712-3.637q-8.682-14.373-17.365-28.744c-4.475-7.406-9.071-18.147-18.707-19.659-9.84-1.544-18.125,6.077-24.6,12.407q-10.608,10.367-20.536,21.4a470.49,470.49,0,0,0-37.629,47.68q-4.308,6.249-8.408,12.634a128.2,128.2,0,0,0-7.7,12.836c-2.139,4.388-3.727,9.2-3,14.129a15.96,15.96,0,0,0,6.744,10.584c7.75,5.649,18.945,6.28,28.107,4.954a49.123,49.123,0,0,0,26.446-12.767l-5.122-2.121c1.679,20.981,20.91,35.135,36.389,46.763,17.329,13.018,36.213,24.142,56.7,31.384,20.97,7.411,43.6,10.333,65.68,7.146,21.808-3.146,41.27-13.181,58.205-27.016,9.109-7.444,17.96-15.691,24.941-25.2,6.915-9.419,11.572-20.806,9.022-32.6-.816-3.773-6.6-2.177-5.786,1.6,2.053,9.5-1.954,18.7-7.28,26.386-5.673,8.189-13.131,15.2-20.6,21.735-15.406,13.477-33.176,23.947-53.375,28.137-41.57,8.624-83.187-7.651-116.875-31.224-9.164-6.412-18.28-13.269-26.312-21.076-7.21-7.011-13.883-15.648-14.714-26.028a3.041,3.041,0,0,0-5.121-2.122,43.229,43.229,0,0,1-20.573,10.649c-7.389,1.586-15.911,1.441-22.931-1.6-3.157-1.369-6.262-3.6-7.309-7.032-1.229-4.031.288-8.326,2.09-11.942,4.038-8.107,9.5-15.707,14.595-23.175a458.028,458.028,0,0,1,33.934-43.817q9.092-10.379,18.79-20.2c3.18-3.22,6.354-6.485,9.724-9.509,3.08-2.763,6.607-5.484,10.631-6.672,10.081-2.979,14.841,8.836,19,15.727l17.76,29.4,4.712-3.636c-23.838-27.229-37.218-63.136-37.7-99.268-.469-34.873,11.785-69.218,33.577-96.39a153.255,153.255,0,0,1,43.732-37.461c3.357-1.907.338-7.093-3.028-5.182" transform="translate(-22319.766 5922.996)" fill="#360484"></path>
    <path id="Path_126633" data-name="Path 126633" d="M2998.667,659.989l-4.112-1.669c6.333-15.607,13.191-31.251,20.382-46.492l4.013,1.893c-7.156,15.168-13.98,30.736-20.283,46.268" transform="translate(-22319.766 5922.996)" fill="#fff"></path>
    <path id="Path_126634" data-name="Path 126634" d="M3017.76,663.265l-4.156-1.557c5.8-15.477,12.408-30.857,19.644-45.715l3.99,1.944c-7.174,14.73-13.728,29.982-19.478,45.328" transform="translate(-22319.766 5922.996)" fill="#fff"></path>
    <path id="Path_126635" data-name="Path 126635" d="M3037.531,661.277l-3.79-2.311a241.749,241.749,0,0,0,20.274-41.851l4.162,1.54a246.144,246.144,0,0,1-20.646,42.622" transform="translate(-22319.766 5922.996)" fill="#fff"></path>
    <path id="Path_126636" data-name="Path 126636" d="M2991.957,648.066l-.691-4.383c29.74-4.689,59.7-10.466,89.051-17.172l.988,4.327c-29.448,6.727-59.509,12.524-89.348,17.228" transform="translate(-22319.766 5922.996)" fill="#fff"></path>
    <path id="Path_126637" data-name="Path 126637" d="M2890.552,520.437l-2.756-3.479a119.682,119.682,0,0,1,30.375-17.518l1.631,4.127a115.243,115.243,0,0,0-29.25,16.87" transform="translate(-22319.766 5922.996)" fill="#f04e98"></path>
    <path id="Path_126638" data-name="Path 126638" d="M2890.749,555.048l-3.056-3.219a309.81,309.81,0,0,1,69.856-49.913l2.054,3.935a305.355,305.355,0,0,0-68.854,49.2" transform="translate(-22319.766 5922.996)" fill="#f04e98"></path>
    <path id="Path_126639" data-name="Path 126639" d="M2911.559,575.728l-3.2-3.076a397.757,397.757,0,0,1,44.01-39.424l2.707,3.518a393.1,393.1,0,0,0-43.518,38.982" transform="translate(-22319.766 5922.996)" fill="#f04e98"></path>
    <path id="Path_126640" data-name="Path 126640" d="M2938.169,561.965a625.722,625.722,0,0,0-38.368-57.932l3.558-2.653A630.373,630.373,0,0,1,2942,559.726Z" transform="translate(-22319.766 5922.996)" fill="#f04e98"></path>
    <path id="Path_126641" data-name="Path 126641" d="M2961.688,552.513c-8.263-16.672-16.6-33.55-24.766-50.163l3.983-1.958c8.168,16.608,16.5,33.482,24.76,50.15Z" transform="translate(-22319.766 5922.996)" fill="#f04e98"></path>
    <rect id="Rectangle_3781" data-name="Rectangle 3781" width="13.331" height="4.438" transform="translate(-19337.322 6444.161) rotate(-19.703)" fill="#f04e98"></rect>
    <rect id="Rectangle_3782" data-name="Rectangle 3782" width="6.669" height="4.438" transform="translate(-19319.85 6465.767) rotate(-21.3)" fill="#f04e98"></rect>
    <rect id="Rectangle_3783" data-name="Rectangle 3783" width="56.929" height="4.437" transform="matrix(0.7, -0.714, 0.714, 0.7, -19242.945, 6702.467)" fill="#f04e98"></rect>
    <rect id="Rectangle_3784" data-name="Rectangle 3784" width="32.412" height="4.438" transform="translate(-19217.861 6707.745) rotate(-45.896)" fill="#f04e98"></rect>
    <path id="Path_126642" data-name="Path 126642" d="M3115.174,782.513a185.99,185.99,0,0,0-20.2-27.446l3.318-2.949a190.709,190.709,0,0,1,20.687,28.1Z" transform="translate(-22319.766 5922.996)" fill="#f04e98"></path>
    <path id="Path_126643" data-name="Path 126643" d="M3124.068,754.756a59.192,59.192,0,0,1-16.286-24.785l4.2-1.429a54.748,54.748,0,0,0,15.063,22.925Z" transform="translate(-22319.766 5922.996)" fill="#f04e98"></path>
    <rect id="Rectangle_3785" data-name="Rectangle 3785" width="7.533" height="4.439" transform="translate(-19189.42 6639.948) rotate(-9.208)" fill="#f04e98"></rect>
    <rect id="Rectangle_3786" data-name="Rectangle 3786" width="12.63" height="4.436" transform="matrix(0.981, -0.192, 0.192, 0.981, -19255.117, 6666.096)" fill="#f04e98"></rect>
    <path id="Path_126644" data-name="Path 126644" d="M2615.976,789.921l26.4-1.261a3.063,3.063,0,0,0,3-3,3.031,3.031,0,0,0-3-3l-26.4,1.261a3.062,3.062,0,0,0-3,3,3.028,3.028,0,0,0,3,3" transform="translate(-22319.766 5922.996)" fill="#6ad1e3"></path>
    <path id="Path_126645" data-name="Path 126645" d="M2671.9,789.144l38.823-.967c3.853-.1,3.869-6.1,0-6l-38.823.967c-3.854.1-3.869,6.1,0,6" transform="translate(-22319.766 5922.996)" fill="#6ad1e3"></path>
    <path id="Path_126646" data-name="Path 126646" d="M2729.655,755.886q-.817,5.25-1.634,10.5a3.121,3.121,0,0,0,.538,2.614,2.947,2.947,0,0,0,2.355,1.183,5.836,5.836,0,0,0,4.993-2.816,3.027,3.027,0,0,0-1.076-4.1,3.059,3.059,0,0,0-4.1,1.075c-.287.465.489-.46.106-.123-.07.072-.144.142-.221.207.394-.29.494-.371.3-.248-.575.287.476-.123.171-.038a5.27,5.27,0,0,1-.513.129l.8-.109a3.625,3.625,0,0,1-.454.026q1.447,1.9,2.893,3.8.818-5.25,1.634-10.5a3.28,3.28,0,0,0-.3-2.312,3,3,0,0,0-4.1-1.076,2.9,2.9,0,0,0-1.379,1.793" transform="translate(-22319.766 5922.996)" fill="#6ad1e3"></path>
    <path id="Path_126647" data-name="Path 126647" d="M2741.006,758.319a18.394,18.394,0,0,0-.74,9.039,2.987,2.987,0,0,0,1.378,1.793,3,3,0,0,0,4.1-1.075c.1-.238.2-.478.3-.718a3.014,3.014,0,0,0,0-1.594c-.013-.09-.026-.181-.037-.272.035.266.071.531.107.8a15.832,15.832,0,0,1,0-3.975c-.036.268-.072.533-.108.8a15.894,15.894,0,0,1,.775-3.2,3,3,0,0,0-4.407-3.389,3.343,3.343,0,0,0-1.379,1.792" transform="translate(-22319.766 5922.996)" fill="#6ad1e3"></path>
    <path id="Path_126648" data-name="Path 126648" d="M2756.208,752.658a25.673,25.673,0,0,0-4.5,10.62,3.256,3.256,0,0,0,.3,2.313,3.06,3.06,0,0,0,1.793,1.379c1.458.332,3.4-.443,3.691-2.095a24.058,24.058,0,0,1,1.488-5.117l-.3.716a24.052,24.052,0,0,1,2.706-4.787,3.021,3.021,0,0,0,.3-2.312,3,3,0,0,0-3.69-2.1,3.443,3.443,0,0,0-1.792,1.379" transform="translate(-22319.766 5922.996)" fill="#6ad1e3"></path>
    <path id="Path_126649" data-name="Path 126649" d="M2373.071,266.87a35.7,35.7,0,0,1,15.573-17.962c3.711-2.053,8-3.16,12.086-1.558,3.645,1.429,6.773,4.374,9.353,7.242,5.317,5.912,8.64,13.393,10.608,21.034a63.355,63.355,0,0,1,1.8,23.284c-.944,7.886-4.138,15.657-10.592,20.749q1.815-.232,3.635-.47c-.311-.185-.613-.38-.914-.582-.127-.085-.252-.173-.377-.263.1.076.354.293-.115-.092a15.989,15.989,0,0,1-1.543-1.447,8.2,8.2,0,0,1-1.045-1.262,18.217,18.217,0,0,1-1.105-1.8c-.168-.311-.323-.628-.475-.945-.066-.137-.129-.277-.188-.414.053.124.169.438-.047-.126-.254-.666-.479-1.344-.667-2.034s-.335-1.395-.461-2.1a1.738,1.738,0,0,1-.064-.43c-.047-.412-.082-.823-.106-1.237-.039-.675-.047-1.351-.027-2.024.011-.365.03-.728.058-1.091a7.092,7.092,0,0,0,.066-.754,21.51,21.51,0,0,1,1.041-4.237,17.4,17.4,0,0,1,1.725-3.47,15.1,15.1,0,0,1,2.692-3.2c4.479-4.268,10.807-6.217,16.945-6.2a31.257,31.257,0,0,1,18.349,6.4c6.3,4.6,11.053,11.191,14.542,18.116a3,3,0,0,0,5.181-3.028c-7.132-14.156-20.043-26.679-36.636-27.454a31.294,31.294,0,0,0-21.443,6.875,24.314,24.314,0,0,0-8.53,18.512c-.075,7.7,3.388,15.413,10.115,19.47a3.1,3.1,0,0,0,3.635-.471c14.026-11.06,14.442-32.007,10.8-47.955a57.9,57.9,0,0,0-11.73-24.581,34.575,34.575,0,0,0-10.654-8.838,18.516,18.516,0,0,0-15.263-.51c-10.25,4.068-18.043,13.146-22.011,23.258a3.024,3.024,0,0,0,2.1,3.692,3.071,3.071,0,0,0,3.691-2.1" transform="translate(-22319.766 5922.996)" fill="#6ad1e3"></path>
    <path id="Path_126650" data-name="Path 126650" d="M2453.227,159.773a670.235,670.235,0,0,1,49.971,65.093q6.51,9.649,12.682,19.522c2.044,3.266,7.237.258,5.181-3.028a682.755,682.755,0,0,0-48.613-68.007q-7.335-9.039-14.978-17.821a3,3,0,1,0-4.243,4.241" transform="translate(-22319.766 5922.996)" fill="#6ad1e3"></path>
    <path id="Path_126651" data-name="Path 126651" d="M2562.137,116.223q3.4,33.268,7.943,66.4,1.28,9.354,2.649,18.693c.235,1.6,2.266,2.486,3.69,2.1a3.077,3.077,0,0,0,2.1-3.689q-4.75-32.415-8.395-64.978-1.037-9.256-1.983-18.524a3.086,3.086,0,0,0-3-3,3.021,3.021,0,0,0-3,3" transform="translate(-22319.766 5922.996)" fill="#6ad1e3"></path>
    <path id="Path_126652" data-name="Path 126652" d="M2667.455,99.9A536.683,536.683,0,0,0,2644.8,161.94q-2.637,8.913-4.959,17.918c-.967,3.741,4.819,5.337,5.785,1.6a530.088,530.088,0,0,1,20.09-61.853q3.311-8.4,6.917-16.675a3.1,3.1,0,0,0-1.076-4.1c-1.27-.742-3.454-.417-4.1,1.075" transform="translate(-22319.766 5922.996)" fill="#6ad1e3"></path>
    <path id="Path_126653" data-name="Path 126653" d="M2814.9,381.284l-25.534,38.489q22.575,22.281,45.151,44.558c1.5,1.483,3.31,3.082,5.411,2.862a7.244,7.244,0,0,0,3.868-2.249l27.655-25.123a2.73,2.73,0,0,0,.262-4.807q-28.491-28.758-59.64-54.712" transform="translate(-22319.766 5922.996)" fill="#6ad1e3"></path>
    <rect id="Rectangle_3787" data-name="Rectangle 3787" width="83.66" height="86.9" transform="translate(-19530.406 6303.296)" fill="none"></rect>
    <path id="Path_126654" data-name="Path 126654" d="M2830.545,241.858q-14.667,23.007-29.333,46.013c-1.026,1.609-2.1,3.421-1.771,5.3.314,1.818,1.837,3.144,3.263,4.314l69.3,56.769a98.675,98.675,0,0,1,36.143-31.247c1.67-.841,3.666-2.213,3.248-4.037a4.167,4.167,0,0,0-1.467-2c-21.76-19.654-44.214-38.521-66.661-57.385l-16.456-13.829" transform="translate(-22319.766 5922.996)" fill="#6ad1e3"></path>
    <path id="Path_126655" data-name="Path 126655" d="M2991.628,338.922q-14.151,20.334-28.3,40.665a3.285,3.285,0,0,0,.3,5.23l56.39,57.892q20.422-11.315,40.509-23.223a5.81,5.81,0,0,0,2.549-2.314c.772-1.693-.211-3.633-1.187-5.22a249.021,249.021,0,0,0-73.451-76.364" transform="translate(-22319.766 5922.996)" fill="#360484"></path>
    <path id="Path_126656" data-name="Path 126656" d="M2989.037,337.407q-7.784,11.182-15.566,22.366l-7.783,11.184q-1.911,2.745-3.821,5.489c-1.3,1.863-2.807,3.736-2.658,6.144.152,2.466,2.078,4.128,3.686,5.778l4.7,4.823q4.786,4.917,9.573,9.829,9.572,9.825,19.145,19.655l21.581,22.157a3.065,3.065,0,0,0,3.635.469q16.122-8.936,32.038-18.237,3.819-2.23,7.626-4.485c2.557-1.515,5.03-3.246,5.153-6.523.1-2.82-1.654-5.3-3.082-7.575q-2.058-3.279-4.219-6.5A251.923,251.923,0,0,0,2989.949,333a3,3,0,0,0-3.028,5.18,246.22,246.22,0,0,1,44.947,38.806,242.334,242.334,0,0,1,18.426,22.861q4.362,6.145,8.342,12.551a15.532,15.532,0,0,1,1.542,2.732,1.52,1.52,0,0,1,.141.88c.1-.275-.511.4-.408.327a73.715,73.715,0,0,1-7.041,4.181q-17.062,10.012-34.37,19.6,1.818.232,3.636.469l-36.9-37.881q-9.223-9.471-18.448-18.94c-.336-.344-1.539-1.229-1.587-1.627,0,0,.68-.992.854-1.244q1.833-2.646,3.679-5.286l7.5-10.775,16.982-24.4a3.027,3.027,0,0,0-1.076-4.1,3.062,3.062,0,0,0-4.1,1.075" transform="translate(-22319.766 5922.996)" fill="#360484"></path>
    <path id="Path_126657" data-name="Path 126657" d="M2922.905,411.2l-9.055,12.511a3.732,3.732,0,0,0-.954,2.235,3.417,3.417,0,0,0,1.2,2.113c7.05,7.078,19.64,9.222,22.54,18.782l11.4-10c1.547-1.357,3.227-3.005,3.142-5.061-.075-1.85-1.563-3.294-2.946-4.525q-11.344-10.1-22.692-20.2" transform="translate(-22319.766 5922.996)" fill="#f04e98"></path>
    <path id="Path_126658" data-name="Path 126658" d="M3135.921,387.7a125.121,125.121,0,0,0-19.4,23.941,10.34,10.34,0,0,0-2,5.2c-.018,2.463,1.616,4.591,3.171,6.5l34.65,42.578c.909,1.116,1.965,2.317,3.4,2.483a5.635,5.635,0,0,0,3.09-.873l25.438-12.885,13.546-6.862c.964-.487,2.026-1.093,2.3-2.14a3.861,3.861,0,0,0-1.015-3.015,211.052,211.052,0,0,0-44.322-45.988c-7.741-5.9-16.435-12.014-19.075-21.385" transform="translate(-22319.766 5922.996)" fill="#703dc1"></path>
    <path id="Path_126659" data-name="Path 126659" d="M3134.861,386.636a128.249,128.249,0,0,0-16.184,19.01c-1.234,1.774-2.428,3.58-3.562,5.419a11.815,11.815,0,0,0-2.078,5.553c-.185,4.074,3.28,7.382,5.649,10.293l17.639,21.676q4.49,5.518,8.978,11.032l4.41,5.419c1.182,1.452,2.318,3.2,3.961,4.185a5.355,5.355,0,0,0,5.178-.042c2.033-.932,4.007-2.018,6-3.028l12.28-6.22q6.132-3.107,12.264-6.212l6.119-3.1c1.69-.856,3.851-1.581,5.158-3.012,1.411-1.549,1.116-3.565.072-5.224-1.074-1.706-2.348-3.317-3.552-4.934q-3.636-4.873-7.537-9.542a211.432,211.432,0,0,0-16.721-17.785,222.952,222.952,0,0,0-18.615-15.709c-5.579-4.233-11.583-8.614-15.143-14.8a21.677,21.677,0,0,1-2.029-4.768,1.5,1.5,0,0,0-2.892.8c1.9,6.509,6.48,11.594,11.563,15.878,5.556,4.683,11.527,8.842,17.054,13.572a209.356,209.356,0,0,1,31.728,33.869c1.127,1.512,2.263,3.024,3.322,4.584.459.68,1.107,1.5.377,2.189a10.868,10.868,0,0,1-2.553,1.408q-5.788,2.933-11.579,5.865-11.62,5.888-23.243,11.773c-.949.483-1.9.97-2.851,1.445a3.328,3.328,0,0,1-2.582.571c-1.516-.587-2.69-2.69-3.661-3.883l-8.346-10.258-16.7-20.514c-2.763-3.4-5.558-6.772-8.292-10.192-1.12-1.4-2.389-3.047-2.467-4.916-.078-1.918,1.165-3.661,2.144-5.212a122.887,122.887,0,0,1,14.708-18.934q2-2.115,4.1-4.134c1.392-1.344-.731-3.464-2.12-2.121" transform="translate(-22319.766 5922.996)" fill="#703dc1"></path>
    <path id="Path_126660" data-name="Path 126660" d="M2811.2,394.134a189.646,189.646,0,0,0,6.326,33.975c.7,2.463,1.213,5.489,2.656,7.644a5.426,5.426,0,0,0,3.608,2.433,11.078,11.078,0,0,0,4.569-.613,16.16,16.16,0,0,1,7.408.45c2.729.655,5.4,1.517,8.15,2.093a59.121,59.121,0,0,0,19.613.822,3.1,3.1,0,0,0,3-3c0-1.461-1.381-3.208-3-3a54.266,54.266,0,0,1-15.694-.17c-5.247-.87-10.251-2.933-15.57-3.379a17.328,17.328,0,0,0-3.768.1c-1.194.157-2.325.625-3.493.8,0,0,.221.377.091-.007-.063-.185-.229-.6-.351-.978q-.61-1.929-1.17-3.874-2.254-7.776-3.821-15.726-1.718-8.717-2.554-17.57a3.083,3.083,0,0,0-3-3,3.022,3.022,0,0,0-3,3" transform="translate(-22319.766 5922.996)" fill="#6ad1e3"></path>
    <path id="Path_126661" data-name="Path 126661" d="M2826.357,261.448c2.018,2.328,2.938,5.387,3.8,8.285,1.112,3.753,2.194,7.515,3.291,11.271q1.668,5.713,3.336,11.427c1,3.423,1.875,6.914,3.046,10.284,1.151,3.314,2.986,6.282,6.232,7.874,3.349,1.642,7.165,2.5,10.716,3.6l22.256,6.912q6.391,1.986,12.785,3.969a97.555,97.555,0,0,0,12.243,3.406,3.087,3.087,0,0,0,3.691-2.094,3.027,3.027,0,0,0-2.1-3.692,86.184,86.184,0,0,1-10.822-2.964l-10.891-3.381-22.256-6.912c-3.569-1.107-7.15-2.178-10.706-3.327a9.816,9.816,0,0,1-3.265-1.519,7.338,7.338,0,0,1-2.037-3.286c-1.219-3.416-2.094-6.985-3.11-10.464l-3.2-10.951c-1.182-4.048-2.339-8.106-3.548-12.144-1.145-3.824-2.578-7.486-5.222-10.535a3.026,3.026,0,0,0-4.243,0,3.057,3.057,0,0,0,0,4.241" transform="translate(-22319.766 5922.996)" fill="#f04e98"></path>
    <path id="Path_126662" data-name="Path 126662" d="M3056.777,428.32c-2.65-5.9-9.218-8.977-16.291-11.861l-34.476-14.064a13.213,13.213,0,0,1-4.295-2.471c-2.229-2.124-2.838-5.238-3.24-7.3a378.953,378.953,0,0,1-5.979-44.494l4.425-.33a374.227,374.227,0,0,0,5.909,43.971c.389,2,.833,3.875,1.945,4.937a9.564,9.564,0,0,0,2.911,1.576l34.475,14.063c7.624,3.11,15.346,6.764,18.664,14.154Z" transform="translate(-22319.766 5922.996)" fill="#f04e98"></path>
    <path id="Path_126663" data-name="Path 126663" d="M2925.272,412.841a.77.77,0,0,1-.744.324c-.405-.021-.4.025.01.142l-2.2-2.9q1.317,10.179,2.233,20.4a3.075,3.075,0,0,0,3,3A121.253,121.253,0,0,1,2946.3,435.7a3.082,3.082,0,0,0,3.69-2.094,3.027,3.027,0,0,0-2.095-3.692,131.849,131.849,0,0,0-20.328-2.1l3,3q-.915-10.224-2.233-20.4a3.223,3.223,0,0,0-2.2-2.891,5.038,5.038,0,0,0-5.1,1.079c-1.276,1-1.048,3.192,0,4.241a3.073,3.073,0,0,0,4.243,0" transform="translate(-22319.766 5922.996)" fill="#6ad1e3"></path>
    <path id="Path_126664" data-name="Path 126664" d="M3133.383,389.206l4.716,39.01a3.069,3.069,0,0,0,3.8,2.892c7.14-1.135,14.3,2,20.954,4.226a59.516,59.516,0,0,0,11.271,2.793,38.754,38.754,0,0,0,5.76.245,23.733,23.733,0,0,1,5.276.182c1.961.4,3.329,1.56,4.945,2.671a8.177,8.177,0,0,0,6.531,1.539,3,3,0,1,0-1.595-5.786c.087-.019-.212-.011-.255-.022a1.713,1.713,0,0,1-.562-.229,22.465,22.465,0,0,1-2.325-1.573,13.441,13.441,0,0,0-5.144-2.385c-3.977-.822-8.027-.074-12.029-.569-7.327-.9-14.082-4.352-21.2-6.119a32.885,32.885,0,0,0-13.221-.759l3.8,2.894-4.716-39.01a3.1,3.1,0,0,0-3-3c-1.47,0-3.2,1.382-3,3" transform="translate(-22319.766 5922.996)" fill="#6ad1e3"></path>
    <path id="Path_126665" data-name="Path 126665" d="M2946.4,312.536l-2.788-3.452,19.361-15.639a68.4,68.4,0,0,1-19.677.208l-4.773-.646,3.593-3.207a420.477,420.477,0,0,1,40.032-31.567l2.53,3.647a416.5,416.5,0,0,0-35.773,27.851,64.122,64.122,0,0,0,22.286-2.717l11.011-3.4Z" transform="translate(-22319.766 5922.996)" fill="#f04e98"></path>
    <path id="Path_126666" data-name="Path 126666" d="M3081.173,364.567l-2.472-3.685a88.413,88.413,0,0,0,18.61-16.725,138.025,138.025,0,0,0-21.648,4.691l-8.511,2.576,6.3-6.272a130.918,130.918,0,0,1,31.847-23.314l2.053,3.933a126.543,126.543,0,0,0-24.269,16.493,142.709,142.709,0,0,1,19.052-3.126l4.958-.469-2.965,4a92.871,92.871,0,0,1-22.958,21.9" transform="translate(-22319.766 5922.996)" fill="#f04e98"></path>
    <path id="Path_126667" data-name="Path 126667" d="M2831.6,525.182a153.641,153.641,0,0,0-30.253-32.017l2.756-3.477a158.033,158.033,0,0,1,31.126,32.939Z" transform="translate(-22319.766 5922.996)" fill="#f04e98"></path>
    <rect id="Rectangle_3788" data-name="Rectangle 3788" width="4.438" height="20.311" transform="matrix(0.801, -0.598, 0.598, 0.801, -19483.045, 6418.411)" fill="#f04e98"></rect>
    <path id="Path_126668" data-name="Path 126668" d="M2892.179,407.188a143.76,143.76,0,0,0-15.645-24.542l3.48-2.752a148.047,148.047,0,0,1,16.13,25.3Z" transform="translate(-22319.766 5922.996)" fill="#f04e98"></path>
    <rect id="Rectangle_3789" data-name="Rectangle 3789" width="4.437" height="40.434" transform="translate(-19406.219 6275.535) rotate(-26.74)" fill="#f04e98"></rect>
  </g>
</svg>
