<?xml version="1.0" encoding="UTF-8"?>
<svg xmlns="http://www.w3.org/2000/svg" width="961.977" height="842.541" viewBox="0 0 961.977 842.541">
  <g id="Group_3196" data-name="Group 3196" transform="translate(-4383.387 -2216.547)">
    <path id="Path_125830" data-name="Path 125830" d="M5345.347,2579.1c-1.116-71.027-56.936-137.415-126.718-150.707-12.948-2.465-28.025-4.4-34.989-15.588-8.362-13.441.55-30.53,1.789-46.311,2.14-27.239-19.351-50.46-41.624-66.286-63.758-45.3-147.815-60.788-223.531-41.177-21.011,5.442-42.16,13.973-56.643,30.139s-20.431,41.521-9.154,60.066c5.259,8.648,13.544,14.966,20.1,22.676s11.529,18.237,8.223,27.8c-3.652,10.569-15.9,15.622-27.055,16.394s-22.478-1.417-33.488.536c-25.307,4.49-42.509,30.855-43.374,56.541s11.284,50.138,26.42,70.91c31.217,42.842,76.984,74.519,127.6,90.086l-7.85-1.21c10.758,3.087,21.765,6.294,30.8,12.9s15.847,17.413,14.558,28.53c-.947,8.157-5.986,15.267-7.944,23.241-3.128,12.738,2.115,26.43,10.8,36.257s20.421,16.4,32.233,22.1a346.911,346.911,0,0,0,91.266,29.329c34.548,6.006,71.825,6.316,102.728-10.258,8.458-4.537,16.594-10.645,20.637-19.351,5.829-12.552,2.027-27.794,7.082-40.676,4.809-12.255,16.816-20.221,29.056-25.066s25.361-7.389,37.229-13.085C5328.641,2660.024,5345.959,2618.082,5345.347,2579.1Z" fill="#fff"></path>
    <path id="Path_125831" data-name="Path 125831" d="M4716.063,2435.145c-12.733,18.436-32.291,31.287-53.053,39.713-3.736,1.517-7.686,3.015-10.331,6.058-5.135,5.907-3.4,14.9-1.371,22.454q7,26.064,14,52.126c1.038,3.868,2.211,7.962,5.188,10.64,4.614,4.15,11.711,3.415,17.771,2.078a163.341,163.341,0,0,0,72.08-36.453c2.09-1.83,4.208-3.825,5.129-6.446a15.846,15.846,0,0,0,.492-6.351c-2.311-33.7-22.275-65.7-51.53-82.584" fill="#6ad1e3" style="isolation: isolate"></path>
    <path id="Path_125832" data-name="Path 125832" d="M5010.306,2437.334c-.081.018-.156.051-.236.071.2-6.313-2.177-12.493-7.551-15.716a10.314,10.314,0,0,0-3.655-1.329,23.814,23.814,0,0,0,1.759-9.76c-.406-10.867-11.162-21.1-21.7-18.421-4.839,1.229-8.743,4.7-12.436,8.061-53,48.194-106.684,97.121-164.944,138.516q1.845,2.707,3.763,5.343c28.607,39.26,69.436,69.134,115.014,85.837a427.322,427.322,0,0,0,33.005-32.849c35.629-39.8,62.9-89.2,66.823-142.476C5020.705,2447.017,5017.873,2436.477,5010.306,2437.334Z" fill="#6ad1e3" style="isolation: isolate"></path>
    <path id="Path_125833" data-name="Path 125833" d="M4776.1,2543.817c-4.4-30.919-13.357-62.3-32.654-87.4-17.64-22.94-44.9-39.748-74.326-40.579a74.873,74.873,0,0,0-40.018,10.4c-11.848,6.98-21.726,16.919-29.532,28.174-18.435,26.582-23.351,59.212-23.089,90.928.073,8.872.52,17.738,1.123,26.588.587,8.613,1.036,17.311,2.157,25.874.977,7.463,3.13,14.983,8.815,20.273,5.25,4.885,12.249,7.257,19.238,8.233,16.59,2.317,33.9-1.3,49.645-6.414,16.152-5.245,31.795-12.266,47.087-19.614a654.952,654.952,0,0,0,84.168-48.959c26.921-18.292,52.716-38.2,77.789-58.941,25.292-20.919,49.852-42.7,74.205-64.7q9.185-8.3,18.339-16.625,4.5-4.091,9-8.182c2.8-2.547,5.623-5.238,9.084-6.876,6.114-2.9,12.635-.142,16.674,4.87,4.323,5.365,4.757,12.344,2.207,18.6-2.573,6.313-7.71,11.35-13.509,14.758l4.1,1.076c-4-7.405,8.066-14.507,14.181-11.146,8.756,4.814,7.307,17.8,2.272,24.676h5.181c-1.854-2.546-1.184-7.585,2.37-8.475,3.267-.818,5.077,3.566,5.754,5.958,1.314,4.639.763,9.374.265,14.093-.582,5.5-1.438,10.967-2.521,16.39-4.455,22.318-12.823,43.692-23.8,63.587-23.157,41.967-57.3,76.273-94.228,106.294-21.683,17.63-44.411,33.915-67.118,50.187-3.111,2.229-.119,7.436,3.028,5.181,21.627-15.5,43.253-31.025,64.031-47.655,20.71-16.576,40.579-34.3,58.372-54.009a303.958,303.958,0,0,0,42.838-60.178c11.553-21.638,20.148-45.02,24.007-69.293a132.577,132.577,0,0,0,1.973-17.591c.1-4.57-.729-9.627-3.157-13.57-2.268-3.683-6.582-6.467-11.037-5.18-4.675,1.351-7.689,6.115-7.864,10.829a10.407,10.407,0,0,0,1.908,6.461,3.054,3.054,0,0,0,5.181,0c5.962-8.146,6.854-20.652.369-28.766-6.532-8.172-18.514-7.218-25.086.462-3.619,4.228-4.812,9.743-2.1,14.774a3.04,3.04,0,0,0,4.1,1.076c11.588-6.81,21.819-21.058,16.937-35.025a23.9,23.9,0,0,0-13.432-14.327c-6.987-2.789-13.97-.579-19.71,3.837-6.211,4.78-11.821,10.469-17.619,15.736q-9.024,8.2-18.072,16.365-18,16.233-36.22,32.211c-24.488,21.383-49.456,42.25-75.4,61.849a787.89,787.89,0,0,1-80.12,53.661c-13.841,8.006-27.982,15.5-42.423,22.366-15.158,7.208-30.654,14.1-46.727,19.014a131.255,131.255,0,0,1-25.421,5.371c-7.627.751-15.615.954-23.1-.927-6.808-1.71-12.825-5.362-15.854-11.916-3.228-6.982-3.2-15.316-3.8-22.84-2.7-33.754-4.978-69.33,6.9-101.727,9.127-24.9,27.53-48.621,53.3-57.517,27.147-9.372,57.025.158,78.362,18.145,23.717,19.994,36.428,49.686,43.132,79.333,1.674,7.4,2.99,14.883,4.059,22.4.229,1.617,2.268,2.47,3.69,2.095a3.075,3.075,0,0,0,2.1-3.69Z" fill="#360484"></path>
    <path id="Path_125834" data-name="Path 125834" d="M4687.194,2635.839c-32.066-2.889-63.448-11.86-95.613-13.294s-67.05,6.179-88.245,30.415c-9.159,10.473-15.12,23.3-20.775,36.011q-14.823,33.315-27.98,67.338c-2.668,6.9-5.329,14.177-4.335,21.5,1.233,9.09,7.835,16.468,14.677,22.579,41.541,37.108,100.886,48.417,156.445,44.442,8.35-.6,16.946-1.585,24.246-5.683,6.406-3.6,11.324-9.322,15.734-15.2,25.1-33.441,37.663-74.477,47.756-115.052,3.174-12.759,6.17-25.91,4.468-38.947s-9.071-26.12-21.27-31.024" fill="#f04e98" style="isolation: isolate"></path>
    <path id="Path_125835" data-name="Path 125835" d="M4788.072,2718.408c13.755-9.694,31.142-12.992,47.609-10.473A74.217,74.217,0,0,1,4879.9,2731.7c11.682,13.017,18.744,29.716,21.463,46.894,2.853,18.028.359,36.475-5.9,53.537-6.527,17.782-17.143,34-29.975,47.869-6.113,6.6-15.957,13.576-15.068,23.714.459,5.234,3.272,9.867,5.9,14.289,2.483,4.179,5.107,8.276,7.466,12.528,4.1,7.4,7.967,16.08,4.847,24.469-2.842,7.644-11.336,11.907-19.035,12.613-11.028,1.011-22.01-2.9-32.341-6.273-10.13-3.3-20.129-7.043-29.92-11.25q-14.933-6.417-29.249-14.154c-8.215-4.441-16.611-8.96-23.382-15.5-5.524-5.334-10.192-12.477-8.869-20.181,1.362-7.929,7.791-13.917,12.55-20.13a39,39,0,0,0,6.1-10.778,3.029,3.029,0,0,0-2.1-3.69,3.078,3.078,0,0,0-3.69,2.1c-4.936,11.794-16.3,19.776-28.233,23.585-14.864,4.746-30.585,3.062-45.493-.948-9.606-2.584-18.938-6.07-28.241-9.566a3.025,3.025,0,0,0-3.69,2.1,3.066,3.066,0,0,0,2.095,3.69c17.139,6.441,34.708,12.929,53.207,13.609,14.481.532,29.616-3.139,41.288-12a45.719,45.719,0,0,0,14.852-18.87l-5.785-1.595c-2.759,7.866-9.7,13.7-14.255,20.6a28.03,28.03,0,0,0-4.675,12.255,24.261,24.261,0,0,0,2.389,12.986c3.84,8.236,11.4,14.476,18.832,19.373,8.906,5.871,18.61,10.741,28.194,15.391q15.193,7.372,31.023,13.337c10.437,3.936,21.125,7.728,32,10.273,10.3,2.411,21.43,2.919,30.932-2.427a24.056,24.056,0,0,0,12.526-23.468c-1.058-9.96-6.648-18.728-11.747-27.092-2.516-4.128-5.587-8.409-7-13.073-1.371-4.53.363-8.389,3.329-11.828,3.211-3.723,6.909-7.019,10.226-10.65,3.4-3.724,6.617-7.61,9.679-11.618a148.493,148.493,0,0,0,15.642-25.266c8.5-17.534,13.431-36.969,12.664-56.53-.724-18.456-6.146-36.962-16.431-52.382a81.07,81.07,0,0,0-42.788-32.687c-17.183-5.468-36.276-5.167-52.919,1.98a61.973,61.973,0,0,0-11.271,6.3,3.082,3.082,0,0,0-1.077,4.1,3.027,3.027,0,0,0,4.1,1.077Z" fill="#360484"></path>
    <path id="Path_125836" data-name="Path 125836" d="M4514.771,2832.818a427.843,427.843,0,0,1-47.018,56.1q-12.9,12.966-26.873,24.807c-4.426,3.75-9.078,7.5-11.958,12.643-3.061,5.471-3.716,11.873-3.741,18.035-.053,12.891,2.637,25.666,6.5,37.912,3.749,11.877,8.456,23.5,13.356,34.942,7.246,16.924,17.934,36.752,37.512,41.12,19.981,4.458,40.378-12.864,41.185-32.921a29.861,29.861,0,0,0-.659-7.272l-1.379,3.388a459.776,459.776,0,0,0,62.3-38,466.714,466.714,0,0,0,55.833-47.525q14.582-14.553,27.811-30.377a3.083,3.083,0,0,0,0-4.243,3.025,3.025,0,0,0-4.243,0,457.757,457.757,0,0,1-109.209,94.975q-17.3,10.779-35.524,19.985a3.057,3.057,0,0,0-1.379,3.388,24.145,24.145,0,0,1-.846,12.525,30.822,30.822,0,0,1-6.536,10.985c-5.905,6.412-14.142,10.466-22.81,9.772-8.273-.663-15.7-5.709-21.329-12.041-6-6.756-10.443-15.3-14.2-23.7-4.568-10.218-8.885-21.122-12.569-31.931-3.9-11.448-7-23.3-7.674-35.417-.322-5.739-.443-11.808,1.363-17.335,1.689-5.168,5.648-8.892,9.673-12.335,8.948-7.652,17.748-15.426,26.151-23.681a436.379,436.379,0,0,0,46.373-53.7q2.568-3.511,5.064-7.074a3.027,3.027,0,0,0-1.077-4.1,3.062,3.062,0,0,0-4.1,1.076Z" fill="#360484"></path>
    <path id="Path_125837" data-name="Path 125837" d="M4605.343,2452.739a185.837,185.837,0,0,0,13.826-36.893c1.4-5.479,3-11.48,1.508-17.112-1.317-4.984-5.141-8.582-10.406-8.652-4.722-.062-9.974,3.117-9.524,8.4.169,1.978,2.531,4.113,4.515,2.59,8.453-6.488,7.547-19.942-.784-26.192-9.53-7.15-23.345-3.145-30.41,5.494a38.054,38.054,0,0,0-7.8,18.248c-.343,2.164,1.3,4.373,3.69,3.691,5.413-1.545,7.842-7.26,7.025-12.512-.913-5.875-6.186-9.362-11.78-9.988-6.5-.728-12.442,2.519-17.055,6.82s-8.467,9.482-12.347,14.411a362.963,362.963,0,0,0-40.478,64.132,350.666,350.666,0,0,0-25.991,70.864,313.976,313.976,0,0,0-9.314,74.171,275.072,275.072,0,0,0,9.766,74.043q1.233,4.452,2.626,8.859c1.156,3.67,6.951,2.1,5.786-1.595a265.382,265.382,0,0,1-11.973-69.676,299.771,299.771,0,0,1,5.837-70.556,337.47,337.47,0,0,1,21.452-68.007,359.386,359.386,0,0,1,35.175-62.687q5.11-7.29,10.583-14.319a168.4,168.4,0,0,1,11.657-13.96c3.669-3.771,8.333-7.151,13.876-6.547a7.865,7.865,0,0,1,5.448,2.871,6.019,6.019,0,0,1,.769,4.693,3.893,3.893,0,0,1-2.657,3.2l3.691,3.69c1.366-8.62,5.457-18.183,14.115-21.668,7.29-2.935,16.783-.918,18.773,7.561.776,3.31.179,7.569-2.7,9.782l4.514,2.59c-.019-.224-.007-.983-.024-.82-.033.312.054-.134.068-.165-.052.113-.243.469.031-.052a2.72,2.72,0,0,1,.728-.708,5.2,5.2,0,0,1,3.375-.621c-.33-.035.494.106.648.148.138.037.913.333.645.205a2.9,2.9,0,0,1,1.449,1.174,9.315,9.315,0,0,1,1.581,5.352c.134,4.753-1.369,9.532-2.609,14.07q-2.187,8-5.1,15.774a176.155,176.155,0,0,1-7.377,16.873c-1.72,3.444,3.454,6.486,5.181,3.028Z" fill="#360484"></path>
    <path id="Path_125838" data-name="Path 125838" d="M4474.742,2793.855c-11.567-6.889-16.22-22.867-10.159-34.89l3.6,1.814c-5.056,10.029-1.027,23.867,8.622,29.614Z" fill="#f04e98"></path>
    <path id="Path_125839" data-name="Path 125839" d="M4488.437,2792.724a23,23,0,0,1-11.008-33.093l3.459,2.068a18.973,18.973,0,0,0,9.078,27.3Z" fill="#f04e98"></path>
    <path id="Path_125840" data-name="Path 125840" d="M4497.311,2788.254a27.125,27.125,0,0,1-10.92-27.5l3.939.853a23,23,0,0,0,9.26,23.321Z" fill="#f04e98"></path>
    <path id="Path_125841" data-name="Path 125841" d="M4463.969,2783.211l-1.789-3.611a102.8,102.8,0,0,1,30.669-9.6l.589,3.986A98.839,98.839,0,0,0,4463.969,2783.211Z" fill="#f04e98"></path>
    <path id="Path_125842" data-name="Path 125842" d="M4473.427,2797.521l-1.215-3.844c11.08-3.5,22.2-7.379,33.036-11.528l1.441,3.764C4495.773,2790.091,4484.583,2794,4473.427,2797.521Z" fill="#f04e98"></path>
    <path id="Path_125843" data-name="Path 125843" d="M4490.3,2807.318l-1.83-3.589a89.642,89.642,0,0,1,16.046-6.319l1.109,3.875A85.77,85.77,0,0,0,4490.3,2807.318Z" fill="#f04e98"></path>
    <rect id="Rectangle_3210" data-name="Rectangle 3210" width="5.998" height="4.031" transform="translate(4502.104 2810.959)" fill="#f04e98"></rect>
    <rect id="Rectangle_3211" data-name="Rectangle 3211" width="2.371" height="4.031" transform="translate(4503.767 2769.175) rotate(-17.978)" fill="#f04e98"></rect>
    <rect id="Rectangle_3212" data-name="Rectangle 3212" width="4.03" height="7.647" transform="matrix(0.196, -0.981, 0.981, 0.196, 4469.447, 2754.308)" fill="#f04e98"></rect>
    <rect id="Rectangle_3213" data-name="Rectangle 3213" width="4.031" height="6.79" transform="translate(4471.877 2743.813) rotate(-83.592)" fill="#f04e98"></rect>
    <path id="Path_125844" data-name="Path 125844" d="M4480.359,2731.242" fill="none" stroke="#f04e98" stroke-miterlimit="10" stroke-width="4.03"></path>
    <path id="Path_125845" data-name="Path 125845" d="M4631.5,2727.486a1217.216,1217.216,0,0,1-144.687-30.407l1.068-3.887a1213.115,1213.115,0,0,0,144.206,30.306Z" fill="#f04e98"></path>
    <rect id="Rectangle_3214" data-name="Rectangle 3214" width="11.067" height="4.03" transform="translate(4639.168 2730.402) rotate(-63.149)" fill="#f04e98"></rect>
    <rect id="Rectangle_3215" data-name="Rectangle 3215" width="9.394" height="4.031" transform="translate(4648.091 2734.089) rotate(-62.504)" fill="#f04e98"></rect>
    <path id="Path_125846" data-name="Path 125846" d="M4716.18,2470.524a47.047,47.047,0,0,0-14.839,8.628,32.885,32.885,0,0,0-5.8,6.141c-1.891,2.78-1.546,6.461,1.517,8.215,2.389,1.368,5.367.966,7.931.461a27.28,27.28,0,0,0,7.343-2.651,28.1,28.1,0,0,0,10.972-10.384c1.714-2.876,3.464-6.812.942-9.768-2.557-3-6.5-1.979-9.476-.318-3.373,1.882-.351,7.066,3.028,5.181a6.214,6.214,0,0,1,1.941-.835c.136-.006.14.065.169.021.146-.217.183.22.017.013a4.022,4.022,0,0,0-.39-.494c-.134-.1.038.115-.02.242a28.266,28.266,0,0,1-2.375,4.447,22.2,22.2,0,0,1-7.677,6.629,20.423,20.423,0,0,1-4.834,1.854c-.7.177-1.763.391-2.225.45a10.785,10.785,0,0,1-1.149.091c-.209,0-.418-.005-.627-.014-.517-.024.007,0-.283-.053a4.171,4.171,0,0,1-.438-.124c.44.136-.007.016-.064-.072.092.141.242.092.321.292.02.05.307.751.114.6s1.457-1.924,1.551-2.028a42.275,42.275,0,0,1,4.367-4.175,38.914,38.914,0,0,1,11.575-6.565,3.078,3.078,0,0,0,2.1-3.69,3.027,3.027,0,0,0-3.691-2.1Z" fill="#360484"></path>
    <path id="Path_125847" data-name="Path 125847" d="M4715.42,2471.759a7.538,7.538,0,0,1-.763,1.163l.47-.607c-1.184,1.524-2.566,3.131-2.393,5.214a5.62,5.62,0,0,0,1.129,3.082,4.322,4.322,0,0,0,3.319,1.736,4.727,4.727,0,0,0,3.522-1.692,8.2,8.2,0,0,0,1.818-2.922,5.085,5.085,0,0,0,.011-3.228,5.275,5.275,0,0,0-1.129-1.929,4.576,4.576,0,0,0-1.867-1.183,4.237,4.237,0,0,0-4.318,1.046,4.115,4.115,0,0,0-.752,4.95,3,3,0,1,0,5.18-3.028,1,1,0,0,1-.065-.134l.3.717a1.27,1.27,0,0,1-.052-.208l.107.8a1.37,1.37,0,0,1,0-.21l-.107.8a1.4,1.4,0,0,1,.069-.275l-.3.716a1.633,1.633,0,0,1,.183-.319l-.47.607a1.824,1.824,0,0,1,.267-.268l-.607.469a1.747,1.747,0,0,1,.327-.193l-.717.3a1.623,1.623,0,0,1,.289-.083l-.8.107a1.436,1.436,0,0,1,.3-.005l-.8-.107a1.607,1.607,0,0,1,.369.106l-.716-.3a1.794,1.794,0,0,1,.323.2l-.607-.469a2.037,2.037,0,0,1,.269.272l-.469-.607a2.3,2.3,0,0,1,.278.472l-.3-.716a2.551,2.551,0,0,1,.151.536l-.107-.8a2.462,2.462,0,0,1,0,.651l.107-.8a3.383,3.383,0,0,1-.183.654l.3-.717a4.537,4.537,0,0,1-.606,1.011l.469-.608a6.191,6.191,0,0,1-.887.929l.607-.469a2.041,2.041,0,0,1-.416.249l.717-.3a1.663,1.663,0,0,1-.293.078l.8-.107a1.282,1.282,0,0,1-.318,0l.8.108a1.5,1.5,0,0,1-.238-.067l.717.3a1.541,1.541,0,0,1-.324-.192l.607.469a2.081,2.081,0,0,1-.277-.283l.469.607a2.552,2.552,0,0,1-.284-.484l.3.716a2.873,2.873,0,0,1-.193-.706l.108.8a2.663,2.663,0,0,1,0-.585l-.107.8a2.568,2.568,0,0,1,.166-.591l-.3.717a6.456,6.456,0,0,1,.823-1.328l-.469.607a16.018,16.018,0,0,0,1.749-2.431,3.184,3.184,0,0,0,.3-2.312,3.061,3.061,0,0,0-1.379-1.793,3,3,0,0,0-4.1,1.076Z" fill="#360484"></path>
    <path id="Path_125848" data-name="Path 125848" d="M4684.665,2505.109a8.63,8.63,0,0,1,3.167,1.932c1.195.994,2.4,1.966,3.648,2.9a42.124,42.124,0,0,0,7.976,4.831c6.078,2.735,13,3.844,19.434,1.651a3.073,3.073,0,0,0,2.1-3.691,3.03,3.03,0,0,0-3.691-2.095c-5.474,1.866-11.316.8-16.373-1.8a43.51,43.51,0,0,1-7.014-4.542c-2.411-1.9-4.6-4.144-7.648-4.974-3.73-1.016-5.322,4.77-1.595,5.786Z" fill="#360484"></path>
    <path id="Path_125849" data-name="Path 125849" d="M4643.174,2485.778c12.78-3.368,24.393-9.915,35.5-16.917,10.241-6.458,20.78-12.9,29.7-21.157a61.865,61.865,0,0,0,12.355-15.456c1.859-3.387-3.32-6.418-5.181-3.029-5.4,9.836-14.073,17.192-23.161,23.521-4.917,3.423-9.978,6.642-15.032,9.858-5.3,3.375-10.667,6.668-16.236,9.59a93.293,93.293,0,0,1-19.535,7.8c-3.731.983-2.149,6.772,1.595,5.786Z" fill="#360484"></path>
    <path id="Path_125850" data-name="Path 125850" d="M4683.051,2458.32a51.371,51.371,0,0,1-2.053,17.906,49.4,49.4,0,0,1-3.192,8.065,34.011,34.011,0,0,1-4.635,7.405,6.044,6.044,0,0,1-2.685,1.929,2.07,2.07,0,0,1-2.037-.324c.436.368-.272-.259,0-.032.212.174-.124-.548-.037.011.007.042-.1-.891-.026-.48l-.015.109q.16-.51-.02-.089l.14-.244a.571.571,0,0,1-.29.281c-.349.067.068.074.138-.048-.225.394-.59-.475-.057.09-.312-.331.384.272.084.018-.032-.027.652.714.41.386.239.324.2.364.134.167a4.047,4.047,0,0,1,.2,1.794,18.106,18.106,0,0,1-1.179,4.288,38.14,38.14,0,0,1-3.312,6.966c-2.86,4.73-6.981,8.955-12.114,10.939a3.088,3.088,0,0,0-2.1,3.691,3.022,3.022,0,0,0,3.691,2.095,31.992,31.992,0,0,0,15.7-13.7,46.091,46.091,0,0,0,4.339-9.642c1.25-3.867,1.722-8.583-1.79-11.433-3.3-2.679-8.406-1.8-9.692,2.564a6.814,6.814,0,0,0,5.3,8.522c4.382.825,8.024-1.674,10.576-5.008a47.835,47.835,0,0,0,5.726-9.955,57.236,57.236,0,0,0,4.785-26.274,3.068,3.068,0,0,0-3-3,3.029,3.029,0,0,0-3,3Z" fill="#360484"></path>
    <rect id="Rectangle_3216" data-name="Rectangle 3216" width="69.116" height="4.031" transform="matrix(0.27, -0.963, 0.963, 0.27, 4680.617, 2523.666)" fill="#fff"></rect>
    <rect id="Rectangle_3217" data-name="Rectangle 3217" width="84.93" height="4.03" transform="matrix(0.286, -0.958, 0.958, 0.286, 4709.228, 2548.781)" fill="#fff"></rect>
    <rect id="Rectangle_3218" data-name="Rectangle 3218" width="28.226" height="4.031" transform="matrix(0.285, -0.958, 0.958, 0.285, 4737.524, 2518.468)" fill="#fff"></rect>
    <rect id="Rectangle_3219" data-name="Rectangle 3219" width="11.737" height="4.031" transform="translate(4731.627 2536.129) rotate(-63.435)" fill="#fff"></rect>
    <path id="Path_125851" data-name="Path 125851" d="M4753.46,2522.43l-3.316-2.291a2.3,2.3,0,0,0,.4-1.385l4.025-.188A6.318,6.318,0,0,1,4753.46,2522.43Z" fill="#fff"></path>
    <g id="Group_3193" data-name="Group 3193">
      <path id="Path_125852" data-name="Path 125852" d="M4588.692,2673.375c1.344-2.089.363-5.138-1.727-6.478a7.292,7.292,0,0,0-7.115-.03,9.821,9.821,0,0,0-5.206,9.2,5.8,5.8,0,0,0,1.185,3.348c1.666,2,4.985,1.918,7.06.35s3.079-4.2,3.457-6.774" fill="#fff"></path>
      <path id="Path_125853" data-name="Path 125853" d="M4579.329,2682.929a6.438,6.438,0,0,1-5.048-2.228,7.684,7.684,0,0,1-1.648-4.5,11.9,11.9,0,0,1,6.3-11.128,9.227,9.227,0,0,1,9.119.128,7.238,7.238,0,0,1,3.111,4.538,6.223,6.223,0,0,1-.776,4.727l-3.391-2.18a2.278,2.278,0,0,0,.229-1.688,3.268,3.268,0,0,0-1.349-2,5.274,5.274,0,0,0-5.111.069,7.763,7.763,0,0,0-4.112,7.262,3.962,3.962,0,0,0,.722,2.195c.945,1.134,3.086.948,4.3.033,1.746-1.32,2.42-3.7,2.678-5.459l3.988.584c-.527,3.6-1.991,6.394-4.236,8.09A8.051,8.051,0,0,1,4579.329,2682.929Z" fill="#fff"></path>
    </g>
    <g id="Group_3194" data-name="Group 3194">
      <path id="Path_125854" data-name="Path 125854" d="M4624.984,2680.859c1.343-2.088.363-5.137-1.727-6.478a7.3,7.3,0,0,0-7.116-.029,9.822,9.822,0,0,0-5.206,9.194,5.816,5.816,0,0,0,1.185,3.349c1.667,2,4.985,1.918,7.06.349s3.08-4.2,3.458-6.774" fill="#fff"></path>
      <path id="Path_125855" data-name="Path 125855" d="M4615.62,2690.414a6.44,6.44,0,0,1-5.048-2.228,7.785,7.785,0,0,1-1.647-4.5,11.889,11.889,0,0,1,6.3-11.128,9.216,9.216,0,0,1,9.119.129,7.23,7.23,0,0,1,3.11,4.538,6.214,6.214,0,0,1-.777,4.725l-3.389-2.179a2.284,2.284,0,0,0,.229-1.688,3.277,3.277,0,0,0-1.349-2,5.275,5.275,0,0,0-5.111.068,7.761,7.761,0,0,0-4.112,7.262,3.953,3.953,0,0,0,.721,2.2c.945,1.135,3.088.95,4.3.034,1.746-1.32,2.421-3.7,2.68-5.459l3.988.586c-.528,3.595-1.993,6.392-4.237,8.088A8.051,8.051,0,0,1,4615.62,2690.414Z" fill="#fff"></path>
    </g>
    <g id="Group_3195" data-name="Group 3195">
      <path id="Path_125856" data-name="Path 125856" d="M4661.275,2688.344c1.344-2.089.363-5.138-1.727-6.478a7.3,7.3,0,0,0-7.115-.03,9.821,9.821,0,0,0-5.206,9.2,5.8,5.8,0,0,0,1.185,3.349c1.666,2,4.985,1.917,7.06.349s3.079-4.2,3.457-6.774" fill="#fff"></path>
      <path id="Path_125857" data-name="Path 125857" d="M4651.911,2697.9a6.435,6.435,0,0,1-5.047-2.227,7.692,7.692,0,0,1-1.648-4.5,11.9,11.9,0,0,1,6.3-11.129,9.221,9.221,0,0,1,9.119.129,7.229,7.229,0,0,1,3.11,4.537,6.218,6.218,0,0,1-.775,4.727l-3.391-2.18a2.279,2.279,0,0,0,.229-1.688,3.266,3.266,0,0,0-1.348-2,5.271,5.271,0,0,0-5.112.068,7.766,7.766,0,0,0-4.112,7.263,3.971,3.971,0,0,0,.722,2.2c.946,1.132,3.086.946,4.3.031,1.747-1.32,2.421-3.7,2.679-5.458l3.988.584c-.527,3.6-1.991,6.393-4.236,8.089A8.052,8.052,0,0,1,4651.911,2697.9Z" fill="#fff"></path>
    </g>
    <path id="Path_125858" data-name="Path 125858" d="M4875.923,2481.72a267.765,267.765,0,0,0,22.7,55.655,270.545,270.545,0,0,0,34.355,49.066,262.442,262.442,0,0,0,23.831,23.81,3.07,3.07,0,0,0,4.242,0,3.027,3.027,0,0,0,0-4.243,260.88,260.88,0,0,1-39.521-43.49,266.971,266.971,0,0,1-28.943-51.331,256.744,256.744,0,0,1-10.875-31.062c-1.043-3.712-6.834-2.135-5.786,1.595Z" fill="#6ad1e3"></path>
    <path id="Path_125859" data-name="Path 125859" d="M4486.987,2494.055c23.834,8.071,49.193,9.742,74.153,10.819,6.435.277,13.845,1.461,19.679-1.953,3.331-1.949.314-7.136-3.029-5.18a13.827,13.827,0,0,1-7.187,1.483c-2.841,0-5.688-.189-8.526-.31-6.1-.26-12.2-.549-18.285-.954a266.4,266.4,0,0,1-35.4-4.39,162.887,162.887,0,0,1-19.813-5.3,3,3,0,1,0-1.6,5.786Z" fill="#6ad1e3"></path>
    <path id="Path_125860" data-name="Path 125860" d="M4748.42,2858.4c2.312-2.135,5.694-2.2,8.923-1.933a95.819,95.819,0,0,1,11.992,2.121,194.808,194.808,0,0,1,25,7.211,175.313,175.313,0,0,1,44.844,23.595,82.959,82.959,0,0,1,18.8,18.914,3.079,3.079,0,0,0,4.1,1.076,3.026,3.026,0,0,0,1.076-4.1c-9.97-14.362-24.549-24.64-39.728-32.906a197.972,197.972,0,0,0-51.4-19.329,106.676,106.676,0,0,0-14.874-2.592c-4.669-.361-9.434.436-12.975,3.705a3,3,0,0,0,4.243,4.243Z" fill="#6ad1e3"></path>
    <path id="Path_125861" data-name="Path 125861" d="M4462.121,2902.912a117.024,117.024,0,0,1,40.753,31.613,122.225,122.225,0,0,1,23.636,45.087,111.326,111.326,0,0,1,4.158,28.7c.052,3.857,6.052,3.868,6,0a122.849,122.849,0,0,0-12.831-52.364,127.631,127.631,0,0,0-33.028-41.94,118.913,118.913,0,0,0-25.659-16.279,3.087,3.087,0,0,0-4.1,1.077,3.024,3.024,0,0,0,1.076,4.1Z" fill="#6ad1e3"></path>
    <path id="Path_125862" data-name="Path 125862" d="M4571.077,2557.9c-16.348.222-33.375,5.479-46.117,15.933-5.6,4.595-10.383,10.7-12.166,17.834-.954,3.815-1.276,8.293.883,11.781a9.014,9.014,0,0,0,8.236,4.247,12.146,12.146,0,0,0,8.325-3.98,10.941,10.941,0,0,0,2.3-9.9c-1.9-8.032-10.484-12.306-18.209-11.57-8.115.773-15.759,5.041-21.986,10.117a40.911,40.911,0,0,0-13.194,18.782,33.285,33.285,0,0,0,1.1,23.9c3.216,7.119,9.4,12.452,15.84,16.6,1.575,1.014,3.19,1.964,4.823,2.882,3.37,1.893,6.4-3.288,3.028-5.181-5.654-3.176-11.3-6.84-15.33-12.022a25.5,25.5,0,0,1-5.045-18.215c1.2-13.1,11.462-23.32,22.921-28.562,5.61-2.566,13.057-3.937,17.749.613a7.547,7.547,0,0,1,2.623,6.4c.028-.194-.447,1.352-.2.785a6.387,6.387,0,0,1-.392.732c-.029.049-.562.764-.178.295a5.364,5.364,0,0,1-2.5,1.9c.557-.263-.265.093-.324.113-.263.087-.531.162-.8.225-.095.022-.969.13-.283.071-.269.023-.537.039-.807.037-.1,0-.971-.086-.259.022a6.086,6.086,0,0,1-.766-.17c-.124-.036-.823-.38-.253-.073-.117-.063-.97-.645-.493-.251-1.915-1.583-1.727-4.8-1.195-7.252,1.256-5.78,4.808-10.593,9.2-14.541a59.241,59.241,0,0,1,19.375-11.111,73.361,73.361,0,0,1,24.1-4.435c3.857-.053,3.868-6.053,0-6Z" fill="#360484"></path>
    <path id="Path_125863" data-name="Path 125863" d="M5106.61,2312.53c-18.771-13.019-48.978-11.976-66.849,5.082-19.132,18.262-16.005,49.216,4.2,65.327,27.728,22.109,76.015,1.529,79.127-33.9C5124.551,2332.387,5117.508,2320.089,5106.61,2312.53Z" fill="#6ad1e3" style="isolation: isolate"></path>
    <path id="Path_125864" data-name="Path 125864" d="M5201.127,2533.529c-36.544-25.348-95.353-23.317-130.145,9.892-37.248,35.553-31.16,95.816,8.177,127.183,53.983,43.043,147.989,2.976,154.047-65.991C5236.054,2572.187,5222.342,2548.244,5201.127,2533.529Z" fill="#6ad1e3" style="isolation: isolate"></path>
    <path id="Path_125865" data-name="Path 125865" d="M5034.394,2614.3a75.7,75.7,0,0,0-19.149,3.593,78.3,78.3,0,0,0-8.954,3.586,43.008,43.008,0,0,0-8.117,4.662c-2.283,1.775-4.49,4.182-5.189,7.071a7.546,7.546,0,0,0,2.971,8.022c2.4,1.74,5.533,2.1,8.379,2.543q5.33.824,10.716,1.2c13.988.951,28-.444,41.838-2.466,13.748-2.009,27.433-4.528,41.067-7.193q41.128-8.038,81.585-19.112,20.079-5.5,39.946-11.73c11.4-3.575,22.811-7.357,33.46-12.829a90.889,90.889,0,0,0,14.8-9.463,67.649,67.649,0,0,0,6.354-5.68c2.142-2.178,4.306-4.742,4.859-7.844a7.234,7.234,0,0,0-3.712-7.877c-2.655-1.371-5.828-1.379-8.746-1.362a60.075,60.075,0,0,0-19.314,3.3,63.216,63.216,0,0,0-8.893,3.893c-3.411,1.813-.383,6.994,3.028,5.18a55.358,55.358,0,0,1,16.587-5.648,52.384,52.384,0,0,1,8.84-.728c1.566,0,4.961-.338,6.1.94,1.119,1.253-1.01,3.782-1.91,4.767a60.559,60.559,0,0,1-5.875,5.544,79.218,79.218,0,0,1-13.156,8.742c-9.6,5.194-19.944,8.794-30.314,12.1q-18.336,5.853-36.881,11.026-37.617,10.548-75.9,18.481-19.062,3.948-38.251,7.239c-12.846,2.2-25.752,4.243-38.788,4.842a143.461,143.461,0,0,1-19.415-.34c-3.14-.282-6.269-.688-9.369-1.268a13.223,13.223,0,0,1-2.875-.745,2.485,2.485,0,0,1-1.383-1.311c-.307-1.537,1.829-3.62,3.109-4.612a40.164,40.164,0,0,1,7.473-4.168,69.073,69.073,0,0,1,16.583-5.324,66.783,66.783,0,0,1,8.492-1.036,3.069,3.069,0,0,0,3-3,3.027,3.027,0,0,0-3-3Z" fill="#f04e98"></path>
    <path id="Path_125866" data-name="Path 125866" d="M5032.472,2347.663a11.6,11.6,0,0,1,1.358-12.8l3.065,2.617a7.591,7.591,0,0,0-.876,8.266Z" fill="#fff"></path>
    <rect id="Rectangle_3220" data-name="Rectangle 3220" width="6.911" height="4.03" transform="translate(5045.233 2335.53) rotate(-14.023)" fill="#fff"></rect>
    <rect id="Rectangle_3221" data-name="Rectangle 3221" width="6.044" height="4.031" transform="translate(5047.771 2352.313) rotate(-28.949)" fill="#fff"></rect>
    <path id="Path_125867" data-name="Path 125867" d="M5064.267,2325.844l-2.36-3.268a8.766,8.766,0,0,1,8.942-.732l-1.8,3.607A4.824,4.824,0,0,0,5064.267,2325.844Z" fill="#fff"></path>
    <rect id="Rectangle_3222" data-name="Rectangle 3222" width="4.031" height="4.743" transform="translate(5067.589 2344.788) rotate(-71.748)" fill="#fff"></rect>
    <rect id="Rectangle_3223" data-name="Rectangle 3223" width="2.999" height="4.031" transform="translate(5069.738 2363.301)" fill="#fff"></rect>
    <rect id="Rectangle_3224" data-name="Rectangle 3224" width="1.061" height="4.03" transform="translate(5066.063 2375.89) rotate(-45)" fill="#fff"></rect>
    <path id="Path_125868" data-name="Path 125868" d="M5048.742,2370.566" fill="none" stroke="#fff" stroke-miterlimit="10" stroke-width="4.03"></path>
    <rect id="Rectangle_3225" data-name="Rectangle 3225" width="3.749" height="4.03" transform="translate(5063.581 2572.531) rotate(-53.136)" fill="#fff"></rect>
    <path id="Path_125869" data-name="Path 125869" d="M5076.021,2559.266l-3.333-2.268c1.351-1.983,3.032-4.451,5.678-5.809,2.889-1.48,7.179-1.143,9.074,1.982l-3.445,2.09c-.643-1.059-2.531-1.129-3.79-.485C5078.473,2555.664,5077.17,2557.578,5076.021,2559.266Z" fill="#fff"></path>
    <path id="Path_125870" data-name="Path 125870" d="M5084.283,2572.5l-2.1-3.443a26.328,26.328,0,0,1,8.118-3.247l.855,3.939A22.257,22.257,0,0,0,5084.283,2572.5Z" fill="#fff"></path>
    <rect id="Rectangle_3226" data-name="Rectangle 3226" width="7.498" height="4.031" transform="translate(5083.548 2590.189) rotate(-36.887)" fill="#fff"></rect>
    <rect id="Rectangle_3227" data-name="Rectangle 3227" width="4.499" height="4.031" transform="translate(5065.988 2587.505)" fill="#fff"></rect>
    <path id="Path_125871" data-name="Path 125871" d="M5097.913,2541.178l-2.131-3.422a77.142,77.142,0,0,1,30.69-10.944l.515,4A73.089,73.089,0,0,0,5097.913,2541.178Z" fill="#fff"></path>
    <path id="Path_125872" data-name="Path 125872" d="M5108.363,2552.176l-2.283-3.321a80.782,80.782,0,0,1,20-10l1.285,3.821A76.733,76.733,0,0,0,5108.363,2552.176Z" fill="#fff"></path>
    <rect id="Rectangle_3228" data-name="Rectangle 3228" width="9.395" height="4.031" transform="matrix(0.881, -0.473, 0.473, 0.881, 5113.059, 2563.812)" fill="#fff"></rect>
    <path id="Path_125873" data-name="Path 125873" d="M5124.078,2560.46a110.538,110.538,0,0,0-14.5-22.253l3.088-2.59a114.484,114.484,0,0,1,15.03,23.066Z" fill="#fff"></path>
    <rect id="Rectangle_3229" data-name="Rectangle 3229" width="4.031" height="18.443" transform="matrix(0.898, -0.439, 0.439, 0.898, 5127.852, 2534.949)" fill="#fff"></rect>
    <rect id="Rectangle_3230" data-name="Rectangle 3230" width="4.031" height="7.074" transform="translate(5147.435 2536.433) rotate(-57.894)" fill="#fff"></rect>
    <rect id="Rectangle_3231" data-name="Rectangle 3231" width="5.302" height="4.031" transform="translate(5067.206 2616.088) rotate(-8.358)" fill="#fff"></rect>
    <rect id="Rectangle_3232" data-name="Rectangle 3232" width="9.777" height="4.029" transform="translate(5093.573 2652.09) rotate(-4.754)" fill="#fff"></rect>
    <path id="Path_125874" data-name="Path 125874" d="M5103.627,2671.1c-.361,0-.723-.017-1.084-.05l.369-4.014a8.237,8.237,0,0,0,6.578-2.46l2.912,2.785A12.215,12.215,0,0,1,5103.627,2671.1Z" fill="#fff"></path>
    <path id="Path_125875" data-name="Path 125875" d="M5116.228,2674.253" fill="none" stroke="#fff" stroke-miterlimit="10" stroke-width="4.03"></path>
    <path id="Path_125876" data-name="Path 125876" d="M5053.99,2309.25a690.469,690.469,0,0,0-37.073-61.829,390.259,390.259,0,0,1,76.582-30.731,3.582,3.582,0,0,1,3.919,5.5c-6.627,9.314-15.941,16.737-25.49,23.208-12.076,8.185-27.817,17.917-38.369,27.992" fill="#f04e98" style="isolation: isolate"></path>
    <path id="Path_125877" data-name="Path 125877" d="M5220.24,2468.432a1542.042,1542.042,0,0,1-172.683-41.307l1.162-3.859a1538.234,1538.234,0,0,0,172.23,41.2Z" fill="#fff"></path>
    <rect id="Rectangle_3233" data-name="Rectangle 3233" width="4.031" height="8.566" transform="translate(5219.851 2451.715) rotate(-66.802)" fill="#fff"></rect>
    <rect id="Rectangle_3234" data-name="Rectangle 3234" width="4.03" height="78.157" transform="matrix(0.236, -0.972, 0.972, 0.236, 5144.78, 2480.058)" fill="#fff"></rect>
    <path id="Path_125878" data-name="Path 125878" d="M5252.138,2504.413" fill="none" stroke="#fff" stroke-miterlimit="10" stroke-width="4.03"></path>
    <path id="Path_125879" data-name="Path 125879" d="M5264.136,2507.971l-1.5-3.741a13.01,13.01,0,0,0,3.9-2.436l2.7,2.988A16.992,16.992,0,0,1,5264.136,2507.971Z" fill="#fff"></path>
    <rect id="Rectangle_3235" data-name="Rectangle 3235" width="4.031" height="10.185" transform="translate(5238.968 2477.183) rotate(-83.332)" fill="#fff"></rect>
    <rect id="Rectangle_3236" data-name="Rectangle 3236" width="20.739" height="4.031" transform="translate(5023.02 2257.647) rotate(-77.007)" fill="#fff"></rect>
    <path id="Path_125880" data-name="Path 125880" d="M5039.853,2269.627l-3.989-.584a295.566,295.566,0,0,1,7.974-37.362l3.879,1.095A291.186,291.186,0,0,0,5039.853,2269.627Z" fill="#fff"></path>
    <rect id="Rectangle_3237" data-name="Rectangle 3237" width="7.311" height="4.03" transform="translate(5052.389 2243.266) rotate(-66.889)" fill="#fff"></rect>
    <rect id="Rectangle_3238" data-name="Rectangle 3238" width="4.03" height="19.392" transform="translate(4917.96 2308.126) rotate(-16.844)" fill="#f04e98"></rect>
    <path id="Path_125881" data-name="Path 125881" d="M4917.218,2322.868l-2.465-3.187a47.252,47.252,0,0,1,19.717-8.946l.775,3.955A43.222,43.222,0,0,0,4917.218,2322.868Z" fill="#f04e98"></path>
    <rect id="Rectangle_3239" data-name="Rectangle 3239" width="4.03" height="17.322" transform="matrix(0.97, -0.242, 0.242, 0.97, 5050.286, 2481.905)" fill="#f04e98"></rect>
    <rect id="Rectangle_3240" data-name="Rectangle 3240" width="18.387" height="4.031" transform="translate(5045.48 2490.66) rotate(-22.987)" fill="#f04e98"></rect>
    <path id="Path_125882" data-name="Path 125882" d="M5296.241,2614.731a66.181,66.181,0,0,1,.579-12.182l3.991.562a62.159,62.159,0,0,0-.544,11.439Z" fill="#f04e98"></path>
    <path id="Path_125883" data-name="Path 125883" d="M5296.113,2610.422l-1.3-3.815a14.094,14.094,0,0,1,8.545-.154l-1.164,3.86A10,10,0,0,0,5296.113,2610.422Z" fill="#f04e98"></path>
    <path id="Path_125884" data-name="Path 125884" d="M5066.567,2750.582a149.621,149.621,0,0,1-4.177-31.27l4.029-.11a145.611,145.611,0,0,0,4.064,30.427Z" fill="#f04e98"></path>
    <path id="Path_125885" data-name="Path 125885" d="M5059.6,2745.183l-1.487-3.746c8.211-3.255,16.4-6.864,24.325-10.723l1.763,3.623C5076.179,2738.241,5067.9,2741.891,5059.6,2745.183Z" fill="#f04e98"></path>
    <path id="Path_125886" data-name="Path 125886" d="M4969.278,2344.392a11.55,11.55,0,0,1,.274,1.366l-.107-.8a11.57,11.57,0,0,1-.011,2.934l.107-.8a11.833,11.833,0,0,1-.774,2.832l.3-.717a11.312,11.312,0,0,1-1.4,2.4l.469-.607c-.063.082-.128.163-.194.242a3.245,3.245,0,0,0-.878,2.122,3.056,3.056,0,0,0,.878,2.121c1.095,1.005,3.188,1.3,4.243,0a14.257,14.257,0,0,0,2.987-5.961,14.434,14.434,0,0,0-.115-6.734,3,3,0,0,0-5.786,1.595Z" fill="#f04e98"></path>
    <path id="Path_125887" data-name="Path 125887" d="M4921.968,2376.471a43.428,43.428,0,0,0,15.093-.023,3.013,3.013,0,0,0,2.095-3.69,3.082,3.082,0,0,0-3.69-2.1q-.385.069-.772.131c-.088.014-1.02.142-.634.095s-.42.046-.508.055q-.388.042-.779.076-1.625.14-3.257.143-1.566,0-3.128-.121c-.521-.042-1.039-.1-1.558-.156q-.528-.067.022,0-.195-.027-.388-.057c-.3-.046-.6-.1-.9-.148a3.072,3.072,0,0,0-3.69,2.1c-.332,1.456.442,3.4,2.095,3.69Z" fill="#f04e98"></path>
    <path id="Path_125888" data-name="Path 125888" d="M5146.951,2415.076l1.5-.753a2.885,2.885,0,0,0,1.432-2.989,2.231,2.231,0,0,0-.356-1.115l-.469-.607a3,3,0,0,0-1.324-.772l-.8-.107a2.983,2.983,0,0,0-1.514.41l-1.5.752a2.891,2.891,0,0,0-1.432,2.989,2.229,2.229,0,0,0,.356,1.116l.469.607a2.987,2.987,0,0,0,1.324.771l.8.108a3,3,0,0,0,1.515-.41Z" fill="#f04e98"></path>
    <path id="Path_125889" data-name="Path 125889" d="M5297.614,2528.719l.091-.071-.607.469a7.5,7.5,0,0,1,1.591-.918l-.716.3a8,8,0,0,1,1.886-.511l-.8.108a8.009,8.009,0,0,1,2.068,0l-.8-.107a7.5,7.5,0,0,1,1.772.484l-.716-.3.106.045a3.285,3.285,0,0,0,2.311.3,3.063,3.063,0,0,0,1.793-1.379,3.029,3.029,0,0,0,.3-2.312,2.89,2.89,0,0,0-1.379-1.792,10.889,10.889,0,0,0-2.994-.886,9.347,9.347,0,0,0-2.467-.054,10.449,10.449,0,0,0-2.684.618,11.881,11.881,0,0,0-1.592.738,12.855,12.855,0,0,0-1.415,1.023,2.994,2.994,0,0,0-.878,2.121,3,3,0,0,0,3,3l.8-.107a3,3,0,0,0,1.324-.772Z" fill="#f04e98"></path>
    <path id="Path_125890" data-name="Path 125890" d="M5309.372,2546.855l2.98-4.512a2.236,2.236,0,0,0,.356-1.115,2.28,2.28,0,0,0-.054-1.2,3,3,0,0,0-3.69-2.095,3.283,3.283,0,0,0-1.793,1.379l-2.98,4.512a2.236,2.236,0,0,0-.356,1.115,2.276,2.276,0,0,0,.054,1.2,3,3,0,0,0,3.69,2.1,3.291,3.291,0,0,0,1.793-1.379Z" fill="#f04e98"></path>
    <path id="Path_125891" data-name="Path 125891" d="M5012.668,2538.536a81.278,81.278,0,0,0,2.469,15.781,3,3,0,1,0,5.785-1.595c-.626-2.4-1.143-4.836-1.534-7.291-.09-.566-.176-1.133-.252-1.7.083.619-.042-.363-.056-.483-.039-.332-.077-.664-.112-1-.13-1.235-.228-2.474-.3-3.714a3,3,0,0,0-6,0Z" fill="#f04e98"></path>
    <path id="Path_125892" data-name="Path 125892" d="M5011.29,2553.4a64.2,64.2,0,0,1,20.21-4.275,3.062,3.062,0,0,0,3-3,3.031,3.031,0,0,0-3-3,69.343,69.343,0,0,0-21.805,4.49,3.088,3.088,0,0,0-2.095,3.69,3.021,3.021,0,0,0,3.69,2.095Z" fill="#f04e98"></path>
    <path id="Path_125893" data-name="Path 125893" d="M4822.386,2447.851l4.447,12.017a3.066,3.066,0,0,0,3.69,2.095,3.035,3.035,0,0,0,2.1-3.69l-4.446-12.017a3.066,3.066,0,0,0-3.691-2.1,3.035,3.035,0,0,0-2.095,3.69Z" fill="#f04e98"></path>
    <path id="Path_125894" data-name="Path 125894" d="M4822.311,2457.153a53.431,53.431,0,0,1,17.268-6.478,3.017,3.017,0,0,0,2.1-3.69,3.077,3.077,0,0,0-3.691-2.1,59.993,59.993,0,0,0-18.7,7.083,3,3,0,0,0,3.028,5.181Z" fill="#f04e98"></path>
    <path id="Path_125895" data-name="Path 125895" d="M5086.984,2294.082h5.249a3.1,3.1,0,0,0,2.122-.879,3,3,0,0,0,0-4.242,3.119,3.119,0,0,0-2.122-.879h-5.249a3.1,3.1,0,0,0-2.121.879,3,3,0,0,0,0,4.242,3.117,3.117,0,0,0,2.121.879Z" fill="#f04e98"></path>
    <path id="Path_125896" data-name="Path 125896" d="M5043.493,2459.8h.75a2.266,2.266,0,0,0,1.156-.258,2.708,2.708,0,0,0,1.586-1.586,2.27,2.27,0,0,0,.258-1.156l-.107-.8a3,3,0,0,0-.772-1.323l-.607-.469a2.98,2.98,0,0,0-1.514-.41h-.75a3.325,3.325,0,0,0-2.121.879,2.239,2.239,0,0,0-.62.965,2.264,2.264,0,0,0-.259,1.156l.107.8a3,3,0,0,0,.772,1.324l.607.469a2.987,2.987,0,0,0,1.514.41Z" fill="#f04e98"></path>
    <path id="Path_125897" data-name="Path 125897" d="M5166.768,2726.75l1.909,9.069a3.023,3.023,0,0,0,3.691,2.1,3.072,3.072,0,0,0,2.095-3.691l-1.909-9.069a3.023,3.023,0,0,0-3.691-2.1,3.072,3.072,0,0,0-2.095,3.691Z" fill="#f04e98"></path>
    <path id="Path_125898" data-name="Path 125898" d="M5170.6,2736.531c.054-.074.108-.147.164-.219l-.469.607a7.534,7.534,0,0,1,1.3-1.284l-.608.47a7.948,7.948,0,0,1,1.656-.966l-.717.3a7.7,7.7,0,0,1,1.935-.529l-.8.108a7.761,7.761,0,0,1,.912-.059,3.1,3.1,0,0,0,2.122-.879,3,3,0,0,0,0-4.242,3.1,3.1,0,0,0-2.122-.879,10.733,10.733,0,0,0-4.858,1.229,10.606,10.606,0,0,0-3.694,3.312,3.026,3.026,0,0,0-.3,2.312,3.062,3.062,0,0,0,1.379,1.793,3.025,3.025,0,0,0,2.312.3l.716-.3a3.019,3.019,0,0,0,1.077-1.077Z" fill="#f04e98"></path>
    <path id="Path_125899" data-name="Path 125899" d="M5123.774,2725.886l9-2.249a3,3,0,0,0-1.595-5.786l-9,2.25a3.029,3.029,0,0,0-2.1,3.69,3.06,3.06,0,0,0,3.69,2.095Z" fill="#f04e98"></path>
    <path id="Path_125900" data-name="Path 125900" d="M5216.027,2695.263l4.492-.789a3.358,3.358,0,0,0,1.793-1.379,2.236,2.236,0,0,0,.356-1.116,2.277,2.277,0,0,0-.054-1.2,3.034,3.034,0,0,0-1.379-1.793l-.716-.3a3.018,3.018,0,0,0-1.6,0l-4.492.79a3.351,3.351,0,0,0-1.793,1.378,2.232,2.232,0,0,0-.356,1.116,2.271,2.271,0,0,0,.053,1.2,3.036,3.036,0,0,0,1.379,1.793l.717.3a3.016,3.016,0,0,0,1.595,0Z" fill="#f04e98"></path>
    <path id="Path_125901" data-name="Path 125901" d="M4890.971,2414.051c.326.618.641,1.242.939,1.874.171.361.333.726.495,1.09a1.918,1.918,0,0,1,.162.388c.511,1.3.984,2.614,1.379,3.957s.726,2.7.988,4.072c.132.686.248,1.375.344,2.067-.072-.524.032.289.044.391.044.4.082.794.117,1.192a3,3,0,0,0,6,0,47.3,47.3,0,0,0-5.287-18.059,3.025,3.025,0,0,0-4.1-1.076,3.065,3.065,0,0,0-1.076,4.1Z" fill="#6ad1e3"></path>
    <path id="Path_125902" data-name="Path 125902" d="M4891.325,2424.964l17.239-9.012a3.022,3.022,0,0,0,1.076-4.1,3.068,3.068,0,0,0-4.1-1.077l-17.239,9.012a3.025,3.025,0,0,0-1.077,4.1,3.068,3.068,0,0,0,4.1,1.076Z" fill="#6ad1e3"></path>
    <path id="Path_125903" data-name="Path 125903" d="M5000.041,2373.2l3.76-2.231a3.118,3.118,0,0,0,1.379-1.793,2.262,2.262,0,0,0,.053-1.2,2.233,2.233,0,0,0-.356-1.116,3.028,3.028,0,0,0-1.793-1.378,3.115,3.115,0,0,0-2.311.3l-3.76,2.232a3.108,3.108,0,0,0-1.379,1.792,2.28,2.28,0,0,0-.054,1.2,2.24,2.24,0,0,0,.356,1.115,3.027,3.027,0,0,0,1.793,1.379,3.114,3.114,0,0,0,2.312-.3Z" fill="#6ad1e3"></path>
    <path id="Path_125904" data-name="Path 125904" d="M5139.688,2369.081l3.669,12.022a3,3,0,0,0,5.786-1.595l-3.669-12.022a3,3,0,1,0-5.786,1.595Z" fill="#6ad1e3"></path>
    <path id="Path_125905" data-name="Path 125905" d="M5087.841,2475.592l1.5,3.749a3.357,3.357,0,0,0,1.379,1.793,2.231,2.231,0,0,0,1.115.356,2.277,2.277,0,0,0,1.2-.054,3.037,3.037,0,0,0,1.793-1.378l.3-.717a3.017,3.017,0,0,0,0-1.595l-1.5-3.749a2.233,2.233,0,0,0-.537-1.02,3.1,3.1,0,0,0-3.153-1.076,3.035,3.035,0,0,0-1.793,1.379l-.3.717a3.027,3.027,0,0,0,0,1.595Z" fill="#6ad1e3"></path>
    <path id="Path_125906" data-name="Path 125906" d="M5094.481,2498.853a20.551,20.551,0,0,0,11.991-3.5,3,3,0,1,0-3.028-5.181,17.968,17.968,0,0,1-1.682,1.025q-.475.253-.963.477c-.1.047-.6.262-.134.064.486-.2-.125.045-.224.082a18.071,18.071,0,0,1-3.9.993l.8-.107a18.471,18.471,0,0,1-2.859.151,3.027,3.027,0,0,0-3,3,3.059,3.059,0,0,0,3,3Z" fill="#6ad1e3"></path>
    <path id="Path_125907" data-name="Path 125907" d="M5098.2,2486.115l3.267,17.2a3.017,3.017,0,0,0,3.691,2.095,3.078,3.078,0,0,0,2.095-3.69l-3.267-17.2a3.018,3.018,0,0,0-3.691-2.095,3.078,3.078,0,0,0-2.095,3.69Z" fill="#6ad1e3"></path>
    <path id="Path_125908" data-name="Path 125908" d="M4993.253,2695.562a10.761,10.761,0,0,0,7.16.8,10.031,10.031,0,0,0,5.557-3.422,3.283,3.283,0,0,0,.878-2.121,3,3,0,0,0-3-3,2.887,2.887,0,0,0-2.121.879,7.279,7.279,0,0,1-1.237,1.245l.607-.47a7.928,7.928,0,0,1-1.735,1l.716-.3a8.382,8.382,0,0,1-1.942.526l.8-.108a8.074,8.074,0,0,1-2.007.013l.8.108a7.441,7.441,0,0,1-1.814-.483l.716.3c-.116-.05-.23-.1-.344-.157a3.221,3.221,0,0,0-2.312-.3,3,3,0,0,0-.716,5.483Z" fill="#6ad1e3"></path>
    <path id="Path_125909" data-name="Path 125909" d="M4997.088,2685.45a15.217,15.217,0,0,0-.017,4.506,13.968,13.968,0,0,0,1.1,3.6,13.74,13.74,0,0,0,4.85,5.733,3.014,3.014,0,0,0,4.1-1.076,3.075,3.075,0,0,0-1.076-4.1c-.2-.139-.726-.628-.011.011-.114-.1-.238-.2-.353-.3a10.731,10.731,0,0,1-.769-.751c-.139-.151-.269-.308-.4-.463-.345-.4.414.583.092.121-.206-.295-.409-.589-.592-.9s-.352-.627-.5-.952c-.107-.23-.195-.672.057.152-.06-.2-.149-.384-.215-.577a11.478,11.478,0,0,1-.5-2.092l.107.8a10.885,10.885,0,0,1,0-2.758l-.107.8.021-.153a3.3,3.3,0,0,0-.3-2.311,3,3,0,0,0-4.1-1.077,2.885,2.885,0,0,0-1.378,1.793Z" fill="#6ad1e3"></path>
    <path id="Path_125910" data-name="Path 125910" d="M5248.239,2534.484a50.5,50.5,0,0,0,17.341-.94,3.024,3.024,0,0,0,2.1-3.69,3.068,3.068,0,0,0-3.691-2.1c-1.327.3-2.666.557-4.014.744.515-.072-.351.04-.449.051q-.547.062-1.094.111-1.017.092-2.037.14a48.283,48.283,0,0,1-8.152-.32,3.005,3.005,0,0,0-3,3,3.091,3.091,0,0,0,3,3Z" fill="#6ad1e3"></path>
    <path id="Path_125911" data-name="Path 125911" d="M5249.959,2518.081l-.092.066,1.514-.41-.083.011,1.514.41a2.515,2.515,0,0,1,.977,3.349l-1.076,1.076-.507.22h-1.6a2.494,2.494,0,0,1-1.058-.817c-.14-.358-.177-.431-.11-.221a6.159,6.159,0,0,0,.29,1.073l.521,1.946,1.172,4.379,2.3,8.6a3,3,0,1,0,5.786-1.595l-3.82-14.273a8.368,8.368,0,0,0-1.534-3.719,3.573,3.573,0,0,0-4.473-.769,3.5,3.5,0,0,0-1.305,4.3,3.168,3.168,0,0,0,4.607,1.559,3,3,0,0,0-3.028-5.181Z" fill="#6ad1e3"></path>
    <path id="Path_125912" data-name="Path 125912" d="M4681.377,2410.4l-3.787-1.379c3.636-9.987,7.758-21.308,7.064-32.5-.208-3.374-1.208-9.4-5.573-11.834-2.969-1.658-6.528-1.067-9.027-.256q-.957,3.628-2.167,7.184c-1.2,3.518-2.7,7.125-5.574,9.681-2.981,2.652-8.178,4.007-11.94,1.295l-1.186-.855.444-1.392a31.47,31.47,0,0,1,16.452-18.677c.192-.09.385-.177.577-.26a103.982,103.982,0,0,0,2.047-37.922c-.5-3.8-1.274-7.714-3.536-10.573-1.941-2.452-5.629-4.12-8.442-2.656l-1.857-3.578c4.84-2.511,10.546.05,13.459,3.734,2.868,3.625,3.8,8.173,4.372,12.547a108,108,0,0,1-1.579,37.019,14.36,14.36,0,0,1,9.922,1.19c6.037,3.369,7.373,10.91,7.632,15.1C4689.422,2388.3,4685.147,2400.045,4681.377,2410.4Zm-27.319-30.472a6.611,6.611,0,0,0,5.576-1.641c2.054-1.826,3.26-4.506,4.438-7.968q.614-1.8,1.16-3.63A27.558,27.558,0,0,0,4654.058,2379.93Z" fill="#f04e98"></path>
    <path id="Path_125913" data-name="Path 125913" d="M4738.4,2392.5l-3.957-.769a722.683,722.683,0,0,1,17.854-71.87l3.855,1.172A718.625,718.625,0,0,0,4738.4,2392.5Z" fill="#f04e98"></path>
    <path id="Path_125914" data-name="Path 125914" d="M4773.465,2410.488l-3.684-1.634a622.48,622.48,0,0,1,39.576-74.953l3.428,2.121A618.233,618.233,0,0,0,4773.465,2410.488Z" fill="#f04e98"></path>
    <path id="Path_125915" data-name="Path 125915" d="M4427.12,2575.332l-4.014-.363c3.338-36.9,7.123-78.72,29.334-112.22l3.36,2.227C4434.15,2497.627,4430.416,2538.909,4427.12,2575.332Z" fill="#f04e98"></path>
    <path id="Path_125916" data-name="Path 125916" d="M4387.338,2531.614l-3.951-.8a175.437,175.437,0,0,1,22.007-56.352l3.447,2.09A171.413,171.413,0,0,0,4387.338,2531.614Z" fill="#f04e98"></path>
    <path id="Path_125917" data-name="Path 125917" d="M4934.935,2824.263l-3.719-1.555c8.524-20.385,10.634-44.217,5.941-67.107s-16.011-43.969-31.869-59.355l2.807-2.892c16.432,15.943,28.156,37.762,33.01,61.438S4943.768,2803.139,4934.935,2824.263Z" fill="#f04e98"></path>
    <path id="Path_125918" data-name="Path 125918" d="M4989.176,2814.135l-3.582-1.85c8.177-15.839,10.72-34.887,7.163-53.633s-12.9-35.537-26.316-47.279l2.655-3.033c14.087,12.333,23.9,29.933,27.621,49.56S4997.764,2797.5,4989.176,2814.135Z" fill="#f04e98"></path>
  </g>
</svg>
