<?xml version="1.0" encoding="UTF-8"?>
<svg xmlns="http://www.w3.org/2000/svg" width="465" height="420.297" viewBox="0 0 465 420.297">
  <g id="Group_3556" data-name="Group 3556" transform="translate(-4527.597 1753.449)">
    <path id="Path_126517" data-name="Path 126517" d="M4938.179-1521.748q-24.286,5.241-48.855,9.026c-3,.463-6.324.846-8.865-.821-2.427-1.592-3.435-4.6-4.229-7.39a243.2,243.2,0,0,1-9.15-59.019c-.068-2.221-.074-4.572,1.046-6.491a10.5,10.5,0,0,1,5.1-3.917c5.509-2.425,11.535-3.376,17.482-4.3l40.947-6.39c5.418-.845,11.647-1.47,15.735,2.185,2.692,2.407,3.744,6.115,4.556,9.634a168.935,168.935,0,0,1,3.971,27.071,10.309,10.309,0,0,1-.4,4.531,12.878,12.878,0,0,1-3.278,4.02c-9.652,9.535-11.854,24.073-13.545,37.534" transform="translate(-175.214 -78.326)" fill="#6ad1e3" style="isolation: isolate"></path>
    <g id="Group_3556-2" data-name="Group 3556" transform="translate(4586.606 -1587.378)" style="isolation: isolate">
      <path id="Path_126518" data-name="Path 126518" d="M4823.047-1404.1l-127.5,30.41c-13.165,3.14-26.476,6.333-38.519,12.51-2.134,1.094-4.5,2.737-4.477,5.135.02,1.794,1.414,3.242,2.759,4.428,6,5.288,12.918,9.484,18.687,15.021s10.459,12.948,10.162,20.938c-.411,11.036-10.012,19.992-10.943,31-.73,8.625,4.382,17.172,11.8,21.635s16.735,5.128,25.111,2.945c6.686-1.742,12.816-5.154,19.391-7.277s14.145-2.82,20.09.7c8.933,5.289,10.556,17.355,16.291,26.009,9,13.581,30.118,17.024,42.966,7,6.926-5.4,11.131-13.587,17.572-19.557s17.365-9.142,23.65-3.008c2.728,2.661,5.671,7.135,9.075,5.421,1.82-.917,2.37-3.214,2.66-5.232,6.289-43.784-9.153-104.563,7.565-145.516,0,0-9.094,6.82-16.293,7.957s-17.429-.758-19.324-4.925a70.664,70.664,0,0,1-3.031-7.957Z" transform="translate(-4651.104 1408.277)" fill="#f04e98"></path>
      <path id="Path_126519" data-name="Path 126519" d="M4789.688-1228.35a34.3,34.3,0,0,1-5.527-.45c-8.843-1.442-16.5-6.174-21.017-12.983a65.933,65.933,0,0,1-5.16-10.214c-2.718-6.256-5.286-12.165-10.661-15.348-6.027-3.568-13.606-2.278-18.9-.568-2.812.908-5.616,2.088-8.326,3.229a82.9,82.9,0,0,1-11.146,4.071c-9.343,2.435-18.9,1.3-26.226-3.106-8.22-4.947-13.242-14.191-12.5-23,.478-5.64,3.089-10.716,5.615-15.625,2.636-5.121,5.125-9.959,5.324-15.3.329-8.829-5.947-16.218-9.717-19.837a107.806,107.806,0,0,0-10.135-8.249c-2.842-2.128-5.779-4.328-8.506-6.731-1.592-1.4-3.224-3.156-3.25-5.5-.041-3.721,3.953-5.769,5.266-6.442,12.264-6.291,25.776-9.514,38.845-12.631l127.45-30.4,9.047-2.778.42,1.4a70.079,70.079,0,0,0,2.963,7.774c1.421,3.128,10.558,5.233,17.775,4.092,6.753-1.066,15.561-7.619,15.649-7.684l4.2-3.144-1.982,4.853c-9.888,24.223-8.371,55.812-6.9,86.36,1.016,21.14,1.975,41.107-.568,58.814-.332,2.3-1.021,5.1-3.444,6.321-3.732,1.881-6.768-1.418-9.208-4.068-.534-.58-1.04-1.129-1.533-1.61-5.528-5.4-15.543-2.627-21.649,3.033a73.258,73.258,0,0,0-7.591,8.728c-3,3.843-6.108,7.816-10.076,10.91A30.053,30.053,0,0,1,4789.688-1228.35Zm-51.422-44.169a20.428,20.428,0,0,1,10.536,2.676c6.185,3.662,9.063,10.285,11.845,16.689a63.833,63.833,0,0,0,4.917,9.767c4.068,6.138,11.016,10.41,19.064,11.722s15.994-.532,21.8-5.06c3.685-2.874,6.545-6.534,9.573-10.408a75.412,75.412,0,0,1,7.905-9.069,25.8,25.8,0,0,1,12.615-6.407c5.19-.927,9.821.288,13.036,3.425.547.535,1.1,1.138,1.64,1.721,2.412,2.62,4.116,4.274,5.768,3.442,1.224-.617,1.646-2.537,1.875-4.142,2.5-17.432,1.552-37.265.543-58.262-1.4-29.108-2.841-59.153,5.5-83.3-3.417,2.136-8.56,4.921-13.105,5.638-7.111,1.123-18.491-.525-20.872-5.759-1.234-2.717-2.147-5.251-2.652-6.75l-6.416,1.967-127.5,30.41c-12.9,3.077-26.241,6.259-38.194,12.39-2.461,1.262-3.7,2.549-3.687,3.827.013,1.206,1.154,2.373,2.268,3.355,2.639,2.327,5.529,4.492,8.326,6.585a110.02,110.02,0,0,1,10.405,8.478c7.115,6.831,10.882,14.658,10.607,22.039-.223,5.989-2.979,11.344-5.644,16.522-2.507,4.872-4.875,9.474-5.3,14.542-.655,7.734,3.807,15.88,11.1,20.27,6.659,4.008,15.406,5.022,24,2.784a80.7,80.7,0,0,0,10.751-3.938c2.769-1.165,5.63-2.37,8.562-3.316A35.58,35.58,0,0,1,4738.266-1272.52Z" transform="translate(-4649.555 1410.215)" fill="#f04e98"></path>
    </g>
    <path id="Path_126520" data-name="Path 126520" d="M5066.86-1417.313l-1.514-1.887A915.518,915.518,0,0,0,5181.209-1530.2c3.26-3.725,6.292-9.331,5.719-13.458a5.6,5.6,0,0,0-.56-1.818,5.629,5.629,0,0,1-4.568,2.76l-.759.023-.351-.674a4.257,4.257,0,0,1,.531-4.517,4.3,4.3,0,0,1,3.925-1.828,4.405,4.405,0,0,0-.781-2.531c-2.065-2.841-6.306-3.141-9.429-1.968a17,17,0,0,0-4.632,2.768,7.226,7.226,0,0,1-.44,1.608c-.94,2.316-2.942,3.414-5.106,2.8l-1.96-.559,1.43-1.452c1.168-1.186,2.4-2.438,3.749-3.6a3.739,3.739,0,0,0-1.662-3.375c-3.539-1.9-8.17.4-11.345,2.3-16.562,9.895-31.427,23-45.8,35.67-17.979,15.847-36.57,32.233-58.644,42.489-11.18,5.195-25.621,6.282-30.91-3.6-2.016-3.768-2.019-8.095-1.835-12.57.427-10.4,1.342-22.339,6.849-32.306,4.995-9.041,15.9-17.795,28.032-15.65,8.6,1.521,16.183,8.482,19.783,18.168,3.365,9.056,3.024,18.768,2.246,27.073l-2.409-.226c.753-8.033,1.09-17.4-2.105-26-3.252-8.751-10.292-15.278-17.937-16.629-7.685-1.36-18.943,2.58-25.493,14.437-5.251,9.506-6.135,21.108-6.549,31.236-.169,4.126-.178,8.1,1.55,11.329,3.188,5.959,13.236,9.3,27.758,2.55,21.756-10.108,40.214-26.377,58.063-42.11,14.459-12.744,29.41-25.922,46.163-35.931,3.683-2.2,9.111-4.837,13.733-2.352a5.606,5.606,0,0,1,2.736,3.766,17.7,17.7,0,0,1,3.888-2.083c3.979-1.494,9.459-1.009,12.236,2.811a7.177,7.177,0,0,1,1.1,5.5,7.573,7.573,0,0,1,1.906,4.176c.725,5.218-2.938,11.548-6.294,15.384A917.93,917.93,0,0,1,5066.86-1417.313Zm117.765-130a2.106,2.106,0,0,0-1.466.884,2.414,2.414,0,0,0-.459,1.1,3.889,3.889,0,0,0,1.884-1.9C5184.6-1547.257,5184.611-1547.286,5184.625-1547.314Z" transform="translate(-252.973 -100.284)" fill="#703dc1"></path>
    <g id="Group_3557" data-name="Group 3557" transform="translate(4684.125 -1541.729)">
      <path id="Path_126521" data-name="Path 126521" d="M4910.034-1313.162a300.185,300.185,0,0,0-36.385,13.94q5.654,4.3,11.707,8.046a135.669,135.669,0,0,0-25.045,19.444,208.332,208.332,0,0,0,38.981-11.636c4.075-1.665,8.169-3.479,12.541-4a23.113,23.113,0,0,0-12.752-9.633c-.61-.182-1.31-.407-1.554-1-.272-.658.179-1.375.615-1.938a83.691,83.691,0,0,1,13.258-13.611" transform="translate(-4855.858 1314.667)" fill="#6ad1e3"></path>
      <path id="Path_126522" data-name="Path 126522" d="M4851.108-1270.587l3.435-3.38a137.133,137.133,0,0,1,23.316-18.423c-3.366-2.157-6.667-4.464-9.838-6.877l-1.9-1.442,2.15-1.024a303.684,303.684,0,0,1,36.593-14.02l.144.479q.357-.3.719-.594l1.836,2.249a82.252,82.252,0,0,0-13.027,13.375,3.552,3.552,0,0,0-.323.478c.169.071.408.142.531.179a24.679,24.679,0,0,1,13.56,10.244l1.242,1.95-2.3.271c-3.776.446-7.472,1.968-11.047,3.439l-1.115.458a210.152,210.152,0,0,1-39.254,11.717Zm20.6-29.543c3.128,2.3,6.367,4.485,9.656,6.52l2.02,1.25-2.034,1.227a134.3,134.3,0,0,0-21.089,15.742,207.309,207.309,0,0,0,33.728-10.521l1.107-.455a55.85,55.85,0,0,1,9.449-3.242,21.778,21.778,0,0,0-10.635-7.2,3.516,3.516,0,0,1-2.48-1.833,3.482,3.482,0,0,1,.808-3.381,85.249,85.249,0,0,1,8.417-9.357C4891.333-1308.294,4879.87-1303.85,4871.713-1300.13Z" transform="translate(-4851.108 1315.867)" fill="#6ad1e3"></path>
    </g>
    <path id="Path_126523" data-name="Path 126523" d="M5062.2-1114.724c-13.365,0-25.9-7.771-35.085-13.46-3.011-1.865-6.422-3.98-8.678-7.229-3.009-4.333-2.46-9.041-.676-11.581l1.98,1.39c-1.878,2.674-.962,6.441.684,8.811,1.97,2.837,5.154,4.811,7.965,6.553,11.56,7.164,22.1,13.1,33.781,13.1l.4,0c3.2-.037,5.361-.745,6.6-2.162,1.186-1.356,1.628-3.532,1.313-6.466a26.806,26.806,0,0,0-3.1-9.9l-.16-.29a7.382,7.382,0,0,1-1.314-4.5c.241-1.893,1.648-3.223,2.674-4.195,7.036-6.658,15.034-14.542,20.892-23.88,4.323-6.891,9.293-17.631,8.411-29.662-.48-6.558-2.781-12.221-6.478-15.946-8.67-8.736-23.519-6.677-34.523-1.839l-.974-2.215c11.74-5.162,27.681-7.255,37.214,2.349,4.1,4.134,6.651,10.339,7.174,17.473.929,12.684-4.259,23.926-8.775,31.124-6.008,9.577-14.133,17.592-21.277,24.351a5.3,5.3,0,0,0-1.937,2.744,5.492,5.492,0,0,0,1.033,3.024l.165.3a29.256,29.256,0,0,1,3.383,10.8c.391,3.633-.248,6.432-1.9,8.317-1.72,1.966-4.466,2.943-8.395,2.989Z" transform="translate(-252.25 -274.023)" fill="#703dc1"></path>
    <path id="Path_126524" data-name="Path 126524" d="M4719.716-1008.111a11.342,11.342,0,0,1-5.508-1.359c-6.351-3.516-7.353-11.6-7.494-19.049l-.546-28.71c-.073-3.811-.155-8.131,1.712-11.949,1.659-3.393,4.588-5.829,7.445-8.032,5.883-4.537,12.192-8.792,18.292-12.907,14.25-9.612,28.986-19.551,38.936-33.6l1.974,1.4c-10.2,14.411-25.126,24.475-39.557,34.209-6.069,4.093-12.345,8.326-18.168,12.817-2.63,2.029-5.318,4.255-6.748,7.18-1.611,3.293-1.535,7.3-1.467,10.841l.546,28.71c.128,6.756.971,14.057,6.247,16.978,3.477,1.925,8.388,1.2,11.941-1.773,3-2.508,5.2-6.531,6.353-11.634q.086-.38.167-.764a13.821,13.821,0,0,1,1.8-5.021c1.8-2.661,5.012-3.79,7.592-4.7,36.709-12.9,62.229-28.322,78.018-47.146l1.853,1.555c-16.074,19.166-41.937,34.826-79.068,47.874-2.361.83-5.038,1.77-6.391,3.77a11.84,11.84,0,0,0-1.437,4.177c-.057.263-.114.525-.173.786-1.29,5.706-3.7,10.065-7.162,12.957A14.468,14.468,0,0,1,4719.716-1008.111Z" transform="translate(-92.156 -325.041)" fill="#703dc1"></path>
    <path id="Path_126525" data-name="Path 126525" d="M4908.182-1419.089l-2.333-.635a69.716,69.716,0,0,1,17.586-30.572,16.894,16.894,0,0,1,6-4.326,7.461,7.461,0,0,1,7.752,1.263,5.092,5.092,0,0,1,1,1.392,15.908,15.908,0,0,1,3.577-1.122,5.761,5.761,0,0,1,2.5-.161,3.864,3.864,0,0,1,2.82,2.691,7.456,7.456,0,0,1,3.4-.464,9.545,9.545,0,0,1,7.858,7.23,13.843,13.843,0,0,1-1.864,10.408l-2.074-1.247a11.42,11.42,0,0,0,1.595-8.558,7.188,7.188,0,0,0-5.77-5.428,5.192,5.192,0,0,0-2.993.641,9.409,9.409,0,0,1-2.927,4.533l-2.188,2.161.13-3.073a6.7,6.7,0,0,1,2.434-4.781c.069-.06.14-.119.211-.175a1.753,1.753,0,0,0-1.13-1.572,3.819,3.819,0,0,0-1.466.153,11.474,11.474,0,0,0-3.521,1.2,5.892,5.892,0,0,1-.028.649,4.546,4.546,0,0,1-2.007,3.431l-1.417.9-.408-1.631a4.772,4.772,0,0,1,1.268-4.319,2.839,2.839,0,0,0-.687-1.128c-1.364-1.325-3.612-1.321-5.234-.727a14.811,14.811,0,0,0-5.111,3.753A67.3,67.3,0,0,0,4908.182-1419.089Z" transform="translate(-195.238 -153.964)" fill="#703dc1"></path>
    <path id="Path_126526" data-name="Path 126526" d="M5048.175-1483.266c-1.826,0-3.693-.107-5.556-.259l.2-2.411c7.095.581,14.205.495,18.16-4.02,2.638-3.012,3.253-7.373,3.847-11.59l.02-.139a7.2,7.2,0,0,1,1.784-4.439,7.333,7.333,0,0,1,3.006-1.529l.338-.109a21.3,21.3,0,0,0,12.6-11.334,7.988,7.988,0,0,0,.86-3.234,3.5,3.5,0,0,0-.131-.953,5.7,5.7,0,0,1-4.434,2.292l-.393,0-.319-.229a3.316,3.316,0,0,1-1.106-3.829,4.122,4.122,0,0,1,3.709-3,4.508,4.508,0,0,1,1.787.367c.158-2.328-.93-4.673-2.13-6.86l2.121-1.164c1.382,2.518,2.631,5.255,2.421,8.214a7.378,7.378,0,0,1-.287,1.561,6.18,6.18,0,0,1,1.181,3.61,10.5,10.5,0,0,1-1.072,4.214,23.751,23.751,0,0,1-14.052,12.643l-.356.114a5.391,5.391,0,0,0-2.067.971,5.238,5.238,0,0,0-1.063,3.031l-.02.139c-.614,4.355-1.31,9.291-4.422,12.846C5059.26-1484.326,5053.92-1483.266,5048.175-1483.266Zm32.631-42.363h-.022a1.764,1.764,0,0,0-1.431,1.307,1.314,1.314,0,0,0-.012.862,3.852,3.852,0,0,0,2.449-1.9A1.982,1.982,0,0,0,5080.807-1525.629Z" transform="translate(-265.833 -112.39)" fill="#703dc1"></path>
    <path id="Path_126527" data-name="Path 126527" d="M4726.616-1255.81l-.525-1.863a190.808,190.808,0,0,0,34.974-13.722l.881,1.724A192.8,192.8,0,0,1,4726.616-1255.81Z" transform="translate(-102.454 -248.816)" fill="#fff"></path>
    <path id="Path_126528" data-name="Path 126528" d="M4737.021-1225.249l-1.354-1.382c3.273-3.21,7.708-4.471,12-5.691,3.551-1.01,7.223-2.054,10.085-4.2l1.162,1.547c-3.149,2.366-7,3.46-10.718,4.519C4743.952-1229.254,4739.944-1228.115,4737.021-1225.249Z" transform="translate(-107.397 -266.815)" fill="#fff"></path>
    <path id="Path_126529" data-name="Path 126529" d="M4772.231-1236.09l-1.934-.093a75.067,75.067,0,0,0-4.513-29.346l1.815-.67A77.024,77.024,0,0,1,4772.231-1236.09Z" transform="translate(-122.942 -251.498)" fill="#fff"></path>
    <path id="Path_126530" data-name="Path 126530" d="M4786.373-1253.377a47.268,47.268,0,0,0-5.321-21.587l1.716-.894a49.206,49.206,0,0,1,5.541,22.475Z" transform="translate(-130.823 -246.513)" fill="#fff"></path>
    <rect id="Rectangle_3661" data-name="Rectangle 3661" width="78.935" height="1.935" transform="translate(4723.283 -1419.941) rotate(-65.6)" fill="#fff"></rect>
    <rect id="Rectangle_3662" data-name="Rectangle 3662" width="38.879" height="1.935" transform="translate(4741.691 -1424.224) rotate(-67.279)" fill="#fff"></rect>
    <path id="Path_126531" data-name="Path 126531" d="M4975.036-1133.032a32.543,32.543,0,0,0-13.771-14.193,23.1,23.1,0,0,0-9.941-2.91l.071-1.934a25,25,0,0,1,10.779,3.136,34.485,34.485,0,0,1,14.6,15.044Z" transform="translate(-218.71 -310.408)" fill="#fff"></path>
    <path id="Path_126532" data-name="Path 126532" d="M4990.414-1157.23c-.7-4.454-4.084-8.243-6.807-11.288-3.95-4.418-8.034-8.987-12.988-12.337l1.084-1.6c5.153,3.484,9.318,8.143,13.347,12.65,2.892,3.234,6.491,7.26,7.275,12.279Z" transform="translate(-228.67 -294.723)" fill="#fff"></path>
    <path id="Path_126533" data-name="Path 126533" d="M4957.723-1117.415a38.09,38.09,0,0,0-11.438-9.26l.9-1.713a40.048,40.048,0,0,1,12.024,9.734Z" transform="translate(-216.109 -322.631)" fill="#fff"></path>
    <rect id="Rectangle_3663" data-name="Rectangle 3663" width="2.991" height="1.935" transform="translate(4730.271 -1415.14) rotate(-45)" fill="#fff"></rect>
    <path id="Path_126534" data-name="Path 126534" d="M5015.869-1173.06l-1.932-.122a7.062,7.062,0,0,1,3.053-5.354l1.089,1.6A5.183,5.183,0,0,0,5015.869-1173.06Z" transform="translate(-251.028 -296.746)" fill="#fff"></path>
    <path id="Path_126535" data-name="Path 126535" d="M5041.329-1169.909a.859.859,0,0,0-.777-.179l-.536-1.859a2.775,2.775,0,0,1,2.612.6Z" transform="translate(-264.489 -300.092)" fill="#fff"></path>
    <rect id="Rectangle_3664" data-name="Rectangle 3664" width="5.111" height="1.935" transform="translate(4772.437 -1461.413) rotate(-24.525)" fill="#fff"></rect>
    <path id="Path_126536" data-name="Path 126536" d="M4929.6-1590.187a122.884,122.884,0,0,0,1.25,14.852c.2,1.365.556,2.922,1.784,3.552a4.335,4.335,0,0,0,2.422.232,76.315,76.315,0,0,0,16.4-3.512l-2.191-13.963a26.547,26.547,0,0,0-1.251-5.447" transform="translate(-207.497 -82.057)" fill="#f04e98" style="isolation: isolate"></path>
    <path id="Path_126537" data-name="Path 126537" d="M4795.91-1010.179l-2.406-.253a54.1,54.1,0,0,0-20.656-47.809l1.465-1.926A56.568,56.568,0,0,1,4795.91-1010.179Z" transform="translate(-126.589 -357.844)" fill="#6ad1e3" style="isolation: isolate"></path>
    <path id="Path_126538" data-name="Path 126538" d="M5116.769-1113.249c-2.967-3.907-6.035-7.946-10.074-10.746-3.464-2.4-7.581-3.836-11.561-5.223-2.684-.935-5.459-1.9-8.253-1.8l-.088-2.418c3.229-.119,6.375.971,9.136,1.932,4.134,1.44,8.408,2.929,12.145,5.519,4.354,3.019,7.541,7.214,10.622,11.271Z" transform="translate(-288.634 -320.021)" fill="#6ad1e3" style="isolation: isolate"></path>
    <path id="Path_126539" data-name="Path 126539" d="M5250.945-1457.879c-.037-4.168-1.223-8.7-3.627-13.847a62.417,62.417,0,0,0-21.812-25.455l1.347-2.01a64.844,64.844,0,0,1,22.657,26.441c2.553,5.47,3.813,10.328,3.854,14.849Z" transform="translate(-360.232 -131.238)" fill="#6ad1e3" style="isolation: isolate"></path>
    <path id="Path_126540" data-name="Path 126540" d="M4757.194-1474.976a69.119,69.119,0,0,0-7.366-4.99c-1.327-.819-2.7-1.665-4.028-2.549-3.114-2.074-7.538-5.383-9.993-10.147a16.2,16.2,0,0,1-.767-1.725,16.581,16.581,0,0,1-2.674-1.719c-4.536-3.562-6.975-9-8.415-12.774-3.922-10.291-5.338-21.3-6.708-31.943l2.4-.308c1.351,10.5,2.749,21.366,6.569,31.39,2.125,5.576,4.555,9.3,7.648,11.733.1.081.208.161.313.238a12.617,12.617,0,0,1,2.1-9.242,10.162,10.162,0,0,1,7.315-3.968,8.244,8.244,0,0,1,6.558,2.2,8.244,8.244,0,0,1,2.232,7.014,10.228,10.228,0,0,1-4.794,7.508,12.7,12.7,0,0,1-9.3,1.1c2.259,3.951,6.1,6.807,8.856,8.64,1.292.861,2.647,1.7,3.957,2.5a70.907,70.907,0,0,1,7.623,5.172Zm-20.184-21.187a10.694,10.694,0,0,0,9.357-.194,7.767,7.767,0,0,0,3.607-5.716,5.778,5.778,0,0,0-1.523-4.985,5.856,5.856,0,0,0-4.669-1.514,7.82,7.82,0,0,0-5.562,2.989C4736.205-1502.84,4736.125-1499.215,4737.011-1496.163Z" transform="translate(-97.888 -109.589)" fill="#6ad1e3" style="isolation: isolate"></path>
    <path id="Path_126541" data-name="Path 126541" d="M4707.782-1404.814a218.732,218.732,0,0,1-26.651-18.09l1.5-1.9a216.391,216.391,0,0,0,26.355,17.889Z" transform="translate(-79.248 -169.635)" fill="#6ad1e3" style="isolation: isolate"></path>
    <path id="Path_126542" data-name="Path 126542" d="M4663.848-1370.7a16.221,16.221,0,0,1-8.229-6.169l1.992-1.372a13.792,13.792,0,0,0,7,5.243Z" transform="translate(-66.08 -193.665)" fill="#6ad1e3" style="isolation: isolate"></path>
    <path id="Path_126543" data-name="Path 126543" d="M5220.318-1200.361l-2.411-.2a49.248,49.248,0,0,0-10.3-34.281c-2.463-3.123-4.821-4.566-7-4.3l-.3-2.4c3.073-.38,6.169,1.369,9.191,5.2A51.693,51.693,0,0,1,5220.318-1200.361Z" transform="translate(-347.229 -264.198)" fill="#6ad1e3" style="isolation: isolate"></path>
    <path id="Path_126544" data-name="Path 126544" d="M5271.773-1218.149c-.529-5.846-1.358-12.026-3.817-17.608-2.6-5.9-6.922-10.394-11.853-12.318l.879-2.254c5.522,2.155,10.33,7.111,13.188,13.6,2.6,5.9,3.464,12.313,4.013,18.365Z" transform="translate(-376.025 -259.69)" fill="#6ad1e3" style="isolation: isolate"></path>
    <path id="Path_126545" data-name="Path 126545" d="M5295.949-1353.012l-1.27-2.059,18.665-11.508a7.8,7.8,0,0,0,2.586-2.147c.932-1.492.521-3.6.125-5.646-.059-.3-.116-.595-.169-.887-1.19-6.522.3-13.021,3.98-17.385a15.034,15.034,0,0,1,15.294-4.934,25.717,25.717,0,0,1,3.289-13.675c3.105-5.138,8.524-8.227,13.786-7.869a11.906,11.906,0,0,1,8.047,4.146,10.733,10.733,0,0,1,2,3.454c1.875-2.989,4.235-5.729,7.64-6.862a8.566,8.566,0,0,1,8.4,2.149,6.792,6.792,0,0,1,1.226,1.635,17.031,17.031,0,0,1,8.208-6.092l.779,2.29a14.571,14.571,0,0,0-8.641,8.084l-2.266-.841a3.3,3.3,0,0,0-1.012-3.363,6.146,6.146,0,0,0-5.929-1.568c-3.738,1.244-6.033,5.05-8.064,8.842l-2.807,5.24.536-5.92a7.446,7.446,0,0,0-1.91-5.479,9.441,9.441,0,0,0-6.37-3.3c-4.309-.291-8.95,2.4-11.552,6.707-2.219,3.674-3.191,8.432-2.885,14.143l.109,2.052-1.847-.9c-4.494-2.189-10.59-.631-14.18,3.622-3.222,3.818-4.511,9.571-3.449,15.391.053.283.108.57.164.86.464,2.386.99,5.089-.448,7.389a9.748,9.748,0,0,1-3.367,2.924Z" transform="translate(-395.936 -171.757)" fill="#6ad1e3" style="isolation: isolate"></path>
    <path id="Path_126546" data-name="Path 126546" d="M4527.843-1089.951l-.246-2.406a10.856,10.856,0,0,0,7.082-3.713,2.877,2.877,0,0,0,.6-.954,3.849,3.849,0,0,0-.027-1.435c-.018-.135-.035-.271-.05-.405-.729-6.4,3.357-11.895,7.6-16.971,1.307-1.562,2.759-3.1,4.871-3.33a7.077,7.077,0,0,1,4.273,1.237,24.4,24.4,0,0,1,6.71,5.9l.755-2.754c.618-2.254,2.5-9.114,7.9-9.66a11.193,11.193,0,0,1,4.374.69,7.406,7.406,0,0,0,3.842.5,7.371,7.371,0,0,0,2.847-1.951,12.65,12.65,0,0,1,2.7-2.079l1.119,2.145a10.726,10.726,0,0,0-2.179,1.709,9.255,9.255,0,0,1-3.874,2.516,9.272,9.272,0,0,1-5.154-.521,9.272,9.272,0,0,0-3.436-.6c-2.526.255-4.428,2.837-5.813,7.893l-2.168,7.908-1.462-2.355a21.965,21.965,0,0,0-7.4-7.263,4.923,4.923,0,0,0-2.78-.911c-1.217.13-2.243,1.246-3.273,2.477-3.911,4.673-7.677,9.692-7.056,15.144.013.121.029.243.045.366a5.735,5.735,0,0,1-.05,2.425,5.11,5.11,0,0,1-1.086,1.847A13.294,13.294,0,0,1,4527.843-1089.951Z" transform="translate(0 -323.204)" fill="#6ad1e3" style="isolation: isolate"></path>
    <path id="Path_126547" data-name="Path 126547" d="M5094.567-1659.5l-1.429-1.951,13.422-9.835a5.84,5.84,0,0,0,1.916-1.895,6.14,6.14,0,0,0-.052-3.544c-1.741-8.942-1.347-15.722,1.235-21.348,2.669-5.814,9.092-10.922,15.886-10.568-1.384-4.433.891-9.515,3.174-13.621,2.012-3.618,4.517-8.12,8.64-10.679,3.4-2.11,8.3-2.448,11.593-.211,1.083-6.183,6.037-11.9,12.821-14.475a19.6,19.6,0,0,1,14.3-.224c4.849,1.968,8.4,6.5,8.843,11.266,0,.017,0,.033,0,.05a8.336,8.336,0,0,1,3.793-1.472,16.282,16.282,0,0,1,5.214.49,14.9,14.9,0,0,0,4.308.474c2.122-.2,4.171-1.428,5.979-2.513l23.137-13.894,1.245,2.074-23.137,13.894c-2.029,1.218-4.329,2.6-7,2.849a16.936,16.936,0,0,1-5.02-.513,14.2,14.2,0,0,0-4.448-.457,6.368,6.368,0,0,0-4.206,2.5,35.678,35.678,0,0,1-1.413,5.467l-1.525,4.809-.821-4.978a8.728,8.728,0,0,1,1.438-6.21,11.5,11.5,0,0,0,.042-2.349,11.653,11.653,0,0,0-7.344-9.248,17.439,17.439,0,0,0-12.536.245c-6.821,2.586-11.541,8.695-11.479,14.856l.04,3.958-2.246-3.26c-2.125-3.084-7.138-3.042-10.31-1.074-3.589,2.228-5.827,6.251-7.8,9.8-2.337,4.2-4.7,9.512-2.235,13.3l1.665,2.554-2.962-.717c-6.405-1.548-12.879,3.3-15.442,8.887-2.361,5.143-2.7,11.455-1.062,19.867.308,1.584.656,3.369-.131,5.044a7.767,7.767,0,0,1-2.676,2.817Z" transform="translate(-291.909)" fill="#6ad1e3" style="isolation: isolate"></path>
    <path id="Path_126548" data-name="Path 126548" d="M5104.2-1446.006a8.2,8.2,0,0,1-3.4-.716,3.382,3.382,0,0,1-1.223-.863,3.256,3.256,0,0,1-.427-3.122c1.015-3.38,4.235-5.259,7.173-6.756l1.1,2.156c-2.492,1.27-5.212,2.83-5.954,5.3a1.175,1.175,0,0,0-.039.866,1.179,1.179,0,0,0,.374.221,6.368,6.368,0,0,0,7.465-1.89,4.29,4.29,0,0,0,.957-3.016,2.439,2.439,0,0,0-1.586-2.053l.65-2.331a4.809,4.809,0,0,1,3.336,4.09,6.622,6.622,0,0,1-1.429,4.77A8.859,8.859,0,0,1,5104.2-1446.006Z" transform="translate(-294.909 -152.389)" fill="#703dc1"></path>
    <g id="Group_3558" data-name="Group 3558" transform="translate(4808.396 -1609.86)">
      <path id="Path_126549" data-name="Path 126549" d="M5114.477-1454.062c-1.16-.159-2.494-.265-3.346.539a3.044,3.044,0,0,0-.376,3.305,3.249,3.249,0,0,0,2.361,2.178c1.549.2,2.836-1.317,3.192-2.839a3.229,3.229,0,0,0-.5-2.878" transform="translate(-5109.241 1455.386)" fill="#703dc1"></path>
      <path id="Path_126550" data-name="Path 126550" d="M5112.125-1448.1a3.478,3.478,0,0,1-.454-.03,4.369,4.369,0,0,1-3.328-2.928,4.184,4.184,0,0,1,.669-4.633c1.341-1.269,3.291-1,4.34-.858l-.328,2.4c-.961-.131-1.911-.2-2.35.22a1.973,1.973,0,0,0-.084,1.977c.242.606.752,1.344,1.395,1.427.8.1,1.626-.924,1.858-1.915a2.157,2.157,0,0,0-.222-1.8l1.806-1.609a4.368,4.368,0,0,1,.772,3.958C5115.75-1449.986,5114.2-1448.1,5112.125-1448.1Z" transform="translate(-5107.951 1456.68)" fill="#703dc1"></path>
    </g>
  </g>
</svg>
