<?xml version="1.0" encoding="UTF-8"?>
<svg xmlns="http://www.w3.org/2000/svg" width="243.411" height="327.414" viewBox="0 0 243.411 327.414">
  <path id="Path_124985" data-name="Path 124985" d="M603.221,389.951a10.137,10.137,0,0,1,0-14.32L624.5,354.355l87.221,87.222H734.21L635.744,343.11l58.623-58.623a10.137,10.137,0,0,1,14.319,0l19.661,19.661a20.687,20.687,0,0,0,29.223,0l37-37V244.652L746.322,292.9a4.765,4.765,0,0,1-6.731,0L719.93,273.242a26.057,26.057,0,0,0-36.808,0L624.5,331.865l-55.531-55.53a6.543,6.543,0,0,1,0-9.242L704.091,131.969a6.544,6.544,0,0,1,9.243,0l81.238,81.238V190.716L724.58,120.724a22.465,22.465,0,0,0-31.734,0L557.724,255.848a22.464,22.464,0,0,0,0,31.733l55.529,55.529-21.275,21.276a26.058,26.058,0,0,0,0,36.81l40.381,40.381h22.49Z" transform="translate(-551.162 -114.163)" fill="#fff"></path>
</svg>
