<?xml version="1.0" encoding="UTF-8"?>
<svg xmlns="http://www.w3.org/2000/svg" width="963.211" height="824.83" viewBox="0 0 963.211 824.83">
  <g id="Group_3255" data-name="Group 3255" transform="translate(-5870.492 -5273.563)">
    <g id="Group_3245" data-name="Group 3245">
      <path id="Path_126379" data-name="Path 126379" d="M6618.355,5377.848c-34.36-19.568-82.9-8.324-105.156,24.357-17.386,25.529-18.313,60.156-6.416,88.659s35.287,51.16,62.025,66.622l-21.975.02c-4.7,5.454-3.436,14.2.9,19.951s10.967,9.218,17.376,12.5c6.548,3.352,13.313,6.768,20.645,7.364s15.459-2.326,18.828-8.865-.536-16.324-7.865-16.96a96.011,96.011,0,0,0,128.667-53.952c12.153-32.244,5.624-70.057-13.91-98.444s-50.939-47.538-84.473-55.464" fill="#360484"></path>
      <path id="Path_126380" data-name="Path 126380" d="M6587.563,5599.585c-.674,0-1.34-.028-1.992-.081-7.872-.639-15.094-4.335-21.466-7.6-6.286-3.218-13.409-6.864-18.128-13.133-4.6-6.114-6.451-16.148-.805-22.7l.654-.761,15.168-.014c-26.173-16.709-46-39.066-56.233-63.591-12.932-30.98-10.393-65.748,6.626-90.737,10.915-16.027,28.9-27.937,49.356-32.675s41.847-1.951,58.7,7.646l-2.17,3.809c-15.9-9.057-36.149-11.677-55.537-7.183s-36.421,15.743-46.723,30.87c-16.193,23.778-18.57,56.953-6.2,86.58,10.728,25.7,32.428,48.988,61.1,65.569l7.059,4.082-29.064.027c-3.391,4.827-1.813,11.937,1.578,16.441,4.113,5.462,10.759,8.866,16.624,11.867,6.3,3.226,12.819,6.561,19.824,7.13,6.08.5,13.613-1.688,16.7-7.683a10.566,10.566,0,0,0-.4-9.665,9.29,9.29,0,0,0-1.927-2.448q-2.262-.862-4.475-1.839l-12.051-5.33,13.128,1.141a10.811,10.811,0,0,1,5.587,2.169,93.8,93.8,0,0,0,120.839-54.71c11.5-30.516,6.265-67.467-13.665-96.43-18.234-26.5-48.55-46.389-83.171-54.572l1.008-4.265c35.667,8.428,66.931,28.968,85.775,56.353,20.731,30.127,26.155,68.621,14.155,100.461a98.126,98.126,0,0,1-120.473,59.279,14.861,14.861,0,0,1-.431,11.864C6602.859,5596.576,6594.694,5599.585,6587.563,5599.585Z" fill="#360484"></path>
    </g>
    <g id="Group_3246" data-name="Group 3246">
      <path id="Path_126381" data-name="Path 126381" d="M6380.534,5850.305l-2.364,37.188a26.279,26.279,0,0,0,.15,6.72c1.425,7.252,8.955,12.077,16.328,12.586,6.469.446,13.288-2.016,17.269-7.134,3.143-4.042,4.286-9.244,5.342-14.254l8.745-41.47c.185-.877.264-2.008-.516-2.45a2.166,2.166,0,0,0-1.639.021,303.937,303.937,0,0,1-48.809,9.459" fill="#360484"></path>
      <path id="Path_126382" data-name="Path 126382" d="M6396.174,5909.043q-.836,0-1.677-.058c-7.812-.539-16.616-5.641-18.327-14.349a28.257,28.257,0,0,1-.187-7.281l2.2-34.539q-1.449.174-2.9.333l-.478-4.357a302.5,302.5,0,0,0,48.456-9.39,4.19,4.19,0,0,1,3.31.181c.867.49,2.223,1.765,1.582,4.809l-8.745,41.471c-1.049,4.98-2.24,10.626-5.757,15.147C6409.728,5906.049,6403.145,5909.043,6396.174,5909.043Zm-13.567-56.789-2.249,35.378a24.628,24.628,0,0,0,.113,6.159c1.272,6.474,8.332,10.407,14.328,10.821,6.145.43,12.039-1.987,15.387-6.293,2.9-3.724,3.976-8.844,4.929-13.36l8.678-41.156A307.312,307.312,0,0,1,6382.607,5852.254Z" fill="#360484"></path>
    </g>
    <g id="Group_3247" data-name="Group 3247">
      <path id="Path_126383" data-name="Path 126383" d="M6407.689,5893.247a946.027,946.027,0,0,0-155.765-20.993c-5.641-.286-11.538-.475-16.662,1.9-8.739,4.055-12.628,14.149-15.516,23.34a738.694,738.694,0,0,0-28.836,134.591c-.717,6.068-1.334,12.386.692,18.15,3.322,9.447,12.806,15.112,21.823,19.467a269.133,269.133,0,0,0,165.748,21.9c8.283-1.568,16.792-3.669,23.394-8.91,9.715-7.711,13.417-20.559,16.578-32.552q11.662-44.24,23.324-88.479c2.848-10.8,5.72-21.968,4.1-33.023s-8.91-22.077-19.82-24.485" fill="#6ad1e3"></path>
      <path id="Path_126384" data-name="Path 126384" d="M6329.934,6098.393a270.96,270.96,0,0,1-117.462-26.715c-9.324-4.5-19.341-10.484-22.938-20.714-2.117-6.02-1.587-12.486-.8-19.134a742.133,742.133,0,0,1,28.921-134.99c3.234-10.294,7.494-20.407,16.684-24.671,5.4-2.5,11.206-2.433,17.7-2.1a950.453,950.453,0,0,1,156.126,21.041l-.945,4.281a945.894,945.894,0,0,0-155.4-20.943c-5.9-.3-11.145-.381-15.628,1.7-8.029,3.726-11.616,13.315-14.348,22.01a737.721,737.721,0,0,0-28.75,134.19c-.751,6.349-1.226,12.023.583,17.165,3.068,8.726,12.19,14.108,20.708,18.221a266.577,266.577,0,0,0,164.387,21.723c7.475-1.416,15.991-3.355,22.439-8.474,8.823-7,12.386-18.361,15.823-31.393l23.324-88.48c2.638-10.013,5.63-21.36,4.053-32.146-1.935-13.249-10.752-21.036-18.124-22.663l.946-4.281c9.09,2.007,19.268,10.92,21.516,26.31,1.7,11.672-1.407,23.479-4.153,33.9l-23.324,88.48c-2.808,10.648-6.653,25.23-17.334,33.71-7.231,5.739-16.361,7.834-24.35,9.346A266.921,266.921,0,0,1,6329.934,6098.393Z" fill="#6ad1e3"></path>
    </g>
    <path id="Path_126385" data-name="Path 126385" d="M6233.434,5931.456l-.331,0a13.513,13.513,0,0,1-10.01-4.355,14.369,14.369,0,0,1-3.181-6.264c-3.032,4.838-7.442,8.7-13.211,10.038-5.725,1.329-12.508-1.347-16.5-6.5-.144-.187-.284-.375-.418-.565a18.084,18.084,0,0,1-3.487,3.2c-5.653,4-12.295,4.224-16.921.569-3.558-2.81-5.494-6.993-7.03-10.7a161.492,161.492,0,0,1-11.83-70.631c-6.806,3.548-14.648,5.033-22.3,6.481l-.43.081c-17.613,3.336-33.646,5.362-49.152,7.321-35.135,4.441-65.478,8.275-101.527,25.375l-2.567,1.222c-10.639,5.07-21.639,10.313-33.552,12.113a61.437,61.437,0,0,1-68.392-77.136c2.728-9.859,9.661-21.057,20.931-22.921a36.055,36.055,0,0,1,10.734.324,50.568,50.568,0,0,0,6.486.577h.035c9.4,0,17.862-5.32,27.164-11.749l74.767-51.667c-1.383-11.642-2.739-24.678,1.318-36.745,5.037-14.982,17.215-22.53,27.493-22.78,13.846-2.688,24.525-1.364,30.818,1.021a27.341,27.341,0,0,1,18.1-23.729,26.984,26.984,0,0,1,20.609,1.746c.063-.245.138-.488.223-.727l.26-.732.664-.406c12.15-7.411,27.553-8.653,40.875-3.974a8.011,8.011,0,0,1,.378-1.457c2.131-5.877,8.157-8.717,13.64-10.918,9.511-3.819,20.324-8.126,31.523-7.861a34.064,34.064,0,0,1,18.9,6.365,10.75,10.75,0,0,1,.465-1.033c2.115-4.075,6.212-7.087,12.528-9.211,16.09-5.406,34.576-2.387,48.5,7.2a21.723,21.723,0,0,1-.229-3.357,22.923,22.923,0,0,1,8.62-17.861c7.54-5.7,21.082-7.993,34.332-.27a52,52,0,0,1,13.635,11.871,10.4,10.4,0,0,1,1.3-1.832c4.189-4.695,11.114-6.6,20.584-5.671a77.972,77.972,0,0,1,35.631,12.81c.085-.154.178-.306.276-.456,2.606-3.929,7.675-5.742,15.042-5.39a82.081,82.081,0,0,1,53.069,23.293,6.445,6.445,0,0,1,1-1c3.867-3.11,9.463-3.122,16.63-.04a89.019,89.019,0,0,1,37.452,30.729,10.468,10.468,0,0,1,3.753-4.1c4.555-2.784,10.625-2.768,18.043.042a63.61,63.61,0,0,1,31.455,26.694,12.449,12.449,0,0,1,2.024-2.337l.834-.749,1.1.239c22.455,4.892,41.651,20.986,51,41.769a9.468,9.468,0,0,1,5.328-2.9c7.908-1.261,14.722,4.758,19.154,9.4a184.438,184.438,0,0,1,22.109,28.157,7.343,7.343,0,0,1,2.835-2.059c5.942-2.4,12,.627,17.669,4.258l63.318,40.562L6751,5816.4c-55.215,21.921-160.53,29.661-217.807,21.949-3.134-.424-6.13-.7-8.332.545s-3.471,3.87-4.793,6.921L6500,5892.16c-2.907,6.712-6.2,14.319-12.225,19.736-5.909,5.312-15.8,8.255-23.286,3.6a12.829,12.829,0,0,1-4.7-5.442,21.591,21.591,0,0,1-10.154,7.548c-6.184,2.062-12.816-1.38-16.095-5.742-4.614,3.1-11.516,3.734-15.662-.325-6.922-6.778-5.866-17.579-3.92-27.252l8.089-40.2c-42.5,15.043-72.582,7.51-110.384-1.954-10.016-2.508-20.374-5.1-31.855-7.542-2.294-.487-4.479-.854-6.016-.014-1.891,1.034-2.656,3.871-3.224,6.449l-13.683,62.034c-1.594,7.227-3.577,16.221-9.626,22.5A19.77,19.77,0,0,1,6233.434,5931.456Zm-9.259-21.342c-.779,5.194-.925,10.565,2.193,14.07a9.169,9.169,0,0,0,6.821,2.885,15.435,15.435,0,0,0,10.909-4.55c5.192-5.392,7.028-13.718,8.5-20.406l13.682-62.034c.776-3.52,1.9-7.436,5.4-9.353,2.851-1.558,6.024-1.063,9.029-.428,11.56,2.456,21.956,5.06,32.011,7.578,39.634,9.926,68.269,17.1,111.464.753l3.706-1.4-9.644,47.922c-1.8,8.947-2.72,17.958,2.69,23.254,2.655,2.6,7.553,1.828,10.586-.491a8.91,8.91,0,0,1,1.564-8.111l1.771-2.28,1.72,2.319a7.408,7.408,0,0,1,.137,8.93c.057.086.112.168.168.246,2.263,3.2,7.25,5.8,11.357,4.429,4.328-1.443,7.546-4.883,10.127-9.038a14.826,14.826,0,0,1,.008-1.573c.266-4.418,2.457-7.9,6.014-9.564l5.149-2.4-2.2,5.24a83.8,83.8,0,0,1-4.465,9.317,9.2,9.2,0,0,0,3.931,6.351c5.642,3.514,13.345,1.081,18.037-3.137,5.311-4.777,8.4-11.918,11.134-18.218l20.07-46.343c1.266-2.923,3-6.926,6.659-9,3.387-1.911,7.169-1.6,11.075-1.074,55.371,7.464,156.007.361,211.575-20.137l-56.063-35.914c-4.677-3-9.568-5.538-13.661-3.885a3.679,3.679,0,0,0-1.909,2.134q1.905,3.165,3.686,6.407L6679,5785.5l-3.281.342c-3.128.339-5.7-1.628-6.533-4.983a10.211,10.211,0,0,1-.157-3.943,180.1,180.1,0,0,0-23.149-29.983c-3.75-3.925-9.426-9.046-15.295-8.1a6.069,6.069,0,0,0-4.092,3.3,69.261,69.261,0,0,1,2.449,8.248l.858,3.737-3.655-1.156c-3.359-1.06-5.265-4.142-4.976-8.044a11.6,11.6,0,0,1,.6-2.879c-8.108-20.539-26.349-36.718-47.962-41.854a9.06,9.06,0,0,0-1.652,2.968,59.662,59.662,0,0,1,4.743,13.48l1.121,5.1-4.426-2.774a14.259,14.259,0,0,1-6.32-10.949,15.719,15.719,0,0,1,.228-4.359,59.316,59.316,0,0,0-30.9-27.766c-6.086-2.305-10.865-2.438-14.205-.4a6.942,6.942,0,0,0-2.968,5.095q1.662,2.758,3.106,5.628l2.755,5.479-5.6-2.491a8.04,8.04,0,0,1-4.66-7.151c0-.093-.01-.188-.014-.282a84.6,84.6,0,0,0-37.837-32.621c-5.563-2.39-9.65-2.583-12.153-.57a2.307,2.307,0,0,0-.63.813q2.542,2.788,4.819,5.818l1.634,2.177-2.475,1.132c-2.72,1.242-5.6.241-7.323-2.558a9.576,9.576,0,0,1-1.359-5.176A77.653,77.653,0,0,0,6408,5627.253c-5.719-.272-9.487.88-11.179,3.433a2.417,2.417,0,0,0-.292.627,76.016,76.016,0,0,1,5.969,5.017l2.053,1.912-2.353,1.529c-2.409,1.566-5.289,1.144-7.516-1.1a9.542,9.542,0,0,1-2.558-5.151,73.548,73.548,0,0,0-35.293-13.244c-7.992-.786-13.679.637-16.886,4.228a6.783,6.783,0,0,0-1.486,2.889,112.69,112.69,0,0,1,6.337,9.9l1.931,3.343-3.862-.056a8.856,8.856,0,0,1-7.95-5.687,13.331,13.331,0,0,1-1.058-6.34,50.176,50.176,0,0,0-14.327-13.22c-9.809-5.715-21.933-5.724-29.482-.019a18.458,18.458,0,0,0-6.879,14.4,14.881,14.881,0,0,0,2.493,8.744q1.434,1.384,2.76,2.884l-3,3.176a16.29,16.29,0,0,1-3.039-3.128c-13.1-12.484-33.274-17.183-50.475-11.4-5.185,1.743-8.467,4.056-10.032,7.073a6.829,6.829,0,0,0-.694,2.313,22.008,22.008,0,0,1,4.669,7.873l1.349,4.025-4.062-1.23a8.747,8.747,0,0,1-5.492-5.163,11.7,11.7,0,0,1-.878-3.762c-4.918-4.593-12.106-6.867-18.262-7.024-10.317-.249-20.661,3.887-29.779,7.547-4.813,1.932-9.637,4.168-11.152,8.344a4.014,4.014,0,0,0-.206,1.713,44.839,44.839,0,0,1,7.834,4.668l2.451,1.824-2.513,1.736c-2.461,1.7-5.491,1.52-8.1-.5a10.917,10.917,0,0,1-3.365-4.574,44.183,44.183,0,0,0-38.45,2.369,5.132,5.132,0,0,0-.075,1.117,25.5,25.5,0,0,1,6.208,6.7l2.608,4.121-4.814-.787a9.977,9.977,0,0,1-6.894-4.911,10.944,10.944,0,0,1-1.1-2.527,22.992,22.992,0,0,0-19.321-2.742c-9.258,3.1-15.889,13.14-15.1,22.869l.351,4.3-3.681-2.255c-4.9-3-15.964-4.79-29.97-2.264l-.029.331c-.463-.039-.926-.059-1.384-.063l-.293.058-.012-.058c-11,.09-20.235,10-23.531,19.806-3.9,11.588-2.338,24.633-.964,36.142l.156,1.312-76.941,53.169c-8.077,5.581-18.127,12.527-29.657,12.527h-.04a55,55,0,0,1-7.052-.615c-3.3-.435-6.425-.847-9.447-.346-9.233,1.527-15.054,11.212-17.422,19.765a57.055,57.055,0,0,0,63.514,71.633c11.269-1.7,21.971-6.8,32.319-11.736l2.575-1.226c36.682-17.4,68.826-21.463,102.856-25.763,15.44-1.951,31.406-3.969,48.886-7.279l.43-.082c8.267-1.565,16.772-3.175,23.5-7.462a157.894,157.894,0,0,1,2.292-16.138,5.9,5.9,0,0,1,6.907-4.786,5.787,5.787,0,0,1,4.976,6.579,24.612,24.612,0,0,1-7.754,14.978c-.72.642-1.464,1.243-2.225,1.807a157.179,157.179,0,0,0,11.3,71.8c1.385,3.338,2.966,6.777,5.7,8.935,3.722,2.938,8.613,1.455,11.674-.709a13.053,13.053,0,0,0,3.834-4.2,11.354,11.354,0,0,1,.859-8.294l2.367-4.529,1.651,4.838a12.162,12.162,0,0,1-.155,8.206,11.236,11.236,0,0,0,1.347,2.235c2.975,3.846,7.931,5.866,12.039,4.911,7.69-1.78,12.431-9.456,14.11-17.087.163-1.07.342-2.053.5-2.911l4.332.661C6224.536,5908.206,6224.377,5909.158,6224.175,5910.114Zm-65.1-85.772a1.491,1.491,0,0,0-1.57,1.326q-1.1,5.634-1.777,11.353a20.336,20.336,0,0,0,5.006-10.941,1.435,1.435,0,0,0-1.316-1.711A2.143,2.143,0,0,0,6159.071,5824.342Z" fill="#360484"></path>
    <g id="Group_3248" data-name="Group 3248">
      <path id="Path_126386" data-name="Path 126386" d="M6215.473,5293.077c-37.956,6.7-76.5,18.038-105.8,43.089s-47.151,66.588-35.064,103.187c7.846,23.756,27.051,42.45,48.887,54.661s46.339,18.693,70.637,24.653c-4.228,1.4-8.685,2.962-11.531,6.392s-3.154,9.358.546,11.841a11.52,11.52,0,0,0,5.816,1.455,124.76,124.76,0,0,0,63.033-12.9,26.4,26.4,0,0,0-29.073-8.719c26.4-22.348,52.277-46.417,69.107-76.639s23.539-67.834,10.159-99.734-50.2-54.581-83.48-45.137" fill="#fff"></path>
      <path id="Path_126387" data-name="Path 126387" d="M6196.43,5540.772q-3.8,0-7.594-.228a13.394,13.394,0,0,1-6.906-1.824,8.476,8.476,0,0,1-3.588-5.955,12,12,0,0,1,2.578-9.1,18.017,18.017,0,0,1,5.971-4.531c-22.692-5.7-44.622-12.107-64.461-23.2-24.867-13.906-42.588-33.754-49.9-55.886-5.88-17.8-5.175-37.641,2.037-57.365a117.818,117.818,0,0,1,33.683-48.175c32.646-27.919,76.609-38.245,106.84-43.582l.762,4.316c-62.064,10.959-89.508,29.56-104.752,42.6a113.334,113.334,0,0,0-32.415,46.349c-6.87,18.787-7.559,37.627-1.993,54.484,6.965,21.088,23.968,40.065,47.876,53.435,21.314,11.919,45.316,18.361,70.089,24.438l7.387,1.811-7.219,2.4c-4.533,1.506-8.187,2.881-10.533,5.711a7.587,7.587,0,0,0-1.613,5.678,4.163,4.163,0,0,0,1.692,2.943,9.7,9.7,0,0,0,4.727,1.087,121.957,121.957,0,0,0,59.385-11.442c-6.234-6.353-16.434-8.9-24.824-5.926l-11.307,4.013,9.158-7.751c29.824-25.244,52.9-47.834,68.607-76.033,18.244-32.763,22-69.33,10.054-97.819a78.281,78.281,0,0,0-33.333-37.011c-15.485-8.729-32.363-11.167-47.527-6.865l-1.2-4.217c16.3-4.624,34.366-2.045,50.877,7.263a82.751,82.751,0,0,1,35.224,39.134c12.465,29.72,8.627,67.719-10.267,101.648-15.637,28.084-39.381,51.231-63.456,71.995.227-.006.452-.008.678-.008a28.53,28.53,0,0,1,22.579,10.983l1.588,2.1-2.355,1.18A126.454,126.454,0,0,1,6196.43,5540.772Z" fill="#5c54a3"></path>
    </g>
    <g id="Group_3249" data-name="Group 3249">
      <path id="Path_126388" data-name="Path 126388" d="M6438.066,5281.4c-43.74-7.652-90.274-9.568-131.088,7.926s-74.013,58.555-70.711,102.837c2.394,32.1,23.171,60.6,49.141,79.617s56.862,29.923,87.446,39.949c-4.881.906-10.028,1.937-13.731,5.245s-5.113,9.709-1.567,13.183c1.832,1.8,4.485,2.409,7,2.9a219.513,219.513,0,0,0,43.594,4.1c2.014-.012,4.131-.08,5.864-1.1,6.81-4.026.106-14.221-6.471-18.616,35.57-6.635,70.426-21.358,96.185-46.769s41.344-62.4,36.046-98.191-33.87-68.381-69.7-73.422" fill="#6ad1e3"></path>
      <path id="Path_126389" data-name="Path 126389" d="M6406.816,5539.356a222.006,222.006,0,0,1-42.68-4.148c-2.882-.567-5.881-1.3-8.113-3.488a9.386,9.386,0,0,1-2.7-7.031,13.372,13.372,0,0,1,4.343-9.353,20.212,20.212,0,0,1,7.154-3.959c-28.919-9.655-56.7-20.26-80.7-37.832-29.56-21.641-47.8-51.246-50.032-81.223-1.6-21.521,5.042-43.275,19.222-62.91a128.309,128.309,0,0,1,52.812-42.1c35.288-15.125,77.337-17.691,132.329-8.07l-.755,4.318c-54.116-9.468-95.375-7-129.847,7.782a123.864,123.864,0,0,0-50.985,40.641c-13.567,18.787-19.931,39.541-18.4,60.018,2.141,28.695,19.727,57.13,48.251,78.011,25.511,18.678,55.632,29.407,86.834,39.635l8.156,2.674-8.439,1.564c-5.277.979-9.562,1.949-12.671,4.725a8.972,8.972,0,0,0-2.88,6.186,5.058,5.058,0,0,0,1.387,3.8c1.369,1.34,3.567,1.861,5.89,2.317a217.571,217.571,0,0,0,41.836,4.067c.442,0,.881,0,1.323-.005a9.7,9.7,0,0,0,4.763-.8,3.229,3.229,0,0,0,1.77-2.875c.1-3.435-3.727-8.945-8.345-12.032l-4.474-2.99,5.29-.987c38.918-7.259,71.784-23.226,95.049-46.175,26.734-26.371,40.3-63.275,35.417-96.309-5.345-36.114-34.509-66.883-67.839-71.572l.611-4.342c17.523,2.466,34.43,11.65,47.6,25.86a93.725,93.725,0,0,1,23.96,49.412c5.09,34.391-8.962,72.737-36.674,100.072-22.969,22.658-54.962,38.671-92.751,46.466,3.662,3.593,6.653,8.44,6.535,12.718a7.54,7.54,0,0,1-3.922,6.527c-2.157,1.276-4.526,1.4-6.966,1.411Q6407.491,5539.355,6406.816,5539.356Z" fill="#6ad1e3"></path>
    </g>
    <g id="Group_3250" data-name="Group 3250">
      <path id="Path_126390" data-name="Path 126390" d="M6540.432,5378.186a75.6,75.6,0,0,0-27.233,24.019c-13.9,20.408-17.269,46.628-11.988,70.888q1.274-1.2,2.52-2.423C6528.123,5446.607,6543.378,5412.166,6540.432,5378.186Z" fill="#f04e98"></path>
      <path id="Path_126391" data-name="Path 126391" d="M6499.892,5477.337l-.823-3.779c-5.713-26.245-1.224-52.7,12.318-72.586a78.123,78.123,0,0,1,28.017-24.722l2.925-1.552.286,3.3c2.871,33.106-11.089,68.334-37.345,94.233q-1.263,1.248-2.559,2.46Zm38.59-95.551a73.1,73.1,0,0,0-23.472,21.653c-12.2,17.914-16.651,41.512-12.429,65.283C6526.769,5444.66,6540.023,5412.439,6538.482,5381.786Z" fill="#f04e98"></path>
    </g>
    <g id="Group_3251" data-name="Group 3251">
      <path id="Path_126392" data-name="Path 126392" d="M6302.194,5340.361a79.474,79.474,0,0,0-25.651-32.437c-25.469,20.986-42.7,51.743-40.276,84.235,2.094,28.073,18.25,53.4,39.645,72.03a185.57,185.57,0,0,0,16.123-24.095C6308.864,5409.872,6315.574,5372.261,6302.194,5340.361Z" fill="#6ad1e3"></path>
      <path id="Path_126393" data-name="Path 126393" d="M6276.214,5467.359l-1.741-1.517c-24.075-20.964-38.42-47.075-40.392-73.52-2.3-30.824,13.054-63.007,41.069-86.09l1.328-1.095,1.379,1.032a82.2,82.2,0,0,1,26.359,33.344h0c12.465,29.72,8.627,67.719-10.267,101.648a188.806,188.806,0,0,1-16.311,24.38Zm.389-156.629c-26.069,22.089-40.307,52.35-38.151,81.266,1.839,24.647,15.011,49.073,37.159,69a182.473,182.473,0,0,0,14.508-21.968c18.244-32.763,22-69.33,10.054-97.819A77.589,77.589,0,0,0,6276.6,5310.73Z" fill="#6ad1e3"></path>
    </g>
    <path id="Path_126394" data-name="Path 126394" d="M6291.461,5839.027a2.811,2.811,0,0,1-2.576-1.572,3.462,3.462,0,0,1-.332-1.084,8.576,8.576,0,0,1-3.816-4.281c-20.652-52.518-31.921-108.79-42.82-163.208-5.532-27.623-11.253-56.187-18.13-83.9q-.947-3.814-1.914-7.625c-3.314-13.123-6.741-26.693-8.582-40.381l4.346-.584c1.807,13.441,5.2,26.888,8.487,39.892q.965,3.82,1.919,7.641c6.9,27.811,12.631,56.424,18.173,84.1,10.86,54.232,22.092,110.309,42.6,162.465a4.522,4.522,0,0,0,1.462,1.836l14.286-15.477-10.558,17.629a2.547,2.547,0,0,1,.551,2.372,3.188,3.188,0,0,1-2.794,2.166C6291.662,5839.022,6291.561,5839.027,6291.461,5839.027Zm-1.05-2.151a1.681,1.681,0,0,0,.548.716l.648-.871A3.386,3.386,0,0,1,6290.411,5836.876Z" fill="#360484"></path>
    <path id="Path_126395" data-name="Path 126395" d="M6329.042,5855.241l-.473-1.972a16.744,16.744,0,0,1,.567-9.6l4.113,1.518a12.318,12.318,0,0,0-.721,5.057l.759-.121c1.477-11.6,3-23.547,4.555-35.3,12.361-93.558,28.287-187.869,47.337-280.315l4.293.885c-19.028,92.343-34.937,186.55-47.284,280-1.625,12.3-3.219,24.812-4.759,36.914l-.208,1.63Z" fill="#360484"></path>
    <path id="Path_126396" data-name="Path 126396" d="M6386.566,5862.72l-.349-4.133a24.626,24.626,0,0,1,1.493-10.7l4.1,1.551a19.967,19.967,0,0,0-1.027,3.833c5.945-6.029,10.464-13.668,15.22-22.164,5.079-9.071,10.15-18.354,15.055-27.33,7.3-13.362,14.849-27.18,22.588-40.608,36.187-62.783,79.5-122.262,121.4-179.784l3.543,2.58c-41.823,57.429-85.071,116.813-121.141,179.394-7.713,13.384-15.251,27.179-22.54,40.52-4.909,8.986-9.986,18.279-15.075,27.37-5.935,10.6-11.54,19.939-20.047,26.854Z" fill="#360484"></path>
    <path id="Path_126397" data-name="Path 126397" d="M5902.652,5840.239l-3.813-2.166a19.653,19.653,0,0,1,8.62-7.991l1.871,3.964A15.218,15.218,0,0,0,5902.652,5840.239Z" fill="#360484"></path>
    <path id="Path_126398" data-name="Path 126398" d="M5904.117,5891.721a9.922,9.922,0,0,1-6.5-2.292l2.8-3.373c3.747,3.112,10.165.06,14.546-4.092l1.06-1.011c4.794-4.591,10.219-9.8,17.3-8.843a21,21,0,0,1,4.886,1.456,15.785,15.785,0,0,0,4.173,1.225c4.29.394,8.261-3.08,12.57-10.87a12.223,12.223,0,0,1,4.072-4.9,10.563,10.563,0,0,1,5.253-1.313,56.226,56.226,0,0,1,7.747.471c5.309.568,10.327,1.1,13.936-1.673,2.2-1.69,3.616-4.455,5.119-7.38,2.184-4.25,4.441-8.646,9.411-10.119,3.994-1.184,7.889.279,11.326,1.572,2.962,1.114,5.755,2.161,8.317,1.581,3.486-.8,5.84-4.472,8.115-8.024l.408-.634c5.016-7.791,9.94-8.945,13.176-8.55a15.561,15.561,0,0,1,6.615,2.972,23.828,23.828,0,0,0,2.815,1.69,10.643,10.643,0,0,0,13.744-5.345,35.455,35.455,0,0,0,1.161-3.674c1.142-4.095,2.563-9.193,7.668-9.858,2.989-.39,5.32,1.186,7.384,2.574a13.641,13.641,0,0,0,3.293,1.829c3.895,1.207,8.185-2.749,11.069-5.834l25.339-27.1,3.2,2.994-25.34,27.1c-3.689,3.945-9.318,8.96-15.569,7.028a17.309,17.309,0,0,1-4.443-2.38c-1.624-1.094-3.035-2.044-4.369-1.863-2.079.27-2.9,2.707-4.012,6.687a39.24,39.24,0,0,1-1.32,4.142,15.016,15.016,0,0,1-19.693,7.659,27.487,27.487,0,0,1-3.349-1.993,11.951,11.951,0,0,0-4.733-2.277c-3.631-.46-6.865,3.328-8.953,6.572l-.4.627c-2.623,4.093-5.6,8.733-10.829,9.931-3.837.881-7.4-.458-10.837-1.751-3.063-1.15-5.956-2.236-8.538-1.472-3.172.941-4.833,4.174-6.756,7.919-1.659,3.226-3.372,6.563-6.346,8.851-5,3.849-11.141,3.192-17.076,2.559a51.533,51.533,0,0,0-7.144-.449,6.289,6.289,0,0,0-3.109.675,8.793,8.793,0,0,0-2.517,3.283c-3.305,5.972-8.647,13.807-16.789,13.113a19.262,19.262,0,0,1-5.387-1.509,17.409,17.409,0,0,0-3.874-1.193c-4.979-.67-9.406,3.566-13.685,7.664l-1.076,1.026C5914.007,5888.907,5908.846,5891.721,5904.117,5891.721Z" fill="#360484"></path>
    <path id="Path_126399" data-name="Path 126399" d="M6041.891,5742.441c-5.971,0-10.927-4.593-12.89-9.487-1.856-4.625-1.868-10.234-.036-16.669a25.508,25.508,0,0,1,4.1-8.763l3.48,2.664a21.373,21.373,0,0,0-3.359,7.3c-1.56,5.478-1.6,10.133-.113,13.835,1.458,3.633,5.354,7.2,9.7,6.683s7.312-4.854,8.38-6.691c2.974-5.119,3.858-10.886,2.424-15.821-1.523-5.245-6-9.439-10.876-10.2l.674-4.332c6.607,1.028,12.4,6.375,14.412,13.307,1.767,6.08.73,13.1-2.843,19.247-1.737,2.987-5.558,8.107-11.646,8.84A11.555,11.555,0,0,1,6041.891,5742.441Z" fill="#360484"></path>
    <path id="Path_126400" data-name="Path 126400" d="M6030.383,5725.473l-.551-4.349a76,76,0,0,0,23.153-6.779l1.882,3.959A80.379,80.379,0,0,1,6030.383,5725.473Z" fill="#360484"></path>
    <g id="Group_3252" data-name="Group 3252">
      <path id="Path_126401" data-name="Path 126401" d="M6042.918,5721.236a17.149,17.149,0,0,0,2.555,10.042,1.886,1.886,0,0,0,1.177,1.011,1.842,1.842,0,0,0,1.4-.615,11.881,11.881,0,0,0,3.815-10.272,4.558,4.558,0,0,0-1.56-3.19,2.113,2.113,0,0,0-3.113.6" fill="#360484"></path>
      <path id="Path_126402" data-name="Path 126402" d="M6046.806,5734.493a3.316,3.316,0,0,1-.478-.036,4.017,4.017,0,0,1-2.714-2.017,19.384,19.384,0,0,1-2.884-11.336l4.377.264a14.964,14.964,0,0,0,1.925,8.246,9.753,9.753,0,0,0,2.658-7.922,2.652,2.652,0,0,0-.671-1.7.373.373,0,0,0-.119,0,.614.614,0,0,0,.32-.348l-4.063-1.648a3.83,3.83,0,0,1,2.534-2.218,4.605,4.605,0,0,1,3.9.662,6.535,6.535,0,0,1,2.449,4.676,14.025,14.025,0,0,1-4.532,12.2A4.14,4.14,0,0,1,6046.806,5734.493Z" fill="#360484"></path>
    </g>
    <g id="Group_3253" data-name="Group 3253">
      <path id="Path_126403" data-name="Path 126403" d="M6108.048,5852.041c-4.422,13.487-2.3,28.248,1.451,41.936a184.559,184.559,0,0,0,15.022,37.818,7.752,7.752,0,0,0,2.68,3.318c2.423,1.388,5.519-.137,7.478-2.127,4.542-4.615,6.045-11.332,7.355-17.673a34.724,34.724,0,0,0,7.873,11.078c2.021,1.9,4.622,3.657,7.361,3.2,2.926-.484,4.928-3.432,5.329-6.37s-.433-5.888-1.208-8.75a249.966,249.966,0,0,1-8.61-70.7,179.73,179.73,0,0,1-48.669,11.55" fill="#360484"></path>
      <path id="Path_126404" data-name="Path 126404" d="M6129.272,5937.857a6.283,6.283,0,0,1-3.162-.842,9.794,9.794,0,0,1-3.525-4.19,186.923,186.923,0,0,1-15.2-38.269c-4.025-14.683-5.016-26.647-3.009-37.052l-.062.006-.409-4.365c.519-.048,1.038-.1,1.555-.152q.239-.824.5-1.634l3.568,1.17a177.189,177.189,0,0,0,42.447-10.793l3.062-1.2-.072,3.287a247.23,247.23,0,0,0,8.535,70.077l.064.237c.773,2.852,1.65,6.084,1.2,9.383-.474,3.475-2.911,7.535-7.143,8.235-2.956.49-6.05-.782-9.222-3.77a37,37,0,0,1-5.5-6.556c-1.207,4.621-3.046,9.419-6.661,13.092A10.4,10.4,0,0,1,6129.272,5937.857Zm-20.317-80.841c-2.228,10.024-1.358,21.731,2.658,36.382a182.456,182.456,0,0,0,14.843,37.368,6.16,6.16,0,0,0,1.833,2.445c1.295.744,3.411-.324,4.827-1.763,4.238-4.305,5.642-11.111,6.771-16.578l1.373-6.657,2.774,6.206a32.744,32.744,0,0,0,7.376,10.376c2.125,2,3.968,2.892,5.5,2.637,1.928-.318,3.249-2.557,3.515-4.5.33-2.417-.358-4.955-1.087-7.642l-.065-.239a251.655,251.655,0,0,1-8.737-68.072A181.541,181.541,0,0,1,6108.955,5857.016Z" fill="#360484"></path>
    </g>
    <g id="Group_3254" data-name="Group 3254">
      <path id="Path_126405" data-name="Path 126405" d="M6303.607,5876.314a194.206,194.206,0,0,0-7.753,36.848c-.639,5.782-.653,12.529,3.775,16.3a16.923,16.923,0,0,0,5.132,2.714,84.5,84.5,0,0,0,40.5,4.674,4.362,4.362,0,0,0,2.413-.84,4.436,4.436,0,0,0,1.083-2.062,312.2,312.2,0,0,0,11.255-49.94Q6331.934,5879.311,6303.607,5876.314Z" fill="#f04e98"></path>
      <path id="Path_126406" data-name="Path 126406" d="M6334.421,5940.127a87,87,0,0,1-30.566-5.542,19.32,19.32,0,0,1-5.894-3.164c-5.438-4.632-5.35-12.341-4.664-18.541a197.114,197.114,0,0,1,7.855-37.337l.631-2.009,2.095.221c18.92,2.006,37.949,4.6,56.561,7.716l2.471.413-.348,2.483a315.588,315.588,0,0,1-11.349,50.351,6.743,6.743,0,0,1-1.82,3.208,6.63,6.63,0,0,1-3.8,1.476A86.291,86.291,0,0,1,6334.421,5940.127Zm-28.98-61.029a192.1,192.1,0,0,0-7.031,34.347c-.545,4.936-.71,11,2.887,14.059a14.705,14.705,0,0,0,4.369,2.264,81.822,81.822,0,0,0,39.263,4.532,4.459,4.459,0,0,0,1.055-.224,7.119,7.119,0,0,0,.319-.9,310.57,310.57,0,0,0,10.8-47.044C6340.081,5883.334,6322.723,5880.969,6305.441,5879.1Z" fill="#f04e98"></path>
    </g>
    <path id="Path_126407" data-name="Path 126407" d="M5993.97,5652.559c-1.729-7.97-7.365-15.407-17.233-22.739-4.674-3.474-11.736-8.018-19.056-7.324-.16.014-.321.033-.481.053a38.551,38.551,0,0,1-.1,19.787c-1.31,4.5-3.792,7.4-6.991,8.168a7.291,7.291,0,0,1-6.035-1.247,12.892,12.892,0,0,1-4.944-8.868,20.151,20.151,0,0,1,4.63-14.748,21.1,21.1,0,0,1,8.063-6.115,102.477,102.477,0,0,0-8.315-18.359c-2.891-5.224-5.846-10.19-10.208-13.545-9.936-7.642-24.479-5.208-37.331-2.327l-.959-4.278c13.82-3.1,29.524-5.668,40.963,3.13,5.029,3.867,8.248,9.253,11.371,14.9a106.5,106.5,0,0,1,8.689,19.249c.413-.07.827-.123,1.242-.163,8.819-.829,16.828,4.266,22.082,8.17,10.756,7.993,16.938,16.279,18.9,25.329Zm-40.985-28.757a16.848,16.848,0,0,0-5.832,4.609,15.755,15.755,0,0,0-3.669,11.5,8.589,8.589,0,0,0,3.11,5.761,2.956,2.956,0,0,0,2.489.569c2.161-.518,3.311-3.437,3.8-5.13A34.171,34.171,0,0,0,5952.985,5623.8Z" fill="#f04e98"></path>
    <path id="Path_126408" data-name="Path 126408" d="M5936.667,5715.44a236.889,236.889,0,0,1-38.282-11.115l1.574-4.092a232.262,232.262,0,0,0,37.571,10.908Z" fill="#f04e98"></path>
    <path id="Path_126409" data-name="Path 126409" d="M6046.372,5584.493a286.432,286.432,0,0,0-20.466-38.952l3.713-2.332a291.053,291.053,0,0,1,20.781,39.549Z" fill="#f04e98"></path>
    <rect id="Rectangle_3324" data-name="Rectangle 3324" width="4.384" height="59.987" transform="translate(6100.513 5527.365) rotate(-1.231)" fill="#f04e98"></rect>
    <path id="Path_126410" data-name="Path 126410" d="M6690.864,5723.9q-.349,0-.7-.024c-5.037-.355-9.875-4.076-12.324-9.478-2.17-4.786-2.4-10.031-2.437-14.572-.059-6.7.256-14.546,3.051-21.949a29.738,29.738,0,0,1,10.723-14.195,38.986,38.986,0,0,1,.424-3.923,43.141,43.141,0,0,1,15.455-26.922,38.524,38.524,0,0,1,30.037-7.861,5.059,5.059,0,0,1,3.624,2.064,3.455,3.455,0,0,1-.166,3.814,2.938,2.938,0,0,1-3.1,1.2l1.024-4.263a1.456,1.456,0,0,0-1.485.508.948.948,0,0,0,.012,1.075.521.521,0,0,0,.122.137,2.436,2.436,0,0,0-.786-.212,34.115,34.115,0,0,0-26.563,6.979,38.714,38.714,0,0,0-13.845,24.169c-.042.266-.08.529-.116.791,7.944-3.061,17.365-.628,21.915,5.662a12.917,12.917,0,0,1,2.575,8.964c-.7,6.124-6.842,10.891-13.446,10.387-5.586-.417-10.914-4.384-13.57-10.106a23.288,23.288,0,0,1-1.952-7.009,26.589,26.589,0,0,0-6.781,10.293c-2.54,6.727-2.825,14.068-2.768,20.362.036,4.092.228,8.794,2.044,12.8,1.795,3.958,5.186,6.671,8.64,6.915a6.935,6.935,0,0,0,5.221-2.093,4.914,4.914,0,0,0,1.524-3.79l4.365-.4a9.122,9.122,0,0,1-2.755,7.259A11.3,11.3,0,0,1,6690.864,5723.9Zm2.653-57.723a20.229,20.229,0,0,0,1.75,8.119c2,4.3,5.891,7.279,9.92,7.58,4.16.281,8.339-2.794,8.763-6.513a8.683,8.683,0,0,0-1.772-5.9c-3.421-4.733-10.643-6.511-16.793-4.137A17.735,17.735,0,0,0,6693.517,5666.173Z" fill="#f04e98"></path>
    <path id="Path_126411" data-name="Path 126411" d="M6738.665,5749.006l-3.076-3.125a419.05,419.05,0,0,1,61.719-50.138l2.427,3.65A414.712,414.712,0,0,0,6738.665,5749.006Z" fill="#f04e98"></path>
    <rect id="Rectangle_3325" data-name="Rectangle 3325" width="48.723" height="4.385" transform="translate(6788.771 5777.389) rotate(-28.437)" fill="#f04e98"></rect>
    <path id="Path_126412" data-name="Path 126412" d="M6311.672,5865.987l-1.516-14.949c-6.5-64.117-13.219-130.417-12.618-196.05.132-14.308.637-29.465,5.139-43.666l4.18,1.324c-4.32,13.623-4.806,28.407-4.934,42.383-.574,62.529,5.534,125.778,11.742,187.153l2.461.469Z" fill="#360484"></path>
    <path id="Path_126413" data-name="Path 126413" d="M6358.523,5865.719a4.3,4.3,0,0,1-3.239-1.49,6.359,6.359,0,0,1-1.413-3.339,38.288,38.288,0,0,1,.407-15.183l4.27.992a33.851,33.851,0,0,0-.359,13.43,3.528,3.528,0,0,0,.344,1.158l.075.069c.484-.019,2.18-1.514,2.94-3.48,25.07-64.886,50.993-131.981,61.67-201.943,1.557-10.2,2.257-20.66-3.108-28.058l3.548-2.575c6.294,8.679,5.591,20.17,3.894,31.294-10.749,70.435-36.76,137.756-61.914,202.862-1.038,2.687-3.526,5.674-6.27,6.184A4.653,4.653,0,0,1,6358.523,5865.719Z" fill="#360484"></path>
    <rect id="Rectangle_3326" data-name="Rectangle 3326" width="4.384" height="38.824" transform="matrix(0.279, -0.96, 0.96, 0.279, 6228.006, 6008.03)" fill="#6ad1e3"></rect>
    <path id="Path_126414" data-name="Path 126414" d="M6256.264,6042.856a244.032,244.032,0,0,1-30.92-10.557l1.691-4.045a239.828,239.828,0,0,0,30.364,10.368Z" fill="#6ad1e3"></path>
    <path id="Path_126415" data-name="Path 126415" d="M6269.269,6046.037a5.541,5.541,0,0,1-1.071-.1l.84-4.3a1.485,1.485,0,0,0,1.424-.565l3.566,2.551A5.908,5.908,0,0,1,6269.269,6046.037Z" fill="#6ad1e3"></path>
    <path id="Path_126416" data-name="Path 126416" d="M6172.138,5496.489,6169.48,5493a350.835,350.835,0,0,0,48.087-44.357l3.259,2.93A355.153,355.153,0,0,1,6172.138,5496.489Z" fill="#6ad1e3"></path>
    <path id="Path_126417" data-name="Path 126417" d="M6197.4,5514.547l-3.981-1.835c4.619-10.021,13.651-16.59,22.388-22.945,8.356-6.078,16.249-11.819,20.6-20.3l3.9,2c-4.828,9.416-13.52,15.737-21.924,21.85C6209.725,5499.614,6201.543,5505.564,6197.4,5514.547Z" fill="#6ad1e3"></path>
    <path id="Path_126418" data-name="Path 126418" d="M6220.2,5506.254a162.372,162.372,0,0,1-42.258-39.574l3.518-2.617a157.982,157.982,0,0,0,41.121,38.51Z" fill="#6ad1e3"></path>
    <path id="Path_126419" data-name="Path 126419" d="M6244,5494.281c-6.762-.415-11.856-5.33-16.5-10.329l-27.292-29.41,3.213-2.983,27.292,29.41c4.2,4.53,8.4,8.62,13.552,8.937Z" fill="#6ad1e3"></path>
    <rect id="Rectangle_3327" data-name="Rectangle 3327" width="4.384" height="25.479" transform="matrix(0.775, -0.632, 0.632, 0.775, 6229.686, 5455.916)" fill="#6ad1e3"></rect>
    <path id="Path_126420" data-name="Path 126420" d="M6589.3,5532.054l-1.643-4.064c13.993-5.653,27.878-12.043,41.272-18.992l2.019,3.89C6617.431,5519.9,6603.418,5526.35,6589.3,5532.054Z" fill="#f04e98"></path>
    <path id="Path_126421" data-name="Path 126421" d="M6598,5550.519l-1.367-4.166,20.463-6.715c7.714-2.53,15.69-5.147,22.812-9.131,8.262-4.62,15.491-11.128,22.482-17.423l2.933,3.257c-7.17,6.457-14.585,13.133-23.275,17.993-7.492,4.19-15.674,6.874-23.585,9.47Z" fill="#f04e98"></path>
    <path id="Path_126422" data-name="Path 126422" d="M6621.156,5569.683l-1.65-4.062a375.827,375.827,0,0,0,57.171-29.151l2.318,3.721A380.265,380.265,0,0,1,6621.156,5569.683Z" fill="#f04e98"></path>
    <path id="Path_126423" data-name="Path 126423" d="M6618.72,5566.471a165.257,165.257,0,0,1-38.951-52.862l3.978-1.84a160.824,160.824,0,0,0,37.91,51.446Z" fill="#f04e98"></path>
    <path id="Path_126424" data-name="Path 126424" d="M6655.663,5569.459c-14.183-21.448-28.154-43.452-41.526-65.4l3.744-2.281c13.344,21.9,27.285,43.86,41.438,65.263Z" fill="#f04e98"></path>
    <path id="Path_126425" data-name="Path 126425" d="M6571.685,5543.013l-2.485-3.613a11.736,11.736,0,0,1,7.017-2.048l-.148,4.381A7.427,7.427,0,0,0,6571.685,5543.013Z" fill="#f04e98"></path>
    <rect id="Rectangle_3328" data-name="Rectangle 3328" width="6.212" height="4.384" transform="translate(6578.547 5553.88) rotate(-23.252)" fill="#f04e98"></rect>
    <path id="Path_126426" data-name="Path 126426" d="M6679.305,5560.215c-8.444-16.07-17.648-31.992-27.358-47.321l3.7-2.346c9.773,15.429,19.037,31.454,27.535,47.628Z" fill="#f04e98"></path>
    <path id="Path_126427" data-name="Path 126427" d="M6684.851,5510.6l-3.668-2.4a7.8,7.8,0,0,1,6.8-3.487l-.192,4.379A3.507,3.507,0,0,0,6684.851,5510.6Z" fill="#f04e98"></path>
    <rect id="Rectangle_3329" data-name="Rectangle 3329" width="8.397" height="4.384" transform="translate(6688.542 5528.775) rotate(-60.797)" fill="#f04e98"></rect>
  </g>
</svg>
