<?xml version="1.0" encoding="UTF-8"?>
<svg xmlns="http://www.w3.org/2000/svg" width="73" height="73" viewBox="0 0 73 73">
  <g id="Group_3068" data-name="Group 3068" transform="translate(19615 9035)">
    <rect id="Rectangle_3095" data-name="Rectangle 3095" width="73" height="73" transform="translate(-19615 -9035)" fill="none"></rect>
    <g id="Group_3054" data-name="Group 3054" transform="translate(-19606 -9026)">
      <path id="Path_125103" data-name="Path 125103" d="M609.176,1185.111H559.5v-49.672h42.221l7.451,7.451Z" transform="translate(-557.02 -1132.956)" fill="#fff"></path>
      <g id="Group_2869" data-name="Group 2869">
        <path id="Path_125104" data-name="Path 125104" d="M604.227,1134.439H558.5v54.64h54.64v-45.723Zm-5.985,49.672H573.406v-19.869h24.836Zm9.934,0h-4.967v-24.836H568.439v24.836h-4.967v-44.705h38.719l5.986,5.986Z" transform="translate(-558.504 -1134.439)" fill="#6ad2f1"></path>
      </g>
      <rect id="Rectangle_2955" data-name="Rectangle 2955" width="24.836" height="9.934" transform="translate(14.902 4.966)" fill="#dd509a"></rect>
      <g id="Group_2870" data-name="Group 2870" transform="translate(22.353 34.77)">
        <path id="Path_125105" data-name="Path 125105" d="M574.955,1153.406v-4.967h-4.967v4.967H567.5l4.967,4.967,4.967-4.967Z" transform="translate(-567.504 -1148.439)" fill="#703dc1"></path>
      </g>
    </g>
  </g>
</svg>
