<?xml version="1.0" encoding="UTF-8"?>
<svg xmlns="http://www.w3.org/2000/svg" width="73" height="73" viewBox="0 0 73 73">
  <g id="Group_3581" data-name="Group 3581" transform="translate(19982 8609)">
    <rect id="Rectangle_3666" data-name="Rectangle 3666" width="73" height="73" transform="translate(-19982 -8609)" fill="none"></rect>
    <g id="Group_3570" data-name="Group 3570" transform="translate(-19973 -8601)">
      <circle id="Ellipse_31" data-name="Ellipse 31" cx="12.717" cy="12.717" r="12.717" fill="#703dc1"></circle>
      <g id="Group_2759" data-name="Group 2759" transform="translate(5.832 5.832)">
        <path id="Path_125002" data-name="Path 125002" d="M-51.328,1229.069l-3.6-3.6-3.289,3.289-3.289-3.289-3.6,3.6,3.289,3.288-3.289,3.289,3.6,3.6,3.289-3.288,3.289,3.288,3.6-3.6-3.289-3.289Z" transform="translate(65.099 -1225.473)" fill="#fff"></path>
      </g>
      <circle id="Ellipse_32" data-name="Ellipse 32" cx="12.717" cy="12.717" r="12.717" transform="translate(30.522)" fill="#dd509a"></circle>
      <g id="Group_2760" data-name="Group 2760" transform="translate(36.878 6.269)">
        <path id="Path_125003" data-name="Path 125003" d="M-45.689,1238.459l-7.2-4.163,2.548-4.406,2.971,1.719,3.78-5.964,4.3,2.722Z" transform="translate(52.893 -1225.645)" fill="#6ad2f1"></path>
      </g>
      <path id="Path_125004" data-name="Path 125004" d="M-54.218,1247.984l-3.223-1.613a4.805,4.805,0,0,0-6.951,4.3,4.8,4.8,0,0,0,1.923,3.841l8.251,6.191v5.087h25.435v-16.039a5.085,5.085,0,0,0-4.25-5.018l-11.011-1.834v-7.63a5.085,5.085,0,0,0-5.087-5.087,5.107,5.107,0,0,0-5.087,5.087Z" transform="translate(72.021 -1212.375)" fill="#fff"></path>
      <g id="Group_2761" data-name="Group 2761" transform="translate(5.086 15.261)">
        <path id="Path_125005" data-name="Path 125005" d="M-24.7,1269.875H-55.218v-6.359l-7.231-5.428a7.378,7.378,0,0,1-2.943-5.878,7.351,7.351,0,0,1,10.174-6.783v-8.617a7.64,7.64,0,0,1,7.63-7.631,7.638,7.638,0,0,1,7.63,7.631v5.476l8.887,1.481a7.6,7.6,0,0,1,6.374,7.526Zm-25.435-5.087h20.348v-13.5a2.532,2.532,0,0,0-2.124-2.508l-13.137-2.193v-9.782a2.544,2.544,0,0,0-2.543-2.544,2.546,2.546,0,0,0-2.543,2.544v16.832c-7.279-3.642-7.707-4.227-9.1-3.352a2.257,2.257,0,0,0-.168,3.729l9.268,6.954Z" transform="translate(65.392 -1229.18)" fill="#6ad2f1"></path>
      </g>
    </g>
    <g id="Group_3573" data-name="Group 3573" transform="translate(-19973 -8601)">
      <circle id="Ellipse_31-2" data-name="Ellipse 31" cx="12.717" cy="12.717" r="12.717" fill="#703dc1"></circle>
      <g id="Group_2759-2" data-name="Group 2759" transform="translate(5.832 5.832)">
        <path id="Path_125002-2" data-name="Path 125002" d="M-51.328,1229.069l-3.6-3.6-3.289,3.289-3.289-3.289-3.6,3.6,3.289,3.288-3.289,3.289,3.6,3.6,3.289-3.288,3.289,3.288,3.6-3.6-3.289-3.289Z" transform="translate(65.099 -1225.473)" fill="#fff"></path>
      </g>
      <circle id="Ellipse_32-2" data-name="Ellipse 32" cx="12.717" cy="12.717" r="12.717" transform="translate(30.522)" fill="#dd509a"></circle>
      <g id="Group_2760-2" data-name="Group 2760" transform="translate(36.878 6.269)">
        <path id="Path_125003-2" data-name="Path 125003" d="M-45.689,1238.459l-7.2-4.163,2.548-4.406,2.971,1.719,3.78-5.964,4.3,2.722Z" transform="translate(52.893 -1225.645)" fill="#6ad2f1"></path>
      </g>
      <path id="Path_125004-2" data-name="Path 125004" d="M-54.218,1247.984l-3.223-1.613a4.805,4.805,0,0,0-6.951,4.3,4.8,4.8,0,0,0,1.923,3.841l8.251,6.191v5.087h25.435v-16.039a5.085,5.085,0,0,0-4.25-5.018l-11.011-1.834v-7.63a5.085,5.085,0,0,0-5.087-5.087,5.107,5.107,0,0,0-5.087,5.087Z" transform="translate(72.021 -1212.375)" fill="#fff"></path>
      <g id="Group_2761-2" data-name="Group 2761" transform="translate(5.086 15.261)">
        <path id="Path_125005-2" data-name="Path 125005" d="M-24.7,1269.875H-55.218v-6.359l-7.231-5.428a7.378,7.378,0,0,1-2.943-5.878,7.351,7.351,0,0,1,10.174-6.783v-8.617a7.64,7.64,0,0,1,7.63-7.631,7.638,7.638,0,0,1,7.63,7.631v5.476l8.887,1.481a7.6,7.6,0,0,1,6.374,7.526Zm-25.435-5.087h20.348v-13.5a2.532,2.532,0,0,0-2.124-2.508l-13.137-2.193v-9.782a2.544,2.544,0,0,0-2.543-2.544,2.546,2.546,0,0,0-2.543,2.544v16.832c-7.279-3.642-7.707-4.227-9.1-3.352a2.257,2.257,0,0,0-.168,3.729l9.268,6.954Z" transform="translate(65.392 -1229.18)" fill="#6ad2f1"></path>
      </g>
    </g>
  </g>
</svg>
