<?xml version="1.0" encoding="UTF-8"?>
<svg xmlns="http://www.w3.org/2000/svg" width="958.406" height="829.82" viewBox="0 0 958.406 829.82">
  <g id="Group_3754" data-name="Group 3754" transform="translate(17436.039 -16607.457)">
    <path id="Path_128911" data-name="Path 128911" d="M4800.12,13207.755c245.258-24.235,550.284-80.564,812.826-141.932a2852.83,2852.83,0,0,1-623.774,463.767l50.34-217.289-239.392-104.546" transform="translate(-22196.766 3901.996)" fill="#6ad1e3"></path>
    <path id="Path_128912" data-name="Path 128912" d="M4984.862,13535.282,5036.127,13314l-247.411-108.046,11.117-1.1c226.248-22.357,522.375-74.067,812.45-141.87l10.121-2.366-7.417,7.282a2851.233,2851.233,0,0,1-624.412,464.241Zm-173.372-325.74L5042.9,13310.6l-49.413,213.289a2845.5,2845.5,0,0,0,609.978-452.862c-282.341,65.6-569.611,115.836-791.971,138.517" transform="translate(-22196.766 3901.996)" fill="#6ad1e3"></path>
    <path id="Path_128913" data-name="Path 128913" d="M5079.472,13314.947l-5.142-2.742c4.919-9.221,5.024-20.585,5.118-30.612.179-19.183.365-39.02-3.379-58.053-4.131-21.007-12.832-38.379-25.159-50.237l4.038-4.2c13.195,12.691,22.475,31.125,26.84,53.312,3.858,19.617,3.67,39.757,3.487,59.233-.1,10.694-.213,22.818-5.8,33.3" transform="translate(-22196.766 3901.996)" fill="#f04e98"></path>
    <path id="Path_128914" data-name="Path 128914" d="M5143.579,13286.193l-5.217-2.6c18.3-36.78,15.658-82.806-6.728-117.254-1.326-2.041-2.93-4.163-4.773-4.427l.829-5.768c4.149.6,6.791,3.884,8.829,7.02,23.489,36.143,26.26,84.433,7.06,123.025" transform="translate(-22196.766 3901.996)" fill="#f04e98"></path>
    <path id="Path_128915" data-name="Path 128915" d="M5235.789,13260.774l-5.77-.814a209.155,209.155,0,0,0-5.193-83.249c-2.685-9.905-7.543-23.7-18.673-29.079l2.537-5.246c13.274,6.42,18.776,21.794,21.76,32.8a215.041,215.041,0,0,1,5.339,85.589" transform="translate(-22196.766 3901.996)" fill="#f04e98"></path>
    <path id="Path_128916" data-name="Path 128916" d="M5224.972,13232.011c-63.158,27.75-126.437,55.531-191.808,77.518l6.348,2.771q-25.17,108.646-50.34,217.29a2852.861,2852.861,0,0,0,623.774-463.767q-10.288,2.4-20.668,4.8l-219.022,96.236-148.284,65.153" transform="translate(-22196.766 3901.996)" fill="#f04e98"></path>
    <path id="Path_128917" data-name="Path 128917" d="M4985.236,13534.789l51.184-220.936-10.646-4.647,6.541-2.2c65.5-22.029,129.6-50.194,191.586-77.432l367.536-161.49.243-.056q10.369-2.394,20.66-4.795l9.246-2.163-6.775,6.652a2851,2851,0,0,1-624.357,464.2Zm55.29-224.95,2.078.907-49.494,213.636a2845.742,2845.742,0,0,0,611.177-453.809q-5.573,1.293-11.166,2.585l-367.079,161.289h0c-60.041,26.382-122.063,53.634-185.516,75.392" transform="translate(-22196.766 3901.996)" fill="#f04e98"></path>
    <path id="Path_128918" data-name="Path 128918" d="M5610.283,13066.209c-211.674,152.565-463.43,237.568-694.082,359.56q33.379-36.306,68.461-71c21.407-21.168,43.486-42.034,69.147-57.775,24.3-14.906,51.246-24.87,78.011-34.687,52.509-19.26,105.177-38.36,155.759-62.227,25.068-11.828,49.632-24.83,75.5-34.795,23.639-9.108,48.213-15.62,71.852-24.729,61.667-23.762,117.714-65.333,183.343-73.09" transform="translate(-22196.766 3901.996)" fill="#703dc1"></path>
    <path id="Path_128919" data-name="Path 128919" d="M4905.708,13433.861l8.838-9.613c22.183-24.128,45.241-48.041,68.536-71.077,20.794-20.562,43.293-41.986,69.552-58.093,24.813-15.221,52.061-25.215,78.412-34.881l5.967-2.187c49.671-18.211,101.032-37.042,149.607-59.961,6.975-3.292,14.034-6.734,20.861-10.062,17.72-8.641,36.042-17.576,54.787-24.8,11.877-4.576,24.161-8.556,36.041-12.4,11.823-3.83,24.048-7.791,35.811-12.323,21.368-8.234,42.435-18.8,62.808-29.028,34.428-17.276,69.913-35.082,108.092-42.212,1.315-.941,2.635-1.889,3.948-2.835l1.379,1.913q3.813-.608,7.66-1.063l.528,4.465q-5.9.7-11.719,1.761c-136.21,97.235-291.128,168.146-441,236.745-82.326,37.684-167.455,76.649-248.568,119.551Zm690.041-360.072c-33.811,8.05-65.739,24.072-96.805,39.661-20.469,10.271-41.636,20.894-63.208,29.206-11.877,4.576-24.161,8.556-36.042,12.4-11.822,3.831-24.048,7.792-35.81,12.324-18.564,7.151-36.8,16.044-54.433,24.643-6.839,3.335-13.91,6.783-20.913,10.087-48.757,23.006-100.214,41.872-149.976,60.115l-5.968,2.189c-26.144,9.59-53.178,19.506-77.61,34.492-25.851,15.857-48.132,37.079-68.741,57.458-20.153,19.928-40.128,40.515-59.511,61.329,77.718-40.571,158.741-77.657,237.217-113.578,146.577-67.093,297.995-136.4,431.8-230.33" transform="translate(-22196.766 3901.996)" fill="#703dc1"></path>
    <path id="Path_128920" data-name="Path 128920" d="M5280.339,13179.181a16.235,16.235,0,0,1-7.6-1.93c-41.708-22.066-77.8-54.77-112.71-86.4-9.241-8.371-18.795-17.028-28.27-25.317-4.962-4.339-6.951-3.892-8.361-2.765a5.248,5.248,0,0,0-1.855,3.816,210.568,210.568,0,0,0,13.451,87.425l-5.442,2.084a216.45,216.45,0,0,1-13.826-89.861,11.087,11.087,0,0,1,4.032-8.015c6.521-5.221,13.534.914,15.838,2.931,9.512,8.32,19.086,17,28.345,25.384,34.641,31.386,70.461,63.841,111.523,85.565a10.194,10.194,0,0,0,14.406-12.4,93.059,93.059,0,0,0-14.443-26.577l-10.393-13.333,44.488,28.352c4.3,2.743,7.9,4.847,11.752,4.9,4.121.093,6.929-2.457,8.553-4.573a18.618,18.618,0,0,0,3.1-15.647,28.575,28.575,0,0,0-5.137-9.793c-5.327-3.465-9.965-8.453-14.565-13.723l4.017-4.188c4.5,3.607,10,8.006,14.408,13.436a22.28,22.28,0,0,0,8.3,3.167c4.541.7,10.053-1.592,13.11-5.439,1.2-1.5,2.993-4.549,1.6-8.023a19.143,19.143,0,0,0-3.91-5.366,1181.475,1181.475,0,0,0-194.45-170.27c-6.154-4.294-17.608-12.29-17.747-24-.061-5.093,2.1-9.8,4.137-13.818a198.4,198.4,0,0,1,55.566-67.1c21.117-16.27,42.153-25.158,62.521-26.42,25.29-1.566,49,9.708,60.408,28.721,11.866,19.772,9.593,43.845,5.967,68.84l-21.647,149.209q25.534,24.709,49.54,50.9a24.239,24.239,0,0,1,5.026,7.141c1.812,4.533.918,9.567-2.453,13.811-4.344,5.47-11.977,8.588-18.555,7.575q-1.043-.16-2.047-.4a29.982,29.982,0,0,1,1.518,4.156,24.375,24.375,0,0,1-4.079,20.778c-3.4,4.427-8.021,6.854-13.045,6.854h-.21c-5.811-.079-10.8-3.256-14.805-5.811l-18.531-11.811a100.083,100.083,0,0,1,7.512,16.533,16.1,16.1,0,0,1-15.027,21.4m-15.086-372.21q-2.058,0-4.126.128c-19.186,1.188-39.146,9.675-59.326,25.221a192.538,192.538,0,0,0-53.923,65.116c-1.8,3.555-3.554,7.341-3.509,11.117.095,8.038,7.925,14.171,15.256,19.288a1187.234,1187.234,0,0,1,140.7,115.243l21.047-145.076c3.469-23.913,5.683-46.878-5.2-65.006-9.53-15.881-29.635-26.031-50.926-26.031" transform="translate(-22196.766 3901.996)" fill="#360484"></path>
    <path id="Path_128921" data-name="Path 128921" d="M5229.264,12898.43l2.3-6.335a17.875,17.875,0,0,1,4.761-7.082h-.045a38.759,38.759,0,0,0-20.15,5.668l-3.047-4.967a44.585,44.585,0,0,1,26.643-6.391,5.281,5.281,0,0,1,4.038,1.933,5.035,5.035,0,0,1,.52,4.639,15.911,15.911,0,0,1-8.83,9.87Z" transform="translate(-22196.766 3901.996)" fill="#360484"></path>
    <path id="Path_128922" data-name="Path 128922" d="M5288.632,12887.44l2.3-6.335a17.86,17.86,0,0,1,4.761-7.082h-.047a38.749,38.749,0,0,0-20.148,5.668l-3.047-4.968a44.586,44.586,0,0,1,26.643-6.391,5.294,5.294,0,0,1,4.038,1.933,5.038,5.038,0,0,1,.52,4.64,15.912,15.912,0,0,1-8.83,9.87Z" transform="translate(-22196.766 3901.996)" fill="#360484"></path>
    <path id="Path_128923" data-name="Path 128923" d="M5175.558,12867.73c-.569,0-1.131-.016-1.689-.045a41.62,41.62,0,0,1-38.477-50.576l5.689,1.261a35.793,35.793,0,0,0,33.089,43.5,29.143,29.143,0,0,0,18.805-5.373,12.879,12.879,0,0,1-1.841-4.457,11.76,11.76,0,0,1,3.174-10.329,9.636,9.636,0,0,1,8.539-3.074,5.717,5.717,0,0,1,2.79,1.188c1.029.848,2.586,2.863,1.442,6.819a25.753,25.753,0,0,1-5.485,9.923,12.837,12.837,0,0,0,3.841,1.3c4.412.726,9.168-.5,13.651-1.932,31.132-9.938,54.6-30.648,62.765-55.4l5.534,1.827c-8.753,26.519-33.623,48.621-66.527,59.126-5.177,1.65-10.741,3.052-16.366,2.13a18.559,18.559,0,0,1-7.364-2.947,36.9,36.9,0,0,1-21.57,7.064m25.833-23.39a4.193,4.193,0,0,0-2.883,1.406,6.034,6.034,0,0,0-1.667,5.115,6.843,6.843,0,0,0,.529,1.569,20.3,20.3,0,0,0,4.111-7.408,4.785,4.785,0,0,0,.148-.674c-.08-.006-.159-.009-.238-.009" transform="translate(-22196.766 3901.996)" fill="#360484"></path>
    <path id="Path_128924" data-name="Path 128924" d="M5256.4,12933.2a97.773,97.773,0,0,1-39.239-18.091l3.554-4.617a91.943,91.943,0,0,0,36.887,17.007Z" transform="translate(-22196.766 3901.996)" fill="#360484"></path>
    <path id="Path_128925" data-name="Path 128925" d="M5315.323,12989.1l-2.061-5.451c7.3-2.759,14.881-4.893,22.212-6.955l3.677-1.038a792.669,792.669,0,0,0,83.982-29.057c12.9-5.292,27.672-11.73,39.846-21.208a20.765,20.765,0,0,0,5.739-6.743,42.64,42.64,0,0,1-13.109-.574l-3.219-.656,1.035-3.117a13.813,13.813,0,0,1,10.206-8.771,9.682,9.682,0,0,1,9.485,2.922,9.81,9.81,0,0,1,1.831,3.052,37.7,37.7,0,0,0,14-7.542c2.428-2.094,3.647-4,3.621-5.651-.058-3.731-6.006-5.552-9.99-5.863a67.307,67.307,0,0,0-19.324,1.306,62.761,62.761,0,0,1-20.322,7.712l-17.031,3.208,15.046-8.6a73.423,73.423,0,0,1,20.125-7.8,57.067,57.067,0,0,0,15.717-14.238c1.265-1.684,2.064-3.749,1.9-4.914a.828.828,0,0,0-.342-.631c-.785-.588-2.965.017-3.894.275l-146.159,40.721-1.563-5.612,146.158-40.722c1.907-.529,5.874-1.635,8.955.678a6.632,6.632,0,0,1,2.614,4.471c.58,4.084-2.158,8.1-3.011,9.236a61.672,61.672,0,0,1-8.324,9.017,71.735,71.735,0,0,1,9.912.088c7.567.593,15.25,4.405,15.362,11.582.054,3.511-1.791,6.832-5.642,10.155a43.729,43.729,0,0,1-17.458,9.064c-1.059,5.034-5.092,9.713-8.738,12.552-12.754,9.928-27.961,16.562-41.213,22a798.292,798.292,0,0,1-84.6,29.27l-3.69,1.042c-7.212,2.03-14.668,4.128-21.73,6.8m145.9-76.12a38.191,38.191,0,0,0,7.858-.233,4.335,4.335,0,0,0-.354-.459,3.993,3.993,0,0,0-3.947-1.048,8.229,8.229,0,0,0-3.557,1.74" transform="translate(-22196.766 3901.996)" fill="#360484"></path>
    <path id="Path_128926" data-name="Path 128926" d="M5425.377,13115.381l-4.687-3.463a13.89,13.89,0,0,0-19.529-19.35l-6.467,4.87,1.881-7.874c2.183-9.142,4.441-18.594,3.3-27.875-1.2-9.712-6.642-17.832-13.87-20.691-4.437-1.754-9.694-1.687-14.273-1.484a204.466,204.466,0,0,0-67.057,14.443l-2.163-5.41a210.251,210.251,0,0,1,68.964-14.854c5.183-.23,11.168-.29,16.671,1.887,7.308,2.889,15.745,11.077,17.511,25.4,1.005,8.146-.333,16.354-2.02,23.971a19.643,19.643,0,0,1,21.743,30.435" transform="translate(-22196.766 3901.996)" fill="#360484"></path>
    <path id="Path_128928" data-name="Path 128928" d="M4906.816,13248.382l-5.4-2.192a49.9,49.9,0,0,0-7.649-49.426l4.482-3.723c12.474,15.017,15.916,37.257,8.565,55.341" transform="translate(-22196.766 3901.996)" fill="#f04e98"></path>
    <path id="Path_128929" data-name="Path 128929" d="M4955.206,13271.007l-5.381-2.238a91.677,91.677,0,0,0,2.7-61.991c-2.343-7.391-5.293-11.768-9.281-13.774l2.618-5.205c7.206,3.625,10.425,11.563,12.218,17.217a97.6,97.6,0,0,1-2.879,65.992" transform="translate(-22196.766 3901.996)" fill="#f04e98"></path>
    <path id="Path_128930" data-name="Path 128930" d="M5010.164,13306.856l-5.719-1.121c3.809-19.413,7.485-42.275,5.87-64.64-1.19-16.482-5.914-40.137-21.661-59.218l4.494-3.709c16.727,20.266,21.728,45.178,22.979,62.507,1.665,23.05-2.081,46.39-5.963,66.181" transform="translate(-22196.766 3901.996)" fill="#f04e98"></path>
    <path id="Path_128931" data-name="Path 128931" d="M5148.942,12783.193a120.973,120.973,0,0,0-31.029-29.417l3.2-4.869a126.813,126.813,0,0,1,32.519,30.829Z" transform="translate(-22196.766 3901.996)" fill="#6ad1e3"></path>
    <path id="Path_128932" data-name="Path 128932" d="M5261.773,12769.2l-5.44-2.088a18.523,18.523,0,0,0-1.206-15.016,19.419,19.419,0,0,0-8.068-8.384c-.068.286-.138.57-.21.855-1.711,6.795-6.374,13.094-12.933,11.876a8.259,8.259,0,0,1-6.241-5.632,10.558,10.558,0,0,1,1.657-10.212c3.407-4.031,8.678-4.927,13.205-4.357a66.856,66.856,0,0,0-2.4-29.025l5.557-1.756a71.649,71.649,0,0,1,2.52,32.348,24.933,24.933,0,0,1,12.1,11.624,24.342,24.342,0,0,1,1.463,19.767m-21.68-27.282a8.063,8.063,0,0,0-6.311,2.444,4.781,4.781,0,0,0-.618,4.5,2.654,2.654,0,0,0,1.825,1.857c3,.562,5.4-4.347,6.21-7.572q.145-.576.28-1.156a13.831,13.831,0,0,0-1.386-.07" transform="translate(-22196.766 3901.996)" fill="#6ad1e3"></path>
    <rect id="Rectangle_4387" data-name="Rectangle 4387" width="71.246" height="5.828" transform="translate(-16836.861 16685.449) rotate(-56.728)" fill="#6ad1e3"></rect>
    <path id="Path_128933" data-name="Path 128933" d="M4762.761,13100.318l-2.034-5.461a391.03,391.03,0,0,1,60.554-17.132c-2.055-9.532,2.9-20.452,14.756-32.517,8.252-8.395,18.087-17.736,30.4-22.342,11.431-4.279,27.439-4.047,37.431,6.115a23.777,23.777,0,0,1,6.06,11.329q.776-.584,1.586-1.135c8.182-5.549,18-7.74,26.937-6.01,6.527,1.264,11.5,4.4,14,8.822a12.2,12.2,0,0,1,1.442,4.423c10.586-5.349,23.847-5.064,36.775-4.788,16.2.352,31.5.676,41.558-9.13l4.068,4.172c-11.809,11.511-29.063,11.141-45.751,10.784-14.58-.316-28.454-.611-38.054,6.681a9.6,9.6,0,0,1-4.961,4.376l-10.873,4.162,7.632-8.792a31.4,31.4,0,0,1,3.5-3.455,6.987,6.987,0,0,0-.414-5.565c-2.222-3.933-7.241-5.429-10.035-5.97-7.424-1.434-15.648.425-22.557,5.112a33.645,33.645,0,0,0-4.219,3.387,25.425,25.425,0,0,1-.287,2.825c-1.057,6.68-4.736,12.113-10.1,14.9l-5.324,2.771,1.116-5.9a34.815,34.815,0,0,1,8.749-16.971,18.838,18.838,0,0,0-5.012-11.949c-8.158-8.3-21.566-8.36-31.234-4.744-11.2,4.188-20.469,13.02-28.284,20.97-11.493,11.689-15.691,21.645-12.48,29.587l1.333,3.3-3.493.66a384.774,384.774,0,0,0-62.791,17.481" transform="translate(-22196.766 3901.996)" fill="#6ad1e3"></path>
    <path id="Path_128934" data-name="Path 128934" d="M5405.834,13359l-1.317-5.676a231.234,231.234,0,0,1,44.045-5.833c-1.935-19.274,11.475-37.105,23.643-50.685,9.423-10.515,19.754-21.252,33.27-26.887,12.511-5.217,31.04-5.441,42.156,6.389a22.981,22.981,0,0,1,3.529,4.973,82.688,82.688,0,0,1,9.179-4.925c13.765-6.3,26.71-6.34,35.515-.112a18.878,18.878,0,0,1,6.766,9.437,52.727,52.727,0,0,1,11.173-6.276c12.826-5.4,27.369-6.687,37.309-6.815l.73-.01c23.386-.3,49.892-.645,62.522-18.766l4.78,3.332c-14.341,20.576-43.664,20.955-67.226,21.26l-.73.01c-25.72.334-39.759,7.149-47.406,14.191a21.165,21.165,0,0,1-.357,3.97c-1.174,6.268-5,10.65-10.489,12.025l-4.72,1.183,1.186-4.719a33.229,33.229,0,0,1,8.312-15.04,13.65,13.65,0,0,0-5.214-9.023c-10.034-7.1-24.132-1.907-29.727.653a76.918,76.918,0,0,0-9.444,5.151,28.164,28.164,0,0,1,.2,13.721c-1.783,7.457-6.472,13.062-12.866,15.375-4.424,1.6-10.389,1.238-13.03-3.34-1.485-2.578-2.177-6.972,2.968-13.261a83.421,83.421,0,0,1,15.708-14.763,17.519,17.519,0,0,0-2.913-4.239c-9.216-9.809-24.948-9.47-35.667-5-12.392,5.166-22.195,15.379-31.172,25.4-22.8,25.44-23.608,39.581-21.767,49.059l.659,3.4-3.458.072a225.6,225.6,0,0,0-46.145,5.777m142.326-68.591a77.375,77.375,0,0,0-13.061,12.582c-1.106,1.352-3.556,4.707-2.429,6.661.866,1.5,3.786,1.568,6,.771,4.517-1.635,7.863-5.736,9.182-11.252a22.344,22.344,0,0,0,.31-8.763" transform="translate(-22196.766 3901.996)" fill="#6ad1e3"></path>
    <path id="Path_128935" data-name="Path 128935" d="M5548.167,13002.993l-1.931-5.5,35.912-12.616c-.08-11.287,6.615-21.257,12.6-28.8,5.36-6.755,12.772-15.082,22.6-19.561,10.6-4.823,22.506-3.963,30.33,2.2a21.631,21.631,0,0,1,7.932,15.885,20.922,20.922,0,0,1-.031,2.467,37.156,37.156,0,0,1,10.943-2.136c7.724-.172,14.677,3.405,17.752,9.115.245.457.471.933.7,1.411a6.181,6.181,0,0,0,1.462,2.318c.771.511,2.518.229,3.459.079a131.172,131.172,0,0,0,25.2-6.647l2.04,5.459a137.082,137.082,0,0,1-26.316,6.943c-1.719.276-4.92.785-7.583-.968a10.526,10.526,0,0,1-3.528-4.7c-.181-.384-.36-.769-.558-1.135-2.485-4.617-8.3-6.159-12.488-6.05-4.391.1-8.717,1.536-12.938,3.2a16.159,16.159,0,0,1-3.295,4.425l-7.828,7.419,4.522-15.452,1.3-.531.838-.344a13.7,13.7,0,0,0,.539-4.608,15.951,15.951,0,0,0-5.716-11.573c-6.129-4.825-15.671-5.4-24.31-1.471-8.7,3.963-15.5,11.636-20.455,17.878-5.717,7.205-12.162,16.777-11.254,26.953l.2,2.257Z" transform="translate(-22196.766 3901.996)" fill="#6ad1e3"></path>
  </g>
</svg>
